<?xml version="1.0" standalone="no"?>
<!DOCTYPE svg PUBLIC "-//W3C//DTD SVG 1.1//EN" "http://www.w3.org/Graphics/SVG/1.1/DTD/svg11.dtd" >
<svg xmlns="http://www.w3.org/2000/svg" xmlns:xlink="http://www.w3.org/1999/xlink" version="1.1">
<metadata>
Created by FontForge 20170924 at Sun Apr 14 20:47:22 2019
 By www-data
Typeface (your company). 2018. All Rights Reserved
</metadata>
<defs>
<font id="KidKnowledges1" horiz-adv-x="414" >
  <font-face 
    font-family="Kid Knowledges 1"
    font-weight="400"
    font-stretch="normal"
    units-per-em="1000"
    panose-1="0 0 0 0 0 0 0 0 0 0"
    ascent="800"
    descent="-200"
    x-height="517"
    cap-height="714"
    bbox="-232 -322 1151 944"
    underline-thickness="50"
    underline-position="-75"
    unicode-range="U+001D-E002"
  />
<missing-glyph horiz-adv-x="440" 
d="M440 700v-700c0 -10 -9 -19 -19 -19h-402c-10 0 -19 9 -19 19v700c0 10 9 19 19 19h402c10 0 19 -9 19 -19zM19 0h402v700h-402v-700zM397 676v-652h-354v652h354zM62 657v-614h316v614h-316zM178 207c-4 3 -7 6 -8 8c-8 23 -18 50 -18 78c0 22 6 42 14 61
c7 19 18 37 28 56c20 37 37 67 37 96c0 26 -15 41 -40 41c-18 0 -34 -8 -49 -22c-6 -5 -11 -7 -16 -7c-9 0 -16 8 -16 21v22c0 2 5 13 7 14c27 24 61 40 100 40c57 0 113 -34 113 -102c0 -52 -35 -98 -64 -134c-14 -18 -28 -36 -39 -54c-11 -16 -16 -30 -16 -43
c0 -8 1 -17 3 -26c3 -10 5 -20 8 -30c1 -7 -1 -14 -5 -18c20 -13 42 -41 42 -56c0 -23 -41 -60 -53 -65c-1 -1 -8 -2 -9 -2c-23 1 -61 49 -61 68c0 15 22 41 42 54zM198 104c10 4 42 38 42 48c0 11 -33 44 -43 44c-9 0 -42 -32 -42 -43c0 -10 32 -49 43 -49zM188 222h15
c-5 21 -11 44 -11 60c0 70 119 142 119 231c0 56 -46 83 -94 83c-36 0 -65 -15 -88 -35v-22c17 16 37 27 62 27c36 0 59 -24 59 -60c0 -68 -79 -142 -79 -213c0 -23 8 -49 17 -71z" />
    <glyph glyph-name=".notdef" horiz-adv-x="440" 
d="M440 700v-700c0 -10 -9 -19 -19 -19h-402c-10 0 -19 9 -19 19v700c0 10 9 19 19 19h402c10 0 19 -9 19 -19zM19 0h402v700h-402v-700zM397 676v-652h-354v652h354zM62 657v-614h316v614h-316zM178 207c-4 3 -7 6 -8 8c-8 23 -18 50 -18 78c0 22 6 42 14 61
c7 19 18 37 28 56c20 37 37 67 37 96c0 26 -15 41 -40 41c-18 0 -34 -8 -49 -22c-6 -5 -11 -7 -16 -7c-9 0 -16 8 -16 21v22c0 2 5 13 7 14c27 24 61 40 100 40c57 0 113 -34 113 -102c0 -52 -35 -98 -64 -134c-14 -18 -28 -36 -39 -54c-11 -16 -16 -30 -16 -43
c0 -8 1 -17 3 -26c3 -10 5 -20 8 -30c1 -7 -1 -14 -5 -18c20 -13 42 -41 42 -56c0 -23 -41 -60 -53 -65c-1 -1 -8 -2 -9 -2c-23 1 -61 49 -61 68c0 15 22 41 42 54zM198 104c10 4 42 38 42 48c0 11 -33 44 -43 44c-9 0 -42 -32 -42 -43c0 -10 32 -49 43 -49zM188 222h15
c-5 21 -11 44 -11 60c0 70 119 142 119 231c0 56 -46 83 -94 83c-36 0 -65 -15 -88 -35v-22c17 16 37 27 62 27c36 0 59 -24 59 -60c0 -68 -79 -142 -79 -213c0 -23 8 -49 17 -71z" />
    <glyph glyph-name=".null" horiz-adv-x="0" 
 />
    <glyph glyph-name=".null" horiz-adv-x="0" 
 />
    <glyph glyph-name="nonmarkingreturn" horiz-adv-x="508" 
 />
    <glyph glyph-name="space" unicode=" " horiz-adv-x="301" 
 />
    <glyph glyph-name="space" unicode="&#xa0;" horiz-adv-x="301" 
 />
    <glyph glyph-name="exclam" unicode="!" horiz-adv-x="165" 
d="M101 6c25 0 64 11 64 44c0 31 -37 43 -64 43c-25 0 -63 -11 -63 -42s37 -45 63 -45zM98 131c19 0 50 9 50 34l2 521c0 22 -29 34 -47 34c-19 0 -52 -11 -52 -34l-1 -521c0 -23 27 -34 48 -34z" />
    <glyph glyph-name="quotedbl" unicode="&#x22;" horiz-adv-x="323" 
d="M75 587c38 0 96 29 96 78c0 42 -41 49 -62 49c-33 0 -71 -17 -71 -42c0 -26 44 -33 64 -33l-14 -8c-15 -9 -45 0 -45 -22c0 -17 16 -22 32 -22zM226 587c38 0 97 29 97 78c0 42 -41 49 -63 49c-34 0 -71 -17 -71 -41c0 -27 46 -34 66 -34l-18 -10c-11 -6 -41 2 -41 -21
c0 -16 14 -21 30 -21z" />
    <glyph glyph-name="numbersign" unicode="#" horiz-adv-x="474" 
d="M333 141c43 0 50 23 50 54l-2 47c22 2 72 2 72 37c0 28 -32 32 -57 32h-15v77h23c30 0 70 3 70 34s-40 34 -69 34h-24v5c0 39 -1 63 -49 63c-50 0 -51 -26 -51 -64v-5l-59 -1l5 49c0 20 -34 30 -58 30c-45 0 -40 -38 -45 -80h-9c-26 0 -70 -2 -70 -35
c0 -29 34 -33 59 -33h13l-8 -90c-22 -2 -71 -3 -71 -37c0 -32 41 -32 63 -32l-4 -50c0 -20 34 -30 57 -30c47 0 42 44 47 86l80 5l-1 -37c0 -31 6 -59 53 -59zM282 305l-75 -4l9 85h66v-81z" />
    <glyph glyph-name="dollar" unicode="$" horiz-adv-x="463" 
d="M245 2c43 0 49 22 49 57c81 12 169 63 169 157c0 92 -86 163 -168 195v158c14 -5 31 -12 38 -26c0 -21 21 -36 42 -36s49 13 49 39c0 47 -90 90 -129 103v15c0 32 -3 56 -50 56c-45 0 -48 -22 -48 -55v-16c-62 -18 -125 -67 -125 -137s64 -118 124 -141v-227
c-52 38 -59 94 -59 120c0 55 -31 66 -54 66c-31 0 -45 -20 -45 -62c0 -90 62 -179 158 -205c0 -36 3 -61 49 -61zM294 129l1 202c43 -20 76 -64 76 -112s-33 -79 -77 -90zM197 557l-1 -105c-16 10 -29 24 -29 47s15 39 30 58z" />
    <glyph glyph-name="percent" unicode="%" horiz-adv-x="483" 
d="M350 7c56 0 106 44 106 107c0 53 -36 89 -84 89c-37 0 -114 -21 -123 -56c-23 -3 -46 -11 -66 -23c45 98 101 190 165 286c34 51 135 199 135 259c0 38 -39 50 -69 50c-48 0 -116 -33 -158 -60v1c0 44 -87 60 -126 60s-92 -16 -92 -77c0 -68 67 -102 121 -102
c80 0 160 76 223 99l-38 -76c-49 -97 -295 -454 -295 -517c0 -24 34 -39 60 -39c45 0 99 43 140 65c17 -35 54 -66 101 -66zM347 85c-4 12 -10 24 -19 34l29 12l2 -9c0 -13 -5 -26 -12 -37zM202 628l-40 -19c-15 3 -25 20 -25 35l2 10c23 -5 39 -22 63 -26z" />
    <glyph glyph-name="ampersand" unicode="&#x26;" horiz-adv-x="445" 
d="M361 1c15 0 31 6 43 17c3 5 5 11 5 18c0 13 -8 18 -14 23c-24 18 -39 54 -51 76c41 47 101 143 101 193c0 36 -32 45 -51 45c-21 0 -42 -10 -54 -57c-2 -12 -15 -61 -39 -89c-23 53 -43 107 -62 162c41 63 88 148 88 223c0 62 -32 110 -99 110c-87 0 -142 -81 -142 -166
c0 -56 24 -114 51 -164c-43 -83 -99 -187 -99 -279c0 -79 40 -112 98 -112c61 0 107 38 141 67c17 -29 45 -67 84 -67zM150 78c-14 0 -18 18 -18 33c0 43 28 116 48 160c19 -43 36 -86 56 -128c-15 -15 -63 -65 -86 -65zM201 495c-10 22 -18 46 -18 70c0 21 7 58 31 58
c18 0 20 -19 20 -29c0 -33 -18 -71 -33 -99z" />
    <glyph glyph-name="quotesingle" unicode="'" horiz-adv-x="171" 
d="M75 587c38 0 96 29 96 78c0 42 -41 49 -62 49c-33 0 -71 -17 -71 -42c0 -26 44 -33 64 -33l-14 -8c-15 -9 -45 0 -45 -22c0 -17 16 -22 32 -22z" />
    <glyph glyph-name="parenleft" unicode="(" horiz-adv-x="298" 
d="M224 1c20 0 52 11 52 33c0 11 -7 18 -20 31c-75 72 -121 146 -121 265c0 140 64 237 137 319c23 26 26 31 26 38c0 23 -29 34 -50 34c-14 0 -30 -5 -60 -33c-81 -75 -150 -214 -150 -351c0 -106 41 -203 116 -288c9 -9 24 -26 36 -36c13 -9 24 -12 34 -12z" />
    <glyph glyph-name="parenright" unicode=")" horiz-adv-x="279" 
d="M86 0c64 0 134 133 158 194c22 53 35 119 35 185c0 106 -35 210 -113 299c-4 5 -20 23 -34 33c-13 8 -25 11 -37 11c-21 0 -49 -10 -49 -33c0 -11 6 -19 16 -29s24 -21 40 -39c53 -63 79 -148 79 -239c0 -126 -50 -236 -126 -321c-14 -15 -17 -19 -17 -26
c0 -23 29 -35 48 -35z" />
    <glyph glyph-name="asterisk" unicode="*" 
d="M229 417c26 0 45 14 45 46v3c17 -16 28 -27 49 -27s53 12 53 33c0 19 -25 36 -37 46l24 -1c22 0 51 11 51 36c0 35 -59 33 -81 34c15 10 74 39 74 66c0 19 -31 31 -51 31c-29 0 -53 -24 -77 -40v18c0 32 -3 56 -50 56c-45 0 -47 -21 -50 -61c-18 21 -42 41 -69 41
c-19 0 -50 -11 -50 -30c0 -26 53 -62 66 -73l-33 1c-26 0 -55 -10 -55 -35c0 -29 41 -33 62 -33c-14 -10 -53 -29 -53 -52c0 -21 31 -32 51 -32c29 0 53 23 78 39l-1 -26c0 -28 30 -40 54 -40z" />
    <glyph glyph-name="plus" unicode="+" horiz-adv-x="415" 
d="M224 200c26 0 57 13 57 45l-4 50l88 3c20 1 50 9 50 33c0 23 -26 35 -46 35l-95 -3c-2 45 5 85 -47 85c-24 0 -55 -9 -55 -41l4 -46l-44 1c-42 0 -94 -5 -94 -35c0 -23 29 -36 48 -36l93 2c2 -43 -5 -93 45 -93z" />
    <glyph glyph-name="comma" unicode="," horiz-adv-x="171" 
d="M73 -56c44 0 98 34 98 77c0 34 -32 50 -63 50c-24 0 -70 -11 -70 -41c0 -28 44 -35 65 -36c-17 -11 -59 -10 -59 -33c0 -16 22 -17 29 -17z" />
    <glyph glyph-name="hyphen" unicode="-" horiz-adv-x="325" 
d="M81 277l195 10c19 1 49 9 49 32c0 21 -24 36 -43 36l-195 -10c-19 -1 -49 -9 -49 -32c0 -21 25 -36 43 -36z" />
    <glyph glyph-name="hyphen" unicode="&#xad;" horiz-adv-x="325" 
d="M81 277l195 10c19 1 49 9 49 32c0 21 -24 36 -43 36l-195 -10c-19 -1 -49 -9 -49 -32c0 -21 25 -36 43 -36z" />
    <glyph glyph-name="period" unicode="." horiz-adv-x="165" 
d="M101 0c24 0 64 13 64 43s-39 45 -63 45s-64 -15 -64 -45c0 -29 37 -43 63 -43z" />
    <glyph glyph-name="slash" unicode="/" horiz-adv-x="363" 
d="M87 0c-22 0 -49 9 -49 35l1 7l81 234c34 98 67 196 89 255c27 74 41 123 53 148c14 27 33 34 51 34c23 0 50 -10 50 -36l-1 -8c-14 -49 -37 -99 -67 -183l-161 -462c-7 -19 -30 -24 -47 -24z" />
    <glyph glyph-name="zero" unicode="0" horiz-adv-x="430" 
d="M226 2c165 0 204 241 204 366c0 119 -33 353 -177 353c-167 0 -215 -217 -215 -349c0 -124 42 -370 188 -370zM237 76c-88 0 -100 225 -100 284c0 62 14 285 100 285c87 0 99 -229 99 -290c0 -63 -13 -279 -99 -279z" />
    <glyph glyph-name="one" unicode="1" horiz-adv-x="215" 
d="M152 1c-19 0 -49 9 -49 59c0 20 5 68 9 148c2 64 4 161 4 259v62c-9 -4 -19 -7 -29 -7c-19 0 -49 11 -49 34c0 7 2 12 12 26c21 31 44 73 54 89c24 40 45 48 65 48c32 0 46 -19 46 -52v-168c0 -105 -2 -209 -5 -280c-4 -83 -3 -135 -6 -160c-6 -47 -32 -58 -52 -58z" />
    <glyph glyph-name="two" unicode="2" horiz-adv-x="392" 
d="M102 2c-26 0 -57 10 -57 71c0 172 244 278 244 490c0 40 -9 88 -55 88c-75 0 -98 -123 -98 -160c0 -43 -30 -53 -50 -53s-48 11 -48 69c0 81 56 215 187 215c91 0 167 -65 167 -160c0 -107 -97 -245 -153 -316c-49 -61 -78 -109 -93 -169c17 1 36 3 62 3
c35 0 78 -3 104 -7c36 -4 66 -12 66 -35s-28 -35 -46 -35h-3c-43 4 -85 7 -116 7c-49 0 -87 -8 -111 -8z" />
    <glyph glyph-name="three" unicode="3" horiz-adv-x="325" 
d="M132 2c-71 0 -94 60 -94 101c0 48 30 58 56 58c59 0 35 -52 49 -81c60 15 93 156 93 221s-33 110 -116 114l-21 1c-24 3 -51 23 -51 43c0 29 58 80 79 99c30 28 58 59 79 95l-23 2c-35 0 -60 -23 -91 -23c-18 0 -50 9 -50 32c0 46 121 58 164 58c26 0 91 -5 107 -44
c0 -51 -108 -155 -144 -196c107 -11 156 -87 156 -180c0 -109 -67 -300 -193 -300z" />
    <glyph glyph-name="four" unicode="4" horiz-adv-x="438" 
d="M314 1c-50 0 -66 56 -67 102c-22 -7 -44 -10 -67 -10c-116 0 -142 90 -142 187c0 127 45 250 106 360c11 19 23 42 31 52c15 19 35 25 49 25c19 0 47 -9 47 -33c0 -6 -2 -13 -10 -26c-8 -15 -23 -37 -40 -69c-47 -88 -85 -200 -85 -307v-25c0 -42 4 -94 50 -94
c20 0 44 10 62 19l27 240c5 40 5 65 7 77c6 33 32 44 50 44s52 -10 52 -31l-30 -267c10 7 23 10 34 10c20 0 50 -10 50 -33c0 -10 -6 -20 -14 -25l-78 -49l-1 -32l2 -38c4 -19 18 -30 18 -45c0 -21 -28 -32 -51 -32z" />
    <glyph glyph-name="five" unicode="5" horiz-adv-x="384" 
d="M212 2c-103 0 -161 93 -161 164c0 51 30 60 50 60c21 0 48 -11 48 -43c0 -26 19 -113 67 -113c61 0 69 138 69 178c0 44 -9 203 -65 203c-37 0 -57 -70 -80 -93c-11 -11 -28 -16 -41 -16c-23 0 -45 14 -45 87v19c1 27 8 117 10 208c-12 6 -26 16 -26 32c0 25 29 32 58 32
c32 0 73 -9 118 -9c33 0 70 5 97 5c30 0 66 -6 66 -31c0 -38 -80 -42 -134 -42l-81 1l-4 -132c22 12 47 20 73 20c120 0 153 -170 153 -265c0 -102 -38 -265 -172 -265z" />
    <glyph glyph-name="six" unicode="6" horiz-adv-x="394" 
d="M192 1c-134 0 -154 205 -154 293c0 119 36 428 193 428c70 0 134 -62 154 -137l2 -9c0 -21 -28 -35 -54 -35c-67 0 -39 90 -106 111c-34 -24 -65 -143 -71 -185c30 22 65 40 104 40c105 0 134 -136 134 -224c0 -114 -48 -248 -174 -278c-10 -3 -18 -4 -28 -4zM217 69
c63 0 80 155 80 218c0 32 -4 141 -63 141c-50 0 -93 -82 -93 -147c0 -28 8 -212 76 -212z" />
    <glyph glyph-name="seven" unicode="7" horiz-adv-x="358" 
d="M94 0c-19 0 -51 9 -51 33v1c33 216 104 425 209 617c-53 -6 -111 -24 -150 -24c-31 0 -64 11 -64 34c0 8 4 16 8 19c20 19 188 40 227 40c25 0 85 -9 85 -54c0 -14 -6 -25 -12 -36c-100 -177 -167 -370 -200 -570c-9 -50 -32 -60 -52 -60z" />
    <glyph glyph-name="eight" unicode="8" horiz-adv-x="447" 
d="M233 3c-97 0 -195 49 -195 159c0 91 67 187 122 255c-43 42 -95 104 -95 166c0 84 95 138 192 138c47 0 145 -13 145 -102c0 -74 -70 -153 -118 -201c68 -60 163 -158 163 -257c0 -110 -118 -158 -214 -158zM235 62c61 0 126 34 126 104c0 75 -74 154 -117 190
c-13 11 -16 12 -17 16c-44 -54 -102 -134 -102 -207c0 -65 46 -103 110 -103zM228 468c33 26 81 78 81 124c0 41 -39 63 -78 63c-37 0 -72 -20 -72 -63c0 -44 40 -93 69 -124z" />
    <glyph glyph-name="nine" unicode="9" horiz-adv-x="385" 
d="M193 2c-77 0 -138 53 -138 110c0 41 32 53 56 53c73 0 24 -101 75 -101c56 0 99 119 99 164l-1 18c-30 -24 -79 -46 -122 -46c-95 0 -124 106 -124 195c0 102 39 326 178 326c145 0 169 -239 169 -353c0 -113 -24 -366 -192 -366zM173 269c44 9 92 55 111 95
c0 77 -7 226 -63 282c-61 -27 -84 -197 -84 -267c0 -26 3 -87 36 -110z" />
    <glyph glyph-name="colon" unicode=":" horiz-adv-x="165" 
d="M101 44c-26 0 -63 14 -63 43c0 30 40 45 64 45s63 -15 63 -45s-40 -43 -64 -43zM101 269c-26 0 -63 14 -63 44s39 44 63 44c25 0 64 -15 64 -45s-40 -43 -64 -43z" />
    <glyph glyph-name="semicolon" unicode=";" horiz-adv-x="174" 
d="M75 -56c-5 0 -28 0 -28 17c0 24 42 22 59 33c-21 1 -65 8 -65 36c0 30 46 41 71 41c30 0 62 -16 62 -50c0 -43 -54 -77 -99 -77zM101 269c-25 0 -63 15 -63 44c0 31 39 44 64 44c24 0 63 -13 63 -43s-40 -45 -64 -45z" />
    <glyph glyph-name="semicolon" unicode="&#x37e;" horiz-adv-x="174" 
d="M75 -56c-5 0 -28 0 -28 17c0 24 42 22 59 33c-21 1 -65 8 -65 36c0 30 46 41 71 41c30 0 62 -16 62 -50c0 -43 -54 -77 -99 -77zM101 269c-25 0 -63 15 -63 44c0 31 39 44 64 44c24 0 63 -13 63 -43s-40 -45 -64 -45z" />
    <glyph glyph-name="less" unicode="&#x3c;" horiz-adv-x="284" 
d="M233 110c-10 0 -23 3 -39 13c-35 23 -156 124 -156 171s121 189 149 218c18 18 31 24 46 24c22 0 51 -13 51 -35c0 -7 -2 -13 -15 -28c-38 -47 -105 -104 -132 -176c26 -51 89 -93 126 -124c13 -11 20 -18 20 -29c0 -21 -29 -34 -50 -34z" />
    <glyph glyph-name="equal" unicode="=" horiz-adv-x="313" 
d="M313 397c0 -22 -31 -33 -49 -34l-183 -9c-18 0 -43 16 -43 36c0 22 30 31 49 32l183 10c18 0 43 -16 43 -35zM313 265c0 -22 -30 -32 -49 -33l-183 -10c-17 0 -43 17 -43 37c0 22 30 31 49 32l183 10c18 0 43 -16 43 -36z" />
    <glyph glyph-name="greater" unicode="&#x3e;" horiz-adv-x="285" 
d="M89 110c-20 0 -49 12 -49 35c0 10 6 17 31 37c23 17 92 70 115 115c-30 72 -92 128 -132 176c-13 16 -16 21 -16 29c0 22 29 34 50 34c15 0 30 -6 47 -23c29 -29 150 -174 150 -219s-122 -149 -158 -172c-14 -8 -27 -12 -38 -12z" />
    <glyph glyph-name="question" unicode="?" horiz-adv-x="390" 
d="M137 -8c-26 0 -64 16 -64 46s38 42 63 42s63 -13 63 -43s-38 -45 -62 -45zM110 107c-22 0 -46 11 -46 47c0 109 233 330 233 439c0 47 -43 55 -78 55l-20 -1c-52 -4 -59 -85 -61 -102c-5 -43 -30 -52 -49 -52c-21 0 -51 12 -51 61c0 64 52 159 181 159
c46 0 171 -12 171 -119c0 -146 -230 -353 -230 -435l1 -15c0 -23 -27 -37 -51 -37z" />
    <glyph glyph-name="at" unicode="@" horiz-adv-x="698" 
d="M348 1c-199 0 -310 160 -310 353c0 178 95 366 297 366c157 0 272 -115 272 -275c0 -88 -35 -198 -103 -253c-13 -11 -32 -22 -53 -22c-45 0 -83 51 -95 92c-24 -39 -56 -96 -111 -96c-58 0 -78 62 -78 111c0 94 71 273 187 273c40 0 72 -22 91 -57c6 -11 22 -44 22 -58
c0 -19 -30 -32 -54 -32c-56 0 -49 72 -67 72h-1c-46 -52 -79 -130 -81 -200c21 32 75 100 125 100c49 0 11 -65 61 -114c57 26 72 119 72 177c0 106 -50 215 -175 215c-30 0 -53 -8 -80 -22c-104 -53 -146 -166 -146 -273c0 -139 72 -293 227 -293c116 0 200 82 239 185
c8 23 9 41 15 52c8 19 30 26 48 26c23 0 48 -11 48 -35s-13 -55 -24 -76c-59 -127 -178 -216 -326 -216z" />
    <glyph glyph-name="A" unicode="A" horiz-adv-x="640" 
d="M88 0c-23 0 -50 12 -50 20c0 20 191 568 210 617c16 39 33 76 80 76c74 0 119 -106 141 -160c51 -124 93 -249 114 -326c18 -67 57 -190 57 -203c0 -11 -29 -23 -50 -23c-17 0 -38 8 -50 30c-15 27 -31 104 -43 142h-309c-17 -49 -32 -101 -45 -128
c-18 -39 -39 -45 -55 -45zM477 241c-35 124 -75 253 -138 366c-46 -121 -87 -244 -128 -366h266z" />
    <glyph glyph-name="B" unicode="B" horiz-adv-x="526" 
d="M262 0c-45 0 -91 13 -126 32c-5 -22 -30 -30 -48 -30c-21 0 -50 11 -50 34l6 644c0 25 30 34 48 34c20 0 47 -11 50 -32c45 21 94 31 155 31c44 0 149 -6 149 -82c0 -57 -59 -114 -104 -144c102 -36 184 -117 184 -230c0 -143 -131 -257 -264 -257zM248 69
c101 0 182 77 182 186c0 107 -77 175 -180 182c-32 -12 -60 -24 -93 -24l-18 1l-2 -73v-150c0 -69 27 -122 111 -122zM140 499c21 8 44 12 65 12l22 -1c29 15 112 62 112 101c0 29 -49 34 -74 34c-43 0 -94 -13 -125 -51v-95z" />
    <glyph glyph-name="C" unicode="C" horiz-adv-x="478" 
d="M159 -1c-109 0 -121 88 -121 153c0 153 68 564 240 564c75 0 135 -79 169 -136c10 -16 21 -34 27 -50l3 -12c0 -23 -32 -33 -51 -33c-17 0 -38 8 -50 30c-15 28 -44 124 -90 124c-34 0 -60 -56 -66 -69c-53 -118 -86 -277 -86 -410c0 -9 0 -89 56 -89c48 0 120 58 154 94
c20 21 30 38 40 48c13 14 30 19 45 19c20 0 49 -10 49 -29c0 -28 -61 -79 -68 -86c-72 -61 -164 -118 -251 -118z" />
    <glyph glyph-name="D" unicode="D" horiz-adv-x="472" 
d="M92 -2c-26 0 -54 11 -54 34l1 647c0 23 29 35 50 35c17 0 43 -9 48 -28c34 16 71 24 116 24c17 0 34 -1 50 -6c127 -35 169 -273 169 -397c0 -126 -43 -306 -200 -306c-55 0 -98 22 -136 50c0 -36 -11 -53 -44 -53zM268 69c97 0 112 177 112 242c0 89 -28 324 -129 324
c-48 0 -114 -54 -114 -91v-375c19 -37 76 -100 121 -100h10z" />
    <glyph glyph-name="E" unicode="E" horiz-adv-x="459" 
d="M131 1c-33 0 -63 11 -63 111c0 48 7 167 7 306c0 58 -1 135 -4 213c-15 4 -33 16 -33 34c0 20 24 29 40 32c11 11 26 17 45 17c12 0 25 -3 36 -14c77 5 155 13 199 13c53 0 80 -11 80 -34c0 -11 -7 -20 -15 -25c-10 -6 -23 -9 -63 -10c-45 -1 -118 -6 -191 -11l-1 -129
l217 4c19 0 48 -12 48 -34c0 -23 -31 -34 -49 -34l-216 -4c-3 -84 -5 -168 -5 -237l2 -125c79 15 164 36 222 36c42 0 72 -11 72 -34c0 -11 -7 -20 -15 -25c-10 -6 -23 -9 -54 -11c-35 -3 -87 -9 -143 -20c-38 -8 -84 -19 -116 -19z" />
    <glyph glyph-name="F" unicode="F" horiz-adv-x="435" 
d="M118 0c-20 0 -50 13 -50 35l2 409c-9 5 -19 15 -19 27s9 21 19 26v139c-15 4 -32 16 -32 33c0 22 27 32 45 33c11 9 25 11 38 11s25 -3 34 -10l234 3c21 0 46 -11 46 -34c0 -25 -30 -34 -49 -34l-218 -3v-129l215 3c20 0 48 -11 48 -34c0 -24 -30 -34 -49 -34l-214 -4
v-402c0 -24 -31 -35 -50 -35z" />
    <glyph glyph-name="G" unicode="G" horiz-adv-x="486" 
d="M160 0c-110 0 -122 160 -122 230c0 158 62 483 253 483c57 0 98 -28 131 -83c5 -9 22 -38 22 -56c0 -24 -29 -36 -49 -36c-16 0 -41 7 -49 32c-5 15 -17 76 -49 76l-7 -1c-132 -45 -164 -285 -164 -395c0 -36 4 -174 60 -174c68 0 140 194 157 263l-99 -6
c-19 0 -46 13 -46 35c0 23 31 32 50 33l94 7c33 2 66 6 84 6c34 0 60 -13 60 -34c0 -17 -17 -26 -30 -31c0 -67 3 -139 3 -197c0 -29 -1 -55 -3 -75c-8 -67 -32 -75 -51 -75c-22 0 -52 11 -52 32l3 121c-37 -65 -113 -155 -196 -155z" />
    <glyph glyph-name="H" unicode="H" horiz-adv-x="522" 
d="M422 0c-19 0 -48 10 -48 34l1 402l-187 -23l-2 -379c0 -24 -30 -34 -49 -34c-20 0 -49 11 -49 126l1 120c0 48 0 104 -2 160c-20 0 -49 11 -49 35s31 33 50 33l2 206c0 24 30 34 49 34c20 0 49 -11 49 -34v-197l187 23v172c0 24 30 34 50 34s49 -10 49 -34l-1 -165
c20 0 49 -11 49 -35c0 -23 -30 -33 -49 -33v-411c0 -23 -31 -34 -51 -34z" />
    <glyph glyph-name="I" unicode="I" horiz-adv-x="319" 
d="M97 0c-21 0 -49 11 -49 36c0 30 42 33 71 33h20l1 575l-40 -2c-29 0 -62 5 -62 32c0 26 31 37 49 37l175 3c20 0 47 -12 47 -35c0 -31 -49 -33 -71 -33l-1 -575l23 1c26 0 59 -4 59 -32c0 -27 -32 -36 -51 -36z" />
    <glyph glyph-name="J" unicode="J" horiz-adv-x="381" 
d="M192 1c-100 0 -154 72 -154 168c0 43 11 88 28 124c20 44 67 119 114 119c20 0 53 -13 53 -35c0 -11 -7 -16 -11 -20c-61 -51 -97 -123 -97 -193c0 -49 18 -94 69 -94h2c82 15 86 171 86 216c0 87 -16 303 -51 357c-10 0 -29 -3 -48 -3c-33 0 -67 6 -67 33
c0 26 31 37 49 37l169 3c19 0 47 -12 47 -34c0 -24 -32 -34 -51 -34c31 -99 44 -229 44 -331c0 -125 -20 -313 -182 -313z" />
    <glyph glyph-name="K" unicode="K" horiz-adv-x="531" 
d="M437 1c-8 0 -14 2 -18 3c-34 17 -120 223 -133 253c-25 -47 -49 -96 -63 -129c-17 -40 -25 -66 -34 -84c-16 -29 -39 -43 -70 -43c-28 0 -49 12 -63 57c-15 49 -18 124 -18 191c0 142 12 289 18 342c14 113 40 124 60 124s50 -11 50 -46c0 -15 -5 -44 -14 -129
c-5 -54 -17 -166 -17 -281c0 -33 1 -67 4 -102c32 68 62 137 98 204l-1 6c0 11 10 21 18 25c41 74 85 146 112 189c35 56 53 91 68 109c16 18 34 23 48 23c19 0 49 -9 49 -32c0 -7 -3 -12 -29 -55c-40 -64 -104 -162 -162 -266c14 -28 150 -321 150 -338
c0 -8 -31 -21 -53 -21z" />
    <glyph glyph-name="L" unicode="L" horiz-adv-x="349" 
d="M155 0c-91 0 -117 94 -117 191c0 128 45 339 56 395c21 116 47 126 64 126c14 0 40 -8 40 -69c0 -19 -3 -43 -9 -74c-8 -42 -52 -242 -52 -394c0 -34 2 -82 25 -105c40 22 70 54 94 72c20 15 33 17 42 17c18 0 51 -10 51 -33c0 -17 -18 -28 -44 -50
c-31 -26 -83 -76 -150 -76z" />
    <glyph glyph-name="M" unicode="M" horiz-adv-x="537" 
d="M484 1c-20 0 -49 11 -49 34l3 320c-23 -66 -78 -220 -162 -220c-71 0 -116 112 -139 165l-1 -264c0 -24 -30 -34 -50 -34s-48 11 -48 34l1 644c0 24 30 34 49 34c22 0 55 -15 55 -79c0 -86 61 -310 137 -410c33 49 55 108 65 140c18 59 91 329 104 341c3 3 18 8 35 8
c18 0 42 -6 48 -35c4 -19 5 -73 5 -133l-3 -401c-1 -135 -31 -144 -50 -144z" />
    <glyph glyph-name="N" unicode="N" horiz-adv-x="477" 
d="M379 1c-120 0 -205 249 -242 341l-1 -307c0 -24 -30 -34 -50 -34c-19 0 -48 11 -48 34l1 645c0 23 31 34 49 34c22 0 65 -16 65 -90c0 -116 106 -380 202 -514c19 152 22 306 22 439l-1 102c0 56 30 67 51 67c22 0 47 -12 48 -68l1 -145c0 -22 0 -473 -75 -501
c-5 -2 -15 -3 -22 -3z" />
    <glyph glyph-name="O" unicode="O" horiz-adv-x="532" 
d="M269 4c-166 0 -231 197 -231 346c0 161 76 363 259 363c173 0 235 -180 235 -322c0 -159 -72 -387 -263 -387zM283 77c112 0 145 225 145 320c0 75 -21 242 -137 242c-117 0 -149 -169 -149 -255c0 -83 30 -307 141 -307z" />
    <glyph glyph-name="P" unicode="P" horiz-adv-x="446" 
d="M86 -2c-20 0 -48 11 -48 34l1 649c0 23 32 34 52 34c22 0 46 -13 46 -39c42 27 87 38 125 38c126 0 184 -116 184 -231c0 -134 -76 -322 -231 -322c-28 0 -54 6 -79 15v-144c0 -24 -30 -34 -50 -34zM216 232c95 0 131 152 131 240c0 55 -14 146 -71 173l-14 1
c-27 0 -60 -19 -81 -37c-12 -10 -31 -28 -34 -34c-10 -15 -11 -84 -11 -123l1 -110c0 -76 34 -110 79 -110z" />
    <glyph glyph-name="Q" unicode="Q" horiz-adv-x="473" 
d="M312 -42c-27 0 -59 14 -70 43c-155 16 -204 197 -204 324c0 153 72 387 243 387c165 0 192 -217 192 -320c0 -100 -25 -342 -133 -363c8 -11 17 -26 17 -40c0 -23 -24 -31 -45 -31zM210 104c0 28 12 62 43 62c35 0 45 -43 49 -69c65 15 80 238 80 300
c0 53 -11 239 -105 239c-108 0 -147 -245 -147 -343c0 -61 15 -160 81 -201z" />
    <glyph glyph-name="R" unicode="R" horiz-adv-x="496" 
d="M440 1c-11 0 -20 3 -31 14c-7 7 -14 15 -32 43c-20 30 -52 78 -96 136c-22 29 -140 186 -140 234c0 20 19 33 42 37c13 3 28 3 51 7c49 10 107 32 142 81c10 14 16 27 16 43c0 37 -32 46 -62 46c-68 0 -139 -46 -190 -90l-4 -517c0 -24 -30 -34 -50 -34
c-19 0 -48 11 -48 34l4 644c0 24 30 34 57 34c41 0 41 -24 41 -62c58 34 124 60 188 60c75 0 162 -34 162 -118c0 -110 -153 -168 -243 -187c40 -69 85 -135 117 -177c31 -41 132 -179 132 -202c0 -14 -34 -26 -56 -26z" />
    <glyph glyph-name="S" unicode="S" horiz-adv-x="448" 
d="M232 2c-147 0 -194 147 -194 231c0 68 30 78 51 78s44 -10 49 -39c2 -13 0 -34 3 -59c5 -45 29 -144 94 -144c77 0 110 138 110 184c0 141 -307 54 -307 271c0 100 67 190 192 190c38 0 76 -8 116 -34c52 -33 102 -94 102 -147c0 -40 -29 -51 -49 -51
c-21 0 -46 12 -54 59c-6 32 -23 70 -73 92c-13 5 -34 13 -53 13c-56 0 -84 -71 -84 -121c0 -164 308 -66 308 -282c0 -103 -69 -241 -211 -241z" />
    <glyph glyph-name="T" unicode="T" horiz-adv-x="495" 
d="M263 -1c-20 0 -48 11 -48 34v612h-130c-20 0 -47 12 -47 34c0 24 30 34 49 34l359 1c20 0 49 -11 49 -34s-30 -35 -49 -35h-132l-1 -612c0 -24 -30 -34 -50 -34z" />
    <glyph glyph-name="U" unicode="U" horiz-adv-x="480" 
d="M241 1c-184 0 -203 275 -203 482c0 15 0 114 10 169c11 54 32 63 52 63c23 0 52 -10 52 -35c0 -14 -8 -44 -11 -82c-3 -31 -4 -82 -4 -123c0 -85 3 -405 119 -405c120 0 115 348 116 444v111c0 74 39 89 61 89c18 0 47 -11 47 -34l-1 -644c0 -23 -31 -34 -58 -34
c-38 0 -40 23 -40 56v10c-32 -41 -83 -67 -140 -67z" />
    <glyph glyph-name="V" unicode="V" horiz-adv-x="500" 
d="M249 1c-171 0 -204 546 -210 605l-1 27c0 73 29 82 49 82c21 0 37 -10 43 -31c6 -22 6 -68 13 -126c4 -38 15 -113 24 -166c18 -113 44 -230 94 -310c66 116 110 335 122 427c9 65 16 158 21 178c5 19 22 27 43 27c24 0 53 -10 53 -66c0 -91 -79 -647 -251 -647z" />
    <glyph glyph-name="W" unicode="W" horiz-adv-x="685" 
d="M227 0c-183 0 -185 455 -185 555l1 97c0 53 30 63 50 63s47 -10 50 -106c1 -64 -4 -423 82 -538c48 38 61 107 69 156c18 123 20 240 20 304v38c0 131 31 146 53 146c17 0 46 -9 46 -98v-13c-1 -22 -5 -122 -5 -217v-18c0 -88 3 -268 75 -300c77 97 95 365 99 441
c3 81 1 141 5 164c5 31 30 41 50 41c21 0 50 -10 50 -127c0 -74 -12 -248 -51 -397c-22 -87 -61 -190 -152 -190c-57 0 -109 40 -132 89c-24 -50 -71 -90 -125 -90z" />
    <glyph glyph-name="X" unicode="X" horiz-adv-x="532" 
d="M109 -1c-22 0 -52 13 -52 22c0 21 138 256 148 273c-28 53 -167 342 -167 386c0 20 29 34 53 34c16 0 34 -7 47 -35c11 -22 20 -59 42 -113c18 -45 48 -111 81 -175l173 299c11 19 28 25 44 25c23 0 54 -12 54 -20c0 -20 -211 -382 -223 -403c20 -43 91 -201 162 -201h13
c16 0 36 -3 36 -34c0 -43 -40 -56 -69 -56c-94 0 -164 133 -197 196l-99 -173c-10 -18 -30 -25 -46 -25z" />
    <glyph glyph-name="Y" unicode="Y" horiz-adv-x="486" 
d="M223 -2c-21 0 -49 10 -49 21c0 22 110 320 123 358c-29 -36 -67 -64 -120 -64c-117 0 -139 138 -139 255c0 7 0 125 40 142c6 2 16 4 25 4c21 0 49 -10 49 -34l-2 -9c-9 -38 -11 -77 -11 -114c0 -47 3 -145 42 -174c74 47 138 216 182 281c22 32 46 49 71 49
c24 0 50 -14 52 -40l-148 -453c-10 -32 -55 -175 -69 -199c-9 -15 -28 -23 -46 -23z" />
    <glyph glyph-name="Z" unicode="Z" horiz-adv-x="482" 
d="M139 1c-55 0 -101 19 -101 76c0 156 345 445 345 543c0 25 -22 28 -39 28c-65 0 -164 -47 -208 -47c-21 0 -50 10 -50 33c0 7 3 13 5 16c25 33 224 64 287 64c31 0 104 -7 104 -71c0 -139 -344 -429 -344 -547c0 -20 10 -31 37 -31c75 0 191 81 251 81
c22 0 52 -10 52 -35c0 -14 -10 -22 -61 -40c-55 -19 -187 -70 -278 -70z" />
    <glyph glyph-name="bracketleft" unicode="[" horiz-adv-x="256" 
d="M100 -6c-31 0 -59 13 -59 69c0 15 2 51 2 129l-3 346c0 65 2 95 4 111c10 55 47 65 74 65c37 0 139 -17 139 -56c0 -19 -25 -34 -47 -34s-43 14 -68 17c-6 -58 -8 -117 -8 -180c0 -128 8 -260 8 -392c15 5 31 10 46 10c20 0 52 -10 52 -32c0 -40 -108 -53 -140 -53z" />
    <glyph glyph-name="backslash" unicode="\" horiz-adv-x="364" 
d="M311 -1c-12 0 -39 8 -45 25l-228 655c0 23 31 34 51 34c17 0 38 -8 52 -38c11 -22 22 -64 50 -141l173 -504c0 -16 -36 -31 -53 -31z" />
    <glyph glyph-name="bracketright" unicode="]" horiz-adv-x="257" 
d="M191 -6c-22 0 -46 6 -52 7c-40 10 -84 14 -84 42c0 25 34 36 53 36c14 0 30 -5 45 -10c0 132 9 263 9 385c0 69 -3 128 -9 187c-25 -3 -45 -17 -68 -17c-22 0 -47 14 -47 33c0 39 103 57 139 57c27 0 64 -10 74 -68c4 -21 6 -59 6 -97l-5 -417l3 -67
c0 -38 -10 -71 -64 -71z" />
    <glyph glyph-name="asciicircum" unicode="^" horiz-adv-x="362" 
d="M90 493c-21 0 -52 10 -52 34l3 9c7 16 19 34 31 52c40 64 97 132 157 132c88 0 133 -142 133 -181c0 -32 -33 -43 -52 -43c-61 0 -59 106 -82 146c-40 -40 -62 -78 -73 -93c-30 -48 -47 -56 -65 -56z" />
    <glyph glyph-name="underscore" unicode="_" horiz-adv-x="624" 
d="M94 -96c-19 0 -56 12 -56 36c0 23 38 33 56 33l471 8c20 0 59 -10 59 -34c0 -25 -40 -35 -59 -35z" />
    <glyph glyph-name="grave" unicode="`" horiz-adv-x="244" 
d="M195 543c-12 0 -24 3 -35 10l-108 67c-7 4 -14 15 -14 25c0 20 29 33 50 33c26 0 115 -56 136 -71c15 -12 20 -20 20 -30c0 -24 -28 -34 -49 -34z" />
    <glyph glyph-name="a" unicode="a" horiz-adv-x="431" 
d="M378 0c-19 0 -48 9 -48 34v76c-41 -56 -104 -110 -166 -110c-106 0 -126 153 -126 225c0 108 46 294 183 294c39 0 83 -15 111 -38c0 28 24 39 47 39c21 0 52 -9 52 -34l-3 -298c0 -49 3 -96 3 -115c0 -61 -30 -73 -53 -73zM182 72c55 0 145 180 145 285
c0 23 -4 96 -75 96c-105 0 -121 -165 -121 -220c0 -32 5 -161 51 -161z" />
    <glyph glyph-name="b" unicode="b" horiz-adv-x="418" 
d="M89 -2c-20 0 -50 10 -50 34l-1 652c0 26 28 34 49 34s49 -8 49 -34l1 -222c38 33 93 56 146 56c108 0 135 -92 135 -175c0 -127 -65 -342 -212 -342c-25 0 -50 6 -73 17c-11 -12 -27 -20 -44 -20zM204 79c79 0 109 213 109 280c0 15 -2 91 -59 91
c-81 0 -114 -151 -114 -227c0 -41 10 -144 64 -144z" />
    <glyph glyph-name="c" unicode="c" horiz-adv-x="388" 
d="M159 0c-101 0 -121 82 -121 148c0 99 46 291 124 346c21 14 51 24 77 24c57 0 130 -50 147 -108l2 -10c0 -24 -32 -33 -54 -33c-57 0 -37 58 -83 80c-72 0 -115 -243 -115 -312c0 -15 2 -69 35 -69c12 0 33 7 44 11c45 19 68 60 68 108l-1 22c0 25 33 34 54 34
c33 0 46 -20 46 -54c0 -114 -119 -187 -223 -187z" />
    <glyph glyph-name="d" unicode="d" horiz-adv-x="436" 
d="M377 1c-14 0 -41 5 -41 27v81c-41 -55 -106 -108 -167 -108c-107 0 -131 164 -131 240c0 111 51 278 192 278c37 0 82 -11 106 -40l2 207c0 25 30 34 49 34c20 0 49 -11 49 -34l-2 -658c0 -20 -40 -27 -57 -27zM189 75c18 0 35 16 43 24c53 49 99 134 99 196
c0 60 -44 152 -104 152c-78 0 -94 -158 -94 -218c0 -40 7 -154 56 -154z" />
    <glyph glyph-name="e" unicode="e" 
d="M214 0c-93 0 -176 60 -176 178c0 114 78 340 212 340c76 0 162 -73 162 -157c0 -128 -169 -156 -267 -156c0 -50 6 -139 73 -139c51 0 106 53 106 100l-1 17c2 21 33 32 53 32c19 0 38 -10 38 -46c0 -73 -81 -169 -200 -169zM201 270c55 0 116 25 116 87
c0 37 -22 94 -56 94c-51 0 -106 -136 -106 -175v-3c14 -1 30 -3 46 -3z" />
    <glyph glyph-name="f" unicode="f" horiz-adv-x="355" 
d="M96 1c-20 0 -43 9 -50 63c-3 24 -3 63 -3 104l2 224c-4 5 -7 11 -7 17c0 7 4 14 9 19v13c0 102 33 278 158 278c33 0 64 -12 95 -35c10 -7 55 -39 55 -62c0 -20 -32 -32 -52 -32c-40 0 -59 50 -93 50c-63 0 -62 -167 -64 -193c38 5 75 12 109 12c26 0 65 -4 65 -33
c0 -23 -25 -35 -61 -35c-29 0 -72 -8 -117 -14l-2 -106c0 -44 1 -100 3 -136c2 -46 6 -74 6 -86c0 -38 -32 -48 -53 -48z" />
    <glyph glyph-name="g" unicode="g" horiz-adv-x="424" 
d="M338 520c23 0 42 -9 57 -68c20 -82 30 -246 30 -358s-10 -388 -190 -388c-96 0 -192 68 -192 170c0 38 24 54 50 54c27 0 55 -18 55 -51c0 -56 33 -108 73 -108c102 0 110 251 110 309v22c-47 -40 -111 -70 -171 -70c-79 0 -120 53 -120 139c0 87 41 349 179 349
c24 0 47 -8 70 -22c12 15 29 22 49 22zM173 99c74 0 141 94 141 164c0 45 -27 183 -79 183c-69 0 -102 -236 -102 -305v-2c0 -13 1 -40 40 -40z" />
    <glyph glyph-name="h" unicode="h" horiz-adv-x="416" 
d="M358 0c-22 0 -48 10 -48 70c0 26 5 87 5 157c0 58 -3 154 -31 217c-86 -62 -138 -301 -143 -395c-3 -33 -13 -49 -48 -49c-21 0 -52 11 -52 34l-3 651c0 25 30 34 50 34s48 -10 48 -34l1 -285c30 53 92 120 158 120c115 0 119 -204 119 -296l1 -94c0 -32 -1 -62 -6 -88
c-4 -29 -22 -42 -51 -42z" />
    <glyph glyph-name="i" unicode="i" horiz-adv-x="165" 
d="M102 1c-20 0 -48 11 -48 34l1 450c0 23 31 34 49 34c19 0 51 -12 51 -34l-3 -450c0 -24 -30 -34 -50 -34zM100 557c-25 0 -62 14 -62 43c0 30 40 45 64 45s63 -14 63 -44s-40 -44 -65 -44z" />
    <glyph glyph-name="j" unicode="j" horiz-adv-x="274" 
d="M197 519c23 0 53 -10 53 -52c0 -16 5 -53 11 -104c9 -83 17 -183 17 -285c0 -127 -13 -378 -189 -378c-31 0 -45 22 -45 45c0 26 17 53 52 53c90 0 91 192 91 254c0 96 -7 199 -19 288c-13 109 -16 124 -16 137c0 33 23 42 45 42zM182 646c24 0 62 -14 62 -44
c0 -31 -39 -44 -63 -44c-26 0 -64 14 -64 43c0 31 40 45 65 45z" />
    <glyph glyph-name="k" unicode="k" horiz-adv-x="423" 
d="M86 -2c-20 0 -48 11 -48 34l1 654c0 24 30 34 50 34s48 -10 48 -34v-263c56 39 163 94 229 94c25 0 43 -8 55 -25l2 -8c0 -20 -20 -30 -54 -38c-62 -13 -167 -56 -220 -119c68 -103 164 -187 228 -239c38 -31 45 -38 45 -49c0 -23 -28 -34 -50 -34
c-60 0 -199 157 -235 200l-1 -173c0 -24 -30 -34 -50 -34z" />
    <glyph glyph-name="l" unicode="l" horiz-adv-x="139" 
d="M86 -2c-20 0 -48 11 -48 34l1 654c0 24 31 34 51 34s49 -10 49 -34l-3 -654c0 -24 -30 -34 -50 -34z" />
    <glyph glyph-name="m" unicode="m" horiz-adv-x="675" 
d="M92 -2c-20 0 -54 11 -54 35l1 455c0 24 32 34 52 34c22 0 46 -12 46 -38c28 21 62 37 100 37c60 0 116 -40 149 -91c44 52 99 89 166 89l16 -1c101 -9 107 -184 107 -257c0 -76 -6 -153 -7 -171c-5 -82 -33 -91 -53 -91s-47 9 -47 77l1 18c2 20 8 98 8 186
c0 14 0 162 -56 162c-51 0 -86 -122 -95 -192c-4 -29 -5 -65 -5 -96l1 -70c0 -75 -33 -85 -52 -85c-22 0 -53 12 -53 45l5 55c3 36 6 86 6 148c0 51 -2 204 -86 204c-101 0 -103 -216 -103 -292l1 -94c0 -57 -29 -67 -48 -67z" />
    <glyph glyph-name="n" unicode="n" horiz-adv-x="427" 
d="M96 -2c-21 0 -58 14 -58 39l1 448c0 24 32 34 52 34c22 0 46 -13 46 -39c31 27 68 40 112 40c160 0 178 -180 178 -301c0 -64 -5 -125 -6 -154c-1 -42 -5 -66 -53 -66c-22 0 -46 13 -46 39l1 237c0 53 -24 170 -90 170c-90 0 -91 -221 -91 -266v-3c0 -62 4 -103 4 -120
c0 -47 -31 -58 -50 -58z" />
    <glyph glyph-name="o" unicode="o" horiz-adv-x="399" 
d="M212 0c-136 0 -174 175 -174 270c0 123 63 250 198 250c117 0 163 -142 163 -251c0 -130 -66 -269 -187 -269zM217 70c71 0 88 150 88 208c0 45 -10 171 -81 171c-73 0 -90 -133 -90 -188c0 -48 13 -191 83 -191z" />
    <glyph glyph-name="p" unicode="p" horiz-adv-x="428" 
d="M86 -217c-20 0 -48 11 -48 34l1 659c0 27 31 43 62 43c37 0 41 -22 41 -51v-26c26 39 77 79 135 79c122 0 151 -174 151 -284c0 -112 -29 -243 -174 -243c-44 0 -84 12 -117 39l-1 -216c0 -24 -30 -34 -50 -34zM259 61c61 0 63 119 63 140c0 57 -16 244 -66 244
c-49 0 -103 -176 -103 -225c0 -46 47 -159 106 -159z" />
    <glyph glyph-name="q" unicode="q" horiz-adv-x="416" 
d="M303 -84c-44 0 -55 46 -68 85l-16 -1c-136 0 -181 140 -181 258c0 128 53 260 185 260c144 0 193 -156 193 -261c0 -83 -31 -170 -95 -225c8 -16 35 -68 35 -85c0 -18 -30 -31 -53 -31zM219 61c58 0 98 144 98 192c0 38 -26 199 -98 199c-62 0 -83 -119 -83 -172
s21 -219 83 -219z" />
    <glyph glyph-name="r" unicode="r" horiz-adv-x="420" 
d="M90 -4c-22 0 -32 8 -42 26c-4 8 -8 12 -8 22v6c1 9 6 28 6 43l2 391c0 24 28 35 54 35c39 0 45 -26 45 -57l-1 -45c26 58 68 102 132 102c88 0 143 -85 143 -143c0 -44 -32 -55 -51 -55s-49 10 -49 41c0 17 -10 87 -45 87c-25 0 -47 -37 -58 -59
c-46 -89 -69 -195 -72 -297l-2 -63c-1 -25 -29 -34 -54 -34z" />
    <glyph glyph-name="s" unicode="s" horiz-adv-x="424" 
d="M231 1c-115 0 -193 98 -193 180c0 51 30 61 50 61s48 -11 48 -53c0 -49 35 -122 106 -122c47 0 88 33 88 79c0 119 -278 69 -278 236c0 95 88 138 168 138c82 0 204 -45 204 -125c0 -42 -33 -53 -51 -53c-20 0 -48 13 -48 42c0 44 -61 68 -105 68c-41 0 -68 -20 -68 -60
c0 -128 269 -82 269 -240c0 -100 -106 -151 -190 -151z" />
    <glyph glyph-name="t" unicode="t" horiz-adv-x="484" 
d="M291 1c-133 0 -159 149 -159 272c0 59 6 116 14 176l-33 -1c-34 0 -75 5 -75 35c0 31 42 36 76 36l42 -1l29 165c4 23 27 35 47 35c19 0 52 -12 52 -34v-1c-13 -54 -21 -110 -28 -165l44 2c42 0 94 -6 94 -37c0 -23 -28 -34 -69 -34l-78 -1c-15 -46 -18 -127 -18 -171
c0 -55 4 -212 76 -212c59 0 82 107 82 140c0 38 30 48 49 48c21 0 48 -11 48 -55c0 -70 -70 -197 -193 -197z" />
    <glyph glyph-name="u" unicode="u" horiz-adv-x="407" 
d="M350 1c-16 0 -41 4 -43 31c-26 -21 -57 -31 -95 -31c-162 0 -174 186 -174 306c0 62 3 120 3 126c4 75 32 85 53 85c24 0 48 -12 48 -67c0 -25 -5 -78 -5 -178c0 -3 0 -204 75 -204c76 0 89 210 89 296l-1 77c0 72 37 77 53 77c25 0 54 -11 54 -34l-2 -450
c0 -23 -30 -34 -55 -34z" />
    <glyph glyph-name="v" unicode="v" horiz-adv-x="451" 
d="M238 1c-132 0 -185 359 -196 453l-4 35c0 23 32 32 52 32c10 0 24 -3 33 -11c8 -7 11 -16 18 -49c9 -43 68 -337 105 -372c41 27 90 246 96 292c7 45 6 75 8 93c6 34 31 45 51 45c21 0 50 -12 50 -58c0 -75 -76 -460 -213 -460z" />
    <glyph glyph-name="w" unicode="w" horiz-adv-x="632" 
d="M435 1c-43 0 -63 12 -102 64c-29 -45 -74 -64 -124 -64c-156 0 -171 183 -171 303c0 57 3 118 4 128c5 76 32 85 50 85c19 0 49 -10 49 -71v-9c-1 -10 -4 -66 -4 -156c0 -17 0 -212 73 -212c81 0 86 233 86 305l-1 71c0 59 31 74 57 74c22 0 43 -11 43 -70l-2 -128
c0 -63 2 -252 70 -252c75 0 81 226 81 278c0 28 -2 120 -14 137c2 23 28 35 49 35c20 0 49 -11 51 -70l2 -104c0 -114 -12 -344 -197 -344z" />
    <glyph glyph-name="x" unicode="x" horiz-adv-x="417" 
d="M86 -1c-19 0 -48 9 -48 20c0 22 106 191 115 206c-11 28 -96 252 -96 271c0 12 30 24 50 24c15 0 40 -7 47 -25l63 -168c28 47 77 135 100 164c18 23 36 28 49 28c19 0 51 -10 51 -24c0 -29 -141 -242 -161 -274c22 -38 78 -135 130 -150c5 -2 23 -7 23 -21
c0 -9 -8 -23 -10 -27c-11 -18 -33 -21 -47 -21s-24 2 -31 5c-33 13 -99 84 -113 110l-6 12l-74 -114c-8 -12 -29 -16 -42 -16z" />
    <glyph glyph-name="y" unicode="y" horiz-adv-x="456" 
d="M132 517c31 0 41 -23 41 -53c0 -16 -3 -34 -8 -51c-5 -18 -32 -113 -32 -226c0 -4 0 -83 57 -83c34 0 84 28 114 70c16 23 44 77 44 110l-16 202c0 20 35 30 54 30c18 0 42 -10 56 -151c7 -67 13 -150 13 -235c0 -219 -40 -452 -213 -452c-96 0 -200 74 -200 171
c0 37 26 52 52 52c30 0 61 -18 61 -43c0 -55 27 -89 83 -89c116 0 118 219 118 335v12c-36 -53 -126 -88 -192 -88c-107 0 -126 104 -126 192c0 77 17 199 41 253c17 38 39 44 53 44z" />
    <glyph glyph-name="z" unicode="z" horiz-adv-x="364" 
d="M131 0c-38 0 -93 11 -93 45c0 72 231 318 231 388c0 17 -12 17 -19 17c-56 0 -106 -33 -137 -33c-16 0 -46 10 -46 31c0 47 146 70 183 70c27 0 87 -11 103 -34c7 -10 10 -27 10 -41c0 -103 -160 -271 -218 -373c57 8 113 38 164 38c26 0 55 -8 55 -31
c0 -49 -199 -77 -233 -77z" />
    <glyph glyph-name="braceleft" unicode="{" horiz-adv-x="388" 
d="M254 -5c-41 0 -98 17 -98 100v12c2 22 9 77 9 112c0 91 -52 82 -91 97c-23 9 -36 23 -36 38c0 49 143 27 143 116c0 57 -59 117 -59 174c0 46 38 69 71 69c39 0 162 -33 162 -77c0 -21 -27 -33 -48 -33c-28 0 -58 21 -85 34c10 -67 61 -135 61 -195
c0 -55 -45 -81 -89 -94c53 -30 69 -77 69 -135c0 -46 -10 -91 -10 -137v-13l9 -1c29 0 31 48 77 48c20 0 49 -9 49 -38c0 -48 -82 -77 -134 -77z" />
    <glyph glyph-name="bar" unicode="|" horiz-adv-x="139" 
d="M86 -35c-18 0 -48 12 -48 34v712c0 22 32 34 51 34c17 0 47 -9 47 -144v-13c0 -64 3 -251 3 -416l-1 -129c0 -67 -34 -78 -52 -78z" />
    <glyph glyph-name="braceright" unicode="}" horiz-adv-x="389" 
d="M176 -5c-55 0 -138 29 -138 78c0 28 29 37 50 37c50 0 44 -48 76 -48l9 1l1 19c0 41 -11 86 -11 132c0 57 17 106 68 134c-43 13 -88 39 -88 97c0 61 50 125 62 192c-28 -13 -58 -34 -85 -34c-22 0 -48 13 -48 33c0 44 121 77 160 77c33 0 71 -23 71 -70
c0 -57 -58 -114 -58 -172c0 -91 144 -69 144 -117c0 -15 -13 -29 -37 -38c-40 -15 -92 -6 -92 -92c0 -42 12 -95 12 -132c0 -78 -52 -97 -96 -97z" />
    <glyph glyph-name="asciitilde" unicode="~" horiz-adv-x="358" 
d="M244 264c-48 0 -70 23 -99 57c-15 -33 -13 -57 -57 -57c-27 0 -50 9 -50 42c0 52 60 89 112 89c42 0 69 -23 95 -56c20 27 22 52 60 52c21 0 53 -8 53 -35l-2 -9c-22 -49 -54 -83 -112 -83z" />
    <glyph glyph-name="exclamdown" unicode="&#xa1;" horiz-adv-x="165" 
d="M104 590c21 0 49 -11 49 -34l-1 -521c0 -23 -33 -34 -51 -34c-19 0 -49 12 -49 34l3 521c0 25 30 34 49 34zM101 715c27 0 64 -14 64 -46s-38 -41 -63 -41c-28 0 -64 12 -64 43c0 33 39 44 63 44z" />
    <glyph glyph-name="cent" unicode="&#xa2;" horiz-adv-x="444" 
d="M93 -2c-18 0 -55 4 -55 28l1 9l42 65c-3 18 -4 36 -4 50c0 113 57 368 201 368c22 0 46 -6 67 -17c10 16 26 22 43 22s56 -6 56 -28v-3l-34 -52c7 -11 17 -27 17 -40c0 -24 -31 -33 -48 -33l-17 2c-61 -92 -119 -185 -180 -277l3 -3c5 -13 15 -23 27 -23c9 0 28 6 37 10
c48 18 73 60 73 113v20c0 24 31 32 53 32c33 0 46 -19 46 -57c0 -121 -126 -184 -231 -184c-23 0 -42 3 -58 13c-9 -12 -26 -15 -39 -15zM193 273c35 56 72 112 109 167l-12 7c-52 0 -86 -132 -97 -174z" />
    <glyph glyph-name="sterling" unicode="&#xa3;" horiz-adv-x="415" 
d="M242 4c-26 0 -54 3 -82 9c-12 -5 -24 -7 -35 -7c-32 0 -87 18 -87 53c0 26 32 38 53 38l23 -2c0 103 -20 204 -20 303c0 120 27 313 181 313c63 0 139 -33 139 -99c0 -38 -25 -66 -59 -66c-20 0 -50 9 -50 32c0 8 4 15 5 17l5 14c0 16 -14 34 -38 34
c-74 0 -85 -184 -85 -240l125 10c20 0 45 -12 45 -35c0 -25 -30 -33 -49 -34l-119 -9c2 -71 21 -139 21 -211c0 -16 -1 -33 -4 -49c11 -1 24 -3 38 -3c111 0 20 124 115 124c24 0 51 -8 51 -58c0 -80 -68 -134 -173 -134z" />
    <glyph glyph-name="currency" unicode="&#xa4;" horiz-adv-x="581" 
d="M442 220c-41 -21 -86 -30 -129 -30c-47 0 -92 11 -133 30l-83 -58l-57 40l83 57c-25 25 -42 55 -42 90c0 36 18 67 42 92l-83 58l57 39l83 -58c41 20 86 30 131 30c46 0 90 -11 131 -30l83 58l56 -39l-82 -58c25 -25 42 -55 42 -91s-17 -66 -42 -91l82 -57l-56 -40z
M311 242c62 0 157 34 157 108c0 75 -96 108 -157 108s-157 -35 -157 -108c0 -74 96 -108 157 -108z" />
    <glyph glyph-name="yen" unicode="&#xa5;" horiz-adv-x="453" 
d="M256 1c-20 0 -49 8 -49 33l-2 149l-113 -4c-20 0 -44 12 -44 35c0 24 29 32 48 33l108 5l-1 58c-19 10 -35 25 -46 43c-23 -2 -47 -8 -65 -8c-24 0 -54 10 -54 35c0 35 62 35 85 38c-19 56 -63 210 -63 250c0 35 34 44 53 44c20 0 39 -9 52 -70c14 -64 21 -177 84 -264
c56 91 60 197 75 261c13 61 34 71 57 71c19 0 51 -7 51 -43c0 -39 -41 -187 -58 -241l27 3c23 0 41 -7 51 -25l1 -9c0 -19 -19 -30 -37 -33l-77 -11c-9 -16 -23 -29 -38 -39l1 -56l86 4c21 0 48 -12 48 -36s-29 -32 -49 -33l-84 -3c0 -51 3 -103 3 -121
c0 -58 -30 -66 -50 -66z" />
    <glyph glyph-name="brokenbar" unicode="&#xa6;" horiz-adv-x="139" 
d="M86 372c-15 0 -48 6 -48 26l1 345c0 19 36 26 50 26s50 -7 50 -26l-3 -345c0 -20 -35 -26 -50 -26zM86 -212c-15 0 -48 7 -48 26l1 345c0 19 35 26 50 26c14 0 50 -7 50 -26l-3 -345c0 -20 -35 -26 -50 -26z" />
    <glyph glyph-name="section" unicode="&#xa7;" horiz-adv-x="354" 
d="M224 -4c-73 0 -186 67 -186 138c0 34 27 45 56 45c93 0 29 -102 127 -113c0 92 -182 218 -182 324c0 60 59 76 106 76c-32 41 -66 88 -66 140c0 68 57 106 117 106c80 0 138 -68 156 -138l2 -10c0 -24 -32 -33 -53 -33c-64 0 -41 80 -106 113c-13 -3 -23 -10 -23 -27
c0 -69 173 -220 173 -317c0 -50 -47 -67 -96 -67c0 0 -11 0 -21 2c34 -51 91 -106 91 -164s-59 -75 -95 -75zM253 305c0 35 -71 91 -105 91c-7 0 -12 -2 -12 -12c0 -37 78 -80 114 -83z" />
    <glyph glyph-name="dieresis" unicode="&#xa8;" horiz-adv-x="299" 
d="M101 478c-26 0 -63 14 -63 44c0 31 39 44 63 44c26 0 64 -14 64 -44c0 -31 -40 -44 -64 -44zM235 478c-26 0 -63 14 -63 44c0 31 38 44 62 44c26 0 65 -15 65 -44c0 -31 -40 -44 -64 -44z" />
    <glyph glyph-name="copyright" unicode="&#xa9;" horiz-adv-x="584" 
d="M314 49c-160 0 -276 109 -276 274c0 175 130 328 297 328c173 0 249 -164 249 -308c0 -159 -92 -294 -270 -294zM314 116c129 0 176 117 176 225c0 98 -39 241 -158 241c-124 0 -199 -157 -199 -269c0 -105 67 -197 181 -197zM275 148c-85 0 -106 93 -106 154
c0 86 40 243 149 243c54 0 109 -39 129 -90c1 -5 3 -8 3 -13c0 -22 -33 -31 -54 -31c-56 0 -46 66 -76 66c-47 0 -63 -157 -63 -197c0 -7 0 -59 25 -59h1c96 29 26 119 107 119c25 0 55 -8 55 -48c0 -71 -94 -144 -170 -144z" />
    <glyph glyph-name="ordfeminine" unicode="&#xaa;" horiz-adv-x="296" 
d="M260 368c-26 0 -30 14 -30 33l1 33c-28 -35 -71 -66 -111 -66c-68 0 -82 87 -82 133c0 72 35 178 122 178c25 0 52 -8 72 -23c0 17 17 24 32 24c13 0 32 -5 32 -91v-142c0 -73 -19 -79 -36 -79zM133 411c34 0 96 104 96 167c0 21 -7 62 -51 62c-68 0 -78 -95 -78 -131
c0 -22 4 -98 33 -98z" />
    <glyph glyph-name="registered" unicode="&#xae;" horiz-adv-x="584" 
d="M314 49c-160 0 -276 109 -276 274c0 175 130 328 297 328c173 0 249 -164 249 -308c0 -159 -92 -294 -270 -294zM314 116c129 0 176 117 176 225c0 98 -39 241 -158 241c-124 0 -199 -157 -199 -269c0 -105 67 -197 181 -197zM225 171c-18 0 -51 8 -51 29l27 290
c2 23 28 34 47 34l14 -1c20 10 46 19 71 19c52 0 114 -40 114 -97c0 -50 -48 -78 -89 -90c19 -22 90 -120 90 -149c0 -20 -33 -29 -55 -29c-18 0 -33 6 -48 39c-12 25 -36 61 -63 94l-10 -105c-2 -24 -28 -34 -47 -34zM292 406c26 0 67 8 67 40c0 15 -9 28 -23 28
c-18 0 -32 -19 -41 -32z" />
    <glyph glyph-name="macron" unicode="&#xaf;" horiz-adv-x="430" 
d="M75 691c-20 0 -37 16 -37 35c0 20 19 34 37 34l316 8c18 0 39 -16 39 -36c0 -19 -20 -33 -39 -33z" />
    <glyph glyph-name="degree" unicode="&#xb0;" horiz-adv-x="429" 
d="M232 433c-78 0 -194 40 -194 135c0 96 118 136 196 136c80 0 195 -42 195 -135c0 -95 -118 -136 -197 -136zM232 482c49 0 121 24 121 83c0 60 -72 86 -122 86c-48 0 -122 -25 -122 -85s74 -84 123 -84z" />
    <glyph glyph-name="plusminus" unicode="&#xb1;" horiz-adv-x="415" 
d="M104 97c-19 0 -43 14 -43 35c0 23 30 32 49 33l195 10c19 0 43 -15 43 -36c0 -23 -30 -31 -49 -32zM224 200c-50 0 -43 50 -45 93l-93 -2c-19 0 -48 13 -48 36c0 30 52 35 94 35l44 -1l-4 46c0 32 31 41 55 41c52 0 45 -40 47 -85l95 3c20 0 46 -12 46 -35
c0 -24 -30 -32 -50 -33l-88 -3l4 -50c0 -32 -31 -45 -57 -45z" />
    <glyph glyph-name="twosuperior" unicode="&#xb2;" horiz-adv-x="392" 
d="M102 2c-26 0 -57 10 -57 71c0 172 244 278 244 490c0 40 -9 88 -55 88c-75 0 -98 -123 -98 -160c0 -43 -30 -53 -50 -53s-48 11 -48 69c0 81 56 215 187 215c91 0 167 -65 167 -160c0 -107 -97 -245 -153 -316c-49 -61 -78 -109 -93 -169c17 1 36 3 62 3
c35 0 78 -3 104 -7c36 -4 66 -12 66 -35s-28 -35 -46 -35h-3c-43 4 -85 7 -116 7c-49 0 -87 -8 -111 -8z" />
    <glyph glyph-name="threesuperior" unicode="&#xb3;" horiz-adv-x="325" 
d="M132 2c-71 0 -94 60 -94 101c0 48 30 58 56 58c59 0 35 -52 49 -81c60 15 93 156 93 221s-33 110 -116 114l-21 1c-24 3 -51 23 -51 43c0 29 58 80 79 99c30 28 58 59 79 95l-23 2c-35 0 -60 -23 -91 -23c-18 0 -50 9 -50 32c0 46 121 58 164 58c26 0 91 -5 107 -44
c0 -51 -108 -155 -144 -196c107 -11 156 -87 156 -180c0 -109 -67 -300 -193 -300z" />
    <glyph glyph-name="acute" unicode="&#xb4;" horiz-adv-x="245" 
d="M88 546c-20 0 -50 9 -50 31c0 10 7 23 14 27l110 67c11 7 20 10 31 10c22 0 52 -11 52 -33c0 -10 -6 -20 -35 -38l-72 -46c-26 -15 -38 -18 -50 -18z" />
    <glyph glyph-name="mu" unicode="&#xb5;" horiz-adv-x="368" 
d="M86 10c-19 0 -48 8 -48 33l1 535c0 24 31 35 50 35c16 0 34 -7 42 -17c10 -13 11 -44 11 -80v-40c0 -69 4 -147 50 -172c61 16 68 223 69 248c4 49 37 60 61 60c21 0 46 -8 46 -33v-454c0 -23 -31 -34 -49 -34c-19 0 -51 12 -51 34l2 135c-24 -16 -52 -24 -78 -24
c-20 0 -38 4 -55 11l-1 -204c0 -24 -29 -33 -50 -33z" />
    <glyph glyph-name="paragraph" unicode="&#xb6;" horiz-adv-x="326" 
d="M210 0c-20 0 -32 13 -32 34v217c-13 -6 -27 -10 -41 -10c-93 0 -99 160 -99 222c0 61 6 246 90 246c22 0 37 -13 49 -25c0 24 6 44 32 44c22 0 37 -15 37 -34l1 -660c0 -20 -16 -34 -37 -34zM291 0c-19 0 -33 15 -33 34l-1 660c0 18 16 34 34 34s34 -16 34 -34l1 -660
c0 -19 -17 -34 -35 -34z" />
    <glyph glyph-name="periodcentered" unicode="&#xb7;" horiz-adv-x="165" 
d="M101 325c-26 0 -63 14 -63 43c0 30 40 45 64 45s63 -15 63 -45s-40 -43 -64 -43z" />
    <glyph glyph-name="periodcentered" unicode="&#x2219;" horiz-adv-x="165" 
d="M101 325c-26 0 -63 14 -63 43c0 30 40 45 64 45s63 -15 63 -45s-40 -43 -64 -43z" />
    <glyph glyph-name="cedilla" unicode="&#xb8;" horiz-adv-x="469" 
d="M245 -223c-70 0 -207 25 -207 110c0 39 29 47 53 47c82 0 -3 -88 151 -88c38 0 104 6 129 27c-1 19 -26 21 -43 21c-38 0 -79 -11 -94 -14c-7 -2 -14 -2 -21 -2c-31 0 -52 16 -52 36c0 7 3 13 3 14c18 47 0 88 57 88c25 0 55 -8 55 -33l-3 -21c9 2 21 3 33 3
c66 0 163 -25 163 -87c0 -81 -163 -101 -224 -101z" />
    <glyph glyph-name="onesuperior" unicode="&#xb9;" horiz-adv-x="215" 
d="M152 1c-19 0 -49 9 -49 59c0 20 5 68 9 148c2 64 4 161 4 259v62c-9 -4 -19 -7 -29 -7c-19 0 -49 11 -49 34c0 7 2 12 12 26c21 31 44 73 54 89c24 40 45 48 65 48c32 0 46 -19 46 -52v-168c0 -105 -2 -209 -5 -280c-4 -83 -3 -135 -6 -160c-6 -47 -32 -58 -52 -58z" />
    <glyph glyph-name="ordmasculine" unicode="&#xba;" horiz-adv-x="276" 
d="M153 368c75 0 123 76 123 161c0 73 -34 151 -107 151c-84 0 -131 -70 -131 -150c0 -62 27 -162 115 -162zM156 410c-45 0 -55 84 -55 116c0 35 12 111 60 111c46 0 53 -73 53 -102c0 -39 -12 -125 -58 -125z" />
    <glyph glyph-name="onequarter" unicode="&#xbc;" horiz-adv-x="464" 
d="M102 0c-22 0 -47 11 -47 26c0 26 76 267 84 293l110 369c5 17 32 25 48 25c20 0 48 -11 48 -22c0 -26 -178 -613 -183 -630c-17 -55 -43 -61 -60 -61zM404 28c-34 0 -59 37 -59 69c-18 -6 -37 -12 -55 -12c-48 0 -61 36 -61 79c0 49 19 199 90 199c20 0 50 -12 50 -30
c0 -9 -7 -25 -11 -35c-16 -38 -32 -83 -39 -129c12 7 23 15 33 23c8 37 28 110 71 110c17 0 41 -12 41 -49c0 -8 -1 -17 -4 -28c-2 -10 -16 -62 -16 -100c0 -35 12 -48 12 -62c0 -24 -34 -35 -52 -35zM114 415c-20 0 -47 9 -49 57l-2 71c0 29 2 54 3 78c-13 5 -28 14 -28 31
c0 32 60 62 92 62c18 0 40 -10 40 -52c0 -25 -8 -71 -8 -126l1 -65c0 -48 -30 -56 -49 -56z" />
    <glyph glyph-name="onehalf" unicode="&#xbd;" horiz-adv-x="439" 
d="M101 -2c-22 0 -48 10 -48 25c0 27 90 312 98 341l96 324c5 18 33 25 45 25c17 0 53 -12 53 -31l-196 -659c-6 -19 -31 -25 -48 -25zM280 25c-16 0 -64 3 -64 25c0 38 144 155 144 232c0 10 -2 17 -8 24c-24 -24 -30 -54 -71 -54c-20 0 -39 7 -39 30c0 44 69 91 118 91
c44 0 79 -38 79 -90c0 -75 -70 -149 -124 -197l39 2c33 0 72 -5 72 -29c0 -31 -63 -35 -108 -35zM111 414c-18 0 -44 9 -46 58l-2 71c0 29 2 54 3 78c-13 0 -28 17 -28 33c0 29 52 61 83 61c18 0 49 -12 49 -39c0 -8 -3 -20 -5 -38c-3 -24 -4 -56 -4 -86l2 -83
c0 -45 -32 -55 -52 -55z" />
    <glyph glyph-name="threequarters" unicode="&#xbe;" horiz-adv-x="542" 
d="M179 -2c-21 0 -51 8 -51 23c0 27 90 315 98 344l96 323c6 19 30 25 47 25c20 0 50 -8 50 -23c0 -25 -86 -304 -98 -343l-97 -324c-6 -19 -28 -25 -45 -25zM477 29c-38 0 -60 34 -60 68c-18 -6 -36 -12 -55 -12c-48 0 -61 36 -61 80c0 52 19 124 36 159c16 32 34 39 52 39
c20 0 52 -9 52 -29c0 -10 -7 -25 -9 -30c-20 -44 -35 -87 -40 -135c11 8 20 18 33 23c7 36 25 111 71 111c22 0 45 -16 45 -43v-2c-11 -48 -27 -92 -27 -131c0 -37 14 -52 14 -67c0 -22 -33 -31 -51 -31zM156 400c-40 0 -111 21 -111 56c0 17 16 21 27 21
c24 0 54 -17 69 -17c14 0 28 17 28 34c0 45 -102 11 -102 58c0 43 85 41 85 84c0 9 -4 12 -13 12c-14 0 -31 -5 -43 -5c-22 0 -58 15 -58 35c0 27 65 29 83 29c40 0 129 -10 129 -62c0 -29 -28 -59 -46 -77c26 -20 44 -47 44 -83c0 -57 -46 -85 -92 -85z" />
    <glyph glyph-name="questiondown" unicode="&#xbf;" horiz-adv-x="402" 
d="M216 1c-45 0 -178 11 -178 118c0 142 238 358 238 438l-1 14c0 23 29 35 53 35c22 0 47 -10 47 -45c0 -109 -240 -333 -240 -441c0 -47 45 -54 80 -54l20 1c53 4 61 85 63 103c7 43 32 51 52 51c23 0 52 -10 52 -59c0 -67 -56 -161 -186 -161zM300 633
c-24 0 -65 13 -65 44s42 44 67 44s64 -13 64 -43c0 -31 -41 -45 -66 -45z" />
    <glyph glyph-name="Agrave" unicode="&#xc0;" horiz-adv-x="640" 
d="M88 0c-23 0 -50 12 -50 20c0 20 191 568 210 617c16 39 33 76 80 76c74 0 119 -106 141 -160c51 -124 93 -249 114 -326c18 -67 57 -190 57 -203c0 -11 -29 -23 -50 -23c-17 0 -38 8 -50 30c-15 27 -31 104 -43 142h-309c-17 -49 -32 -101 -45 -128
c-18 -39 -39 -45 -55 -45zM477 241c-35 124 -75 253 -138 366c-46 -121 -87 -244 -128 -366h266zM378 773c-11 0 -23 3 -34 10l-108 67c-7 4 -14 15 -14 25c0 20 29 33 50 33c26 0 115 -57 135 -72c15 -11 21 -19 21 -29c0 -23 -29 -34 -50 -34z" />
    <glyph glyph-name="Aacute" unicode="&#xc1;" horiz-adv-x="640" 
d="M88 0c-23 0 -50 12 -50 20c0 20 191 568 210 617c16 39 33 76 80 76c74 0 119 -106 141 -160c51 -124 93 -249 114 -326c18 -67 57 -190 57 -203c0 -11 -29 -23 -50 -23c-17 0 -38 8 -50 30c-15 27 -31 104 -43 142h-309c-17 -49 -32 -101 -45 -128
c-18 -39 -39 -45 -55 -45zM477 241c-35 124 -75 253 -138 366c-46 -121 -87 -244 -128 -366h266zM269 776c-19 0 -51 9 -51 32c0 11 7 20 21 31c20 15 110 72 135 72c21 0 51 -11 51 -34c0 -10 -6 -19 -14 -24l-109 -68c-10 -6 -22 -9 -33 -9z" />
    <glyph glyph-name="Acircumflex" unicode="&#xc2;" horiz-adv-x="640" 
d="M88 0c-23 0 -50 12 -50 20c0 20 191 568 210 617c16 39 33 76 80 76c74 0 119 -106 141 -160c51 -124 93 -249 114 -326c18 -67 57 -190 57 -203c0 -11 -29 -23 -50 -23c-17 0 -38 8 -50 30c-15 27 -31 104 -43 142h-309c-17 -49 -32 -101 -45 -128
c-18 -39 -39 -45 -55 -45zM477 241c-35 124 -75 253 -138 366c-46 -121 -87 -244 -128 -366h266zM416 775c-34 0 -67 36 -89 52c-25 -18 -53 -51 -85 -51c-18 0 -52 10 -52 28c0 33 103 107 147 107c36 0 81 -50 106 -71c14 -12 20 -21 20 -32c0 -24 -30 -33 -47 -33z" />
    <glyph glyph-name="Atilde" unicode="&#xc3;" horiz-adv-x="640" 
d="M88 0c-23 0 -50 12 -50 20c0 20 191 568 210 617c16 39 33 76 80 76c74 0 119 -106 141 -160c51 -124 93 -249 114 -326c18 -67 57 -190 57 -203c0 -11 -29 -23 -50 -23c-17 0 -38 8 -50 30c-15 27 -31 104 -43 142h-309c-17 -49 -32 -101 -45 -128
c-18 -39 -39 -45 -55 -45zM477 241c-35 124 -75 253 -138 366c-46 -121 -87 -244 -128 -366h266zM390 781c-48 0 -70 23 -99 58c-14 -29 -13 -58 -58 -58c-24 0 -49 9 -49 42c0 52 60 89 115 89c42 0 63 -21 92 -56c16 27 24 53 61 53c20 0 52 -8 52 -35l-2 -9
c-21 -48 -54 -84 -112 -84z" />
    <glyph glyph-name="Adieresis" unicode="&#xc4;" horiz-adv-x="640" 
d="M88 0c-23 0 -50 12 -50 20c0 20 191 568 210 617c16 39 33 76 80 76c74 0 119 -106 141 -160c51 -124 93 -249 114 -326c18 -67 57 -190 57 -203c0 -11 -29 -23 -50 -23c-17 0 -38 8 -50 30c-15 27 -31 104 -43 142h-309c-17 -49 -32 -101 -45 -128
c-18 -39 -39 -45 -55 -45zM477 241c-35 124 -75 253 -138 366c-46 -121 -87 -244 -128 -366h266zM259 798c-26 0 -63 14 -63 44c0 31 38 44 63 44c26 0 63 -14 63 -44c0 -31 -38 -44 -63 -44zM393 798c-26 0 -63 14 -63 44c0 31 38 44 63 44c26 0 63 -14 63 -45
c0 -30 -38 -43 -63 -43z" />
    <glyph glyph-name="Aring" unicode="&#xc5;" horiz-adv-x="640" 
d="M88 0c-23 0 -50 12 -50 20c0 20 191 568 210 617c16 39 33 76 80 76c74 0 119 -106 141 -160c51 -124 93 -249 114 -326c18 -67 57 -190 57 -203c0 -11 -29 -23 -50 -23c-17 0 -38 8 -50 30c-15 27 -31 104 -43 142h-309c-17 -49 -32 -101 -45 -128
c-18 -39 -39 -45 -55 -45zM338 727c-52 0 -123 25 -123 87s71 86 122 86c52 0 127 -24 127 -87c0 -62 -74 -86 -126 -86zM477 241c-35 124 -75 253 -138 366c-46 -121 -87 -244 -128 -366h266zM339 775c22 0 57 11 57 37c0 27 -36 38 -57 38s-57 -11 -57 -38
c0 -26 35 -37 57 -37z" />
    <glyph glyph-name="AE" unicode="&#xc6;" horiz-adv-x="931" 
d="M87 0c-21 0 -49 10 -49 20c0 24 192 570 214 624c3 7 19 47 40 61c10 5 24 8 37 8c49 0 80 -41 108 -93c43 -79 78 -182 111 -282c0 98 -2 195 -5 293c-15 4 -33 16 -33 33c0 20 25 30 41 33c11 12 27 17 42 17s28 -4 38 -14c77 4 155 13 200 13c51 0 80 -12 80 -35
s-30 -32 -90 -35l-180 -10l-1 -129l219 4c19 0 46 -13 46 -35c0 -23 -30 -33 -49 -33l-216 -4c-3 -84 -4 -168 -4 -234l1 -128c80 14 164 36 222 36c42 0 72 -12 72 -35c0 -24 -30 -32 -77 -36c-27 -3 -79 -9 -153 -24c-23 -5 -70 -14 -100 -14s-50 10 -64 38
c-16 31 -26 87 -40 134h-309c-18 -49 -34 -100 -43 -121c-18 -45 -41 -52 -58 -52zM477 241c-28 99 -87 280 -138 366c-46 -121 -86 -244 -128 -366h266z" />
    <glyph glyph-name="Ccedilla" unicode="&#xc7;" horiz-adv-x="477" 
d="M250 -223c-71 0 -208 25 -208 110c0 39 29 47 53 47c81 0 -3 -88 151 -88c39 0 104 6 129 27c-2 19 -25 21 -40 21c-42 0 -92 -19 -120 -19c-21 0 -50 12 -50 40c0 21 16 42 16 64c0 10 3 17 8 22l-27 -1c-106 0 -124 71 -124 149c0 155 68 567 242 567
c91 0 157 -112 189 -178c6 -12 8 -15 8 -21c0 -22 -32 -32 -51 -32c-17 0 -38 8 -49 29c-13 23 -48 125 -93 125c-32 0 -57 -53 -69 -80c-45 -105 -82 -268 -82 -395c0 -14 0 -93 57 -93c48 0 120 58 154 94c20 21 30 38 40 48c13 14 30 19 46 19c20 0 47 -9 47 -29
c0 -29 -59 -77 -75 -91c-48 -40 -100 -76 -158 -97c18 -3 36 -11 36 -32l-3 -21l35 2c52 0 161 -20 161 -88c0 -79 -161 -99 -223 -99z" />
    <glyph glyph-name="Egrave" unicode="&#xc8;" horiz-adv-x="459" 
d="M131 1c-33 0 -63 11 -63 111c0 48 7 167 7 306c0 58 -1 135 -4 213c-15 4 -33 16 -33 34c0 20 24 29 40 32c11 11 26 17 45 17c12 0 25 -3 36 -14c77 5 155 13 199 13c53 0 80 -11 80 -34c0 -11 -7 -20 -15 -25c-10 -6 -23 -9 -63 -10c-45 -1 -118 -6 -191 -11l-1 -129
l217 4c19 0 48 -12 48 -34c0 -23 -31 -34 -49 -34l-216 -4c-3 -84 -5 -168 -5 -237l2 -125c79 15 164 36 222 36c42 0 72 -11 72 -34c0 -11 -7 -20 -15 -25c-10 -6 -23 -9 -54 -11c-35 -3 -87 -9 -143 -20c-38 -8 -84 -19 -116 -19zM283 773c-11 0 -23 3 -34 10l-108 67
c-8 5 -14 14 -14 24c0 22 29 34 49 34c26 0 116 -57 136 -72c15 -11 21 -19 21 -29c0 -23 -29 -34 -50 -34z" />
    <glyph glyph-name="Eacute" unicode="&#xc9;" horiz-adv-x="459" 
d="M131 1c-33 0 -63 11 -63 111c0 48 7 167 7 306c0 58 -1 135 -4 213c-15 4 -33 16 -33 34c0 20 24 29 40 32c11 11 26 17 45 17c12 0 25 -3 36 -14c77 5 155 13 199 13c53 0 80 -11 80 -34c0 -11 -7 -20 -15 -25c-10 -6 -23 -9 -63 -10c-45 -1 -118 -6 -191 -11l-1 -129
l217 4c19 0 48 -12 48 -34c0 -23 -31 -34 -49 -34l-216 -4c-3 -84 -5 -168 -5 -237l2 -125c79 15 164 36 222 36c42 0 72 -11 72 -34c0 -11 -7 -20 -15 -25c-10 -6 -23 -9 -54 -11c-35 -3 -87 -9 -143 -20c-38 -8 -84 -19 -116 -19zM187 776c-20 0 -51 9 -51 32
c0 10 7 21 15 26l109 67c11 7 21 10 32 10c21 0 51 -11 51 -33c0 -10 -6 -20 -38 -40l-62 -39c-33 -20 -45 -23 -56 -23z" />
    <glyph glyph-name="Ecircumflex" unicode="&#xca;" horiz-adv-x="459" 
d="M131 1c-33 0 -63 11 -63 111c0 48 7 167 7 306c0 58 -1 135 -4 213c-15 4 -33 16 -33 34c0 20 24 29 40 32c11 11 26 17 45 17c12 0 25 -3 36 -14c77 5 155 13 199 13c53 0 80 -11 80 -34c0 -11 -7 -20 -15 -25c-10 -6 -23 -9 -63 -10c-45 -1 -118 -6 -191 -11l-1 -129
l217 4c19 0 48 -12 48 -34c0 -23 -31 -34 -49 -34l-216 -4c-3 -84 -5 -168 -5 -237l2 -125c79 15 164 36 222 36c42 0 72 -11 72 -34c0 -11 -7 -20 -15 -25c-10 -6 -23 -9 -54 -11c-35 -3 -87 -9 -143 -20c-38 -8 -84 -19 -116 -19zM333 775c-35 0 -65 34 -88 52
c-25 -18 -53 -51 -85 -51c-18 0 -52 10 -52 28c0 33 103 107 147 107c36 0 81 -51 106 -71c14 -12 20 -21 20 -32c0 -24 -30 -33 -48 -33z" />
    <glyph glyph-name="Edieresis" unicode="&#xcb;" horiz-adv-x="459" 
d="M131 1c-33 0 -63 11 -63 111c0 48 7 167 7 306c0 58 -1 135 -4 213c-15 4 -33 16 -33 34c0 20 24 29 40 32c11 11 26 17 45 17c12 0 25 -3 36 -14c77 5 155 13 199 13c53 0 80 -11 80 -34c0 -11 -7 -20 -15 -25c-10 -6 -23 -9 -63 -10c-45 -1 -118 -6 -191 -11l-1 -129
l217 4c19 0 48 -12 48 -34c0 -23 -31 -34 -49 -34l-216 -4c-3 -84 -5 -168 -5 -237l2 -125c79 15 164 36 222 36c42 0 72 -11 72 -34c0 -11 -7 -20 -15 -25c-10 -6 -23 -9 -54 -11c-35 -3 -87 -9 -143 -20c-38 -8 -84 -19 -116 -19zM181 798c-25 0 -64 14 -64 44
c0 31 40 44 65 44s62 -14 62 -44c0 -31 -38 -44 -63 -44zM315 798c-26 0 -64 14 -64 44c0 31 40 44 64 44c26 0 63 -14 63 -45c0 -30 -38 -43 -63 -43z" />
    <glyph glyph-name="Igrave" unicode="&#xcc;" horiz-adv-x="319" 
d="M97 0c-21 0 -49 11 -49 36c0 30 42 33 71 33h20l1 575l-40 -2c-29 0 -62 5 -62 32c0 26 31 37 49 37l175 3c20 0 47 -12 47 -35c0 -31 -49 -33 -71 -33l-1 -575l23 1c26 0 59 -4 59 -32c0 -27 -32 -36 -51 -36zM226 773c-12 0 -24 3 -35 10l-108 67c-7 4 -14 15 -14 25
c0 20 29 33 51 33c25 0 115 -56 134 -71c16 -12 21 -20 21 -30c0 -23 -28 -34 -49 -34z" />
    <glyph glyph-name="Iacute" unicode="&#xcd;" horiz-adv-x="319" 
d="M97 0c-21 0 -49 11 -49 36c0 30 42 33 71 33h20l1 575l-40 -2c-29 0 -62 5 -62 32c0 26 31 37 49 37l175 3c20 0 47 -12 47 -35c0 -31 -49 -33 -71 -33l-1 -575l23 1c26 0 59 -4 59 -32c0 -27 -32 -36 -51 -36zM138 776c-19 0 -51 9 -51 32c0 11 7 20 21 31
c19 14 111 72 135 72c21 0 52 -12 52 -33c0 -10 -6 -20 -14 -25l-110 -68c-10 -6 -21 -9 -33 -9z" />
    <glyph glyph-name="Icircumflex" unicode="&#xce;" horiz-adv-x="319" 
d="M97 0c-21 0 -49 11 -49 36c0 30 42 33 71 33h20l1 575l-40 -2c-29 0 -62 5 -62 32c0 26 31 37 49 37l175 3c20 0 47 -12 47 -35c0 -31 -49 -33 -71 -33l-1 -575l23 1c26 0 59 -4 59 -32c0 -27 -32 -36 -51 -36zM265 775c-33 0 -66 36 -87 52c-25 -17 -54 -51 -87 -51
c-17 0 -50 10 -50 28c0 32 103 107 143 107c33 0 130 -79 130 -108c0 -18 -31 -28 -49 -28z" />
    <glyph glyph-name="Idieresis" unicode="&#xcf;" horiz-adv-x="319" 
d="M97 0c-21 0 -49 11 -49 36c0 30 42 33 71 33h20l1 575l-40 -2c-29 0 -62 5 -62 32c0 26 31 37 49 37l175 3c20 0 47 -12 47 -35c0 -31 -49 -33 -71 -33l-1 -575l23 1c26 0 59 -4 59 -32c0 -27 -32 -36 -51 -36zM107 801c-25 0 -62 14 -62 45s38 43 63 43s63 -13 63 -43
c0 -31 -38 -45 -64 -45zM242 801c-25 0 -64 15 -64 45s39 43 64 43s63 -13 63 -43c0 -31 -38 -45 -63 -45z" />
    <glyph glyph-name="Eth" unicode="&#xd0;" horiz-adv-x="513" 
d="M134 -2c-26 0 -54 12 -54 34v286l-9 -1c-20 0 -33 12 -33 34c0 29 18 36 43 36v292c0 23 29 35 50 35c18 0 41 -9 48 -28c34 16 71 24 115 24c17 0 34 -1 51 -6c127 -36 168 -273 168 -398c0 -126 -41 -305 -200 -305c-55 0 -98 22 -135 50c0 -36 -11 -53 -44 -53z
M311 69c97 0 110 177 110 240c0 90 -27 326 -129 326c-48 0 -113 -53 -113 -91v-154l105 4c16 0 26 -20 26 -35s-10 -34 -27 -34l-104 -3v-153c23 -44 78 -100 132 -100z" />
    <glyph glyph-name="Ntilde" unicode="&#xd1;" horiz-adv-x="477" 
d="M379 1c-120 0 -205 249 -242 341l-1 -307c0 -24 -30 -34 -50 -34c-19 0 -48 11 -48 34l1 645c0 23 31 34 49 34c22 0 65 -16 65 -90c0 -116 106 -380 202 -514c19 152 22 306 22 439l-1 102c0 56 30 67 51 67c22 0 47 -12 48 -68l1 -145c0 -22 0 -473 -75 -501
c-5 -2 -15 -3 -22 -3zM281 781c-41 0 -63 20 -91 53l-5 5c-12 -31 -14 -58 -57 -58c-25 0 -49 9 -49 42c0 52 60 89 115 89c42 0 64 -21 92 -56c16 27 24 53 61 53c20 0 52 -8 52 -34l-2 -9c-14 -48 -61 -85 -116 -85z" />
    <glyph glyph-name="Ograve" unicode="&#xd2;" horiz-adv-x="532" 
d="M269 4c-166 0 -231 197 -231 346c0 161 76 363 259 363c173 0 235 -180 235 -322c0 -159 -72 -387 -263 -387zM283 77c112 0 145 225 145 320c0 75 -21 242 -137 242c-117 0 -149 -169 -149 -255c0 -83 30 -307 141 -307zM271 773c-12 0 -24 3 -35 10l-108 67
c-7 4 -14 15 -14 25c0 20 29 33 51 33c25 0 115 -56 135 -71c15 -12 20 -20 20 -30c0 -24 -28 -34 -49 -34z" />
    <glyph glyph-name="Oacute" unicode="&#xd3;" horiz-adv-x="532" 
d="M269 4c-166 0 -231 197 -231 346c0 161 76 363 259 363c173 0 235 -180 235 -322c0 -159 -72 -387 -263 -387zM283 77c112 0 145 225 145 320c0 75 -21 242 -137 242c-117 0 -149 -169 -149 -255c0 -83 30 -307 141 -307zM212 776c-20 0 -50 8 -50 32c0 11 6 20 21 31
c19 14 110 72 134 72c22 0 52 -12 52 -33c0 -10 -6 -20 -14 -25l-110 -68c-10 -6 -21 -9 -33 -9z" />
    <glyph glyph-name="Ocircumflex" unicode="&#xd4;" horiz-adv-x="532" 
d="M269 4c-166 0 -231 197 -231 346c0 161 76 363 259 363c173 0 235 -180 235 -322c0 -159 -72 -387 -263 -387zM283 77c112 0 145 225 145 320c0 75 -21 242 -137 242c-117 0 -149 -169 -149 -255c0 -83 30 -307 141 -307zM339 775c-33 0 -64 35 -87 52
c-26 -18 -53 -51 -86 -51c-18 0 -51 10 -51 28c0 32 103 107 138 107s135 -74 135 -107c0 -19 -31 -29 -49 -29z" />
    <glyph glyph-name="Otilde" unicode="&#xd5;" horiz-adv-x="532" 
d="M269 4c-166 0 -231 197 -231 346c0 161 76 363 259 363c173 0 235 -180 235 -322c0 -159 -72 -387 -263 -387zM283 77c112 0 145 225 145 320c0 75 -21 242 -137 242c-117 0 -149 -169 -149 -255c0 -83 30 -307 141 -307zM301 781c-42 0 -63 21 -91 53l-5 5
c-11 -30 -16 -58 -58 -58c-24 0 -49 9 -49 43c0 51 60 88 118 88c43 0 58 -20 90 -56c17 28 22 53 58 53c23 0 55 -9 55 -34l-2 -9c-15 -49 -61 -85 -116 -85z" />
    <glyph glyph-name="Odieresis" unicode="&#xd6;" horiz-adv-x="532" 
d="M269 4c-166 0 -231 197 -231 346c0 161 76 363 259 363c173 0 235 -180 235 -322c0 -159 -72 -387 -263 -387zM283 77c112 0 145 225 145 320c0 75 -21 242 -137 242c-117 0 -149 -169 -149 -255c0 -83 30 -307 141 -307zM182 800c-25 0 -63 14 -63 44c0 31 40 44 64 44
c26 0 63 -14 63 -43c0 -30 -39 -45 -64 -45zM316 800c-25 0 -63 14 -63 44c0 31 40 44 63 44c26 0 64 -15 64 -44s-39 -44 -64 -44z" />
    <glyph glyph-name="multiply" unicode="&#xd7;" horiz-adv-x="362" 
d="M97 229c34 0 79 43 107 62c30 -16 78 -50 111 -50c20 0 47 12 47 33c0 12 -9 20 -17 25l-73 42c16 12 71 42 71 70c0 21 -31 31 -49 31c-36 0 -74 -39 -99 -58c-30 17 -73 52 -108 52c-23 0 -49 -14 -49 -34c0 -12 9 -20 17 -25l73 -42l-67 -49c-8 -6 -14 -15 -14 -24
c0 -22 34 -33 50 -33z" />
    <glyph glyph-name="Oslash" unicode="&#xd8;" horiz-adv-x="532" 
d="M176 0c-19 0 -54 11 -54 30l11 37c-66 71 -95 191 -95 288c0 156 76 358 259 358c26 0 48 -4 68 -10c9 8 21 10 31 10c23 0 52 -11 52 -36l-6 -20c65 -65 90 -175 90 -266c0 -125 -47 -301 -165 -362c-24 -13 -58 -25 -89 -25c-16 0 -41 3 -64 11
c-11 -12 -28 -15 -38 -15zM174 186c52 150 102 299 157 448c-10 3 -21 5 -33 5c-126 0 -155 -169 -155 -272c0 -57 9 -121 31 -181zM275 77c4 0 8 0 14 2c111 24 139 218 139 322c0 45 -5 99 -25 149c-57 -154 -109 -309 -162 -464c11 -6 23 -9 34 -9z" />
    <glyph glyph-name="Ugrave" unicode="&#xd9;" horiz-adv-x="480" 
d="M241 1c-184 0 -203 275 -203 482c0 15 0 114 10 169c11 54 32 63 52 63c23 0 52 -10 52 -35c0 -14 -8 -44 -11 -82c-3 -31 -4 -82 -4 -123c0 -85 3 -405 119 -405c120 0 115 348 116 444v111c0 74 39 89 61 89c18 0 47 -11 47 -34l-1 -644c0 -23 -31 -34 -58 -34
c-38 0 -40 23 -40 56v10c-32 -41 -83 -67 -140 -67zM253 773c-12 0 -24 3 -35 10l-108 67c-7 4 -14 15 -14 25c0 20 29 33 51 33c25 0 115 -56 135 -71c15 -12 20 -20 20 -30c0 -24 -28 -34 -49 -34z" />
    <glyph glyph-name="Uacute" unicode="&#xda;" horiz-adv-x="480" 
d="M241 1c-184 0 -203 275 -203 482c0 15 0 114 10 169c11 54 32 63 52 63c23 0 52 -10 52 -35c0 -14 -8 -44 -11 -82c-3 -31 -4 -82 -4 -123c0 -85 3 -405 119 -405c120 0 115 348 116 444v111c0 74 39 89 61 89c18 0 47 -11 47 -34l-1 -644c0 -23 -31 -34 -58 -34
c-38 0 -40 23 -40 56v10c-32 -41 -83 -67 -140 -67zM194 776c-20 0 -50 8 -50 32c0 11 6 20 21 31c19 14 110 72 134 72c22 0 52 -12 52 -33c0 -10 -6 -20 -14 -25l-110 -68c-10 -6 -21 -9 -33 -9z" />
    <glyph glyph-name="Ucircumflex" unicode="&#xdb;" horiz-adv-x="480" 
d="M241 1c-184 0 -203 275 -203 482c0 15 0 114 10 169c11 54 32 63 52 63c23 0 52 -10 52 -35c0 -14 -8 -44 -11 -82c-3 -31 -4 -82 -4 -123c0 -85 3 -405 119 -405c120 0 115 348 116 444v111c0 74 39 89 61 89c18 0 47 -11 47 -34l-1 -644c0 -23 -31 -34 -58 -34
c-38 0 -40 23 -40 56v10c-32 -41 -83 -67 -140 -67zM321 775c-33 0 -64 35 -87 52c-26 -18 -53 -51 -86 -51c-18 0 -51 10 -51 28c0 32 103 107 143 107c33 0 130 -79 130 -107c0 -19 -31 -29 -49 -29z" />
    <glyph glyph-name="Udieresis" unicode="&#xdc;" horiz-adv-x="480" 
d="M241 1c-184 0 -203 275 -203 482c0 15 0 114 10 169c11 54 32 63 52 63c23 0 52 -10 52 -35c0 -14 -8 -44 -11 -82c-3 -31 -4 -82 -4 -123c0 -85 3 -405 119 -405c120 0 115 348 116 444v111c0 74 39 89 61 89c18 0 47 -11 47 -34l-1 -644c0 -23 -31 -34 -58 -34
c-38 0 -40 23 -40 56v10c-32 -41 -83 -67 -140 -67zM164 797c-25 0 -63 13 -63 43s39 45 64 45c24 0 63 -14 63 -45c0 -30 -39 -43 -64 -43zM298 797c-25 0 -63 13 -63 43s39 45 63 45c25 0 64 -15 64 -45s-39 -43 -64 -43z" />
    <glyph glyph-name="Yacute" unicode="&#xdd;" horiz-adv-x="486" 
d="M223 -2c-21 0 -49 10 -49 21c0 22 110 320 123 358c-29 -36 -67 -64 -120 -64c-117 0 -139 138 -139 255c0 7 0 125 40 142c6 2 16 4 25 4c21 0 49 -10 49 -34l-2 -9c-9 -38 -11 -77 -11 -114c0 -47 3 -145 42 -174c74 47 138 216 182 281c22 32 46 49 71 49
c24 0 50 -14 52 -40l-148 -453c-10 -32 -55 -175 -69 -199c-9 -15 -28 -23 -46 -23zM196 776c-19 0 -51 9 -51 32c0 11 7 20 21 31c20 15 111 72 136 72c19 0 51 -12 51 -33c0 -10 -6 -20 -14 -25l-110 -68c-10 -6 -21 -9 -33 -9z" />
    <glyph glyph-name="Thorn" unicode="&#xde;" horiz-adv-x="548" 
d="M239 578c42 26 87 38 125 38c126 0 184 -116 184 -231c0 -133 -77 -322 -231 -322c-28 0 -54 6 -79 15v-99l19 1c28 0 62 -5 62 -37c0 -30 -29 -40 -51 -41l-171 -5c-25 0 -49 15 -49 42c0 33 39 37 70 37h21l1 658l-39 -2c-31 0 -63 6 -63 37c0 29 27 42 49 42l175 3
c22 0 47 -15 47 -40c0 -35 -46 -37 -71 -37zM318 134c95 0 131 152 131 240c0 54 -14 146 -71 173l-14 1c-39 0 -92 -40 -116 -71c-9 -14 -10 -82 -10 -121l1 -112c0 -76 34 -110 79 -110z" />
    <glyph glyph-name="germandbls" unicode="&#xdf;" horiz-adv-x="526" 
d="M220 244c17 0 38 -9 44 -26c3 -8 4 -19 10 -35c9 -27 34 -72 83 -72c46 0 73 39 73 93c0 76 -52 151 -120 191c-17 10 -39 20 -58 20c-20 0 -41 12 -41 34c0 16 11 35 30 37c45 30 98 63 98 109c0 44 -47 48 -69 48c-67 0 -130 -41 -133 -258l-1 -218
c0 -158 -35 -167 -51 -167c-18 0 -47 11 -47 34v464c0 145 135 213 248 213c73 0 151 -28 151 -104c0 -57 -44 -107 -95 -142c108 -38 184 -151 184 -272c0 -110 -63 -185 -163 -185c-94 0 -143 68 -167 132c-6 15 -14 40 -14 59c0 21 11 45 38 45z" />
    <glyph glyph-name="agrave" unicode="&#xe0;" horiz-adv-x="431" 
d="M378 0c-19 0 -48 9 -48 34v76c-41 -56 -104 -110 -166 -110c-106 0 -126 153 -126 225c0 108 46 294 183 294c39 0 83 -15 111 -38c0 28 24 39 47 39c21 0 52 -9 52 -34l-3 -298c0 -49 3 -96 3 -115c0 -61 -30 -73 -53 -73zM236 543c-12 0 -24 3 -35 10l-108 67
c-7 4 -14 15 -14 25c0 20 29 33 51 33c25 0 115 -56 134 -71c16 -12 21 -20 21 -30c0 -23 -28 -34 -49 -34zM182 72c55 0 145 180 145 285c0 23 -4 96 -75 96c-105 0 -121 -165 -121 -220c0 -32 5 -161 51 -161z" />
    <glyph glyph-name="aacute" unicode="&#xe1;" horiz-adv-x="431" 
d="M378 0c-19 0 -48 9 -48 34v76c-41 -56 -104 -110 -166 -110c-106 0 -126 153 -126 225c0 108 46 294 183 294c39 0 83 -15 111 -38c0 28 24 39 47 39c21 0 52 -9 52 -34l-3 -298c0 -49 3 -96 3 -115c0 -61 -30 -73 -53 -73zM177 546c-19 0 -51 9 -51 32c0 11 7 20 21 31
c20 15 111 72 136 72c20 0 51 -12 51 -33c0 -10 -6 -20 -14 -25l-110 -68c-10 -6 -21 -9 -33 -9zM182 72c55 0 145 180 145 285c0 23 -4 96 -75 96c-105 0 -121 -165 -121 -220c0 -32 5 -161 51 -161z" />
    <glyph glyph-name="acircumflex" unicode="&#xe2;" horiz-adv-x="431" 
d="M378 0c-19 0 -48 9 -48 34v76c-41 -56 -104 -110 -166 -110c-106 0 -126 153 -126 225c0 108 46 294 183 294c39 0 83 -15 111 -38c0 28 24 39 47 39c21 0 52 -9 52 -34l-3 -298c0 -49 3 -96 3 -115c0 -61 -30 -73 -53 -73zM328 545c-33 0 -66 36 -87 52
c-25 -17 -54 -51 -87 -51c-17 0 -50 10 -50 28c0 32 103 107 143 107c33 0 130 -79 130 -108c0 -18 -31 -28 -49 -28zM182 72c55 0 145 180 145 285c0 23 -4 96 -75 96c-105 0 -121 -165 -121 -220c0 -32 5 -161 51 -161z" />
    <glyph glyph-name="atilde" unicode="&#xe3;" horiz-adv-x="431" 
d="M378 0c-19 0 -48 9 -48 34v76c-41 -56 -104 -110 -166 -110c-106 0 -126 153 -126 225c0 108 46 294 183 294c39 0 83 -15 111 -38c0 28 24 39 47 39c21 0 52 -9 52 -34l-3 -298c0 -49 3 -96 3 -115c0 -61 -30 -73 -53 -73zM182 72c55 0 145 180 145 285
c0 23 -4 96 -75 96c-105 0 -121 -165 -121 -220c0 -32 5 -161 51 -161zM303 551c-44 0 -64 20 -92 53l-5 5c-11 -31 -17 -58 -58 -58c-24 0 -49 9 -49 42c0 52 60 89 117 89c42 0 60 -21 91 -56c17 27 22 53 58 53c22 0 55 -9 55 -34l-3 -9c-18 -49 -57 -85 -114 -85z" />
    <glyph glyph-name="adieresis" unicode="&#xe4;" horiz-adv-x="431" 
d="M378 0c-19 0 -48 9 -48 34v76c-41 -56 -104 -110 -166 -110c-106 0 -126 153 -126 225c0 108 46 294 183 294c39 0 83 -15 111 -38c0 28 24 39 47 39c21 0 52 -9 52 -34l-3 -298c0 -49 3 -96 3 -115c0 -61 -30 -73 -53 -73zM182 72c55 0 145 180 145 285
c0 23 -4 96 -75 96c-105 0 -121 -165 -121 -220c0 -32 5 -161 51 -161zM192 592c-25 0 -64 13 -64 43s39 45 64 45s63 -15 63 -45c0 -31 -38 -43 -63 -43zM326 592c-25 0 -64 13 -64 43c0 31 39 45 64 45s63 -15 63 -45c0 -31 -38 -43 -63 -43z" />
    <glyph glyph-name="aring" unicode="&#xe5;" horiz-adv-x="431" 
d="M378 0c-19 0 -48 9 -48 34v76c-41 -56 -104 -110 -166 -110c-106 0 -126 153 -126 225c0 108 46 294 183 294c39 0 83 -15 111 -38c0 28 24 39 47 39c21 0 52 -9 52 -34l-3 -298c0 -49 3 -96 3 -115c0 -61 -30 -73 -53 -73zM258 527c-52 0 -124 25 -124 87
c0 61 72 86 123 86s126 -24 126 -87c0 -62 -74 -86 -125 -86zM182 72c55 0 145 180 145 285c0 23 -4 96 -75 96c-105 0 -121 -165 -121 -220c0 -32 5 -161 51 -161zM260 586c17 0 42 8 42 29s-25 29 -42 29s-42 -8 -42 -29s25 -29 42 -29z" />
    <glyph glyph-name="ae" unicode="&#xe6;" horiz-adv-x="700" 
d="M516 0c-22 0 -58 5 -91 18c-13 -12 -28 -18 -45 -18c-21 0 -50 9 -50 34v76c-38 -57 -106 -110 -167 -110c-104 0 -125 153 -125 226c0 107 46 293 186 293c38 0 79 -14 108 -38c0 28 25 39 53 39c35 0 46 -16 46 -52c28 32 54 50 96 50c86 0 171 -73 171 -157
c0 -128 -170 -156 -267 -156c0 -50 7 -138 78 -138c58 0 101 59 101 101c0 37 31 47 52 47c19 0 38 -9 38 -44c0 -74 -83 -171 -184 -171zM183 72c54 0 144 179 144 289c0 24 -4 92 -82 92c-22 0 -35 -5 -43 -10c-60 -33 -70 -154 -70 -208c0 -34 4 -163 51 -163zM488 270
c56 0 114 24 114 87c0 38 -20 94 -55 94c-53 0 -106 -138 -106 -178c15 -1 30 -3 47 -3z" />
    <glyph glyph-name="ccedilla" unicode="&#xe7;" horiz-adv-x="392" 
d="M216 -149c-54 0 -168 18 -168 84c0 29 24 35 43 35c68 0 -7 -67 118 -67c32 0 88 4 105 21c-1 14 -21 15 -31 15c-33 0 -66 -14 -93 -14c-21 0 -44 8 -44 28c0 6 2 12 6 18v3c4 9 6 18 7 27l-16 -1c-82 0 -105 81 -105 151c0 112 58 367 196 367c62 0 136 -50 152 -108
l2 -10c0 -24 -31 -33 -53 -33c-58 0 -38 59 -84 80c-72 0 -115 -243 -115 -312c0 -15 2 -69 35 -69c12 0 32 7 43 11c45 18 69 60 69 112v20c0 24 31 32 53 32c33 0 46 -19 46 -55c0 -83 -67 -149 -145 -173v-21c42 0 155 -1 155 -63c0 -65 -129 -78 -176 -78z" />
    <glyph glyph-name="egrave" unicode="&#xe8;" 
d="M214 0c-93 0 -176 60 -176 178c0 114 78 340 212 340c76 0 162 -73 162 -157c0 -128 -169 -156 -267 -156c0 -50 6 -139 73 -139c51 0 106 53 106 100l-1 17c2 21 33 32 53 32c19 0 38 -10 38 -46c0 -73 -81 -169 -200 -169zM230 543c-12 0 -24 3 -35 10l-108 67
c-7 4 -14 15 -14 25c0 20 29 33 51 33c25 0 115 -56 135 -71c15 -12 20 -20 20 -30c0 -24 -28 -34 -49 -34zM201 270c55 0 116 25 116 87c0 37 -22 94 -56 94c-51 0 -106 -136 -106 -175v-3c14 -1 30 -3 46 -3z" />
    <glyph glyph-name="eacute" unicode="&#xe9;" 
d="M214 0c-93 0 -176 60 -176 178c0 114 78 340 212 340c76 0 162 -73 162 -157c0 -128 -169 -156 -267 -156c0 -50 6 -139 73 -139c51 0 106 53 106 100l-1 17c2 21 33 32 53 32c19 0 38 -10 38 -46c0 -73 -81 -169 -200 -169zM201 270c55 0 116 25 116 87
c0 37 -22 94 -56 94c-51 0 -106 -136 -106 -175v-3c14 -1 30 -3 46 -3zM171 546c-20 0 -50 8 -50 32c0 11 6 20 21 31c18 14 110 72 134 72c21 0 52 -12 52 -33c0 -10 -6 -20 -14 -25l-110 -68c-10 -6 -21 -9 -33 -9z" />
    <glyph glyph-name="ecircumflex" unicode="&#xea;" 
d="M214 0c-93 0 -176 60 -176 178c0 114 78 340 212 340c76 0 162 -73 162 -157c0 -128 -169 -156 -267 -156c0 -50 6 -139 73 -139c51 0 106 53 106 100l-1 17c2 21 33 32 53 32c19 0 38 -10 38 -46c0 -73 -81 -169 -200 -169zM318 545c-33 0 -64 35 -87 52
c-26 -18 -54 -51 -86 -51c-18 0 -51 10 -51 28c0 32 103 107 143 107c33 0 130 -79 130 -107c0 -19 -31 -29 -49 -29zM201 270c55 0 116 25 116 87c0 37 -22 94 -56 94c-51 0 -106 -136 -106 -175v-3c14 -1 30 -3 46 -3z" />
    <glyph glyph-name="edieresis" unicode="&#xeb;" 
d="M214 0c-93 0 -176 60 -176 178c0 114 78 340 212 340c76 0 162 -73 162 -157c0 -128 -169 -156 -267 -156c0 -50 6 -139 73 -139c51 0 106 53 106 100l-1 17c2 21 33 32 53 32c19 0 38 -10 38 -46c0 -73 -81 -169 -200 -169zM201 270c55 0 116 25 116 87
c0 37 -22 94 -56 94c-51 0 -106 -136 -106 -175v-3c14 -1 30 -3 46 -3zM167 588c-25 0 -63 13 -63 43s39 45 64 45c24 0 63 -14 63 -45c0 -30 -39 -43 -64 -43zM301 588c-25 0 -63 13 -63 43s39 45 63 45c25 0 64 -15 64 -45s-39 -43 -64 -43z" />
    <glyph glyph-name="igrave" unicode="&#xec;" horiz-adv-x="244" 
d="M136 1c-20 0 -48 11 -48 34l1 450c0 23 32 34 50 34c19 0 50 -12 50 -34l-3 -450c0 -24 -30 -34 -50 -34zM195 543c-12 0 -24 3 -35 10l-108 67c-7 4 -14 15 -14 25c0 20 29 33 51 33c25 0 115 -56 134 -71c16 -12 21 -20 21 -30c0 -23 -28 -34 -49 -34z" />
    <glyph glyph-name="iacute" unicode="&#xed;" horiz-adv-x="245" 
d="M136 1c-20 0 -48 11 -48 34l1 450c0 23 32 34 50 34c19 0 50 -12 50 -34l-3 -450c0 -24 -30 -34 -50 -34zM89 546c-20 0 -51 10 -51 33c0 11 7 19 24 31c19 15 108 71 132 71c21 0 51 -11 51 -34c0 -10 -6 -19 -43 -42l-56 -35c-34 -21 -46 -24 -57 -24z" />
    <glyph glyph-name="icircumflex" unicode="&#xee;" horiz-adv-x="311" 
d="M173 1c-20 0 -48 11 -48 34l1 450c0 23 31 34 50 34s50 -11 50 -34l-3 -450c0 -24 -30 -34 -50 -34zM263 545c-34 0 -65 35 -88 52c-25 -20 -51 -52 -85 -52c-19 0 -52 11 -52 29c0 32 103 107 144 107c32 0 74 -42 105 -67c7 -6 24 -21 24 -37c0 -22 -30 -32 -48 -32z
" />
    <glyph glyph-name="idieresis" unicode="&#xef;" horiz-adv-x="299" 
d="M161 1c-19 0 -48 11 -48 34l2 450c0 24 30 34 48 34c20 0 51 -12 51 -34l-3 -450c0 -24 -30 -34 -50 -34zM101 588c-26 0 -63 14 -63 44s39 44 64 44s63 -14 63 -44c0 -31 -40 -44 -64 -44zM235 588c-26 0 -63 14 -63 44c0 31 38 44 62 44c26 0 65 -15 65 -45
s-40 -43 -64 -43z" />
    <glyph glyph-name="ntilde" unicode="&#xf1;" horiz-adv-x="427" 
d="M96 -2c-21 0 -58 14 -58 39l1 448c0 24 32 34 52 34c22 0 46 -13 46 -39c31 27 68 40 112 40c160 0 178 -180 178 -301c0 -64 -5 -125 -6 -154c-1 -42 -5 -66 -53 -66c-22 0 -46 13 -46 39l1 237c0 53 -24 170 -90 170c-90 0 -91 -221 -91 -266v-3c0 -62 4 -103 4 -120
c0 -47 -31 -58 -50 -58zM268 551c-48 0 -70 23 -99 58c-14 -29 -13 -58 -58 -58c-24 0 -49 9 -49 42c0 52 60 89 115 89c42 0 63 -21 92 -56c16 27 24 53 61 53c20 0 52 -8 52 -35l-2 -9c-21 -48 -54 -84 -112 -84z" />
    <glyph glyph-name="ograve" unicode="&#xf2;" horiz-adv-x="399" 
d="M212 0c-136 0 -174 175 -174 270c0 123 63 250 198 250c117 0 163 -142 163 -251c0 -130 -66 -269 -187 -269zM225 543c-12 0 -24 3 -35 10l-108 67c-7 4 -14 15 -14 25c0 20 29 33 50 33c26 0 115 -57 135 -72c15 -11 21 -19 21 -30c0 -22 -28 -33 -49 -33zM217 70
c71 0 88 150 88 208c0 45 -10 171 -81 171c-73 0 -90 -133 -90 -188c0 -48 13 -191 83 -191z" />
    <glyph glyph-name="oacute" unicode="&#xf3;" horiz-adv-x="399" 
d="M212 0c-136 0 -174 175 -174 270c0 123 63 250 198 250c117 0 163 -142 163 -251c0 -130 -66 -269 -187 -269zM166 546c-19 0 -51 9 -51 32c0 11 7 20 21 31c20 15 110 72 135 72c21 0 51 -11 51 -34c0 -10 -6 -19 -14 -24l-109 -68c-10 -6 -22 -9 -33 -9zM217 70
c71 0 88 150 88 208c0 45 -10 171 -81 171c-73 0 -90 -133 -90 -188c0 -48 13 -191 83 -191z" />
    <glyph glyph-name="ocircumflex" unicode="&#xf4;" horiz-adv-x="399" 
d="M212 0c-136 0 -174 175 -174 270c0 123 63 250 198 250c117 0 163 -142 163 -251c0 -130 -66 -269 -187 -269zM294 545c-34 0 -67 36 -89 52c-25 -18 -53 -51 -85 -51c-17 0 -52 10 -52 29c0 32 103 106 147 106c36 0 81 -50 106 -71c14 -12 20 -21 20 -32
c0 -24 -30 -33 -47 -33zM217 70c71 0 88 150 88 208c0 45 -10 171 -81 171c-73 0 -90 -133 -90 -188c0 -48 13 -191 83 -191z" />
    <glyph glyph-name="otilde" unicode="&#xf5;" horiz-adv-x="399" 
d="M212 0c-136 0 -174 175 -174 270c0 123 63 250 198 250c117 0 163 -142 163 -251c0 -130 -66 -269 -187 -269zM258 551c-48 0 -70 23 -99 58c-14 -29 -13 -58 -58 -58c-24 0 -49 9 -49 42c0 52 60 89 115 89c42 0 63 -21 92 -56c16 27 24 53 61 53c20 0 52 -8 52 -35
l-2 -9c-21 -48 -54 -84 -112 -84zM217 70c71 0 88 150 88 208c0 45 -10 171 -81 171c-73 0 -90 -133 -90 -188c0 -48 13 -191 83 -191z" />
    <glyph glyph-name="odieresis" unicode="&#xf6;" horiz-adv-x="399" 
d="M212 0c-136 0 -174 175 -174 270c0 123 63 250 198 250c117 0 163 -142 163 -251c0 -130 -66 -269 -187 -269zM217 70c71 0 88 150 88 208c0 45 -10 171 -81 171c-73 0 -90 -133 -90 -188c0 -48 13 -191 83 -191zM136 592c-26 0 -63 14 -63 44s39 44 64 44s63 -14 63 -44
c0 -31 -40 -44 -64 -44zM270 592c-26 0 -63 14 -63 44s39 44 63 44c25 0 64 -15 64 -45s-40 -43 -64 -43z" />
    <glyph glyph-name="divide" unicode="&#xf7;" horiz-adv-x="324" 
d="M180 194c-25 0 -63 13 -63 43s38 45 63 45s63 -15 63 -45c0 -31 -38 -43 -63 -43zM180 419c-25 0 -63 13 -63 43c0 31 38 45 63 45s63 -15 63 -45c0 -31 -38 -43 -63 -43zM88 310c-24 0 -50 13 -50 35c0 10 6 19 12 23c27 16 208 19 223 20c21 0 51 -10 51 -35
c0 -10 -5 -19 -12 -23c-27 -15 -210 -20 -224 -20z" />
    <glyph glyph-name="oslash" unicode="&#xf8;" horiz-adv-x="398" 
d="M194 0c-21 0 -36 3 -49 10c-11 -9 -27 -10 -37 -10c-19 0 -53 5 -53 26l25 55c-30 55 -42 119 -42 178c0 97 31 204 120 243c17 8 47 18 72 18c10 0 32 -1 52 -10c7 18 33 23 50 23c16 0 49 -5 49 -27l-29 -60c32 -55 46 -117 46 -178c0 -130 -63 -268 -204 -268z
M137 206c37 80 74 160 113 239c-7 3 -14 4 -21 4c-78 0 -95 -133 -95 -193zM219 71c72 20 87 143 87 204c0 22 -2 44 -5 65l-119 -258c9 -9 21 -12 33 -12z" />
    <glyph glyph-name="ugrave" unicode="&#xf9;" horiz-adv-x="407" 
d="M350 1c-16 0 -41 4 -43 31c-26 -21 -57 -31 -95 -31c-162 0 -174 186 -174 306c0 62 3 120 3 126c4 75 32 85 53 85c24 0 48 -12 48 -67c0 -25 -5 -78 -5 -178c0 -3 0 -204 75 -204c76 0 89 210 89 296l-1 77c0 72 37 77 53 77c25 0 54 -11 54 -34l-2 -450
c0 -23 -30 -34 -55 -34zM227 543c-11 0 -23 3 -34 10l-108 67c-8 5 -14 14 -14 24c0 22 29 34 49 34c26 0 116 -57 136 -72c15 -11 21 -19 21 -29c0 -23 -29 -34 -50 -34z" />
    <glyph glyph-name="uacute" unicode="&#xfa;" horiz-adv-x="407" 
d="M350 1c-16 0 -41 4 -43 31c-26 -21 -57 -31 -95 -31c-162 0 -174 186 -174 306c0 62 3 120 3 126c4 75 32 85 53 85c24 0 48 -12 48 -67c0 -25 -5 -78 -5 -178c0 -3 0 -204 75 -204c76 0 89 210 89 296l-1 77c0 72 37 77 53 77c25 0 54 -11 54 -34l-2 -450
c0 -23 -30 -34 -55 -34zM169 546c-20 0 -51 9 -51 32c0 11 7 20 21 31c27 20 69 41 95 57c19 12 29 15 40 15c21 0 51 -11 51 -34c0 -10 -6 -19 -37 -38l-64 -40c-32 -20 -44 -23 -55 -23z" />
    <glyph glyph-name="ucircumflex" unicode="&#xfb;" horiz-adv-x="407" 
d="M350 1c-16 0 -41 4 -43 31c-26 -21 -57 -31 -95 -31c-162 0 -174 186 -174 306c0 62 3 120 3 126c4 75 32 85 53 85c24 0 48 -12 48 -67c0 -25 -5 -78 -5 -178c0 -3 0 -204 75 -204c76 0 89 210 89 296l-1 77c0 72 37 77 53 77c25 0 54 -11 54 -34l-2 -450
c0 -23 -30 -34 -55 -34zM296 545c-35 0 -65 34 -88 52c-25 -18 -53 -51 -85 -51c-18 0 -52 10 -52 28c0 33 103 107 147 107c36 0 81 -51 106 -71c14 -12 20 -21 20 -32c0 -24 -30 -33 -48 -33z" />
    <glyph glyph-name="udieresis" unicode="&#xfc;" horiz-adv-x="407" 
d="M350 1c-16 0 -41 4 -43 31c-26 -21 -57 -31 -95 -31c-162 0 -174 186 -174 306c0 62 3 120 3 126c4 75 32 85 53 85c24 0 48 -12 48 -67c0 -25 -5 -78 -5 -178c0 -3 0 -204 75 -204c76 0 89 210 89 296l-1 77c0 72 37 77 53 77c25 0 54 -11 54 -34l-2 -450
c0 -23 -30 -34 -55 -34zM138 591c-25 0 -63 13 -63 43s39 45 64 45c24 0 63 -14 63 -45c0 -30 -39 -43 -64 -43zM272 591c-25 0 -63 13 -63 43s39 45 63 45c25 0 64 -15 64 -45s-39 -43 -64 -43z" />
    <glyph glyph-name="yacute" unicode="&#xfd;" horiz-adv-x="454" 
d="M242 -322c-96 0 -200 74 -200 171c0 78 66 138 134 138c50 0 124 -32 124 -98c0 -37 -24 -85 -67 -85c-20 0 -51 11 -51 33c0 17 20 27 20 53c0 16 -9 29 -25 29c-28 0 -38 -35 -38 -61c0 -55 43 -106 99 -106c114 0 118 234 118 323v41c-52 -45 -123 -80 -189 -80
c-107 0 -129 96 -129 184c0 77 17 199 41 253c17 38 39 44 53 44c15 0 41 -7 41 -52c0 -14 -2 -31 -8 -52c-5 -18 -32 -113 -32 -226c0 -4 0 -83 57 -83c34 0 84 28 114 70c16 23 44 77 44 110l-16 202c0 20 35 30 54 30c18 0 42 -10 56 -151c0 0 12 -117 12 -245
c0 -127 -12 -442 -212 -442zM185 546c-19 0 -51 9 -51 32c0 11 7 20 21 31c20 15 111 72 136 72c20 0 50 -11 50 -34c0 -10 -6 -19 -14 -24l-109 -68c-10 -6 -22 -9 -33 -9z" />
    <glyph glyph-name="thorn" unicode="&#xfe;" horiz-adv-x="428" 
d="M87 -217c-20 0 -49 12 -49 34l1 869c0 23 32 34 51 34s49 -11 49 -34l3 -244c30 47 78 79 131 79c125 0 155 -184 155 -291c0 -106 -29 -236 -175 -236c-44 0 -84 12 -116 39l-1 -216c0 -23 -31 -34 -49 -34zM259 61c61 0 63 119 63 141c0 56 -16 243 -66 243
c-49 0 -103 -176 -103 -225c0 -46 47 -159 106 -159z" />
    <glyph glyph-name="ydieresis" unicode="&#xff;" horiz-adv-x="454" 
d="M242 -322c-96 0 -200 74 -200 171c0 78 66 138 134 138c50 0 124 -32 124 -98c0 -37 -24 -85 -67 -85c-20 0 -51 11 -51 33c0 17 20 27 20 53c0 16 -9 29 -25 29c-28 0 -38 -35 -38 -61c0 -55 43 -106 99 -106c114 0 118 234 118 323v41c-52 -45 -123 -80 -189 -80
c-107 0 -129 96 -129 184c0 77 17 199 41 253c17 38 39 44 53 44c15 0 41 -7 41 -52c0 -14 -2 -31 -8 -52c-5 -18 -32 -113 -32 -226c0 -4 0 -83 57 -83c34 0 84 28 114 70c16 23 44 77 44 110l-16 202c0 20 35 30 54 30c18 0 42 -10 56 -151c0 0 12 -117 12 -245
c0 -127 -12 -442 -212 -442zM155 543c-25 0 -63 13 -63 43c0 31 38 45 63 45s63 -15 63 -45c0 -31 -38 -43 -63 -43zM289 543c-25 0 -63 13 -63 43c0 31 38 45 63 45s63 -15 63 -45c0 -31 -38 -43 -63 -43z" />
    <glyph glyph-name="Amacron" unicode="&#x100;" horiz-adv-x="640" 
d="M88 0c-23 0 -50 12 -50 20c0 20 191 568 210 617c16 39 33 76 80 76c74 0 119 -106 141 -160c51 -124 93 -249 114 -326c18 -67 57 -190 57 -203c0 -11 -29 -23 -50 -23c-17 0 -38 8 -50 30c-15 27 -31 104 -43 142h-309c-17 -49 -32 -101 -45 -128
c-18 -39 -39 -45 -55 -45zM477 241c-35 124 -75 253 -138 366c-46 -121 -87 -244 -128 -366h266zM239 806c-19 0 -43 14 -43 35c0 23 30 32 49 33l195 10c19 0 43 -15 43 -36c0 -24 -29 -31 -49 -32z" />
    <glyph glyph-name="amacron" unicode="&#x101;" horiz-adv-x="431" 
d="M378 0c-19 0 -48 9 -48 34v76c-41 -56 -104 -110 -166 -110c-106 0 -126 153 -126 225c0 108 46 294 183 294c39 0 83 -15 111 -38c0 28 24 39 47 39c21 0 52 -9 52 -34l-3 -298c0 -49 3 -96 3 -115c0 -61 -30 -73 -53 -73zM182 72c55 0 145 180 145 285
c0 23 -4 96 -75 96c-105 0 -121 -165 -121 -220c0 -32 5 -161 51 -161zM134 576c-19 0 -43 14 -43 35c0 23 30 32 49 33l195 10c19 0 43 -15 43 -36c0 -24 -29 -31 -49 -32z" />
    <glyph glyph-name="Abreve" unicode="&#x102;" horiz-adv-x="640" 
d="M88 0c-23 0 -50 12 -50 20c0 20 191 568 210 617c16 39 33 76 80 76c74 0 119 -106 141 -160c51 -124 93 -249 114 -326c18 -67 57 -190 57 -203c0 -11 -29 -23 -50 -23c-17 0 -38 8 -50 30c-15 27 -31 104 -43 142h-309c-17 -49 -32 -101 -45 -128
c-18 -39 -39 -45 -55 -45zM477 241c-35 124 -75 253 -138 366c-46 -121 -87 -244 -128 -366h266zM329 770c-74 0 -107 45 -108 122c3 7 7 17 15 17c9 0 16 -13 21 -27c10 -33 28 -35 46 -35c29 0 119 5 127 43c3 5 9 11 15 11c5 0 10 -5 12 -9c-2 -73 -51 -122 -128 -122z
" />
    <glyph glyph-name="abreve" unicode="&#x103;" horiz-adv-x="431" 
d="M378 0c-19 0 -48 9 -48 34v76c-41 -56 -104 -110 -166 -110c-106 0 -126 153 -126 225c0 108 46 294 183 294c39 0 83 -15 111 -38c0 28 24 39 47 39c21 0 52 -9 52 -34l-3 -298c0 -49 3 -96 3 -115c0 -61 -30 -73 -53 -73zM225 540c-74 0 -107 45 -108 122
c3 7 7 17 15 17c9 0 16 -13 18 -20l5 -17c10 -24 42 -25 58 -25c28 0 106 8 113 43c3 5 9 11 15 11c5 0 10 -5 12 -9c-2 -73 -51 -122 -128 -122zM182 72c55 0 145 180 145 285c0 23 -4 96 -75 96c-105 0 -121 -165 -121 -220c0 -32 5 -161 51 -161z" />
    <glyph glyph-name="Aogonek" unicode="&#x104;" horiz-adv-x="640" 
d="M568 6c-10 2 -21 11 -30 29c-16 32 -27 94 -41 138h-309c-16 -48 -32 -102 -45 -129c-18 -38 -39 -44 -55 -44c-23 0 -50 12 -50 20c0 20 191 567 210 616c6 14 24 56 44 69c9 5 24 8 37 8c49 0 79 -41 104 -86c67 -119 126 -311 148 -392c20 -75 59 -198 59 -211
c0 -16 -39 -23 -51 -23c-19 -20 -34 -46 -34 -69c0 -21 13 -37 31 -37s34 14 44 14c7 0 8 -7 8 -11c0 -32 -42 -55 -72 -55c-26 0 -64 17 -64 59c0 37 30 79 66 104zM477 241c-29 100 -86 280 -138 366c-46 -121 -87 -244 -128 -366h266z" />
    <glyph glyph-name="aogonek" unicode="&#x105;" horiz-adv-x="431" 
d="M381 0c-18 -20 -33 -45 -33 -69c0 -21 12 -36 30 -36c19 0 35 14 44 14c7 0 9 -8 9 -14c0 -29 -42 -52 -72 -52c-26 0 -64 17 -64 60c0 36 28 74 62 100c-14 6 -27 14 -27 31v76c-41 -56 -104 -110 -166 -110c-105 0 -126 153 -126 225c0 108 46 294 185 294
c39 0 80 -14 109 -38c0 28 24 39 47 39c21 0 52 -9 52 -34l-3 -298c0 -49 3 -96 3 -115c0 -60 -29 -73 -50 -73zM183 72c54 0 144 180 144 286c0 23 -4 95 -74 95c-106 0 -122 -165 -122 -219c0 -33 6 -162 52 -162z" />
    <glyph glyph-name="Cacute" unicode="&#x106;" horiz-adv-x="478" 
d="M159 -1c-109 0 -121 88 -121 153c0 153 68 564 240 564c75 0 135 -79 169 -136c10 -16 21 -34 27 -50l3 -12c0 -23 -32 -33 -51 -33c-17 0 -38 8 -50 30c-15 28 -44 124 -90 124c-34 0 -60 -56 -66 -69c-53 -118 -86 -277 -86 -410c0 -9 0 -89 56 -89c48 0 120 58 154 94
c20 21 30 38 40 48c13 14 30 19 45 19c20 0 49 -10 49 -29c0 -28 -61 -79 -68 -86c-72 -61 -164 -118 -251 -118zM239 776c-20 0 -50 9 -50 31c0 10 7 23 14 27l110 67c11 7 20 10 31 10c22 0 52 -11 52 -33c0 -10 -6 -20 -35 -38l-72 -46c-26 -15 -38 -18 -50 -18z" />
    <glyph glyph-name="cacute" unicode="&#x107;" horiz-adv-x="388" 
d="M159 0c-101 0 -121 82 -121 148c0 99 46 291 124 346c21 14 51 24 77 24c57 0 130 -50 147 -108l2 -10c0 -24 -32 -33 -54 -33c-57 0 -37 58 -83 80c-72 0 -115 -243 -115 -312c0 -15 2 -69 35 -69c12 0 33 7 44 11c45 19 68 60 68 108l-1 22c0 25 33 34 54 34
c33 0 46 -20 46 -54c0 -114 -119 -187 -223 -187zM194 546c-20 0 -50 9 -50 31c0 10 7 23 14 27l110 67c11 7 20 10 31 10c22 0 52 -11 52 -33c0 -10 -6 -20 -35 -38l-72 -46c-26 -15 -38 -18 -50 -18z" />
    <glyph glyph-name="Ccircumflex" unicode="&#x108;" horiz-adv-x="478" 
d="M159 -1c-109 0 -121 88 -121 153c0 153 68 564 240 564c75 0 135 -79 169 -136c10 -16 21 -34 27 -50l3 -12c0 -23 -32 -33 -51 -33c-17 0 -38 8 -50 30c-15 28 -44 124 -90 124c-34 0 -60 -56 -66 -69c-53 -118 -86 -277 -86 -410c0 -9 0 -89 56 -89c48 0 120 58 154 94
c20 21 30 38 40 48c13 14 30 19 45 19c20 0 49 -10 49 -29c0 -28 -61 -79 -68 -86c-72 -61 -164 -118 -251 -118zM346 775c-33 0 -64 35 -87 52c-26 -18 -53 -51 -86 -51c-18 0 -51 10 -51 28c0 32 103 107 143 107c33 0 130 -79 130 -107c0 -19 -31 -29 -49 -29z" />
    <glyph glyph-name="ccircumflex" unicode="&#x109;" horiz-adv-x="388" 
d="M159 0c-101 0 -121 82 -121 148c0 99 46 291 124 346c21 14 51 24 77 24c57 0 130 -50 147 -108l2 -10c0 -24 -32 -33 -54 -33c-57 0 -37 58 -83 80c-72 0 -115 -243 -115 -312c0 -15 2 -69 35 -69c12 0 33 7 44 11c45 19 68 60 68 108l-1 22c0 25 33 34 54 34
c33 0 46 -20 46 -54c0 -114 -119 -187 -223 -187zM301 545c-33 0 -64 35 -87 52c-26 -18 -53 -51 -86 -51c-18 0 -51 10 -51 28c0 32 103 107 143 107c33 0 130 -79 130 -107c0 -19 -31 -29 -49 -29z" />
    <glyph glyph-name="Cdotaccent" unicode="&#x10a;" horiz-adv-x="478" 
d="M159 -1c-109 0 -121 88 -121 153c0 153 68 564 240 564c75 0 135 -79 169 -136c10 -16 21 -34 27 -50l3 -12c0 -23 -32 -33 -51 -33c-17 0 -38 8 -50 30c-15 28 -44 124 -90 124c-34 0 -60 -56 -66 -69c-53 -118 -86 -277 -86 -410c0 -9 0 -89 56 -89c48 0 120 58 154 94
c20 21 30 38 40 48c13 14 30 19 45 19c20 0 49 -10 49 -29c0 -28 -61 -79 -68 -86c-72 -61 -164 -118 -251 -118zM257 804c-25 0 -62 14 -62 43c0 30 40 45 64 45s63 -15 63 -44c0 -30 -40 -44 -65 -44z" />
    <glyph glyph-name="cdotaccent" unicode="&#x10b;" horiz-adv-x="388" 
d="M159 0c-101 0 -121 82 -121 148c0 99 46 291 124 346c21 14 51 24 77 24c57 0 130 -50 147 -108l2 -10c0 -24 -32 -33 -54 -33c-57 0 -37 58 -83 80c-72 0 -115 -243 -115 -312c0 -15 2 -69 35 -69c12 0 33 7 44 11c45 19 68 60 68 108l-1 22c0 25 33 34 54 34
c33 0 46 -20 46 -54c0 -114 -119 -187 -223 -187zM212 574c-25 0 -62 14 -62 43c0 30 40 45 64 45s63 -15 63 -44c0 -30 -40 -44 -65 -44z" />
    <glyph glyph-name="Ccaron" unicode="&#x10c;" horiz-adv-x="478" 
d="M159 -1c-109 0 -121 88 -121 153c0 153 68 564 240 564c75 0 135 -79 169 -136c10 -16 21 -34 27 -50l3 -12c0 -23 -32 -33 -51 -33c-17 0 -38 8 -50 30c-15 28 -44 124 -90 124c-34 0 -60 -56 -66 -69c-53 -118 -86 -277 -86 -410c0 -9 0 -89 56 -89c48 0 120 58 154 94
c20 21 30 38 40 48c13 14 30 19 45 19c20 0 49 -10 49 -29c0 -28 -61 -79 -68 -86c-72 -61 -164 -118 -251 -118zM345 910c18 0 48 -9 48 -33c0 -11 -6 -20 -13 -26l-67 -55c-14 -11 -37 -22 -51 -22c-38 0 -142 73 -142 106c0 19 34 29 52 29c32 0 60 -33 85 -51
c23 18 53 52 88 52z" />
    <glyph glyph-name="ccaron" unicode="&#x10d;" horiz-adv-x="388" 
d="M159 0c-101 0 -121 82 -121 148c0 99 46 291 124 346c21 14 51 24 77 24c57 0 130 -50 147 -108l2 -10c0 -24 -32 -33 -54 -33c-57 0 -37 58 -83 80c-72 0 -115 -243 -115 -312c0 -15 2 -69 35 -69c12 0 33 7 44 11c45 19 68 60 68 108l-1 22c0 25 33 34 54 34
c33 0 46 -20 46 -54c0 -114 -119 -187 -223 -187zM300 680c18 0 48 -9 48 -33c0 -11 -6 -20 -13 -26l-67 -55c-14 -11 -37 -22 -51 -22c-38 0 -142 73 -142 106c0 19 34 29 52 29c32 0 60 -33 85 -51c23 18 53 52 88 52z" />
    <glyph glyph-name="Dcaron" unicode="&#x10e;" horiz-adv-x="472" 
d="M92 -2c-26 0 -54 11 -54 34l1 647c0 23 29 35 50 35c17 0 43 -9 48 -28c34 16 71 24 116 24c17 0 34 -1 50 -6c127 -35 169 -273 169 -397c0 -126 -43 -306 -200 -306c-55 0 -98 22 -136 50c0 -36 -11 -53 -44 -53zM268 69c97 0 112 177 112 242c0 89 -28 324 -129 324
c-48 0 -114 -54 -114 -91v-375c19 -37 76 -100 121 -100h10zM342 910c18 0 48 -9 48 -33c0 -11 -6 -20 -13 -26l-67 -55c-14 -11 -37 -22 -51 -22c-38 0 -142 73 -142 106c0 19 34 29 52 29c32 0 60 -33 85 -51c23 18 53 52 88 52z" />
    <glyph glyph-name="dcaron" unicode="&#x10f;" horiz-adv-x="582" 
d="M377 1c-14 0 -41 5 -41 27v81c-41 -55 -106 -108 -167 -108c-107 0 -131 164 -131 240c0 111 51 278 192 278c37 0 82 -11 106 -40l2 207c0 25 30 34 49 34c20 0 49 -11 49 -34l-2 -658c0 -20 -40 -27 -57 -27zM484 591c-7 0 -29 1 -29 17c0 23 42 22 59 33
c-21 1 -65 8 -65 36c0 30 46 41 70 41c31 0 63 -16 63 -50c0 -43 -54 -77 -98 -77zM189 75c18 0 35 16 43 24c53 49 99 134 99 196c0 60 -44 152 -104 152c-78 0 -94 -158 -94 -218c0 -40 7 -154 56 -154z" />
    <glyph glyph-name="Dcroat" unicode="&#x110;" horiz-adv-x="513" 
d="M134 -2c-26 0 -54 12 -54 34v286l-9 -1c-20 0 -33 12 -33 34c0 29 18 36 43 36v292c0 23 29 35 50 35c18 0 41 -9 48 -28c34 16 71 24 115 24c17 0 34 -1 51 -6c127 -36 168 -273 168 -398c0 -126 -41 -305 -200 -305c-55 0 -98 22 -135 50c0 -36 -11 -53 -44 -53z
M311 69c97 0 110 177 110 240c0 90 -27 326 -129 326c-48 0 -113 -53 -113 -91v-154l105 4c16 0 26 -20 26 -35s-10 -34 -27 -34l-104 -3v-153c23 -44 78 -100 132 -100z" />
    <glyph glyph-name="dcroat" unicode="&#x111;" horiz-adv-x="466" 
d="M434 28c0 -20 -40 -27 -56 -27c-15 0 -42 6 -42 27v81c-41 -56 -105 -108 -166 -108c-108 0 -132 164 -132 240c0 111 51 278 193 278c36 0 81 -11 105 -40l1 58l-228 -6c-19 0 -35 17 -35 35c0 20 19 34 37 34l226 6l1 80c0 25 30 34 49 34c21 0 49 -11 49 -34v-79
c14 -2 30 -20 30 -36s-14 -26 -30 -31zM190 75c18 0 33 16 42 24c53 51 99 133 99 195c0 61 -44 153 -104 153c-78 0 -94 -158 -94 -219c0 -39 7 -153 57 -153z" />
    <glyph glyph-name="Emacron" unicode="&#x112;" horiz-adv-x="459" 
d="M131 1c-33 0 -63 11 -63 111c0 48 7 167 7 306c0 58 -1 135 -4 213c-15 4 -33 16 -33 34c0 20 24 29 40 32c11 11 26 17 45 17c12 0 25 -3 36 -14c77 5 155 13 199 13c53 0 80 -11 80 -34c0 -11 -7 -20 -15 -25c-10 -6 -23 -9 -63 -10c-45 -1 -118 -6 -191 -11l-1 -129
l217 4c19 0 48 -12 48 -34c0 -23 -31 -34 -49 -34l-216 -4c-3 -84 -5 -168 -5 -237l2 -125c79 15 164 36 222 36c42 0 72 -11 72 -34c0 -11 -7 -20 -15 -25c-10 -6 -23 -9 -54 -11c-35 -3 -87 -9 -143 -20c-38 -8 -84 -19 -116 -19zM148 806c-19 0 -43 14 -43 35
c0 23 30 32 49 33l195 10c19 0 43 -15 43 -36c0 -24 -29 -31 -49 -32z" />
    <glyph glyph-name="emacron" unicode="&#x113;" 
d="M214 0c-93 0 -176 60 -176 178c0 114 78 340 212 340c76 0 162 -73 162 -157c0 -128 -169 -156 -267 -156c0 -50 6 -139 73 -139c51 0 106 53 106 100l-1 17c2 21 33 32 53 32c19 0 38 -10 38 -46c0 -73 -81 -169 -200 -169zM201 270c55 0 116 25 116 87
c0 37 -22 94 -56 94c-51 0 -106 -136 -106 -175v-3c14 -1 30 -3 46 -3zM126 576c-19 0 -43 14 -43 35c0 23 30 32 49 33l195 10c19 0 43 -15 43 -36c0 -24 -29 -31 -49 -32z" />
    <glyph glyph-name="Ebreve" unicode="&#x114;" horiz-adv-x="459" 
d="M131 1c-33 0 -63 11 -63 111c0 48 7 167 7 306c0 58 -1 135 -4 213c-15 4 -33 16 -33 34c0 20 24 29 40 32c11 11 26 17 45 17c12 0 25 -3 36 -14c77 5 155 13 199 13c53 0 80 -11 80 -34c0 -11 -7 -20 -15 -25c-10 -6 -23 -9 -63 -10c-45 -1 -118 -6 -191 -11l-1 -129
l217 4c19 0 48 -12 48 -34c0 -23 -31 -34 -49 -34l-216 -4c-3 -84 -5 -168 -5 -237l2 -125c79 15 164 36 222 36c42 0 72 -11 72 -34c0 -11 -7 -20 -15 -25c-10 -6 -23 -9 -54 -11c-35 -3 -87 -9 -143 -20c-38 -8 -84 -19 -116 -19zM239 770c-74 0 -107 45 -108 122
c3 7 7 17 15 17c9 0 16 -13 18 -20l5 -17c10 -24 42 -25 58 -25c28 0 106 8 113 43c3 5 9 11 15 11c5 0 10 -5 12 -9c-2 -73 -51 -122 -128 -122z" />
    <glyph glyph-name="ebreve" unicode="&#x115;" 
d="M214 0c119 0 200 96 200 169c0 36 -19 46 -38 46c-20 0 -51 -11 -53 -32l1 -17c0 -47 -55 -100 -106 -100c-67 0 -73 89 -73 139c98 0 267 28 267 156c0 84 -86 157 -162 157c-134 0 -212 -226 -212 -340c0 -118 83 -178 176 -178zM216 540c77 0 126 49 128 122
c-2 4 -7 9 -12 9c-6 0 -12 -6 -15 -11c-8 -38 -98 -43 -127 -43c-18 0 -36 2 -46 35c-5 14 -12 27 -21 27c-8 0 -12 -10 -15 -17c1 -77 34 -122 108 -122zM201 270c-16 0 -32 2 -46 3v3c0 39 55 175 106 175c34 0 56 -57 56 -94c0 -62 -61 -87 -116 -87z" />
    <glyph glyph-name="Edotaccent" unicode="&#x116;" horiz-adv-x="459" 
d="M131 1c-33 0 -63 11 -63 111c0 48 7 167 7 306c0 58 -1 135 -4 213c-15 4 -33 16 -33 34c0 20 24 29 40 32c11 11 26 17 45 17c12 0 25 -3 36 -14c77 5 155 13 199 13c53 0 80 -11 80 -34c0 -11 -7 -20 -15 -25c-10 -6 -23 -9 -63 -10c-45 -1 -118 -6 -191 -11l-1 -129
l217 4c19 0 48 -12 48 -34c0 -23 -31 -34 -49 -34l-216 -4c-3 -84 -5 -168 -5 -237l2 -125c79 15 164 36 222 36c42 0 72 -11 72 -34c0 -11 -7 -20 -15 -25c-10 -6 -23 -9 -54 -11c-35 -3 -87 -9 -143 -20c-38 -8 -84 -19 -116 -19zM247 804c-25 0 -62 14 -62 43
c0 30 40 45 64 45s63 -15 63 -44c0 -30 -40 -44 -65 -44z" />
    <glyph glyph-name="edotaccent" unicode="&#x117;" 
d="M214 0c-93 0 -176 60 -176 178c0 114 78 340 212 340c76 0 162 -73 162 -157c0 -128 -169 -156 -267 -156c0 -50 6 -139 73 -139c51 0 106 53 106 100l-1 17c2 21 33 32 53 32c19 0 38 -10 38 -46c0 -73 -81 -169 -200 -169zM201 270c55 0 116 25 116 87
c0 37 -22 94 -56 94c-51 0 -106 -136 -106 -175v-3c14 -1 30 -3 46 -3zM225 574c-25 0 -62 14 -62 43c0 30 40 45 64 45s63 -15 63 -44c0 -30 -40 -44 -65 -44z" />
    <glyph glyph-name="Eogonek" unicode="&#x118;" horiz-adv-x="466" 
d="M383 40c-45 -4 -90 -11 -140 -21c-35 -7 -79 -18 -113 -18c-33 0 -62 10 -62 110c0 49 7 168 7 307c0 58 -1 135 -4 213c-15 4 -33 16 -33 33c0 20 24 31 40 33c11 11 26 17 45 17c12 0 25 -3 36 -14c77 5 155 13 198 13c54 0 81 -11 81 -34c0 -11 -7 -20 -15 -25
c-10 -6 -23 -9 -63 -10c-45 -1 -118 -6 -191 -11l-1 -129l172 4c64 0 93 -12 93 -34c0 -24 -30 -34 -49 -34l-216 -4c-2 -84 -5 -168 -5 -241l2 -121c79 15 164 36 222 36c42 0 72 -11 72 -35c0 -22 -26 -31 -44 -34c-18 -19 -32 -44 -32 -67c0 -21 12 -36 30 -36
s35 14 44 14c7 0 9 -8 9 -14c0 -29 -42 -52 -72 -52c-26 0 -64 17 -64 61c0 34 23 64 53 93z" />
    <glyph glyph-name="eogonek" unicode="&#x119;" 
d="M242 0c-115 0 -204 56 -204 180c0 112 77 338 212 338c76 0 162 -73 162 -157c0 -127 -170 -156 -267 -156c0 -50 6 -139 73 -139c51 0 106 53 106 101l-1 15c0 22 34 33 54 33c18 0 37 -10 37 -47c0 -67 -62 -141 -139 -163c-20 -21 -37 -48 -37 -74
c0 -21 12 -36 30 -36s33 14 43 14c8 0 10 -8 10 -14c0 -28 -42 -52 -73 -52c-26 0 -63 16 -63 58c0 35 25 74 57 99zM201 270c55 0 116 25 116 87c0 37 -22 94 -56 94c-51 0 -106 -136 -106 -175v-3c14 -1 30 -3 46 -3z" />
    <glyph glyph-name="Ecaron" unicode="&#x11a;" horiz-adv-x="459" 
d="M131 1c-33 0 -63 11 -63 111c0 48 7 167 7 306c0 58 -1 135 -4 213c-15 4 -33 16 -33 34c0 20 24 29 40 32c11 11 26 17 45 17c12 0 25 -3 36 -14c77 5 155 13 199 13c53 0 80 -11 80 -34c0 -11 -7 -20 -15 -25c-10 -6 -23 -9 -63 -10c-45 -1 -118 -6 -191 -11l-1 -129
l217 4c19 0 48 -12 48 -34c0 -23 -31 -34 -49 -34l-216 -4c-3 -84 -5 -168 -5 -237l2 -125c79 15 164 36 222 36c42 0 72 -11 72 -34c0 -11 -7 -20 -15 -25c-10 -6 -23 -9 -54 -11c-35 -3 -87 -9 -143 -20c-38 -8 -84 -19 -116 -19zM337 910c18 0 48 -9 48 -33
c0 -11 -6 -20 -13 -26l-67 -55c-14 -11 -37 -22 -51 -22c-38 0 -142 73 -142 106c0 19 34 29 52 29c32 0 60 -33 85 -51c23 18 53 52 88 52z" />
    <glyph glyph-name="ecaron" unicode="&#x11b;" 
d="M214 0c-93 0 -176 60 -176 178c0 114 78 340 212 340c76 0 162 -73 162 -157c0 -128 -169 -156 -267 -156c0 -50 6 -139 73 -139c51 0 106 53 106 100l-1 17c2 21 33 32 53 32c19 0 38 -10 38 -46c0 -73 -81 -169 -200 -169zM315 680c18 0 48 -9 48 -33
c0 -11 -6 -20 -13 -26l-67 -55c-14 -11 -37 -22 -51 -22c-38 0 -142 73 -142 106c0 19 34 29 52 29c32 0 60 -33 85 -51c23 18 53 52 88 52zM201 270c55 0 116 25 116 87c0 37 -22 94 -56 94c-51 0 -106 -136 -106 -175v-3c14 -1 30 -3 46 -3z" />
    <glyph glyph-name="Gcircumflex" unicode="&#x11c;" horiz-adv-x="486" 
d="M160 0c-110 0 -122 160 -122 230c0 158 62 483 253 483c57 0 98 -28 131 -83c5 -9 22 -38 22 -56c0 -24 -29 -36 -49 -36c-16 0 -41 7 -49 32c-5 15 -17 76 -49 76l-7 -1c-132 -45 -164 -285 -164 -395c0 -36 4 -174 60 -174c68 0 140 194 157 263l-99 -6
c-19 0 -46 13 -46 35c0 23 31 32 50 33l94 7c33 2 66 6 84 6c34 0 60 -13 60 -34c0 -17 -17 -26 -30 -31c0 -67 3 -139 3 -197c0 -29 -1 -55 -3 -75c-8 -67 -32 -75 -51 -75c-22 0 -52 11 -52 32l3 121c-37 -65 -113 -155 -196 -155zM350 775c-33 0 -64 35 -87 52
c-26 -18 -53 -51 -86 -51c-18 0 -51 10 -51 28c0 32 103 107 143 107c33 0 130 -79 130 -107c0 -19 -31 -29 -49 -29z" />
    <glyph glyph-name="gcircumflex" unicode="&#x11d;" horiz-adv-x="423" 
d="M233 -296c-96 0 -192 68 -192 170c0 78 58 130 138 130c62 0 116 -31 116 -97c0 -46 -25 -88 -68 -88c-23 0 -58 12 -58 37s39 21 39 51c0 11 -5 33 -27 33c-28 0 -48 -39 -48 -76c0 -56 46 -95 86 -95c102 0 110 251 110 309v22c-47 -40 -111 -70 -171 -70
c-79 0 -120 53 -120 139c0 87 41 349 179 349c24 0 47 -8 70 -22c12 15 29 22 49 22c23 0 42 -9 57 -68c20 -82 30 -246 30 -358s-10 -388 -190 -388zM318 545c-33 0 -64 35 -87 52c-26 -18 -53 -51 -86 -51c-18 0 -51 10 -51 28c0 32 103 107 143 107
c33 0 130 -79 130 -107c0 -19 -31 -29 -49 -29zM171 97c74 0 141 94 141 164c0 45 -27 183 -79 183c-69 0 -102 -236 -102 -305v-2c0 -13 1 -40 40 -40z" />
    <glyph glyph-name="Gbreve" unicode="&#x11e;" horiz-adv-x="486" 
d="M160 0c-110 0 -122 160 -122 230c0 158 62 483 253 483c57 0 98 -28 131 -83c5 -9 22 -38 22 -56c0 -24 -29 -36 -49 -36c-16 0 -41 7 -49 32c-5 15 -17 76 -49 76l-7 -1c-132 -45 -164 -285 -164 -395c0 -36 4 -174 60 -174c68 0 140 194 157 263l-99 -6
c-19 0 -46 13 -46 35c0 23 31 32 50 33l94 7c33 2 66 6 84 6c34 0 60 -13 60 -34c0 -17 -17 -26 -30 -31c0 -67 3 -139 3 -197c0 -29 -1 -55 -3 -75c-8 -67 -32 -75 -51 -75c-22 0 -52 11 -52 32l3 121c-37 -65 -113 -155 -196 -155zM252 770c-74 0 -107 45 -108 122
c3 7 7 17 15 17c9 0 16 -13 21 -27c10 -33 28 -35 46 -35c29 0 119 5 127 43c3 5 9 11 15 11c5 0 10 -5 12 -9c-2 -73 -51 -122 -128 -122z" />
    <glyph glyph-name="gbreve" unicode="&#x11f;" horiz-adv-x="423" 
d="M233 -296c-96 0 -192 68 -192 170c0 78 58 130 138 130c62 0 116 -31 116 -97c0 -46 -25 -88 -68 -88c-23 0 -58 12 -58 37s39 21 39 51c0 11 -5 33 -27 33c-28 0 -48 -39 -48 -76c0 -56 46 -95 86 -95c102 0 110 251 110 309v22c-47 -40 -111 -70 -171 -70
c-79 0 -120 53 -120 139c0 87 41 349 179 349c24 0 47 -8 70 -22c12 15 29 22 49 22c23 0 42 -9 57 -68c20 -82 30 -246 30 -358s-10 -388 -190 -388zM221 540c-74 0 -107 45 -108 122c3 7 7 17 15 17c9 0 16 -13 18 -20l5 -17c10 -24 42 -25 58 -25c28 0 106 8 113 43
c3 5 9 11 15 11c5 0 10 -5 12 -9c-2 -73 -51 -122 -128 -122zM171 97c74 0 141 94 141 164c0 45 -27 183 -79 183c-69 0 -102 -236 -102 -305v-2c0 -13 1 -40 40 -40z" />
    <glyph glyph-name="Gdotaccent" unicode="&#x120;" horiz-adv-x="486" 
d="M160 0c-110 0 -122 160 -122 230c0 158 62 483 253 483c57 0 98 -28 131 -83c5 -9 22 -38 22 -56c0 -24 -29 -36 -49 -36c-16 0 -41 7 -49 32c-5 15 -17 76 -49 76l-7 -1c-132 -45 -164 -285 -164 -395c0 -36 4 -174 60 -174c68 0 140 194 157 263l-99 -6
c-19 0 -46 13 -46 35c0 23 31 32 50 33l94 7c33 2 66 6 84 6c34 0 60 -13 60 -34c0 -17 -17 -26 -30 -31c0 -67 3 -139 3 -197c0 -29 -1 -55 -3 -75c-8 -67 -32 -75 -51 -75c-22 0 -52 11 -52 32l3 121c-37 -65 -113 -155 -196 -155zM261 804c-25 0 -62 14 -62 43
c0 30 40 45 64 45s63 -15 63 -44c0 -30 -40 -44 -65 -44z" />
    <glyph glyph-name="gdotaccent" unicode="&#x121;" horiz-adv-x="423" 
d="M233 -296c-96 0 -192 68 -192 170c0 78 58 130 138 130c62 0 116 -31 116 -97c0 -46 -25 -88 -68 -88c-23 0 -58 12 -58 37s39 21 39 51c0 11 -5 33 -27 33c-28 0 -48 -39 -48 -76c0 -56 46 -95 86 -95c102 0 110 251 110 309v22c-47 -40 -111 -70 -171 -70
c-79 0 -120 53 -120 139c0 87 41 349 179 349c24 0 47 -8 70 -22c12 15 29 22 49 22c23 0 42 -9 57 -68c20 -82 30 -246 30 -358s-10 -388 -190 -388zM171 97c74 0 141 94 141 164c0 45 -27 183 -79 183c-69 0 -102 -236 -102 -305v-2c0 -13 1 -40 40 -40zM229 574
c-25 0 -62 14 -62 43c0 30 40 45 64 45s63 -15 63 -44c0 -30 -40 -44 -65 -44z" />
    <glyph glyph-name="Gcommaaccent" unicode="&#x122;" horiz-adv-x="486" 
d="M160 0c-110 0 -122 160 -122 230c0 158 62 483 253 483c57 0 98 -28 131 -83c5 -9 22 -38 22 -56c0 -24 -29 -36 -49 -36c-16 0 -41 7 -49 32c-5 15 -17 76 -49 76l-7 -1c-132 -45 -164 -285 -164 -395c0 -36 4 -174 60 -174c68 0 140 194 157 263l-99 -6
c-19 0 -46 13 -46 35c0 23 31 32 50 33l94 7c33 2 66 6 84 6c34 0 60 -13 60 -34c0 -17 -17 -26 -30 -31c0 -67 3 -139 3 -197c0 -29 -1 -55 -3 -75c-8 -67 -32 -75 -51 -75c-22 0 -52 11 -52 32l3 121c-37 -65 -113 -155 -196 -155zM218 -139c-7 0 -29 1 -29 17
c0 23 42 22 59 33c-21 1 -65 8 -65 36c0 30 46 41 70 41c31 0 63 -16 63 -50c0 -43 -54 -77 -98 -77z" />
    <glyph glyph-name="gcommaaccent" unicode="&#x123;" horiz-adv-x="423" 
d="M233 -296c-96 0 -192 68 -192 170c0 78 58 130 138 130c62 0 116 -31 116 -97c0 -46 -25 -88 -68 -88c-23 0 -58 12 -58 37s39 21 39 51c0 11 -5 33 -27 33c-28 0 -48 -39 -48 -76c0 -56 46 -95 86 -95c102 0 110 251 110 309v22c-47 -40 -111 -70 -171 -70
c-79 0 -120 53 -120 139c0 87 41 349 179 349c24 0 47 -8 70 -22c12 15 29 22 49 22c23 0 42 -9 57 -68c20 -82 30 -246 30 -358s-10 -388 -190 -388zM171 97c74 0 141 94 141 164c0 45 -27 183 -79 183c-69 0 -102 -236 -102 -305v-2c0 -13 1 -40 40 -40zM186 609
c0 42 48 76 80 81l8 1c13 0 21 -5 22 -12l-2 -13c-11 -14 -33 -17 -47 -32c10 3 21 4 30 4c19 0 43 -7 43 -29c0 -33 -54 -54 -80 -54c-27 0 -54 22 -54 54z" />
    <glyph glyph-name="Hcircumflex" unicode="&#x124;" horiz-adv-x="522" 
d="M422 0c-19 0 -48 10 -48 34l1 402l-187 -23l-2 -379c0 -24 -30 -34 -49 -34c-20 0 -49 11 -49 126l1 120c0 48 0 104 -2 160c-20 0 -49 11 -49 35s31 33 50 33l2 206c0 24 30 34 49 34c20 0 49 -11 49 -34v-197l187 23v172c0 24 30 34 50 34s49 -10 49 -34l-1 -165
c20 0 49 -11 49 -35c0 -23 -30 -33 -49 -33v-411c0 -23 -31 -34 -51 -34zM368 775c-33 0 -64 35 -87 52c-26 -18 -53 -51 -86 -51c-18 0 -51 10 -51 28c0 32 103 107 143 107c33 0 130 -79 130 -107c0 -19 -31 -29 -49 -29z" />
    <glyph glyph-name="hcircumflex" unicode="&#x125;" horiz-adv-x="416" 
d="M358 0c-22 0 -48 10 -48 70c0 26 5 87 5 157c0 58 -3 154 -31 217c-86 -62 -138 -301 -143 -395c-3 -33 -13 -49 -48 -49c-21 0 -52 11 -52 34l-3 651c0 25 30 34 50 34s48 -10 48 -34l1 -285c30 53 92 120 158 120c115 0 119 -204 119 -296l1 -94c0 -32 -1 -62 -6 -88
c-4 -29 -22 -42 -51 -42zM331 791c-33 0 -64 35 -87 52c-26 -18 -53 -51 -86 -51c-18 0 -51 10 -51 28c0 32 103 107 143 107c33 0 130 -79 130 -107c0 -19 -31 -29 -49 -29z" />
    <glyph glyph-name="Hbar" unicode="&#x126;" horiz-adv-x="522" 
d="M473 513c20 0 49 -11 49 -35c0 -23 -30 -33 -49 -33v-411c0 -23 -31 -34 -51 -34c-19 0 -48 10 -48 34l1 402l-187 -23l-2 -276c0 -127 -30 -137 -50 -137c-19 0 -48 11 -48 126l1 120c0 48 0 104 -2 160c-20 0 -49 11 -49 35c0 23 31 33 50 33l1 76l-2 10c3 9 5 19 5 30
c0 23 -6 50 -6 73c0 29 9 51 47 51c27 0 55 -11 55 -34v-85l187 4v79c0 24 30 34 50 34s49 -10 49 -59l-1 -71c4 -5 6 -10 6 -17c0 -6 -2 -12 -6 -17v-35zM188 483l187 23v24l-187 -4v-43z" />
    <glyph glyph-name="hbar" unicode="&#x127;" horiz-adv-x="440" 
d="M162 400c30 52 92 120 158 120c115 0 119 -204 119 -299v-92c0 -29 0 -55 -3 -73c-7 -46 -31 -56 -53 -56s-48 11 -48 70c0 26 5 87 5 157c0 57 -3 155 -31 217c-86 -62 -138 -301 -142 -378c-4 -55 -24 -66 -47 -66s-54 11 -54 34l-2 493c-15 3 -26 19 -26 34
c0 14 11 27 25 30v94c0 25 30 34 50 34s48 -10 48 -34v-89l229 6c18 0 40 -16 40 -36s-21 -32 -40 -33l-228 -6v-127z" />
    <glyph glyph-name="Itilde" unicode="&#x128;" horiz-adv-x="358" 
d="M116 0c-21 0 -49 11 -49 36c0 30 42 33 71 33h20l1 575l-40 -2c-29 0 -62 5 -62 32c0 26 31 37 49 37l175 3c20 0 47 -12 47 -35c0 -31 -49 -33 -71 -33l-1 -575l23 1c26 0 59 -4 59 -32c0 -27 -32 -36 -51 -36zM244 781c-46 0 -66 20 -94 53l-5 5
c-14 -29 -13 -58 -58 -58c-24 0 -49 9 -49 42c0 52 60 89 115 89c42 0 63 -21 92 -56c16 27 24 53 61 53c20 0 52 -8 52 -35l-2 -9c-22 -49 -53 -84 -112 -84z" />
    <glyph glyph-name="itilde" unicode="&#x129;" horiz-adv-x="358" 
d="M195 1c-20 0 -48 11 -48 34l1 450c0 23 31 34 49 34c19 0 51 -12 51 -34l-3 -450c0 -24 -30 -34 -50 -34zM244 551c-46 0 -66 20 -94 53l-5 5c-14 -29 -13 -58 -58 -58c-24 0 -49 9 -49 42c0 52 60 89 115 89c42 0 63 -21 92 -56c16 27 24 53 61 53c20 0 52 -8 52 -35
l-2 -9c-22 -49 -53 -84 -112 -84z" />
    <glyph glyph-name="Imacron" unicode="&#x12a;" horiz-adv-x="325" 
d="M100 0c-21 0 -49 11 -49 36c0 30 42 33 71 33h20l1 575l-40 -2c-29 0 -62 5 -62 32c0 26 31 37 49 37l175 3c20 0 47 -12 47 -35c0 -31 -49 -33 -71 -33l-1 -575l23 1c26 0 59 -4 59 -32c0 -27 -32 -36 -51 -36zM81 806c-19 0 -43 14 -43 35c0 23 30 32 49 33l195 10
c19 0 43 -15 43 -36c0 -24 -29 -31 -49 -32z" />
    <glyph glyph-name="imacron" unicode="&#x12b;" horiz-adv-x="325" 
d="M179 1c-20 0 -48 11 -48 34l1 450c0 23 31 34 49 34c19 0 51 -12 51 -34l-3 -450c0 -24 -30 -34 -50 -34zM81 576c-19 0 -43 14 -43 35c0 23 30 32 49 33l195 10c19 0 43 -15 43 -36c0 -24 -29 -31 -49 -32z" />
    <glyph glyph-name="Ibreve" unicode="&#x12c;" horiz-adv-x="319" 
d="M97 0c-21 0 -49 11 -49 36c0 30 42 33 71 33h20l1 575l-40 -2c-29 0 -62 5 -62 32c0 26 31 37 49 37l175 3c20 0 47 -12 47 -35c0 -31 -49 -33 -71 -33l-1 -575l23 1c26 0 59 -4 59 -32c0 -27 -32 -36 -51 -36zM169 770c-74 0 -107 45 -108 122c3 7 7 17 15 17
c9 0 16 -13 18 -20l5 -17c10 -24 42 -25 58 -25c28 0 106 8 113 43c3 5 9 11 15 11c5 0 10 -5 12 -9c-2 -73 -51 -122 -128 -122z" />
    <glyph glyph-name="ibreve" unicode="&#x12d;" horiz-adv-x="274" 
d="M153 1c-20 0 -48 11 -48 34l1 450c0 23 31 34 49 34c19 0 51 -12 51 -34l-3 -450c0 -24 -30 -34 -50 -34zM146 540c-74 0 -107 45 -108 122c3 7 7 17 15 17c9 0 16 -13 18 -20l5 -17c10 -24 42 -25 58 -25c28 0 106 8 113 43c3 5 9 11 15 11c5 0 10 -5 12 -9
c-2 -73 -51 -122 -128 -122z" />
    <glyph glyph-name="Iogonek" unicode="&#x12e;" horiz-adv-x="319" 
d="M97 0c-21 0 -49 11 -49 35c0 31 42 34 71 34h20l1 575l-40 -2c-29 0 -62 5 -62 32c0 26 31 37 49 37l175 3c20 0 47 -12 47 -35c0 -32 -49 -33 -71 -33l-1 -575l23 1c27 0 59 -4 59 -32c0 -25 -28 -34 -46 -36c-21 -21 -37 -47 -37 -73c0 -21 12 -36 30 -36s35 14 44 14
c7 0 9 -8 9 -14c0 -29 -42 -52 -72 -52c-26 0 -64 17 -64 60c0 36 28 73 62 100z" />
    <glyph glyph-name="iogonek" unicode="&#x12f;" horiz-adv-x="174" 
d="M101 -157c-26 0 -63 17 -63 54c0 32 27 85 60 105c-17 4 -35 15 -35 33l1 450c0 23 31 34 49 34c19 0 51 -12 51 -34l-3 -450c0 -18 -17 -28 -34 -32c-21 -21 -36 -45 -36 -72c0 -22 11 -36 30 -36s36 14 45 14c7 0 8 -8 8 -12c0 -30 -43 -54 -73 -54zM109 557
c-25 0 -62 14 -62 43c0 30 40 45 64 45s63 -14 63 -44s-40 -44 -65 -44z" />
    <glyph glyph-name="Idotaccent" unicode="&#x130;" horiz-adv-x="319" 
d="M97 0c-21 0 -49 11 -49 36c0 30 42 33 71 33h20l1 575l-40 -2c-29 0 -62 5 -62 32c0 26 31 37 49 37l175 3c20 0 47 -12 47 -35c0 -31 -49 -33 -71 -33l-1 -575l23 1c26 0 59 -4 59 -32c0 -27 -32 -36 -51 -36zM177 804c-25 0 -62 14 -62 43c0 30 40 45 64 45
s63 -15 63 -44c0 -30 -40 -44 -65 -44z" />
    <glyph glyph-name="dotlessi" unicode="&#x131;" horiz-adv-x="139" 
d="M86 1c-20 0 -48 11 -48 34l1 450c0 23 31 34 49 34c19 0 51 -12 51 -34l-3 -450c0 -24 -30 -34 -50 -34z" />
    <glyph glyph-name="IJ" unicode="&#x132;" horiz-adv-x="681" 
d="M97 0c-21 0 -49 11 -49 36c0 30 42 33 71 33h20l1 575l-40 -2c-29 0 -62 5 -62 32c0 26 31 37 49 37l175 3c20 0 47 -12 47 -35c0 -31 -49 -33 -71 -33l-1 -575l23 1c26 0 59 -4 59 -32c0 -27 -32 -36 -51 -36zM492 1c-100 0 -154 72 -154 168c0 43 11 88 28 124
c20 44 67 119 114 119c20 0 53 -13 53 -35c0 -11 -7 -16 -11 -20c-61 -51 -97 -123 -97 -193c0 -49 18 -94 69 -94h2c82 15 86 171 86 216c0 87 -16 303 -51 357c-10 0 -29 -3 -48 -3c-33 0 -67 6 -67 33c0 26 31 37 49 37l169 3c19 0 47 -12 47 -34c0 -24 -32 -34 -51 -34
c31 -99 44 -229 44 -331c0 -125 -20 -313 -182 -313z" />
    <glyph glyph-name="ij" unicode="&#x133;" horiz-adv-x="384" 
d="M102 1c-20 0 -48 11 -48 34l1 450c0 23 31 34 49 34c19 0 51 -12 51 -34l-3 -450c0 -24 -30 -34 -50 -34zM195 -301c-64 0 -139 34 -139 103c0 70 79 93 126 93c31 0 60 -11 60 -35c0 -42 -89 -12 -89 -54c0 -17 16 -39 45 -39c92 0 95 229 95 287c0 132 -15 254 -19 285
c-13 109 -16 124 -16 137c0 33 23 42 45 42c23 0 53 -10 53 -52c0 -16 5 -53 11 -104c9 -83 17 -183 17 -285c0 -127 -13 -378 -189 -378zM100 557c-25 0 -62 14 -62 43c0 30 40 45 64 45s63 -14 63 -44s-40 -44 -65 -44zM287 557c-26 0 -64 14 -64 43c0 31 40 45 65 45
c24 0 62 -14 62 -44c0 -31 -39 -44 -63 -44z" />
    <glyph glyph-name="Jcircumflex" unicode="&#x134;" horiz-adv-x="381" 
d="M192 1c-100 0 -154 72 -154 168c0 43 11 88 28 124c20 44 67 119 114 119c20 0 53 -13 53 -35c0 -11 -7 -16 -11 -20c-61 -51 -97 -123 -97 -193c0 -49 18 -94 69 -94h2c82 15 86 171 86 216c0 87 -16 303 -51 357c-10 0 -29 -3 -48 -3c-33 0 -67 6 -67 33
c0 26 31 37 49 37l169 3c19 0 47 -12 47 -34c0 -24 -32 -34 -51 -34c31 -99 44 -229 44 -331c0 -125 -20 -313 -182 -313zM297 775c-33 0 -64 35 -87 52c-26 -18 -53 -51 -86 -51c-18 0 -51 10 -51 28c0 32 103 107 143 107c33 0 130 -79 130 -107c0 -19 -31 -29 -49 -29z
" />
    <glyph glyph-name="jcircumflex" unicode="&#x135;" horiz-adv-x="406" 
d="M177 -301c-64 0 -139 34 -139 103c0 70 79 93 126 93c31 0 60 -11 60 -35c0 -42 -89 -12 -89 -54c0 -17 16 -39 45 -39c92 0 95 229 95 287c0 132 -15 254 -19 285c-13 109 -16 124 -16 137c0 33 23 42 45 42c23 0 53 -10 53 -52c0 -16 5 -53 11 -104
c9 -83 17 -183 17 -285c0 -127 -13 -378 -189 -378zM269 557c-26 0 -64 14 -64 43c0 31 40 45 65 45c24 0 62 -14 62 -44c0 -31 -39 -44 -63 -44zM357 682c-33 0 -64 35 -87 52c-26 -18 -53 -51 -86 -51c-18 0 -51 10 -51 28c0 32 103 107 143 107c33 0 130 -79 130 -107
c0 -19 -31 -29 -49 -29z" />
    <glyph glyph-name="Kcommaaccent" unicode="&#x136;" horiz-adv-x="531" 
d="M437 1c-8 0 -14 2 -18 3c-34 17 -120 223 -133 253c-25 -47 -49 -96 -63 -129c-17 -40 -25 -66 -34 -84c-16 -29 -39 -43 -70 -43c-28 0 -49 12 -63 57c-15 49 -18 124 -18 191c0 142 12 289 18 342c14 113 40 124 60 124s50 -11 50 -46c0 -15 -5 -44 -14 -129
c-5 -54 -17 -166 -17 -281c0 -33 1 -67 4 -102c32 68 62 137 98 204l-1 6c0 11 10 21 18 25c41 74 85 146 112 189c35 56 53 91 68 109c16 18 34 23 48 23c19 0 49 -9 49 -32c0 -7 -3 -12 -29 -55c-40 -64 -104 -162 -162 -266c14 -28 150 -321 150 -338
c0 -8 -31 -21 -53 -21zM218 -139c-7 0 -29 1 -29 17c0 23 42 22 59 33c-21 1 -65 8 -65 36c0 30 46 41 70 41c31 0 63 -16 63 -50c0 -43 -54 -77 -98 -77z" />
    <glyph glyph-name="kcommaaccent" unicode="&#x137;" horiz-adv-x="423" 
d="M86 -2c-20 0 -48 11 -48 34l1 654c0 24 30 34 50 34s48 -10 48 -34v-263c56 39 163 94 229 94c25 0 43 -8 55 -25l2 -8c0 -20 -20 -30 -54 -38c-62 -13 -167 -56 -220 -119c68 -103 164 -187 228 -239c38 -31 45 -38 45 -49c0 -23 -28 -34 -50 -34
c-60 0 -199 157 -235 200l-1 -173c0 -24 -30 -34 -50 -34zM201 -139c-7 0 -29 1 -29 17c0 23 42 22 59 33c-21 1 -65 8 -65 36c0 30 46 41 70 41c31 0 63 -16 63 -50c0 -43 -54 -77 -98 -77z" />
    <glyph glyph-name="kgreenlandic" unicode="&#x138;" horiz-adv-x="423" 
d="M86 -2c-20 0 -48 11 -48 34l1 453c0 24 30 34 55 34c38 0 45 -23 45 -52l-2 -44c56 39 163 94 229 94c25 0 43 -8 55 -25l2 -8c0 -20 -20 -30 -54 -38c-62 -13 -167 -56 -220 -119c68 -103 164 -187 228 -239c38 -31 45 -38 45 -49c0 -23 -28 -34 -50 -34
c-60 0 -199 157 -235 200l-1 -173c0 -24 -30 -34 -50 -34z" />
    <glyph glyph-name="Lacute" unicode="&#x139;" horiz-adv-x="349" 
d="M155 0c-91 0 -117 94 -117 191c0 128 45 339 56 395c21 116 47 126 64 126c14 0 40 -8 40 -69c0 -19 -3 -43 -9 -74c-8 -42 -52 -242 -52 -394c0 -34 2 -82 25 -105c40 22 70 54 94 72c20 15 33 17 42 17c18 0 51 -10 51 -33c0 -17 -18 -28 -44 -50
c-31 -26 -83 -76 -150 -76zM175 776c-20 0 -50 9 -50 31c0 10 7 23 14 27l110 67c11 7 20 10 31 10c22 0 52 -11 52 -33c0 -10 -6 -20 -35 -38l-72 -46c-26 -15 -38 -18 -50 -18z" />
    <glyph glyph-name="lacute" unicode="&#x13a;" horiz-adv-x="245" 
d="M136 -2c-20 0 -48 11 -48 34l1 654c0 24 31 34 51 34s49 -10 49 -34l-3 -654c0 -24 -30 -34 -50 -34zM88 787c-20 0 -50 9 -50 31c0 10 7 23 14 27l110 67c11 7 20 10 31 10c22 0 52 -11 52 -33c0 -10 -6 -20 -35 -38l-72 -46c-26 -15 -38 -18 -50 -18z" />
    <glyph glyph-name="Lcommaaccent" unicode="&#x13b;" horiz-adv-x="349" 
d="M155 0c-91 0 -117 94 -117 191c0 128 45 339 56 395c21 116 47 126 64 126c14 0 40 -8 40 -69c0 -19 -3 -43 -9 -74c-8 -42 -52 -242 -52 -394c0 -34 2 -82 25 -105c40 22 70 54 94 72c20 15 33 17 42 17c18 0 51 -10 51 -33c0 -17 -18 -28 -44 -50
c-31 -26 -83 -76 -150 -76zM148 -139c-7 0 -29 1 -29 17c0 23 42 22 59 33c-21 1 -65 8 -65 36c0 30 46 41 70 41c31 0 63 -16 63 -50c0 -43 -54 -77 -98 -77z" />
    <glyph glyph-name="lcommaaccent" unicode="&#x13c;" horiz-adv-x="171" 
d="M101 -2c-20 0 -48 11 -48 34l1 654c0 24 31 34 51 34s49 -10 49 -34l-3 -654c0 -24 -30 -34 -50 -34zM73 -139c-7 0 -29 1 -29 17c0 23 42 22 59 33c-21 1 -65 8 -65 36c0 30 46 41 70 41c31 0 63 -16 63 -50c0 -43 -54 -77 -98 -77z" />
    <glyph glyph-name="Lcaron" unicode="&#x13d;" horiz-adv-x="368" 
d="M155 0c-91 0 -117 94 -117 191c0 128 45 339 56 395c21 116 47 126 64 126c14 0 40 -8 40 -69c0 -19 -3 -43 -9 -74c-8 -42 -52 -242 -52 -394c0 -34 2 -82 25 -105c40 22 70 54 94 72c20 15 33 17 42 17c18 0 51 -10 51 -33c0 -17 -18 -28 -44 -50
c-31 -26 -83 -76 -150 -76zM270 582c-7 0 -29 1 -29 17c0 23 42 22 59 33c-21 1 -65 8 -65 36c0 30 46 41 70 41c31 0 63 -16 63 -50c0 -43 -54 -77 -98 -77z" />
    <glyph glyph-name="lcaron" unicode="&#x13e;" horiz-adv-x="290" 
d="M86 -2c-20 0 -48 11 -48 34l1 654c0 24 31 34 51 34s49 -10 49 -34l-3 -654c0 -24 -30 -34 -50 -34zM192 589c-7 0 -29 1 -29 17c0 23 42 22 59 33c-21 1 -65 8 -65 36c0 30 46 41 70 41c31 0 63 -16 63 -50c0 -43 -54 -77 -98 -77z" />
    <glyph glyph-name="Ldot" unicode="&#x13f;" horiz-adv-x="349" 
d="M155 0c-91 0 -117 94 -117 191c0 128 45 339 56 395c21 116 47 126 64 126c14 0 40 -8 40 -69c0 -19 -3 -43 -9 -74c-8 -42 -52 -242 -52 -394c0 -34 2 -82 25 -105c40 22 70 54 94 72c20 15 33 17 42 17c18 0 51 -10 51 -33c0 -17 -18 -28 -44 -50
c-31 -26 -83 -76 -150 -76zM247 312c-26 0 -63 14 -63 43c0 30 40 45 64 45s63 -15 63 -45s-40 -43 -64 -43z" />
    <glyph glyph-name="ldot" unicode="&#x140;" horiz-adv-x="266" 
d="M86 -2c-20 0 -48 11 -48 34l1 654c0 24 31 34 51 34s49 -10 49 -34l-3 -654c0 -24 -30 -34 -50 -34zM202 315c-26 0 -63 14 -63 43c0 30 40 45 64 45s63 -15 63 -45s-40 -43 -64 -43z" />
    <glyph glyph-name="Lslash" unicode="&#x141;" horiz-adv-x="389" 
d="M193 350c-7 -59 -16 -119 -16 -180c0 -29 2 -77 25 -100c40 22 70 54 92 71c21 16 35 18 44 18c18 0 51 -10 51 -28c0 -31 -106 -103 -133 -117c-16 -9 -39 -14 -60 -14c-92 0 -118 94 -118 173c0 33 4 67 8 102c-8 -6 -17 -13 -27 -13c-13 0 -21 11 -21 25
c0 29 35 48 56 62c15 111 36 219 41 243c21 110 46 120 62 120s44 -9 44 -62c0 -12 -2 -27 -5 -44c-2 -10 -19 -95 -33 -181c17 12 85 66 104 66c7 0 14 -9 17 -17c0 -18 -7 -37 -23 -48z" />
    <glyph glyph-name="lslash" unicode="&#x142;" horiz-adv-x="304" 
d="M215 32c0 -24 -30 -34 -50 -34c-19 0 -48 11 -48 34v268c-12 -9 -44 -38 -61 -38c-11 0 -18 12 -18 24c0 35 61 67 80 81v319c0 24 31 34 51 34s49 -10 49 -34l-1 -247c11 8 54 46 70 46c10 0 17 -13 17 -25c0 -13 -10 -29 -22 -38l-65 -48z" />
    <glyph glyph-name="Nacute" unicode="&#x143;" horiz-adv-x="478" 
d="M379 1c-120 0 -205 249 -242 341l-1 -307c0 -24 -30 -34 -50 -34c-19 0 -48 11 -48 34l1 645c0 23 31 34 49 34c22 0 65 -16 65 -90c0 -116 106 -380 202 -514c19 152 22 306 22 439l-1 102c0 56 30 67 51 67c22 0 47 -12 48 -68l1 -145c0 -22 0 -473 -75 -501
c-5 -2 -15 -3 -22 -3zM238 776c-20 0 -50 9 -50 31c0 10 7 23 14 27l110 67c11 7 20 10 31 10c22 0 52 -11 52 -33c0 -10 -6 -20 -35 -38l-72 -46c-26 -15 -38 -18 -50 -18z" />
    <glyph glyph-name="nacute" unicode="&#x144;" horiz-adv-x="427" 
d="M96 -2c-21 0 -58 14 -58 39l1 448c0 24 32 34 52 34c22 0 46 -13 46 -39c31 27 68 40 112 40c160 0 178 -180 178 -301c0 -64 -5 -125 -6 -154c-1 -42 -5 -66 -53 -66c-22 0 -46 13 -46 39l1 237c0 53 -24 170 -90 170c-90 0 -91 -221 -91 -266v-3c0 -62 4 -103 4 -120
c0 -47 -31 -58 -50 -58zM214 546c-20 0 -50 9 -50 31c0 10 7 23 14 27l110 67c11 7 20 10 31 10c22 0 52 -11 52 -33c0 -10 -6 -20 -35 -38l-72 -46c-26 -15 -38 -18 -50 -18z" />
    <glyph glyph-name="Ncommaaccent" unicode="&#x145;" horiz-adv-x="478" 
d="M379 1c-120 0 -205 249 -242 341l-1 -307c0 -24 -30 -34 -50 -34c-19 0 -48 11 -48 34l1 645c0 23 31 34 49 34c22 0 65 -16 65 -90c0 -116 106 -380 202 -514c19 152 22 306 22 439l-1 102c0 56 30 67 51 67c22 0 47 -12 48 -68l1 -145c0 -22 0 -473 -75 -501
c-5 -2 -15 -3 -22 -3zM218 -139c-7 0 -29 1 -29 17c0 23 42 22 59 33c-21 1 -65 8 -65 36c0 30 46 41 70 41c31 0 63 -16 63 -50c0 -43 -54 -77 -98 -77z" />
    <glyph glyph-name="ncommaaccent" unicode="&#x146;" horiz-adv-x="427" 
d="M96 -2c-21 0 -58 14 -58 39l1 448c0 24 32 34 52 34c22 0 46 -13 46 -39c31 27 68 40 112 40c160 0 178 -180 178 -301c0 -64 -5 -125 -6 -154c-1 -42 -5 -66 -53 -66c-22 0 -46 13 -46 39l1 237c0 53 -24 170 -90 170c-90 0 -91 -221 -91 -266v-3c0 -62 4 -103 4 -120
c0 -47 -31 -58 -50 -58zM209 -139c-7 0 -29 1 -29 17c0 23 42 22 59 33c-21 1 -65 8 -65 36c0 30 46 41 70 41c31 0 63 -16 63 -50c0 -43 -54 -77 -98 -77z" />
    <glyph glyph-name="Ncaron" unicode="&#x147;" horiz-adv-x="478" 
d="M379 1c-120 0 -205 249 -242 341l-1 -307c0 -24 -30 -34 -50 -34c-19 0 -48 11 -48 34l1 645c0 23 31 34 49 34c22 0 65 -16 65 -90c0 -116 106 -380 202 -514c19 152 22 306 22 439l-1 102c0 56 30 67 51 67c22 0 47 -12 48 -68l1 -145c0 -22 0 -473 -75 -501
c-5 -2 -15 -3 -22 -3zM346 910c18 0 48 -9 48 -33c0 -11 -6 -20 -13 -26l-67 -55c-14 -11 -37 -22 -51 -22c-38 0 -142 73 -142 106c0 19 34 29 52 29c32 0 60 -33 85 -51c23 18 53 52 88 52z" />
    <glyph glyph-name="ncaron" unicode="&#x148;" horiz-adv-x="427" 
d="M96 -2c-21 0 -58 14 -58 39l1 448c0 24 32 34 52 34c22 0 46 -13 46 -39c31 27 68 40 112 40c160 0 178 -180 178 -301c0 -64 -5 -125 -6 -154c-1 -42 -5 -66 -53 -66c-22 0 -46 13 -46 39l1 237c0 53 -24 170 -90 170c-90 0 -91 -221 -91 -266v-3c0 -62 4 -103 4 -120
c0 -47 -31 -58 -50 -58zM321 680c18 0 48 -9 48 -33c0 -11 -6 -20 -13 -26l-67 -55c-14 -11 -37 -22 -51 -22c-38 0 -142 73 -142 106c0 19 34 29 52 29c32 0 60 -33 85 -51c23 18 53 52 88 52z" />
    <glyph glyph-name="napostrophe" unicode="&#x149;" horiz-adv-x="535" 
d="M204 -2c-21 0 -58 14 -58 39l1 448c0 24 32 34 52 34c22 0 46 -13 46 -39c31 27 68 40 112 40c160 0 178 -180 178 -301c0 -64 -5 -125 -6 -154c-1 -42 -5 -66 -53 -66c-22 0 -46 13 -46 39l1 237c0 53 -24 170 -90 170c-90 0 -91 -221 -91 -266v-3c0 -62 4 -103 4 -120
c0 -47 -31 -58 -50 -58zM73 509c-7 0 -29 1 -29 17c0 23 42 22 59 33c-21 1 -65 8 -65 36c0 30 45 41 70 41c31 0 63 -16 63 -50c0 -43 -54 -77 -98 -77z" />
    <glyph glyph-name="Eng" unicode="&#x14a;" horiz-adv-x="480" 
d="M480 312c0 -102 -12 -312 -142 -312c-41 0 -101 21 -101 69c0 41 43 48 63 48c70 0 81 89 81 166c0 42 -3 362 -119 362c-120 0 -115 -348 -116 -443v-112c0 -74 -39 -89 -61 -89c-18 0 -47 11 -47 34l1 644c0 23 31 34 58 34c38 0 40 -23 40 -56v-10c32 41 83 67 140 67
c184 0 203 -274 203 -402z" />
    <glyph glyph-name="eng" unicode="&#x14b;" horiz-adv-x="428" 
d="M249 521c175 0 179 -214 179 -312v-12c0 -136 -9 -343 -100 -389c-20 -10 -40 -10 -46 -10c-48 0 -110 21 -110 69c0 41 43 49 71 49c29 0 45 10 50 15c31 29 31 203 31 215l1 86c0 95 -9 214 -82 214c-100 0 -101 -222 -101 -266v-2c0 -63 4 -104 4 -121
c0 -47 -31 -58 -50 -58c-21 0 -58 14 -58 39l1 448c0 24 32 34 52 34c22 0 46 -13 46 -39c31 27 68 40 112 40z" />
    <glyph glyph-name="Omacron" unicode="&#x14c;" horiz-adv-x="532" 
d="M269 4c-166 0 -231 197 -231 346c0 161 76 363 259 363c173 0 235 -180 235 -322c0 -159 -72 -387 -263 -387zM283 77c112 0 145 225 145 320c0 75 -21 242 -137 242c-117 0 -149 -169 -149 -255c0 -83 30 -307 141 -307zM185 806c-19 0 -43 14 -43 35c0 23 30 32 49 33
l195 10c19 0 43 -15 43 -36c0 -24 -29 -31 -49 -32z" />
    <glyph glyph-name="omacron" unicode="&#x14d;" horiz-adv-x="399" 
d="M212 0c-136 0 -174 175 -174 270c0 123 63 250 198 250c117 0 163 -142 163 -251c0 -130 -66 -269 -187 -269zM217 70c71 0 88 150 88 208c0 45 -10 171 -81 171c-73 0 -90 -133 -90 -188c0 -48 13 -191 83 -191zM118 576c-19 0 -43 14 -43 35c0 23 30 32 49 33l195 10
c19 0 43 -15 43 -36c0 -24 -29 -31 -49 -32z" />
    <glyph glyph-name="Obreve" unicode="&#x14e;" horiz-adv-x="532" 
d="M269 4c-166 0 -231 197 -231 346c0 161 76 363 259 363c173 0 235 -180 235 -322c0 -159 -72 -387 -263 -387zM283 77c112 0 145 225 145 320c0 75 -21 242 -137 242c-117 0 -149 -169 -149 -255c0 -83 30 -307 141 -307zM275 770c-74 0 -107 45 -108 122c3 7 7 17 15 17
c9 0 16 -13 21 -27c10 -33 28 -35 46 -35c29 0 119 5 127 43c3 5 9 11 15 11c5 0 10 -5 12 -9c-2 -73 -51 -122 -128 -122z" />
    <glyph glyph-name="obreve" unicode="&#x14f;" horiz-adv-x="399" 
d="M212 0c-136 0 -174 175 -174 270c0 123 63 250 198 250c117 0 163 -142 163 -251c0 -130 -66 -269 -187 -269zM209 540c-74 0 -107 45 -108 122c3 7 7 17 15 17c9 0 16 -13 18 -20l5 -17c10 -24 42 -25 58 -25c28 0 106 8 113 43c3 5 9 11 15 11c5 0 10 -5 12 -9
c-2 -73 -51 -122 -128 -122zM217 70c71 0 88 150 88 208c0 45 -10 171 -81 171c-73 0 -90 -133 -90 -188c0 -48 13 -191 83 -191z" />
    <glyph glyph-name="Ohungarumlaut" unicode="&#x150;" horiz-adv-x="532" 
d="M269 4c-166 0 -231 197 -231 346c0 161 76 363 259 363c173 0 235 -180 235 -322c0 -159 -72 -387 -263 -387zM283 77c112 0 145 225 145 320c0 75 -21 242 -137 242c-117 0 -149 -169 -149 -255c0 -83 30 -307 141 -307zM180 817c-16 0 -32 5 -32 22c0 22 30 13 45 22
l14 8c-20 0 -64 7 -64 33c0 25 38 42 71 42c21 0 62 -7 62 -49c0 -49 -58 -78 -96 -78zM331 817c-16 0 -30 5 -30 21c0 23 30 15 41 21l18 10c-20 0 -66 7 -66 34c0 24 37 41 71 41c22 0 63 -7 63 -49c0 -49 -59 -78 -97 -78z" />
    <glyph glyph-name="ohungarumlaut" unicode="&#x151;" horiz-adv-x="399" 
d="M212 0c-136 0 -174 175 -174 270c0 123 63 250 198 250c117 0 163 -142 163 -251c0 -130 -66 -269 -187 -269zM217 70c71 0 88 150 88 208c0 45 -10 171 -81 171c-73 0 -90 -133 -90 -188c0 -48 13 -191 83 -191zM113 587c-16 0 -32 5 -32 22c0 22 30 13 45 22l14 8
c-20 0 -64 7 -64 33c0 25 38 42 71 42c21 0 62 -7 62 -49c0 -49 -58 -78 -96 -78zM264 587c-16 0 -30 5 -30 21c0 23 30 15 41 21l18 10c-20 0 -66 7 -66 34c0 24 37 41 71 41c22 0 63 -7 63 -49c0 -49 -59 -78 -97 -78z" />
    <glyph glyph-name="OE" unicode="&#x152;" horiz-adv-x="825" 
d="M435 86c-34 -43 -93 -82 -167 -82c-165 0 -230 196 -230 346c0 161 76 363 256 363c44 0 87 -12 117 -31c9 8 21 14 33 15c11 11 26 17 44 17c13 0 26 -3 37 -14c77 5 155 13 198 13c54 0 81 -11 81 -35s-30 -32 -102 -35l-167 -10l-1 -129l172 4c64 0 93 -12 93 -34
c0 -24 -30 -34 -49 -34l-216 -4c-2 -84 -5 -168 -5 -241l2 -121c79 14 164 36 222 36c42 0 72 -12 72 -34c0 -11 -7 -19 -14 -24c-10 -7 -24 -10 -65 -14c-25 -2 -77 -7 -141 -20c-31 -6 -75 -17 -109 -17c-33 0 -62 10 -62 49zM283 77c111 0 145 225 145 320
c0 75 -21 242 -138 242s-148 -169 -148 -254c0 -84 30 -308 141 -308z" />
    <glyph glyph-name="oe" unicode="&#x153;" horiz-adv-x="700" 
d="M349 87c-35 -56 -95 -87 -148 -87c-125 0 -163 175 -163 269c0 121 63 251 197 251c73 0 115 -52 143 -130l2 3c33 57 73 125 151 125c81 0 167 -73 167 -157c0 -128 -169 -156 -267 -156c0 -50 6 -139 72 -139c52 0 107 53 107 100l-1 16c1 22 34 33 53 33
s38 -10 38 -45c0 -74 -81 -170 -192 -170c-49 0 -125 19 -159 87zM217 70c72 0 88 150 88 207c0 46 -11 172 -82 172c-72 0 -89 -133 -89 -188c0 -48 12 -191 83 -191zM487 270c55 0 116 25 116 87c0 38 -22 94 -55 94c-52 0 -107 -136 -107 -175v-3c14 -1 30 -3 46 -3z" />
    <glyph glyph-name="Racute" unicode="&#x154;" horiz-adv-x="496" 
d="M440 1c-11 0 -20 3 -31 14c-7 7 -14 15 -32 43c-20 30 -52 78 -96 136c-22 29 -140 186 -140 234c0 20 19 33 42 37c13 3 28 3 51 7c49 10 107 32 142 81c10 14 16 27 16 43c0 37 -32 46 -62 46c-68 0 -139 -46 -190 -90l-4 -517c0 -24 -30 -34 -50 -34
c-19 0 -48 11 -48 34l4 644c0 24 30 34 57 34c41 0 41 -24 41 -62c58 34 124 60 188 60c75 0 162 -34 162 -118c0 -110 -153 -168 -243 -187c40 -69 85 -135 117 -177c31 -41 132 -179 132 -202c0 -14 -34 -26 -56 -26zM248 776c-20 0 -50 9 -50 31c0 10 7 23 14 27l110 67
c11 7 20 10 31 10c22 0 52 -11 52 -33c0 -10 -6 -20 -35 -38l-72 -46c-26 -15 -38 -18 -50 -18z" />
    <glyph glyph-name="racute" unicode="&#x155;" horiz-adv-x="420" 
d="M90 -4c-22 0 -32 8 -42 26c-4 8 -8 12 -8 22v6c1 9 6 28 6 43l2 391c0 24 28 35 54 35c39 0 45 -26 45 -57l-1 -45c26 58 68 102 132 102c88 0 143 -85 143 -143c0 -44 -32 -55 -51 -55s-49 10 -49 41c0 17 -10 87 -45 87c-25 0 -47 -37 -58 -59
c-46 -89 -69 -195 -72 -297l-2 -63c-1 -25 -29 -34 -54 -34zM211 546c-20 0 -50 9 -50 31c0 10 7 23 14 27l110 67c11 7 20 10 31 10c22 0 52 -11 52 -33c0 -10 -6 -20 -35 -38l-72 -46c-26 -15 -38 -18 -50 -18z" />
    <glyph glyph-name="Rcommaaccent" unicode="&#x156;" horiz-adv-x="496" 
d="M440 1c-11 0 -20 3 -31 14c-7 7 -14 15 -32 43c-20 30 -52 78 -96 136c-22 29 -140 186 -140 234c0 20 19 33 42 37c13 3 28 3 51 7c49 10 107 32 142 81c10 14 16 27 16 43c0 37 -32 46 -62 46c-68 0 -139 -46 -190 -90l-4 -517c0 -24 -30 -34 -50 -34
c-19 0 -48 11 -48 34l4 644c0 24 30 34 57 34c41 0 41 -24 41 -62c58 34 124 60 188 60c75 0 162 -34 162 -118c0 -110 -153 -168 -243 -187c40 -69 85 -135 117 -177c31 -41 132 -179 132 -202c0 -14 -34 -26 -56 -26zM218 -139c-7 0 -29 1 -29 17c0 23 42 22 59 33
c-21 1 -65 8 -65 36c0 30 46 41 70 41c31 0 63 -16 63 -50c0 -43 -54 -77 -98 -77z" />
    <glyph glyph-name="rcommaaccent" unicode="&#x157;" horiz-adv-x="420" 
d="M90 -4c-22 0 -32 8 -42 26c-4 8 -8 12 -8 22v6c1 9 6 28 6 43l2 391c0 24 28 35 54 35c39 0 45 -26 45 -57l-1 -45c26 58 68 102 132 102c88 0 143 -85 143 -143c0 -44 -32 -55 -51 -55s-49 10 -49 41c0 17 -10 87 -45 87c-25 0 -47 -37 -58 -59
c-46 -89 -69 -195 -72 -297l-2 -63c-1 -25 -29 -34 -54 -34zM219 -139c-7 0 -29 1 -29 17c0 23 42 22 59 33c-21 1 -65 8 -65 36c0 30 46 41 70 41c31 0 63 -16 63 -50c0 -43 -54 -77 -98 -77z" />
    <glyph glyph-name="Rcaron" unicode="&#x158;" horiz-adv-x="496" 
d="M440 1c-11 0 -20 3 -31 14c-7 7 -14 15 -32 43c-20 30 -52 78 -96 136c-22 29 -140 186 -140 234c0 20 19 33 42 37c13 3 28 3 51 7c49 10 107 32 142 81c10 14 16 27 16 43c0 37 -32 46 -62 46c-68 0 -139 -46 -190 -90l-4 -517c0 -24 -30 -34 -50 -34
c-19 0 -48 11 -48 34l4 644c0 24 30 34 57 34c41 0 41 -24 41 -62c58 34 124 60 188 60c75 0 162 -34 162 -118c0 -110 -153 -168 -243 -187c40 -69 85 -135 117 -177c31 -41 132 -179 132 -202c0 -14 -34 -26 -56 -26zM356 910c18 0 48 -9 48 -33c0 -11 -6 -20 -13 -26
l-67 -55c-14 -11 -37 -22 -51 -22c-38 0 -142 73 -142 106c0 19 34 29 52 29c32 0 60 -33 85 -51c23 18 53 52 88 52z" />
    <glyph glyph-name="rcaron" unicode="&#x159;" horiz-adv-x="420" 
d="M90 -4c-22 0 -32 8 -42 26c-4 8 -8 12 -8 22v6c1 9 6 28 6 43l2 391c0 24 28 35 54 35c39 0 45 -26 45 -57l-1 -45c26 58 68 102 132 102c88 0 143 -85 143 -143c0 -44 -32 -55 -51 -55s-49 10 -49 41c0 17 -10 87 -45 87c-25 0 -47 -37 -58 -59
c-46 -89 -69 -195 -72 -297l-2 -63c-1 -25 -29 -34 -54 -34zM319 680c18 0 48 -9 48 -33c0 -11 -6 -20 -13 -26l-67 -55c-14 -11 -37 -22 -51 -22c-38 0 -142 73 -142 106c0 19 34 29 52 29c32 0 60 -33 85 -51c23 18 53 52 88 52z" />
    <glyph glyph-name="Sacute" unicode="&#x15a;" horiz-adv-x="448" 
d="M232 2c-147 0 -194 147 -194 231c0 68 30 78 51 78s44 -10 49 -39c2 -13 0 -34 3 -59c5 -45 29 -144 94 -144c77 0 110 138 110 184c0 141 -307 54 -307 271c0 100 67 190 192 190c38 0 76 -8 116 -34c52 -33 102 -94 102 -147c0 -40 -29 -51 -49 -51
c-21 0 -46 12 -54 59c-6 32 -23 70 -73 92c-13 5 -34 13 -53 13c-56 0 -84 -71 -84 -121c0 -164 308 -66 308 -282c0 -103 -69 -241 -211 -241zM224 776c-20 0 -50 9 -50 31c0 10 7 23 14 27l110 67c11 7 20 10 31 10c22 0 52 -11 52 -33c0 -10 -6 -20 -35 -38l-72 -46
c-26 -15 -38 -18 -50 -18z" />
    <glyph glyph-name="sacute" unicode="&#x15b;" horiz-adv-x="424" 
d="M231 1c-115 0 -193 98 -193 180c0 51 30 61 50 61s48 -11 48 -53c0 -49 35 -122 106 -122c47 0 88 33 88 79c0 119 -278 69 -278 236c0 95 88 138 168 138c82 0 204 -45 204 -125c0 -42 -33 -53 -51 -53c-20 0 -48 13 -48 42c0 44 -61 68 -105 68c-41 0 -68 -20 -68 -60
c0 -128 269 -82 269 -240c0 -100 -106 -151 -190 -151zM212 546c-20 0 -50 9 -50 31c0 10 7 23 14 27l110 67c11 7 20 10 31 10c22 0 52 -11 52 -33c0 -10 -6 -20 -35 -38l-72 -46c-26 -15 -38 -18 -50 -18z" />
    <glyph glyph-name="Scircumflex" unicode="&#x15c;" horiz-adv-x="448" 
d="M232 2c-147 0 -194 147 -194 231c0 68 30 78 51 78s44 -10 49 -39c2 -13 0 -34 3 -59c5 -45 29 -144 94 -144c77 0 110 138 110 184c0 141 -307 54 -307 271c0 100 67 190 192 190c38 0 76 -8 116 -34c52 -33 102 -94 102 -147c0 -40 -29 -51 -49 -51
c-21 0 -46 12 -54 59c-6 32 -23 70 -73 92c-13 5 -34 13 -53 13c-56 0 -84 -71 -84 -121c0 -164 308 -66 308 -282c0 -103 -69 -241 -211 -241zM331 775c-33 0 -64 35 -87 52c-26 -18 -53 -51 -86 -51c-18 0 -51 10 -51 28c0 32 103 107 143 107c33 0 130 -79 130 -107
c0 -19 -31 -29 -49 -29z" />
    <glyph glyph-name="scircumflex" unicode="&#x15d;" horiz-adv-x="424" 
d="M231 1c-115 0 -193 98 -193 180c0 51 30 61 50 61s48 -11 48 -53c0 -49 35 -122 106 -122c47 0 88 33 88 79c0 119 -278 69 -278 236c0 95 88 138 168 138c82 0 204 -45 204 -125c0 -42 -33 -53 -51 -53c-20 0 -48 13 -48 42c0 44 -61 68 -105 68c-41 0 -68 -20 -68 -60
c0 -128 269 -82 269 -240c0 -100 -106 -151 -190 -151zM319 545c-33 0 -64 35 -87 52c-26 -18 -53 -51 -86 -51c-18 0 -51 10 -51 28c0 32 103 107 143 107c33 0 130 -79 130 -107c0 -19 -31 -29 -49 -29z" />
    <glyph glyph-name="Scedilla" unicode="&#x15e;" horiz-adv-x="469" 
d="M268 3c5 -5 8 -13 8 -20l-3 -21l26 1c66 0 170 -15 170 -82c0 -84 -163 -104 -225 -104c-69 0 -206 26 -206 110c0 39 29 47 53 47c83 0 -4 -88 149 -88c40 0 107 6 131 27c-2 19 -25 21 -40 21c-43 0 -89 -19 -118 -19c-23 0 -52 12 -52 35c0 16 12 48 15 70
c1 14 6 23 17 28l1 1c-11 3 -26 8 -36 14c-84 45 -110 161 -110 217c0 61 30 71 51 71c20 0 45 -10 49 -41c2 -13 0 -34 3 -61c6 -45 30 -140 94 -140c77 0 110 138 110 193c0 16 -3 30 -11 41c-49 70 -296 28 -296 221c0 100 67 190 181 190c111 0 229 -84 229 -176
c0 -45 -29 -56 -49 -56c-21 0 -46 13 -54 58c-9 60 -66 106 -126 106c-57 0 -84 -71 -84 -120c0 -165 308 -67 308 -281c0 -96 -62 -231 -185 -242z" />
    <glyph glyph-name="scedilla" unicode="&#x15f;" horiz-adv-x="469" 
d="M194 8c-81 23 -134 120 -134 179c0 45 30 55 50 55s48 -11 48 -53c0 -48 36 -122 106 -122c47 0 88 33 88 79c0 120 -278 69 -278 236c0 94 88 138 168 138c82 0 204 -45 204 -125c0 -42 -33 -53 -51 -53c-20 0 -48 13 -48 43c0 43 -61 67 -105 67c-41 0 -68 -21 -68 -61
c0 -126 269 -82 269 -238c0 -92 -94 -148 -174 -151c5 -5 7 -12 7 -19l-3 -21l26 1c66 0 170 -15 170 -82c0 -84 -163 -104 -225 -104c-69 0 -206 26 -206 110c0 39 29 47 53 47c81 0 -2 -88 149 -88c40 0 107 6 131 27c-2 19 -25 21 -40 21c-43 0 -89 -19 -118 -19
c-23 0 -52 12 -52 34c0 15 12 50 15 71c1 14 6 23 17 28h1z" />
    <glyph glyph-name="Scaron" unicode="&#x160;" horiz-adv-x="448" 
d="M232 2c-147 0 -194 147 -194 231c0 68 30 78 51 78s44 -10 49 -39c2 -13 0 -34 3 -59c5 -45 29 -144 94 -144c77 0 110 138 110 184c0 141 -307 54 -307 271c0 100 67 190 192 190c38 0 76 -8 116 -34c52 -33 102 -94 102 -147c0 -40 -29 -51 -49 -51
c-21 0 -46 12 -54 59c-6 32 -23 70 -73 92c-13 5 -34 13 -53 13c-56 0 -84 -71 -84 -121c0 -164 308 -66 308 -282c0 -103 -69 -241 -211 -241zM332 910c18 0 48 -9 48 -33c0 -11 -6 -20 -13 -26l-67 -55c-14 -11 -37 -22 -51 -22c-38 0 -142 73 -142 106c0 19 34 29 52 29
c32 0 60 -33 85 -51c23 18 53 52 88 52z" />
    <glyph glyph-name="scaron" unicode="&#x161;" horiz-adv-x="424" 
d="M231 1c-115 0 -193 98 -193 180c0 51 30 61 50 61s48 -11 48 -53c0 -49 35 -122 106 -122c47 0 88 33 88 79c0 119 -278 69 -278 236c0 95 88 138 168 138c82 0 204 -45 204 -125c0 -42 -33 -53 -51 -53c-20 0 -48 13 -48 42c0 44 -61 68 -105 68c-41 0 -68 -20 -68 -60
c0 -128 269 -82 269 -240c0 -100 -106 -151 -190 -151zM320 680c18 0 48 -9 48 -33c0 -11 -6 -20 -13 -26l-67 -55c-14 -11 -37 -22 -51 -22c-38 0 -142 73 -142 106c0 19 34 29 52 29c32 0 60 -33 85 -51c23 18 53 52 88 52z" />
    <glyph glyph-name="Tcedilla" unicode="&#x162;" horiz-adv-x="507" 
d="M231 8c-8 2 -16 17 -16 25v612h-130c-20 0 -47 12 -47 34c0 24 30 34 49 34l359 1c19 0 49 -12 49 -34c0 -23 -30 -35 -49 -35h-132l-1 -612c0 -12 -8 -17 -15 -25c10 -5 16 -13 16 -25l-3 -21l26 1c66 0 170 -15 170 -82c0 -84 -163 -104 -225 -104
c-69 0 -206 25 -206 110c0 39 29 47 53 47c81 0 -2 -88 149 -88c40 0 107 6 131 27c-1 19 -26 21 -40 21c-43 0 -87 -19 -117 -19c-24 0 -53 12 -53 37c0 16 13 45 15 66c1 15 8 24 17 30z" />
    <glyph glyph-name="tcedilla" unicode="&#x163;" horiz-adv-x="516" 
d="M246 11c-97 36 -114 172 -114 265c0 56 6 114 14 173l-34 -1c-33 0 -74 5 -74 35c0 31 42 36 76 36l42 -1l29 165c4 23 27 35 47 35c18 0 52 -12 52 -34v-1c-13 -54 -21 -110 -28 -165l46 2c41 0 92 -6 92 -37c0 -23 -28 -34 -69 -34l-78 -1c-15 -46 -18 -127 -18 -171
c0 -55 4 -212 76 -212c59 0 82 107 82 144c0 32 21 44 51 44c18 0 46 -11 46 -54c0 -69 -69 -195 -168 -198c5 -5 7 -11 7 -18l-3 -21l26 1c66 0 170 -15 170 -82c0 -84 -163 -104 -225 -104c-69 0 -206 26 -206 110c0 39 29 47 53 47c83 0 -4 -88 149 -88
c40 0 107 6 131 27c-2 19 -25 21 -40 21c-43 0 -88 -19 -118 -19c-23 0 -52 12 -52 33c0 14 12 52 15 73c2 14 6 21 17 27z" />
    <glyph glyph-name="Tcaron" unicode="&#x164;" horiz-adv-x="495" 
d="M263 -1c-20 0 -48 11 -48 34v612h-130c-20 0 -47 12 -47 34c0 24 30 34 49 34l359 1c20 0 49 -11 49 -34s-30 -35 -49 -35h-132l-1 -612c0 -24 -30 -34 -50 -34zM355 910c18 0 48 -9 48 -33c0 -11 -6 -20 -13 -26l-67 -55c-14 -11 -37 -22 -51 -22
c-38 0 -142 73 -142 106c0 19 34 29 52 29c32 0 60 -33 85 -51c23 18 53 52 88 52z" />
    <glyph glyph-name="tcaron" unicode="&#x165;" horiz-adv-x="493" 
d="M291 1c-133 0 -159 149 -159 272c0 59 6 116 14 176l-33 -1c-34 0 -75 5 -75 35c0 31 42 36 76 36l42 -1l29 165c4 23 27 35 47 35c19 0 52 -12 52 -34v-1c-13 -54 -21 -110 -28 -165l44 2c42 0 94 -6 94 -37c0 -23 -28 -34 -69 -34l-78 -1c-15 -46 -18 -127 -18 -171
c0 -55 4 -212 76 -212c59 0 82 107 82 140c0 38 30 48 49 48c21 0 48 -11 48 -55c0 -70 -70 -197 -193 -197zM395 591c-7 0 -29 1 -29 17c0 23 42 22 59 33c-21 1 -65 8 -65 36c0 30 46 41 70 41c31 0 63 -16 63 -50c0 -43 -54 -77 -98 -77z" />
    <glyph glyph-name="Tbar" unicode="&#x166;" horiz-adv-x="495" 
d="M313 33c0 -24 -31 -34 -50 -34c-20 0 -48 11 -48 34v288l-119 -3c-20 0 -37 16 -37 35c0 20 19 34 37 34l119 3v255h-130c-20 0 -47 12 -47 34c0 24 30 34 49 34l359 1c20 0 49 -11 49 -34s-30 -35 -49 -35h-132v-253l100 3c17 0 37 -17 37 -36s-20 -33 -39 -33l-99 -2
v-291z" />
    <glyph glyph-name="tbar" unicode="&#x167;" horiz-adv-x="484" 
d="M229 256c1 -47 7 -191 76 -191c59 0 82 107 82 144c0 32 21 44 51 44c18 0 46 -11 46 -55c0 -70 -71 -197 -193 -197c-125 0 -156 134 -159 252l-41 -2c-26 0 -52 5 -52 34c0 33 36 37 66 37h28c2 43 7 84 13 127l-34 -1c-33 0 -74 5 -74 35c0 31 42 36 76 36l42 -1
l29 165c4 23 27 35 47 35c18 0 52 -12 52 -34v-1c-13 -53 -21 -110 -28 -165l46 2c41 0 92 -6 92 -37c0 -23 -28 -34 -69 -34l-78 -1c-13 -38 -13 -84 -17 -123l161 4c18 0 40 -16 40 -36s-21 -33 -40 -33z" />
    <glyph glyph-name="Utilde" unicode="&#x168;" horiz-adv-x="480" 
d="M241 1c-184 0 -203 275 -203 482c0 15 0 114 10 169c11 54 32 63 52 63c23 0 52 -10 52 -35c0 -14 -8 -44 -11 -82c-3 -31 -4 -82 -4 -123c0 -85 3 -405 119 -405c120 0 115 348 116 444v111c0 74 39 89 61 89c18 0 47 -11 47 -34l-1 -644c0 -23 -31 -34 -58 -34
c-38 0 -40 23 -40 56v10c-32 -41 -83 -67 -140 -67zM305 781c-46 0 -66 20 -94 53l-5 5c-14 -29 -13 -58 -58 -58c-24 0 -49 9 -49 42c0 52 60 89 115 89c42 0 63 -21 92 -56c16 27 24 53 61 53c20 0 52 -8 52 -35l-2 -9c-22 -49 -53 -84 -112 -84z" />
    <glyph glyph-name="utilde" unicode="&#x169;" horiz-adv-x="407" 
d="M350 1c-16 0 -41 4 -43 31c-26 -21 -57 -31 -95 -31c-162 0 -174 186 -174 306c0 62 3 120 3 126c4 75 32 85 53 85c24 0 48 -12 48 -67c0 -25 -5 -78 -5 -178c0 -3 0 -204 75 -204c76 0 89 210 89 296l-1 77c0 72 37 77 53 77c25 0 54 -11 54 -34l-2 -450
c0 -23 -30 -34 -55 -34zM269 551c-46 0 -66 20 -94 53l-5 5c-14 -29 -13 -58 -58 -58c-24 0 -49 9 -49 42c0 52 60 89 115 89c42 0 63 -21 92 -56c16 27 24 53 61 53c20 0 52 -8 52 -35l-2 -9c-22 -49 -53 -84 -112 -84z" />
    <glyph glyph-name="Umacron" unicode="&#x16a;" horiz-adv-x="480" 
d="M241 1c-184 0 -203 275 -203 482c0 15 0 114 10 169c11 54 32 63 52 63c23 0 52 -10 52 -35c0 -14 -8 -44 -11 -82c-3 -31 -4 -82 -4 -123c0 -85 3 -405 119 -405c120 0 115 348 116 444v111c0 74 39 89 61 89c18 0 47 -11 47 -34l-1 -644c0 -23 -31 -34 -58 -34
c-38 0 -40 23 -40 56v10c-32 -41 -83 -67 -140 -67zM159 806c-19 0 -43 14 -43 35c0 23 30 32 49 33l195 10c19 0 43 -15 43 -36c0 -24 -29 -31 -49 -32z" />
    <glyph glyph-name="umacron" unicode="&#x16b;" horiz-adv-x="407" 
d="M350 1c-16 0 -41 4 -43 31c-26 -21 -57 -31 -95 -31c-162 0 -174 186 -174 306c0 62 3 120 3 126c4 75 32 85 53 85c24 0 48 -12 48 -67c0 -25 -5 -78 -5 -178c0 -3 0 -204 75 -204c76 0 89 210 89 296l-1 77c0 72 37 77 53 77c25 0 54 -11 54 -34l-2 -450
c0 -23 -30 -34 -55 -34zM122 576c-19 0 -43 14 -43 35c0 23 30 32 49 33l195 10c19 0 43 -15 43 -36c0 -24 -29 -31 -49 -32z" />
    <glyph glyph-name="Ubreve" unicode="&#x16c;" horiz-adv-x="480" 
d="M241 1c-184 0 -203 275 -203 482c0 15 0 114 10 169c11 54 32 63 52 63c23 0 52 -10 52 -35c0 -14 -8 -44 -11 -82c-3 -31 -4 -82 -4 -123c0 -85 3 -405 119 -405c120 0 115 348 116 444v111c0 74 39 89 61 89c18 0 47 -11 47 -34l-1 -644c0 -23 -31 -34 -58 -34
c-38 0 -40 23 -40 56v10c-32 -41 -83 -67 -140 -67zM249 770c-74 0 -107 45 -108 122c3 7 7 17 15 17c9 0 16 -13 21 -27c10 -33 28 -35 46 -35c29 0 119 5 127 43c3 5 9 11 15 11c5 0 10 -5 12 -9c-2 -73 -51 -122 -128 -122z" />
    <glyph glyph-name="ubreve" unicode="&#x16d;" horiz-adv-x="407" 
d="M350 1c-16 0 -41 4 -43 31c-26 -21 -57 -31 -95 -31c-162 0 -174 186 -174 306c0 62 3 120 3 126c4 75 32 85 53 85c24 0 48 -12 48 -67c0 -25 -5 -78 -5 -178c0 -3 0 -204 75 -204c76 0 89 210 89 296l-1 77c0 72 37 77 53 77c25 0 54 -11 54 -34l-2 -450
c0 -23 -30 -34 -55 -34zM213 540c-74 0 -107 45 -108 122c3 7 7 17 15 17c9 0 16 -13 18 -20l5 -17c10 -24 42 -25 58 -25c28 0 106 8 113 43c3 5 9 11 15 11c5 0 10 -5 12 -9c-2 -73 -51 -122 -128 -122z" />
    <glyph glyph-name="Uring" unicode="&#x16e;" horiz-adv-x="480" 
d="M241 1c-184 0 -203 275 -203 482c0 15 0 114 10 169c11 54 32 63 52 63c23 0 52 -10 52 -35c0 -14 -8 -44 -11 -82c-3 -31 -4 -82 -4 -123c0 -85 3 -405 119 -405c120 0 115 348 116 444v111c0 74 39 89 61 89c18 0 47 -11 47 -34l-1 -644c0 -23 -31 -34 -58 -34
c-38 0 -40 23 -40 56v10c-32 -41 -83 -67 -140 -67zM259 757c-52 0 -125 26 -125 87c0 62 73 86 124 86s126 -24 126 -87c0 -62 -74 -86 -125 -86zM258 795c29 0 70 14 70 48c0 35 -42 49 -70 49s-70 -14 -70 -49c0 -34 41 -48 70 -48z" />
    <glyph glyph-name="uring" unicode="&#x16f;" horiz-adv-x="407" 
d="M350 1c-16 0 -41 4 -43 31c-26 -21 -57 -31 -95 -31c-162 0 -174 186 -174 306c0 62 3 120 3 126c4 75 32 85 53 85c24 0 48 -12 48 -67c0 -25 -5 -78 -5 -178c0 -3 0 -204 75 -204c76 0 89 210 89 296l-1 77c0 72 37 77 53 77c25 0 54 -11 54 -34l-2 -450
c0 -23 -30 -34 -55 -34zM223 527c-52 0 -125 26 -125 87c0 62 73 86 124 86s126 -24 126 -87c0 -62 -74 -86 -125 -86zM222 565c29 0 70 14 70 48c0 35 -42 49 -70 49s-70 -14 -70 -49c0 -34 41 -48 70 -48z" />
    <glyph glyph-name="Uhungarumlaut" unicode="&#x170;" horiz-adv-x="480" 
d="M241 1c-184 0 -203 275 -203 482c0 15 0 114 10 169c11 54 32 63 52 63c23 0 52 -10 52 -35c0 -14 -8 -44 -11 -82c-3 -31 -4 -82 -4 -123c0 -85 3 -405 119 -405c120 0 115 348 116 444v111c0 74 39 89 61 89c18 0 47 -11 47 -34l-1 -644c0 -23 -31 -34 -58 -34
c-38 0 -40 23 -40 56v10c-32 -41 -83 -67 -140 -67zM154 817c-16 0 -32 5 -32 22c0 22 30 13 45 22l14 8c-20 0 -64 7 -64 33c0 25 38 42 71 42c21 0 62 -7 62 -49c0 -49 -58 -78 -96 -78zM305 817c-16 0 -30 5 -30 21c0 23 30 15 41 21l18 10c-20 0 -66 7 -66 34
c0 24 37 41 71 41c22 0 63 -7 63 -49c0 -49 -59 -78 -97 -78z" />
    <glyph glyph-name="uhungarumlaut" unicode="&#x171;" horiz-adv-x="407" 
d="M350 1c-16 0 -41 4 -43 31c-26 -21 -57 -31 -95 -31c-162 0 -174 186 -174 306c0 62 3 120 3 126c4 75 32 85 53 85c24 0 48 -12 48 -67c0 -25 -5 -78 -5 -178c0 -3 0 -204 75 -204c76 0 89 210 89 296l-1 77c0 72 37 77 53 77c25 0 54 -11 54 -34l-2 -450
c0 -23 -30 -34 -55 -34zM117 587c-16 0 -32 5 -32 22c0 22 30 13 45 22l14 8c-20 0 -64 7 -64 33c0 25 38 42 71 42c21 0 62 -7 62 -49c0 -49 -58 -78 -96 -78zM268 587c-16 0 -30 5 -30 21c0 23 30 15 41 21l18 10c-20 0 -66 7 -66 34c0 24 37 41 71 41c22 0 63 -7 63 -49
c0 -49 -59 -78 -97 -78z" />
    <glyph glyph-name="Uogonek" unicode="&#x172;" horiz-adv-x="482" 
d="M410 5c-25 6 -28 23 -28 42v21c-32 -41 -83 -67 -140 -67c-184 0 -203 274 -203 434c0 67 3 158 10 203c10 68 33 77 53 77c22 0 51 -10 51 -36c0 -13 -8 -41 -11 -78c-3 -33 -4 -84 -4 -125c0 -86 3 -406 117 -406c106 0 120 271 120 441c0 65 -2 115 -2 129
c0 59 39 74 61 74c19 0 47 -11 47 -34l-1 -644c0 -23 -28 -33 -47 -34c-19 -21 -34 -46 -34 -71c0 -21 12 -36 30 -36c19 0 33 14 43 14c8 0 10 -8 10 -14c0 -28 -42 -52 -73 -52c-25 0 -63 17 -63 60c0 38 29 75 64 102z" />
    <glyph glyph-name="uogonek" unicode="&#x173;" horiz-adv-x="407" 
d="M333 3c-14 4 -24 14 -26 29c-26 -21 -57 -31 -95 -31c-162 0 -174 186 -174 304c0 64 3 122 4 134c3 69 31 79 52 79c24 0 48 -12 48 -67c0 -25 -5 -78 -5 -172c0 -9 0 -210 75 -210c76 0 89 209 89 296l-1 77c0 72 37 77 53 77c25 0 54 -11 54 -34l-2 -450
c0 -24 -28 -33 -47 -34c-19 -20 -34 -46 -34 -70c0 -21 12 -36 30 -36s35 14 44 14c7 0 9 -8 9 -14c0 -29 -42 -52 -72 -52c-26 0 -64 17 -64 60c0 36 28 74 62 100z" />
    <glyph glyph-name="Wcircumflex" unicode="&#x174;" horiz-adv-x="687" 
d="M229 0c-183 0 -185 455 -185 555l1 97c0 53 30 63 50 63s47 -10 50 -106c1 -64 -4 -423 82 -538c48 38 61 107 69 156c18 123 20 240 20 304v38c0 131 31 146 53 146c17 0 46 -9 46 -98v-13c-1 -22 -5 -122 -5 -217v-18c0 -88 3 -268 75 -300c77 97 95 365 99 441
c3 81 1 141 5 164c5 31 30 41 50 41c21 0 50 -10 50 -127c0 -74 -12 -248 -51 -397c-22 -87 -61 -190 -152 -190c-57 0 -109 40 -132 89c-24 -50 -71 -90 -125 -90zM454 775c-33 0 -64 35 -87 52c-26 -18 -53 -51 -86 -51c-18 0 -51 10 -51 28c0 32 103 107 143 107
c33 0 130 -79 130 -107c0 -19 -31 -29 -49 -29z" />
    <glyph glyph-name="wcircumflex" unicode="&#x175;" horiz-adv-x="632" 
d="M435 1c-43 0 -63 12 -102 64c-29 -45 -74 -64 -124 -64c-156 0 -171 183 -171 303c0 57 3 118 4 128c5 76 32 85 50 85c19 0 49 -10 49 -71v-9c-1 -10 -4 -66 -4 -156c0 -17 0 -212 73 -212c81 0 86 233 86 305l-1 71c0 59 31 74 57 74c22 0 43 -11 43 -70l-2 -128
c0 -63 2 -252 70 -252c75 0 81 226 81 278c0 28 -2 120 -14 137c2 23 28 35 49 35c20 0 49 -11 51 -70l2 -104c0 -114 -12 -344 -197 -344zM423 545c-33 0 -64 35 -87 52c-26 -18 -53 -51 -86 -51c-18 0 -51 10 -51 28c0 32 103 107 143 107c33 0 130 -79 130 -107
c0 -19 -31 -29 -49 -29z" />
    <glyph glyph-name="Ycircumflex" unicode="&#x176;" horiz-adv-x="486" 
d="M223 -2c-21 0 -49 10 -49 21c0 22 110 320 123 358c-29 -36 -67 -64 -120 -64c-117 0 -139 138 -139 255c0 7 0 125 40 142c6 2 16 4 25 4c21 0 49 -10 49 -34l-2 -9c-9 -38 -11 -77 -11 -114c0 -47 3 -145 42 -174c74 47 138 216 182 281c22 32 46 49 71 49
c24 0 50 -14 52 -40l-148 -453c-10 -32 -55 -175 -69 -199c-9 -15 -28 -23 -46 -23zM350 775c-33 0 -64 35 -87 52c-26 -18 -53 -51 -86 -51c-18 0 -51 10 -51 28c0 32 103 107 143 107c33 0 130 -79 130 -107c0 -19 -31 -29 -49 -29z" />
    <glyph glyph-name="ycircumflex" unicode="&#x177;" horiz-adv-x="454" 
d="M242 -322c-96 0 -200 74 -200 171c0 78 66 138 134 138c50 0 124 -32 124 -98c0 -37 -24 -85 -67 -85c-20 0 -51 11 -51 33c0 17 20 27 20 53c0 16 -9 29 -25 29c-28 0 -38 -35 -38 -61c0 -55 43 -106 99 -106c114 0 118 234 118 323v41c-52 -45 -123 -80 -189 -80
c-107 0 -129 96 -129 184c0 77 17 199 41 253c17 38 39 44 53 44c15 0 41 -7 41 -52c0 -14 -2 -31 -8 -52c-5 -18 -32 -113 -32 -226c0 -4 0 -83 57 -83c34 0 84 28 114 70c16 23 44 77 44 110l-16 202c0 20 35 30 54 30c18 0 42 -10 56 -151c0 0 12 -117 12 -245
c0 -127 -12 -442 -212 -442zM334 545c-33 0 -64 35 -87 52c-26 -18 -53 -51 -86 -51c-18 0 -51 10 -51 28c0 32 103 107 143 107c33 0 130 -79 130 -107c0 -19 -31 -29 -49 -29z" />
    <glyph glyph-name="Ydieresis" unicode="&#x178;" horiz-adv-x="486" 
d="M223 -2c-21 0 -49 10 -49 21c0 22 110 320 123 358c-29 -36 -67 -64 -120 -64c-117 0 -139 138 -139 255c0 7 0 125 40 142c6 2 16 4 25 4c21 0 49 -10 49 -34l-2 -9c-9 -38 -11 -77 -11 -114c0 -47 3 -145 42 -174c74 47 138 216 182 281c22 32 46 49 71 49
c24 0 50 -14 52 -40l-148 -453c-10 -32 -55 -175 -69 -199c-9 -15 -28 -23 -46 -23zM195 708c-26 0 -63 14 -63 44c0 31 39 44 63 44c26 0 64 -14 64 -44c0 -31 -40 -44 -64 -44zM329 708c-26 0 -63 14 -63 44c0 31 38 44 62 44c26 0 65 -15 65 -44c0 -31 -40 -44 -64 -44z
" />
    <glyph glyph-name="Zacute" unicode="&#x179;" horiz-adv-x="482" 
d="M139 1c-55 0 -101 19 -101 76c0 156 345 445 345 543c0 25 -22 28 -39 28c-65 0 -164 -47 -208 -47c-21 0 -50 10 -50 33c0 7 3 13 5 16c25 33 224 64 287 64c31 0 104 -7 104 -71c0 -139 -344 -429 -344 -547c0 -20 10 -31 37 -31c75 0 191 81 251 81
c22 0 52 -10 52 -35c0 -14 -10 -22 -61 -40c-55 -19 -187 -70 -278 -70zM241 776c-20 0 -50 9 -50 31c0 10 7 23 14 27l110 67c11 7 20 10 31 10c22 0 52 -11 52 -33c0 -10 -6 -20 -35 -38l-72 -46c-26 -15 -38 -18 -50 -18z" />
    <glyph glyph-name="zacute" unicode="&#x17a;" horiz-adv-x="364" 
d="M131 0c-38 0 -93 11 -93 45c0 72 231 318 231 388c0 17 -12 17 -19 17c-56 0 -106 -33 -137 -33c-16 0 -46 10 -46 31c0 47 146 70 183 70c27 0 87 -11 103 -34c7 -10 10 -27 10 -41c0 -103 -160 -271 -218 -373c57 8 113 38 164 38c26 0 55 -8 55 -31
c0 -49 -199 -77 -233 -77zM182 546c-20 0 -50 9 -50 31c0 10 7 23 14 27l110 67c11 7 20 10 31 10c22 0 52 -11 52 -33c0 -10 -6 -20 -35 -38l-72 -46c-26 -15 -38 -18 -50 -18z" />
    <glyph glyph-name="Zdotaccent" unicode="&#x17b;" horiz-adv-x="482" 
d="M139 1c-55 0 -101 19 -101 76c0 156 345 445 345 543c0 25 -22 28 -39 28c-65 0 -164 -47 -208 -47c-21 0 -50 10 -50 33c0 7 3 13 5 16c25 33 224 64 287 64c31 0 104 -7 104 -71c0 -139 -344 -429 -344 -547c0 -20 10 -31 37 -31c75 0 191 81 251 81
c22 0 52 -10 52 -35c0 -14 -10 -22 -61 -40c-55 -19 -187 -70 -278 -70zM259 804c-25 0 -62 14 -62 43c0 30 40 45 64 45s63 -15 63 -44c0 -30 -40 -44 -65 -44z" />
    <glyph glyph-name="zdotaccent" unicode="&#x17c;" horiz-adv-x="364" 
d="M131 0c-38 0 -93 11 -93 45c0 72 231 318 231 388c0 17 -12 17 -19 17c-56 0 -106 -33 -137 -33c-16 0 -46 10 -46 31c0 47 146 70 183 70c27 0 87 -11 103 -34c7 -10 10 -27 10 -41c0 -103 -160 -271 -218 -373c57 8 113 38 164 38c26 0 55 -8 55 -31
c0 -49 -199 -77 -233 -77zM200 574c-25 0 -62 14 -62 43c0 30 40 45 64 45s63 -15 63 -44c0 -30 -40 -44 -65 -44z" />
    <glyph glyph-name="Zcaron" unicode="&#x17d;" horiz-adv-x="482" 
d="M139 1c-55 0 -101 19 -101 76c0 156 345 445 345 543c0 25 -22 28 -39 28c-65 0 -164 -47 -208 -47c-21 0 -50 10 -50 33c0 7 3 13 5 16c25 33 224 64 287 64c31 0 104 -7 104 -71c0 -139 -344 -429 -344 -547c0 -20 10 -31 37 -31c75 0 191 81 251 81
c22 0 52 -10 52 -35c0 -14 -10 -22 -61 -40c-55 -19 -187 -70 -278 -70zM349 910c18 0 48 -9 48 -33c0 -11 -6 -20 -13 -26l-67 -55c-14 -11 -37 -22 -51 -22c-38 0 -142 73 -142 106c0 19 34 29 52 29c32 0 60 -33 85 -51c23 18 53 52 88 52z" />
    <glyph glyph-name="zcaron" unicode="&#x17e;" horiz-adv-x="364" 
d="M131 0c-38 0 -93 11 -93 45c0 72 231 318 231 388c0 17 -12 17 -19 17c-56 0 -106 -33 -137 -33c-16 0 -46 10 -46 31c0 47 146 70 183 70c27 0 87 -11 103 -34c7 -10 10 -27 10 -41c0 -103 -160 -271 -218 -373c57 8 113 38 164 38c26 0 55 -8 55 -31
c0 -49 -199 -77 -233 -77zM290 680c18 0 48 -9 48 -33c0 -11 -6 -20 -13 -26l-67 -55c-14 -11 -37 -22 -51 -22c-38 0 -142 73 -142 106c0 19 34 29 52 29c32 0 60 -33 85 -51c23 18 53 52 88 52z" />
    <glyph glyph-name="longs" unicode="&#x17f;" horiz-adv-x="350" 
d="M92 -196c-20 0 -45 10 -49 58l-1 163l-4 197c0 114 15 332 38 404c15 43 51 93 123 93c34 0 64 -12 97 -36c9 -6 54 -38 54 -61c0 -20 -32 -32 -52 -32c-40 0 -59 50 -93 50c-57 0 -60 -135 -64 -197c-1 -33 -6 -97 -6 -186c0 -122 9 -271 9 -331
c0 -112 -32 -122 -52 -122z" />
    <glyph glyph-name="circumflex" unicode="&#x2c6;" horiz-adv-x="311" 
d="M262 545c-33 0 -64 35 -87 52c-26 -18 -53 -51 -86 -51c-18 0 -51 10 -51 28c0 32 103 107 143 107c33 0 130 -79 130 -107c0 -19 -31 -29 -49 -29z" />
    <glyph glyph-name="caron" unicode="&#x2c7;" horiz-adv-x="311" 
d="M263 680c18 0 48 -9 48 -33c0 -11 -6 -20 -13 -26l-67 -55c-14 -11 -37 -22 -51 -22c-38 0 -142 73 -142 106c0 19 34 29 52 29c32 0 60 -33 85 -51c23 18 53 52 88 52z" />
    <glyph glyph-name="macron_" unicode="&#x2c9;" horiz-adv-x="325" 
d="M81 576c-19 0 -43 14 -43 35c0 23 30 32 49 33l195 10c19 0 43 -15 43 -36c0 -24 -29 -31 -49 -32z" />
    <glyph glyph-name="breve" unicode="&#x2d8;" horiz-adv-x="274" 
d="M146 540c-74 0 -107 45 -108 122c3 7 7 17 15 17c9 0 16 -13 21 -27c10 -33 28 -35 46 -35c29 0 119 5 127 43c3 5 9 11 15 11c5 0 10 -5 12 -9c-2 -73 -51 -122 -128 -122z" />
    <glyph glyph-name="dotaccent" unicode="&#x2d9;" horiz-adv-x="165" 
d="M100 574c-25 0 -62 14 -62 43c0 30 40 45 64 45s63 -15 63 -44c0 -30 -40 -44 -65 -44z" />
    <glyph glyph-name="ring" unicode="&#x2da;" horiz-adv-x="288" 
d="M163 527c-52 0 -125 26 -125 87c0 62 73 86 124 86s126 -24 126 -87c0 -62 -74 -86 -125 -86zM162 565c29 0 70 14 70 48c0 35 -42 49 -70 49s-70 -14 -70 -49c0 -34 41 -48 70 -48z" />
    <glyph glyph-name="ogonek" unicode="&#x2db;" horiz-adv-x="174" 
d="M101 -157c-26 0 -63 17 -63 54c0 35 33 97 71 111h23c-23 -22 -41 -48 -41 -77c0 -22 11 -36 30 -36s36 14 45 14c7 0 8 -8 8 -12c0 -30 -43 -54 -73 -54z" />
    <glyph glyph-name="tilde" unicode="&#x2dc;" horiz-adv-x="358" 
d="M244 551c-46 0 -66 20 -94 53l-5 5c-14 -29 -13 -58 -58 -58c-24 0 -49 9 -49 42c0 52 60 89 115 89c42 0 63 -21 92 -56c16 27 24 53 61 53c20 0 52 -8 52 -35l-2 -9c-22 -49 -53 -84 -112 -84z" />
    <glyph glyph-name="hungarumlaut" unicode="&#x2dd;" horiz-adv-x="323" 
d="M75 587c-16 0 -32 5 -32 22c0 22 30 13 45 22l14 8c-20 0 -64 7 -64 33c0 25 38 42 71 42c21 0 62 -7 62 -49c0 -49 -58 -78 -96 -78zM226 587c-16 0 -30 5 -30 21c0 23 30 15 41 21l18 10c-20 0 -66 7 -66 34c0 24 37 41 71 41c22 0 63 -7 63 -49c0 -49 -59 -78 -97 -78
z" />
    <glyph glyph-name="endash" unicode="&#x2013;" horiz-adv-x="624" 
d="M94 197c-20 0 -56 10 -56 35c0 24 38 34 56 34l471 8c19 0 59 -11 59 -35s-40 -34 -59 -34z" />
    <glyph glyph-name="emdash" unicode="&#x2014;" horiz-adv-x="1151" 
d="M146 197c-21 0 -108 7 -108 35s88 34 108 34l894 8c20 0 111 -8 111 -35c0 -28 -91 -34 -111 -34z" />
    <glyph glyph-name="quoteleft" unicode="&#x2018;" horiz-adv-x="171" 
d="M99 587c-30 0 -61 15 -61 49c0 44 54 79 97 79c9 0 30 -1 30 -18c0 -23 -43 -22 -59 -33c20 -1 65 -8 65 -36c0 -29 -45 -41 -72 -41z" />
    <glyph glyph-name="quoteright" unicode="&#x2019;" horiz-adv-x="171" 
d="M75 587c-16 0 -32 5 -32 22c0 22 30 13 45 22l14 8c-20 0 -64 7 -64 33c0 25 38 42 71 42c21 0 62 -7 62 -49c0 -49 -58 -78 -96 -78z" />
    <glyph glyph-name="quotesinglbase" unicode="&#x201a;" horiz-adv-x="171" 
d="M72 -51c-7 0 -29 1 -29 18c0 24 43 21 59 33c-20 1 -64 8 -64 36s47 40 72 40c29 0 61 -16 61 -49c0 -44 -53 -78 -99 -78z" />
    <glyph glyph-name="quotedblleft" unicode="&#x201c;" horiz-adv-x="323" 
d="M99 587c-30 0 -61 15 -61 49c0 44 54 79 97 79c9 0 30 -1 30 -18c0 -23 -43 -22 -59 -33c20 -1 65 -8 65 -36c0 -29 -45 -41 -72 -41zM251 587c-30 0 -61 16 -61 50c0 45 53 78 97 78c9 0 30 -1 30 -18c0 -24 -43 -21 -58 -33c20 -1 64 -8 64 -36c0 -29 -46 -41 -72 -41z
" />
    <glyph glyph-name="quotedblright" unicode="&#x201d;" horiz-adv-x="323" 
d="M75 587c-16 0 -32 5 -32 22c0 22 30 13 45 22l14 8c-20 0 -64 7 -64 33c0 25 38 42 71 42c21 0 62 -7 62 -49c0 -49 -58 -78 -96 -78zM226 587c-16 0 -30 5 -30 21c0 23 30 15 41 21l18 10c-20 0 -66 7 -66 34c0 24 37 41 71 41c22 0 63 -7 63 -49c0 -49 -59 -78 -97 -78
z" />
    <glyph glyph-name="quotedblbase" unicode="&#x201e;" horiz-adv-x="323" 
d="M73 -55c-7 0 -30 1 -30 18c0 23 43 21 59 33c-21 1 -64 6 -64 35s47 41 71 41c30 0 62 -18 62 -51c0 -42 -54 -76 -98 -76zM223 -55c-6 0 -27 1 -27 17c0 25 43 23 59 34c-21 1 -66 6 -66 35s47 41 71 41c29 0 63 -17 63 -51c0 -42 -54 -76 -100 -76z" />
    <glyph glyph-name="bullet" unicode="&#x2022;" horiz-adv-x="454" 
d="M244 206c-84 0 -206 43 -206 144c0 102 125 145 207 145c84 0 209 -45 209 -145c0 -99 -126 -144 -210 -144z" />
    <glyph glyph-name="ellipsis" unicode="&#x2026;" horiz-adv-x="1132" 
d="M101 1c-25 0 -63 15 -63 44c0 30 39 44 64 44c24 0 63 -13 63 -43s-40 -45 -64 -45zM582 1c-25 0 -64 14 -64 44c0 31 40 44 65 44c24 0 62 -13 62 -43c0 -31 -38 -45 -63 -45zM1069 1c-25 0 -64 15 -64 44c0 31 40 44 64 44c25 0 63 -14 63 -44s-38 -44 -63 -44z" />
    <glyph glyph-name="guilsinglleft" unicode="&#x2039;" horiz-adv-x="284" 
d="M236 110c-39 0 -198 82 -198 118c0 32 127 129 152 145c15 10 31 13 42 13c16 0 52 -5 52 -23c0 -4 -3 -7 -13 -15c-32 -25 -109 -74 -134 -116c27 -37 146 -85 146 -105c0 -10 -36 -17 -47 -17z" />
    <glyph glyph-name="guilsinglright" unicode="&#x203a;" horiz-adv-x="284" 
d="M90 110c-15 0 -51 7 -51 17c0 20 119 68 146 105c-28 44 -100 90 -134 115c-10 9 -13 12 -13 16c0 18 36 23 52 23c11 0 27 -3 41 -12c26 -16 153 -114 153 -146c0 -30 -149 -118 -194 -118z" />
    <glyph glyph-name="fraction" unicode="&#x2044;" horiz-adv-x="363" 
d="M87 0c-22 0 -49 9 -49 35l1 7l81 234c34 98 67 196 89 255c27 74 41 123 53 148c14 27 33 34 51 34c23 0 50 -10 50 -36l-1 -8c-14 -49 -37 -99 -67 -183l-161 -462c-7 -19 -30 -24 -47 -24z" />
    <glyph glyph-name="fraction" unicode="&#x2215;" horiz-adv-x="363" 
d="M87 0c-22 0 -49 9 -49 35l1 7l81 234c34 98 67 196 89 255c27 74 41 123 53 148c14 27 33 34 51 34c23 0 50 -10 50 -36l-1 -8c-14 -49 -37 -99 -67 -183l-161 -462c-7 -19 -30 -24 -47 -24z" />
    <glyph glyph-name="franc" unicode="&#x20a3;" horiz-adv-x="428" 
d="M187 2c-20 0 -47 9 -47 34v216l-42 -2c-29 0 -60 5 -60 34c0 34 46 37 77 37h25l1 341c-4 5 -5 10 -5 15c0 24 30 34 49 34l196 2c21 0 47 -9 47 -34c0 -26 -27 -34 -48 -34l-141 -2v-146l139 4c21 0 46 -12 46 -35c0 -25 -28 -34 -48 -34l-137 -3v-106l35 1
c29 0 60 -5 60 -33c0 -33 -44 -36 -74 -36h-22v-219c0 -25 -30 -34 -51 -34z" />
    <glyph glyph-name="lira" unicode="&#x20a4;" horiz-adv-x="415" 
d="M242 4c-26 0 -54 3 -82 9c-12 -5 -24 -7 -35 -7c-32 0 -87 18 -87 53c0 26 32 38 53 38l23 -2c0 103 -20 204 -20 303c0 120 27 313 181 313c63 0 139 -33 139 -99c0 -38 -25 -66 -59 -66c-20 0 -50 9 -50 32c0 8 4 15 5 17l5 14c0 16 -14 34 -38 34
c-74 0 -85 -184 -85 -240l125 10c20 0 45 -12 45 -35c0 -25 -30 -33 -49 -34l-119 -9c2 -71 21 -139 21 -211c0 -16 -1 -33 -4 -49c11 -1 24 -3 38 -3c111 0 20 124 115 124c24 0 51 -8 51 -58c0 -80 -68 -134 -173 -134z" />
    <glyph glyph-name="peseta" unicode="&#x20a7;" horiz-adv-x="1029" 
d="M82 -2c-19 0 -44 14 -44 34l1 649c0 23 27 34 46 34c23 0 42 -15 42 -39c37 25 78 38 114 38c109 0 153 -100 163 -196h7l29 165c4 22 28 35 49 35c19 0 50 -12 50 -33c0 -18 -25 -137 -29 -167l47 2c41 0 92 -6 92 -37c0 -23 -28 -34 -68 -34l-79 -1
c-15 -57 -18 -118 -18 -157c0 -64 7 -226 79 -226c57 0 78 105 78 137c0 40 32 51 53 51c26 0 47 -16 47 -58c0 -55 36 -128 106 -128c47 0 88 33 88 78c0 120 -278 70 -278 238c0 94 87 137 167 137c82 0 205 -45 205 -125c0 -41 -32 -53 -51 -53s-49 13 -49 43
c0 42 -56 67 -104 67c-40 0 -68 -17 -68 -58c0 -130 270 -85 270 -243c0 -100 -107 -150 -195 -150c-58 0 -108 23 -143 72c-33 -44 -66 -72 -129 -72c-146 0 -172 149 -172 281c0 23 1 56 4 89c-24 -94 -83 -210 -194 -210c-26 0 -50 6 -72 15v-144c0 -22 -26 -34 -44 -34z
M197 232c85 0 116 149 119 223c-13 6 -23 15 -23 29s10 23 21 28c-4 45 -17 109 -61 133l-13 1c-38 0 -91 -45 -101 -65c-12 -22 -13 -91 -13 -130l1 -110c0 -73 28 -109 70 -109z" />
    <glyph glyph-name="Euro" unicode="&#x20ac;" horiz-adv-x="398" 
d="M231 -1c-117 0 -144 172 -148 262c-19 0 -45 13 -45 36c0 21 23 28 41 31l1 50c-17 4 -37 15 -37 35c0 21 25 30 42 32c0 75 49 264 145 264c30 0 59 -19 82 -37c29 0 50 -21 50 -50s-23 -55 -56 -55c-37 0 -52 32 -71 62c-35 -50 -47 -120 -51 -180l150 4
c21 0 47 -9 47 -34s-29 -33 -49 -34l-154 -5v-46c46 3 93 7 118 7c42 0 66 -11 66 -33c0 -25 -29 -34 -48 -35l-133 -7c2 -62 12 -142 52 -193c19 22 49 83 76 83c24 0 89 -49 89 -77c0 -18 -28 -29 -47 -29c-8 0 -16 2 -23 3c-21 -32 -55 -54 -97 -54z" />
    <glyph glyph-name="numero" unicode="&#x2116;" horiz-adv-x="770" 
d="M379 1c-120 0 -205 249 -242 341l-1 -307c0 -24 -30 -34 -50 -34c-19 0 -48 11 -48 34l1 645c0 23 31 34 49 34c22 0 65 -16 65 -90c0 -116 106 -380 202 -514c19 152 22 306 22 439l-1 102c0 56 30 67 51 67c22 0 47 -12 48 -68l1 -145c0 -22 0 -473 -75 -501
c-5 -2 -15 -3 -22 -3zM504 214c-17 0 -27 19 -27 34c0 16 11 34 28 35l236 8c17 0 29 -20 29 -36s-12 -32 -30 -33zM609 368c-88 0 -115 99 -115 160c0 80 46 152 131 152c73 0 107 -79 107 -152c0 -86 -48 -160 -123 -160zM612 410c46 0 58 85 58 124c0 30 -7 103 -54 103
s-58 -76 -58 -112c0 -31 8 -115 54 -115z" />
    <glyph glyph-name="trademark" unicode="&#x2122;" horiz-adv-x="482" 
d="M139 464c-8 0 -21 4 -21 14v244h-59c-8 0 -21 4 -21 14s14 14 22 14h161c9 0 22 -3 22 -13s-15 -15 -22 -15h-59v-244c0 -10 -15 -14 -23 -14zM455 464c-8 0 -22 4 -22 14l1 128c-12 -28 -34 -88 -72 -88c-33 0 -52 43 -63 66l-1 -106c0 -10 -14 -13 -21 -13
c-8 0 -23 4 -23 13l1 258c0 10 14 13 21 13c10 0 26 -5 26 -32c0 -35 28 -125 61 -163c36 44 64 182 75 192c2 1 9 4 16 4c6 0 22 -3 23 -37v-235c0 -10 -14 -14 -22 -14z" />
    <glyph glyph-name="summation" unicode="&#x2211;" horiz-adv-x="346" 
d="M160 -3c-61 0 -122 7 -122 73c0 95 122 256 122 321c0 60 -104 214 -104 274c0 38 42 48 66 48l180 -1c20 0 44 -12 44 -34c0 -34 -59 -37 -100 -37l-84 2c23 -57 96 -183 96 -246c0 -71 -95 -227 -123 -331h160c20 0 48 -10 48 -36c0 -23 -25 -32 -73 -32z" />
    <glyph glyph-name="minus" unicode="&#x2212;" horiz-adv-x="325" 
d="M81 277c-18 0 -43 15 -43 36c0 23 30 31 49 32l195 10c19 0 43 -15 43 -36c0 -23 -30 -31 -49 -32z" />
    <glyph glyph-name="g.ss1" unicode="&#xe000;" horiz-adv-x="453" 
d="M263 -296c-96 0 -192 68 -192 170c0 78 58 130 138 130c62 0 116 -31 116 -97c0 -46 -25 -88 -68 -88c-23 0 -58 12 -58 37s39 21 39 51c0 11 -5 33 -27 33c-28 0 -48 -39 -48 -76c0 -56 46 -95 86 -95c102 0 110 251 110 309v22c-47 -40 -111 -70 -171 -70
c-79 0 -120 53 -120 139c0 87 41 349 179 349c24 0 47 -8 70 -22c12 15 29 22 49 22c23 0 42 -9 57 -68c20 -82 30 -246 30 -358s-10 -388 -190 -388zM201 97c74 0 141 94 141 164c0 45 -27 183 -79 183c-69 0 -102 -236 -102 -305v-2c0 -13 1 -40 40 -40z" />
    <glyph glyph-name="j.ss1" unicode="&#xe001;" horiz-adv-x="268" 
d="M-93 -301c-64 0 -139 34 -139 103c0 70 79 93 126 93c31 0 60 -11 60 -35c0 -42 -89 -12 -89 -54c0 -17 16 -39 45 -39c92 0 95 229 95 287c0 132 -15 254 -19 285c-13 109 -16 124 -16 137c0 33 23 42 45 42c23 0 53 -10 53 -52c0 -16 5 -53 11 -104
c9 -83 17 -183 17 -285c0 -127 -13 -378 -189 -378zM-1 557c-26 0 -64 14 -64 43c0 31 40 45 65 45c24 0 62 -14 62 -44c0 -31 -39 -44 -63 -44z" />
    <glyph glyph-name="y.ss1" unicode="&#xe002;" horiz-adv-x="484" 
d="M272 -322c-96 0 -200 74 -200 171c0 78 66 138 134 138c50 0 124 -32 124 -98c0 -37 -24 -85 -67 -85c-20 0 -51 11 -51 33c0 17 20 27 20 53c0 16 -9 29 -25 29c-28 0 -38 -35 -38 -61c0 -55 43 -106 99 -106c114 0 118 234 118 323v41c-52 -45 -123 -80 -189 -80
c-107 0 -129 96 -129 184c0 77 17 199 41 253c17 38 39 44 53 44c15 0 41 -7 41 -52c0 -14 -2 -31 -8 -52c-5 -18 -32 -113 -32 -226c0 -4 0 -83 57 -83c34 0 84 28 114 70c16 23 44 77 44 110l-16 202c0 20 35 30 54 30c18 0 42 -10 56 -151c0 0 12 -117 12 -245
c0 -127 -12 -442 -212 -442z" />
    </font>
</defs>
</svg>
