<?xml version="1.0" standalone="no"?>
<!DOCTYPE svg PUBLIC "-//W3C//DTD SVG 1.1//EN" "http://www.w3.org/Graphics/SVG/1.1/DTD/svg11.dtd" >
<svg xmlns="http://www.w3.org/2000/svg" xmlns:xlink="http://www.w3.org/1999/xlink" version="1.1">
<metadata>
Created by FontForge 20170924 at Mon Jul  7 17:12:54 2014
 By www-data
</metadata>
<defs>
<font id="KGMissKindergarten" horiz-adv-x="635" >
  <font-face 
    font-family="KG Miss Kindergarten"
    font-weight="400"
    font-stretch="normal"
    units-per-em="1024"
    panose-1="2 0 0 0 0 0 0 0 0 0"
    ascent="819"
    descent="-205"
    x-height="583"
    cap-height="853"
    bbox="-243.667 -261.781 1124.11 1081.38"
    underline-thickness="0"
    underline-position="0"
    unicode-range="U+0020-2212"
  />
<missing-glyph horiz-adv-x="350" 
 />
    <glyph glyph-name=".notdef" horiz-adv-x="350" 
 />
    <glyph glyph-name=".null" horiz-adv-x="0" 
 />
    <glyph glyph-name="nonmarkingreturn" horiz-adv-x="350" 
 />
    <glyph glyph-name="space" unicode=" " horiz-adv-x="350" 
 />
    <glyph glyph-name="space" unicode="&#xa0;" horiz-adv-x="350" 
 />
    <glyph glyph-name="percent" unicode="%" horiz-adv-x="729" 
d="M121 501q-31 11 -50 39.5t-26 64.5t-3 75.5t19.5 73t42 57t63.5 27.5q34 4 64 -4t52.5 -26t36.5 -45.5t16 -61.5q3 -52 -15 -95.5t-49 -71.5t-71 -38t-80 5zM216 768q-26 9 -47 -0.5t-35 -30t-21 -47t-5.5 -51.5t11.5 -45t30 -26q30 -10 52.5 -1t37 29t20.5 47t3 52.5
t-14.5 45.5t-31.5 27zM464 838q6 17 20.5 19t28.5 -4.5t24 -18.5t7 -23q-6 -21 -26.5 -79t-48.5 -136.5t-60 -168t-60.5 -172.5t-51 -150.5t-31.5 -102.5q-5 -19 -21.5 -25t-33 -1.5t-28 17.5t-6.5 31zM475 3q-31 11 -50 39.5t-26 64.5t-3 75.5t19.5 73t42 57t63.5 27.5
q34 4 64 -4t52.5 -26t36.5 -45.5t16 -61.5q3 -52 -15 -95.5t-49 -71.5t-71 -38t-80 5zM570 270q-26 9 -47 -0.5t-35 -30t-21 -47t-5.5 -51.5t11.5 -45t30 -26q30 -10 52.5 -1t37 29t20.5 47t3 52.5t-14.5 45.5t-31.5 27z" />
    <glyph glyph-name="ampersand" unicode="&#x26;" horiz-adv-x="675" 
d="M609 53q11 -17 5.5 -32t-17.5 -23.5t-27 -8.5t-24 13q-12 18 -22.5 30.5t-20 22.5t-19.5 19.5t-21 21.5q-48 -41 -101.5 -68.5t-105.5 -37t-100.5 2t-85.5 50.5q-26 27 -37.5 70t0 96.5t51 113t114.5 119.5q-29 43 -47 90t-24.5 93t-1 87t24.5 71t52 46t82 12
q50 -5 79 -30t40.5 -62.5t7 -82.5t-19.5 -89t-40 -83t-54 -64q40 -50 83.5 -103.5t85.5 -98.5q32 32 53.5 75.5t40.5 94.5q9 25 27 34.5t33.5 5t22.5 -23t-7 -50.5q-16 -35 -29 -60t-26 -47.5t-28 -46t-34 -54.5q0 -5 12.5 -19t28 -30.5t30 -31.5t19.5 -22zM123 96
q21 -31 58.5 -36t80.5 8t84.5 39t68.5 58q-20 22 -45.5 52.5t-50.5 61.5t-46.5 59t-33.5 46q-41 -26 -72 -62.5t-47.5 -76.5t-17 -79t20.5 -70zM258 490q15 8 30.5 30.5t28 51.5t19 62t5 62t-14 49.5t-39.5 26.5q-39 8 -62.5 -14t-28 -63t10 -95t51.5 -110z" />
    <glyph glyph-name="quotesingle" unicode="'" horiz-adv-x="214" 
d="M132 490q-9 -20 -27.5 -22t-34.5 7t-23.5 26t5.5 34q10 14 20 32.5t12 40.5t-6.5 47t-33.5 52q-10 10 -4 23.5t19.5 22t30 9t28.5 -14.5q83 -106 14 -257z" />
    <glyph glyph-name="parenleft" unicode="(" horiz-adv-x="366" 
d="M292 -54q16 -2 21.5 -15t3 -27.5t-11.5 -26.5t-22 -10q-65 7 -112 38.5t-78.5 78.5t-49.5 106t-25.5 121.5t-6 124.5t8.5 115q10 78 33.5 152.5t58 141.5t79 124.5t97.5 99.5q15 12 28.5 6t22 -19.5t9 -30t-9.5 -24.5q-45 -36 -84 -89t-69 -114.5t-50.5 -127
t-29.5 -125.5q-6 -37 -7.5 -87.5t3 -104.5t16.5 -107t35 -95.5t57 -71t83 -33.5z" />
    <glyph glyph-name="parenright" unicode=")" horiz-adv-x="382" 
d="M65 -54q49 5 83 33.5t57 71t35 95.5t16.5 107t2.5 104t-7 88q-9 60 -29.5 125.5t-50.5 127t-69 114.5t-84 89q-11 8 -10 24.5t9.5 30t22 19.5t28.5 -6q53 -42 97.5 -99.5t79 -124.5t58 -141.5t33.5 -152.5q7 -53 8.5 -115t-6 -124.5t-25.5 -121.5t-49.5 -106t-78.5 -78.5
t-112 -38.5q-14 -2 -23 10t-11 26.5t3.5 27.5t21.5 15z" />
    <glyph glyph-name="asterisk" unicode="*" horiz-adv-x="358" 
d="M204 397q-17 -39 -37 -50t-32 0q-10 9 -12 31t9 55q-39 2 -57.5 15t-16.5 28q2 14 19 25t51 11q-4 46 5 69.5t24 25.5q14 2 31 -15.5t31 -54.5q38 20 61.5 19.5t29.5 -13.5t-6 -34t-44 -41q26 -35 32 -59t-4 -35t-32 -6t-52 29z" />
    <glyph glyph-name="plus" unicode="+" horiz-adv-x="542" 
d="M311 351q-2 -35 -2.5 -71.5t1.5 -72.5q0 -20 -14 -30t-31.5 -10.5t-32.5 9t-15 28.5l8 147h-143q-18 -1 -25 12t-5.5 29t9.5 29.5t20 13.5q29 2 67.5 1.5t81.5 -0.5l9 158q0 18 13.5 24t29 4t28.5 -11t13 -21q-1 -29 -3.5 -68.5t-4.5 -84.5q36 1 73.5 2.5t75.5 4.5
q20 1 31 -12.5t12.5 -30.5t-7 -32.5t-27.5 -16.5z" />
    <glyph glyph-name="comma" unicode="," horiz-adv-x="193" 
d="M130 -139q-9 -20 -27.5 -22t-34.5 7t-23.5 26t5.5 34q10 14 20 32.5t12 40.5t-6.5 47t-33.5 52q-10 10 -4 23.5t19.5 22t30 9t28.5 -14.5q83 -106 14 -257z" />
    <glyph glyph-name="hyphen" unicode="-" horiz-adv-x="552" 
d="M94 339q-18 -1 -25 12t-5.5 29t9.5 29.5t20 13.5q32 1 76 1h94t104.5 1.5t108.5 6.5q20 1 31 -12.5t12.5 -30.5t-7 -32.5t-27.5 -16.5z" />
    <glyph glyph-name="period" unicode="." horiz-adv-x="175" 
d="M136 59q10 -15 0.5 -31t-27 -25t-37.5 -7t-30 22q-10 21 -1.5 36.5t25.5 23t37 3.5t33 -22z" />
    <glyph glyph-name="slash" unicode="/" horiz-adv-x="398" 
d="M303 838q6 17 20.5 19t28.5 -4.5t24 -18.5t7 -23q-6 -21 -26.5 -79t-48.5 -136.5t-60 -168t-60.5 -172.5t-51 -150.5t-31.5 -102.5q-5 -19 -21.5 -25t-33 -1.5t-28 17.5t-6.5 31z" />
    <glyph glyph-name="zero" unicode="0" horiz-adv-x="640" 
d="M279 -1q-77 7 -126.5 46.5t-77.5 98.5t-38 131.5t-8 144.5q1 50 10.5 102t27.5 100.5t44.5 91t62.5 73t81 47t101 13.5q59 -3 103 -26t74.5 -58t49.5 -80.5t28 -93.5q12 -63 11 -133t-15 -137.5t-41 -128.5t-68 -105.5t-95.5 -68.5t-123.5 -17zM283 75q50 -7 90 13.5
t70 57.5t51 86.5t32.5 102.5t14 104.5t-3.5 92.5q-7 43 -19.5 85t-35 74.5t-56.5 53t-83 21.5q-45 1 -79 -17t-59.5 -48t-43 -68.5t-28.5 -77t-16.5 -74t-7.5 -60.5q-3 -48 4 -105.5t27 -108.5t55 -88t88 -44z" />
    <glyph glyph-name="one" unicode="1" horiz-adv-x="165" 
d="M41 828q0 18 13 25t29 6t29 -9t13 -20q1 -21 0.5 -78.5t-2 -133.5t-2.5 -162.5t-2 -167.5t-0.5 -147.5t3.5 -102.5q1 -19 -13 -30t-31 -12.5t-32 6.5t-16 27z" />
    <glyph glyph-name="two" unicode="2" horiz-adv-x="616" 
d="M54 1q-8 0 -17 5t-14 14t-3 22t16 28q71 91 123 156t89 113.5t62 84t42 66.5q9 16 22 43.5t25 59.5t18.5 64.5t2.5 59t-22 43.5t-56 17q-14 0 -37 -5t-53.5 -25.5t-66.5 -63t-76 -117.5q-8 -15 -22 -17t-26 3.5t-18.5 17.5t-0.5 26q29 63 64.5 111t74.5 80t81 48.5
t83 15.5q61 -1 103 -25t55 -73.5t-7.5 -126t-84.5 -182.5q-65 -107 -134.5 -194.5t-138.5 -176.5q4 1 26.5 2t56.5 1h77.5t90 -0.5t93 -1.5t87.5 -1q11 0 18.5 -10.5t8 -23t-8 -23t-29.5 -11.5q-67 -3 -137 -3t-136.5 1t-126 1t-104.5 -3z" />
    <glyph glyph-name="three" unicode="3" horiz-adv-x="584" 
d="M262 -3q-8 0 -37 4.5t-65.5 18.5t-75 39.5t-66.5 68.5q-8 12 -4 25.5t13.5 23t21.5 11.5t21 -8q15 -17 35 -36t44 -35.5t51.5 -28t56.5 -11.5q47 -1 87.5 10t70 34.5t47 60.5t17.5 89q0 46 -14 75.5t-36.5 45t-52 20.5t-60 2.5t-59.5 -10.5t-51 -16q-20 -8 -30.5 1.5
t-14 24.5t-0.5 29.5t12 17.5q26 9 54.5 25t55.5 37t51 46t40 51q26 42 23.5 78t-25.5 57t-61 23t-83 -23q-36 -21 -67 -48.5t-45 -48.5q-8 -11 -20 -9t-22 11.5t-14 23t4 24.5q27 36 56.5 65t62.5 47q49 27 94 33.5t81.5 -4t63 -35.5t38.5 -60t7.5 -78.5t-30.5 -90.5
q-31 -59 -81 -94q56 1 95.5 -19.5t64 -53.5t35 -73.5t9.5 -79.5q-6 -135 -82.5 -197.5t-215.5 -62.5z" />
    <glyph glyph-name="four" unicode="4" horiz-adv-x="590" 
d="M45 822q0 18 12.5 26.5t27.5 7.5t27 -10.5t11 -25.5q-2 -31 -4 -74t-5 -91.5t-6 -101t-5 -103.5l317 28l11 343q0 18 13 25.5t28 7t27.5 -8t12.5 -19.5q0 -15 -0.5 -48.5t-2 -79t-3 -100.5t-3.5 -112l39 3q18 1 25.5 -11t6 -27t-9 -28t-19.5 -13q-9 -1 -20.5 -2t-24.5 -2
q-2 -59 -3.5 -116t-2.5 -107.5t-1 -90.5t1 -65q1 -19 -13 -30t-31 -12.5t-32 6.5t-15 27l13 380q-38 -4 -80.5 -8t-85.5 -8t-84.5 -8.5t-77.5 -9.5q-17 -2 -30.5 -2t-23 6t-14.5 18t-3 34z" />
    <glyph glyph-name="five" unicode="5" horiz-adv-x="589" 
d="M115 766q-1 -32 -2.5 -71t-3 -76.5t-2 -69.5t0.5 -49q49 29 101 41t101.5 8.5t94 -21.5t79.5 -48.5t57.5 -73t28.5 -94.5q6 -50 -12.5 -101t-52.5 -94.5t-78 -74.5t-89 -41q-60 -13 -109.5 -5.5t-88.5 29t-67.5 53t-46.5 65.5q-7 13 1 27t21 22.5t26.5 8.5t18.5 -15
q10 -32 31 -55t50 -37t63 -18t69 3q37 7 71.5 29t61 52.5t40.5 68t10 75.5q-5 45 -27 78t-54.5 53.5t-72.5 28.5t-81.5 4t-80.5 -20.5t-69 -45.5q-6 -6 -19 -7.5t-26 1.5t-22.5 11.5t-9.5 22.5q0 30 1.5 72.5t3.5 92t2.5 101.5t-2.5 100q-1 19 6.5 29t19 14.5t26 5.5t26.5 1
l410 2q18 1 25.5 -11t7 -27.5t-8 -28.5t-19.5 -13q-18 -2 -57.5 -1.5t-93.5 1.5t-119.5 1t-137.5 -3h-2z" />
    <glyph glyph-name="six" unicode="6" horiz-adv-x="605" 
d="M296 -1q-71 -13 -123 8.5t-85.5 66t-50 107.5t-17.5 134q0 42 10 93t30.5 103.5t49.5 104t65.5 96t80.5 79t93 52.5q13 5 26.5 -2t20.5 -18.5t4.5 -25t-20.5 -22.5q-66 -32 -120.5 -87.5t-92.5 -123t-57 -142.5t-13 -147q37 52 90 100t112 75q33 16 71.5 23.5t75.5 2.5
t68.5 -26.5t50.5 -63.5q19 -43 18 -86.5t-17 -84t-45 -76.5t-65 -64.5t-77.5 -48t-82.5 -27.5zM112 170q5 -11 17 -31.5t32 -39t49 -29t69 -0.5q42 10 85 36.5t76 63.5t49.5 81.5t4.5 91.5q-10 25 -30.5 36.5t-44.5 13t-49.5 -4.5t-46.5 -15q-33 -14 -63 -37t-56.5 -51
t-49.5 -57.5t-42 -57.5z" />
    <glyph glyph-name="seven" unicode="7" horiz-adv-x="563" 
d="M484 847q19 2 34 -3.5t23 -16.5t7.5 -27t-11.5 -35q-23 -40 -57 -102t-71.5 -135.5t-76.5 -151t-73 -147.5t-59 -126.5t-36 -86.5q-7 -18 -24 -22t-33 2.5t-26.5 20.5t-3.5 32l360 712l-389 -12q-18 -2 -26.5 10t-9.5 27.5t5.5 28.5t17.5 13q18 -1 48 -1t67.5 1t81 2
t87 3.5t86 6t79.5 7.5z" />
    <glyph glyph-name="eight" unicode="8" horiz-adv-x="581" 
d="M122 552q-46 73 -47 129t27 93.5t77 56.5t103 18q53 -1 102 -20t77.5 -56t28.5 -91.5t-45 -125.5q-17 -26 -42 -50.5t-51 -38.5q47 -22 85 -52.5t64 -64t40.5 -68t15.5 -65.5q1 -63 -18.5 -106t-55.5 -69.5t-86.5 -38t-111.5 -11.5t-112 13t-87 40.5t-55 71.5t-16 107
q2 42 18 76.5t42.5 64t60.5 55t71 48.5q-22 16 -45 37t-40 47zM479 233q-3 21 -16 45t-36.5 48t-58 46.5t-80.5 41.5q-39 -13 -72.5 -31.5t-59.5 -42t-43 -50.5t-22 -57q-8 -45 6.5 -77.5t43 -53t66.5 -30t78 -9.5t77.5 9.5t65.5 30t42.5 52.5t8.5 78zM285 505
q31 18 60.5 43t44.5 53q24 43 23.5 75.5t-17.5 54t-46.5 33t-64.5 13.5q-15 1 -34.5 -2.5t-39 -12t-35 -21.5t-21.5 -32q-6 -20 0 -51.5t25 -62.5q17 -27 45.5 -49.5t59.5 -40.5z" />
    <glyph glyph-name="nine" unicode="9" horiz-adv-x="611" 
d="M571 24q0 -13 -14.5 -21.5t-31 -9t-30.5 7.5t-14 28q0 11 2.5 43.5t6 76t6.5 92.5t5.5 93t2.5 77.5t-3 45.5q-33 -28 -77.5 -55t-94 -44t-101.5 -19.5t-100 19.5q-43 19 -67 50.5t-32.5 69t-3.5 78t20 78.5t37.5 71t48.5 55q19 16 51.5 34t78 29.5t103 13t125.5 -14.5
q-1 20 11 29.5t27 10.5t28.5 -5.5t14.5 -18.5q6 -46 8.5 -111t3 -140.5t-1 -155.5t-3.5 -155.5t-4 -141t-2 -110.5zM161 430q20 -11 53 -10.5t70.5 10.5t75.5 27.5t68.5 40.5t49 51t18.5 58v31t-0.5 35t-2 35t-2.5 32q-39 9 -78 14.5t-77 3t-74 -14t-70 -37.5
q-29 -24 -52 -62.5t-31.5 -79t2.5 -77.5t50 -57z" />
    <glyph glyph-name="question" unicode="?" horiz-adv-x="607" 
d="M264 188q3 -20 -8 -33t-26 -16.5t-30 3t-20 24.5q-3 10 -6.5 34t-7 54t-7 63.5t-6.5 63.5q-3 29 12.5 51.5t54.5 17.5q17 -2 45 1.5t60 12.5t64 23.5t58 35.5t42.5 48t16.5 61t-17.5 60t-46 44t-65 28t-74.5 12q-36 1 -71 -9.5t-63.5 -30.5t-48.5 -48t-26 -62
q-3 -15 -17 -17.5t-28 3.5t-24 19t-4 28q14 37 39.5 73.5t62.5 64t86 43.5t111 13q47 -3 94 -17.5t84.5 -41t61 -65.5t23.5 -90q0 -54 -17 -94t-45.5 -69.5t-64.5 -49.5t-74.5 -32.5t-76 -19t-67.5 -8.5q1 -35 4.5 -64t8 -51.5t8.5 -38.5t5 -24zM296 57q10 -16 -0.5 -31.5
t-28.5 -23.5t-38 -5.5t-29 22.5q-9 21 0 36.5t26.5 22t37.5 2.5t32 -23z" />
    <glyph glyph-name="A" unicode="A" horiz-adv-x="716" 
d="M700 60q6 -18 -4 -32t-26.5 -19.5t-33.5 -1t-23 23.5q-12 35 -38 103.5t-58 153.5l-344 -51q-26 -69 -46 -124.5t-31 -85.5q-6 -19 -23 -23.5t-33.5 1t-26.5 19.5t-4 32l301 766q7 19 20 26.5t26.5 6.5t24.5 -9t15 -18zM355 706q-15 -36 -32.5 -81t-36.5 -94t-39 -100.5
t-39 -101.5q57 8 129 19t148 25q-35 91 -69.5 179t-60.5 154z" />
    <glyph glyph-name="B" unicode="B" horiz-adv-x="643" 
d="M26 820q-1 18 10.5 26t26 8t27 -6.5t13.5 -18.5v-10q78 18 144.5 19.5t116.5 -16.5t80 -55.5t33 -96.5q1 -21 -8.5 -46.5t-28 -51t-44 -48.5t-55.5 -39q37 4 82 -0.5t85.5 -24t71.5 -56t40 -97.5q8 -58 -11 -106t-57 -85.5t-90 -63.5t-109 -39.5t-114.5 -15t-106.5 11.5
q-5 -14 -18 -21t-27.5 -6.5t-26 8.5t-12.5 25zM542 295q-4 35 -28.5 58.5t-61 35.5t-82 14.5t-91 -3t-88.5 -18.5t-74 -32q2 -78 5 -147t7 -120q38 -11 85 -11.5t94.5 8.5t91.5 27.5t77.5 45.5t51.5 62.5t13 79.5zM386 669q3 35 -27.5 55t-74.5 27t-93 2.5t-84 -18.5
q2 -56 3.5 -130.5t3.5 -155.5q13 2 37.5 11.5t54 24t61 34.5t57.5 43.5t43 50.5t19 56z" />
    <glyph glyph-name="C" unicode="C" horiz-adv-x="624" 
d="M597 172q-30 -39 -60.5 -72t-66.5 -56.5t-79 -34.5t-96 -5q-90 9 -148.5 50t-90 103t-39.5 138t3 156q10 78 37 151.5t72.5 130t110 89t149.5 26.5q33 -2 64 -12.5t58 -26.5t47.5 -37t32.5 -45q8 -17 2 -32t-18.5 -23t-28.5 -7.5t-27 15.5q-30 40 -63.5 63t-80.5 25
q-62 3 -108.5 -24.5t-79.5 -74t-53 -105.5t-29 -119q-8 -56 -5.5 -116.5t24 -112t64.5 -88t116 -45.5q38 -5 70 4.5t59.5 29t51.5 48t48 61.5q13 19 29 18.5t28 -11t15.5 -28t-8.5 -33.5z" />
    <glyph glyph-name="D" unicode="D" horiz-adv-x="667" 
d="M26 820q0 16 9.5 24t22 9.5t25 -3.5t18.5 -14q65 14 131 11.5t127 -20.5t114 -51.5t91 -82t58 -112.5t15 -143q-7 -114 -52 -199.5t-115 -142t-159.5 -83.5t-186.5 -22q-9 -6 -21 -7.5t-23 2t-19 11t-9 19.5zM549 424q8 106 -27.5 179t-98.5 113t-145.5 48.5
t-168.5 -13.5q2 -43 4.5 -100t4.5 -120.5t4.5 -129.5t5 -128t5.5 -116t6 -92q81 -4 153 21.5t127 74t89.5 116t40.5 147.5z" />
    <glyph glyph-name="E" unicode="E" horiz-adv-x="608" 
d="M32 784q0 15 7.5 24.5t19 15t25 8t26.5 2.5l410 16q18 1 25.5 -11.5t7 -28.5t-8 -29.5t-19.5 -13.5q-18 -2 -57 -3.5t-92.5 -3.5t-118.5 -4t-137 -5q0 -51 0.5 -125.5t-0.5 -155.5l337 21q18 1 26 -11.5t7 -28t-8.5 -29.5t-19.5 -15q-36 -3 -123 -9t-218 -13
q0 -41 0.5 -84t1 -83.5t1.5 -76t2 -60.5l433 18q18 1 26 -11.5t7 -28.5t-8 -29.5t-19 -13.5q-19 -2 -64 -4t-106 -4t-133 -4.5t-145 -4.5q-11 0 -24.5 -0.5t-25.5 2t-20.5 9.5t-8.5 22z" />
    <glyph glyph-name="F" unicode="F" horiz-adv-x="562" 
d="M32 784q0 15 7.5 24.5t19 15t25 8t26.5 2.5l410 16q18 1 25.5 -11.5t7 -28.5t-8 -29.5t-19.5 -13.5q-18 -2 -57 -3.5t-92.5 -3.5t-118.5 -4t-137 -5q0 -51 0.5 -125.5t-0.5 -155.5l337 21q18 1 26 -11.5t7 -28t-8.5 -29.5t-19.5 -15q-36 -3 -123 -9t-218 -13
q-2 -39 -2 -89.5t0.5 -101.5t1.5 -96.5t2 -74.5q1 -19 -12.5 -27t-29.5 -7t-29.5 9.5t-13.5 23.5z" />
    <glyph glyph-name="G" unicode="G" horiz-adv-x="701" 
d="M687 402q-11 -118 -46.5 -194.5t-84 -121.5t-103.5 -62.5t-104 -16.5q-91 2 -152 40.5t-97 99.5t-49 138t-8 157q4 78 26 153t63.5 133.5t103.5 93.5t148 33q33 -1 65 -9.5t59.5 -23.5t49.5 -35t36 -44q9 -16 4 -31.5t-17 -24.5t-27.5 -9t-27.5 15q-33 38 -68 59.5
t-83 21.5q-62 0 -106.5 -29.5t-74 -77t-46 -107.5t-20.5 -120q-4 -57 3 -117t32 -111t70.5 -85.5t119.5 -40.5q40 -3 82 16.5t77 58.5t58.5 95t26.5 126q-65 -8 -127 -10t-104 2q-15 1 -23.5 12.5t-10.5 25t3 25t18 13.5q20 2 50.5 1.5t67 0t76.5 3.5t80 12q32 8 48.5 -8.5
t11.5 -56.5z" />
    <glyph glyph-name="H" unicode="H" horiz-adv-x="667" 
d="M541 373l-414 -9q2 -51 4.5 -100t4.5 -91.5t4.5 -76.5t5.5 -56q2 -20 -11 -31t-30.5 -13t-32.5 6t-17 27l-29 798q-1 18 11.5 25.5t28.5 6.5t29.5 -8.5t14.5 -19.5q1 -17 2.5 -54.5t3.5 -89t4 -113.5t4 -126q35 1 86 2t108 2.5t114.5 4t105.5 5.5l-13 354
q-1 18 11.5 25.5t28.5 6.5t29.5 -8.5t14.5 -19.5q2 -21 4 -78.5t4.5 -133t5.5 -162.5t6.5 -167.5t7.5 -147t8 -102.5q2 -20 -11 -31t-30.5 -13t-32.5 6t-17 27z" />
    <glyph glyph-name="I" unicode="I" horiz-adv-x="540" 
d="M51 -4q-18 0 -24.5 12.5t-5 27.5t10 27.5t20.5 12.5q30 1 80 1h107l-25 696l-172 -4q-18 0 -24.5 12t-5 27t10 27t20.5 12h37.5h84t106.5 0.5t105 1t79 1.5t30 3q19 1 30 -11t12 -27t-8 -28t-28 -14l-194 1q2 -37 3.5 -92t3.5 -118.5t4.5 -132t5 -134t5.5 -123t6 -98.5
q45 0 88 1.5t81 4.5q19 1 30 -11.5t12 -28t-8 -28.5t-28 -14z" />
    <glyph glyph-name="J" unicode="J" horiz-adv-x="705" 
d="M440 764q2 -117 6.5 -212t6.5 -187q2 -78 -2 -148.5t-25.5 -123t-66.5 -80.5t-126 -21q-29 3 -61 16t-61.5 36t-52 55.5t-31.5 73.5q-3 14 7.5 24.5t25 15t28.5 0.5t17 -20q4 -17 16.5 -38.5t32.5 -40.5t46 -33t57 -15q33 -2 55 13t35 40.5t19 57.5t8 65t1.5 63.5
t-0.5 51.5q0 40 -0.5 77.5t-2 83.5t-4.5 105.5t-7 142.5l-253 -5q-18 0 -25 13t-5 28.5t10 28.5t20 13q21 0 60 0.5t88 0.5h104t108.5 1t102 2t84.5 4q19 1 30 -12t12 -29t-7.5 -29.5t-27.5 -14.5z" />
    <glyph glyph-name="K" unicode="K" horiz-adv-x="646" 
d="M127 388q0 -55 1 -107.5t1.5 -98t2 -82.5t3.5 -60q1 -20 -12.5 -31t-30.5 -13t-32 6t-16 27l-4 798q0 18 12.5 25.5t28.5 6.5t29.5 -8.5t13.5 -19.5q1 -15 1.5 -45.5t0.5 -73v-94v-106.5q29 25 65 56t73.5 63.5t75 64.5t69 60t56 50t36.5 35q13 14 30.5 12.5t30.5 -12
t17.5 -27t-8.5 -31.5l-382 -333q56 -49 119.5 -103.5t122.5 -105t108.5 -91t77.5 -61.5q16 -11 14.5 -28.5t-12 -31.5t-27 -20t-31.5 5z" />
    <glyph glyph-name="L" unicode="L" horiz-adv-x="729" 
d="M128 -1q-10 -2 -20.5 -2t-19.5 3t-15 9.5t-6 19.5l-29 798q-1 18 11.5 25.5t28.5 6.5t29.5 -8.5t14.5 -19.5q1 -19 3 -68.5t4.5 -116t5 -144t5.5 -153.5t6 -144t7 -116q49 7 116.5 15.5t138 18t135.5 20t109 21.5q19 4 32 -8t17 -29t-2.5 -33t-25.5 -20z" />
    <glyph glyph-name="M" unicode="M" horiz-adv-x="911" 
d="M770 682l-268 -455q-18 -29 -35.5 -37t-31.5 -4.5t-24.5 14t-15.5 18.5l-272 457q2 -50 4 -109.5t4 -121.5t4.5 -123t5 -115t5.5 -97t6 -69q2 -20 -11 -31t-30.5 -13t-32.5 6t-17 27l-29 798q0 12 9.5 21.5t22 14t25.5 3t20 -10.5q12 -18 34.5 -55t51 -85.5t61.5 -105
t66 -112t65 -107t59 -89.5q27 40 59 91t64.5 106.5t64.5 110.5t59 102t48 82t32 51q7 9 19.5 10t25 -4t22 -14t10.5 -19q2 -21 4.5 -78.5t5.5 -133t5.5 -162.5t6 -167.5t7 -147t7.5 -102.5q2 -20 -11 -31t-30.5 -13t-32.5 6t-17 27z" />
    <glyph glyph-name="N" unicode="N" horiz-adv-x="671" 
d="M567 9q-1 2 -3.5 5t-15 21.5t-39 58.5t-75.5 114t-124.5 188.5t-186.5 283.5q-1 -50 -2 -110t-2 -122.5t-1 -124t0.5 -116t2 -98t4.5 -69.5q2 -20 -11 -31t-30.5 -13t-32.5 6t-17 27l4 777q0 21 9.5 32t22.5 13.5t27.5 -2.5t25.5 -17q11 -13 37 -52t62 -94.5t78.5 -122.5
t86.5 -136t87.5 -135t80.5 -120l-23 648q-1 18 11.5 25.5t28.5 6.5t29.5 -8.5t14.5 -19.5q2 -22 4 -78t4.5 -130.5t5 -160t5.5 -165t6 -145t6 -101.5q1 -14 -7 -26.5t-20.5 -18.5t-27 -4.5t-25.5 14.5z" />
    <glyph glyph-name="O" unicode="O" horiz-adv-x="691" 
d="M276 0q-81 9 -132 50t-79 101t-36.5 132.5t-4.5 144.5q4 75 27.5 152t68 137.5t109.5 96t153 28.5q63 -5 112 -30.5t84 -64t57 -86.5t30 -97q11 -63 6.5 -131.5t-23.5 -133.5t-52 -123t-80 -99.5t-107 -63t-133 -13.5zM283 77q52 -8 97 10t81 52.5t63 81t44 97t23 100.5
t0 91q-6 44 -22 88t-43.5 80t-67 59.5t-91.5 25.5q-47 2 -84.5 -15.5t-65.5 -46t-48.5 -65.5t-33.5 -75t-20.5 -73t-9.5 -60q-5 -47 1 -105t27 -109.5t57.5 -89.5t92.5 -46z" />
    <glyph glyph-name="P" unicode="P" horiz-adv-x="670" 
d="M120 780q62 33 121.5 50.5t115.5 16.5q64 -1 119 -22t94 -60t59 -94.5t16 -124.5q-4 -59 -29 -108.5t-65 -86.5t-91.5 -59.5t-107.5 -28.5t-114 6.5t-111 45.5q-2 -39 -1 -72.5t3.5 -66.5t5.5 -67.5t6 -75.5q1 -18 -11.5 -28.5t-28 -11.5t-29.5 7.5t-15 28.5
q-2 21 -3 77.5t-3 131t-4 160t-4.5 165t-6 145t-7.5 101.5q-2 19 11 30.5t30.5 13.5t32.5 -6t17 -27v-40zM566 543q3 54 -13.5 95t-46.5 69.5t-71 43t-86 14.5q-29 0 -61 -7t-62 -19t-56.5 -27.5t-45.5 -32.5q-1 -15 -1 -45v-66.5t1 -75t3 -69.5q33 -36 77.5 -55t92.5 -22.5
t95 8t84.5 37t62 64t27.5 88.5z" />
    <glyph glyph-name="Q" unicode="Q" horiz-adv-x="707" 
d="M532 92q-49 -49 -113 -74.5t-143 -17.5q-81 9 -132 50t-79 101t-36.5 132.5t-4.5 144.5q4 75 27.5 152t68 137.5t109.5 96t153 28.5q63 -5 112 -30.5t84 -64t57 -86.5t30 -97q8 -50 7 -103.5t-11 -106t-29 -102.5t-47 -93q23 -22 46.5 -42.5t46.5 -40.5q15 -13 13.5 -30
t-12.5 -30.5t-27.5 -18t-31.5 7.5zM283 77q57 -8 104 13t85 60l-136 135q-14 12 -9.5 26t17 24.5t27.5 14t24 -4.5q25 -23 57.5 -55.5l70.5 -70.5q21 34 35.5 72t23 76t11 74.5t-1.5 67.5q-6 44 -22 88t-43.5 80t-67 59.5t-91.5 25.5q-47 2 -84.5 -15.5t-65.5 -46
t-48.5 -65.5t-33.5 -75t-20.5 -73t-9.5 -60q-5 -47 1 -105t27 -109.5t57.5 -89.5t92.5 -46z" />
    <glyph glyph-name="R" unicode="R" horiz-adv-x="673" 
d="M567 4q-77 88 -140 145.5t-116.5 93.5t-100.5 56t-92 32q-3 -39 -3 -74.5t2 -71.5t4 -73t4 -78q1 -18 -11.5 -28t-28.5 -11t-29.5 7.5t-14.5 28.5q-1 21 -1 77.5v131v160t-0.5 165t-2.5 145t-5 101.5q-2 19 11.5 30.5t30.5 13t32 -6.5t17 -27l-1 -40q63 32 123 49.5
t116 15.5q64 -1 118.5 -20t93.5 -55t59 -89t13 -122q-5 -53 -29 -95t-62.5 -73t-89 -50.5t-108.5 -27.5q35 -25 73.5 -53.5t76.5 -61.5t74 -69.5t66 -77.5q12 -16 4.5 -31.5t-22.5 -24.5t-33 -9t-28 17zM566 558q7 54 -9 92.5t-46.5 63.5t-72.5 37.5t-87 12.5
q-29 0 -61 -6.5t-62.5 -18t-57.5 -27t-46 -32.5q-1 -15 -2 -45t-1.5 -66.5t-0.5 -75t1 -69.5q31 -19 74 -27.5t91 -7t95.5 12.5t87 32t66 52t31.5 72z" />
    <glyph glyph-name="S" unicode="S" horiz-adv-x="632" 
d="M296 -7q-39 1 -79.5 14.5t-78 39.5t-69 65t-52.5 92q-6 16 2.5 29t22 19.5t27.5 5t18 -14.5q24 -75 82.5 -121.5t137.5 -52.5q36 -2 77.5 4t76 21t54.5 41t13 65q-10 50 -47 81.5t-85 53t-99.5 37t-88.5 32.5q-52 24 -93 56t-63 72.5t-22 89.5t31 106q25 46 68.5 73.5
t96 38t108 5t103.5 -24.5t84 -51.5t49 -76.5q6 -20 -2 -32.5t-21.5 -17.5t-27 -1.5t-17.5 14.5q-13 32 -40 57.5t-62.5 41t-75 20t-78 -3.5t-71.5 -31t-55 -62q-23 -41 -14.5 -75t33.5 -61.5t59 -47t63 -29.5q25 -9 61.5 -21t76 -29t79 -39t70 -50.5t48.5 -64.5t15 -80
q-3 -56 -33.5 -93.5t-76 -59t-100 -29.5t-105.5 -5z" />
    <glyph glyph-name="T" unicode="T" horiz-adv-x="649" 
d="M605 845q18 -1 24 -13.5t3.5 -27.5t-11.5 -27t-21 -11h-43.5t-59 0.5t-70 0.5t-76.5 -1q1 -50 1.5 -117t1 -140.5t1 -148t1.5 -138t2.5 -112t3.5 -69.5q2 -19 -11 -30t-30 -13t-32 6t-16 27l-4 735q-24 -1 -55 -2.5t-61.5 -3t-58 -2.5t-45.5 -1q-19 0 -28.5 12.5
t-9.5 27.5t9 27t28 12z" />
    <glyph glyph-name="U" unicode="U" horiz-adv-x="700" 
d="M363 -5q-109 -6 -178 48.5t-106 162t-44 264t8 354.5q1 12 15.5 20.5t30.5 9.5t28 -8t9 -32q-5 -37 -9 -89t-5.5 -112t2 -124t13.5 -124.5t27.5 -114.5t46 -93.5t68.5 -61.5t94 -19q68 4 112.5 38t70 89.5t35 128t8.5 152.5t-10.5 163t-20.5 161q-2 15 10 26t28.5 14.5
t31 -2.5t16.5 -26q9 -80 17.5 -170.5t9 -180.5t-12 -173.5t-47 -148.5t-94.5 -106t-154 -46z" />
    <glyph glyph-name="V" unicode="V" horiz-adv-x="761" 
d="M437 22q-4 -9 -16 -14t-25.5 -5.5t-25.5 4.5t-17 15l-330 773q-8 16 0.5 28t23 17.5t29.5 4t21 -11.5q8 -16 28.5 -63t47 -111t57.5 -138.5t61 -146t57 -132t46 -96.5q18 37 42.5 98.5t52 132.5t55.5 145.5t52.5 138.5t43 111t27.5 63q6 10 21.5 11.5t30.5 -4t23.5 -17.5
t0.5 -28z" />
    <glyph glyph-name="W" unicode="W" horiz-adv-x="920" 
d="M462 525l-166 -499q-4 -14 -17.5 -19.5t-28.5 -4t-28 9t-16 20.5l-188 778q-5 18 6.5 27.5t27 11.5t30.5 -3t18 -16q4 -16 14 -55t23 -93t29 -118t32 -130t31.5 -130t29.5 -118l160 496q3 15 15.5 22.5t27 7.5t27.5 -8t16 -23q7 -29 25 -87t41 -129t47.5 -146t44.5 -139
q13 54 29 118.5t32.5 131t32 131t29 119t23 94t14.5 55.5q3 11 18 16t30.5 3t26.5 -11.5t7 -27.5l-189 -778q-3 -13 -16 -20.5t-28 -9t-28.5 4t-17.5 19.5z" />
    <glyph glyph-name="X" unicode="X" horiz-adv-x="687" 
d="M398 422q42 -57 82.5 -112.5t75 -102.5t61.5 -83t42 -55q12 -16 6.5 -32.5t-19 -27t-31 -11t-28.5 14.5l-242 336l-242 -336q-11 -15 -28.5 -14.5t-31 11t-19 27t6.5 32.5q15 19 42 55t61.5 83t75 102.5t82.5 112.5l-265 369q-11 15 -3.5 28t21.5 20.5t30 7.5t22 -9
q9 -12 32 -45t56.5 -79t74.5 -102.5t85 -116.5q43 60 84 116.5t74.5 102.5t57 79t32.5 45q6 9 22 9t30 -7.5t21 -20.5t-3 -28z" />
    <glyph glyph-name="Y" unicode="Y" horiz-adv-x="614" 
d="M351 466q-3 -92 -2.5 -206t2.5 -232q0 -20 -12 -29.5t-27 -10t-28 9t-15 28.5q-1 108 -1 182.5t-0.5 123t-0.5 74.5v38v14.5v2.5l-248 334q-11 14 -5.5 26.5t18 20t27.5 8.5t22 -8q27 -35 53.5 -70.5t54 -71.5t56.5 -74.5t62 -79.5q33 40 62 77.5t56 73.5t53 70.5
t53 69.5q7 9 22 8t28 -8.5t19 -20t-5 -26.5z" />
    <glyph glyph-name="Z" unicode="Z" horiz-adv-x="695" 
d="M651 6q-174 -4 -285.5 -6t-176.5 -2.5t-91.5 -0.5h-30.5q-14 1 -23.5 8.5t-14 18t-2.5 22t11 22.5l524 700l-498 -13q-18 -1 -25.5 10.5t-7 25t8 25.5t19.5 13q21 1 60.5 2t89 2t105.5 2t110 3t103 4.5t85 5.5q16 1 27 -8t16.5 -23t3 -31t-13.5 -31q-25 -32 -65.5 -87.5
t-88 -122t-98.5 -138.5t-99 -137t-88.5 -118t-65.5 -81h66.5t86 1t96.5 2.5t96 3t85.5 3.5t66.5 5q20 2 32 -10t14 -27t-5.5 -28.5t-26.5 -14.5z" />
    <glyph glyph-name="grave" unicode="`" horiz-adv-x="214" 
d="M38 750q-13 16 -10.5 32t13.5 26t28 9.5t33 -18.5l76 -84q13 -15 10 -29.5t-14 -23.5t-26.5 -10t-27.5 11z" />
    <glyph glyph-name="a" unicode="a" horiz-adv-x="625" 
d="M178 21q-45 14 -75.5 43t-48 67.5t-23 82.5t-1 88t18 85t34.5 74q69 108 161.5 135.5t201.5 -13.5q-3 25 9.5 37.5t28.5 14t31 -8t17 -28.5q5 -39 10 -87.5t10 -100t10.5 -104t11 -100.5t11.5 -89t13 -70q5 -20 -5 -34t-25 -18t-30 3.5t-20 31.5l-17 73
q-24 -29 -62 -50.5t-82.5 -33t-91.5 -11.5t-87 13zM205 97q34 -11 78.5 -7t86.5 21t74.5 45t42.5 64q-8 63 -11 120.5t-9 113.5q-27 37 -69.5 54t-88.5 13.5t-88.5 -27t-68.5 -67.5q-21 -36 -33 -86t-8.5 -99t25.5 -89t69 -56z" />
    <glyph glyph-name="b" unicode="b" 
d="M155 22q0 -19 -14 -29.5t-31.5 -11.5t-31.5 7.5t-14 27.5q0 36 -3 103.5t-8 149.5t-10.5 170t-11 165t-9 134.5t-4.5 79.5q0 12 12.5 20.5t28 10t28.5 -5t14 -25.5q4 -82 5 -158.5t13 -153.5q50 42 102.5 64t103 25t96.5 -12t82.5 -45.5t61.5 -76.5t33 -104q8 -61 1 -120
t-32.5 -107t-72 -80.5t-116.5 -41.5q-60 -8 -114.5 11.5t-108.5 54.5v-52zM518 346q-8 49 -31.5 83.5t-57 54.5t-73 24.5t-80 -6t-78.5 -36.5t-67 -67q2 -51 3 -101.5t8 -101.5q15 -33 45 -56.5t66 -37t74 -16t68 5.5q42 12 69 39.5t41 63t17 75.5t-4 76z" />
    <glyph glyph-name="c" unicode="c" horiz-adv-x="569" 
d="M371 18q-48 -20 -100.5 -18.5t-100 24.5t-84.5 67t-54 109q-13 48 -13 101t13 103t39 95.5t65 78.5q40 35 92.5 43.5t103.5 -4t94 -44t66 -76.5q8 -17 2 -32t-18.5 -23t-28.5 -7.5t-27 15.5q-32 42 -64.5 62.5t-61.5 26t-52.5 -0.5t-38.5 -16q-33 -24 -55 -57.5
t-33.5 -72t-11.5 -80.5t11 -82q11 -44 32 -75.5t50.5 -49.5t65.5 -22t76 7q40 15 74 45t65 74q13 19 29 18.5t28 -11t15.5 -28t-8.5 -33.5q-29 -38 -50 -60.5t-39.5 -36t-37 -22t-43.5 -18.5z" />
    <glyph glyph-name="d" unicode="d" horiz-adv-x="604" 
d="M488 70q-50 -44 -104 -59t-113 -18q-70 -4 -118.5 16t-78 58t-42 91t-10.5 115q3 89 44.5 155t106.5 99.5t145 30t160 -53.5q5 78 -2 154t-12 158q-1 18 11.5 25.5t28.5 6.5t29.5 -8.5t14.5 -19.5q2 -21 4 -78.5t4.5 -133t5.5 -162.5t6.5 -167.5t7.5 -147t8 -102.5
q2 -20 -11 -31t-30.5 -13t-32.5 6t-17 27zM101 276q-2 -37 3 -73.5t20 -66t42.5 -49.5t70.5 -24q31 -3 70 3.5t75.5 23t65.5 42t40 61.5q2 51 -2 101.5t-8 101.5q-33 36 -73 55t-81 22.5t-80 -8t-69.5 -37t-50.5 -64t-23 -88.5z" />
    <glyph glyph-name="e" unicode="e" horiz-adv-x="588" 
d="M283 -5q-65 -4 -113.5 16t-81 55t-49.5 81t-19 93q-3 73 12.5 136.5t48.5 111t83 77t116 35.5q44 4 84.5 -11.5t73.5 -41.5t55.5 -58t31.5 -62q4 -14 8.5 -30t3.5 -31t-10.5 -28t-34.5 -20q-42 -12 -91.5 -21.5t-101 -17t-102 -14.5t-93.5 -15q5 -92 51 -137.5t130 -37.5
q21 2 49.5 7.5t57 17t54.5 29.5t44 46q11 17 28 19.5t31 -5.5t20 -24t-5 -37q-18 -33 -52 -57.5t-73.5 -40.5t-81 -24.5t-74.5 -10.5zM108 339q5 -3 32 -1t64 7t79.5 12.5t79 14.5t61.5 13t29 8q-10 35 -29.5 60.5t-43.5 41t-50 22t-48 3.5q-78 -11 -124 -60t-50 -121z" />
    <glyph glyph-name="f" unicode="f" horiz-adv-x="593" 
d="M169 352q2 -76 3 -129t2.5 -87.5t2 -54.5t1 -31t1 -16.5t0.5 -10.5q1 -20 -12.5 -28.5t-30 -7.5t-30.5 9t-14 20q-2 95 -4 177t-4 159h-52q-18 0 -25 12.5t-5.5 28.5t9.5 29.5t20 13.5q11 0 24 0.5t28 0.5q-1 47 -1.5 92.5t1.5 93.5q1 58 20 101.5t51 72.5t76 42.5
t96 10.5q31 -2 65.5 -8.5t67.5 -26t62 -55t49 -94.5q6 -18 -3 -30t-22.5 -17t-28 -1.5t-18.5 15.5q-18 51 -44.5 80t-54.5 43t-54 17t-43 3q-42 -1 -68.5 -22t-42 -51.5t-21.5 -63.5t-6 -58q1 -80 3 -144q70 -1 147.5 0t146.5 7q19 1 30 -12.5t12.5 -30.5t-7 -32t-27.5 -16z
" />
    <glyph glyph-name="g" unicode="g" horiz-adv-x="569" 
d="M366 21q-48 -20 -100 -19t-98.5 23.5t-82.5 66t-53 108.5q-16 61 -8 121t34 111.5t67 90t92 55.5t108 9t115 -50q0 9 -0.5 10.5t-1 2t-1 2.5t-0.5 12q-1 20 12.5 28.5t30 7.5t30.5 -9t14 -20q1 -90 3 -166.5t3.5 -146t1.5 -136.5t-1 -139q-1 -58 -20 -101.5t-51 -72.5
t-76 -42.5t-96 -10.5q-31 1 -65.5 8t-67.5 26.5t-62 55t-49 94.5q-6 18 3 30t22.5 17t27.5 1.5t19 -15.5q18 -51 44.5 -80t54.5 -43t54 -17t43 -3q42 1 68.5 22t42 51.5t21.5 63.5t6 58l-1 44q-18 -13 -38.5 -25.5t-44.5 -22.5zM450 175q0 47 -0.5 109.5t-3.5 133.5
q-1 0 -1 1q-42 51 -87 69t-87 11.5t-77.5 -33t-59 -65t-32 -84.5t3.5 -92q12 -44 34.5 -75t53.5 -49t67.5 -21t76.5 10q32 11 59 33t53 52z" />
    <glyph glyph-name="h" unicode="h" horiz-adv-x="604" 
d="M15 820q-2 18 9.5 26t26.5 8t28.5 -6.5t14.5 -18.5q1 -14 3.5 -43t5.5 -69t6.5 -88.5t7.5 -100.5q52 37 107.5 62t111.5 24q66 -2 110.5 -27t71.5 -66t40 -93.5t16 -108.5q3 -42 3 -84t-1 -80t-3 -70.5t-4 -54.5q-3 -20 -19 -27t-33 -4t-29.5 16t-7.5 34q4 20 7.5 48.5
t5 62.5t1 72.5t-2.5 79.5q-3 44 -13 84.5t-30.5 70.5t-52.5 46.5t-77 13.5q-27 -2 -55 -12.5t-53.5 -26.5t-47.5 -36t-37 -41q4 -58 9 -114.5t9.5 -106t8.5 -89t8 -63.5q3 -20 -9.5 -31.5t-29 -14t-31.5 5t-17 26.5z" />
    <glyph glyph-name="i" unicode="i" horiz-adv-x="156" 
d="M116 744q10 -15 0.5 -31t-27 -25t-37.5 -7t-30 22q-10 21 -1.5 36.5t25.5 23t37 3.5t33 -22zM29 596q-1 18 11.5 25.5t28.5 6.5t29.5 -8.5t14.5 -19.5q2 -21 3.5 -61.5t3 -92t3.5 -109t4.5 -113t6 -105.5t7.5 -86q2 -20 -11 -31t-30.5 -13t-32.5 6t-17 27z" />
    <glyph glyph-name="j" unicode="j" horiz-adv-x="187" 
d="M-66 -244q-29 3 -56.5 13t-51.5 29t-42 48.5t-27 70.5q-3 14 7.5 24.5t25 15t28.5 0.5t17 -20q4 -17 12 -35t22.5 -33.5t36 -26.5t52.5 -12q42 -2 65 19.5t34 53.5t13.5 67t2.5 60q0 44 0.5 80.5t0 72.5t-1.5 75t-2.5 87.5t-5 109t-7.5 139.5q-1 20 11.5 28t28 6.5
t28.5 -10t13 -20.5q1 -90 4.5 -170t6.5 -153.5t4.5 -144t0.5 -142.5q-1 -58 -16.5 -103t-44 -75t-69 -44.5t-90.5 -9.5zM145 737q10 -15 0.5 -31t-27 -25t-37.5 -7t-30 22q-10 21 -1.5 36.5t25.5 23t37 3.5t33 -22z" />
    <glyph glyph-name="k" unicode="k" horiz-adv-x="614" 
d="M523 8q-53 50 -102.5 97t-97.5 87.5t-95.5 73.5t-97.5 57q0 -45 0.5 -88t1.5 -79.5t2 -66.5t3 -49q1 -20 -12.5 -31t-30.5 -13t-32 6t-16 27l-1 798q-1 18 12 25.5t29 6.5t29.5 -8.5t13.5 -19.5q0 -17 0.5 -57.5t0.5 -96t-0.5 -121.5t-0.5 -134q32 16 69.5 39.5t78 52
t82.5 60.5t84 66q15 12 30.5 8.5t26.5 -14t14.5 -24t-5.5 -20.5q-39 -34 -80.5 -65t-81.5 -58t-75 -50t-62 -41q47 -26 103 -68t109 -87t96.5 -87.5t66.5 -67.5q13 -15 8 -29t-18 -23.5t-28.5 -12t-23.5 6.5z" />
    <glyph glyph-name="l" unicode="l" horiz-adv-x="197" 
d="M38 827q-1 18 11.5 25.5t28.5 6.5t29.5 -8.5t14.5 -19.5q2 -21 4 -78.5t4.5 -133t5.5 -162.5t6.5 -167.5t7.5 -147t8 -102.5q2 -20 -11 -31t-30.5 -13t-32.5 6t-17 27z" />
    <glyph glyph-name="m" unicode="m" horiz-adv-x="1015" 
d="M25 556q-2 18 9.5 26.5t26.5 9.5t28 -5.5t14 -18.5l13 -89q45 49 99 79.5t110 29.5q72 2 123 -37t70 -98q13 39 38 66.5t55 44.5t62 24t60 7q81 -2 130 -43.5t75.5 -116t34.5 -177.5t8 -227q0 -20 -14 -30t-30.5 -10.5t-30 9.5t-12.5 31q4 92 1.5 180.5t-20 157.5
t-53.5 109.5t-99 37.5q-28 -2 -55.5 -15t-50 -34t-38 -48.5t-19.5 -56.5q-11 -83 -11 -159.5t5 -156.5q1 -20 -12.5 -30t-30 -10.5t-30.5 9.5t-14 31q2 58 1 145t-19 190q-6 32 -19.5 56.5t-32.5 40t-42 22.5t-47 4q-27 -3 -53.5 -18t-50.5 -35.5t-44.5 -44t-35.5 -44.5
q2 -93 5 -177t14 -144q3 -20 -9 -31.5t-28.5 -14t-32 5t-17.5 26.5z" />
    <glyph glyph-name="n" unicode="n" horiz-adv-x="566" 
d="M20 595q-2 18 9.5 26.5t26.5 9.5t28 -5.5t14 -18.5l13 -89q45 49 99 79.5t110 29.5q54 2 91.5 -21t62 -64t38 -97.5t20 -123t8.5 -139.5t3 -146q0 -20 -13.5 -30t-30 -10.5t-30 9.5t-13.5 31q1 32 1.5 83t-2.5 109t-11.5 116.5t-25.5 104t-45 72.5t-70 22
q-27 -3 -53.5 -18t-50.5 -35.5t-44.5 -44t-35.5 -44.5q1 -46 2 -97.5t3 -100.5t5.5 -92t8.5 -73q3 -20 -9 -31.5t-28.5 -14t-32 5t-17.5 26.5z" />
    <glyph glyph-name="o" unicode="o" 
d="M436 23q-62 -26 -118 -26t-104 19.5t-86 55t-63 80.5t-35.5 96t-2.5 102q7 51 28.5 99.5t59 86t91.5 59.5t127 20q59 -2 110 -25.5t88.5 -65.5t57.5 -99.5t16 -126.5q-2 -43 -14 -85t-33 -78.5t-51.5 -65.5t-70.5 -46zM111 337q-7 -56 6.5 -106t44.5 -85.5t78.5 -52.5
t107.5 -8q40 6 71 24t53.5 44.5t35.5 60.5t17 72q4 45 -5.5 87t-33.5 75.5t-61.5 55t-88.5 26.5q-22 2 -56.5 -3t-69 -24.5t-62.5 -59t-37 -106.5z" />
    <glyph glyph-name="p" unicode="p" horiz-adv-x="610" 
d="M119 510q97 87 217 93q70 4 118.5 -18.5t78 -63.5t42 -96.5t10.5 -117.5q-2 -59 -21.5 -108.5t-52.5 -86.5t-77 -59.5t-94 -28.5t-104 6.5t-107 45.5q-2 -39 -1 -72.5t3.5 -66.5t5.5 -67.5t6 -75.5q1 -18 -11.5 -28.5t-28 -11.5t-29.5 7.5t-15 28.5q-2 21 -4 76.5
t-4.5 128.5t-5.5 156t-6.5 161t-7.5 142.5t-8 100.5q-2 19 11 30.5t30.5 13.5t32.5 -6t17 -27zM506 304q2 37 -3 75.5t-20.5 70t-43 53.5t-70.5 26q-31 3 -69.5 -5.5t-75 -27t-65.5 -46t-40 -63.5q-2 -51 2 -101.5t8 -101.5q33 -36 73 -55t81 -22.5t80 8t69.5 37t50.5 64
t23 88.5z" />
    <glyph glyph-name="q" unicode="q" horiz-adv-x="646" 
d="M492 586q1 19 16 29.5t32 11.5t31 -8.5t13 -29.5q-2 -29 -3.5 -79.5t-2 -112.5t-0.5 -131.5v-137.5t0.5 -130t0.5 -108l53 60q19 12 34 6.5t22.5 -18.5t7 -28.5t-11.5 -23.5l-100 -116q-4 -4 -16.5 -9t-26 -5t-24 7t-11.5 27q-2 41 -2.5 76t-1.5 69.5t-1.5 72.5t-1.5 86
q-51 -44 -104.5 -66t-104 -24t-95.5 14.5t-79.5 49t-57 80t-26.5 106.5q-5 61 5.5 118.5t38 103t75 75.5t117.5 37q120 14 221 -59zM105 263q5 -50 26 -87t52.5 -60t71 -30.5t81.5 2.5t82.5 38t75.5 76q2 51 3.5 102t-2.5 102q-12 34 -42.5 57.5t-67.5 36t-76.5 15
t-69.5 -5.5q-43 -11 -70.5 -36t-43 -59t-20 -73t-0.5 -78z" />
    <glyph glyph-name="r" unicode="r" horiz-adv-x="545" 
d="M20 595q-2 18 9.5 26.5t26.5 9.5t28 -5.5t14 -18.5l13 -89q45 49 99 79.5t110 29.5q36 1 71.5 -13t65 -40.5t50.5 -63t28 -80.5q4 -24 -8.5 -37t-29 -16t-32 4.5t-18.5 23.5q-6 36 -21.5 63.5t-35.5 44.5t-43 25t-44 5q-27 -3 -53.5 -18t-50.5 -35.5t-44.5 -44
t-35.5 -44.5q4 -58 9 -113t9.5 -102.5t8.5 -85.5t8 -62q3 -20 -9.5 -31.5t-29 -14t-31.5 5t-17 26.5z" />
    <glyph glyph-name="s" unicode="s" horiz-adv-x="557" 
d="M188 1q-40 6 -70 24t-51 42.5t-32.5 53t-14.5 55.5q-2 19 8 29.5t24 13t27.5 -3t18.5 -18.5q6 -15 11.5 -35t18 -38t34 -32t59.5 -18q22 -2 49.5 0t55 8t52.5 16.5t43 26t27 35.5t4 46q-9 43 -39.5 61t-72 24.5t-87 8.5t-84.5 14q-49 16 -80 45t-44 64q-14 38 -6 76.5
t39 66.5q19 18 44.5 29.5t53 18t56.5 7t56 -4.5q51 -9 95.5 -31.5t84.5 -62.5q14 -14 11.5 -28t-14 -23t-26.5 -11t-26 7q-38 32 -75 51.5t-69 24.5q-15 2 -32.5 1t-35.5 -5t-34.5 -11t-28.5 -18q-29 -26 -15 -65q10 -26 40.5 -48.5t78.5 -27.5q34 -3 76.5 -6t82.5 -12.5
t72.5 -28.5t46.5 -55q20 -50 14.5 -91t-29 -72.5t-60 -54t-80 -35t-90 -16t-87.5 2.5z" />
    <glyph glyph-name="t" unicode="t" horiz-adv-x="572" 
d="M198 609l-4 216q-1 18 11.5 25.5t28 6t28.5 -9.5t13 -20q1 -22 2 -81t3 -137h255q18 -1 24 -13.5t3.5 -27.5t-11.5 -27t-21 -11h-43.5t-59 0.5t-70 0.5t-76.5 -1q1 -75 2.5 -152.5t3.5 -147.5t4.5 -126.5t5.5 -88.5q2 -19 -11 -30t-30 -13t-32 6t-16 27l-9 525
q-48 -2 -92.5 -1t-79.5 1q-19 0 -28.5 12.5t-9.5 27.5t9 27t28 12h172z" />
    <glyph glyph-name="u" unicode="u" horiz-adv-x="623" 
d="M490 150q-26 -28 -63 -57.5t-79.5 -50.5t-89.5 -27.5t-93 11.5q-41 16 -67.5 49.5t-41.5 78.5t-20 97.5t-2.5 106.5t11.5 106.5t21 96.5q4 14 19 19.5t31 3t26 -14t4 -32.5q-10 -32 -18.5 -75.5t-12.5 -90.5t-1.5 -93.5t13.5 -84.5t32 -64.5t55 -33.5q36 -7 76 7t77 39
t67 54.5t45 53.5l-32 300q-3 18 9.5 26t28 8t29.5 -6.5t16 -17.5q3 -21 7.5 -57.5t9 -81.5t10 -95.5t11.5 -100t12 -95.5t13 -81q4 -19 -8.5 -31.5t-29.5 -15.5t-33 4t-19 26z" />
    <glyph glyph-name="v" unicode="v" horiz-adv-x="608" 
d="M355 14q-4 -9 -14.5 -14t-22.5 -5.5t-23 4.5t-16 15l-251 517q-8 16 0.5 28t23.5 17.5t30.5 4t21.5 -11.5q13 -24 37 -73.5t53.5 -111t61 -127t60.5 -119.5q27 56 56 125t56 134.5t49.5 118.5t35.5 77q6 10 21.5 11.5t30.5 -4t23.5 -17.5t0.5 -28z" />
    <glyph glyph-name="w" unicode="w" horiz-adv-x="824" 
d="M412 346l-111 -330q-4 -9 -17.5 -14.5t-29 -6.5t-29 3t-17.5 14l-192 554q-7 17 3 28.5t25 17t30.5 3t20.5 -12.5q11 -24 28.5 -79t39 -123t45.5 -139t48 -126q36 101 65.5 191t50.5 159q4 12 15 18.5t24 7t25 -5.5t17 -19q23 -63 51 -156t64 -194q16 37 31.5 81.5
t30.5 92t28.5 93.5t25.5 86.5t22 71t17 46.5q5 10 20.5 12.5t30.5 -3t25 -17t3 -28.5l-186 -558q-4 -10 -17.5 -14t-29 -3t-29 6.5t-17.5 14.5z" />
    <glyph glyph-name="x" unicode="x" horiz-adv-x="596" 
d="M353 296q33 -35 64.5 -69t60 -64t52 -55t39.5 -43q13 -15 8 -31.5t-18.5 -27t-31 -12t-29.5 13.5l-200 226l-200 -226q-12 -15 -28.5 -14.5t-29 10t-16.5 25t9 30.5q16 18 39 43.5t50.5 56.5t58.5 65.5t63 70.5l-223 253q-11 15 -4 28t21.5 20.5t30 8t21.5 -9.5
q7 -13 26.5 -37t47.5 -55.5t62 -69t71 -77.5q36 40 69.5 78.5t62 71t49.5 57.5t32 39q7 9 22 7.5t28.5 -10t19.5 -22.5t-5 -29z" />
    <glyph glyph-name="y" unicode="y" horiz-adv-x="620" 
d="M376 144l151 417q6 18 21.5 22t30.5 -1.5t24.5 -18.5t3.5 -29q-7 -20 -27.5 -75t-47.5 -128t-57 -156.5t-57.5 -161.5t-49 -142t-30.5 -99q-5 -19 -21.5 -25t-33.5 -1.5t-28 18t-6 31.5l88 242q-22 33 -50 77.5t-58.5 93t-62 97t-59 91t-49 75t-33.5 47.5
q-11 13 -5.5 28.5t18.5 25t28.5 10.5t26.5 -14z" />
    <glyph glyph-name="z" unicode="z" horiz-adv-x="542" 
d="M507 4q-116 -2 -193 -4t-125 -2.5t-72 -1t-34.5 -0.5t-11.5 0.5t-4 0.5q-14 1 -23.5 8.5t-14 18t-2.5 22t11 22.5l387 439l-370 -16q-18 -1 -25.5 10.5t-7 25t8 25.5t19.5 13q32 1 82.5 3t108.5 4.5t119 6t115 8.5q16 1 27 -8t16.5 -23t3 -31t-13.5 -31q-38 -48 -86 -104
t-98 -113t-98 -110.5t-86 -95.5q40 0 85.5 0.5t91.5 2t91 4t85 6.5q20 2 32 -10t14 -27t-5.5 -28.5t-26.5 -14.5z" />
    <glyph glyph-name="braceright" unicode="}" horiz-adv-x="334" 
d="M89 -142q-21 -2 -30 11.5t-8 30t10.5 29.5t24.5 11q25 -3 42.5 9.5t28 32.5t14.5 43t3 42q-3 47 -16 96.5t-18.5 97.5t6.5 92t59 79q-37 32 -50.5 73.5t-14 86.5t8 91.5t14.5 87.5q3 23 -5 42.5t-23 33t-35 20.5t-41 6q-12 -1 -17.5 9.5t-6 23.5t4.5 24.5t16 13.5
q47 8 84.5 -7t62.5 -43.5t34.5 -66t1.5 -74.5q-1 -6 -4.5 -24t-6 -42.5t-3 -53t4 -56.5t15.5 -53t31 -41q34 -28 30 -56.5t-37 -46.5q-23 -12 -32 -34t-10 -50t4.5 -60.5t12 -64.5t11.5 -62t5 -54q-2 -93 -48 -142t-123 -55z" />
    <glyph glyph-name="Euro" unicode="&#x20ac;" horiz-adv-x="781" 
d="M256 271q7 -35 21.5 -67t38.5 -57t57.5 -41.5t79.5 -22.5q38 -5 75.5 5.5t66 33t44.5 56.5t12 76q-2 22 11.5 32.5t31 9.5t33 -12t15.5 -31q1 -62 -25 -110.5t-69 -81.5t-97 -48t-107 -9q-64 6 -112 29t-81 58.5t-53 81.5t-29 98h-110q-18 -1 -25 12t-5.5 29t9.5 29.5
t20 13.5q18 1 45 1h59q0 17 1 34t3 34h-104q-18 -1 -25 12t-5.5 29t9.5 29.5t20 13.5q20 1 50 1h68q15 69 44 132.5t73 111t104.5 74t137.5 21.5q33 -2 70.5 -20t67.5 -51t48 -81t12 -111q-2 -21 -16 -33t-29.5 -13t-27 9t-8.5 33q7 52 -4 87.5t-31.5 57.5t-46.5 31.5
t-49 10.5q-54 3 -96 -18t-74 -57.5t-53.5 -84.5t-34.5 -100q72 -1 144.5 0.5t129.5 6.5q20 1 31 -12.5t12.5 -30.5t-7 -32.5t-27.5 -16.5l-298 1q-2 -17 -3 -34.5t-1 -34.5q75 -1 152.5 0.5t137.5 6.5q20 1 31 -12.5t12.5 -30.5t-7 -32.5t-27.5 -16.5z" />
    <glyph glyph-name="dollar" unicode="$" horiz-adv-x="588" 
d="M233 67q-30 7 -60 21.5t-57 37t-49.5 52t-36.5 66.5q-6 14 4.5 26t25.5 19t30 6.5t18 -11.5q16 -49 48.5 -83.5t77.5 -51.5l3 252q-11 4 -20.5 7.5t-17.5 8.5q-44 20 -78.5 49.5t-53.5 66t-18 80.5t27 93q24 45 68.5 68t97.5 28l1 47q0 18 13 25t29 6t29 -9t13 -20v-51
q34 -5 65.5 -16t57.5 -28t45 -39t27 -49q5 -17 -1.5 -30.5t-17.5 -20.5t-22 -7t-15 9q-16 38 -54 67t-85 40q-1 -57 -2 -128t-3 -148q38 -14 80.5 -33t77.5 -45.5t57.5 -61.5t19.5 -80q-3 -43 -24.5 -74.5t-55 -52t-74.5 -31t-82 -12.5q2 -34 3 -52q1 -19 -13 -30t-31 -12.5
t-32 6.5t-16 27zM472 244q-5 26 -19.5 45.5t-35 35t-45 27t-50.5 20.5q-1 -65 -1.5 -125.5t-0.5 -111.5q29 1 58.5 6.5t52 18.5t35 33.5t6.5 50.5zM137 655q-18 -32 -13.5 -59t21.5 -49t43 -39t50 -28l3 250q-32 -6 -59 -24.5t-45 -50.5z" />
    <glyph glyph-name="fraction" unicode="&#x2044;" horiz-adv-x="399" 
d="M303 838q6 17 20.5 19t28.5 -4.5t24 -18.5t7 -23q-6 -21 -26.5 -79t-48.5 -136.5t-60 -168t-60.5 -172.5t-51 -150.5t-31.5 -102.5q-5 -19 -21.5 -25t-33 -1.5t-28 17.5t-6.5 31z" />
    <glyph glyph-name="colon" unicode=":" horiz-adv-x="203" 
d="M155 462q10 -15 0.5 -31t-27 -25t-37.5 -7t-30 22q-10 21 -1.5 36.5t25.5 23t37 3.5t33 -22zM153 224q10 -15 0.5 -31t-27 -25t-37.5 -7t-30 22q-10 21 -1.5 36.5t25.5 23t37 3.5t33 -22z" />
    <glyph glyph-name="bracketleft" unicode="[" horiz-adv-x="302" 
d="M24 884q0 15 7.5 24.5t19 15t25 8t26.5 2.5l127 8q18 1 25.5 -11.5t7 -28.5t-8 -29.5t-19.5 -13.5l-122 -8q0 -51 3 -267.5t7 -591.5l112 2q18 1 26 -11.5t7 -28.5t-8 -29.5t-19 -13.5l-127 -1q-11 0 -24.5 -0.5t-25.5 2t-20.5 9.5t-8.5 22z" />
    <glyph glyph-name="bracketright" unicode="]" horiz-adv-x="302" 
d="M268 -32q0 -15 -7.5 -24.5t-19 -15t-25 -8t-26.5 -2.5l-127 -8q-18 -1 -25.5 11.5t-7 28.5t8 29.5t19.5 13.5l122 8q0 51 -3 267.5t-7 591.5l-112 -2q-18 -1 -26 11.5t-7 28.5t8 29.5t19 13.5l127 1q10 0 24 0.5t26 -2t20.5 -9.5t8.5 -22z" />
    <glyph glyph-name="backslash" unicode="\" horiz-adv-x="399" 
d="M378 24q5 -18 -6.5 -31t-28 -17.5t-33 1.5t-21.5 25q-9 35 -31.5 102.5t-51 150.5t-60.5 172.5t-60 168t-48.5 136.5t-26.5 79q-3 11 7 23t24 18.5t28.5 4.5t20.5 -19z" />
    <glyph glyph-name="less" unicode="&#x3c;" horiz-adv-x="458" 
d="M64 332q-10 3 -15.5 13.5t-6 22.5t3.5 23t14 16l263 137q16 9 28.5 1t18.5 -23t5 -30.5t-11 -21.5l-178 -94l190 -74q10 -5 12 -20.5t-2.5 -30.5t-16 -24.5t-28.5 -1.5z" />
    <glyph glyph-name="greater" unicode="&#x3e;" horiz-adv-x="432" 
d="M96 225q-17 -8 -28.5 1.5t-16 24.5t-2.5 30.5t12 20.5l190 74l-178 94q-10 6 -11 21.5t5 30.5t18.5 23t28.5 -1l263 -137q10 -5 14 -16t3.5 -23t-6 -22.5t-15.5 -13.5z" />
    <glyph glyph-name="equal" unicode="=" horiz-adv-x="637" 
d="M133 447q-18 -1 -25 12t-5.5 29t9.5 29.5t20 13.5q32 1 76 1h94t104.5 1.5t108.5 6.5q20 1 31 -12.5t12.5 -30.5t-7 -32.5t-27.5 -16.5zM127 249q-18 -1 -25 12t-5.5 29t9.5 29.5t20 13.5q32 1 76 1h94t104.5 1.5t108.5 6.5q20 1 31 -12.5t12.5 -30.5t-7 -32.5
t-27.5 -16.5z" />
    <glyph glyph-name="exclamdown" unicode="&#xa1;" horiz-adv-x="168" 
d="M122.003 769.001q10.999 -14.999 1 -30.998q-10 -15.999 -27.499 -24.998q-17.498 -9 -37.4971 -7t-29.998 21.999q-10 20.998 -1.5 36.498q8.49902 15.499 25.498 22.998q16.999 7.5 36.998 3.5t32.998 -21.999zM35.0078 621.01q-1 17.999 11.499 25.499
q12.5 7.49902 28.499 6.49902q15.999 -0.999023 29.498 -8.49902q13.499 -7.49902 14.499 -19.499q2 -21.998 3 -67.4961q1 -45.4971 2 -104.993t2.49902 -126.992q1.5 -67.4961 3.5 -131.492t5 -119.492q3 -55.4971 7 -91.4951q1.99902 -18.998 -11 -30.498
q-12.999 -11.499 -30.498 -13.499t-32.498 6q-14.999 7.99902 -16.999 26.998z" />
    <glyph glyph-name="ellipsis" unicode="&#x2026;" horiz-adv-x="525" 
d="M136 59q10 -15 0.5 -31t-27 -25t-37.5 -7t-30 22q-10 21 -1.5 36.5t25.5 23t37 3.5t33 -22zM311 59q10 -15 0.5 -31t-27 -25t-37.5 -7t-30 22q-10 21 -1.5 36.5t25.5 23t37 3.5t33 -22zM486 59q10 -15 0.5 -31t-27 -25t-37.5 -7t-30 22q-10 21 -1.5 36.5t25.5 23t37 3.5
t33 -22z" />
    <glyph glyph-name="underscore" unicode="_" horiz-adv-x="494" 
d="M48 -27q-18 -1 -25 12t-5.5 29t9.5 29.5t20 13.5q32 1 76 1h94t104.5 1.5t108.5 6.5q20 1 31 -12.5t12.5 -30.5t-7 -32.5t-27.5 -16.5z" />
    <glyph glyph-name="semicolon" unicode=";" horiz-adv-x="193" 
d="M130 -139q-9 -20 -27.5 -22t-34.5 7t-23.5 26t5.5 34q10 14 20 32.5t12 40.5t-6.5 47t-33.5 52q-10 10 -4 23.5t19.5 22t30 9t28.5 -14.5q83 -106 14 -257zM130 277q10 -15 0.5 -31t-27 -25t-37.5 -7t-30 22q-10 21 -1.5 36.5t25.5 23t37 3.5t33 -22z" />
    <glyph glyph-name="dotlessi" unicode="&#x131;" horiz-adv-x="156" 
d="M29 596q-1 18 11.5 25.5t28.5 6.5t29.5 -8.5t14.5 -19.5q2 -21 3.5 -61.5t3 -92t3.5 -109t4.5 -113t6 -105.5t7.5 -86q2 -20 -11 -31t-30.5 -13t-32.5 6t-17 27z" />
    <glyph glyph-name="at" unicode="@" horiz-adv-x="883" 
d="M654 -18q-85 -33 -171 -36t-163.5 20.5t-141 71t-103.5 115.5t-51.5 154.5t16.5 187.5q22 78 70.5 148t115.5 119t147.5 71t166.5 6q71 -14 135.5 -56.5t110 -103.5t66.5 -136t5 -154q-6 -30 -21.5 -59.5t-37 -52t-48 -35t-54.5 -8.5q-26 4 -55 24t-53 63
q-13 -36 -37 -65t-56.5 -48t-70 -25.5t-77.5 3.5q-44 11 -73 40t-44 67t-16.5 81t10.5 84q17 58 56.5 97t89.5 55.5t105.5 9t105.5 -42.5q49 1 68 -26t6 -94q-5 -27 -3.5 -52.5t9 -45t20 -32t27.5 -12.5q19 -1 36.5 16.5t30.5 61.5q17 55 4 114.5t-47.5 110.5t-86 89
t-111.5 50q-72 15 -138.5 -1.5t-121.5 -56t-94.5 -97.5t-58.5 -127q-21 -76 -11.5 -146.5t42 -128t84 -99.5t114.5 -62.5t134 -15t143 42.5q24 12 44.5 5.5t28 -22t-1.5 -35t-44 -32.5zM368 262q34 -10 61.5 0t49 32t37 52t24 60t11 56t-1.5 40q-47 32 -86.5 38.5t-70 -4.5
t-53 -35.5t-35.5 -53.5q-12 -26 -14 -55t5.5 -55t25.5 -46t47 -29z" />
    <glyph glyph-name="sterling" unicode="&#xa3;" horiz-adv-x="765" 
d="M78 -11q-33 29 -34.5 66.5t17.5 69.5t54 52t76 13q5 35 11.5 80t10.5 84h-47q-18 -1 -25 11.5t-5 28t10 28.5t20 13q13 1 27.5 1h31.5q13 93 31.5 167t44.5 126.5t62.5 83t86.5 36.5q31 4 62.5 -5.5t57.5 -32.5t42.5 -61t16.5 -92q0 -20 -13 -26.5t-28 -4.5t-27.5 12
t-11.5 23q4 42 -6.5 64.5t-26.5 33t-33.5 12t-26.5 0.5q-33 -2 -58 -33t-43.5 -79t-31.5 -107t-22 -117q57 0 120.5 1t127.5 7q20 1 31 -12t12 -29.5t-7.5 -31.5t-27.5 -16l-267 -1q-3 -32 -6.5 -62t-6.5 -55.5t-5 -44.5t-2 -29q18 -6 49.5 -19t70.5 -27t81 -25t80.5 -12
t70 11.5t48.5 45.5q8 16 25.5 16t31.5 -10.5t18 -29t-14 -39.5q-31 -37 -70.5 -53.5t-83 -19t-89 6t-89 23t-83.5 31t-71 30.5q-9 -28 -24.5 -55t-36.5 -44t-47.5 -20.5t-58.5 16.5zM115 46q12 -10 22 -1.5t18 23t12 30t4 18.5q-20 1 -34.5 -6.5t-22 -19t-8 -24t8.5 -20.5z
" />
    <glyph glyph-name="braceleft" unicode="{" horiz-adv-x="344" 
d="M260 -142q-77 6 -123 55t-48 142q-1 24 4.5 54t12 62t12 64.5t4.5 60.5t-10.5 50t-31.5 34q-33 18 -37 46.5t30 56.5q20 16 31 41t15.5 53t4 56.5t-3 53t-6 42.5t-4.5 24q-8 37 1.5 74.5t34.5 66t62.5 43.5t84.5 7q10 -2 15.5 -13.5t5 -24.5t-6 -23.5t-17.5 -9.5
q-21 1 -41 -6t-35 -20.5t-23 -33t-5 -42.5q6 -41 14.5 -87.5t8 -91.5t-14 -86.5t-50.5 -73.5q47 -35 59 -79t6.5 -92t-18.5 -97.5t-16 -96.5q-1 -19 3 -42t14.5 -43t28 -32.5t42.5 -9.5q15 2 24.5 -11t10.5 -29.5t-8 -30t-30 -11.5z" />
    <glyph glyph-name="bar" unicode="|" horiz-adv-x="703" 
d="M247 758q0 22 8.5 41.5t23 34.5t34 23.5t41.5 8.5q20 0 39 -8t36 -26q11 -16 19 -32.5t8 -41.5q0 -13 -5 -27.5t-14 -27.5t-21.5 -24t-27.5 -17v-15t2 -33l76 7v-64l-74 6q3 -45 6.5 -100.5t6.5 -105t5.5 -85t2.5 -41.5q24 9 47 22t42.5 28t35 31t25.5 30q-13 0 -28 3
t-20 3l-16 6l111 95l53 -111l6 -16q-14 2 -25 5q-10 2 -19.5 3.5t-14.5 1.5q-2 -22 -9.5 -50t-24.5 -56.5t-44.5 -54t-69.5 -40.5q0 -2 -14.5 -11.5t-32.5 -25.5t-34.5 -39t-20.5 -53h-17q-2 30 -18 53.5t-34 40.5q-22 19 -48 35q-60 23 -98.5 76.5t-45.5 130.5
q-6 -2 -14.5 -3.5t-16.5 -3.5q-9 -2 -18 -3l-14 -6l63 127l95 -84l12 -11q-13 -2 -24 -4l-20 -4t-17 -4q9 -12 24 -28.5t34.5 -32.5t43 -28.5t49.5 -16.5q0 4 2.5 39t5.5 83.5t6.5 104t6.5 100.5l-80 -6v64q15 -1 29 -3q12 -2 26 -3.5t27 -2.5q2 22 3 35t1 15q-76 25 -76 96
zM294 758q0 -23 16 -40t39 -17t39.5 17t16.5 40t-16.5 39t-39.5 16t-39 -16t-16 -39z" />
    <glyph glyph-name="asciicircum" unicode="^" horiz-adv-x="288" 
d="M119 526q3 7 11.5 11t18 4t18 -3.5t11.5 -11.5l62 -108q6 -13 -1 -22.5t-18.5 -13.5t-24 -2.5t-16.5 9.5l-32 53l-30 -56q-4 -8 -16.5 -9t-24 3.5t-18.5 14t-1 22.5z" />
    <glyph glyph-name="circumflex" unicode="&#x2c6;" horiz-adv-x="292" 
d="M107 809q3 7 11.5 11t18 4t18 -3.5t11.5 -11.5l62 -108q6 -13 -1 -22.5t-18.5 -13.5t-24 -2.5t-16.5 9.5l-32 53l-30 -56q-4 -8 -16.5 -9t-24 3.5t-18.5 14t-1 22.5z" />
    <glyph glyph-name="caron" unicode="&#x2c7;" horiz-adv-x="292" 
d="M172 661q-3 -8 -11.5 -11.5t-18 -3.5t-18 3.5t-11.5 11.5l-62 108q-6 13 1 22.5t18.5 13.5t24 2.5t16.5 -9.5l32 -53l30 56q4 8 16.5 9t24 -3.5t18.5 -14t1 -22.5z" />
    <glyph glyph-name="asciitilde" unicode="~" horiz-adv-x="627" 
d="M123 309q-6 -17 -19.5 -18.5t-26 5t-20 18.5t-2.5 23q12 25 26 49t32.5 44t42.5 35t56 21q46 9 77 -6t54 -37t41 -43t36 -25q15 -3 28.5 3.5t24.5 18t21 26.5t19 30q6 9 18.5 10t24.5 -3.5t20.5 -14t5.5 -20.5q-7 -27 -25.5 -51t-41.5 -41.5t-47.5 -27.5t-43.5 -10
q-23 0 -41.5 9.5t-34.5 24.5t-31 32t-30 30.5t-32 21t-37 3.5q-8 -2 -19.5 -7.5t-24.5 -17.5t-26.5 -32t-24.5 -50z" />
    <glyph glyph-name="tilde" unicode="&#x2dc;" horiz-adv-x="627" 
d="M109 662q-6 -17 -19.5 -18.5t-26 5t-20 18.5t-2.5 23q12 25 26 49t32.5 44t42.5 35t56 21q46 9 77 -6t54 -37t41 -43t36 -25q15 -3 28.5 3.5t24.5 18t21 26.5t19 30q6 9 18.5 10t24.5 -3.5t20.5 -14t5.5 -20.5q-7 -27 -25.5 -51t-41.5 -41.5t-47.5 -27.5t-43.5 -10
q-23 -1 -41.5 9t-34.5 25t-31 32t-30 30.5t-32 21t-37 3.5q-8 -2 -19.5 -7.5t-24.5 -17.5t-26.5 -32t-24.5 -50z" />
    <glyph glyph-name="quotesinglbase" unicode="&#x201a;" horiz-adv-x="214" 
d="M124 -53q-9 -20 -27.5 -22t-34.5 7t-23.5 26t5.5 34q10 14 20 32.5t12 40.5t-6.5 47t-33.5 52q-10 10 -4 23.5t19.5 22t30 9t28.5 -14.5q83 -106 14 -257z" />
    <glyph glyph-name="quoteright" unicode="&#x2019;" horiz-adv-x="214" 
d="M132 490q-9 -20 -27.5 -22t-34.5 7t-23.5 26t5.5 34q10 14 20 32.5t12 40.5t-6.5 47t-33.5 52q-10 10 -4 23.5t19.5 22t30 9t28.5 -14.5q83 -106 14 -257z" />
    <glyph glyph-name="quotedblbase" unicode="&#x201e;" horiz-adv-x="411" 
d="M158 -63q-9 -20 -27.5 -22t-34.5 7t-23.5 26t5.5 34q10 14 20 32.5t12 40.5t-6.5 47t-33.5 52q-10 10 -4 23.5t19.5 22t30 9t28.5 -14.5q83 -106 14 -257zM336 -43q-9 -20 -27.5 -22t-34.5 7t-23.5 26t5.5 34q10 14 20 32.5t12 40.5t-6.5 47t-33.5 52q-10 10 -4 23.5
t19.5 22t30 9t28.5 -14.5q83 -106 14 -257z" />
    <glyph glyph-name="quotedblright" unicode="&#x201d;" horiz-adv-x="411" 
d="M156 528q-9 -20 -27.5 -22t-34.5 7t-23.5 26t5.5 34q10 14 20 32.5t12 40.5t-6.5 47t-33.5 52q-10 10 -4 23.5t19.5 22t30 9t28.5 -14.5q83 -106 14 -257zM334 548q-9 -20 -27.5 -22t-34.5 7t-23.5 26t5.5 34q10 14 20 32.5t12 40.5t-6.5 47t-33.5 52q-10 10 -4 23.5
t19.5 22t30 9t28.5 -14.5q83 -106 14 -257z" />
    <glyph glyph-name="quotedblleft" unicode="&#x201c;" horiz-adv-x="411" 
d="M272 528q-69 151 14 257q12 15 28.5 14.5t30 -9t19.5 -22t-4 -23.5q-26 -27 -34 -52t-6 -47t11.5 -40.5t20.5 -32.5q13 -17 5.5 -34t-23.5 -26t-34.5 -7t-27.5 22zM94 548q-69 151 14 257q12 15 28.5 14.5t30 -9t19.5 -22t-4 -23.5q-26 -27 -34 -52t-6 -47t11.5 -40.5
t20.5 -32.5q13 -17 5.5 -34t-23.5 -26t-34.5 -7t-27.5 22z" />
    <glyph glyph-name="quoteleft" unicode="&#x2018;" horiz-adv-x="214" 
d="M70 739q9 20 27.5 22t34.5 -7t23.5 -26t-5.5 -34q-11 -14 -20.5 -32.5t-11.5 -40.5t6 -47t34 -52q10 -11 4 -24t-19.5 -21.5t-30 -9t-28.5 14.5q-83 106 -14 257z" />
    <glyph glyph-name="dotaccent" unicode="&#x2d9;" horiz-adv-x="184" 
d="M146 720q10 -15 0.5 -31t-27 -25t-37.5 -7t-30 22q-10 21 -1.5 36.5t25.5 23t37 3.5t33 -22z" />
    <glyph glyph-name="ring" unicode="&#x2da;" horiz-adv-x="240" 
d="M161 740q-11 14 -26.5 16.5t-29 -2.5t-20.5 -17t1 -28q8 -15 23.5 -16.5t30 5.5t22 18.5t-0.5 23.5zM204 761q13 -24 9 -44.5t-18.5 -36.5t-36 -25.5t-44 -9.5t-42.5 10t-32 34q-17 36 -0.5 64.5t46.5 42t64.5 6.5t53.5 -41z" />
    <glyph glyph-name="acute" unicode="&#xb4;" horiz-adv-x="214" 
d="M96 663q-12 -12 -27.5 -11t-26.5 10t-14.5 23.5t10.5 29.5l76 84q16 18 33 18.5t28 -9.5t13.5 -26t-10.5 -32z" />
    <glyph glyph-name="hungarumlaut" unicode="&#x2dd;" horiz-adv-x="360" 
d="M96 663q-12 -12 -27.5 -11t-26.5 10t-14.5 23.5t10.5 29.5l76 84q16 18 33 18.5t28 -9.5t13.5 -26t-10.5 -32zM244 655q-12 -12 -27.5 -11t-26.5 10t-14.5 23.5t10.5 29.5l76 84q16 18 33 18.5t28 -9.5t13.5 -26t-10.5 -32z" />
    <glyph glyph-name="breve" unicode="&#x2d8;" horiz-adv-x="350" 
d="M32 784q-1 15 9 24t22.5 10t23 -7t11.5 -27q1 -20 7.5 -32.5t16.5 -20t22 -10t24 -2.5q25 1 48 17.5t26 60.5q1 13 11.5 19t23 5t22.5 -10t9 -27q-2 -34 -15 -58t-33.5 -40t-45.5 -23.5t-50 -7.5q-24 0 -47 6.5t-41 21.5t-30 40t-14 61z" />
    <glyph glyph-name="questiondown" unicode="&#xbf;" horiz-adv-x="607" 
d="M345.016 592.012q-2.99902 19.998 8 32.998q10.999 12.999 25.998 16.499q14.999 3.49902 29.998 -3q15 -6.5 19.999 -24.499q3 -9.99902 6.5 -33.998q3.5 -23.998 6.99902 -53.9961q3.5 -29.998 7 -63.4961t6.5 -63.4961q2.99902 -28.998 -12.5 -51.4971
t-54.4961 -17.499q-16.999 2 -44.9971 -1.5q-27.999 -3.5 -59.9971 -12.499t-63.9961 -23.499q-31.998 -14.499 -57.9961 -35.4971q-25.998 -20.999 -42.4971 -47.9971q-16.499 -26.999 -16.499 -60.9961q0 -33.998 17.499 -59.9971q17.498 -25.998 45.9971 -43.9971
q28.498 -17.999 64.9961 -27.998q36.4971 -10 74.4951 -12q35.998 -0.999023 70.9951 9.5q34.998 10.499 63.4971 30.498q28.498 19.999 48.4971 47.9971q19.998 27.998 25.998 61.9961q3 14.999 16.999 17.499t27.998 -3.5q13.999 -5.99902 23.999 -18.999
q9.99902 -12.999 3.99902 -27.998q-13.999 -36.9971 -39.4971 -73.4951q-25.499 -36.498 -62.4961 -63.9961q-36.998 -27.498 -85.9951 -43.498q-48.9971 -15.998 -110.993 -12.999q-46.9971 3 -93.9941 17.499t-84.4951 40.998q-37.4971 26.498 -60.9961 65.4961
q-23.499 38.9971 -23.499 89.9941q0 53.9971 16.999 93.9941q16.999 39.998 45.498 69.4961q28.498 29.498 64.4951 49.4971q35.998 19.998 74.4961 32.498q38.4971 12.499 75.9951 18.998q37.498 6.5 67.4961 8.5q-1 34.998 -4.5 63.9961t-7.99902 51.4971
q-4.5 22.498 -8.5 38.4971t-5 23.999zM313.018 723.004q-9.99902 15.999 0.5 31.498q10.5 15.499 28.499 23.498q17.999 8 37.9971 5.5q19.999 -2.5 28.998 -22.499q9 -20.999 0 -36.498q-8.99902 -15.499 -26.498 -21.998q-17.499 -6.5 -37.498 -2.5
q-19.998 4 -31.998 22.999z" />
    <glyph glyph-name="ogonek" unicode="&#x2db;" horiz-adv-x="256" 
d="M145 47q-13 -11 -17.5 -25.5t-3.5 -29.5q1 -25 17.5 -48t60.5 -26q13 -1 19 -11.5t5 -23t-10 -22.5t-27 -9q-34 1 -58 14.5t-40 34t-23.5 45.5t-7.5 50q-1 29 8.5 55t31.5 45z" />
    <glyph glyph-name="cedilla" unicode="&#xb8;" horiz-adv-x="274" 
d="M120 22q-1 -5 -4 -14t-3 -32q24 1 49 -3.5t45.5 -16t33.5 -30.5t13 -46q0 -31 -13 -50t-32 -30t-40 -15t-37 -5q-21 -1 -41 5.5t-36.5 18t-28.5 25.5t-16 27q-4 12 3 22.5t17.5 16t20.5 4.5t13 -11q6 -22 26 -36.5t45 -13.5q26 1 41.5 9t15.5 31q0 17 -12.5 26.5t-29 14
t-33 5.5t-25.5 0q-7 -1 -15 2t-14 9.5t-9.5 16t-1.5 22.5q4 20 5 35.5t3 22.5q2 6 12 8t21 0t19.5 -6.5t7.5 -11.5z" />
    <glyph glyph-name="dieresis" unicode="&#xa8;" horiz-adv-x="352" 
d="M146 720q10 -15 0.5 -31t-27 -25t-37.5 -7t-30 22q-10 21 -1.5 36.5t25.5 23t37 3.5t33 -22zM310 726q10 -15 0.5 -31t-27 -25t-37.5 -7t-30 22q-10 21 -1.5 36.5t25.5 23t37 3.5t33 -22z" />
    <glyph glyph-name="Thorn" unicode="&#xde;" 
d="M153 -93q0 -19 -14 -29.5t-31.5 -11.5t-31.5 7.5t-14 27.5q0 36 -1.5 101t-4 143.5t-6 162t-6.5 157t-5 128.5t-3 77q0 12 12.5 20.5t28 10t28.5 -5t14 -25.5v-164q50 42 102.5 64t103 25t96.5 -12t82.5 -45.5t61.5 -76.5t33 -104q8 -61 1 -120t-32.5 -107t-72 -80.5
t-116.5 -41.5q-60 -8 -121.5 7t-112.5 63zM518 346q-8 49 -31.5 83.5t-57 54.5t-73 24.5t-80 -6t-78.5 -36.5t-67 -67q2 -51 3 -101.5t8 -101.5q15 -33 45 -56.5t66 -37t74 -16t68 5.5q42 12 69 39.5t41 63t17 75.5t-4 76z" />
    <glyph glyph-name="thorn" unicode="&#xfe;" horiz-adv-x="637" 
d="M142 50q0 -19 -14 -29.5t-31.5 -11.5t-31.5 7.5t-14 27.5q0 36 -1.5 101t-4 143.5t-6 162t-6.5 157t-5 128.5t-3 77q0 12 12.5 20.5t28 10t28.5 -5t14 -25.5v-164q49 43 102 64.5t103.5 24.5t96.5 -12t82.5 -45.5t61.5 -76.5t33 -104q8 -61 1 -120t-32.5 -107t-72 -80.5
t-116.5 -41.5q-60 -8 -121.5 7t-112.5 63zM507 489q-8 49 -31.5 83.5t-57 54.5t-73 24.5t-80 -6t-78.5 -36.5t-67 -67q2 -51 3 -101.5t8 -101.5q15 -33 45 -56.5t66 -37t74 -16t68 5.5q42 12 69 39.5t41 63t17 75.5t-4 76z" />
    <glyph glyph-name="germandbls" unicode="&#xdf;" horiz-adv-x="643" 
d="M132 9q-1 -17 -13 -26.5t-27 -11t-28 6t-14 24.5l-18 604q-2 56 10.5 97t32 68t43 42t44.5 18q66 10 122.5 6.5t98.5 -23t66.5 -55.5t27.5 -89q1 -21 -8.5 -46.5t-28 -51t-44 -48.5t-55.5 -39q37 4 82 -0.5t85.5 -24t71.5 -56t40 -97.5q7 -46 -6 -88t-39 -77.5
t-64.5 -64.5t-82.5 -48t-93 -28t-96 -5q-10 1 -18.5 13.5t-10 26.5t6 25.5t29.5 10.5q52 -3 106.5 14t98.5 47.5t70 72.5t21 89q-5 40 -36 64.5t-76 35.5t-98.5 9.5t-103.5 -12.5q-14 -3 -24.5 9t-15 29t-1.5 33t17 21q25 9 56 28t58.5 44t46.5 54t21 59q2 27 -16 45
t-47.5 28t-66 12.5t-72.5 -1.5q-11 -1 -24 -9t-24.5 -24t-18.5 -39.5t-6 -55.5z" />
    <glyph glyph-name="multiply" unicode="&#xd7;" horiz-adv-x="542" 
d="M328 367q24 -26 49.5 -52t51.5 -50q15 -14 12 -31t-15 -30t-29 -16.5t-31 9.5l-99 109l-101 -101q-12 -14 -26 -9.5t-24 17t-14 27.5t4 24q20 21 47.5 48.5l57.5 57.5l-105 118q-13 13 -7.5 27t18 23.5t28 12t23.5 -5.5q20 -22 46 -51.5t56 -62.5q50 51 101 110
q13 15 30 13.5t30.5 -13t18 -28t-7.5 -30.5z" />
    <glyph glyph-name="divide" unicode="&#xf7;" horiz-adv-x="518" 
d="M68 287q-18 -1 -25 12t-5.5 29t9.5 29.5t20 13.5q32 1 76 1h94t104.5 1.5t108.5 6.5q20 1 31 -12.5t12.5 -30.5t-7 -32.5t-27.5 -16.5zM300 490q10 -15 0.5 -31t-27 -25t-37.5 -7t-30 22q-10 21 -1.5 36.5t25.5 23t37 3.5t33 -22zM296 194q10 -15 0.5 -31t-27 -25
t-37.5 -7t-30 22q-10 21 -1.5 36.5t25.5 23t37 3.5t33 -22z" />
    <glyph glyph-name="minus" unicode="&#x2212;" horiz-adv-x="552" 
d="M94 339q-18 -1 -25 12t-5.5 29t9.5 29.5t20 13.5q32 1 76 1h94t104.5 1.5t108.5 6.5q20 1 31 -12.5t12.5 -30.5t-7 -32.5t-27.5 -16.5z" />
    <glyph glyph-name="endash" unicode="&#x2013;" horiz-adv-x="432" 
d="M94 339q-18 -1 -25 12t-5.5 29t9.5 29.5t20 13.5q32 1 55.5 0t49 -2t59.5 -0.5t88 5.5q20 1 31 -12.5t12.5 -30.5t-7 -32.5t-27.5 -16.5z" />
    <glyph glyph-name="emdash" unicode="&#x2014;" horiz-adv-x="789" 
d="M94 339q-18 -1 -25 12t-5.5 29t9.5 29.5t20 13.5q21 1 63.5 0.5t96.5 -1.5t115 -2t120 -1t110.5 1t87.5 4q20 1 31 -12.5t12.5 -30.5t-7 -32.5t-27.5 -16.5z" />
    <glyph glyph-name="Aacute" unicode="&#xc1;" horiz-adv-x="716" 
d="M700 60q6 -18 -4 -32t-26.5 -19.5t-33.5 -1t-23 23.5q-12 35 -38 103.5t-58 153.5l-344 -51q-26 -69 -46 -124.5t-31 -85.5q-6 -19 -23 -23.5t-33.5 1t-26.5 19.5t-4 32l301 766q7 19 20 26.5t26.5 6.5t24.5 -9t15 -18zM355 706q-15 -36 -32.5 -81t-36.5 -94t-39 -100.5
t-39 -101.5q57 8 129 19t148 25q-35 91 -69.5 179t-60.5 154zM347 902q-12 -12 -27.5 -11t-26.5 10t-14.5 23.5t10.5 29.5l76 84q16 18 33 18.5t28 -9.5t13.5 -26t-10.5 -32z" />
    <glyph glyph-name="Abreve" unicode="&#x102;" horiz-adv-x="716" 
d="M700 60q6 -18 -4 -32t-26.5 -19.5t-33.5 -1t-23 23.5q-12 35 -38 103.5t-58 153.5l-344 -51q-26 -69 -46 -124.5t-31 -85.5q-6 -19 -23 -23.5t-33.5 1t-26.5 19.5t-4 32l301 766q7 19 20 26.5t26.5 6.5t24.5 -9t15 -18zM355 706q-15 -36 -32.5 -81t-36.5 -94t-39 -100.5
t-39 -101.5q57 8 129 19t148 25q-35 91 -69.5 179t-60.5 154zM220 1023q-1 15 9 24t22.5 10t23 -7t11.5 -27q1 -20 7.5 -32.5t16.5 -20t22 -10t24 -2.5q25 1 48 17.5t26 60.5q1 13 11.5 19t23 5t22.5 -10t9 -27q-2 -34 -15 -58t-33.5 -40t-45.5 -23.5t-50 -7.5
q-24 0 -47 6.5t-41 21.5t-30 40t-14 61z" />
    <glyph glyph-name="Acircumflex" unicode="&#xc2;" horiz-adv-x="716" 
d="M700 60q6 -18 -4 -32t-26.5 -19.5t-33.5 -1t-23 23.5q-12 35 -38 103.5t-58 153.5l-344 -51q-26 -69 -46 -124.5t-31 -85.5q-6 -19 -23 -23.5t-33.5 1t-26.5 19.5t-4 32l301 766q7 19 20 26.5t26.5 6.5t24.5 -9t15 -18zM355 706q-15 -36 -32.5 -81t-36.5 -94t-39 -100.5
t-39 -101.5q57 8 129 19t148 25q-35 91 -69.5 179t-60.5 154zM328 1048q3 7 11.5 11t18 4t18 -3.5t11.5 -11.5l62 -108q6 -13 -1 -22.5t-18.5 -13.5t-24 -2.5t-16.5 9.5l-32 53l-30 -56q-4 -8 -16.5 -9t-24 3.5t-18.5 14t-1 22.5z" />
    <glyph glyph-name="Agrave" unicode="&#xc0;" horiz-adv-x="716" 
d="M700 60q6 -18 -4 -32t-26.5 -19.5t-33.5 -1t-23 23.5q-12 35 -38 103.5t-58 153.5l-344 -51q-26 -69 -46 -124.5t-31 -85.5q-6 -19 -23 -23.5t-33.5 1t-26.5 19.5t-4 32l301 766q7 19 20 26.5t26.5 6.5t24.5 -9t15 -18zM355 706q-15 -36 -32.5 -81t-36.5 -94t-39 -100.5
t-39 -101.5q57 8 129 19t148 25q-35 91 -69.5 179t-60.5 154zM287 989q-13 16 -10.5 32t13.5 26t28 9.5t33 -18.5l76 -84q13 -15 10 -29.5t-14 -23.5t-26.5 -10t-27.5 11z" />
    <glyph glyph-name="Adieresis" unicode="&#xc4;" horiz-adv-x="716" 
d="M700 60q6 -18 -4 -32t-26.5 -19.5t-33.5 -1t-23 23.5q-12 35 -38 103.5t-58 153.5l-344 -51q-26 -69 -46 -124.5t-31 -85.5q-6 -19 -23 -23.5t-33.5 1t-26.5 19.5t-4 32l301 766q7 19 20 26.5t26.5 6.5t24.5 -9t15 -18zM355 706q-15 -36 -32.5 -81t-36.5 -94t-39 -100.5
t-39 -101.5q57 8 129 19t148 25q-35 91 -69.5 179t-60.5 154zM322 959q10 -15 0.5 -31t-27 -25t-37.5 -7t-30 22q-10 21 -1.5 36.5t25.5 23t37 3.5t33 -22zM486 965q10 -15 0.5 -31t-27 -25t-37.5 -7t-30 22q-10 21 -1.5 36.5t25.5 23t37 3.5t33 -22z" />
    <glyph glyph-name="Amacron" unicode="&#x100;" horiz-adv-x="716" 
d="M700 60q6 -18 -4 -32t-26.5 -19.5t-33.5 -1t-23 23.5q-12 35 -38 103.5t-58 153.5l-344 -51q-26 -69 -46 -124.5t-31 -85.5q-6 -19 -23 -23.5t-33.5 1t-26.5 19.5t-4 32l301 766q7 19 20 26.5t26.5 6.5t24.5 -9t15 -18zM355 706q-15 -36 -32.5 -81t-36.5 -94t-39 -100.5
t-39 -101.5q57 8 129 19t148 25q-35 91 -69.5 179t-60.5 154z" />
    <glyph glyph-name="Aogonek" unicode="&#x104;" horiz-adv-x="716" 
d="M700 60q4 -11 1.5 -20.5t-9.5 -16.5t-16.5 -11.5t-19.5 -5.5q-6 -16 -5 -34q1 -25 17.5 -48t60.5 -26q13 -1 19 -11.5t5 -23t-10 -22.5t-27 -9q-34 1 -58 14.5t-40 34t-23.5 45.5t-7.5 50q-2 43 19 75q-14 39 -37.5 101t-51.5 136l-344 -51q-26 -69 -46 -124.5t-31 -85.5
q-6 -19 -23 -23.5t-33.5 1t-26.5 19.5t-4 32l301 766q7 19 20 26.5t26.5 6.5t24.5 -9t15 -18zM355 706q-15 -36 -32.5 -81t-36.5 -94t-39 -100.5t-39 -101.5q57 8 129 19t148 25q-35 91 -69.5 179t-60.5 154z" />
    <glyph glyph-name="Aring" unicode="&#xc5;" horiz-adv-x="716" 
d="M700 60q6 -18 -4 -32t-26.5 -19.5t-33.5 -1t-23 23.5q-12 35 -38 103.5t-58 153.5l-344 -51q-26 -69 -46 -124.5t-31 -85.5q-6 -19 -23 -23.5t-33.5 1t-26.5 19.5t-4 32l301 766q7 19 20 26.5t26.5 6.5t24.5 -9t15 -18zM355 706q-15 -36 -32.5 -81t-36.5 -94t-39 -100.5
t-39 -101.5q57 8 129 19t148 25q-35 91 -69.5 179t-60.5 154zM394 979q-11 14 -26.5 16.5t-29 -2.5t-20.5 -17t1 -28q8 -15 23.5 -16.5t30 5.5t22 18.5t-0.5 23.5zM437 1000q13 -24 9 -44.5t-18.5 -36.5t-36 -25.5t-44 -9.5t-42.5 10t-32 34q-17 36 -0.5 64.5t46.5 42
t64.5 6.5t53.5 -41z" />
    <glyph glyph-name="Atilde" unicode="&#xc3;" horiz-adv-x="716" 
d="M700 60q6 -18 -4 -32t-26.5 -19.5t-33.5 -1t-23 23.5q-12 35 -38 103.5t-58 153.5l-344 -51q-26 -69 -46 -124.5t-31 -85.5q-6 -19 -23 -23.5t-33.5 1t-26.5 19.5t-4 32l301 766q7 19 20 26.5t26.5 6.5t24.5 -9t15 -18zM355 706q-15 -36 -32.5 -81t-36.5 -94t-39 -100.5
t-39 -101.5q57 8 129 19t148 25q-35 91 -69.5 179t-60.5 154zM166 901q-6 -17 -19.5 -18.5t-26 5t-20 18.5t-2.5 23q12 25 26 49t32.5 44t42.5 35t56 21q46 9 77 -6t54 -37t41 -43t36 -25q15 -3 28.5 3.5t24.5 18t21 26.5t19 30q6 9 18.5 10t24.5 -3.5t20.5 -14t5.5 -20.5
q-7 -27 -25.5 -51t-41.5 -41.5t-47.5 -27.5t-43.5 -10q-23 -1 -41.5 9t-34.5 25t-31 32t-30 30.5t-32 21t-37 3.5q-8 -2 -19.5 -7.5t-24.5 -17.5t-26.5 -32t-24.5 -50z" />
    <glyph glyph-name="AE" unicode="&#xc6;" horiz-adv-x="1140" 
d="M567 365l-215 -11q-17 -27 -39.5 -59.5t-46.5 -67.5t-48.5 -69.5t-44.5 -64t-35 -51.5t-20 -32q-10 -19 -27.5 -23.5t-32.5 1.5t-23 20t1 32l509 749q12 18 25 27t26 13t24.5 4.5t21.5 0.5l410 16q18 1 25.5 -11.5t7 -28.5t-8 -29.5t-19.5 -13.5q-18 -2 -57 -3.5
t-92.5 -3.5t-118.5 -4t-137 -5v-60t-0.5 -73t-1 -81t-0.5 -82l337 21q18 1 26 -11.5t7 -28t-8.5 -29.5t-19.5 -15q-36 -3 -123 -9t-218 -13q0 -41 0.5 -81.5t1.5 -78t2.5 -71t2.5 -58.5l433 18q18 1 26 -11.5t7 -28.5t-8 -29.5t-19 -13.5q-19 -2 -64 -4t-106 -4t-133 -4.5
t-145 -4.5q-11 0 -24.5 -0.5t-25.5 2t-20.5 9.5t-8.5 22zM566 452l-1 225l-144 -231z" />
    <glyph glyph-name="Cacute" unicode="&#x106;" horiz-adv-x="624" 
d="M597 172q-30 -39 -60.5 -72t-66.5 -56.5t-79 -34.5t-96 -5q-90 9 -148.5 50t-90 103t-39.5 138t3 156q10 78 37 151.5t72.5 130t110 89t149.5 26.5q33 -2 64 -12.5t58 -26.5t47.5 -37t32.5 -45q8 -17 2 -32t-18.5 -23t-28.5 -7.5t-27 15.5q-30 40 -63.5 63t-80.5 25
q-62 3 -108.5 -24.5t-79.5 -74t-53 -105.5t-29 -119q-8 -56 -5.5 -116.5t24 -112t64.5 -88t116 -45.5q38 -5 70 4.5t59.5 29t51.5 48t48 61.5q13 19 29 18.5t28 -11t15.5 -28t-8.5 -33.5zM301 902q-12 -12 -27.5 -11t-26.5 10t-14.5 23.5t10.5 29.5l76 84q16 18 33 18.5
t28 -9.5t13.5 -26t-10.5 -32z" />
    <glyph glyph-name="Ccaron" unicode="&#x10c;" horiz-adv-x="624" 
d="M597 172q-30 -39 -60.5 -72t-66.5 -56.5t-79 -34.5t-96 -5q-90 9 -148.5 50t-90 103t-39.5 138t3 156q10 78 37 151.5t72.5 130t110 89t149.5 26.5q33 -2 64 -12.5t58 -26.5t47.5 -37t32.5 -45q8 -17 2 -32t-18.5 -23t-28.5 -7.5t-27 15.5q-30 40 -63.5 63t-80.5 25
q-62 3 -108.5 -24.5t-79.5 -74t-53 -105.5t-29 -119q-8 -56 -5.5 -116.5t24 -112t64.5 -88t116 -45.5q38 -5 70 4.5t59.5 29t51.5 48t48 61.5q13 19 29 18.5t28 -11t15.5 -28t-8.5 -33.5zM342 900q-3 -8 -11.5 -11.5t-18 -3.5t-18 3.5t-11.5 11.5l-62 108q-6 13 1 22.5
t18.5 13.5t24 2.5t16.5 -9.5l32 -53l30 56q4 8 16.5 9t24 -3.5t18.5 -14t1 -22.5z" />
    <glyph glyph-name="Ccedilla" unicode="&#xc7;" horiz-adv-x="624" 
d="M597 172q-29 -39 -59.5 -71.5t-66 -56t-77.5 -35t-94 -6.5q-1 -5 -1.5 -11t-0.5 -16q24 1 49 -3.5t45.5 -16t33.5 -30.5t13 -46q0 -31 -13 -50t-32 -30t-40 -15t-37 -5q-21 -1 -41 5.5t-36.5 18t-28.5 25.5t-16 27q-4 12 3 22.5t17.5 16t20.5 4.5t13 -11q6 -22 26 -36.5
t45 -13.5q26 1 41.5 9t15.5 31q0 17 -12.5 26.5t-29 14t-33 5.5t-25.5 0q-7 -1 -15 2t-14 9.5t-9.5 16t-1.5 22.5q2 11 3 21t2 18q-74 18 -121.5 61t-73 102.5t-31.5 130t4 144.5q10 78 37 151.5t72.5 130t110 89t149.5 26.5q33 -2 64 -12.5t58 -26.5t47.5 -37t32.5 -45
q8 -17 2 -32t-18.5 -23t-28.5 -7.5t-27 15.5q-30 40 -63.5 63t-80.5 25q-62 3 -108.5 -24.5t-79.5 -74t-53 -105.5t-29 -119q-8 -56 -5.5 -116.5t24 -112t64.5 -88t116 -45.5q38 -5 70 4.5t59.5 29t51.5 48t48 61.5q13 19 29 18.5t28 -11t15.5 -28t-8.5 -33.5z" />
    <glyph glyph-name="Ccircumflex" unicode="&#x108;" horiz-adv-x="624" 
d="M597 172q-30 -39 -60.5 -72t-66.5 -56.5t-79 -34.5t-96 -5q-90 9 -148.5 50t-90 103t-39.5 138t3 156q10 78 37 151.5t72.5 130t110 89t149.5 26.5q33 -2 64 -12.5t58 -26.5t47.5 -37t32.5 -45q8 -17 2 -32t-18.5 -23t-28.5 -7.5t-27 15.5q-30 40 -63.5 63t-80.5 25
q-62 3 -108.5 -24.5t-79.5 -74t-53 -105.5t-29 -119q-8 -56 -5.5 -116.5t24 -112t64.5 -88t116 -45.5q38 -5 70 4.5t59.5 29t51.5 48t48 61.5q13 19 29 18.5t28 -11t15.5 -28t-8.5 -33.5zM282 1048q3 7 11.5 11t18 4t18 -3.5t11.5 -11.5l62 -108q6 -13 -1 -22.5t-18.5 -13.5
t-24 -2.5t-16.5 9.5l-32 53l-30 -56q-4 -8 -16.5 -9t-24 3.5t-18.5 14t-1 22.5z" />
    <glyph glyph-name="Cdotaccent" unicode="&#x10a;" horiz-adv-x="624" 
d="M597 172q-30 -39 -60.5 -72t-66.5 -56.5t-79 -34.5t-96 -5q-90 9 -148.5 50t-90 103t-39.5 138t3 156q10 78 37 151.5t72.5 130t110 89t149.5 26.5q33 -2 64 -12.5t58 -26.5t47.5 -37t32.5 -45q8 -17 2 -32t-18.5 -23t-28.5 -7.5t-27 15.5q-30 40 -63.5 63t-80.5 25
q-62 3 -108.5 -24.5t-79.5 -74t-53 -105.5t-29 -119q-8 -56 -5.5 -116.5t24 -112t64.5 -88t116 -45.5q38 -5 70 4.5t59.5 29t51.5 48t48 61.5q13 19 29 18.5t28 -11t15.5 -28t-8.5 -33.5zM374 947q10 -15 0.5 -31t-27 -25t-37.5 -7t-30 22q-10 21 -1.5 36.5t25.5 23t37 3.5
t33 -22z" />
    <glyph glyph-name="Dcaron" unicode="&#x10e;" horiz-adv-x="667" 
d="M26 820q0 16 9.5 24t22 9.5t25 -3.5t18.5 -14q65 14 131 11.5t127 -20.5t114 -51.5t91 -82t58 -112.5t15 -143q-7 -114 -52 -199.5t-115 -142t-159.5 -83.5t-186.5 -22q-9 -6 -21 -7.5t-23 2t-19 11t-9 19.5zM549 424q8 106 -27.5 179t-98.5 113t-145.5 48.5
t-168.5 -13.5q2 -43 4.5 -100t4.5 -120.5t4.5 -129.5t5 -128t5.5 -116t6 -92q81 -4 153 21.5t127 74t89.5 116t40.5 147.5zM363 900q-3 -8 -11.5 -11.5t-18 -3.5t-18 3.5t-11.5 11.5l-62 108q-6 13 1 22.5t18.5 13.5t24 2.5t16.5 -9.5l32 -53l30 56q4 8 16.5 9t24 -3.5
t18.5 -14t1 -22.5z" />
    <glyph glyph-name="Dcroat" unicode="&#x110;" horiz-adv-x="667" 
d="M39 397h-21q-18 -1 -25 12t-5.5 29t9.5 29.5t20 13.5q5 0 10 0.5t10 0.5l-11 338q0 16 9.5 24t22 9.5t25 -3.5t18.5 -14q65 14 131 11.5t127 -20.5t114 -51.5t91 -82t58 -112.5t15 -143q-7 -114 -52 -199.5t-115 -142t-159.5 -83.5t-186.5 -22q-9 -6 -21 -7.5t-23 2
t-19 11t-9 19.5zM549 424q8 106 -27.5 179t-98.5 113t-145.5 48.5t-168.5 -13.5q2 -52 5 -122t6 -147q62 0 134.5 0.5t145.5 7.5q20 1 31 -12.5t12.5 -30.5t-7 -32.5t-27.5 -16.5l-286 -1q2 -48 4 -95.5t4 -90.5t4 -80.5t4 -65.5q81 -4 153 21.5t127 74t89.5 116t40.5 147.5
z" />
    <glyph glyph-name="macron" unicode="&#xaf;" horiz-adv-x="546" 
d="M56 650q-18 -1 -25 12t-5.5 29t9.5 29.5t20 13.5q32 1 76 1h94t104.5 1.5t108.5 6.5q20 1 31 -12.5t12.5 -30.5t-7 -32.5t-27.5 -16.5z" />
    <glyph glyph-name="commaaccent" horiz-adv-x="350" 
d="M209 100q-9 -20 -27.5 -22t-34.5 7t-23.5 26t5.5 34q10 14 20 32.5t12 40.5t-6.5 47t-33.5 52q-10 10 -4 23.5t19.5 22t30 9t28.5 -14.5q83 -106 14 -257z" />
    <glyph glyph-name="Eacute" unicode="&#xc9;" horiz-adv-x="608" 
d="M32 784q0 15 7.5 24.5t19 15t25 8t26.5 2.5l410 16q18 1 25.5 -11.5t7 -28.5t-8 -29.5t-19.5 -13.5q-18 -2 -57 -3.5t-92.5 -3.5t-118.5 -4t-137 -5q0 -51 0.5 -125.5t-0.5 -155.5l337 21q18 1 26 -11.5t7 -28t-8.5 -29.5t-19.5 -15q-36 -3 -123 -9t-218 -13
q0 -41 0.5 -84t1 -83.5t1.5 -76t2 -60.5l433 18q18 1 26 -11.5t7 -28.5t-8 -29.5t-19 -13.5q-19 -2 -64 -4t-106 -4t-133 -4.5t-145 -4.5q-11 0 -24.5 -0.5t-25.5 2t-20.5 9.5t-8.5 22zM293 902q-12 -12 -27.5 -11t-26.5 10t-14.5 23.5t10.5 29.5l76 84q16 18 33 18.5
t28 -9.5t13.5 -26t-10.5 -32z" />
    <glyph glyph-name="Ebreve" unicode="&#x114;" horiz-adv-x="608" 
d="M32 784q0 15 7.5 24.5t19 15t25 8t26.5 2.5l410 16q18 1 25.5 -11.5t7 -28.5t-8 -29.5t-19.5 -13.5q-18 -2 -57 -3.5t-92.5 -3.5t-118.5 -4t-137 -5q0 -51 0.5 -125.5t-0.5 -155.5l337 21q18 1 26 -11.5t7 -28t-8.5 -29.5t-19.5 -15q-36 -3 -123 -9t-218 -13
q0 -41 0.5 -84t1 -83.5t1.5 -76t2 -60.5l433 18q18 1 26 -11.5t7 -28.5t-8 -29.5t-19 -13.5q-19 -2 -64 -4t-106 -4t-133 -4.5t-145 -4.5q-11 0 -24.5 -0.5t-25.5 2t-20.5 9.5t-8.5 22zM166 1023q-1 15 9 24t22.5 10t23 -7t11.5 -27q1 -20 7.5 -32.5t16.5 -20t22 -10
t24 -2.5q25 1 48 17.5t26 60.5q1 13 11.5 19t23 5t22.5 -10t9 -27q-2 -34 -15 -58t-33.5 -40t-45.5 -23.5t-50 -7.5q-24 0 -47 6.5t-41 21.5t-30 40t-14 61z" />
    <glyph glyph-name="Ecaron" unicode="&#x11a;" horiz-adv-x="608" 
d="M32 784q0 15 7.5 24.5t19 15t25 8t26.5 2.5l410 16q18 1 25.5 -11.5t7 -28.5t-8 -29.5t-19.5 -13.5q-18 -2 -57 -3.5t-92.5 -3.5t-118.5 -4t-137 -5q0 -51 0.5 -125.5t-0.5 -155.5l337 21q18 1 26 -11.5t7 -28t-8.5 -29.5t-19.5 -15q-36 -3 -123 -9t-218 -13
q0 -41 0.5 -84t1 -83.5t1.5 -76t2 -60.5l433 18q18 1 26 -11.5t7 -28.5t-8 -29.5t-19 -13.5q-19 -2 -64 -4t-106 -4t-133 -4.5t-145 -4.5q-11 0 -24.5 -0.5t-25.5 2t-20.5 9.5t-8.5 22zM334 900q-3 -8 -11.5 -11.5t-18 -3.5t-18 3.5t-11.5 11.5l-62 108q-6 13 1 22.5
t18.5 13.5t24 2.5t16.5 -9.5l32 -53l30 56q4 8 16.5 9t24 -3.5t18.5 -14t1 -22.5z" />
    <glyph glyph-name="Ecircumflex" unicode="&#xca;" horiz-adv-x="608" 
d="M32 784q0 15 7.5 24.5t19 15t25 8t26.5 2.5l410 16q18 1 25.5 -11.5t7 -28.5t-8 -29.5t-19.5 -13.5q-18 -2 -57 -3.5t-92.5 -3.5t-118.5 -4t-137 -5q0 -51 0.5 -125.5t-0.5 -155.5l337 21q18 1 26 -11.5t7 -28t-8.5 -29.5t-19.5 -15q-36 -3 -123 -9t-218 -13
q0 -41 0.5 -84t1 -83.5t1.5 -76t2 -60.5l433 18q18 1 26 -11.5t7 -28.5t-8 -29.5t-19 -13.5q-19 -2 -64 -4t-106 -4t-133 -4.5t-145 -4.5q-11 0 -24.5 -0.5t-25.5 2t-20.5 9.5t-8.5 22zM274 1048q3 7 11.5 11t18 4t18 -3.5t11.5 -11.5l62 -108q6 -13 -1 -22.5t-18.5 -13.5
t-24 -2.5t-16.5 9.5l-32 53l-30 -56q-4 -8 -16.5 -9t-24 3.5t-18.5 14t-1 22.5z" />
    <glyph glyph-name="Edieresis" unicode="&#xcb;" horiz-adv-x="608" 
d="M32 784q0 15 7.5 24.5t19 15t25 8t26.5 2.5l410 16q18 1 25.5 -11.5t7 -28.5t-8 -29.5t-19.5 -13.5q-18 -2 -57 -3.5t-92.5 -3.5t-118.5 -4t-137 -5q0 -51 0.5 -125.5t-0.5 -155.5l337 21q18 1 26 -11.5t7 -28t-8.5 -29.5t-19.5 -15q-36 -3 -123 -9t-218 -13
q0 -41 0.5 -84t1 -83.5t1.5 -76t2 -60.5l433 18q18 1 26 -11.5t7 -28.5t-8 -29.5t-19 -13.5q-19 -2 -64 -4t-106 -4t-133 -4.5t-145 -4.5q-11 0 -24.5 -0.5t-25.5 2t-20.5 9.5t-8.5 22zM268 959q10 -15 0.5 -31t-27 -25t-37.5 -7t-30 22q-10 21 -1.5 36.5t25.5 23t37 3.5
t33 -22zM432 965q10 -15 0.5 -31t-27 -25t-37.5 -7t-30 22q-10 21 -1.5 36.5t25.5 23t37 3.5t33 -22z" />
    <glyph glyph-name="Edotaccent" unicode="&#x116;" horiz-adv-x="608" 
d="M32 784q0 15 7.5 24.5t19 15t25 8t26.5 2.5l410 16q18 1 25.5 -11.5t7 -28.5t-8 -29.5t-19.5 -13.5q-18 -2 -57 -3.5t-92.5 -3.5t-118.5 -4t-137 -5q0 -51 0.5 -125.5t-0.5 -155.5l337 21q18 1 26 -11.5t7 -28t-8.5 -29.5t-19.5 -15q-36 -3 -123 -9t-218 -13
q0 -41 0.5 -84t1 -83.5t1.5 -76t2 -60.5l433 18q18 1 26 -11.5t7 -28.5t-8 -29.5t-19 -13.5q-19 -2 -64 -4t-106 -4t-133 -4.5t-145 -4.5q-11 0 -24.5 -0.5t-25.5 2t-20.5 9.5t-8.5 22zM350 959q10 -15 0.5 -31t-27 -25t-37.5 -7t-30 22q-10 21 -1.5 36.5t25.5 23t37 3.5
t33 -22z" />
    <glyph glyph-name="Egrave" unicode="&#xc8;" horiz-adv-x="608" 
d="M32 784q0 15 7.5 24.5t19 15t25 8t26.5 2.5l410 16q18 1 25.5 -11.5t7 -28.5t-8 -29.5t-19.5 -13.5q-18 -2 -57 -3.5t-92.5 -3.5t-118.5 -4t-137 -5q0 -51 0.5 -125.5t-0.5 -155.5l337 21q18 1 26 -11.5t7 -28t-8.5 -29.5t-19.5 -15q-36 -3 -123 -9t-218 -13
q0 -41 0.5 -84t1 -83.5t1.5 -76t2 -60.5l433 18q18 1 26 -11.5t7 -28.5t-8 -29.5t-19 -13.5q-19 -2 -64 -4t-106 -4t-133 -4.5t-145 -4.5q-11 0 -24.5 -0.5t-25.5 2t-20.5 9.5t-8.5 22zM233 989q-13 16 -10.5 32t13.5 26t28 9.5t33 -18.5l76 -84q13 -15 10 -29.5t-14 -23.5
t-26.5 -10t-27.5 11z" />
    <glyph glyph-name="Emacron" unicode="&#x112;" horiz-adv-x="608" 
d="M32 784q0 15 7.5 24.5t19 15t25 8t26.5 2.5l410 16q18 1 25.5 -11.5t7 -28.5t-8 -29.5t-19.5 -13.5q-18 -2 -57 -3.5t-92.5 -3.5t-118.5 -4t-137 -5q0 -51 0.5 -125.5t-0.5 -155.5l337 21q18 1 26 -11.5t7 -28t-8.5 -29.5t-19.5 -15q-36 -3 -123 -9t-218 -13
q0 -41 0.5 -84t1 -83.5t1.5 -76t2 -60.5l433 18q18 1 26 -11.5t7 -28.5t-8 -29.5t-19 -13.5q-19 -2 -64 -4t-106 -4t-133 -4.5t-145 -4.5q-11 0 -24.5 -0.5t-25.5 2t-20.5 9.5t-8.5 22zM107 889q-18 -1 -25 12t-5.5 29t9.5 29.5t20 13.5q32 1 76 1h94t104.5 1.5t108.5 6.5
q20 1 31 -12.5t12.5 -30.5t-7 -32.5t-27.5 -16.5z" />
    <glyph glyph-name="Eogonek" unicode="&#x118;" horiz-adv-x="608" 
d="M32 784q0 15 7.5 24.5t19 15t25 8t26.5 2.5l410 16q18 1 25.5 -11.5t7 -28.5t-8 -29.5t-19.5 -13.5q-18 -2 -57 -3.5t-92.5 -3.5t-118.5 -4t-137 -5q0 -51 0.5 -125.5t-0.5 -155.5l337 21q18 1 26 -11.5t7 -28t-8.5 -29.5t-19.5 -15q-36 -3 -123 -9t-218 -13
q0 -41 0.5 -84t1 -83.5t1.5 -76t2 -60.5l433 18q18 1 26 -11.5t7 -28.5t-8 -29.5t-19 -13.5q-13 -1 -41 -3q-12 -19 -10 -43q1 -25 17.5 -48t60.5 -26q13 -1 19 -11.5t5 -23t-10 -22.5t-27 -9q-34 1 -58 14.5t-40 34t-23.5 45.5t-7.5 50q-2 19 3 36q-67 -3 -156 -6t-180 -5
q-11 0 -24.5 -0.5t-25.5 2t-20.5 9.5t-8.5 22z" />
    <glyph glyph-name="Gbreve" unicode="&#x11e;" horiz-adv-x="701" 
d="M687 402q-11 -118 -46.5 -194.5t-84 -121.5t-103.5 -62.5t-104 -16.5q-91 2 -152 40.5t-97 99.5t-49 138t-8 157q4 78 26 153t63.5 133.5t103.5 93.5t148 33q33 -1 65 -9.5t59.5 -23.5t49.5 -35t36 -44q9 -16 4 -31.5t-17 -24.5t-27.5 -9t-27.5 15q-33 38 -68 59.5
t-83 21.5q-62 0 -106.5 -29.5t-74 -77t-46 -107.5t-20.5 -120q-4 -57 3 -117t32 -111t70.5 -85.5t119.5 -40.5q40 -3 82 16.5t77 58.5t58.5 95t26.5 126q-65 -8 -127 -10t-104 2q-15 1 -23.5 12.5t-10.5 25t3 25t18 13.5q20 2 50.5 1.5t67 0t76.5 3.5t80 12q32 8 48.5 -8.5
t11.5 -56.5zM212 1023q-1 15 9 24t22.5 10t23 -7t11.5 -27q1 -20 7.5 -32.5t16.5 -20t22 -10t24 -2.5q25 1 48 17.5t26 60.5q1 13 11.5 19t23 5t22.5 -10t9 -27q-2 -34 -15 -58t-33.5 -40t-45.5 -23.5t-50 -7.5q-24 0 -47 6.5t-41 21.5t-30 40t-14 61z" />
    <glyph glyph-name="Gcircumflex" unicode="&#x11c;" horiz-adv-x="701" 
d="M687 402q-11 -118 -46.5 -194.5t-84 -121.5t-103.5 -62.5t-104 -16.5q-91 2 -152 40.5t-97 99.5t-49 138t-8 157q4 78 26 153t63.5 133.5t103.5 93.5t148 33q33 -1 65 -9.5t59.5 -23.5t49.5 -35t36 -44q9 -16 4 -31.5t-17 -24.5t-27.5 -9t-27.5 15q-33 38 -68 59.5
t-83 21.5q-62 0 -106.5 -29.5t-74 -77t-46 -107.5t-20.5 -120q-4 -57 3 -117t32 -111t70.5 -85.5t119.5 -40.5q40 -3 82 16.5t77 58.5t58.5 95t26.5 126q-65 -8 -127 -10t-104 2q-15 1 -23.5 12.5t-10.5 25t3 25t18 13.5q20 2 50.5 1.5t67 0t76.5 3.5t80 12q32 8 48.5 -8.5
t11.5 -56.5zM320 1048q3 7 11.5 11t18 4t18 -3.5t11.5 -11.5l62 -108q6 -13 -1 -22.5t-18.5 -13.5t-24 -2.5t-16.5 9.5l-32 53l-30 -56q-4 -8 -16.5 -9t-24 3.5t-18.5 14t-1 22.5z" />
    <glyph glyph-name="Gcommaaccent" unicode="&#x122;" horiz-adv-x="701" 
d="M687 402q-11 -118 -46.5 -194.5t-84 -121.5t-103.5 -62.5t-104 -16.5q-91 2 -152 40.5t-97 99.5t-49 138t-8 157q4 78 26 153t63.5 133.5t103.5 93.5t148 33q33 -1 65 -9.5t59.5 -23.5t49.5 -35t36 -44q9 -16 4 -31.5t-17 -24.5t-27.5 -9t-27.5 15q-33 38 -68 59.5
t-83 21.5q-62 0 -106.5 -29.5t-74 -77t-46 -107.5t-20.5 -120q-4 -57 3 -117t32 -111t70.5 -85.5t119.5 -40.5q40 -3 82 16.5t77 58.5t58.5 95t26.5 126q-65 -8 -127 -10t-104 2q-15 1 -23.5 12.5t-10.5 25t3 25t18 13.5q20 2 50.5 1.5t67 0t76.5 3.5t80 12q32 8 48.5 -8.5
t11.5 -56.5zM371 -222q-8 -15 -23 -16.5t-28.5 5t-20 19t4.5 25.5q9 10 17 24t9.5 30.5t-5.5 35t-28 38.5q-8 8 -3 18t16.5 16.5t25 6.5t23.5 -11q70 -79 12 -191z" />
    <glyph glyph-name="Gdotaccent" unicode="&#x120;" horiz-adv-x="701" 
d="M687 402q-11 -118 -46.5 -194.5t-84 -121.5t-103.5 -62.5t-104 -16.5q-91 2 -152 40.5t-97 99.5t-49 138t-8 157q4 78 26 153t63.5 133.5t103.5 93.5t148 33q33 -1 65 -9.5t59.5 -23.5t49.5 -35t36 -44q9 -16 4 -31.5t-17 -24.5t-27.5 -9t-27.5 15q-33 38 -68 59.5
t-83 21.5q-62 0 -106.5 -29.5t-74 -77t-46 -107.5t-20.5 -120q-4 -57 3 -117t32 -111t70.5 -85.5t119.5 -40.5q40 -3 82 16.5t77 58.5t58.5 95t26.5 126q-65 -8 -127 -10t-104 2q-15 1 -23.5 12.5t-10.5 25t3 25t18 13.5q20 2 50.5 1.5t67 0t76.5 3.5t80 12q32 8 48.5 -8.5
t11.5 -56.5zM396 959q10 -15 0.5 -31t-27 -25t-37.5 -7t-30 22q-10 21 -1.5 36.5t25.5 23t37 3.5t33 -22z" />
    <glyph glyph-name="Hbar" unicode="&#x126;" horiz-adv-x="667" 
d="M541 373l-414 -9q2 -51 4.5 -100t4.5 -91.5t4.5 -76.5t5.5 -56q2 -20 -11 -31t-30.5 -13t-32.5 6t-17 27l-18 502h-12q-18 -1 -25 12t-5.5 29t9.5 29.5t20 13.5h10l-8 212q-1 18 11.5 25.5t28.5 6.5t29.5 -8.5t14.5 -19.5q2 -22 4 -79.5t4 -135.5h94.5h107.5t110 0.5
t102 2.5l-7 197q-1 18 11.5 25.5t28.5 6.5t29.5 -8.5t14.5 -19.5q2 -21 4 -73.5t4 -123.5q9 0 13 1q20 1 31 -12.5t12.5 -30.5t-7 -32.5t-27.5 -16.5h-19q2 -72 5 -148t6 -144t6.5 -124t7.5 -87q2 -20 -11 -31t-30.5 -13t-32.5 6t-17 27zM535 532l-414 -1q1 -21 1.5 -41.5
t1.5 -41.5q35 1 86 2t108 2.5t114.5 4t105.5 5.5z" />
    <glyph glyph-name="Hcircumflex" unicode="&#x124;" horiz-adv-x="667" 
d="M541 373l-414 -9q2 -51 4.5 -100t4.5 -91.5t4.5 -76.5t5.5 -56q2 -20 -11 -31t-30.5 -13t-32.5 6t-17 27l-29 798q-1 18 11.5 25.5t28.5 6.5t29.5 -8.5t14.5 -19.5q1 -17 2.5 -54.5t3.5 -89t4 -113.5t4 -126q35 1 86 2t108 2.5t114.5 4t105.5 5.5l-13 354
q-1 18 11.5 25.5t28.5 6.5t29.5 -8.5t14.5 -19.5q2 -21 4 -78.5t4.5 -133t5.5 -162.5t6.5 -167.5t7.5 -147t8 -102.5q2 -20 -11 -31t-30.5 -13t-32.5 6t-17 27zM303 1048q3 7 11.5 11t18 4t18 -3.5t11.5 -11.5l62 -108q6 -13 -1 -22.5t-18.5 -13.5t-24 -2.5t-16.5 9.5
l-32 53l-30 -56q-4 -8 -16.5 -9t-24 3.5t-18.5 14t-1 22.5z" />
    <glyph glyph-name="Iacute" unicode="&#xcd;" horiz-adv-x="540" 
d="M51 -4q-18 0 -24.5 12.5t-5 27.5t10 27.5t20.5 12.5q30 1 80 1h107l-25 696l-172 -4q-18 0 -24.5 12t-5 27t10 27t20.5 12h37.5h84t106.5 0.5t105 1t79 1.5t30 3q19 1 30 -11t12 -27t-8 -28t-28 -14l-194 1q2 -37 3.5 -92t3.5 -118.5t4.5 -132t5 -134t5.5 -123t6 -98.5
q45 0 88 1.5t81 4.5q19 1 30 -11.5t12 -28t-8 -28.5t-28 -14zM259 902q-12 -12 -27.5 -11t-26.5 10t-14.5 23.5t10.5 29.5l76 84q16 18 33 18.5t28 -9.5t13.5 -26t-10.5 -32z" />
    <glyph glyph-name="Ibreve" unicode="&#x12c;" horiz-adv-x="540" 
d="M51 -4q-18 0 -24.5 12.5t-5 27.5t10 27.5t20.5 12.5q30 1 80 1h107l-25 696l-172 -4q-18 0 -24.5 12t-5 27t10 27t20.5 12h37.5h84t106.5 0.5t105 1t79 1.5t30 3q19 1 30 -11t12 -27t-8 -28t-28 -14l-194 1q2 -37 3.5 -92t3.5 -118.5t4.5 -132t5 -134t5.5 -123t6 -98.5
q45 0 88 1.5t81 4.5q19 1 30 -11.5t12 -28t-8 -28.5t-28 -14zM132 1023q-1 15 9 24t22.5 10t23 -7t11.5 -27q1 -20 7.5 -32.5t16.5 -20t22 -10t24 -2.5q25 1 48 17.5t26 60.5q1 13 11.5 19t23 5t22.5 -10t9 -27q-2 -34 -15 -58t-33.5 -40t-45.5 -23.5t-50 -7.5
q-24 0 -47 6.5t-41 21.5t-30 40t-14 61z" />
    <glyph glyph-name="Icircumflex" unicode="&#xce;" horiz-adv-x="540" 
d="M51 -4q-18 0 -24.5 12.5t-5 27.5t10 27.5t20.5 12.5q30 1 80 1h107l-25 696l-172 -4q-18 0 -24.5 12t-5 27t10 27t20.5 12h37.5h84t106.5 0.5t105 1t79 1.5t30 3q19 1 30 -11t12 -27t-8 -28t-28 -14l-194 1q2 -37 3.5 -92t3.5 -118.5t4.5 -132t5 -134t5.5 -123t6 -98.5
q45 0 88 1.5t81 4.5q19 1 30 -11.5t12 -28t-8 -28.5t-28 -14zM240 1048q3 7 11.5 11t18 4t18 -3.5t11.5 -11.5l62 -108q6 -13 -1 -22.5t-18.5 -13.5t-24 -2.5t-16.5 9.5l-32 53l-30 -56q-4 -8 -16.5 -9t-24 3.5t-18.5 14t-1 22.5z" />
    <glyph glyph-name="Idieresis" unicode="&#xcf;" horiz-adv-x="540" 
d="M51 -4q-18 0 -24.5 12.5t-5 27.5t10 27.5t20.5 12.5q30 1 80 1h107l-25 696l-172 -4q-18 0 -24.5 12t-5 27t10 27t20.5 12h37.5h84t106.5 0.5t105 1t79 1.5t30 3q19 1 30 -11t12 -27t-8 -28t-28 -14l-194 1q2 -37 3.5 -92t3.5 -118.5t4.5 -132t5 -134t5.5 -123t6 -98.5
q45 0 88 1.5t81 4.5q19 1 30 -11.5t12 -28t-8 -28.5t-28 -14zM234 959q10 -15 0.5 -31t-27 -25t-37.5 -7t-30 22q-10 21 -1.5 36.5t25.5 23t37 3.5t33 -22zM398 965q10 -15 0.5 -31t-27 -25t-37.5 -7t-30 22q-10 21 -1.5 36.5t25.5 23t37 3.5t33 -22z" />
    <glyph glyph-name="Idotaccent" unicode="&#x130;" horiz-adv-x="540" 
d="M51 -4q-18 0 -24.5 12.5t-5 27.5t10 27.5t20.5 12.5q30 1 80 1h107l-25 696l-172 -4q-18 0 -24.5 12t-5 27t10 27t20.5 12h37.5h84t106.5 0.5t105 1t79 1.5t30 3q19 1 30 -11t12 -27t-8 -28t-28 -14l-194 1q2 -37 3.5 -92t3.5 -118.5t4.5 -132t5 -134t5.5 -123t6 -98.5
q45 0 88 1.5t81 4.5q19 1 30 -11.5t12 -28t-8 -28.5t-28 -14zM316 959q10 -15 0.5 -31t-27 -25t-37.5 -7t-30 22q-10 21 -1.5 36.5t25.5 23t37 3.5t33 -22z" />
    <glyph glyph-name="Igrave" unicode="&#xcc;" horiz-adv-x="540" 
d="M51 -4q-18 0 -24.5 12.5t-5 27.5t10 27.5t20.5 12.5q30 1 80 1h107l-25 696l-172 -4q-18 0 -24.5 12t-5 27t10 27t20.5 12h37.5h84t106.5 0.5t105 1t79 1.5t30 3q19 1 30 -11t12 -27t-8 -28t-28 -14l-194 1q2 -37 3.5 -92t3.5 -118.5t4.5 -132t5 -134t5.5 -123t6 -98.5
q45 0 88 1.5t81 4.5q19 1 30 -11.5t12 -28t-8 -28.5t-28 -14zM199 989q-13 16 -10.5 32t13.5 26t28 9.5t33 -18.5l76 -84q13 -15 10 -29.5t-14 -23.5t-26.5 -10t-27.5 11z" />
    <glyph glyph-name="Imacron" unicode="&#x12a;" horiz-adv-x="540" 
d="M51 -4q-18 0 -24.5 12.5t-5 27.5t10 27.5t20.5 12.5q30 1 80 1h107l-25 696l-172 -4q-18 0 -24.5 12t-5 27t10 27t20.5 12h37.5h84t106.5 0.5t105 1t79 1.5t30 3q19 1 30 -11t12 -27t-8 -28t-28 -14l-194 1q2 -37 3.5 -92t3.5 -118.5t4.5 -132t5 -134t5.5 -123t6 -98.5
q45 0 88 1.5t81 4.5q19 1 30 -11.5t12 -28t-8 -28.5t-28 -14zM73 889q-18 -1 -25 12t-5.5 29t9.5 29.5t20 13.5q32 1 76 1h94t104.5 1.5t108.5 6.5q20 1 31 -12.5t12.5 -30.5t-7 -32.5t-27.5 -16.5z" />
    <glyph glyph-name="Iogonek" unicode="&#x12e;" horiz-adv-x="540" 
d="M462 0q-12 -11 -16 -25t-3 -29q1 -25 17.5 -48t60.5 -26q13 -1 19 -11.5t5 -23t-10 -22.5t-27 -9q-34 1 -58 14.5t-40 34t-23.5 45.5t-7.5 50q-2 26 6 49l-334 -3q-18 0 -24.5 12.5t-5 27.5t10 27.5t20.5 12.5q30 1 80 1h107l-25 696l-172 -4q-18 0 -24.5 12t-5 27t10 27
t20.5 12h37.5h84t106.5 0.5t105 1t79 1.5t30 3q19 1 30 -11t12 -27t-8 -28t-28 -14l-194 1q2 -37 3.5 -92t3.5 -118.5t4.5 -132t5 -134t5.5 -123t6 -98.5q45 0 88 1.5t81 4.5q19 1 30 -11.5t12 -28t-8 -28.5t-28 -14h-38z" />
    <glyph glyph-name="Itilde" unicode="&#x128;" horiz-adv-x="540" 
d="M51 -4q-18 0 -24.5 12.5t-5 27.5t10 27.5t20.5 12.5q30 1 80 1h107l-25 696l-172 -4q-18 0 -24.5 12t-5 27t10 27t20.5 12h37.5h84t106.5 0.5t105 1t79 1.5t30 3q19 1 30 -11t12 -27t-8 -28t-28 -14l-194 1q2 -37 3.5 -92t3.5 -118.5t4.5 -132t5 -134t5.5 -123t6 -98.5
q45 0 88 1.5t81 4.5q19 1 30 -11.5t12 -28t-8 -28.5t-28 -14zM79 901q-6 -17 -19.5 -18.5t-26 5t-20 18.5t-2.5 23q12 25 26 49t32.5 44t42.5 35t56 21q46 9 77 -6t54 -37t41 -43t36 -25q15 -3 28.5 3.5t24.5 18t21 26.5t19 30q6 9 18.5 10t24.5 -3.5t20.5 -14t5.5 -20.5
q-7 -27 -25.5 -51t-41.5 -41.5t-47.5 -27.5t-43.5 -10q-23 -1 -41.5 9t-34.5 25t-31 32t-30 30.5t-32 21t-37 3.5q-8 -2 -19.5 -7.5t-24.5 -17.5t-26.5 -32t-24.5 -50z" />
    <glyph glyph-name="Kcommaaccent" unicode="&#x136;" horiz-adv-x="646" 
d="M127 388q0 -55 1 -107.5t1.5 -98t2 -82.5t3.5 -60q1 -20 -12.5 -31t-30.5 -13t-32 6t-16 27l-4 798q0 18 12.5 25.5t28.5 6.5t29.5 -8.5t13.5 -19.5q1 -15 1.5 -45.5t0.5 -73v-94v-106.5q29 25 65 56t73.5 63.5t75 64.5t69 60t56 50t36.5 35q13 14 30.5 12.5t30.5 -12
t17.5 -27t-8.5 -31.5l-382 -333q56 -49 119.5 -103.5t122.5 -105t108.5 -91t77.5 -61.5q16 -11 14.5 -28.5t-12 -31.5t-27 -20t-31.5 5zM331 -189q-9 -20 -27.5 -22t-34.5 7t-23.5 26t5.5 34q10 14 20 32.5t12 40.5t-6.5 47t-33.5 52q-10 10 -4 23.5t19.5 22t30 9
t28.5 -14.5q83 -106 14 -257z" />
    <glyph glyph-name="Jcircumflex" unicode="&#x134;" horiz-adv-x="705" 
d="M440 764q2 -117 6.5 -212t6.5 -187q2 -78 -2 -148.5t-25.5 -123t-66.5 -80.5t-126 -21q-29 3 -61 16t-61.5 36t-52 55.5t-31.5 73.5q-3 14 7.5 24.5t25 15t28.5 0.5t17 -20q4 -17 16.5 -38.5t32.5 -40.5t46 -33t57 -15q33 -2 55 13t35 40.5t19 57.5t8 65t1.5 63.5
t-0.5 51.5q0 40 -0.5 77.5t-2 83.5t-4.5 105.5t-7 142.5l-253 -5q-18 0 -25 13t-5 28.5t10 28.5t20 13q21 0 60 0.5t88 0.5h104t108.5 1t102 2t84.5 4q19 1 30 -12t12 -29t-7.5 -29.5t-27.5 -14.5zM322 1048q3 7 11.5 11t18 4t18 -3.5t11.5 -11.5l62 -108q6 -13 -1 -22.5
t-18.5 -13.5t-24 -2.5t-16.5 9.5l-32 53l-30 -56q-4 -8 -16.5 -9t-24 3.5t-18.5 14t-1 22.5z" />
    <glyph glyph-name="Lacute" unicode="&#x139;" horiz-adv-x="729" 
d="M128 -1q-10 -2 -20.5 -2t-19.5 3t-15 9.5t-6 19.5l-29 798q-1 18 11.5 25.5t28.5 6.5t29.5 -8.5t14.5 -19.5q1 -19 3 -68.5t4.5 -116t5 -144t5.5 -153.5t6 -144t7 -116q49 7 116.5 15.5t138 18t135.5 20t109 21.5q19 4 32 -8t17 -29t-2.5 -33t-25.5 -20zM353 902
q-12 -12 -27.5 -11t-26.5 10t-14.5 23.5t10.5 29.5l76 84q16 18 33 18.5t28 -9.5t13.5 -26t-10.5 -32z" />
    <glyph glyph-name="Lcaron" unicode="&#x13d;" horiz-adv-x="729" 
d="M128 -1q-10 -2 -20.5 -2t-19.5 3t-15 9.5t-6 19.5l-29 798q-1 18 11.5 25.5t28.5 6.5t29.5 -8.5t14.5 -19.5q1 -19 3 -68.5t4.5 -116t5 -144t5.5 -153.5t6 -144t7 -116q49 7 116.5 15.5t138 18t135.5 20t109 21.5q19 4 32 -8t17 -29t-2.5 -33t-25.5 -20zM382 521
q-9 -20 -27.5 -22t-34.5 7t-23.5 26t5.5 34q10 14 20 32.5t12 40.5t-6.5 47t-33.5 52q-10 10 -4 23.5t19.5 22t30 9t28.5 -14.5q83 -106 14 -257z" />
    <glyph glyph-name="Lcommaaccent" unicode="&#x13b;" horiz-adv-x="729" 
d="M128 -1q-10 -2 -20.5 -2t-19.5 3t-15 9.5t-6 19.5l-29 798q-1 18 11.5 25.5t28.5 6.5t29.5 -8.5t14.5 -19.5q1 -19 3 -68.5t4.5 -116t5 -144t5.5 -153.5t6 -144t7 -116q49 7 116.5 15.5t138 18t135.5 20t109 21.5q19 4 32 -8t17 -29t-2.5 -33t-25.5 -20zM566 -235
q-9 -20 -27.5 -22t-34.5 7t-23.5 26t5.5 34q10 14 20 32.5t12 40.5t-6.5 47t-33.5 52q-10 10 -4 23.5t19.5 22t30 9t28.5 -14.5q83 -106 14 -257z" />
    <glyph glyph-name="Ldot" unicode="&#x13f;" horiz-adv-x="729" 
d="M128 -1q-10 -2 -20.5 -2t-19.5 3t-15 9.5t-6 19.5l-29 798q-1 18 11.5 25.5t28.5 6.5t29.5 -8.5t14.5 -19.5q1 -19 3 -68.5t4.5 -116t5 -144t5.5 -153.5t6 -144t7 -116q49 7 116.5 15.5t138 18t135.5 20t109 21.5q19 4 32 -8t17 -29t-2.5 -33t-25.5 -20zM330 511
q10 -15 0.5 -31t-27 -25t-37.5 -7t-30 22q-10 21 -1.5 36.5t25.5 23t37 3.5t33 -22z" />
    <glyph glyph-name="Lslash" unicode="&#x141;" horiz-adv-x="729" 
d="M128 -1q-10 -2 -20.5 -2t-19.5 3t-15 9.5t-6 19.5l-8 225l-22 -7q-17 -6 -27.5 4t-14 25.5t0 31t14.5 19.5q10 4 21 7.5t24 8.5l-17 484q-1 18 11.5 25.5t28.5 6.5t29.5 -8.5t14.5 -19.5q1 -19 3 -65.5t4 -109.5t4.5 -137t5.5 -148q54 17 113.5 38t117.5 47q18 8 33 -1.5
t22 -25t4 -33t-21 -24.5l-266 -90q2 -57 5 -106.5t6 -86.5q49 7 116.5 15.5t138 18t135.5 20t109 21.5q19 4 32 -8t17 -29t-2.5 -33t-25.5 -20z" />
    <glyph glyph-name="Nacute" unicode="&#x143;" horiz-adv-x="671" 
d="M567 9q-1 2 -3.5 5t-15 21.5t-39 58.5t-75.5 114t-124.5 188.5t-186.5 283.5q-1 -50 -2 -110t-2 -122.5t-1 -124t0.5 -116t2 -98t4.5 -69.5q2 -20 -11 -31t-30.5 -13t-32.5 6t-17 27l4 777q0 21 9.5 32t22.5 13.5t27.5 -2.5t25.5 -17q11 -13 37 -52t62 -94.5t78.5 -122.5
t86.5 -136t87.5 -135t80.5 -120l-23 648q-1 18 11.5 25.5t28.5 6.5t29.5 -8.5t14.5 -19.5q2 -22 4 -78t4.5 -130.5t5 -160t5.5 -165t6 -145t6 -101.5q1 -14 -7 -26.5t-20.5 -18.5t-27 -4.5t-25.5 14.5zM324 902q-12 -12 -27.5 -11t-26.5 10t-14.5 23.5t10.5 29.5l76 84
q16 18 33 18.5t28 -9.5t13.5 -26t-10.5 -32z" />
    <glyph glyph-name="Ncaron" unicode="&#x147;" horiz-adv-x="671" 
d="M567 9q-1 2 -3.5 5t-15 21.5t-39 58.5t-75.5 114t-124.5 188.5t-186.5 283.5q-1 -50 -2 -110t-2 -122.5t-1 -124t0.5 -116t2 -98t4.5 -69.5q2 -20 -11 -31t-30.5 -13t-32.5 6t-17 27l4 777q0 21 9.5 32t22.5 13.5t27.5 -2.5t25.5 -17q11 -13 37 -52t62 -94.5t78.5 -122.5
t86.5 -136t87.5 -135t80.5 -120l-23 648q-1 18 11.5 25.5t28.5 6.5t29.5 -8.5t14.5 -19.5q2 -22 4 -78t4.5 -130.5t5 -160t5.5 -165t6 -145t6 -101.5q1 -14 -7 -26.5t-20.5 -18.5t-27 -4.5t-25.5 14.5zM365 900q-3 -8 -11.5 -11.5t-18 -3.5t-18 3.5t-11.5 11.5l-62 108
q-6 13 1 22.5t18.5 13.5t24 2.5t16.5 -9.5l32 -53l30 56q4 8 16.5 9t24 -3.5t18.5 -14t1 -22.5z" />
    <glyph glyph-name="Ncommaaccent" unicode="&#x145;" horiz-adv-x="671" 
d="M567 9q-1 2 -3.5 5t-15 21.5t-39 58.5t-75.5 114t-124.5 188.5t-186.5 283.5q-1 -50 -2 -110t-2 -122.5t-1 -124t0.5 -116t2 -98t4.5 -69.5q2 -20 -11 -31t-30.5 -13t-32.5 6t-17 27l4 777q0 21 9.5 32t22.5 13.5t27.5 -2.5t25.5 -17q11 -13 37 -52t62 -94.5t78.5 -122.5
t86.5 -136t87.5 -135t80.5 -120l-23 648q-1 18 11.5 25.5t28.5 6.5t29.5 -8.5t14.5 -19.5q2 -22 4 -78t4.5 -130.5t5 -160t5.5 -165t6 -145t6 -101.5q1 -14 -7 -26.5t-20.5 -18.5t-27 -4.5t-25.5 14.5zM381 -209q-9 -20 -27.5 -22t-34.5 7t-23.5 26t5.5 34q10 14 20 32.5
t12 40.5t-6.5 47t-33.5 52q-10 10 -4 23.5t19.5 22t30 9t28.5 -14.5q83 -106 14 -257z" />
    <glyph glyph-name="Ntilde" unicode="&#xd1;" horiz-adv-x="671" 
d="M567 9q-1 2 -3.5 5t-15 21.5t-39 58.5t-75.5 114t-124.5 188.5t-186.5 283.5q-1 -50 -2 -110t-2 -122.5t-1 -124t0.5 -116t2 -98t4.5 -69.5q2 -20 -11 -31t-30.5 -13t-32.5 6t-17 27l4 777q0 21 9.5 32t22.5 13.5t27.5 -2.5t25.5 -17q11 -13 37 -52t62 -94.5t78.5 -122.5
t86.5 -136t87.5 -135t80.5 -120l-23 648q-1 18 11.5 25.5t28.5 6.5t29.5 -8.5t14.5 -19.5q2 -22 4 -78t4.5 -130.5t5 -160t5.5 -165t6 -145t6 -101.5q1 -14 -7 -26.5t-20.5 -18.5t-27 -4.5t-25.5 14.5zM143 901q-6 -17 -19.5 -18.5t-26 5t-20 18.5t-2.5 23q12 25 26 49
t32.5 44t42.5 35t56 21q46 9 77 -6t54 -37t41 -43t36 -25q15 -3 28.5 3.5t24.5 18t21 26.5t19 30q6 9 18.5 10t24.5 -3.5t20.5 -14t5.5 -20.5q-7 -27 -25.5 -51t-41.5 -41.5t-47.5 -27.5t-43.5 -10q-23 -1 -41.5 9t-34.5 25t-31 32t-30 30.5t-32 21t-37 3.5
q-8 -2 -19.5 -7.5t-24.5 -17.5t-26.5 -32t-24.5 -50z" />
    <glyph glyph-name="Oacute" unicode="&#xd3;" horiz-adv-x="691" 
d="M276 0q-81 9 -132 50t-79 101t-36.5 132.5t-4.5 144.5q4 75 27.5 152t68 137.5t109.5 96t153 28.5q63 -5 112 -30.5t84 -64t57 -86.5t30 -97q11 -63 6.5 -131.5t-23.5 -133.5t-52 -123t-80 -99.5t-107 -63t-133 -13.5zM283 77q52 -8 97 10t81 52.5t63 81t44 97t23 100.5
t0 91q-6 44 -22 88t-43.5 80t-67 59.5t-91.5 25.5q-47 2 -84.5 -15.5t-65.5 -46t-48.5 -65.5t-33.5 -75t-20.5 -73t-9.5 -60q-5 -47 1 -105t27 -109.5t57.5 -89.5t92.5 -46zM334 902q-12 -12 -27.5 -11t-26.5 10t-14.5 23.5t10.5 29.5l76 84q16 18 33 18.5t28 -9.5t13.5 -26
t-10.5 -32z" />
    <glyph glyph-name="Obreve" unicode="&#x14e;" horiz-adv-x="691" 
d="M276 0q-81 9 -132 50t-79 101t-36.5 132.5t-4.5 144.5q4 75 27.5 152t68 137.5t109.5 96t153 28.5q63 -5 112 -30.5t84 -64t57 -86.5t30 -97q11 -63 6.5 -131.5t-23.5 -133.5t-52 -123t-80 -99.5t-107 -63t-133 -13.5zM283 77q52 -8 97 10t81 52.5t63 81t44 97t23 100.5
t0 91q-6 44 -22 88t-43.5 80t-67 59.5t-91.5 25.5q-47 2 -84.5 -15.5t-65.5 -46t-48.5 -65.5t-33.5 -75t-20.5 -73t-9.5 -60q-5 -47 1 -105t27 -109.5t57.5 -89.5t92.5 -46zM207 1023q-1 15 9 24t22.5 10t23 -7t11.5 -27q1 -20 7.5 -32.5t16.5 -20t22 -10t24 -2.5
q25 1 48 17.5t26 60.5q1 13 11.5 19t23 5t22.5 -10t9 -27q-2 -34 -15 -58t-33.5 -40t-45.5 -23.5t-50 -7.5q-24 0 -47 6.5t-41 21.5t-30 40t-14 61z" />
    <glyph glyph-name="Ocircumflex" unicode="&#xd4;" horiz-adv-x="691" 
d="M276 0q-81 9 -132 50t-79 101t-36.5 132.5t-4.5 144.5q4 75 27.5 152t68 137.5t109.5 96t153 28.5q63 -5 112 -30.5t84 -64t57 -86.5t30 -97q11 -63 6.5 -131.5t-23.5 -133.5t-52 -123t-80 -99.5t-107 -63t-133 -13.5zM283 77q52 -8 97 10t81 52.5t63 81t44 97t23 100.5
t0 91q-6 44 -22 88t-43.5 80t-67 59.5t-91.5 25.5q-47 2 -84.5 -15.5t-65.5 -46t-48.5 -65.5t-33.5 -75t-20.5 -73t-9.5 -60q-5 -47 1 -105t27 -109.5t57.5 -89.5t92.5 -46zM315 1048q3 7 11.5 11t18 4t18 -3.5t11.5 -11.5l62 -108q6 -13 -1 -22.5t-18.5 -13.5t-24 -2.5
t-16.5 9.5l-32 53l-30 -56q-4 -8 -16.5 -9t-24 3.5t-18.5 14t-1 22.5z" />
    <glyph glyph-name="Odieresis" unicode="&#xd6;" horiz-adv-x="691" 
d="M276 0q-81 9 -132 50t-79 101t-36.5 132.5t-4.5 144.5q4 75 27.5 152t68 137.5t109.5 96t153 28.5q63 -5 112 -30.5t84 -64t57 -86.5t30 -97q11 -63 6.5 -131.5t-23.5 -133.5t-52 -123t-80 -99.5t-107 -63t-133 -13.5zM283 77q52 -8 97 10t81 52.5t63 81t44 97t23 100.5
t0 91q-6 44 -22 88t-43.5 80t-67 59.5t-91.5 25.5q-47 2 -84.5 -15.5t-65.5 -46t-48.5 -65.5t-33.5 -75t-20.5 -73t-9.5 -60q-5 -47 1 -105t27 -109.5t57.5 -89.5t92.5 -46zM309 959q10 -15 0.5 -31t-27 -25t-37.5 -7t-30 22q-10 21 -1.5 36.5t25.5 23t37 3.5t33 -22z
M473 965q10 -15 0.5 -31t-27 -25t-37.5 -7t-30 22q-10 21 -1.5 36.5t25.5 23t37 3.5t33 -22z" />
    <glyph glyph-name="Ograve" unicode="&#xd2;" horiz-adv-x="691" 
d="M276 0q-81 9 -132 50t-79 101t-36.5 132.5t-4.5 144.5q4 75 27.5 152t68 137.5t109.5 96t153 28.5q63 -5 112 -30.5t84 -64t57 -86.5t30 -97q11 -63 6.5 -131.5t-23.5 -133.5t-52 -123t-80 -99.5t-107 -63t-133 -13.5zM283 77q52 -8 97 10t81 52.5t63 81t44 97t23 100.5
t0 91q-6 44 -22 88t-43.5 80t-67 59.5t-91.5 25.5q-47 2 -84.5 -15.5t-65.5 -46t-48.5 -65.5t-33.5 -75t-20.5 -73t-9.5 -60q-5 -47 1 -105t27 -109.5t57.5 -89.5t92.5 -46zM274 989q-13 16 -10.5 32t13.5 26t28 9.5t33 -18.5l76 -84q13 -15 10 -29.5t-14 -23.5t-26.5 -10
t-27.5 11z" />
    <glyph glyph-name="Ohungarumlaut" unicode="&#x150;" horiz-adv-x="691" 
d="M276 0q-81 9 -132 50t-79 101t-36.5 132.5t-4.5 144.5q4 75 27.5 152t68 137.5t109.5 96t153 28.5q63 -5 112 -30.5t84 -64t57 -86.5t30 -97q11 -63 6.5 -131.5t-23.5 -133.5t-52 -123t-80 -99.5t-107 -63t-133 -13.5zM283 77q52 -8 97 10t81 52.5t63 81t44 97t23 100.5
t0 91q-6 44 -22 88t-43.5 80t-67 59.5t-91.5 25.5q-47 2 -84.5 -15.5t-65.5 -46t-48.5 -65.5t-33.5 -75t-20.5 -73t-9.5 -60q-5 -47 1 -105t27 -109.5t57.5 -89.5t92.5 -46zM260 902q-12 -12 -27.5 -11t-26.5 10t-14.5 23.5t10.5 29.5l76 84q16 18 33 18.5t28 -9.5t13.5 -26
t-10.5 -32zM408 894q-12 -12 -27.5 -11t-26.5 10t-14.5 23.5t10.5 29.5l76 84q16 18 33 18.5t28 -9.5t13.5 -26t-10.5 -32z" />
    <glyph glyph-name="Omacron" unicode="&#x14c;" horiz-adv-x="691" 
d="M276 0q-81 9 -132 50t-79 101t-36.5 132.5t-4.5 144.5q4 75 27.5 152t68 137.5t109.5 96t153 28.5q63 -5 112 -30.5t84 -64t57 -86.5t30 -97q11 -63 6.5 -131.5t-23.5 -133.5t-52 -123t-80 -99.5t-107 -63t-133 -13.5zM283 77q52 -8 97 10t81 52.5t63 81t44 97t23 100.5
t0 91q-6 44 -22 88t-43.5 80t-67 59.5t-91.5 25.5q-47 2 -84.5 -15.5t-65.5 -46t-48.5 -65.5t-33.5 -75t-20.5 -73t-9.5 -60q-5 -47 1 -105t27 -109.5t57.5 -89.5t92.5 -46zM149 889q-18 -1 -25 12t-5.5 29t9.5 29.5t20 13.5q32 1 76 1h94t104.5 1.5t108.5 6.5
q20 1 31 -12.5t12.5 -30.5t-7 -32.5t-27.5 -16.5z" />
    <glyph glyph-name="Oslash" unicode="&#xd8;" horiz-adv-x="691" 
d="M167 34q-46 27 -75.5 70t-45.5 95.5t-20.5 111.5t-1.5 117q4 75 27.5 152t68 137.5t109.5 96t153 28.5q34 -3 66 -12l3 8q6 17 20.5 19t28.5 -4.5t24 -18.5t7 -23q-2 -4 -3 -8.5t-3 -9.5q60 -41 94.5 -102t45.5 -127q11 -63 6.5 -131.5t-23.5 -133.5t-52 -123t-80 -99.5
t-107 -63t-133 -13.5q-6 1 -11.5 1.5t-11.5 1.5v-1q-5 -19 -21.5 -25t-33 -1.5t-28 17.5t-6.5 31zM105 427q-4 -36 -1.5 -79.5t13.5 -86t30.5 -80.5t49.5 -64l224 635q-24 8 -54 10q-47 2 -84.5 -15.5t-65.5 -46t-48.5 -65.5t-33.5 -75t-20.5 -73t-9.5 -60zM283 77
q52 -8 97 10t81 52.5t63 81t44 97t23 100.5t0 91q-8 54 -30.5 108t-64.5 92q-15 -41 -33 -92.5t-38.5 -108.5t-41.5 -116t-40.5 -115.5t-36.5 -107.5t-30 -91q2 0 3.5 -0.5t3.5 -0.5z" />
    <glyph glyph-name="Oslashacute" unicode="&#x1fe;" horiz-adv-x="691" 
d="M167 34q-46 27 -75.5 70t-45.5 95.5t-20.5 111.5t-1.5 117q4 75 27.5 152t68 137.5t109.5 96t153 28.5q34 -3 66 -12l3 8q6 17 20.5 19t28.5 -4.5t24 -18.5t7 -23q-2 -4 -3 -8.5t-3 -9.5q60 -41 94.5 -102t45.5 -127q11 -63 6.5 -131.5t-23.5 -133.5t-52 -123t-80 -99.5
t-107 -63t-133 -13.5q-6 1 -11.5 1.5t-11.5 1.5v-1q-5 -19 -21.5 -25t-33 -1.5t-28 17.5t-6.5 31zM105 427q-4 -36 -1.5 -79.5t13.5 -86t30.5 -80.5t49.5 -64l224 635q-24 8 -54 10q-47 2 -84.5 -15.5t-65.5 -46t-48.5 -65.5t-33.5 -75t-20.5 -73t-9.5 -60zM283 77
q52 -8 97 10t81 52.5t63 81t44 97t23 100.5t0 91q-8 54 -30.5 108t-64.5 92q-15 -41 -33 -92.5t-38.5 -108.5t-41.5 -116t-40.5 -115.5t-36.5 -107.5t-30 -91q2 0 3.5 -0.5t3.5 -0.5zM334 902q-12 -12 -27.5 -11t-26.5 10t-14.5 23.5t10.5 29.5l76 84q16 18 33 18.5t28 -9.5
t13.5 -26t-10.5 -32z" />
    <glyph glyph-name="Otilde" unicode="&#xd5;" horiz-adv-x="691" 
d="M276 0q-81 9 -132 50t-79 101t-36.5 132.5t-4.5 144.5q4 75 27.5 152t68 137.5t109.5 96t153 28.5q63 -5 112 -30.5t84 -64t57 -86.5t30 -97q11 -63 6.5 -131.5t-23.5 -133.5t-52 -123t-80 -99.5t-107 -63t-133 -13.5zM283 77q52 -8 97 10t81 52.5t63 81t44 97t23 100.5
t0 91q-6 44 -22 88t-43.5 80t-67 59.5t-91.5 25.5q-47 2 -84.5 -15.5t-65.5 -46t-48.5 -65.5t-33.5 -75t-20.5 -73t-9.5 -60q-5 -47 1 -105t27 -109.5t57.5 -89.5t92.5 -46zM153 901q-6 -17 -19.5 -18.5t-26 5t-20 18.5t-2.5 23q12 25 26 49t32.5 44t42.5 35t56 21
q46 9 77 -6t54 -37t41 -43t36 -25q15 -3 28.5 3.5t24.5 18t21 26.5t19 30q6 9 18.5 10t24.5 -3.5t20.5 -14t5.5 -20.5q-7 -27 -25.5 -51t-41.5 -41.5t-47.5 -27.5t-43.5 -10q-23 -1 -41.5 9t-34.5 25t-31 32t-30 30.5t-32 21t-37 3.5q-8 -2 -19.5 -7.5t-24.5 -17.5
t-26.5 -32t-24.5 -50z" />
    <glyph glyph-name="OE" unicode="&#x152;" horiz-adv-x="917" 
d="M30 430q4 90 32 162t78.5 124t120.5 82.5t158 35.5l410 16q18 1 25.5 -11.5t7 -28.5t-8 -29.5t-19.5 -13.5q-18 -2 -57 -3.5t-92.5 -3.5t-118.5 -4t-137 -5q0 -51 0.5 -125.5t-0.5 -155.5l337 21q18 1 26 -11.5t7 -28t-8.5 -29.5t-19.5 -15q-36 -3 -123 -9t-218 -13
q0 -41 0.5 -84t1 -83.5t1.5 -76t2 -60.5l433 18q18 1 26 -11.5t7 -28.5t-8 -29.5t-19 -13.5q-19 -2 -64 -3.5t-106 -3.5t-133 -4.5t-145 -5.5q-109 -5 -186 19.5t-125 78.5t-69 137t-16 196zM291 84q14 -2 28 -5t27 -1l-5 663q-40 -5 -72 -23.5t-56 -45.5t-41 -59.5
t-29 -65.5t-18.5 -64t-8.5 -54q-5 -47 1 -104t26 -108t56 -88t92 -45z" />
    <glyph glyph-name="Racute" unicode="&#x154;" horiz-adv-x="673" 
d="M567 4q-77 88 -140 145.5t-116.5 93.5t-100.5 56t-92 32q-3 -39 -3 -74.5t2 -71.5t4 -73t4 -78q1 -18 -11.5 -28t-28.5 -11t-29.5 7.5t-14.5 28.5q-1 21 -1 77.5v131v160t-0.5 165t-2.5 145t-5 101.5q-2 19 11.5 30.5t30.5 13t32 -6.5t17 -27l-1 -40q63 32 123 49.5
t116 15.5q64 -1 118.5 -20t93.5 -55t59 -89t13 -122q-5 -53 -29 -95t-62.5 -73t-89 -50.5t-108.5 -27.5q35 -25 73.5 -53.5t76.5 -61.5t74 -69.5t66 -77.5q12 -16 4.5 -31.5t-22.5 -24.5t-33 -9t-28 17zM566 558q7 54 -9 92.5t-46.5 63.5t-72.5 37.5t-87 12.5
q-29 0 -61 -6.5t-62.5 -18t-57.5 -27t-46 -32.5q-1 -15 -2 -45t-1.5 -66.5t-0.5 -75t1 -69.5q31 -19 74 -27.5t91 -7t95.5 12.5t87 32t66 52t31.5 72zM325 902q-12 -12 -27.5 -11t-26.5 10t-14.5 23.5t10.5 29.5l76 84q16 18 33 18.5t28 -9.5t13.5 -26t-10.5 -32z" />
    <glyph glyph-name="Rcaron" unicode="&#x158;" horiz-adv-x="673" 
d="M567 4q-77 88 -140 145.5t-116.5 93.5t-100.5 56t-92 32q-3 -39 -3 -74.5t2 -71.5t4 -73t4 -78q1 -18 -11.5 -28t-28.5 -11t-29.5 7.5t-14.5 28.5q-1 21 -1 77.5v131v160t-0.5 165t-2.5 145t-5 101.5q-2 19 11.5 30.5t30.5 13t32 -6.5t17 -27l-1 -40q63 32 123 49.5
t116 15.5q64 -1 118.5 -20t93.5 -55t59 -89t13 -122q-5 -53 -29 -95t-62.5 -73t-89 -50.5t-108.5 -27.5q35 -25 73.5 -53.5t76.5 -61.5t74 -69.5t66 -77.5q12 -16 4.5 -31.5t-22.5 -24.5t-33 -9t-28 17zM566 558q7 54 -9 92.5t-46.5 63.5t-72.5 37.5t-87 12.5
q-29 0 -61 -6.5t-62.5 -18t-57.5 -27t-46 -32.5q-1 -15 -2 -45t-1.5 -66.5t-0.5 -75t1 -69.5q31 -19 74 -27.5t91 -7t95.5 12.5t87 32t66 52t31.5 72zM366 900q-3 -8 -11.5 -11.5t-18 -3.5t-18 3.5t-11.5 11.5l-62 108q-6 13 1 22.5t18.5 13.5t24 2.5t16.5 -9.5l32 -53
l30 56q4 8 16.5 9t24 -3.5t18.5 -14t1 -22.5z" />
    <glyph glyph-name="Rcommaaccent" unicode="&#x156;" horiz-adv-x="673" 
d="M567 4q-77 88 -140 145.5t-116.5 93.5t-100.5 56t-92 32q-3 -39 -3 -74.5t2 -71.5t4 -73t4 -78q1 -18 -11.5 -28t-28.5 -11t-29.5 7.5t-14.5 28.5q-1 21 -1 77.5v131v160t-0.5 165t-2.5 145t-5 101.5q-2 19 11.5 30.5t30.5 13t32 -6.5t17 -27l-1 -40q63 32 123 49.5
t116 15.5q64 -1 118.5 -20t93.5 -55t59 -89t13 -122q-5 -53 -29 -95t-62.5 -73t-89 -50.5t-108.5 -27.5q35 -25 73.5 -53.5t76.5 -61.5t74 -69.5t66 -77.5q12 -16 4.5 -31.5t-22.5 -24.5t-33 -9t-28 17zM566 558q7 54 -9 92.5t-46.5 63.5t-72.5 37.5t-87 12.5
q-29 0 -61 -6.5t-62.5 -18t-57.5 -27t-46 -32.5q-1 -15 -2 -45t-1.5 -66.5t-0.5 -75t1 -69.5q31 -19 74 -27.5t91 -7t95.5 12.5t87 32t66 52t31.5 72zM342 -203q-9 -20 -27.5 -22t-34.5 7t-23.5 26t5.5 34q10 14 20 32.5t12 40.5t-6.5 47t-33.5 52q-10 10 -4 23.5t19.5 22
t30 9t28.5 -14.5q83 -106 14 -257z" />
    <glyph glyph-name="Sacute" unicode="&#x15a;" horiz-adv-x="632" 
d="M296 -7q-39 1 -79.5 14.5t-78 39.5t-69 65t-52.5 92q-6 16 2.5 29t22 19.5t27.5 5t18 -14.5q24 -75 82.5 -121.5t137.5 -52.5q36 -2 77.5 4t76 21t54.5 41t13 65q-10 50 -47 81.5t-85 53t-99.5 37t-88.5 32.5q-52 24 -93 56t-63 72.5t-22 89.5t31 106q25 46 68.5 73.5
t96 38t108 5t103.5 -24.5t84 -51.5t49 -76.5q6 -20 -2 -32.5t-21.5 -17.5t-27 -1.5t-17.5 14.5q-13 32 -40 57.5t-62.5 41t-75 20t-78 -3.5t-71.5 -31t-55 -62q-23 -41 -14.5 -75t33.5 -61.5t59 -47t63 -29.5q25 -9 61.5 -21t76 -29t79 -39t70 -50.5t48.5 -64.5t15 -80
q-3 -56 -33.5 -93.5t-76 -59t-100 -29.5t-105.5 -5zM305 902q-12 -12 -27.5 -11t-26.5 10t-14.5 23.5t10.5 29.5l76 84q16 18 33 18.5t28 -9.5t13.5 -26t-10.5 -32z" />
    <glyph glyph-name="Scaron" unicode="&#x160;" horiz-adv-x="632" 
d="M296 -7q-39 1 -79.5 14.5t-78 39.5t-69 65t-52.5 92q-6 16 2.5 29t22 19.5t27.5 5t18 -14.5q24 -75 82.5 -121.5t137.5 -52.5q36 -2 77.5 4t76 21t54.5 41t13 65q-10 50 -47 81.5t-85 53t-99.5 37t-88.5 32.5q-52 24 -93 56t-63 72.5t-22 89.5t31 106q25 46 68.5 73.5
t96 38t108 5t103.5 -24.5t84 -51.5t49 -76.5q6 -20 -2 -32.5t-21.5 -17.5t-27 -1.5t-17.5 14.5q-13 32 -40 57.5t-62.5 41t-75 20t-78 -3.5t-71.5 -31t-55 -62q-23 -41 -14.5 -75t33.5 -61.5t59 -47t63 -29.5q25 -9 61.5 -21t76 -29t79 -39t70 -50.5t48.5 -64.5t15 -80
q-3 -56 -33.5 -93.5t-76 -59t-100 -29.5t-105.5 -5zM346 900q-3 -8 -11.5 -11.5t-18 -3.5t-18 3.5t-11.5 11.5l-62 108q-6 13 1 22.5t18.5 13.5t24 2.5t16.5 -9.5l32 -53l30 56q4 8 16.5 9t24 -3.5t18.5 -14t1 -22.5z" />
    <glyph glyph-name="Scedilla" unicode="&#x15e;" horiz-adv-x="632" 
d="M611 180q-3 -56 -33 -93t-74 -58.5t-97.5 -29.5t-104.5 -6v-17q24 1 49 -3.5t45.5 -16t33.5 -30.5t13 -46q0 -31 -13 -50t-32 -30t-40 -15t-37 -5q-21 -1 -41 5.5t-36.5 18t-28.5 25.5t-16 27q-4 12 3 22.5t17.5 16t20.5 4.5t13 -11q6 -22 26 -36.5t45 -13.5q26 1 41.5 9
t15.5 31q0 17 -12.5 26.5t-29 14t-33 5.5t-25.5 0q-7 -1 -15 2t-14 9.5t-9.5 16t-1.5 22.5q1 8 2 14l2 12q-34 7 -67.5 23.5t-63.5 41.5t-55 59.5t-42 79.5q-6 16 2.5 29t22 19.5t27.5 5t18 -14.5q24 -75 82.5 -121.5t137.5 -52.5q36 -2 77.5 4t76 21t54.5 41t13 65
q-10 50 -47 81.5t-85 53t-99.5 37t-88.5 32.5q-52 24 -93 56t-63 72.5t-22 89.5t31 106q25 46 68.5 73.5t96 38t108 5t103.5 -24.5t84 -51.5t49 -76.5q6 -20 -2 -32.5t-21.5 -17.5t-27 -1.5t-17.5 14.5q-13 32 -40 57.5t-62.5 41t-75 20t-78 -3.5t-71.5 -31t-55 -62
q-23 -41 -14.5 -75t33.5 -61.5t59 -47t63 -29.5q25 -9 61.5 -21t76 -29t79 -39t70 -50.5t48.5 -64.5t15 -80z" />
    <glyph glyph-name="Scircumflex" unicode="&#x15c;" horiz-adv-x="632" 
d="M296 -7q-39 1 -79.5 14.5t-78 39.5t-69 65t-52.5 92q-6 16 2.5 29t22 19.5t27.5 5t18 -14.5q24 -75 82.5 -121.5t137.5 -52.5q36 -2 77.5 4t76 21t54.5 41t13 65q-10 50 -47 81.5t-85 53t-99.5 37t-88.5 32.5q-52 24 -93 56t-63 72.5t-22 89.5t31 106q25 46 68.5 73.5
t96 38t108 5t103.5 -24.5t84 -51.5t49 -76.5q6 -20 -2 -32.5t-21.5 -17.5t-27 -1.5t-17.5 14.5q-13 32 -40 57.5t-62.5 41t-75 20t-78 -3.5t-71.5 -31t-55 -62q-23 -41 -14.5 -75t33.5 -61.5t59 -47t63 -29.5q25 -9 61.5 -21t76 -29t79 -39t70 -50.5t48.5 -64.5t15 -80
q-3 -56 -33.5 -93.5t-76 -59t-100 -29.5t-105.5 -5zM286 1048q3 7 11.5 11t18 4t18 -3.5t11.5 -11.5l62 -108q6 -13 -1 -22.5t-18.5 -13.5t-24 -2.5t-16.5 9.5l-32 53l-30 -56q-4 -8 -16.5 -9t-24 3.5t-18.5 14t-1 22.5z" />
    <glyph glyph-name="Scommaaccent" unicode="&#x218;" horiz-adv-x="632" 
d="M382 -218q-8 -14 -23.5 -15.5t-29.5 5t-20.5 18.5t4.5 24q9 10 17.5 23t10.5 29t-5.5 33.5t-29.5 37.5q-8 7 -3 17t16.5 16t26 6.5t24.5 -10.5q71 -77 12 -184zM296 -7q-39 1 -79.5 14.5t-78 39.5t-69 65t-52.5 92q-6 16 2.5 29t22 19.5t27.5 5t18 -14.5
q24 -75 82.5 -121.5t137.5 -52.5q36 -2 77.5 4t76 21t54.5 41t13 65q-10 50 -47 81.5t-85 53t-99.5 37t-88.5 32.5q-52 24 -93 56t-63 72.5t-22 89.5t31 106q25 46 68.5 73.5t96 38t108 5t103.5 -24.5t84 -51.5t49 -76.5q6 -20 -2 -32.5t-21.5 -17.5t-27 -1.5t-17.5 14.5
q-13 32 -40 57.5t-62.5 41t-75 20t-78 -3.5t-71.5 -31t-55 -62q-23 -41 -14.5 -75t33.5 -61.5t59 -47t63 -29.5q25 -9 61.5 -21t76 -29t79 -39t70 -50.5t48.5 -64.5t15 -80q-3 -56 -33.5 -93.5t-76 -59t-100 -29.5t-105.5 -5z" />
    <glyph glyph-name="Tbar" unicode="&#x166;" horiz-adv-x="649" 
d="M353 591q0 -80 1 -167t2 -164t2.5 -136t3.5 -83q2 -19 -11 -30t-30 -13t-32 6t-16 27l-3 560h-144q-18 -1 -25 12t-5.5 29t9.5 29.5t20 13.5q28 1 65 1h79v90q-24 -1 -55 -2.5t-61.5 -3t-58 -2.5t-45.5 -1q-19 0 -28.5 12.5t-9.5 27.5t9 27t28 12l557 9q18 -1 24 -13.5
t3.5 -27.5t-11.5 -27t-21 -11h-43.5t-59 0.5t-70 0.5t-76.5 -1v-42.5t1 -47.5q38 1 77.5 2.5t78.5 5.5q20 1 31 -12.5t12.5 -30.5t-7 -32.5t-27.5 -16.5z" />
    <glyph glyph-name="Tcaron" unicode="&#x164;" horiz-adv-x="649" 
d="M605 845q18 -1 24 -13.5t3.5 -27.5t-11.5 -27t-21 -11h-43.5t-59 0.5t-70 0.5t-76.5 -1q1 -50 1.5 -117t1 -140.5t1 -148t1.5 -138t2.5 -112t3.5 -69.5q2 -19 -11 -30t-30 -13t-32 6t-16 27l-4 735q-24 -1 -55 -2.5t-61.5 -3t-58 -2.5t-45.5 -1q-19 0 -28.5 12.5
t-9.5 27.5t9 27t28 12zM354 900q-3 -8 -11.5 -11.5t-18 -3.5t-18 3.5t-11.5 11.5l-62 108q-6 13 1 22.5t18.5 13.5t24 2.5t16.5 -9.5l32 -53l30 56q4 8 16.5 9t24 -3.5t18.5 -14t1 -22.5z" />
    <glyph glyph-name="Tcommaaccent" unicode="&#x162;" horiz-adv-x="649" 
d="M605 845q18 -1 24 -13.5t3.5 -27.5t-11.5 -27t-21 -11h-43.5t-59 0.5t-70 0.5t-76.5 -1q1 -50 1.5 -117t1 -140.5t1 -148t1.5 -138t2.5 -112t3.5 -69.5q2 -19 -11 -30t-30 -13t-32 6t-16 27l-4 735q-24 -1 -55 -2.5t-61.5 -3t-58 -2.5t-45.5 -1q-19 0 -28.5 12.5
t-9.5 27.5t9 27t28 12zM356 -218q-8 -14 -25 -15.5t-31.5 5t-21.5 18t5 23.5q9 10 18 23t11 28.5t-6 33t-31 37.5q-9 7 -3 16.5t18 15.5t27 6t26 -10q75 -75 13 -181z" />
    <glyph glyph-name="Uacute" unicode="&#xda;" horiz-adv-x="700" 
d="M363 -5q-109 -6 -178 48.5t-106 162t-44 264t8 354.5q1 12 15.5 20.5t30.5 9.5t28 -8t9 -32q-5 -37 -9 -89t-5.5 -112t2 -124t13.5 -124.5t27.5 -114.5t46 -93.5t68.5 -61.5t94 -19q68 4 112.5 38t70 89.5t35 128t8.5 152.5t-10.5 163t-20.5 161q-2 15 10 26t28.5 14.5
t31 -2.5t16.5 -26q9 -80 17.5 -170.5t9 -180.5t-12 -173.5t-47 -148.5t-94.5 -106t-154 -46zM339 902q-12 -12 -27.5 -11t-26.5 10t-14.5 23.5t10.5 29.5l76 84q16 18 33 18.5t28 -9.5t13.5 -26t-10.5 -32z" />
    <glyph glyph-name="Ubreve" unicode="&#x16c;" horiz-adv-x="700" 
d="M363 -5q-109 -6 -178 48.5t-106 162t-44 264t8 354.5q1 12 15.5 20.5t30.5 9.5t28 -8t9 -32q-5 -37 -9 -89t-5.5 -112t2 -124t13.5 -124.5t27.5 -114.5t46 -93.5t68.5 -61.5t94 -19q68 4 112.5 38t70 89.5t35 128t8.5 152.5t-10.5 163t-20.5 161q-2 15 10 26t28.5 14.5
t31 -2.5t16.5 -26q9 -80 17.5 -170.5t9 -180.5t-12 -173.5t-47 -148.5t-94.5 -106t-154 -46zM212 1023q-1 15 9 24t22.5 10t23 -7t11.5 -27q1 -20 7.5 -32.5t16.5 -20t22 -10t24 -2.5q25 1 48 17.5t26 60.5q1 13 11.5 19t23 5t22.5 -10t9 -27q-2 -34 -15 -58t-33.5 -40
t-45.5 -23.5t-50 -7.5q-24 0 -47 6.5t-41 21.5t-30 40t-14 61z" />
    <glyph glyph-name="Ucircumflex" unicode="&#xdb;" horiz-adv-x="700" 
d="M363 -5q-109 -6 -178 48.5t-106 162t-44 264t8 354.5q1 12 15.5 20.5t30.5 9.5t28 -8t9 -32q-5 -37 -9 -89t-5.5 -112t2 -124t13.5 -124.5t27.5 -114.5t46 -93.5t68.5 -61.5t94 -19q68 4 112.5 38t70 89.5t35 128t8.5 152.5t-10.5 163t-20.5 161q-2 15 10 26t28.5 14.5
t31 -2.5t16.5 -26q9 -80 17.5 -170.5t9 -180.5t-12 -173.5t-47 -148.5t-94.5 -106t-154 -46zM320 1048q3 7 11.5 11t18 4t18 -3.5t11.5 -11.5l62 -108q6 -13 -1 -22.5t-18.5 -13.5t-24 -2.5t-16.5 9.5l-32 53l-30 -56q-4 -8 -16.5 -9t-24 3.5t-18.5 14t-1 22.5z" />
    <glyph glyph-name="Udieresis" unicode="&#xdc;" horiz-adv-x="700" 
d="M363 -5q-109 -6 -178 48.5t-106 162t-44 264t8 354.5q1 12 15.5 20.5t30.5 9.5t28 -8t9 -32q-5 -37 -9 -89t-5.5 -112t2 -124t13.5 -124.5t27.5 -114.5t46 -93.5t68.5 -61.5t94 -19q68 4 112.5 38t70 89.5t35 128t8.5 152.5t-10.5 163t-20.5 161q-2 15 10 26t28.5 14.5
t31 -2.5t16.5 -26q9 -80 17.5 -170.5t9 -180.5t-12 -173.5t-47 -148.5t-94.5 -106t-154 -46zM314 959q10 -15 0.5 -31t-27 -25t-37.5 -7t-30 22q-10 21 -1.5 36.5t25.5 23t37 3.5t33 -22zM478 965q10 -15 0.5 -31t-27 -25t-37.5 -7t-30 22q-10 21 -1.5 36.5t25.5 23t37 3.5
t33 -22z" />
    <glyph glyph-name="Ugrave" unicode="&#xd9;" horiz-adv-x="700" 
d="M363 -5q-109 -6 -178 48.5t-106 162t-44 264t8 354.5q1 12 15.5 20.5t30.5 9.5t28 -8t9 -32q-5 -37 -9 -89t-5.5 -112t2 -124t13.5 -124.5t27.5 -114.5t46 -93.5t68.5 -61.5t94 -19q68 4 112.5 38t70 89.5t35 128t8.5 152.5t-10.5 163t-20.5 161q-2 15 10 26t28.5 14.5
t31 -2.5t16.5 -26q9 -80 17.5 -170.5t9 -180.5t-12 -173.5t-47 -148.5t-94.5 -106t-154 -46zM279 989q-13 16 -10.5 32t13.5 26t28 9.5t33 -18.5l76 -84q13 -15 10 -29.5t-14 -23.5t-26.5 -10t-27.5 11z" />
    <glyph glyph-name="Uhungarumlaut" unicode="&#x170;" horiz-adv-x="700" 
d="M363 -5q-109 -6 -178 48.5t-106 162t-44 264t8 354.5q1 12 15.5 20.5t30.5 9.5t28 -8t9 -32q-5 -37 -9 -89t-5.5 -112t2 -124t13.5 -124.5t27.5 -114.5t46 -93.5t68.5 -61.5t94 -19q68 4 112.5 38t70 89.5t35 128t8.5 152.5t-10.5 163t-20.5 161q-2 15 10 26t28.5 14.5
t31 -2.5t16.5 -26q9 -80 17.5 -170.5t9 -180.5t-12 -173.5t-47 -148.5t-94.5 -106t-154 -46zM265 902q-12 -12 -27.5 -11t-26.5 10t-14.5 23.5t10.5 29.5l76 84q16 18 33 18.5t28 -9.5t13.5 -26t-10.5 -32zM413 894q-12 -12 -27.5 -11t-26.5 10t-14.5 23.5t10.5 29.5l76 84
q16 18 33 18.5t28 -9.5t13.5 -26t-10.5 -32z" />
    <glyph glyph-name="Umacron" unicode="&#x16a;" horiz-adv-x="700" 
d="M363 -5q-109 -6 -178 48.5t-106 162t-44 264t8 354.5q1 12 15.5 20.5t30.5 9.5t28 -8t9 -32q-5 -37 -9 -89t-5.5 -112t2 -124t13.5 -124.5t27.5 -114.5t46 -93.5t68.5 -61.5t94 -19q68 4 112.5 38t70 89.5t35 128t8.5 152.5t-10.5 163t-20.5 161q-2 15 10 26t28.5 14.5
t31 -2.5t16.5 -26q9 -80 17.5 -170.5t9 -180.5t-12 -173.5t-47 -148.5t-94.5 -106t-154 -46zM153 889q-18 -1 -25 12t-5.5 29t9.5 29.5t20 13.5q32 1 76 1h94t104.5 1.5t108.5 6.5q20 1 31 -12.5t12.5 -30.5t-7 -32.5t-27.5 -16.5z" />
    <glyph glyph-name="Uogonek" unicode="&#x172;" horiz-adv-x="700" 
d="M363 -5q-109 -6 -178 48.5t-106 162t-44 264t8 354.5q1 12 15.5 20.5t30.5 9.5t28 -8t9 -32q-5 -37 -9 -89t-5.5 -112t2 -124t13.5 -124.5t27.5 -114.5t46 -93.5t68.5 -61.5t94 -19q68 4 112.5 38t70 89.5t35 128t8.5 152.5t-10.5 163t-20.5 161q-2 15 10 26t28.5 14.5
t31 -2.5t16.5 -26q7 -67 14.5 -142.5t10.5 -151.5t-1.5 -150t-21.5 -138.5t-49.5 -116.5t-85.5 -84q-6 -9 -8 -19.5t-1 -21.5q1 -25 17.5 -48t60.5 -26q13 -1 19 -11.5t5 -23t-10 -22.5t-27 -9q-34 1 -58 14.5t-40 34t-23.5 45.5t-7.5 50v7q-35 -9 -75 -12z" />
    <glyph glyph-name="Uring" unicode="&#x16e;" horiz-adv-x="700" 
d="M363 -5q-109 -6 -178 48.5t-106 162t-44 264t8 354.5q1 12 15.5 20.5t30.5 9.5t28 -8t9 -32q-5 -37 -9 -89t-5.5 -112t2 -124t13.5 -124.5t27.5 -114.5t46 -93.5t68.5 -61.5t94 -19q68 4 112.5 38t70 89.5t35 128t8.5 152.5t-10.5 163t-20.5 161q-2 15 10 26t28.5 14.5
t31 -2.5t16.5 -26q9 -80 17.5 -170.5t9 -180.5t-12 -173.5t-47 -148.5t-94.5 -106t-154 -46zM386 979q-11 14 -26.5 16.5t-29 -2.5t-20.5 -17t1 -28q8 -15 23.5 -16.5t30 5.5t22 18.5t-0.5 23.5zM429 1000q13 -24 9 -44.5t-18.5 -36.5t-36 -25.5t-44 -9.5t-42.5 10t-32 34
q-17 36 -0.5 64.5t46.5 42t64.5 6.5t53.5 -41z" />
    <glyph glyph-name="Utilde" unicode="&#x168;" horiz-adv-x="700" 
d="M363 -5q-109 -6 -178 48.5t-106 162t-44 264t8 354.5q1 12 15.5 20.5t30.5 9.5t28 -8t9 -32q-5 -37 -9 -89t-5.5 -112t2 -124t13.5 -124.5t27.5 -114.5t46 -93.5t68.5 -61.5t94 -19q68 4 112.5 38t70 89.5t35 128t8.5 152.5t-10.5 163t-20.5 161q-2 15 10 26t28.5 14.5
t31 -2.5t16.5 -26q9 -80 17.5 -170.5t9 -180.5t-12 -173.5t-47 -148.5t-94.5 -106t-154 -46zM158 901q-6 -17 -19.5 -18.5t-26 5t-20 18.5t-2.5 23q12 25 26 49t32.5 44t42.5 35t56 21q46 9 77 -6t54 -37t41 -43t36 -25q15 -3 28.5 3.5t24.5 18t21 26.5t19 30q6 9 18.5 10
t24.5 -3.5t20.5 -14t5.5 -20.5q-7 -27 -25.5 -51t-41.5 -41.5t-47.5 -27.5t-43.5 -10q-23 -1 -41.5 9t-34.5 25t-31 32t-30 30.5t-32 21t-37 3.5q-8 -2 -19.5 -7.5t-24.5 -17.5t-26.5 -32t-24.5 -50z" />
    <glyph glyph-name="Wacute" unicode="&#x1e82;" horiz-adv-x="920" 
d="M462 525l-166 -499q-4 -14 -17.5 -19.5t-28.5 -4t-28 9t-16 20.5l-188 778q-5 18 6.5 27.5t27 11.5t30.5 -3t18 -16q4 -16 14 -55t23 -93t29 -118t32 -130t31.5 -130t29.5 -118l160 496q3 15 15.5 22.5t27 7.5t27.5 -8t16 -23q7 -29 25 -87t41 -129t47.5 -146t44.5 -139
q13 54 29 118.5t32.5 131t32 131t29 119t23 94t14.5 55.5q3 11 18 16t30.5 3t26.5 -11.5t7 -27.5l-189 -778q-3 -13 -16 -20.5t-28 -9t-28.5 4t-17.5 19.5zM449 902q-12 -12 -27.5 -11t-26.5 10t-14.5 23.5t10.5 29.5l76 84q16 18 33 18.5t28 -9.5t13.5 -26t-10.5 -32z" />
    <glyph glyph-name="Wcircumflex" unicode="&#x174;" horiz-adv-x="920" 
d="M462 525l-166 -499q-4 -14 -17.5 -19.5t-28.5 -4t-28 9t-16 20.5l-188 778q-5 18 6.5 27.5t27 11.5t30.5 -3t18 -16q4 -16 14 -55t23 -93t29 -118t32 -130t31.5 -130t29.5 -118l160 496q3 15 15.5 22.5t27 7.5t27.5 -8t16 -23q7 -29 25 -87t41 -129t47.5 -146t44.5 -139
q13 54 29 118.5t32.5 131t32 131t29 119t23 94t14.5 55.5q3 11 18 16t30.5 3t26.5 -11.5t7 -27.5l-189 -778q-3 -13 -16 -20.5t-28 -9t-28.5 4t-17.5 19.5zM430 1048q3 7 11.5 11t18 4t18 -3.5t11.5 -11.5l62 -108q6 -13 -1 -22.5t-18.5 -13.5t-24 -2.5t-16.5 9.5l-32 53
l-30 -56q-4 -8 -16.5 -9t-24 3.5t-18.5 14t-1 22.5z" />
    <glyph glyph-name="Wdieresis" unicode="&#x1e84;" horiz-adv-x="920" 
d="M462 525l-166 -499q-4 -14 -17.5 -19.5t-28.5 -4t-28 9t-16 20.5l-188 778q-5 18 6.5 27.5t27 11.5t30.5 -3t18 -16q4 -16 14 -55t23 -93t29 -118t32 -130t31.5 -130t29.5 -118l160 496q3 15 15.5 22.5t27 7.5t27.5 -8t16 -23q7 -29 25 -87t41 -129t47.5 -146t44.5 -139
q13 54 29 118.5t32.5 131t32 131t29 119t23 94t14.5 55.5q3 11 18 16t30.5 3t26.5 -11.5t7 -27.5l-189 -778q-3 -13 -16 -20.5t-28 -9t-28.5 4t-17.5 19.5zM424 959q10 -15 0.5 -31t-27 -25t-37.5 -7t-30 22q-10 21 -1.5 36.5t25.5 23t37 3.5t33 -22zM588 965
q10 -15 0.5 -31t-27 -25t-37.5 -7t-30 22q-10 21 -1.5 36.5t25.5 23t37 3.5t33 -22z" />
    <glyph glyph-name="Wgrave" unicode="&#x1e80;" horiz-adv-x="920" 
d="M462 525l-166 -499q-4 -14 -17.5 -19.5t-28.5 -4t-28 9t-16 20.5l-188 778q-5 18 6.5 27.5t27 11.5t30.5 -3t18 -16q4 -16 14 -55t23 -93t29 -118t32 -130t31.5 -130t29.5 -118l160 496q3 15 15.5 22.5t27 7.5t27.5 -8t16 -23q7 -29 25 -87t41 -129t47.5 -146t44.5 -139
q13 54 29 118.5t32.5 131t32 131t29 119t23 94t14.5 55.5q3 11 18 16t30.5 3t26.5 -11.5t7 -27.5l-189 -778q-3 -13 -16 -20.5t-28 -9t-28.5 4t-17.5 19.5zM389 989q-13 16 -10.5 32t13.5 26t28 9.5t33 -18.5l76 -84q13 -15 10 -29.5t-14 -23.5t-26.5 -10t-27.5 11z" />
    <glyph glyph-name="Yacute" unicode="&#xdd;" horiz-adv-x="614" 
d="M351 466q-3 -92 -2.5 -206t2.5 -232q0 -20 -12 -29.5t-27 -10t-28 9t-15 28.5q-1 108 -1 182.5t-0.5 123t-0.5 74.5v38v14.5v2.5l-248 334q-11 14 -5.5 26.5t18 20t27.5 8.5t22 -8q27 -35 53.5 -70.5t54 -71.5t56.5 -74.5t62 -79.5q33 40 62 77.5t56 73.5t53 70.5
t53 69.5q7 9 22 8t28 -8.5t19 -20t-5 -26.5zM296 902q-12 -12 -27.5 -11t-26.5 10t-14.5 23.5t10.5 29.5l76 84q16 18 33 18.5t28 -9.5t13.5 -26t-10.5 -32z" />
    <glyph glyph-name="Ycircumflex" unicode="&#x176;" horiz-adv-x="614" 
d="M351 466q-3 -92 -2.5 -206t2.5 -232q0 -20 -12 -29.5t-27 -10t-28 9t-15 28.5q-1 108 -1 182.5t-0.5 123t-0.5 74.5v38v14.5v2.5l-248 334q-11 14 -5.5 26.5t18 20t27.5 8.5t22 -8q27 -35 53.5 -70.5t54 -71.5t56.5 -74.5t62 -79.5q33 40 62 77.5t56 73.5t53 70.5
t53 69.5q7 9 22 8t28 -8.5t19 -20t-5 -26.5zM277 1048q3 7 11.5 11t18 4t18 -3.5t11.5 -11.5l62 -108q6 -13 -1 -22.5t-18.5 -13.5t-24 -2.5t-16.5 9.5l-32 53l-30 -56q-4 -8 -16.5 -9t-24 3.5t-18.5 14t-1 22.5z" />
    <glyph glyph-name="Ydieresis" unicode="&#x178;" horiz-adv-x="614" 
d="M351 466q-3 -92 -2.5 -206t2.5 -232q0 -20 -12 -29.5t-27 -10t-28 9t-15 28.5q-1 108 -1 182.5t-0.5 123t-0.5 74.5v38v14.5v2.5l-248 334q-11 14 -5.5 26.5t18 20t27.5 8.5t22 -8q27 -35 53.5 -70.5t54 -71.5t56.5 -74.5t62 -79.5q33 40 62 77.5t56 73.5t53 70.5
t53 69.5q7 9 22 8t28 -8.5t19 -20t-5 -26.5zM271 959q10 -15 0.5 -31t-27 -25t-37.5 -7t-30 22q-10 21 -1.5 36.5t25.5 23t37 3.5t33 -22zM435 965q10 -15 0.5 -31t-27 -25t-37.5 -7t-30 22q-10 21 -1.5 36.5t25.5 23t37 3.5t33 -22z" />
    <glyph glyph-name="Ygrave" unicode="&#x1ef2;" horiz-adv-x="614" 
d="M351 466q-3 -92 -2.5 -206t2.5 -232q0 -20 -12 -29.5t-27 -10t-28 9t-15 28.5q-1 108 -1 182.5t-0.5 123t-0.5 74.5v38v14.5v2.5l-248 334q-11 14 -5.5 26.5t18 20t27.5 8.5t22 -8q27 -35 53.5 -70.5t54 -71.5t56.5 -74.5t62 -79.5q33 40 62 77.5t56 73.5t53 70.5
t53 69.5q7 9 22 8t28 -8.5t19 -20t-5 -26.5zM236 989q-13 16 -10.5 32t13.5 26t28 9.5t33 -18.5l76 -84q13 -15 10 -29.5t-14 -23.5t-26.5 -10t-27.5 11z" />
    <glyph glyph-name="Zcaron" unicode="&#x17d;" horiz-adv-x="695" 
d="M651 6q-174 -4 -285.5 -6t-176.5 -2.5t-91.5 -0.5h-30.5q-14 1 -23.5 8.5t-14 18t-2.5 22t11 22.5l524 700l-498 -13q-18 -1 -25.5 10.5t-7 25t8 25.5t19.5 13q21 1 60.5 2t89 2t105.5 2t110 3t103 4.5t85 5.5q16 1 27 -8t16.5 -23t3 -31t-13.5 -31q-25 -32 -65.5 -87.5
t-88 -122t-98.5 -138.5t-99 -137t-88.5 -118t-65.5 -81h66.5t86 1t96.5 2.5t96 3t85.5 3.5t66.5 5q20 2 32 -10t14 -27t-5.5 -28.5t-26.5 -14.5zM377 900q-3 -8 -11.5 -11.5t-18 -3.5t-18 3.5t-11.5 11.5l-62 108q-6 13 1 22.5t18.5 13.5t24 2.5t16.5 -9.5l32 -53l30 56
q4 8 16.5 9t24 -3.5t18.5 -14t1 -22.5z" />
    <glyph glyph-name="Zacute" unicode="&#x179;" horiz-adv-x="695" 
d="M651 6q-174 -4 -285.5 -6t-176.5 -2.5t-91.5 -0.5h-30.5q-14 1 -23.5 8.5t-14 18t-2.5 22t11 22.5l524 700l-498 -13q-18 -1 -25.5 10.5t-7 25t8 25.5t19.5 13q21 1 60.5 2t89 2t105.5 2t110 3t103 4.5t85 5.5q16 1 27 -8t16.5 -23t3 -31t-13.5 -31q-25 -32 -65.5 -87.5
t-88 -122t-98.5 -138.5t-99 -137t-88.5 -118t-65.5 -81h66.5t86 1t96.5 2.5t96 3t85.5 3.5t66.5 5q20 2 32 -10t14 -27t-5.5 -28.5t-26.5 -14.5zM336 902q-12 -12 -27.5 -11t-26.5 10t-14.5 23.5t10.5 29.5l76 84q16 18 33 18.5t28 -9.5t13.5 -26t-10.5 -32z" />
    <glyph glyph-name="Zdotaccent" unicode="&#x17b;" horiz-adv-x="695" 
d="M651 6q-174 -4 -285.5 -6t-176.5 -2.5t-91.5 -0.5h-30.5q-14 1 -23.5 8.5t-14 18t-2.5 22t11 22.5l524 700l-498 -13q-18 -1 -25.5 10.5t-7 25t8 25.5t19.5 13q21 1 60.5 2t89 2t105.5 2t110 3t103 4.5t85 5.5q16 1 27 -8t16.5 -23t3 -31t-13.5 -31q-25 -32 -65.5 -87.5
t-88 -122t-98.5 -138.5t-99 -137t-88.5 -118t-65.5 -81h66.5t86 1t96.5 2.5t96 3t85.5 3.5t66.5 5q20 2 32 -10t14 -27t-5.5 -28.5t-26.5 -14.5zM393 959q10 -15 0.5 -31t-27 -25t-37.5 -7t-30 22q-10 21 -1.5 36.5t25.5 23t37 3.5t33 -22z" />
    <glyph glyph-name="aacute" unicode="&#xe1;" horiz-adv-x="625" 
d="M178 21q-45 14 -75.5 43t-48 67.5t-23 82.5t-1 88t18 85t34.5 74q69 108 161.5 135.5t201.5 -13.5q-3 25 9.5 37.5t28.5 14t31 -8t17 -28.5q5 -39 10 -87.5t10 -100t10.5 -104t11 -100.5t11.5 -89t13 -70q5 -20 -5 -34t-25 -18t-30 3.5t-20 31.5l-17 73
q-24 -29 -62 -50.5t-82.5 -33t-91.5 -11.5t-87 13zM205 97q34 -11 78.5 -7t86.5 21t74.5 45t42.5 64q-8 63 -11 120.5t-9 113.5q-27 37 -69.5 54t-88.5 13.5t-88.5 -27t-68.5 -67.5q-21 -36 -33 -86t-8.5 -99t25.5 -89t69 -56zM301 663q-12 -12 -27.5 -11t-26.5 10
t-14.5 23.5t10.5 29.5l76 84q16 18 33 18.5t28 -9.5t13.5 -26t-10.5 -32z" />
    <glyph glyph-name="abreve" unicode="&#x103;" horiz-adv-x="625" 
d="M178 21q-45 14 -75.5 43t-48 67.5t-23 82.5t-1 88t18 85t34.5 74q69 108 161.5 135.5t201.5 -13.5q-3 25 9.5 37.5t28.5 14t31 -8t17 -28.5q5 -39 10 -87.5t10 -100t10.5 -104t11 -100.5t11.5 -89t13 -70q5 -20 -5 -34t-25 -18t-30 3.5t-20 31.5l-17 73
q-24 -29 -62 -50.5t-82.5 -33t-91.5 -11.5t-87 13zM205 97q34 -11 78.5 -7t86.5 21t74.5 45t42.5 64q-8 63 -11 120.5t-9 113.5q-27 37 -69.5 54t-88.5 13.5t-88.5 -27t-68.5 -67.5q-21 -36 -33 -86t-8.5 -99t25.5 -89t69 -56zM174 784q-1 15 9 24t22.5 10t23 -7t11.5 -27
q1 -20 7.5 -32.5t16.5 -20t22 -10t24 -2.5q25 1 48 17.5t26 60.5q1 13 11.5 19t23 5t22.5 -10t9 -27q-2 -34 -15 -58t-33.5 -40t-45.5 -23.5t-50 -7.5q-24 0 -47 6.5t-41 21.5t-30 40t-14 61z" />
    <glyph glyph-name="acircumflex" unicode="&#xe2;" horiz-adv-x="625" 
d="M178 21q-45 14 -75.5 43t-48 67.5t-23 82.5t-1 88t18 85t34.5 74q69 108 161.5 135.5t201.5 -13.5q-3 25 9.5 37.5t28.5 14t31 -8t17 -28.5q5 -39 10 -87.5t10 -100t10.5 -104t11 -100.5t11.5 -89t13 -70q5 -20 -5 -34t-25 -18t-30 3.5t-20 31.5l-17 73
q-24 -29 -62 -50.5t-82.5 -33t-91.5 -11.5t-87 13zM205 97q34 -11 78.5 -7t86.5 21t74.5 45t42.5 64q-8 63 -11 120.5t-9 113.5q-27 37 -69.5 54t-88.5 13.5t-88.5 -27t-68.5 -67.5q-21 -36 -33 -86t-8.5 -99t25.5 -89t69 -56zM282 809q3 7 11.5 11t18 4t18 -3.5t11.5 -11.5
l62 -108q6 -13 -1 -22.5t-18.5 -13.5t-24 -2.5t-16.5 9.5l-32 53l-30 -56q-4 -8 -16.5 -9t-24 3.5t-18.5 14t-1 22.5z" />
    <glyph glyph-name="adieresis" unicode="&#xe4;" horiz-adv-x="625" 
d="M178 21q-45 14 -75.5 43t-48 67.5t-23 82.5t-1 88t18 85t34.5 74q69 108 161.5 135.5t201.5 -13.5q-3 25 9.5 37.5t28.5 14t31 -8t17 -28.5q5 -39 10 -87.5t10 -100t10.5 -104t11 -100.5t11.5 -89t13 -70q5 -20 -5 -34t-25 -18t-30 3.5t-20 31.5l-17 73
q-24 -29 -62 -50.5t-82.5 -33t-91.5 -11.5t-87 13zM205 97q34 -11 78.5 -7t86.5 21t74.5 45t42.5 64q-8 63 -11 120.5t-9 113.5q-27 37 -69.5 54t-88.5 13.5t-88.5 -27t-68.5 -67.5q-21 -36 -33 -86t-8.5 -99t25.5 -89t69 -56zM276 720q10 -15 0.5 -31t-27 -25t-37.5 -7
t-30 22q-10 21 -1.5 36.5t25.5 23t37 3.5t33 -22zM440 726q10 -15 0.5 -31t-27 -25t-37.5 -7t-30 22q-10 21 -1.5 36.5t25.5 23t37 3.5t33 -22z" />
    <glyph glyph-name="agrave" unicode="&#xe0;" horiz-adv-x="625" 
d="M178 21q-45 14 -75.5 43t-48 67.5t-23 82.5t-1 88t18 85t34.5 74q69 108 161.5 135.5t201.5 -13.5q-3 25 9.5 37.5t28.5 14t31 -8t17 -28.5q5 -39 10 -87.5t10 -100t10.5 -104t11 -100.5t11.5 -89t13 -70q5 -20 -5 -34t-25 -18t-30 3.5t-20 31.5l-17 73
q-24 -29 -62 -50.5t-82.5 -33t-91.5 -11.5t-87 13zM205 97q34 -11 78.5 -7t86.5 21t74.5 45t42.5 64q-8 63 -11 120.5t-9 113.5q-27 37 -69.5 54t-88.5 13.5t-88.5 -27t-68.5 -67.5q-21 -36 -33 -86t-8.5 -99t25.5 -89t69 -56zM241 750q-13 16 -10.5 32t13.5 26t28 9.5
t33 -18.5l76 -84q13 -15 10 -29.5t-14 -23.5t-26.5 -10t-27.5 11z" />
    <glyph glyph-name="amacron" unicode="&#x101;" horiz-adv-x="625" 
d="M178 21q-45 14 -75.5 43t-48 67.5t-23 82.5t-1 88t18 85t34.5 74q69 108 161.5 135.5t201.5 -13.5q-3 25 9.5 37.5t28.5 14t31 -8t17 -28.5q5 -39 10 -87.5t10 -100t10.5 -104t11 -100.5t11.5 -89t13 -70q5 -20 -5 -34t-25 -18t-30 3.5t-20 31.5l-17 73
q-24 -29 -62 -50.5t-82.5 -33t-91.5 -11.5t-87 13zM205 97q34 -11 78.5 -7t86.5 21t74.5 45t42.5 64q-8 63 -11 120.5t-9 113.5q-27 37 -69.5 54t-88.5 13.5t-88.5 -27t-68.5 -67.5q-21 -36 -33 -86t-8.5 -99t25.5 -89t69 -56zM116 650q-18 -1 -25 12t-5.5 29t9.5 29.5
t20 13.5q32 1 76 1h94t104.5 1.5t108.5 6.5q20 1 31 -12.5t12.5 -30.5t-7 -32.5t-27.5 -16.5z" />
    <glyph glyph-name="aogonek" unicode="&#x105;" horiz-adv-x="625" 
d="M178 21q-45 14 -75.5 43t-48 67.5t-23 82.5t-1 88t18 85t34.5 74q69 108 161.5 135.5t201.5 -13.5q-3 25 9.5 37.5t28.5 14t31 -8t17 -28.5q5 -39 10 -87.5t10 -100t10.5 -104t11 -100.5t11.5 -89t13 -70q5 -23 -8.5 -37.5t-30.5 -15.5q-1 -4 -0.5 -7t0.5 -7
q1 -25 17.5 -48t60.5 -26q13 -1 19 -11.5t5 -23t-10 -22.5t-27 -9q-34 1 -58 14.5t-40 34t-23.5 45.5t-7.5 50q-2 40 17 72l-11 47q-24 -29 -62 -50.5t-82.5 -33t-91.5 -11.5t-87 13zM205 97q34 -11 78.5 -7t86.5 21t74.5 45t42.5 64q-8 63 -11 120.5t-9 113.5
q-27 37 -69.5 54t-88.5 13.5t-88.5 -27t-68.5 -67.5q-21 -36 -33 -86t-8.5 -99t25.5 -89t69 -56z" />
    <glyph glyph-name="aring" unicode="&#xe5;" horiz-adv-x="625" 
d="M178 21q-45 14 -75.5 43t-48 67.5t-23 82.5t-1 88t18 85t34.5 74q69 108 161.5 135.5t201.5 -13.5q-3 25 9.5 37.5t28.5 14t31 -8t17 -28.5q5 -39 10 -87.5t10 -100t10.5 -104t11 -100.5t11.5 -89t13 -70q5 -20 -5 -34t-25 -18t-30 3.5t-20 31.5l-17 73
q-24 -29 -62 -50.5t-82.5 -33t-91.5 -11.5t-87 13zM205 97q34 -11 78.5 -7t86.5 21t74.5 45t42.5 64q-8 63 -11 120.5t-9 113.5q-27 37 -69.5 54t-88.5 13.5t-88.5 -27t-68.5 -67.5q-21 -36 -33 -86t-8.5 -99t25.5 -89t69 -56zM348 740q-11 14 -26.5 16.5t-29 -2.5
t-20.5 -17t1 -28q8 -15 23.5 -16.5t30 5.5t22 18.5t-0.5 23.5zM391 761q13 -24 9 -44.5t-18.5 -36.5t-36 -25.5t-44 -9.5t-42.5 10t-32 34q-17 36 -0.5 64.5t46.5 42t64.5 6.5t53.5 -41z" />
    <glyph glyph-name="atilde" unicode="&#xe3;" horiz-adv-x="625" 
d="M178 21q-45 14 -75.5 43t-48 67.5t-23 82.5t-1 88t18 85t34.5 74q69 108 161.5 135.5t201.5 -13.5q-3 25 9.5 37.5t28.5 14t31 -8t17 -28.5q5 -39 10 -87.5t10 -100t10.5 -104t11 -100.5t11.5 -89t13 -70q5 -20 -5 -34t-25 -18t-30 3.5t-20 31.5l-17 73
q-24 -29 -62 -50.5t-82.5 -33t-91.5 -11.5t-87 13zM205 97q34 -11 78.5 -7t86.5 21t74.5 45t42.5 64q-8 63 -11 120.5t-9 113.5q-27 37 -69.5 54t-88.5 13.5t-88.5 -27t-68.5 -67.5q-21 -36 -33 -86t-8.5 -99t25.5 -89t69 -56zM120 662q-6 -17 -19.5 -18.5t-26 5t-20 18.5
t-2.5 23q12 25 26 49t32.5 44t42.5 35t56 21q46 9 77 -6t54 -37t41 -43t36 -25q15 -3 28.5 3.5t24.5 18t21 26.5t19 30q6 9 18.5 10t24.5 -3.5t20.5 -14t5.5 -20.5q-7 -27 -25.5 -51t-41.5 -41.5t-47.5 -27.5t-43.5 -10q-23 -1 -41.5 9t-34.5 25t-31 32t-30 30.5t-32 21
t-37 3.5q-8 -2 -19.5 -7.5t-24.5 -17.5t-26.5 -32t-24.5 -50z" />
    <glyph glyph-name="ae" unicode="&#xe6;" horiz-adv-x="887" 
d="M582 -5q-45 -3 -82 6t-66 27q-56 -27 -122.5 -33.5t-123.5 11.5q-45 14 -75 43t-47.5 67t-22.5 82t-0.5 88t17.5 85.5t33 74.5q61 100 158 130.5t221 -6.5q46 24 107 30q44 4 84.5 -11.5t73.5 -41.5t55.5 -58t31.5 -62q4 -14 8.5 -30t3.5 -31t-10.5 -28t-34.5 -20
q-42 -12 -91.5 -21.5t-101 -17t-102 -14.5t-93.5 -15q5 -92 51 -137.5t130 -37.5q21 2 49.5 7.5t57 17t54.5 29.5t44 46q11 17 28 19.5t31 -5.5t20 -24t-5 -37q-18 -33 -52 -57.5t-73.5 -40.5t-81 -24.5t-74.5 -10.5zM215 82q32 -11 72.5 -8t80.5 17q-23 32 -35 70.5
t-14 78.5q-4 78 13.5 144t55.5 114q-30 9 -62 8t-62.5 -12t-57 -31.5t-44.5 -50.5q-21 -36 -33 -86t-8.5 -99t25.5 -89t69 -56zM407 339q5 -3 32 -1t64 7t79.5 12.5t79 14.5t61.5 13t29 8q-10 35 -29.5 60.5t-43.5 41t-50 22t-48 3.5q-78 -11 -124 -60t-50 -121z" />
    <glyph glyph-name="cacute" unicode="&#x107;" horiz-adv-x="569" 
d="M371 18q-48 -20 -100.5 -18.5t-100 24.5t-84.5 67t-54 109q-13 48 -13 101t13 103t39 95.5t65 78.5q40 35 92.5 43.5t103.5 -4t94 -44t66 -76.5q8 -17 2 -32t-18.5 -23t-28.5 -7.5t-27 15.5q-32 42 -64.5 62.5t-61.5 26t-52.5 -0.5t-38.5 -16q-33 -24 -55 -57.5
t-33.5 -72t-11.5 -80.5t11 -82q11 -44 32 -75.5t50.5 -49.5t65.5 -22t76 7q40 15 74 45t65 74q13 19 29 18.5t28 -11t15.5 -28t-8.5 -33.5q-29 -38 -50 -60.5t-39.5 -36t-37 -22t-43.5 -18.5zM273 663q-12 -12 -27.5 -11t-26.5 10t-14.5 23.5t10.5 29.5l76 84q16 18 33 18.5
t28 -9.5t13.5 -26t-10.5 -32z" />
    <glyph glyph-name="ccaron" unicode="&#x10d;" horiz-adv-x="569" 
d="M371 18q-48 -20 -100.5 -18.5t-100 24.5t-84.5 67t-54 109q-13 48 -13 101t13 103t39 95.5t65 78.5q40 35 92.5 43.5t103.5 -4t94 -44t66 -76.5q8 -17 2 -32t-18.5 -23t-28.5 -7.5t-27 15.5q-32 42 -64.5 62.5t-61.5 26t-52.5 -0.5t-38.5 -16q-33 -24 -55 -57.5
t-33.5 -72t-11.5 -80.5t11 -82q11 -44 32 -75.5t50.5 -49.5t65.5 -22t76 7q40 15 74 45t65 74q13 19 29 18.5t28 -11t15.5 -28t-8.5 -33.5q-29 -38 -50 -60.5t-39.5 -36t-37 -22t-43.5 -18.5zM314 661q-3 -8 -11.5 -11.5t-18 -3.5t-18 3.5t-11.5 11.5l-62 108q-6 13 1 22.5
t18.5 13.5t24 2.5t16.5 -9.5l32 -53l30 56q4 8 16.5 9t24 -3.5t18.5 -14t1 -22.5z" />
    <glyph glyph-name="ccedilla" unicode="&#xe7;" horiz-adv-x="569" 
d="M371 18q-48 -20 -99 -18q-1 -5 -1 -10.5v-13.5q24 1 49 -3.5t45.5 -16t33.5 -30.5t13 -46q0 -31 -13 -50t-32 -30t-40 -15t-37 -5q-21 -1 -41 5.5t-36.5 18t-28.5 25.5t-16 27q-4 12 3 22.5t17.5 16t20.5 4.5t13 -11q6 -22 26 -36.5t45 -13.5q26 1 41.5 9t15.5 31
q0 17 -12.5 26.5t-29 14t-33 5.5t-25.5 0q-7 -1 -15 2t-14 9.5t-9.5 16t-1.5 22.5q2 10 2.5 18t1.5 15q-31 8 -59.5 24.5t-52.5 40.5t-42 56t-28 72q-13 48 -13 101t13 103t39 95.5t65 78.5q40 35 92.5 43.5t103.5 -4t94 -44t66 -76.5q8 -17 2 -32t-18.5 -23t-28.5 -7.5
t-27 15.5q-32 42 -64.5 62.5t-61.5 26t-52.5 -0.5t-38.5 -16q-33 -24 -55 -57.5t-33.5 -72t-11.5 -80.5t11 -82q11 -44 32 -75.5t50.5 -49.5t65.5 -22t76 7q40 15 74 45t65 74q13 19 29 18.5t28 -11t15.5 -28t-8.5 -33.5q-29 -38 -50 -60.5t-39.5 -36t-37 -22t-43.5 -18.5z
" />
    <glyph glyph-name="ccircumflex" unicode="&#x109;" horiz-adv-x="569" 
d="M371 18q-48 -20 -100.5 -18.5t-100 24.5t-84.5 67t-54 109q-13 48 -13 101t13 103t39 95.5t65 78.5q40 35 92.5 43.5t103.5 -4t94 -44t66 -76.5q8 -17 2 -32t-18.5 -23t-28.5 -7.5t-27 15.5q-32 42 -64.5 62.5t-61.5 26t-52.5 -0.5t-38.5 -16q-33 -24 -55 -57.5
t-33.5 -72t-11.5 -80.5t11 -82q11 -44 32 -75.5t50.5 -49.5t65.5 -22t76 7q40 15 74 45t65 74q13 19 29 18.5t28 -11t15.5 -28t-8.5 -33.5q-29 -38 -50 -60.5t-39.5 -36t-37 -22t-43.5 -18.5zM254 809q3 7 11.5 11t18 4t18 -3.5t11.5 -11.5l62 -108q6 -13 -1 -22.5
t-18.5 -13.5t-24 -2.5t-16.5 9.5l-32 53l-30 -56q-4 -8 -16.5 -9t-24 3.5t-18.5 14t-1 22.5z" />
    <glyph glyph-name="cdotaccent" unicode="&#x10b;" horiz-adv-x="569" 
d="M371 18q-48 -20 -100.5 -18.5t-100 24.5t-84.5 67t-54 109q-13 48 -13 101t13 103t39 95.5t65 78.5q40 35 92.5 43.5t103.5 -4t94 -44t66 -76.5q8 -17 2 -32t-18.5 -23t-28.5 -7.5t-27 15.5q-32 42 -64.5 62.5t-61.5 26t-52.5 -0.5t-38.5 -16q-33 -24 -55 -57.5
t-33.5 -72t-11.5 -80.5t11 -82q11 -44 32 -75.5t50.5 -49.5t65.5 -22t76 7q40 15 74 45t65 74q13 19 29 18.5t28 -11t15.5 -28t-8.5 -33.5q-29 -38 -50 -60.5t-39.5 -36t-37 -22t-43.5 -18.5zM330 720q10 -15 0.5 -31t-27 -25t-37.5 -7t-30 22q-10 21 -1.5 36.5t25.5 23
t37 3.5t33 -22z" />
    <glyph glyph-name="dcaron" unicode="&#x10f;" horiz-adv-x="757" 
d="M488 70q-50 -44 -104 -59t-113 -18q-70 -4 -118.5 16t-78 58t-42 91t-10.5 115q3 89 44.5 155t106.5 99.5t145 30t160 -53.5q5 78 -2 154t-12 158q-1 18 11.5 25.5t28.5 6.5t29.5 -8.5t14.5 -19.5q2 -21 4 -78.5t4.5 -133t5.5 -162.5t6.5 -167.5t7.5 -147t8 -102.5
q2 -20 -11 -31t-30.5 -13t-32.5 6t-17 27zM101 276q-2 -37 3 -73.5t20 -66t42.5 -49.5t70.5 -24q31 -3 70 3.5t75.5 23t65.5 42t40 61.5q2 51 -2 101.5t-8 101.5q-33 36 -73 55t-81 22.5t-80 -8t-69.5 -37t-50.5 -64t-23 -88.5zM688 445q-9 -20 -27.5 -22t-34.5 7t-23.5 26
t5.5 34q10 14 20 32.5t12 40.5t-6.5 47t-33.5 52q-10 10 -4 23.5t19.5 22t30 9t28.5 -14.5q83 -106 14 -257z" />
    <glyph glyph-name="dcroat" unicode="&#x111;" horiz-adv-x="604" 
d="M555 641q2 -51 4 -109t4 -118t4.5 -118t5 -109t5.5 -92t6 -66q2 -20 -11 -31t-30.5 -13t-32.5 6t-17 27l-5 52q-50 -44 -104 -59t-113 -18q-70 -4 -118.5 16t-78 58t-42 91t-10.5 115q3 89 44.5 155t106.5 99.5t145 30t160 -53.5q2 34 1.5 68t-2.5 68l-109 2
q-18 -1 -25 11.5t-5.5 28.5t9.5 29.5t20 14.5h103q-2 23 -3 45t-3 45q-1 18 11.5 25.5t28.5 6.5t29.5 -8.5t14.5 -19.5t2 -35.5t2 -54.5l33 3q20 1 31 -12.5t12.5 -30.5t-7 -32.5t-27.5 -16.5h-39zM101 276q-2 -37 3 -73.5t20 -66t42.5 -49.5t70.5 -24q31 -3 70 3.5t75.5 23
t65.5 42t40 61.5q2 51 -2 101.5t-8 101.5q-33 36 -73 55t-81 22.5t-80 -8t-69.5 -37t-50.5 -64t-23 -88.5z" />
    <glyph glyph-name="eacute" unicode="&#xe9;" horiz-adv-x="588" 
d="M283 -5q-65 -4 -113.5 16t-81 55t-49.5 81t-19 93q-3 73 12.5 136.5t48.5 111t83 77t116 35.5q44 4 84.5 -11.5t73.5 -41.5t55.5 -58t31.5 -62q4 -14 8.5 -30t3.5 -31t-10.5 -28t-34.5 -20q-42 -12 -91.5 -21.5t-101 -17t-102 -14.5t-93.5 -15q5 -92 51 -137.5t130 -37.5
q21 2 49.5 7.5t57 17t54.5 29.5t44 46q11 17 28 19.5t31 -5.5t20 -24t-5 -37q-18 -33 -52 -57.5t-73.5 -40.5t-81 -24.5t-74.5 -10.5zM108 339q5 -3 32 -1t64 7t79.5 12.5t79 14.5t61.5 13t29 8q-10 35 -29.5 60.5t-43.5 41t-50 22t-48 3.5q-78 -11 -124 -60t-50 -121z
M283 663q-12 -12 -27.5 -11t-26.5 10t-14.5 23.5t10.5 29.5l76 84q16 18 33 18.5t28 -9.5t13.5 -26t-10.5 -32z" />
    <glyph glyph-name="ebreve" unicode="&#x115;" horiz-adv-x="588" 
d="M283 -5q-65 -4 -113.5 16t-81 55t-49.5 81t-19 93q-3 73 12.5 136.5t48.5 111t83 77t116 35.5q44 4 84.5 -11.5t73.5 -41.5t55.5 -58t31.5 -62q4 -14 8.5 -30t3.5 -31t-10.5 -28t-34.5 -20q-42 -12 -91.5 -21.5t-101 -17t-102 -14.5t-93.5 -15q5 -92 51 -137.5t130 -37.5
q21 2 49.5 7.5t57 17t54.5 29.5t44 46q11 17 28 19.5t31 -5.5t20 -24t-5 -37q-18 -33 -52 -57.5t-73.5 -40.5t-81 -24.5t-74.5 -10.5zM108 339q5 -3 32 -1t64 7t79.5 12.5t79 14.5t61.5 13t29 8q-10 35 -29.5 60.5t-43.5 41t-50 22t-48 3.5q-78 -11 -124 -60t-50 -121z
M156 784q-1 15 9 24t22.5 10t23 -7t11.5 -27q1 -20 7.5 -32.5t16.5 -20t22 -10t24 -2.5q25 1 48 17.5t26 60.5q1 13 11.5 19t23 5t22.5 -10t9 -27q-2 -34 -15 -58t-33.5 -40t-45.5 -23.5t-50 -7.5q-24 0 -47 6.5t-41 21.5t-30 40t-14 61z" />
    <glyph glyph-name="ecaron" unicode="&#x11b;" horiz-adv-x="588" 
d="M283 -5q-65 -4 -113.5 16t-81 55t-49.5 81t-19 93q-3 73 12.5 136.5t48.5 111t83 77t116 35.5q44 4 84.5 -11.5t73.5 -41.5t55.5 -58t31.5 -62q4 -14 8.5 -30t3.5 -31t-10.5 -28t-34.5 -20q-42 -12 -91.5 -21.5t-101 -17t-102 -14.5t-93.5 -15q5 -92 51 -137.5t130 -37.5
q21 2 49.5 7.5t57 17t54.5 29.5t44 46q11 17 28 19.5t31 -5.5t20 -24t-5 -37q-18 -33 -52 -57.5t-73.5 -40.5t-81 -24.5t-74.5 -10.5zM108 339q5 -3 32 -1t64 7t79.5 12.5t79 14.5t61.5 13t29 8q-10 35 -29.5 60.5t-43.5 41t-50 22t-48 3.5q-78 -11 -124 -60t-50 -121z
M324 661q-3 -8 -11.5 -11.5t-18 -3.5t-18 3.5t-11.5 11.5l-62 108q-6 13 1 22.5t18.5 13.5t24 2.5t16.5 -9.5l32 -53l30 56q4 8 16.5 9t24 -3.5t18.5 -14t1 -22.5z" />
    <glyph glyph-name="ecircumflex" unicode="&#xea;" horiz-adv-x="588" 
d="M283 -5q-65 -4 -113.5 16t-81 55t-49.5 81t-19 93q-3 73 12.5 136.5t48.5 111t83 77t116 35.5q44 4 84.5 -11.5t73.5 -41.5t55.5 -58t31.5 -62q4 -14 8.5 -30t3.5 -31t-10.5 -28t-34.5 -20q-42 -12 -91.5 -21.5t-101 -17t-102 -14.5t-93.5 -15q5 -92 51 -137.5t130 -37.5
q21 2 49.5 7.5t57 17t54.5 29.5t44 46q11 17 28 19.5t31 -5.5t20 -24t-5 -37q-18 -33 -52 -57.5t-73.5 -40.5t-81 -24.5t-74.5 -10.5zM108 339q5 -3 32 -1t64 7t79.5 12.5t79 14.5t61.5 13t29 8q-10 35 -29.5 60.5t-43.5 41t-50 22t-48 3.5q-78 -11 -124 -60t-50 -121z
M264 809q3 7 11.5 11t18 4t18 -3.5t11.5 -11.5l62 -108q6 -13 -1 -22.5t-18.5 -13.5t-24 -2.5t-16.5 9.5l-32 53l-30 -56q-4 -8 -16.5 -9t-24 3.5t-18.5 14t-1 22.5z" />
    <glyph glyph-name="edieresis" unicode="&#xeb;" horiz-adv-x="588" 
d="M283 -5q-65 -4 -113.5 16t-81 55t-49.5 81t-19 93q-3 73 12.5 136.5t48.5 111t83 77t116 35.5q44 4 84.5 -11.5t73.5 -41.5t55.5 -58t31.5 -62q4 -14 8.5 -30t3.5 -31t-10.5 -28t-34.5 -20q-42 -12 -91.5 -21.5t-101 -17t-102 -14.5t-93.5 -15q5 -92 51 -137.5t130 -37.5
q21 2 49.5 7.5t57 17t54.5 29.5t44 46q11 17 28 19.5t31 -5.5t20 -24t-5 -37q-18 -33 -52 -57.5t-73.5 -40.5t-81 -24.5t-74.5 -10.5zM108 339q5 -3 32 -1t64 7t79.5 12.5t79 14.5t61.5 13t29 8q-10 35 -29.5 60.5t-43.5 41t-50 22t-48 3.5q-78 -11 -124 -60t-50 -121z
M258 720q10 -15 0.5 -31t-27 -25t-37.5 -7t-30 22q-10 21 -1.5 36.5t25.5 23t37 3.5t33 -22zM422 726q10 -15 0.5 -31t-27 -25t-37.5 -7t-30 22q-10 21 -1.5 36.5t25.5 23t37 3.5t33 -22z" />
    <glyph glyph-name="edotaccent" unicode="&#x117;" horiz-adv-x="588" 
d="M283 -5q-65 -4 -113.5 16t-81 55t-49.5 81t-19 93q-3 73 12.5 136.5t48.5 111t83 77t116 35.5q44 4 84.5 -11.5t73.5 -41.5t55.5 -58t31.5 -62q4 -14 8.5 -30t3.5 -31t-10.5 -28t-34.5 -20q-42 -12 -91.5 -21.5t-101 -17t-102 -14.5t-93.5 -15q5 -92 51 -137.5t130 -37.5
q21 2 49.5 7.5t57 17t54.5 29.5t44 46q11 17 28 19.5t31 -5.5t20 -24t-5 -37q-18 -33 -52 -57.5t-73.5 -40.5t-81 -24.5t-74.5 -10.5zM108 339q5 -3 32 -1t64 7t79.5 12.5t79 14.5t61.5 13t29 8q-10 35 -29.5 60.5t-43.5 41t-50 22t-48 3.5q-78 -11 -124 -60t-50 -121z
M340 720q10 -15 0.5 -31t-27 -25t-37.5 -7t-30 22q-10 21 -1.5 36.5t25.5 23t37 3.5t33 -22z" />
    <glyph glyph-name="egrave" unicode="&#xe8;" horiz-adv-x="588" 
d="M283 -5q-65 -4 -113.5 16t-81 55t-49.5 81t-19 93q-3 73 12.5 136.5t48.5 111t83 77t116 35.5q44 4 84.5 -11.5t73.5 -41.5t55.5 -58t31.5 -62q4 -14 8.5 -30t3.5 -31t-10.5 -28t-34.5 -20q-42 -12 -91.5 -21.5t-101 -17t-102 -14.5t-93.5 -15q5 -92 51 -137.5t130 -37.5
q21 2 49.5 7.5t57 17t54.5 29.5t44 46q11 17 28 19.5t31 -5.5t20 -24t-5 -37q-18 -33 -52 -57.5t-73.5 -40.5t-81 -24.5t-74.5 -10.5zM108 339q5 -3 32 -1t64 7t79.5 12.5t79 14.5t61.5 13t29 8q-10 35 -29.5 60.5t-43.5 41t-50 22t-48 3.5q-78 -11 -124 -60t-50 -121z
M223 750q-13 16 -10.5 32t13.5 26t28 9.5t33 -18.5l76 -84q13 -15 10 -29.5t-14 -23.5t-26.5 -10t-27.5 11z" />
    <glyph glyph-name="emacron" unicode="&#x113;" horiz-adv-x="588" 
d="M283 -5q-65 -4 -113.5 16t-81 55t-49.5 81t-19 93q-3 73 12.5 136.5t48.5 111t83 77t116 35.5q44 4 84.5 -11.5t73.5 -41.5t55.5 -58t31.5 -62q4 -14 8.5 -30t3.5 -31t-10.5 -28t-34.5 -20q-42 -12 -91.5 -21.5t-101 -17t-102 -14.5t-93.5 -15q5 -92 51 -137.5t130 -37.5
q21 2 49.5 7.5t57 17t54.5 29.5t44 46q11 17 28 19.5t31 -5.5t20 -24t-5 -37q-18 -33 -52 -57.5t-73.5 -40.5t-81 -24.5t-74.5 -10.5zM108 339q5 -3 32 -1t64 7t79.5 12.5t79 14.5t61.5 13t29 8q-10 35 -29.5 60.5t-43.5 41t-50 22t-48 3.5q-78 -11 -124 -60t-50 -121z
M97 650q-18 -1 -25 12t-5.5 29t9.5 29.5t20 13.5q32 1 76 1h94t104.5 1.5t108.5 6.5q20 1 31 -12.5t12.5 -30.5t-7 -32.5t-27.5 -16.5z" />
    <glyph glyph-name="eogonek" unicode="&#x119;" horiz-adv-x="588" 
d="M283 -5q-65 -4 -113.5 16t-81 55t-49.5 81t-19 93q-3 73 12.5 136.5t48.5 111t83 77t116 35.5q44 4 84.5 -11.5t73.5 -41.5t55.5 -58t31.5 -62q4 -14 8.5 -30t3.5 -31t-10.5 -28t-34.5 -20q-42 -12 -91.5 -21.5t-101 -17t-102 -14.5t-93.5 -15q5 -92 51 -137.5t130 -37.5
q21 2 49.5 7.5t57 17t54.5 29.5t44 46q11 17 28 19.5t31 -5.5t20 -24t-5 -37q-15 -26 -39.5 -47t-53.5 -36q-6 -18 -5 -33q1 -25 17.5 -48t60.5 -26q13 -1 19 -11.5t5 -23t-10 -22.5t-27 -9q-34 1 -58 14.5t-40 34t-23.5 45.5t-7.5 50v1q-32 -10 -62.5 -15t-56.5 -7z
M108 339q5 -3 32 -1t64 7t79.5 12.5t79 14.5t61.5 13t29 8q-10 35 -29.5 60.5t-43.5 41t-50 22t-48 3.5q-78 -11 -124 -60t-50 -121z" />
    <glyph glyph-name="gbreve" unicode="&#x11f;" horiz-adv-x="569" 
d="M366 21q-48 -20 -100 -19t-98.5 23.5t-82.5 66t-53 108.5q-16 61 -8 121t34 111.5t67 90t92 55.5t108 9t115 -50q0 9 -0.5 10.5t-1 2t-1 2.5t-0.5 12q-1 20 12.5 28.5t30 7.5t30.5 -9t14 -20q1 -90 3 -166.5t3.5 -146t1.5 -136.5t-1 -139q-1 -58 -20 -101.5t-51 -72.5
t-76 -42.5t-96 -10.5q-31 1 -65.5 8t-67.5 26.5t-62 55t-49 94.5q-6 18 3 30t22.5 17t27.5 1.5t19 -15.5q18 -51 44.5 -80t54.5 -43t54 -17t43 -3q42 1 68.5 22t42 51.5t21.5 63.5t6 58l-1 44q-18 -13 -38.5 -25.5t-44.5 -22.5zM450 175q0 47 -0.5 109.5t-3.5 133.5
q-1 0 -1 1q-42 51 -87 69t-87 11.5t-77.5 -33t-59 -65t-32 -84.5t3.5 -92q12 -44 34.5 -75t53.5 -49t67.5 -21t76.5 10q32 11 59 33t53 52zM146 784q-1 15 9 24t22.5 10t23 -7t11.5 -27q1 -20 7.5 -32.5t16.5 -20t22 -10t24 -2.5q25 1 48 17.5t26 60.5q1 13 11.5 19t23 5
t22.5 -10t9 -27q-2 -34 -15 -58t-33.5 -40t-45.5 -23.5t-50 -7.5q-24 0 -47 6.5t-41 21.5t-30 40t-14 61z" />
    <glyph glyph-name="gcircumflex" unicode="&#x11d;" horiz-adv-x="569" 
d="M366 21q-48 -20 -100 -19t-98.5 23.5t-82.5 66t-53 108.5q-16 61 -8 121t34 111.5t67 90t92 55.5t108 9t115 -50q0 9 -0.5 10.5t-1 2t-1 2.5t-0.5 12q-1 20 12.5 28.5t30 7.5t30.5 -9t14 -20q1 -90 3 -166.5t3.5 -146t1.5 -136.5t-1 -139q-1 -58 -20 -101.5t-51 -72.5
t-76 -42.5t-96 -10.5q-31 1 -65.5 8t-67.5 26.5t-62 55t-49 94.5q-6 18 3 30t22.5 17t27.5 1.5t19 -15.5q18 -51 44.5 -80t54.5 -43t54 -17t43 -3q42 1 68.5 22t42 51.5t21.5 63.5t6 58l-1 44q-18 -13 -38.5 -25.5t-44.5 -22.5zM450 175q0 47 -0.5 109.5t-3.5 133.5
q-1 0 -1 1q-42 51 -87 69t-87 11.5t-77.5 -33t-59 -65t-32 -84.5t3.5 -92q12 -44 34.5 -75t53.5 -49t67.5 -21t76.5 10q32 11 59 33t53 52zM254 809q3 7 11.5 11t18 4t18 -3.5t11.5 -11.5l62 -108q6 -13 -1 -22.5t-18.5 -13.5t-24 -2.5t-16.5 9.5l-32 53l-30 -56
q-4 -8 -16.5 -9t-24 3.5t-18.5 14t-1 22.5z" />
    <glyph glyph-name="gcommaaccent" unicode="&#x123;" horiz-adv-x="569" 
d="M366 21q-48 -20 -100 -19t-98.5 23.5t-82.5 66t-53 108.5q-16 61 -8 121t34 111.5t67 90t92 55.5t108 9t115 -50q0 9 -0.5 10.5t-1 2t-1 2.5t-0.5 12q-1 20 12.5 28.5t30 7.5t30.5 -9t14 -20q1 -90 3 -166.5t3.5 -146t1.5 -136.5t-1 -139q-1 -58 -20 -101.5t-51 -72.5
t-76 -42.5t-96 -10.5q-31 1 -65.5 8t-67.5 26.5t-62 55t-49 94.5q-6 18 3 30t22.5 17t27.5 1.5t19 -15.5q18 -51 44.5 -80t54.5 -43t54 -17t43 -3q42 1 68.5 22t42 51.5t21.5 63.5t6 58l-1 44q-18 -13 -38.5 -25.5t-44.5 -22.5zM450 175q0 47 -0.5 109.5t-3.5 133.5
q-1 0 -1 1q-42 51 -87 69t-87 11.5t-77.5 -33t-59 -65t-32 -84.5t3.5 -92q12 -44 34.5 -75t53.5 -49t67.5 -21t76.5 10q32 11 59 33t53 52zM251.501 871.865q8.5498 16.3428 26.125 17.9775q17.5752 1.63379 32.7754 -5.71973q15.2002 -7.35449 22.3252 -21.2461
t-5.22461 -27.7832q-10.4502 -11.4395 -19.4756 -26.5566q-9.02441 -15.1172 -10.9248 -33.0938q-1.90039 -17.9775 5.7002 -38.4062q7.59961 -20.4277 32.2998 -42.4902q9.5 -8.98926 3.80078 -19.6113q-5.7002 -10.623 -18.5254 -17.5693
q-12.8252 -6.94531 -28.501 -7.35352q-15.6748 -0.40918 -27.0752 11.8486q-78.8506 86.6162 -13.2998 210.004z" />
    <glyph glyph-name="gdotaccent" unicode="&#x121;" horiz-adv-x="569" 
d="M366 21q-48 -20 -100 -19t-98.5 23.5t-82.5 66t-53 108.5q-16 61 -8 121t34 111.5t67 90t92 55.5t108 9t115 -50q0 9 -0.5 10.5t-1 2t-1 2.5t-0.5 12q-1 20 12.5 28.5t30 7.5t30.5 -9t14 -20q1 -90 3 -166.5t3.5 -146t1.5 -136.5t-1 -139q-1 -58 -20 -101.5t-51 -72.5
t-76 -42.5t-96 -10.5q-31 1 -65.5 8t-67.5 26.5t-62 55t-49 94.5q-6 18 3 30t22.5 17t27.5 1.5t19 -15.5q18 -51 44.5 -80t54.5 -43t54 -17t43 -3q42 1 68.5 22t42 51.5t21.5 63.5t6 58l-1 44q-18 -13 -38.5 -25.5t-44.5 -22.5zM450 175q0 47 -0.5 109.5t-3.5 133.5
q-1 0 -1 1q-42 51 -87 69t-87 11.5t-77.5 -33t-59 -65t-32 -84.5t3.5 -92q12 -44 34.5 -75t53.5 -49t67.5 -21t76.5 10q32 11 59 33t53 52zM330 720q10 -15 0.5 -31t-27 -25t-37.5 -7t-30 22q-10 21 -1.5 36.5t25.5 23t37 3.5t33 -22z" />
    <glyph glyph-name="hbar" unicode="&#x127;" horiz-adv-x="604" 
d="M107 664q2 -32 4.5 -66t5.5 -70q52 37 107.5 62t111.5 24q66 -2 110.5 -27t71.5 -66t40 -93.5t16 -108.5q3 -42 3 -84t-1 -80t-3 -70.5t-4 -54.5q-3 -20 -19 -27t-33 -4t-29.5 16t-7.5 34q4 20 7.5 48.5t5 62.5t1 72.5t-2.5 79.5q-3 44 -13 84.5t-30.5 70.5t-52.5 46.5
t-77 13.5q-27 -2 -55 -12.5t-53.5 -26.5t-47.5 -36t-37 -41q4 -58 9 -114.5t9.5 -106t8.5 -89t8 -63.5q3 -20 -9.5 -31.5t-29 -14t-31.5 5t-17 26.5l-47 640h-51q-18 -1 -25 12t-5.5 29t9.5 29.5t20 13.5q11 0 22 0.5t24 0.5l-5 71q-2 18 9.5 26t26.5 8t28.5 -6.5
t14.5 -18.5q1 -11 3 -32t4 -48l168 12q20 1 31 -12.5t12.5 -30.5t-7 -32.5t-27.5 -16.5z" />
    <glyph glyph-name="hcircumflex" unicode="&#x125;" horiz-adv-x="604" 
d="M15 820q-2 18 9.5 26t26.5 8t28.5 -6.5t14.5 -18.5q1 -14 3.5 -43t5.5 -69t6.5 -88.5t7.5 -100.5q52 37 107.5 62t111.5 24q66 -2 110.5 -27t71.5 -66t40 -93.5t16 -108.5q3 -42 3 -84t-1 -80t-3 -70.5t-4 -54.5q-3 -20 -19 -27t-33 -4t-29.5 16t-7.5 34q4 20 7.5 48.5
t5 62.5t1 72.5t-2.5 79.5q-3 44 -13 84.5t-30.5 70.5t-52.5 46.5t-77 13.5q-27 -2 -55 -12.5t-53.5 -26.5t-47.5 -36t-37 -41q4 -58 9 -114.5t9.5 -106t8.5 -89t8 -63.5q3 -20 -9.5 -31.5t-29 -14t-31.5 5t-17 26.5zM284 953q3 7 11.5 11t18 4t18 -3.5t11.5 -11.5l62 -108
q6 -13 -1 -22.5t-18.5 -13.5t-24 -2.5t-16.5 9.5l-32 53l-30 -56q-4 -8 -16.5 -9t-24 3.5t-18.5 14t-1 22.5z" />
    <glyph glyph-name="iacute" unicode="&#xed;" horiz-adv-x="156" 
d="M29 596q-1 18 11.5 25.5t28.5 6.5t29.5 -8.5t14.5 -19.5q2 -21 3.5 -61.5t3 -92t3.5 -109t4.5 -113t6 -105.5t7.5 -86q2 -20 -11 -31t-30.5 -13t-32.5 6t-17 27zM68 663q-12 -12 -27.5 -11t-26.5 10t-14.5 23.5t10.5 29.5l76 84q16 18 33 18.5t28 -9.5t13.5 -26
t-10.5 -32z" />
    <glyph glyph-name="ibreve" unicode="&#x12d;" horiz-adv-x="156" 
d="M29 596q-1 18 11.5 25.5t28.5 6.5t29.5 -8.5t14.5 -19.5q2 -21 3.5 -61.5t3 -92t3.5 -109t4.5 -113t6 -105.5t7.5 -86q2 -20 -11 -31t-30.5 -13t-32.5 6t-17 27zM-59 784q-1 15 9 24t22.5 10t23 -7t11.5 -27q1 -20 7.5 -32.5t16.5 -20t22 -10t24 -2.5q25 1 48 17.5
t26 60.5q1 13 11.5 19t23 5t22.5 -10t9 -27q-2 -34 -15 -58t-33.5 -40t-45.5 -23.5t-50 -7.5q-24 0 -47 6.5t-41 21.5t-30 40t-14 61z" />
    <glyph glyph-name="icircumflex" unicode="&#xee;" horiz-adv-x="156" 
d="M29 596q-1 18 11.5 25.5t28.5 6.5t29.5 -8.5t14.5 -19.5q2 -21 3.5 -61.5t3 -92t3.5 -109t4.5 -113t6 -105.5t7.5 -86q2 -20 -11 -31t-30.5 -13t-32.5 6t-17 27zM49 809q3 7 11.5 11t18 4t18 -3.5t11.5 -11.5l62 -108q6 -13 -1 -22.5t-18.5 -13.5t-24 -2.5t-16.5 9.5
l-32 53l-30 -56q-4 -8 -16.5 -9t-24 3.5t-18.5 14t-1 22.5z" />
    <glyph glyph-name="idieresis" unicode="&#xef;" horiz-adv-x="156" 
d="M29 596q-1 18 11.5 25.5t28.5 6.5t29.5 -8.5t14.5 -19.5q2 -21 3.5 -61.5t3 -92t3.5 -109t4.5 -113t6 -105.5t7.5 -86q2 -20 -11 -31t-30.5 -13t-32.5 6t-17 27zM43 720q10 -15 0.5 -31t-27 -25t-37.5 -7t-30 22q-10 21 -1.5 36.5t25.5 23t37 3.5t33 -22zM207 726
q10 -15 0.5 -31t-27 -25t-37.5 -7t-30 22q-10 21 -1.5 36.5t25.5 23t37 3.5t33 -22z" />
    <glyph glyph-name="igrave" unicode="&#xec;" horiz-adv-x="156" 
d="M29 596q-1 18 11.5 25.5t28.5 6.5t29.5 -8.5t14.5 -19.5q2 -21 3.5 -61.5t3 -92t3.5 -109t4.5 -113t6 -105.5t7.5 -86q2 -20 -11 -31t-30.5 -13t-32.5 6t-17 27zM8 750q-13 16 -10.5 32t13.5 26t28 9.5t33 -18.5l76 -84q13 -15 10 -29.5t-14 -23.5t-26.5 -10t-27.5 11z
" />
    <glyph glyph-name="iogonek" unicode="&#x12f;" horiz-adv-x="156" 
d="M29 596q-1 18 11.5 25.5t28.5 6.5t29.5 -8.5t14.5 -19.5q2 -21 3.5 -61.5t3 -92t3.5 -109t4.5 -113t6 -105.5t7.5 -86q2 -17 -8 -27t-24 -15q-8 -17 -6 -37q1 -25 17.5 -48t60.5 -26q13 -1 19 -11.5t5 -23t-10 -22.5t-27 -9q-34 1 -58 14.5t-40 34t-23.5 45.5t-7.5 50
q-1 31 11 61v3zM116 744q10 -15 0.5 -31t-27 -25t-37.5 -7t-30 22q-10 21 -1.5 36.5t25.5 23t37 3.5t33 -22z" />
    <glyph glyph-name="imacron" unicode="&#x12b;" horiz-adv-x="156" 
d="M29 596q-1 18 11.5 25.5t28.5 6.5t29.5 -8.5t14.5 -19.5q2 -21 3.5 -61.5t3 -92t3.5 -109t4.5 -113t6 -105.5t7.5 -86q2 -20 -11 -31t-30.5 -13t-32.5 6t-17 27zM-117 650q-18 -1 -25 12t-5.5 29t9.5 29.5t20 13.5q32 1 76 1h94t104.5 1.5t108.5 6.5q20 1 31 -12.5
t12.5 -30.5t-7 -32.5t-27.5 -16.5z" />
    <glyph glyph-name="itilde" unicode="&#x129;" horiz-adv-x="156" 
d="M29 596q-1 18 11.5 25.5t28.5 6.5t29.5 -8.5t14.5 -19.5q2 -21 3.5 -61.5t3 -92t3.5 -109t4.5 -113t6 -105.5t7.5 -86q2 -20 -11 -31t-30.5 -13t-32.5 6t-17 27zM-113 662q-6 -17 -19.5 -18.5t-26 5t-20 18.5t-2.5 23q12 25 26 49t32.5 44t42.5 35t56 21q46 9 77 -6
t54 -37t41 -43t36 -25q15 -3 28.5 3.5t24.5 18t21 26.5t19 30q6 9 18.5 10t24.5 -3.5t20.5 -14t5.5 -20.5q-7 -27 -25.5 -51t-41.5 -41.5t-47.5 -27.5t-43.5 -10q-23 -1 -41.5 9t-34.5 25t-31 32t-30 30.5t-32 21t-37 3.5q-8 -2 -19.5 -7.5t-24.5 -17.5t-26.5 -32t-24.5 -50
z" />
    <glyph glyph-name="dotlessj" unicode="&#x237;" horiz-adv-x="187" 
d="M-66 -244q-29 3 -56.5 13t-51.5 29t-42 48.5t-27 70.5q-3 14 7.5 24.5t25 15t28.5 0.5t17 -20q4 -17 12 -35t22.5 -33.5t36 -26.5t52.5 -12q42 -2 65 19.5t34 53.5t13.5 67t2.5 60q0 44 0.5 80.5t0 72.5t-1.5 75t-2.5 87.5t-5 109t-7.5 139.5q-1 20 11.5 28t28 6.5
t28.5 -10t13 -20.5q1 -90 4.5 -170t6.5 -153.5t4.5 -144t0.5 -142.5q-1 -58 -16.5 -103t-44 -75t-69 -44.5t-90.5 -9.5z" />
    <glyph glyph-name="jcircumflex" unicode="&#x135;" horiz-adv-x="187" 
d="M-66 -244q-29 3 -56.5 13t-51.5 29t-42 48.5t-27 70.5q-3 14 7.5 24.5t25 15t28.5 0.5t17 -20q4 -17 12 -35t22.5 -33.5t36 -26.5t52.5 -12q42 -2 65 19.5t34 53.5t13.5 67t2.5 60q0 44 0.5 80.5t0 72.5t-1.5 75t-2.5 87.5t-5 109t-7.5 139.5q-1 20 11.5 28t28 6.5
t28.5 -10t13 -20.5q1 -90 4.5 -170t6.5 -153.5t4.5 -144t0.5 -142.5q-1 -58 -16.5 -103t-44 -75t-69 -44.5t-90.5 -9.5zM65 809q3 7 11.5 11t18 4t18 -3.5t11.5 -11.5l62 -108q6 -13 -1 -22.5t-18.5 -13.5t-24 -2.5t-16.5 9.5l-32 53l-30 -56q-4 -8 -16.5 -9t-24 3.5
t-18.5 14t-1 22.5z" />
    <glyph glyph-name="kcommaaccent" unicode="&#x137;" horiz-adv-x="614" 
d="M523 8q-53 50 -102.5 97t-97.5 87.5t-95.5 73.5t-97.5 57q0 -45 0.5 -88t1.5 -79.5t2 -66.5t3 -49q1 -20 -12.5 -31t-30.5 -13t-32 6t-16 27l-1 798q-1 18 12 25.5t29 6.5t29.5 -8.5t13.5 -19.5q0 -17 0.5 -57.5t0.5 -96t-0.5 -121.5t-0.5 -134q32 16 69.5 39.5t78 52
t82.5 60.5t84 66q15 12 30.5 8.5t26.5 -14t14.5 -24t-5.5 -20.5q-39 -34 -80.5 -65t-81.5 -58t-75 -50t-62 -41q47 -26 103 -68t109 -87t96.5 -87.5t66.5 -67.5q13 -15 8 -29t-18 -23.5t-28.5 -12t-23.5 6.5zM313 -229q-9 -20 -27.5 -22t-34.5 7t-23.5 26t5.5 34
q10 14 20 32.5t12 40.5t-6.5 47t-33.5 52q-10 10 -4 23.5t19.5 22t30 9t28.5 -14.5q83 -106 14 -257z" />
    <glyph glyph-name="lacute" unicode="&#x13a;" horiz-adv-x="197" 
d="M38 827q-1 18 11.5 25.5t28.5 6.5t29.5 -8.5t14.5 -19.5q2 -21 4 -78.5t4.5 -133t5.5 -162.5t6.5 -167.5t7.5 -147t8 -102.5q2 -20 -11 -31t-30.5 -13t-32.5 6t-17 27zM77 891q-12 -12 -27.5 -11t-26.5 10t-14.5 23.5t10.5 29.5l76 84q16 18 33 18.5t28 -9.5t13.5 -26
t-10.5 -32z" />
    <glyph glyph-name="lcaron" unicode="&#x13e;" horiz-adv-x="326" 
d="M38 827q-1 18 11.5 25.5t28.5 6.5t29.5 -8.5t14.5 -19.5q2 -21 4 -78.5t4.5 -133t5.5 -162.5t6.5 -167.5t7.5 -147t8 -102.5q2 -20 -11 -31t-30.5 -13t-32.5 6t-17 27zM255 504q-9 -20 -27.5 -22t-34.5 7t-23.5 26t5.5 34q10 14 20 32.5t12 40.5t-6.5 47t-33.5 52
q-10 10 -4 23.5t19.5 22t30 9t28.5 -14.5q83 -106 14 -257z" />
    <glyph glyph-name="lcommaaccent" unicode="&#x13c;" horiz-adv-x="197" 
d="M141 -227q-8 -15 -24 -16.5t-30 5.5t-20.5 19t4.5 25q9 10 17.5 23.5t10.5 29.5t-5.5 34t-29.5 38q-9 7 -3.5 17t17.5 16t26.5 6.5t24.5 -10.5q73 -78 12 -187zM30 827q-1 18 11.5 25.5t28.5 6.5t29.5 -8.5t14.5 -19.5q2 -21 4 -78.5t4.5 -133t5.5 -162.5t6.5 -167.5
t7.5 -147t8 -102.5q2 -20 -11 -31t-30.5 -13t-32.5 6t-17 27z" />
    <glyph glyph-name="ldot" unicode="&#x140;" horiz-adv-x="304" 
d="M38 827q-1 18 11.5 25.5t28.5 6.5t29.5 -8.5t14.5 -19.5q2 -21 4 -78.5t4.5 -133t5.5 -162.5t6.5 -167.5t7.5 -147t8 -102.5q2 -20 -11 -31t-30.5 -13t-32.5 6t-17 27zM271 436q10 -15 0.5 -31t-27 -25t-37.5 -7t-30 22q-10 21 -1.5 36.5t25.5 23t37 3.5t33 -22z" />
    <glyph glyph-name="lslash" unicode="&#x142;" horiz-adv-x="197" 
d="M59 256l-17 -13q-15 -11 -27.5 -4t-20.5 21t-8.5 29.5t8.5 22.5q23 17 36 27t25 19l-17 469q-1 18 11.5 25.5t28.5 6.5t29.5 -8.5t14.5 -19.5q1 -17 2.5 -57.5t3.5 -96t4.5 -121t4.5 -133.5l10 8t10 9q16 13 29.5 6.5t20.5 -21.5t5.5 -33.5t-16.5 -30.5l-55 -42
q4 -90 8 -165t9 -114q2 -20 -11 -31t-30.5 -13t-32.5 6t-17 27z" />
    <glyph glyph-name="nacute" unicode="&#x144;" horiz-adv-x="566" 
d="M20 595q-2 18 9.5 26.5t26.5 9.5t28 -5.5t14 -18.5l13 -89q45 49 99 79.5t110 29.5q54 2 91.5 -21t62 -64t38 -97.5t20 -123t8.5 -139.5t3 -146q0 -20 -13.5 -30t-30 -10.5t-30 9.5t-13.5 31q1 32 1.5 83t-2.5 109t-11.5 116.5t-25.5 104t-45 72.5t-70 22
q-27 -3 -53.5 -18t-50.5 -35.5t-44.5 -44t-35.5 -44.5q1 -46 2 -97.5t3 -100.5t5.5 -92t8.5 -73q3 -20 -9 -31.5t-28.5 -14t-32 5t-17.5 26.5zM272 663q-12 -12 -27.5 -11t-26.5 10t-14.5 23.5t10.5 29.5l76 84q16 18 33 18.5t28 -9.5t13.5 -26t-10.5 -32z" />
    <glyph glyph-name="napostrophe" unicode="&#x149;" horiz-adv-x="566" 
d="M20 595q-2 18 9.5 26.5t26.5 9.5t28 -5.5t14 -18.5l13 -89q45 49 99 79.5t110 29.5q54 2 91.5 -21t62 -64t38 -97.5t20 -123t8.5 -139.5t3 -146q0 -20 -13.5 -30t-30 -10.5t-30 9.5t-13.5 31q1 32 1.5 83t-2.5 109t-11.5 116.5t-25.5 104t-45 72.5t-70 22
q-27 -3 -53.5 -18t-50.5 -35.5t-44.5 -44t-35.5 -44.5q1 -46 2 -97.5t3 -100.5t5.5 -92t8.5 -73q3 -20 -9 -31.5t-28.5 -14t-32 5t-17.5 26.5zM120.854 665.572q-8.60547 -17.3145 -26.2959 -19.0459t-32.9902 6.05957q-15.2998 7.79199 -22.4717 22.5098
q-7.17188 14.7168 5.25879 29.4336q9.5625 12.1211 19.125 28.1367t11.4746 35.0615q1.91309 19.0459 -6.21582 40.6885q-8.12793 21.6436 -32.0332 45.0176q-9.5625 8.6582 -3.8252 20.3447q5.7373 11.6875 18.6465 19.0459q12.9092 7.35938 28.6875 7.79199
q15.7773 0.432617 27.2529 -12.5537q79.3672 -91.7656 13.3867 -222.49z" />
    <glyph glyph-name="ncaron" unicode="&#x148;" horiz-adv-x="566" 
d="M20 595q-2 18 9.5 26.5t26.5 9.5t28 -5.5t14 -18.5l13 -89q45 49 99 79.5t110 29.5q54 2 91.5 -21t62 -64t38 -97.5t20 -123t8.5 -139.5t3 -146q0 -20 -13.5 -30t-30 -10.5t-30 9.5t-13.5 31q1 32 1.5 83t-2.5 109t-11.5 116.5t-25.5 104t-45 72.5t-70 22
q-27 -3 -53.5 -18t-50.5 -35.5t-44.5 -44t-35.5 -44.5q1 -46 2 -97.5t3 -100.5t5.5 -92t8.5 -73q3 -20 -9 -31.5t-28.5 -14t-32 5t-17.5 26.5zM313 661q-3 -8 -11.5 -11.5t-18 -3.5t-18 3.5t-11.5 11.5l-62 108q-6 13 1 22.5t18.5 13.5t24 2.5t16.5 -9.5l32 -53l30 56
q4 8 16.5 9t24 -3.5t18.5 -14t1 -22.5z" />
    <glyph glyph-name="ncommaaccent" unicode="&#x146;" horiz-adv-x="566" 
d="M20 595q-2 18 9.5 26.5t26.5 9.5t28 -5.5t14 -18.5l13 -89q45 49 99 79.5t110 29.5q54 2 91.5 -21t62 -64t38 -97.5t20 -123t8.5 -139.5t3 -146q0 -20 -13.5 -30t-30 -10.5t-30 9.5t-13.5 31q1 32 1.5 83t-2.5 109t-11.5 116.5t-25.5 104t-45 72.5t-70 22
q-27 -3 -53.5 -18t-50.5 -35.5t-44.5 -44t-35.5 -44.5q1 -46 2 -97.5t3 -100.5t5.5 -92t8.5 -73q3 -20 -9 -31.5t-28.5 -14t-32 5t-17.5 26.5zM335 -211q-9 -20 -27.5 -22t-34.5 7t-23.5 26t5.5 34q10 14 20 32.5t12 40.5t-6.5 47t-33.5 52q-10 10 -4 23.5t19.5 22t30 9
t28.5 -14.5q83 -106 14 -257z" />
    <glyph glyph-name="ntilde" unicode="&#xf1;" horiz-adv-x="566" 
d="M20 595q-2 18 9.5 26.5t26.5 9.5t28 -5.5t14 -18.5l13 -89q45 49 99 79.5t110 29.5q54 2 91.5 -21t62 -64t38 -97.5t20 -123t8.5 -139.5t3 -146q0 -20 -13.5 -30t-30 -10.5t-30 9.5t-13.5 31q1 32 1.5 83t-2.5 109t-11.5 116.5t-25.5 104t-45 72.5t-70 22
q-27 -3 -53.5 -18t-50.5 -35.5t-44.5 -44t-35.5 -44.5q1 -46 2 -97.5t3 -100.5t5.5 -92t8.5 -73q3 -20 -9 -31.5t-28.5 -14t-32 5t-17.5 26.5zM86 692q-6 -17 -19.5 -18.5t-26 5t-20 18.5t-2.5 23q12 25 26 49t32.5 44t42.5 35t56 21q46 9 77 -6t54 -37t41 -43t36 -25
q15 -3 28.5 3.5t24.5 18t21 26.5t19 30q6 9 18.5 10t24.5 -3.5t20.5 -14t5.5 -20.5q-7 -27 -25.5 -51t-41.5 -41.5t-47.5 -27.5t-43.5 -10q-23 -1 -41.5 9t-34.5 25t-31 32t-30 30.5t-32 21t-37 3.5q-8 -2 -19.5 -7.5t-24.5 -17.5t-26.5 -32t-24.5 -50z" />
    <glyph glyph-name="oacute" unicode="&#xf3;" 
d="M436 23q-62 -26 -118 -26t-104 19.5t-86 55t-63 80.5t-35.5 96t-2.5 102q7 51 28.5 99.5t59 86t91.5 59.5t127 20q59 -2 110 -25.5t88.5 -65.5t57.5 -99.5t16 -126.5q-2 -43 -14 -85t-33 -78.5t-51.5 -65.5t-70.5 -46zM111 337q-7 -56 6.5 -106t44.5 -85.5t78.5 -52.5
t107.5 -8q40 6 71 24t53.5 44.5t35.5 60.5t17 72q4 45 -5.5 87t-33.5 75.5t-61.5 55t-88.5 26.5q-22 2 -56.5 -3t-69 -24.5t-62.5 -59t-37 -106.5zM306 663q-12 -12 -27.5 -11t-26.5 10t-14.5 23.5t10.5 29.5l76 84q16 18 33 18.5t28 -9.5t13.5 -26t-10.5 -32z" />
    <glyph glyph-name="obreve" unicode="&#x14f;" 
d="M436 23q-62 -26 -118 -26t-104 19.5t-86 55t-63 80.5t-35.5 96t-2.5 102q7 51 28.5 99.5t59 86t91.5 59.5t127 20q59 -2 110 -25.5t88.5 -65.5t57.5 -99.5t16 -126.5q-2 -43 -14 -85t-33 -78.5t-51.5 -65.5t-70.5 -46zM111 337q-7 -56 6.5 -106t44.5 -85.5t78.5 -52.5
t107.5 -8q40 6 71 24t53.5 44.5t35.5 60.5t17 72q4 45 -5.5 87t-33.5 75.5t-61.5 55t-88.5 26.5q-22 2 -56.5 -3t-69 -24.5t-62.5 -59t-37 -106.5zM179 784q-1 15 9 24t22.5 10t23 -7t11.5 -27q1 -20 7.5 -32.5t16.5 -20t22 -10t24 -2.5q25 1 48 17.5t26 60.5q1 13 11.5 19
t23 5t22.5 -10t9 -27q-2 -34 -15 -58t-33.5 -40t-45.5 -23.5t-50 -7.5q-24 0 -47 6.5t-41 21.5t-30 40t-14 61z" />
    <glyph glyph-name="ocircumflex" unicode="&#xf4;" 
d="M436 23q-62 -26 -118 -26t-104 19.5t-86 55t-63 80.5t-35.5 96t-2.5 102q7 51 28.5 99.5t59 86t91.5 59.5t127 20q59 -2 110 -25.5t88.5 -65.5t57.5 -99.5t16 -126.5q-2 -43 -14 -85t-33 -78.5t-51.5 -65.5t-70.5 -46zM111 337q-7 -56 6.5 -106t44.5 -85.5t78.5 -52.5
t107.5 -8q40 6 71 24t53.5 44.5t35.5 60.5t17 72q4 45 -5.5 87t-33.5 75.5t-61.5 55t-88.5 26.5q-22 2 -56.5 -3t-69 -24.5t-62.5 -59t-37 -106.5zM287 809q3 7 11.5 11t18 4t18 -3.5t11.5 -11.5l62 -108q6 -13 -1 -22.5t-18.5 -13.5t-24 -2.5t-16.5 9.5l-32 53l-30 -56
q-4 -8 -16.5 -9t-24 3.5t-18.5 14t-1 22.5z" />
    <glyph glyph-name="odieresis" unicode="&#xf6;" 
d="M436 23q-62 -26 -118 -26t-104 19.5t-86 55t-63 80.5t-35.5 96t-2.5 102q7 51 28.5 99.5t59 86t91.5 59.5t127 20q59 -2 110 -25.5t88.5 -65.5t57.5 -99.5t16 -126.5q-2 -43 -14 -85t-33 -78.5t-51.5 -65.5t-70.5 -46zM111 337q-7 -56 6.5 -106t44.5 -85.5t78.5 -52.5
t107.5 -8q40 6 71 24t53.5 44.5t35.5 60.5t17 72q4 45 -5.5 87t-33.5 75.5t-61.5 55t-88.5 26.5q-22 2 -56.5 -3t-69 -24.5t-62.5 -59t-37 -106.5zM281 720q10 -15 0.5 -31t-27 -25t-37.5 -7t-30 22q-10 21 -1.5 36.5t25.5 23t37 3.5t33 -22zM445 726q10 -15 0.5 -31
t-27 -25t-37.5 -7t-30 22q-10 21 -1.5 36.5t25.5 23t37 3.5t33 -22z" />
    <glyph glyph-name="ograve" unicode="&#xf2;" 
d="M436 23q-62 -26 -118 -26t-104 19.5t-86 55t-63 80.5t-35.5 96t-2.5 102q7 51 28.5 99.5t59 86t91.5 59.5t127 20q59 -2 110 -25.5t88.5 -65.5t57.5 -99.5t16 -126.5q-2 -43 -14 -85t-33 -78.5t-51.5 -65.5t-70.5 -46zM111 337q-7 -56 6.5 -106t44.5 -85.5t78.5 -52.5
t107.5 -8q40 6 71 24t53.5 44.5t35.5 60.5t17 72q4 45 -5.5 87t-33.5 75.5t-61.5 55t-88.5 26.5q-22 2 -56.5 -3t-69 -24.5t-62.5 -59t-37 -106.5zM246 750q-13 16 -10.5 32t13.5 26t28 9.5t33 -18.5l76 -84q13 -15 10 -29.5t-14 -23.5t-26.5 -10t-27.5 11z" />
    <glyph glyph-name="ohungarumlaut" unicode="&#x151;" 
d="M436 23q-62 -26 -118 -26t-104 19.5t-86 55t-63 80.5t-35.5 96t-2.5 102q7 51 28.5 99.5t59 86t91.5 59.5t127 20q59 -2 110 -25.5t88.5 -65.5t57.5 -99.5t16 -126.5q-2 -43 -14 -85t-33 -78.5t-51.5 -65.5t-70.5 -46zM111 337q-7 -56 6.5 -106t44.5 -85.5t78.5 -52.5
t107.5 -8q40 6 71 24t53.5 44.5t35.5 60.5t17 72q4 45 -5.5 87t-33.5 75.5t-61.5 55t-88.5 26.5q-22 2 -56.5 -3t-69 -24.5t-62.5 -59t-37 -106.5zM232 663q-12 -12 -27.5 -11t-26.5 10t-14.5 23.5t10.5 29.5l76 84q16 18 33 18.5t28 -9.5t13.5 -26t-10.5 -32zM380 655
q-12 -12 -27.5 -11t-26.5 10t-14.5 23.5t10.5 29.5l76 84q16 18 33 18.5t28 -9.5t13.5 -26t-10.5 -32z" />
    <glyph glyph-name="omacron" unicode="&#x14d;" 
d="M436 23q-62 -26 -118 -26t-104 19.5t-86 55t-63 80.5t-35.5 96t-2.5 102q7 51 28.5 99.5t59 86t91.5 59.5t127 20q59 -2 110 -25.5t88.5 -65.5t57.5 -99.5t16 -126.5q-2 -43 -14 -85t-33 -78.5t-51.5 -65.5t-70.5 -46zM111 337q-7 -56 6.5 -106t44.5 -85.5t78.5 -52.5
t107.5 -8q40 6 71 24t53.5 44.5t35.5 60.5t17 72q4 45 -5.5 87t-33.5 75.5t-61.5 55t-88.5 26.5q-22 2 -56.5 -3t-69 -24.5t-62.5 -59t-37 -106.5zM121 650q-18 -1 -25 12t-5.5 29t9.5 29.5t20 13.5q32 1 76 1h94t104.5 1.5t108.5 6.5q20 1 31 -12.5t12.5 -30.5t-7 -32.5
t-27.5 -16.5z" />
    <glyph glyph-name="oslash" unicode="&#xf8;" 
d="M149 54q-33 25 -59 59t-42 73t-21.5 81t0.5 83q7 51 28.5 99.5t59 86t91.5 59.5t127 20q32 -2 62 -9l15 34q6 17 20.5 19t28.5 -4.5t24 -18.5t7 -23q-2 -8 -6 -18t-10 -23q63 -40 99.5 -110t31.5 -164q-2 -43 -14 -85t-33 -78.5t-51.5 -65.5t-70.5 -46
q-58 -24 -110.5 -25.5t-98.5 13.5q-1 -2 -1 -4.5t-1 -4.5q-5 -19 -21.5 -25t-33 -1.5t-28 17.5t-6.5 31zM525 286q6 63 -16 118.5t-70 89.5q-20 -44 -45 -96.5t-50 -106.5t-48 -106.5t-41 -96.5q41 -11 93 -3q40 6 71 24t53.5 44.5t35.5 60.5t17 72zM111 337
q-8 -65 10 -120.5t60 -90.5l178 400q-5 2 -11 2.5t-12 1.5q-22 2 -56.5 -3t-69 -24.5t-62.5 -59t-37 -106.5z" />
    <glyph glyph-name="oslashacute" unicode="&#x1ff;" 
d="M149 54q-33 25 -59 59t-42 73t-21.5 81t0.5 83q7 51 28.5 99.5t59 86t91.5 59.5t127 20q32 -2 62 -9l15 34q6 17 20.5 19t28.5 -4.5t24 -18.5t7 -23q-2 -8 -6 -18t-10 -23q63 -40 99.5 -110t31.5 -164q-2 -43 -14 -85t-33 -78.5t-51.5 -65.5t-70.5 -46
q-58 -24 -110.5 -25.5t-98.5 13.5q-1 -2 -1 -4.5t-1 -4.5q-5 -19 -21.5 -25t-33 -1.5t-28 17.5t-6.5 31zM525 286q6 63 -16 118.5t-70 89.5q-20 -44 -45 -96.5t-50 -106.5t-48 -106.5t-41 -96.5q41 -11 93 -3q40 6 71 24t53.5 44.5t35.5 60.5t17 72zM111 337
q-8 -65 10 -120.5t60 -90.5l178 400q-5 2 -11 2.5t-12 1.5q-22 2 -56.5 -3t-69 -24.5t-62.5 -59t-37 -106.5zM306 663q-12 -12 -27.5 -11t-26.5 10t-14.5 23.5t10.5 29.5l76 84q16 18 33 18.5t28 -9.5t13.5 -26t-10.5 -32z" />
    <glyph glyph-name="otilde" unicode="&#xf5;" 
d="M436 23q-62 -26 -118 -26t-104 19.5t-86 55t-63 80.5t-35.5 96t-2.5 102q7 51 28.5 99.5t59 86t91.5 59.5t127 20q59 -2 110 -25.5t88.5 -65.5t57.5 -99.5t16 -126.5q-2 -43 -14 -85t-33 -78.5t-51.5 -65.5t-70.5 -46zM111 337q-7 -56 6.5 -106t44.5 -85.5t78.5 -52.5
t107.5 -8q40 6 71 24t53.5 44.5t35.5 60.5t17 72q4 45 -5.5 87t-33.5 75.5t-61.5 55t-88.5 26.5q-22 2 -56.5 -3t-69 -24.5t-62.5 -59t-37 -106.5zM125 662q-6 -17 -19.5 -18.5t-26 5t-20 18.5t-2.5 23q12 25 26 49t32.5 44t42.5 35t56 21q46 9 77 -6t54 -37t41 -43t36 -25
q15 -3 28.5 3.5t24.5 18t21 26.5t19 30q6 9 18.5 10t24.5 -3.5t20.5 -14t5.5 -20.5q-7 -27 -25.5 -51t-41.5 -41.5t-47.5 -27.5t-43.5 -10q-23 -1 -41.5 9t-34.5 25t-31 32t-30 30.5t-32 21t-37 3.5q-8 -2 -19.5 -7.5t-24.5 -17.5t-26.5 -32t-24.5 -50z" />
    <glyph glyph-name="oe" unicode="&#x153;" horiz-adv-x="969" 
d="M664 -5q-50 -3 -89 7.5t-70 32.5q-20 -15 -42 -24q-61 -26 -117.5 -26t-104.5 19.5t-86 55t-63 80.5t-35.5 96t-2.5 102q7 51 28.5 99.5t59 86t91.5 59.5t127 20q45 -2 85 -16t74 -40q29 22 64.5 35.5t77.5 17.5q44 4 84.5 -11.5t73.5 -41.5t55.5 -58t31.5 -62
q4 -14 8.5 -30t3.5 -31t-10.5 -28t-34.5 -20q-42 -12 -91.5 -21.5t-101 -17t-102 -14.5t-93.5 -15q5 -92 51 -137.5t130 -37.5q21 2 49.5 7.5t57 17t54.5 29.5t44 46q11 17 28 19.5t31 -5.5t20 -24t-5 -37q-18 -33 -52 -57.5t-73.5 -40.5t-81 -24.5t-74.5 -10.5zM375 73
q39 4 71 23q-21 32 -32 69t-13 75q-4 72 11.5 134.5t47.5 110.5q-41 27 -97 33q-22 2 -56.5 -3t-69 -24.5t-62.5 -59t-37 -106.5q-7 -56 6.5 -106t44.5 -85.5t78.5 -52.5t107.5 -8zM489 339q6 -3 32.5 -1t63.5 7t79.5 12.5t79 14.5t61.5 13t29 8q-10 35 -29.5 60.5t-43.5 41
t-50 22t-48 3.5q-78 -11 -124 -60t-50 -121z" />
    <glyph glyph-name="racute" unicode="&#x155;" horiz-adv-x="545" 
d="M20 595q-2 18 9.5 26.5t26.5 9.5t28 -5.5t14 -18.5l13 -89q45 49 99 79.5t110 29.5q36 1 71.5 -13t65 -40.5t50.5 -63t28 -80.5q4 -24 -8.5 -37t-29 -16t-32 4.5t-18.5 23.5q-6 36 -21.5 63.5t-35.5 44.5t-43 25t-44 5q-27 -3 -53.5 -18t-50.5 -35.5t-44.5 -44
t-35.5 -44.5q4 -58 9 -113t9.5 -102.5t8.5 -85.5t8 -62q3 -20 -9.5 -31.5t-29 -14t-31.5 5t-17 26.5zM261 663q-12 -12 -27.5 -11t-26.5 10t-14.5 23.5t10.5 29.5l76 84q16 18 33 18.5t28 -9.5t13.5 -26t-10.5 -32z" />
    <glyph glyph-name="rcaron" unicode="&#x159;" horiz-adv-x="545" 
d="M20 595q-2 18 9.5 26.5t26.5 9.5t28 -5.5t14 -18.5l13 -89q45 49 99 79.5t110 29.5q36 1 71.5 -13t65 -40.5t50.5 -63t28 -80.5q4 -24 -8.5 -37t-29 -16t-32 4.5t-18.5 23.5q-6 36 -21.5 63.5t-35.5 44.5t-43 25t-44 5q-27 -3 -53.5 -18t-50.5 -35.5t-44.5 -44
t-35.5 -44.5q4 -58 9 -113t9.5 -102.5t8.5 -85.5t8 -62q3 -20 -9.5 -31.5t-29 -14t-31.5 5t-17 26.5zM302 661q-3 -8 -11.5 -11.5t-18 -3.5t-18 3.5t-11.5 11.5l-62 108q-6 13 1 22.5t18.5 13.5t24 2.5t16.5 -9.5l32 -53l30 56q4 8 16.5 9t24 -3.5t18.5 -14t1 -22.5z" />
    <glyph glyph-name="rcommaaccent" unicode="&#x157;" horiz-adv-x="545" 
d="M20 595q-2 18 9.5 26.5t26.5 9.5t28 -5.5t14 -18.5l13 -89q45 49 99 79.5t110 29.5q36 1 71.5 -13t65 -40.5t50.5 -63t28 -80.5q4 -24 -8.5 -37t-29 -16t-32 4.5t-18.5 23.5q-6 36 -21.5 63.5t-35.5 44.5t-43 25t-44 5q-27 -3 -53.5 -18t-50.5 -35.5t-44.5 -44
t-35.5 -44.5q4 -58 9 -113t9.5 -102.5t8.5 -85.5t8 -62q3 -20 -9.5 -31.5t-29 -14t-31.5 5t-17 26.5zM324 -215q-9 -20 -27.5 -22t-34.5 7t-23.5 26t5.5 34q10 14 20 32.5t12 40.5t-6.5 47t-33.5 52q-10 10 -4 23.5t19.5 22t30 9t28.5 -14.5q83 -106 14 -257z" />
    <glyph glyph-name="sacute" unicode="&#x15b;" horiz-adv-x="557" 
d="M188 1q-40 6 -70 24t-51 42.5t-32.5 53t-14.5 55.5q-2 19 8 29.5t24 13t27.5 -3t18.5 -18.5q6 -15 11.5 -35t18 -38t34 -32t59.5 -18q22 -2 49.5 0t55 8t52.5 16.5t43 26t27 35.5t4 46q-9 43 -39.5 61t-72 24.5t-87 8.5t-84.5 14q-49 16 -80 45t-44 64q-14 38 -6 76.5
t39 66.5q19 18 44.5 29.5t53 18t56.5 7t56 -4.5q51 -9 95.5 -31.5t84.5 -62.5q14 -14 11.5 -28t-14 -23t-26.5 -11t-26 7q-38 32 -75 51.5t-69 24.5q-15 2 -32.5 1t-35.5 -5t-34.5 -11t-28.5 -18q-29 -26 -15 -65q10 -26 40.5 -48.5t78.5 -27.5q34 -3 76.5 -6t82.5 -12.5
t72.5 -28.5t46.5 -55q20 -50 14.5 -91t-29 -72.5t-60 -54t-80 -35t-90 -16t-87.5 2.5zM267 663q-12 -12 -27.5 -11t-26.5 10t-14.5 23.5t10.5 29.5l76 84q16 18 33 18.5t28 -9.5t13.5 -26t-10.5 -32z" />
    <glyph glyph-name="scaron" unicode="&#x161;" horiz-adv-x="557" 
d="M188 1q-40 6 -70 24t-51 42.5t-32.5 53t-14.5 55.5q-2 19 8 29.5t24 13t27.5 -3t18.5 -18.5q6 -15 11.5 -35t18 -38t34 -32t59.5 -18q22 -2 49.5 0t55 8t52.5 16.5t43 26t27 35.5t4 46q-9 43 -39.5 61t-72 24.5t-87 8.5t-84.5 14q-49 16 -80 45t-44 64q-14 38 -6 76.5
t39 66.5q19 18 44.5 29.5t53 18t56.5 7t56 -4.5q51 -9 95.5 -31.5t84.5 -62.5q14 -14 11.5 -28t-14 -23t-26.5 -11t-26 7q-38 32 -75 51.5t-69 24.5q-15 2 -32.5 1t-35.5 -5t-34.5 -11t-28.5 -18q-29 -26 -15 -65q10 -26 40.5 -48.5t78.5 -27.5q34 -3 76.5 -6t82.5 -12.5
t72.5 -28.5t46.5 -55q20 -50 14.5 -91t-29 -72.5t-60 -54t-80 -35t-90 -16t-87.5 2.5zM308 661q-3 -8 -11.5 -11.5t-18 -3.5t-18 3.5t-11.5 11.5l-62 108q-6 13 1 22.5t18.5 13.5t24 2.5t16.5 -9.5l32 -53l30 56q4 8 16.5 9t24 -3.5t18.5 -14t1 -22.5z" />
    <glyph glyph-name="scedilla" unicode="&#x15f;" horiz-adv-x="557" 
d="M188 1q-40 6 -70 24t-51 42.5t-32.5 53t-14.5 55.5q-2 19 8 29.5t24 13t27.5 -3t18.5 -18.5q6 -15 11.5 -35t18 -38t34 -32t59.5 -18q22 -2 49.5 0t55 8t52.5 16.5t43 26t27 35.5t4 46q-9 43 -39.5 61t-72 24.5t-87 8.5t-84.5 14q-49 16 -80 45t-44 64q-14 38 -6 76.5
t39 66.5q19 18 44.5 29.5t53 18t56.5 7t56 -4.5q51 -9 95.5 -31.5t84.5 -62.5q14 -14 11.5 -28t-14 -23t-26.5 -11t-26 7q-38 32 -75 51.5t-69 24.5q-15 2 -32.5 1t-35.5 -5t-34.5 -11t-28.5 -18q-29 -26 -15 -65q10 -26 40.5 -48.5t78.5 -27.5q34 -3 76.5 -6t82.5 -12.5
t72.5 -28.5t46.5 -55q25 -64 10 -113t-54.5 -82.5t-96 -52t-113.5 -21.5q-1 -5 -1 -10v-12q24 1 49 -3.5t45.5 -16t33.5 -30.5t13 -46q0 -31 -13 -50t-32 -30t-40 -15t-37 -5q-21 -1 -41 5.5t-36.5 18t-28.5 25.5t-16 27q-4 12 3 22.5t17.5 16t20.5 4.5t13 -11
q6 -22 26 -36.5t45 -13.5q26 1 41.5 9t15.5 31q0 17 -12.5 26.5t-29 14t-33 5.5t-25.5 0q-7 -1 -15 2t-14 9.5t-9.5 16t-1.5 22.5q1 7 2 13l2 12q-5 0 -10 0.5t-10 1.5z" />
    <glyph glyph-name="scircumflex" unicode="&#x15d;" horiz-adv-x="557" 
d="M188 1q-40 6 -70 24t-51 42.5t-32.5 53t-14.5 55.5q-2 19 8 29.5t24 13t27.5 -3t18.5 -18.5q6 -15 11.5 -35t18 -38t34 -32t59.5 -18q22 -2 49.5 0t55 8t52.5 16.5t43 26t27 35.5t4 46q-9 43 -39.5 61t-72 24.5t-87 8.5t-84.5 14q-49 16 -80 45t-44 64q-14 38 -6 76.5
t39 66.5q19 18 44.5 29.5t53 18t56.5 7t56 -4.5q51 -9 95.5 -31.5t84.5 -62.5q14 -14 11.5 -28t-14 -23t-26.5 -11t-26 7q-38 32 -75 51.5t-69 24.5q-15 2 -32.5 1t-35.5 -5t-34.5 -11t-28.5 -18q-29 -26 -15 -65q10 -26 40.5 -48.5t78.5 -27.5q34 -3 76.5 -6t82.5 -12.5
t72.5 -28.5t46.5 -55q20 -50 14.5 -91t-29 -72.5t-60 -54t-80 -35t-90 -16t-87.5 2.5zM222 792q3 7 11.5 11t18 4t18 -3.5t11.5 -11.5l62 -108q6 -13 -1 -22.5t-18.5 -13.5t-24 -2.5t-16.5 9.5l-32 53l-30 -56q-4 -8 -16.5 -9t-24 3.5t-18.5 14t-1 22.5z" />
    <glyph glyph-name="scommaaccent" unicode="&#x219;" horiz-adv-x="557" 
d="M299 -221q-8 -14 -23 -15t-28.5 5t-20 17t4.5 23q9 9 17 21.5t9.5 26.5t-5.5 31t-28 35q-8 7 -3 16t16.5 14.5t25 6t23.5 -9.5q70 -71 12 -171zM188 1q-40 6 -70 24t-51 42.5t-32.5 53t-14.5 55.5q-2 19 8 29.5t24 13t27.5 -3t18.5 -18.5q6 -15 11.5 -35t18 -38t34 -32
t59.5 -18q22 -2 49.5 0t55 8t52.5 16.5t43 26t27 35.5t4 46q-9 43 -39.5 61t-72 24.5t-87 8.5t-84.5 14q-49 16 -80 45t-44 64q-14 38 -6 76.5t39 66.5q19 18 44.5 29.5t53 18t56.5 7t56 -4.5q51 -9 95.5 -31.5t84.5 -62.5q14 -14 11.5 -28t-14 -23t-26.5 -11t-26 7
q-38 32 -75 51.5t-69 24.5q-15 2 -32.5 1t-35.5 -5t-34.5 -11t-28.5 -18q-29 -26 -15 -65q10 -26 40.5 -48.5t78.5 -27.5q34 -3 76.5 -6t82.5 -12.5t72.5 -28.5t46.5 -55q20 -50 14.5 -91t-29 -72.5t-60 -54t-80 -35t-90 -16t-87.5 2.5z" />
    <glyph glyph-name="tbar" unicode="&#x167;" horiz-adv-x="572" 
d="M283 397q1 -60 2.5 -118t3 -108.5t3.5 -90.5t5 -65q2 -19 -11 -30t-30 -13t-32 6t-16 27l-7 392h-138q-18 -1 -25 12t-5.5 29t9.5 29.5t20 13.5q27 1 62 1h76l-1 48q-48 -2 -92.5 -1t-79.5 1q-19 0 -28.5 12.5t-9.5 27.5t9 27t28 12h172l-4 216q-1 18 11.5 25.5t28 6
t28.5 -9.5t13 -20q1 -22 2 -81t3 -137h255q18 -1 24 -13.5t3.5 -27.5t-11.5 -27t-21 -11h-43.5t-59 0.5t-70 0.5t-76.5 -1v-48q40 1 81 2.5t83 5.5q20 1 31 -12.5t12.5 -30.5t-7 -32.5t-27.5 -16.5z" />
    <glyph glyph-name="tcaron" unicode="&#x165;" horiz-adv-x="763" 
d="M198 609l-4 216q-1 18 11.5 25.5t28 6t28.5 -9.5t13 -20q1 -22 2 -81t3 -137h255q18 -1 24 -13.5t3.5 -27.5t-11.5 -27t-21 -11h-43.5t-59 0.5t-70 0.5t-76.5 -1q1 -75 2.5 -152.5t3.5 -147.5t4.5 -126.5t5.5 -88.5q2 -19 -11 -30t-30 -13t-32 6t-16 27l-9 525
q-48 -2 -92.5 -1t-79.5 1q-19 0 -28.5 12.5t-9.5 27.5t9 27t28 12h172zM688 487q-9 -20 -27.5 -22t-34.5 7t-23.5 26t5.5 34q10 14 20 32.5t12 40.5t-6.5 47t-33.5 52q-10 10 -4 23.5t19.5 22t30 9t28.5 -14.5q83 -106 14 -257z" />
    <glyph glyph-name="tcommaaccent" unicode="&#x163;" horiz-adv-x="572" 
d="M289 -246q-8 -14 -23 -15.5t-27.5 5t-19 18.5t4.5 24q9 10 16.5 23t9.5 29t-5 33.5t-28 37.5q-8 7 -3 16.5t16 15.5t24.5 6t22.5 -10q68 -75 12 -183zM198 609l-4 216q-1 18 11.5 25.5t28 6t28.5 -9.5t13 -20q1 -22 2 -81t3 -137h255q18 -1 24 -13.5t3.5 -27.5t-11.5 -27
t-21 -11h-43.5t-59 0.5t-70 0.5t-76.5 -1q1 -75 2.5 -152.5t3.5 -147.5t4.5 -126.5t5.5 -88.5q2 -19 -11 -30t-30 -13t-32 6t-16 27l-9 525q-48 -2 -92.5 -1t-79.5 1q-19 0 -28.5 12.5t-9.5 27.5t9 27t28 12h172z" />
    <glyph glyph-name="uacute" unicode="&#xfa;" horiz-adv-x="623" 
d="M490 150q-26 -28 -63 -57.5t-79.5 -50.5t-89.5 -27.5t-93 11.5q-41 16 -67.5 49.5t-41.5 78.5t-20 97.5t-2.5 106.5t11.5 106.5t21 96.5q4 14 19 19.5t31 3t26 -14t4 -32.5q-10 -32 -18.5 -75.5t-12.5 -90.5t-1.5 -93.5t13.5 -84.5t32 -64.5t55 -33.5q36 -7 76 7t77 39
t67 54.5t45 53.5l-32 300q-3 18 9.5 26t28 8t29.5 -6.5t16 -17.5q3 -21 7.5 -57.5t9 -81.5t10 -95.5t11.5 -100t12 -95.5t13 -81q4 -19 -8.5 -31.5t-29.5 -15.5t-33 4t-19 26zM300 663q-12 -12 -27.5 -11t-26.5 10t-14.5 23.5t10.5 29.5l76 84q16 18 33 18.5t28 -9.5
t13.5 -26t-10.5 -32z" />
    <glyph glyph-name="ubreve" unicode="&#x16d;" horiz-adv-x="623" 
d="M490 150q-26 -28 -63 -57.5t-79.5 -50.5t-89.5 -27.5t-93 11.5q-41 16 -67.5 49.5t-41.5 78.5t-20 97.5t-2.5 106.5t11.5 106.5t21 96.5q4 14 19 19.5t31 3t26 -14t4 -32.5q-10 -32 -18.5 -75.5t-12.5 -90.5t-1.5 -93.5t13.5 -84.5t32 -64.5t55 -33.5q36 -7 76 7t77 39
t67 54.5t45 53.5l-32 300q-3 18 9.5 26t28 8t29.5 -6.5t16 -17.5q3 -21 7.5 -57.5t9 -81.5t10 -95.5t11.5 -100t12 -95.5t13 -81q4 -19 -8.5 -31.5t-29.5 -15.5t-33 4t-19 26zM173 784q-1 15 9 24t22.5 10t23 -7t11.5 -27q1 -20 7.5 -32.5t16.5 -20t22 -10t24 -2.5
q25 1 48 17.5t26 60.5q1 13 11.5 19t23 5t22.5 -10t9 -27q-2 -34 -15 -58t-33.5 -40t-45.5 -23.5t-50 -7.5q-24 0 -47 6.5t-41 21.5t-30 40t-14 61z" />
    <glyph glyph-name="ucircumflex" unicode="&#xfb;" horiz-adv-x="623" 
d="M490 150q-26 -28 -63 -57.5t-79.5 -50.5t-89.5 -27.5t-93 11.5q-41 16 -67.5 49.5t-41.5 78.5t-20 97.5t-2.5 106.5t11.5 106.5t21 96.5q4 14 19 19.5t31 3t26 -14t4 -32.5q-10 -32 -18.5 -75.5t-12.5 -90.5t-1.5 -93.5t13.5 -84.5t32 -64.5t55 -33.5q36 -7 76 7t77 39
t67 54.5t45 53.5l-32 300q-3 18 9.5 26t28 8t29.5 -6.5t16 -17.5q3 -21 7.5 -57.5t9 -81.5t10 -95.5t11.5 -100t12 -95.5t13 -81q4 -19 -8.5 -31.5t-29.5 -15.5t-33 4t-19 26zM281 809q3 7 11.5 11t18 4t18 -3.5t11.5 -11.5l62 -108q6 -13 -1 -22.5t-18.5 -13.5t-24 -2.5
t-16.5 9.5l-32 53l-30 -56q-4 -8 -16.5 -9t-24 3.5t-18.5 14t-1 22.5z" />
    <glyph glyph-name="udieresis" unicode="&#xfc;" horiz-adv-x="623" 
d="M490 150q-26 -28 -63 -57.5t-79.5 -50.5t-89.5 -27.5t-93 11.5q-41 16 -67.5 49.5t-41.5 78.5t-20 97.5t-2.5 106.5t11.5 106.5t21 96.5q4 14 19 19.5t31 3t26 -14t4 -32.5q-10 -32 -18.5 -75.5t-12.5 -90.5t-1.5 -93.5t13.5 -84.5t32 -64.5t55 -33.5q36 -7 76 7t77 39
t67 54.5t45 53.5l-32 300q-3 18 9.5 26t28 8t29.5 -6.5t16 -17.5q3 -21 7.5 -57.5t9 -81.5t10 -95.5t11.5 -100t12 -95.5t13 -81q4 -19 -8.5 -31.5t-29.5 -15.5t-33 4t-19 26zM275 720q10 -15 0.5 -31t-27 -25t-37.5 -7t-30 22q-10 21 -1.5 36.5t25.5 23t37 3.5t33 -22z
M439 726q10 -15 0.5 -31t-27 -25t-37.5 -7t-30 22q-10 21 -1.5 36.5t25.5 23t37 3.5t33 -22z" />
    <glyph glyph-name="uhungarumlaut" unicode="&#x171;" horiz-adv-x="623" 
d="M490 150q-26 -28 -63 -57.5t-79.5 -50.5t-89.5 -27.5t-93 11.5q-41 16 -67.5 49.5t-41.5 78.5t-20 97.5t-2.5 106.5t11.5 106.5t21 96.5q4 14 19 19.5t31 3t26 -14t4 -32.5q-10 -32 -18.5 -75.5t-12.5 -90.5t-1.5 -93.5t13.5 -84.5t32 -64.5t55 -33.5q36 -7 76 7t77 39
t67 54.5t45 53.5l-32 300q-3 18 9.5 26t28 8t29.5 -6.5t16 -17.5q3 -21 7.5 -57.5t9 -81.5t10 -95.5t11.5 -100t12 -95.5t13 -81q4 -19 -8.5 -31.5t-29.5 -15.5t-33 4t-19 26zM226 663q-12 -12 -27.5 -11t-26.5 10t-14.5 23.5t10.5 29.5l76 84q16 18 33 18.5t28 -9.5
t13.5 -26t-10.5 -32zM374 655q-12 -12 -27.5 -11t-26.5 10t-14.5 23.5t10.5 29.5l76 84q16 18 33 18.5t28 -9.5t13.5 -26t-10.5 -32z" />
    <glyph glyph-name="ugrave" unicode="&#xf9;" horiz-adv-x="623" 
d="M490 150q-26 -28 -63 -57.5t-79.5 -50.5t-89.5 -27.5t-93 11.5q-41 16 -67.5 49.5t-41.5 78.5t-20 97.5t-2.5 106.5t11.5 106.5t21 96.5q4 14 19 19.5t31 3t26 -14t4 -32.5q-10 -32 -18.5 -75.5t-12.5 -90.5t-1.5 -93.5t13.5 -84.5t32 -64.5t55 -33.5q36 -7 76 7t77 39
t67 54.5t45 53.5l-32 300q-3 18 9.5 26t28 8t29.5 -6.5t16 -17.5q3 -21 7.5 -57.5t9 -81.5t10 -95.5t11.5 -100t12 -95.5t13 -81q4 -19 -8.5 -31.5t-29.5 -15.5t-33 4t-19 26zM240 750q-13 16 -10.5 32t13.5 26t28 9.5t33 -18.5l76 -84q13 -15 10 -29.5t-14 -23.5t-26.5 -10
t-27.5 11z" />
    <glyph glyph-name="umacron" unicode="&#x16b;" horiz-adv-x="623" 
d="M490 150q-26 -28 -63 -57.5t-79.5 -50.5t-89.5 -27.5t-93 11.5q-41 16 -67.5 49.5t-41.5 78.5t-20 97.5t-2.5 106.5t11.5 106.5t21 96.5q4 14 19 19.5t31 3t26 -14t4 -32.5q-10 -32 -18.5 -75.5t-12.5 -90.5t-1.5 -93.5t13.5 -84.5t32 -64.5t55 -33.5q36 -7 76 7t77 39
t67 54.5t45 53.5l-32 300q-3 18 9.5 26t28 8t29.5 -6.5t16 -17.5q3 -21 7.5 -57.5t9 -81.5t10 -95.5t11.5 -100t12 -95.5t13 -81q4 -19 -8.5 -31.5t-29.5 -15.5t-33 4t-19 26zM115 650q-18 -1 -25 12t-5.5 29t9.5 29.5t20 13.5q32 1 76 1h94t104.5 1.5t108.5 6.5
q20 1 31 -12.5t12.5 -30.5t-7 -32.5t-27.5 -16.5z" />
    <glyph glyph-name="uogonek" unicode="&#x173;" horiz-adv-x="623" 
d="M490 150q-26 -28 -63 -57.5t-79.5 -50.5t-89.5 -27.5t-93 11.5q-41 16 -67.5 49.5t-41.5 78.5t-20 97.5t-2.5 106.5t11.5 106.5t21 96.5q4 14 19 19.5t31 3t26 -14t4 -32.5q-10 -32 -18.5 -75.5t-12.5 -90.5t-1.5 -93.5t13.5 -84.5t32 -64.5t55 -33.5q36 -7 76 7t77 39
t67 54.5t45 53.5l-32 300q-3 18 9.5 26t28 8t29.5 -6.5t16 -17.5q3 -21 7.5 -57.5t9 -81.5t10 -95.5t11.5 -100t12 -95.5t13 -81q3 -16 -5 -26.5t-20 -16.5q-8 -15 -6 -35q1 -25 17.5 -48t60.5 -26q13 -1 19 -11.5t5 -23t-10 -22.5t-27 -9q-34 1 -58 14.5t-40 34t-23.5 45.5
t-7.5 50q-1 13 1 25.5t6 24.5q-2 4 -2 7z" />
    <glyph glyph-name="uring" unicode="&#x16f;" horiz-adv-x="623" 
d="M490 150q-26 -28 -63 -57.5t-79.5 -50.5t-89.5 -27.5t-93 11.5q-41 16 -67.5 49.5t-41.5 78.5t-20 97.5t-2.5 106.5t11.5 106.5t21 96.5q4 14 19 19.5t31 3t26 -14t4 -32.5q-10 -32 -18.5 -75.5t-12.5 -90.5t-1.5 -93.5t13.5 -84.5t32 -64.5t55 -33.5q36 -7 76 7t77 39
t67 54.5t45 53.5l-32 300q-3 18 9.5 26t28 8t29.5 -6.5t16 -17.5q3 -21 7.5 -57.5t9 -81.5t10 -95.5t11.5 -100t12 -95.5t13 -81q4 -19 -8.5 -31.5t-29.5 -15.5t-33 4t-19 26zM347 740q-11 14 -26.5 16.5t-29 -2.5t-20.5 -17t1 -28q8 -15 23.5 -16.5t30 5.5t22 18.5
t-0.5 23.5zM390 761q13 -24 9 -44.5t-18.5 -36.5t-36 -25.5t-44 -9.5t-42.5 10t-32 34q-17 36 -0.5 64.5t46.5 42t64.5 6.5t53.5 -41z" />
    <glyph glyph-name="utilde" unicode="&#x169;" horiz-adv-x="623" 
d="M490 150q-26 -28 -63 -57.5t-79.5 -50.5t-89.5 -27.5t-93 11.5q-41 16 -67.5 49.5t-41.5 78.5t-20 97.5t-2.5 106.5t11.5 106.5t21 96.5q4 14 19 19.5t31 3t26 -14t4 -32.5q-10 -32 -18.5 -75.5t-12.5 -90.5t-1.5 -93.5t13.5 -84.5t32 -64.5t55 -33.5q36 -7 76 7t77 39
t67 54.5t45 53.5l-32 300q-3 18 9.5 26t28 8t29.5 -6.5t16 -17.5q3 -21 7.5 -57.5t9 -81.5t10 -95.5t11.5 -100t12 -95.5t13 -81q4 -19 -8.5 -31.5t-29.5 -15.5t-33 4t-19 26zM119 662q-6 -17 -19.5 -18.5t-26 5t-20 18.5t-2.5 23q12 25 26 49t32.5 44t42.5 35t56 21
q46 9 77 -6t54 -37t41 -43t36 -25q15 -3 28.5 3.5t24.5 18t21 26.5t19 30q6 9 18.5 10t24.5 -3.5t20.5 -14t5.5 -20.5q-7 -27 -25.5 -51t-41.5 -41.5t-47.5 -27.5t-43.5 -10q-23 -1 -41.5 9t-34.5 25t-31 32t-30 30.5t-32 21t-37 3.5q-8 -2 -19.5 -7.5t-24.5 -17.5
t-26.5 -32t-24.5 -50z" />
    <glyph glyph-name="wacute" unicode="&#x1e83;" horiz-adv-x="824" 
d="M412 346l-111 -330q-4 -9 -17.5 -14.5t-29 -6.5t-29 3t-17.5 14l-192 554q-7 17 3 28.5t25 17t30.5 3t20.5 -12.5q11 -24 28.5 -79t39 -123t45.5 -139t48 -126q36 101 65.5 191t50.5 159q4 12 15 18.5t24 7t25 -5.5t17 -19q23 -63 51 -156t64 -194q16 37 31.5 81.5
t30.5 92t28.5 93.5t25.5 86.5t22 71t17 46.5q5 10 20.5 12.5t30.5 -3t25 -17t3 -28.5l-186 -558q-4 -10 -17.5 -14t-29 -3t-29 6.5t-17.5 14.5zM401 663q-12 -12 -27.5 -11t-26.5 10t-14.5 23.5t10.5 29.5l76 84q16 18 33 18.5t28 -9.5t13.5 -26t-10.5 -32z" />
    <glyph glyph-name="wcircumflex" unicode="&#x175;" horiz-adv-x="824" 
d="M412 346l-111 -330q-4 -9 -17.5 -14.5t-29 -6.5t-29 3t-17.5 14l-192 554q-7 17 3 28.5t25 17t30.5 3t20.5 -12.5q11 -24 28.5 -79t39 -123t45.5 -139t48 -126q36 101 65.5 191t50.5 159q4 12 15 18.5t24 7t25 -5.5t17 -19q23 -63 51 -156t64 -194q16 37 31.5 81.5
t30.5 92t28.5 93.5t25.5 86.5t22 71t17 46.5q5 10 20.5 12.5t30.5 -3t25 -17t3 -28.5l-186 -558q-4 -10 -17.5 -14t-29 -3t-29 6.5t-17.5 14.5zM382 809q3 7 11.5 11t18 4t18 -3.5t11.5 -11.5l62 -108q6 -13 -1 -22.5t-18.5 -13.5t-24 -2.5t-16.5 9.5l-32 53l-30 -56
q-4 -8 -16.5 -9t-24 3.5t-18.5 14t-1 22.5z" />
    <glyph glyph-name="wdieresis" unicode="&#x1e85;" horiz-adv-x="824" 
d="M412 346l-111 -330q-4 -9 -17.5 -14.5t-29 -6.5t-29 3t-17.5 14l-192 554q-7 17 3 28.5t25 17t30.5 3t20.5 -12.5q11 -24 28.5 -79t39 -123t45.5 -139t48 -126q36 101 65.5 191t50.5 159q4 12 15 18.5t24 7t25 -5.5t17 -19q23 -63 51 -156t64 -194q16 37 31.5 81.5
t30.5 92t28.5 93.5t25.5 86.5t22 71t17 46.5q5 10 20.5 12.5t30.5 -3t25 -17t3 -28.5l-186 -558q-4 -10 -17.5 -14t-29 -3t-29 6.5t-17.5 14.5zM376 720q10 -15 0.5 -31t-27 -25t-37.5 -7t-30 22q-10 21 -1.5 36.5t25.5 23t37 3.5t33 -22zM540 726q10 -15 0.5 -31t-27 -25
t-37.5 -7t-30 22q-10 21 -1.5 36.5t25.5 23t37 3.5t33 -22z" />
    <glyph glyph-name="wgrave" unicode="&#x1e81;" horiz-adv-x="824" 
d="M412 346l-111 -330q-4 -9 -17.5 -14.5t-29 -6.5t-29 3t-17.5 14l-192 554q-7 17 3 28.5t25 17t30.5 3t20.5 -12.5q11 -24 28.5 -79t39 -123t45.5 -139t48 -126q36 101 65.5 191t50.5 159q4 12 15 18.5t24 7t25 -5.5t17 -19q23 -63 51 -156t64 -194q16 37 31.5 81.5
t30.5 92t28.5 93.5t25.5 86.5t22 71t17 46.5q5 10 20.5 12.5t30.5 -3t25 -17t3 -28.5l-186 -558q-4 -10 -17.5 -14t-29 -3t-29 6.5t-17.5 14.5zM341 750q-13 16 -10.5 32t13.5 26t28 9.5t33 -18.5l76 -84q13 -15 10 -29.5t-14 -23.5t-26.5 -10t-27.5 11z" />
    <glyph glyph-name="yacute" unicode="&#xfd;" horiz-adv-x="620" 
d="M376 144l151 417q6 18 21.5 22t30.5 -1.5t24.5 -18.5t3.5 -29q-7 -20 -27.5 -75t-47.5 -128t-57 -156.5t-57.5 -161.5t-49 -142t-30.5 -99q-5 -19 -21.5 -25t-33.5 -1.5t-28 18t-6 31.5l88 242q-22 33 -50 77.5t-58.5 93t-62 97t-59 91t-49 75t-33.5 47.5
q-11 13 -5.5 28.5t18.5 25t28.5 10.5t26.5 -14zM299 663q-12 -12 -27.5 -11t-26.5 10t-14.5 23.5t10.5 29.5l76 84q16 18 33 18.5t28 -9.5t13.5 -26t-10.5 -32z" />
    <glyph glyph-name="ycircumflex" unicode="&#x177;" horiz-adv-x="620" 
d="M376 144l151 417q6 18 21.5 22t30.5 -1.5t24.5 -18.5t3.5 -29q-7 -20 -27.5 -75t-47.5 -128t-57 -156.5t-57.5 -161.5t-49 -142t-30.5 -99q-5 -19 -21.5 -25t-33.5 -1.5t-28 18t-6 31.5l88 242q-22 33 -50 77.5t-58.5 93t-62 97t-59 91t-49 75t-33.5 47.5
q-11 13 -5.5 28.5t18.5 25t28.5 10.5t26.5 -14zM280 809q3 7 11.5 11t18 4t18 -3.5t11.5 -11.5l62 -108q6 -13 -1 -22.5t-18.5 -13.5t-24 -2.5t-16.5 9.5l-32 53l-30 -56q-4 -8 -16.5 -9t-24 3.5t-18.5 14t-1 22.5z" />
    <glyph glyph-name="ydieresis" unicode="&#xff;" horiz-adv-x="620" 
d="M376 144l151 417q6 18 21.5 22t30.5 -1.5t24.5 -18.5t3.5 -29q-7 -20 -27.5 -75t-47.5 -128t-57 -156.5t-57.5 -161.5t-49 -142t-30.5 -99q-5 -19 -21.5 -25t-33.5 -1.5t-28 18t-6 31.5l88 242q-22 33 -50 77.5t-58.5 93t-62 97t-59 91t-49 75t-33.5 47.5
q-11 13 -5.5 28.5t18.5 25t28.5 10.5t26.5 -14zM274 720q10 -15 0.5 -31t-27 -25t-37.5 -7t-30 22q-10 21 -1.5 36.5t25.5 23t37 3.5t33 -22zM438 726q10 -15 0.5 -31t-27 -25t-37.5 -7t-30 22q-10 21 -1.5 36.5t25.5 23t37 3.5t33 -22z" />
    <glyph glyph-name="ygrave" unicode="&#x1ef3;" horiz-adv-x="620" 
d="M376 144l151 417q6 18 21.5 22t30.5 -1.5t24.5 -18.5t3.5 -29q-7 -20 -27.5 -75t-47.5 -128t-57 -156.5t-57.5 -161.5t-49 -142t-30.5 -99q-5 -19 -21.5 -25t-33.5 -1.5t-28 18t-6 31.5l88 242q-22 33 -50 77.5t-58.5 93t-62 97t-59 91t-49 75t-33.5 47.5
q-11 13 -5.5 28.5t18.5 25t28.5 10.5t26.5 -14zM239 750q-13 16 -10.5 32t13.5 26t28 9.5t33 -18.5l76 -84q13 -15 10 -29.5t-14 -23.5t-26.5 -10t-27.5 11z" />
    <glyph glyph-name="zacute" unicode="&#x17a;" horiz-adv-x="542" 
d="M507 4q-116 -2 -193 -4t-125 -2.5t-72 -1t-34.5 -0.5t-11.5 0.5t-4 0.5q-14 1 -23.5 8.5t-14 18t-2.5 22t11 22.5l387 439l-370 -16q-18 -1 -25.5 10.5t-7 25t8 25.5t19.5 13q32 1 82.5 3t108.5 4.5t119 6t115 8.5q16 1 27 -8t16.5 -23t3 -31t-13.5 -31q-38 -48 -86 -104
t-98 -113t-98 -110.5t-86 -95.5q40 0 85.5 0.5t91.5 2t91 4t85 6.5q20 2 32 -10t14 -27t-5.5 -28.5t-26.5 -14.5zM260 663q-12 -12 -27.5 -11t-26.5 10t-14.5 23.5t10.5 29.5l76 84q16 18 33 18.5t28 -9.5t13.5 -26t-10.5 -32z" />
    <glyph glyph-name="zcaron" unicode="&#x17e;" horiz-adv-x="542" 
d="M507 4q-116 -2 -193 -4t-125 -2.5t-72 -1t-34.5 -0.5t-11.5 0.5t-4 0.5q-14 1 -23.5 8.5t-14 18t-2.5 22t11 22.5l387 439l-370 -16q-18 -1 -25.5 10.5t-7 25t8 25.5t19.5 13q32 1 82.5 3t108.5 4.5t119 6t115 8.5q16 1 27 -8t16.5 -23t3 -31t-13.5 -31q-38 -48 -86 -104
t-98 -113t-98 -110.5t-86 -95.5q40 0 85.5 0.5t91.5 2t91 4t85 6.5q20 2 32 -10t14 -27t-5.5 -28.5t-26.5 -14.5zM301 661q-3 -8 -11.5 -11.5t-18 -3.5t-18 3.5t-11.5 11.5l-62 108q-6 13 1 22.5t18.5 13.5t24 2.5t16.5 -9.5l32 -53l30 56q4 8 16.5 9t24 -3.5t18.5 -14
t1 -22.5z" />
    <glyph glyph-name="zdotaccent" unicode="&#x17c;" horiz-adv-x="542" 
d="M507 4q-116 -2 -193 -4t-125 -2.5t-72 -1t-34.5 -0.5t-11.5 0.5t-4 0.5q-14 1 -23.5 8.5t-14 18t-2.5 22t11 22.5l387 439l-370 -16q-18 -1 -25.5 10.5t-7 25t8 25.5t19.5 13q32 1 82.5 3t108.5 4.5t119 6t115 8.5q16 1 27 -8t16.5 -23t3 -31t-13.5 -31q-38 -48 -86 -104
t-98 -113t-98 -110.5t-86 -95.5q40 0 85.5 0.5t91.5 2t91 4t85 6.5q20 2 32 -10t14 -27t-5.5 -28.5t-26.5 -14.5zM317 720q10 -15 0.5 -31t-27 -25t-37.5 -7t-30 22q-10 21 -1.5 36.5t25.5 23t37 3.5t33 -22z" />
    <glyph glyph-name="yen" unicode="&#xa5;" horiz-adv-x="614" 
d="M348 237q1 -51 1.5 -103.5t1.5 -105.5q0 -20 -12 -29.5t-27 -10t-28 9t-15 28.5q-1 67 -1 118v93h-160q-18 -1 -25 12t-5.5 29t9.5 29.5t20 13.5q30 2 71 1.5t89 -0.5v41h-153q-18 -1 -25 12t-5.5 29t9.5 29.5t20 13.5q29 2 69 1.5t85 -0.5v13l-248 334q-11 14 -6.5 26.5
t16.5 20t26 8.5t21 -8q55 -71 110 -145.5t121 -157.5q66 81 121 154.5t110 143.5q7 9 21 8t26 -8.5t16.5 -20t-6.5 -26.5l-244 -324q0 -5 -0.5 -9t-0.5 -9q36 1 73 2.5t73 5.5q20 1 31 -12.5t12.5 -30.5t-7 -32.5t-27.5 -16.5l-156 -1q0 -10 -0.5 -20t-0.5 -21q35 1 71 2.5
t71 5.5q20 1 31 -12.5t12.5 -30.5t-7 -32.5t-27.5 -16.5z" />
    <glyph glyph-name="Eth" unicode="&#xd0;" horiz-adv-x="731" 
d="M103 397h-52q-18 -1 -26 12t-7 29t8 29.5t19 13.5h10t17.5 0.5t17.5 0.5h11l-11 338q0 16 9.5 24t22 9.5t25 -3.5t18.5 -14q65 14 131 11.5t127 -20.5t114 -51.5t91 -82t58 -112.5t15 -143q-7 -114 -52 -199.5t-115 -142t-159.5 -83.5t-186.5 -22q-9 -6 -21 -7.5t-23 2
t-19 11t-9 19.5zM613 424q8 106 -27.5 179t-98.5 113t-145.5 48.5t-168.5 -13.5q2 -52 5 -122t6 -147q62 0 134.5 0.5t145.5 7.5q20 1 31 -12.5t12.5 -30.5t-7 -32.5t-27.5 -16.5l-286 -1q2 -48 4 -95.5t4 -90.5t4 -80.5t4 -65.5q81 -4 153 21.5t127 74t89.5 116t40.5 147.5
z" />
    <glyph glyph-name="AEacute" unicode="&#x1fc;" horiz-adv-x="1140" 
d="M567 365l-215 -11q-17 -27 -39.5 -59.5t-46.5 -67.5t-48.5 -69.5t-44.5 -64t-35 -51.5t-20 -32q-10 -19 -27.5 -23.5t-32.5 1.5t-23 20t1 32l509 749q12 18 25 27t26 13t24.5 4.5t21.5 0.5l410 16q18 1 25.5 -11.5t7 -28.5t-8 -29.5t-19.5 -13.5q-18 -2 -57 -3.5
t-92.5 -3.5t-118.5 -4t-137 -5v-60t-0.5 -73t-1 -81t-0.5 -82l337 21q18 1 26 -11.5t7 -28t-8.5 -29.5t-19.5 -15q-36 -3 -123 -9t-218 -13q0 -41 0.5 -81.5t1.5 -78t2.5 -71t2.5 -58.5l433 18q18 1 26 -11.5t7 -28.5t-8 -29.5t-19 -13.5q-19 -2 -64 -4t-106 -4t-133 -4.5
t-145 -4.5q-11 0 -24.5 -0.5t-25.5 2t-20.5 9.5t-8.5 22zM566 452l-1 225l-144 -231zM758 888q-12 -12 -27.5 -11t-26.5 10t-14.5 23.5t10.5 29.5l76 84q16 18 33 18.5t28 -9.5t13.5 -26t-10.5 -32z" />
    <glyph glyph-name="aeacute" unicode="&#x1fd;" horiz-adv-x="887" 
d="M582 -5q-45 -3 -82 6t-66 27q-56 -27 -122.5 -33.5t-123.5 11.5q-45 14 -75 43t-47.5 67t-22.5 82t-0.5 88t17.5 85.5t33 74.5q61 100 158 130.5t221 -6.5q46 24 107 30q44 4 84.5 -11.5t73.5 -41.5t55.5 -58t31.5 -62q4 -14 8.5 -30t3.5 -31t-10.5 -28t-34.5 -20
q-42 -12 -91.5 -21.5t-101 -17t-102 -14.5t-93.5 -15q5 -92 51 -137.5t130 -37.5q21 2 49.5 7.5t57 17t54.5 29.5t44 46q11 17 28 19.5t31 -5.5t20 -24t-5 -37q-18 -33 -52 -57.5t-73.5 -40.5t-81 -24.5t-74.5 -10.5zM215 82q32 -11 72.5 -8t80.5 17q-23 32 -35 70.5
t-14 78.5q-4 78 13.5 144t55.5 114q-30 9 -62 8t-62.5 -12t-57 -31.5t-44.5 -50.5q-21 -36 -33 -86t-8.5 -99t25.5 -89t69 -56zM407 339q5 -3 32 -1t64 7t79.5 12.5t79 14.5t61.5 13t29 8q-10 35 -29.5 60.5t-43.5 41t-50 22t-48 3.5q-78 -11 -124 -60t-50 -121zM432 663
q-12 -12 -27.5 -11t-26.5 10t-14.5 23.5t10.5 29.5l76 84q16 18 33 18.5t28 -9.5t13.5 -26t-10.5 -32z" />
    <glyph glyph-name="cent" unicode="&#xa2;" horiz-adv-x="569" 
d="M248 117q-68 11 -124 60.5t-79 136.5q-13 48 -13 101t13 103t39 95.5t65 78.5q33 28 77 40l-3 89q-1 18 11.5 25.5t28.5 6.5t29.5 -8.5t14.5 -19.5t2 -34.5t2 -53.5q30 -3 59.5 -13.5t55 -26.5t46 -38t33.5 -48q8 -17 2 -32t-18.5 -23t-28.5 -7.5t-27 15.5
q-30 40 -60.5 60t-58.5 27q2 -50 4 -108t4 -117t4 -117.5t5 -109.5l10 2t10 3q40 15 74 45t65 74q13 19 29 18.5t28 -11t15.5 -28t-8.5 -33.5q-29 -38 -50 -60.5t-39.5 -36t-37 -22t-43.5 -18.5q-24 -11 -48 -15q2 -26 3.5 -47t3.5 -36q2 -20 -11 -31t-30.5 -13t-32.5 6
t-17 27zM127 344q14 -57 45 -92.5t73 -48.5l-16 441q-4 -2 -7 -4l-6 -4q-33 -24 -55 -57.5t-33.5 -72t-11.5 -80.5t11 -82z" />
    <glyph glyph-name="eth" unicode="&#xf0;" horiz-adv-x="605" 
d="M464 661q28 -42 50 -87.5t37.5 -90.5t23 -88t7.5 -80q-1 -71 -17.5 -134t-50 -107.5t-85.5 -66t-123 -8.5q-41 8 -82.5 27.5t-77.5 48t-65 64.5t-45 76.5t-17 84t18 86.5q19 42 50.5 63.5t68.5 26.5t75.5 -2.5t71.5 -23.5q59 -27 112 -75t90 -100q4 47 -3 96t-23.5 97
t-41.5 93.5t-57 84.5l-220 -39q-18 -4 -27 7.5t-10.5 27.5t4.5 30.5t17 17.5q31 7 73 14l90 15q-39 33 -85 56q-18 9 -20.5 22.5t4.5 25t20 18.5t27 2q42 -16 80 -43t71 -63q29 6 58 13t58 15q19 5 32 -6.5t17.5 -28.5t-1 -33.5t-23.5 -20.5zM490 170q-19 28 -42 57.5
t-49.5 57.5t-56.5 51t-63 37q-21 9 -46.5 15t-49.5 4.5t-44.5 -13t-30.5 -36.5q-12 -47 4.5 -91.5t49.5 -81.5t76 -63.5t85 -36.5q40 -10 69 0.5t49 29t32 39t17 31.5z" />
    <glyph glyph-name="guilsinglleft" unicode="&#x2039;" horiz-adv-x="458" 
d="M80 180q-10 3 -15.5 13.5t-6 22.5t3.5 23t14 16l263 137q16 9 28.5 1t18.5 -23t5 -30.5t-11 -21.5l-178 -94l190 -74q10 -5 12 -20.5t-2.5 -30.5t-16 -24.5t-28.5 -1.5z" />
    <glyph glyph-name="guilsinglright" unicode="&#x203a;" horiz-adv-x="448" 
d="M112 73q-17 -8 -28.5 1.5t-16 24.5t-2.5 30.5t12 20.5l190 74l-178 94q-10 6 -11 21.5t5 30.5t18.5 23t28.5 -1l263 -137q10 -5 14 -16t3.5 -23t-6 -22.5t-15.5 -13.5z" />
    <glyph glyph-name="guillemotleft" unicode="&#xab;" horiz-adv-x="725" 
d="M80 180q-10 3 -15.5 13.5t-6 22.5t3.5 23t14 16l263 137q16 9 28.5 1t18.5 -23t5 -30.5t-11 -21.5l-178 -94l190 -74q10 -5 12 -20.5t-2.5 -30.5t-16 -24.5t-28.5 -1.5zM364 198q-10 3 -15.5 13.5t-6 22.5t3.5 23t14 16l263 137q16 9 28.5 1t18.5 -23t5 -30.5t-11 -21.5
l-178 -94l190 -74q10 -5 12 -20.5t-2.5 -30.5t-16 -24.5t-28.5 -1.5z" />
    <glyph glyph-name="guillemotright" unicode="&#xbb;" horiz-adv-x="703" 
d="M386 73q-17 -8 -28.5 1.5t-16 24.5t-2.5 30.5t12 20.5l190 74l-178 94q-10 6 -11 21.5t5 30.5t18.5 23t28.5 -1l263 -137q10 -5 14 -16t3.5 -23t-6 -22.5t-15.5 -13.5zM112 81q-17 -8 -28.5 1.5t-16 24.5t-2.5 30.5t12 20.5l190 74l-178 94q-10 6 -11 21.5t5 30.5
t18.5 23t28.5 -1l263 -137q10 -5 14 -16t3.5 -23t-6 -22.5t-15.5 -13.5z" />
    <glyph glyph-name="copyright" unicode="&#xa9;" horiz-adv-x="775" 
d="M454 185q-42 -12 -85.5 -9t-81 22t-67 54.5t-42.5 88.5q-11 39 -12.5 80.5t6.5 81.5t27 75.5t51 62.5q33 28 77 35t86.5 -3.5t79 -36t54.5 -62.5q7 -14 1 -28t-17 -23.5t-24.5 -11t-22.5 11.5q-20 29 -44.5 45.5t-49 23t-45.5 4.5t-33 -11q-27 -19 -43 -48t-23 -60
t-6.5 -61t6.5 -51q9 -35 28.5 -58t43.5 -35t51 -15t51 2q32 13 54.5 42t47.5 64q10 15 25.5 13.5t27.5 -12t17 -26t-4 -28.5q-11 -15 -24.5 -34t-30 -37.5t-36.5 -33.5t-43 -22zM315 5q-81 9 -138 51t-92.5 104t-50.5 136t-12 146q4 87 34 164t81.5 132.5t123.5 85.5t160 23
q63 -5 119 -29t98 -67.5t68 -105t29 -139.5q4 -119 -20 -216.5t-76.5 -164.5t-133.5 -99.5t-190 -20.5zM322 82q79 -11 142 16t107.5 81.5t67 132.5t20.5 168q-2 62 -22 113.5t-54 89.5t-79.5 60t-97.5 24q-71 3 -126.5 -24.5t-94 -74t-59.5 -107t-24 -123.5q-4 -75 9 -137
t41.5 -108t71 -74.5t98.5 -36.5z" />
    <glyph glyph-name="registered" unicode="&#xae;" horiz-adv-x="767" 
d="M315 5q-81 9 -138 51t-92.5 104t-50.5 136t-12 146q4 87 34 164t81.5 132.5t123.5 85.5t160 23q63 -5 119 -29t98 -67.5t68 -105t29 -139.5q4 -119 -20 -216.5t-76.5 -164.5t-133.5 -99.5t-190 -20.5zM322 82q79 -11 142 16t107.5 81.5t67 132.5t20.5 168
q-2 62 -22 113.5t-54 89.5t-79.5 60t-97.5 24q-71 3 -126.5 -24.5t-94 -74t-59.5 -107t-24 -123.5q-4 -75 9 -137t41.5 -108t71 -74.5t98.5 -36.5zM496 208q-35 42 -61 67.5t-49.5 41.5t-47.5 26.5t-56 22.5q-2 -20 -1.5 -36.5t2 -32.5t3.5 -33t3 -38q0 -9 -10 -14.5
t-22.5 -6t-23 4t-11.5 14.5q-1 11 -1 40.5t0.5 68.5t0.5 83.5t-0.5 86t-1 75.5t-2.5 53q-1 10 9.5 16t23.5 6.5t24.5 -3.5t12.5 -14v-21q32 17 63.5 26t60.5 8q33 -1 62 -11t49 -28.5t30.5 -46t6.5 -63.5q-5 -55 -47.5 -87.5t-102.5 -40.5q37 -26 78 -60t73 -77
q6 -8 -1.5 -16.5t-20 -14t-25.5 -5.5t-18 9zM500 510q0 13 -5 26t-15.5 24t-27 18t-40.5 7q-15 0 -32.5 -3.5t-34.5 -9.5t-31.5 -14.5t-24.5 -17.5q-2 -15 -1 -35.5t2 -52.5q24 -15 60 -16.5t69 7t57 26t24 41.5z" />
    <glyph glyph-name="uni1E02" unicode="&#x1e02;" horiz-adv-x="643" 
d="M26 820q-1 18 10.5 26t26 8t27 -6.5t13.5 -18.5v-10q78 18 144.5 19.5t116.5 -16.5t80 -55.5t33 -96.5q1 -21 -8.5 -46.5t-28 -51t-44 -48.5t-55.5 -39q37 4 82 -0.5t85.5 -24t71.5 -56t40 -97.5q8 -58 -11 -106t-57 -85.5t-90 -63.5t-109 -39.5t-114.5 -15t-106.5 11.5
q-5 -14 -18 -21t-27.5 -6.5t-26 8.5t-12.5 25zM542 295q-4 35 -28.5 58.5t-61 35.5t-82 14.5t-91 -3t-88.5 -18.5t-74 -32q2 -78 5 -147t7 -120q38 -11 85 -11.5t94.5 8.5t91.5 27.5t77.5 45.5t51.5 62.5t13 79.5zM386 669q3 35 -27.5 55t-74.5 27t-93 2.5t-84 -18.5
q2 -56 3.5 -130.5t3.5 -155.5q13 2 37.5 11.5t54 24t61 34.5t57.5 43.5t43 50.5t19 56zM273 935q10 -15 0.5 -31t-27 -25t-37.5 -7t-30 22q-10 21 -1.5 36.5t25.5 23t37 3.5t33 -22z" />
    <glyph glyph-name="uni1E03" unicode="&#x1e03;" 
d="M155 22q0 -19 -14 -29.5t-31.5 -11.5t-31.5 7.5t-14 27.5q0 36 -3 103.5t-8 149.5t-10.5 170t-11 165t-9 134.5t-4.5 79.5q0 12 12.5 20.5t28 10t28.5 -5t14 -25.5q4 -82 5 -158.5t13 -153.5q50 42 102.5 64t103 25t96.5 -12t82.5 -45.5t61.5 -76.5t33 -104q8 -61 1 -120
t-32.5 -107t-72 -80.5t-116.5 -41.5q-60 -8 -114.5 11.5t-108.5 54.5v-52zM518 346q-8 49 -31.5 83.5t-57 54.5t-73 24.5t-80 -6t-78.5 -36.5t-67 -67q2 -51 3 -101.5t8 -101.5q15 -33 45 -56.5t66 -37t74 -16t68 5.5q42 12 69 39.5t41 63t17 75.5t-4 76zM363 720
q10 -15 0.5 -31t-27 -25t-37.5 -7t-30 22q-10 21 -1.5 36.5t25.5 23t37 3.5t33 -22z" />
    <glyph glyph-name="uni1E0A" unicode="&#x1e0a;" horiz-adv-x="667" 
d="M26 820q0 16 9.5 24t22 9.5t25 -3.5t18.5 -14q65 14 131 11.5t127 -20.5t114 -51.5t91 -82t58 -112.5t15 -143q-7 -114 -52 -199.5t-115 -142t-159.5 -83.5t-186.5 -22q-9 -6 -21 -7.5t-23 2t-19 11t-9 19.5zM549 424q8 106 -27.5 179t-98.5 113t-145.5 48.5
t-168.5 -13.5q2 -43 4.5 -100t4.5 -120.5t4.5 -129.5t5 -128t5.5 -116t6 -92q81 -4 153 21.5t127 74t89.5 116t40.5 147.5zM277 967q10 -15 0.5 -31t-27 -25t-37.5 -7t-30 22q-10 21 -1.5 36.5t25.5 23t37 3.5t33 -22z" />
    <glyph glyph-name="uni1E0B" unicode="&#x1e0b;" horiz-adv-x="604" 
d="M488 70q-50 -44 -104 -59t-113 -18q-70 -4 -118.5 16t-78 58t-42 91t-10.5 115q3 89 44.5 155t106.5 99.5t145 30t160 -53.5q5 78 -2 154t-12 158q-1 18 11.5 25.5t28.5 6.5t29.5 -8.5t14.5 -19.5q2 -21 4 -78.5t4.5 -133t5.5 -162.5t6.5 -167.5t7.5 -147t8 -102.5
q2 -20 -11 -31t-30.5 -13t-32.5 6t-17 27zM101 276q-2 -37 3 -73.5t20 -66t42.5 -49.5t70.5 -24q31 -3 70 3.5t75.5 23t65.5 42t40 61.5q2 51 -2 101.5t-8 101.5q-33 36 -73 55t-81 22.5t-80 -8t-69.5 -37t-50.5 -64t-23 -88.5zM366 954q10 -15 0.5 -31t-27 -25t-37.5 -7
t-30 22q-10 21 -1.5 36.5t25.5 23t37 3.5t33 -22z" />
    <glyph glyph-name="uni1E40" unicode="&#x1e40;" horiz-adv-x="911" 
d="M770 682l-268 -455q-18 -29 -35.5 -37t-31.5 -4.5t-24.5 14t-15.5 18.5l-272 457q2 -50 4 -109.5t4 -121.5t4.5 -123t5 -115t5.5 -97t6 -69q2 -20 -11 -31t-30.5 -13t-32.5 6t-17 27l-29 798q0 12 9.5 21.5t22 14t25.5 3t20 -10.5q12 -18 34.5 -55t51 -85.5t61.5 -105
t66 -112t65 -107t59 -89.5q27 40 59 91t64.5 106.5t64.5 110.5t59 102t48 82t32 51q7 9 19.5 10t25 -4t22 -14t10.5 -19q2 -21 4.5 -78.5t5.5 -133t5.5 -162.5t6 -167.5t7 -147t7.5 -102.5q2 -20 -11 -31t-30.5 -13t-32.5 6t-17 27zM501 959q10 -15 0.5 -31t-27 -25
t-37.5 -7t-30 22q-10 21 -1.5 36.5t25.5 23t37 3.5t33 -22z" />
    <glyph glyph-name="uni1E1E" unicode="&#x1e1e;" horiz-adv-x="523" 
d="M32 784q0 15 7.5 24.5t19 15t25 8t26.5 2.5l410 16q18 1 25.5 -11.5t7 -28.5t-8 -29.5t-19.5 -13.5q-18 -2 -57 -3.5t-92.5 -3.5t-118.5 -4t-137 -5q0 -51 0.5 -125.5t-0.5 -155.5l337 21q18 1 26 -11.5t7 -28t-8.5 -29.5t-19.5 -15q-36 -3 -123 -9t-218 -13
q-2 -39 -2 -89.5t0.5 -101.5t1.5 -96.5t2 -74.5q1 -19 -12.5 -27t-29.5 -7t-29.5 9.5t-13.5 23.5zM307 959q10 -15 0.5 -31t-27 -25t-37.5 -7t-30 22q-10 21 -1.5 36.5t25.5 23t37 3.5t33 -22z" />
    <glyph glyph-name="uni1E1F" unicode="&#x1e1f;" horiz-adv-x="593" 
d="M169 352q2 -76 3 -129t2.5 -87.5t2 -54.5t1 -31t1 -16.5t0.5 -10.5q1 -20 -12.5 -28.5t-30 -7.5t-30.5 9t-14 20q-2 95 -4 177t-4 159h-52q-18 0 -25 12.5t-5.5 28.5t9.5 29.5t20 13.5q11 0 24 0.5t28 0.5q-1 47 -1.5 92.5t1.5 93.5q1 58 20 101.5t51 72.5t76 42.5
t96 10.5q31 -2 65.5 -8.5t67.5 -26t62 -55t49 -94.5q6 -18 -3 -30t-22.5 -17t-28 -1.5t-18.5 15.5q-18 51 -44.5 80t-54.5 43t-54 17t-43 3q-42 -1 -68.5 -22t-42 -51.5t-21.5 -63.5t-6 -58q1 -80 3 -144q70 -1 147.5 0t146.5 7q19 1 30 -12.5t12.5 -30.5t-7 -32t-27.5 -16z
M342 948q10 -15 0.5 -31t-27 -25t-37.5 -7t-30 22q-10 21 -1.5 36.5t25.5 23t37 3.5t33 -22z" />
    <glyph glyph-name="uni1E41" unicode="&#x1e41;" horiz-adv-x="1015" 
d="M25 556q-2 18 9.5 26.5t26.5 9.5t28 -5.5t14 -18.5l13 -89q45 49 99 79.5t110 29.5q72 2 123 -37t70 -98q13 39 38 66.5t55 44.5t62 24t60 7q81 -2 130 -43.5t75.5 -116t34.5 -177.5t8 -227q0 -20 -14 -30t-30.5 -10.5t-30 9.5t-12.5 31q4 92 1.5 180.5t-20 157.5
t-53.5 109.5t-99 37.5q-28 -2 -55.5 -15t-50 -34t-38 -48.5t-19.5 -56.5q-11 -83 -11 -159.5t5 -156.5q1 -20 -12.5 -30t-30 -10.5t-30.5 9.5t-14 31q2 58 1 145t-19 190q-6 32 -19.5 56.5t-32.5 40t-42 22.5t-47 4q-27 -3 -53.5 -18t-50.5 -35.5t-44.5 -44t-35.5 -44.5
q2 -93 5 -177t14 -144q3 -20 -9 -31.5t-28.5 -14t-32 5t-17.5 26.5zM553 720q10 -15 0.5 -31t-27 -25t-37.5 -7t-30 22q-10 21 -1.5 36.5t25.5 23t37 3.5t33 -22z" />
    <glyph glyph-name="uni1E60" unicode="&#x1e60;" horiz-adv-x="632" 
d="M296 -7q-39 1 -79.5 14.5t-78 39.5t-69 65t-52.5 92q-6 16 2.5 29t22 19.5t27.5 5t18 -14.5q24 -75 82.5 -121.5t137.5 -52.5q36 -2 77.5 4t76 21t54.5 41t13 65q-10 50 -47 81.5t-85 53t-99.5 37t-88.5 32.5q-52 24 -93 56t-63 72.5t-22 89.5t31 106q25 46 68.5 73.5
t96 38t108 5t103.5 -24.5t84 -51.5t49 -76.5q6 -20 -2 -32.5t-21.5 -17.5t-27 -1.5t-17.5 14.5q-13 32 -40 57.5t-62.5 41t-75 20t-78 -3.5t-71.5 -31t-55 -62q-23 -41 -14.5 -75t33.5 -61.5t59 -47t63 -29.5q25 -9 61.5 -21t76 -29t79 -39t70 -50.5t48.5 -64.5t15 -80
q-3 -56 -33.5 -93.5t-76 -59t-100 -29.5t-105.5 -5zM362 959q10 -15 0.5 -31t-27 -25t-37.5 -7t-30 22q-10 21 -1.5 36.5t25.5 23t37 3.5t33 -22z" />
    <glyph glyph-name="uni1E57" unicode="&#x1e57;" horiz-adv-x="610" 
d="M119 510q97 87 217 93q70 4 118.5 -18.5t78 -63.5t42 -96.5t10.5 -117.5q-2 -59 -21.5 -108.5t-52.5 -86.5t-77 -59.5t-94 -28.5t-104 6.5t-107 45.5q-2 -39 -1 -72.5t3.5 -66.5t5.5 -67.5t6 -75.5q1 -18 -11.5 -28.5t-28 -11.5t-29.5 7.5t-15 28.5q-2 21 -4 76.5
t-4.5 128.5t-5.5 156t-6.5 161t-7.5 142.5t-8 100.5q-2 19 11 30.5t30.5 13.5t32.5 -6t17 -27zM506 304q2 37 -3 75.5t-20.5 70t-43 53.5t-70.5 26q-31 3 -69.5 -5.5t-75 -27t-65.5 -46t-40 -63.5q-2 -51 2 -101.5t8 -101.5q33 -36 73 -55t81 -22.5t80 8t69.5 37t50.5 64
t23 88.5zM351 720q10 -15 0.5 -31t-27 -25t-37.5 -7t-30 22q-10 21 -1.5 36.5t25.5 23t37 3.5t33 -22z" />
    <glyph glyph-name="uni1E56" unicode="&#x1e56;" horiz-adv-x="670" 
d="M120 780q62 33 121.5 50.5t115.5 16.5q64 -1 119 -22t94 -60t59 -94.5t16 -124.5q-4 -59 -29 -108.5t-65 -86.5t-91.5 -59.5t-107.5 -28.5t-114 6.5t-111 45.5q-2 -39 -1 -72.5t3.5 -66.5t5.5 -67.5t6 -75.5q1 -18 -11.5 -28.5t-28 -11.5t-29.5 7.5t-15 28.5
q-2 21 -3 77.5t-3 131t-4 160t-4.5 165t-6 145t-7.5 101.5q-2 19 11 30.5t30.5 13.5t32.5 -6t17 -27v-40zM566 543q3 54 -13.5 95t-46.5 69.5t-71 43t-86 14.5q-29 0 -61 -7t-62 -19t-56.5 -27.5t-45.5 -32.5q-1 -15 -1 -45v-66.5t1 -75t3 -69.5q33 -36 77.5 -55t92.5 -22.5
t95 8t84.5 37t62 64t27.5 88.5zM381 959q10 -15 0.5 -31t-27 -25t-37.5 -7t-30 22q-10 21 -1.5 36.5t25.5 23t37 3.5t33 -22z" />
    <glyph glyph-name="uni1E61" unicode="&#x1e61;" horiz-adv-x="557" 
d="M188 1q-40 6 -70 24t-51 42.5t-32.5 53t-14.5 55.5q-2 19 8 29.5t24 13t27.5 -3t18.5 -18.5q6 -15 11.5 -35t18 -38t34 -32t59.5 -18q22 -2 49.5 0t55 8t52.5 16.5t43 26t27 35.5t4 46q-9 43 -39.5 61t-72 24.5t-87 8.5t-84.5 14q-49 16 -80 45t-44 64q-14 38 -6 76.5
t39 66.5q19 18 44.5 29.5t53 18t56.5 7t56 -4.5q51 -9 95.5 -31.5t84.5 -62.5q14 -14 11.5 -28t-14 -23t-26.5 -11t-26 7q-38 32 -75 51.5t-69 24.5q-15 2 -32.5 1t-35.5 -5t-34.5 -11t-28.5 -18q-29 -26 -15 -65q10 -26 40.5 -48.5t78.5 -27.5q34 -3 76.5 -6t82.5 -12.5
t72.5 -28.5t46.5 -55q20 -50 14.5 -91t-29 -72.5t-60 -54t-80 -35t-90 -16t-87.5 2.5zM324 720q10 -15 0.5 -31t-27 -25t-37.5 -7t-30 22q-10 21 -1.5 36.5t25.5 23t37 3.5t33 -22z" />
    <glyph glyph-name="uni1E6A" unicode="&#x1e6a;" horiz-adv-x="649" 
d="M605 845q18 -1 24 -13.5t3.5 -27.5t-11.5 -27t-21 -11h-43.5t-59 0.5t-70 0.5t-76.5 -1q1 -50 1.5 -117t1 -140.5t1 -148t1.5 -138t2.5 -112t3.5 -69.5q2 -19 -11 -30t-30 -13t-32 6t-16 27l-4 735q-24 -1 -55 -2.5t-61.5 -3t-58 -2.5t-45.5 -1q-19 0 -28.5 12.5
t-9.5 27.5t9 27t28 12zM370 959q10 -15 0.5 -31t-27 -25t-37.5 -7t-30 22q-10 21 -1.5 36.5t25.5 23t37 3.5t33 -22z" />
    <glyph glyph-name="uni1E6B" unicode="&#x1e6b;" horiz-adv-x="572" 
d="M198 609l-4 216q-1 18 11.5 25.5t28 6t28.5 -9.5t13 -20q1 -22 2 -81t3 -137h255q18 -1 24 -13.5t3.5 -27.5t-11.5 -27t-21 -11h-43.5t-59 0.5t-70 0.5t-76.5 -1q1 -75 2.5 -152.5t3.5 -147.5t4.5 -126.5t5.5 -88.5q2 -19 -11 -30t-30 -13t-32 6t-16 27l-9 525
q-48 -2 -92.5 -1t-79.5 1q-19 0 -28.5 12.5t-9.5 27.5t9 27t28 12h172zM274 964q10 -15 0.5 -31t-27 -25t-37.5 -7t-30 22q-10 21 -1.5 36.5t25.5 23t37 3.5t33 -22z" />
    <glyph glyph-name="exclam" unicode="!" horiz-adv-x="161" 
d="M44 20q-11 15 -1 31t27.5 25t37.5 7t30 -22q10 -21 1.5 -36.5t-25.5 -23t-37 -3.5t-33 22zM131 168q1 -18 -11.5 -25.5t-28.5 -6.5t-29.5 8.5t-14.5 19.5q-2 22 -3 67.5t-2 105t-2.5 127t-3.5 131.5t-5 119.5t-7 91.5q-2 19 11 30.5t30.5 13.5t32.5 -6t17 -27z" />
    <glyph glyph-name="quotedbl" unicode="&#x22;" horiz-adv-x="411" 
d="M156 528q-9 -20 -27.5 -22t-34.5 7t-23.5 26t5.5 34q10 14 20 32.5t12 40.5t-6.5 47t-33.5 52q-10 10 -4 23.5t19.5 22t30 9t28.5 -14.5q83 -106 14 -257zM334 548q-9 -20 -27.5 -22t-34.5 7t-23.5 26t5.5 34q10 14 20 32.5t12 40.5t-6.5 47t-33.5 52q-10 10 -4 23.5
t19.5 22t30 9t28.5 -14.5q83 -106 14 -257z" />
    <glyph glyph-name="numbersign" unicode="#" horiz-adv-x="782" 
d="M433 290l-146 -21q-5 -40 -8 -74.5t-4 -58.5q-1 -20 -16 -29t-32.5 -8t-31 11.5t-12.5 29.5l15 117l-132 -19q-18 -3 -26 9t-9 28t5.5 30t17.5 16q20 4 61 9.5t95 13.5l19 147l-155 -22q-18 -3 -26 9t-9 28t5.5 30t17.5 16q22 4 69.5 11t109.5 15l27 202q2 18 15.5 23
t29 1.5t27.5 -13.5t11 -21q-2 -23 -8.5 -70.5t-14.5 -108.5q37 5 74.5 10.5t73.5 10.5l23 170q2 18 15.5 23t29 1.5t27.5 -13.5t11 -21q-2 -20 -6.5 -58t-11.5 -88q39 6 72 12.5t57 11.5q19 4 32 -8t16.5 -29t-2.5 -33t-25 -20l-162 -23q-5 -36 -9.5 -72.5t-9.5 -73.5
q46 8 85.5 15t66.5 13q19 4 32 -8t16.5 -29t-2.5 -33t-25 -20l-184 -26q-6 -51 -10 -93.5t-6 -71.5q-1 -20 -16 -29t-32.5 -8t-31 11.5t-12.5 29.5zM316 503q-5 -37 -9.5 -73.5t-9.5 -73.5q36 5 73.5 10.5t74.5 11.5l19 146z" />
    </font>
</defs>
</svg>
