<?xml version="1.0" standalone="no"?>
<!DOCTYPE svg PUBLIC "-//W3C//DTD SVG 1.1//EN" "http://www.w3.org/Graphics/SVG/1.1/DTD/svg11.dtd" >
<svg xmlns="http://www.w3.org/2000/svg" xmlns:xlink="http://www.w3.org/1999/xlink" version="1.1">
<metadata>
Created by FontForge 20170924 at Wed May 13 16:02:28 2020
 By www-data
Childish Demo Version Balpirick Studio. 2019. All Rights Reserved
</metadata>
<defs>
<font id="Childish" horiz-adv-x="0" >
  <font-face 
    font-family="Childish"
    font-weight="400"
    font-stretch="normal"
    units-per-em="1000"
    panose-1="2 0 5 0 0 0 0 0 0 0"
    ascent="800"
    descent="-200"
    x-height="846"
    cap-height="1434"
    bbox="-300 -324 1400 1700"
    underline-thickness="50"
    underline-position="-75"
    unicode-range="U+001D-E111"
  />
<missing-glyph 
 />
    <glyph glyph-name="ft.lg" unicode="ft" horiz-adv-x="777" 
d="M99 -130c-25 10 -40 24 -57 57c-35 65 -59 187 -69 349c-1 28 -2 83 -2 140s1 115 2 148c9 173 33 357 64 499c23 100 31 115 66 122c6 1 10 2 14 2c6 0 12 -2 25 -6c31 -10 41 -19 41 -37c0 -6 -2 -14 -4 -17c-2 -4 -7 -22 -12 -40c-13 -56 -26 -123 -26 -124
c1 0 17 4 37 10c49 15 125 34 189 48c31 7 56 13 58 15c7 7 46 155 54 208c6 42 16 67 28 73c11 6 52 15 66 15c15 0 28 -5 35 -13c5 -5 5 -11 5 -128v-57c0 -39 0 -64 1 -64c2 0 25 3 51 7c65 10 115 15 150 15c23 0 39 -2 49 -6c15 -6 28 -21 30 -34c1 -2 1 -4 1 -7
c0 -11 -6 -24 -13 -31c-6 -6 -9 -7 -20 -7c-10 0 -13 1 -21 9l-8 9h-28c-36 0 -184 -19 -189 -25c0 0 -1 -34 -1 -92c0 -81 1 -208 2 -350l3 -441l-7 -14c-3 -7 -9 -16 -13 -19c-4 -4 -7 -5 -18 -5h-19c-34 0 -42 3 -51 18c-4 8 -6 15 -6 36c0 14 -3 67 -6 118
c-14 232 -19 342 -19 480c0 29 1 59 1 92c1 59 1 96 1 118c0 33 -1 37 -3 37c-3 -1 -8 -12 -15 -29c-53 -131 -157 -277 -244 -341c-13 -10 -37 -24 -53 -33c-16 -8 -29 -15 -29 -15s9 -10 20 -22c62 -65 89 -132 97 -233c1 -14 2 -30 2 -46c0 -86 -17 -195 -43 -274
c-19 -58 -41 -93 -68 -109c-9 -5 -22 -8 -33 -8c-5 0 -11 0 -15 2zM132 631c62 31 120 88 183 181c28 41 54 87 71 123c6 14 12 26 12 26c-4 0 -85 -17 -124 -27c-32 -7 -40 -10 -43 -15c-7 -11 -23 -14 -60 -15c-19 0 -36 0 -38 1c-9 0 -37 -196 -37 -267v-7
c0 -9 0 -13 5 -13c4 0 13 5 31 13zM158 23c19 67 29 138 32 215v23c0 109 -21 168 -82 233l-14 16v-37c0 -56 5 -198 8 -229c5 -59 21 -168 31 -208c6 -25 12 -45 14 -45c1 0 6 15 11 32z" />
    <glyph glyph-name="ee.lg" unicode="ee" horiz-adv-x="761" 
d="M-41 420c-2 14 -3 34 -3 57c0 27 1 56 4 76c2 15 3 22 3 27s-1 7 -4 10c-9 10 -14 26 -14 42c0 18 6 35 16 44c3 3 11 6 16 7l11 2l11 32c36 100 77 152 128 160c5 1 10 1 15 1c35 0 69 -18 85 -47c8 -15 12 -32 12 -51c0 -82 -69 -188 -136 -215l-17 -7l-4 -18
c-3 -13 -4 -47 -4 -79c0 -28 1 -55 3 -65c7 -34 20 -47 36 -47s35 14 55 34c42 42 80 102 131 205c42 84 72 161 121 244c15 26 33 58 55 84c26 29 53 42 78 42c47 0 85 -48 86 -116c0 -41 -11 -76 -35 -118s-61 -82 -90 -99l-14 -7l-1 -25v-25c0 -59 6 -123 18 -158
c6 -18 15 -25 25 -25c59 0 176 238 201 289c8 14 21 21 32 21c14 0 26 -10 26 -29c0 -6 -1 -14 -4 -22c-34 -95 -184 -341 -260 -364c-11 -3 -21 -5 -31 -5c-76 0 -127 97 -131 260l-2 49l-23 -45c-43 -82 -80 -142 -116 -184c-46 -54 -101 -83 -149 -83
c-62 0 -115 47 -130 148zM547 746c20 34 28 58 29 85l1 24l-17 -34c-17 -34 -36 -84 -39 -103l-2 -10l8 9c4 5 13 18 20 29zM130 666c25 36 40 78 40 121v8c-16 -31 -65 -131 -65 -155c0 0 0 -1 1 -1c2 0 14 13 24 27z" />
    <glyph glyph-name="ct.lg" unicode="ct" horiz-adv-x="891" 
d="M655 58c-21 7 -28 12 -34 24c-4 7 -6 42 -6 96c0 96 6 251 17 414c11 162 32 348 64 557c5 28 8 52 8 53s-2 2 -4 2h-3c-6 0 -9 -6 -39 -80c-113 -282 -204 -456 -312 -600c-46 -61 -100 -118 -139 -148c-46 -35 -90 -53 -129 -53c-32 0 -60 12 -83 36
c-36 37 -53 94 -53 167v12c3 68 17 123 49 189c53 105 139 183 199 183c4 0 7 0 11 -1c29 -6 47 -21 75 -64c16 -26 18 -31 18 -42s-1 -13 -9 -20c-6 -5 -12 -8 -19 -8c-5 0 -10 2 -15 5c-4 2 -14 13 -21 24c-8 12 -14 21 -15 21c-4 0 -30 -23 -44 -39
c-56 -64 -96 -178 -96 -264c0 -16 1 -31 4 -44c9 -44 23 -63 49 -63c3 0 6 1 9 1c16 1 31 12 69 49c100 96 208 266 302 476c34 74 106 246 106 253c-7 0 -83 -12 -108 -18c-14 -3 -30 -8 -35 -10c-5 -3 -26 -10 -46 -16c-23 -7 -32 -10 -38 -10c-3 0 -6 1 -9 2
c-14 5 -22 17 -22 30c0 5 2 12 6 17c15 20 97 45 221 65l59 10l9 24c8 22 58 158 87 240c23 64 25 66 83 66c47 -1 55 -3 64 -21c3 -7 5 -12 5 -17c0 -4 -2 -8 -4 -12c-6 -13 -17 -58 -25 -104c-7 -48 -20 -138 -20 -151v-1h2c8 0 40 3 77 6c93 9 144 13 171 13
c11 0 18 -1 23 -2c22 -5 35 -20 35 -35c0 -9 -4 -17 -13 -24c-6 -4 -12 -5 -42 -6c-46 -1 -228 -16 -255 -21l-9 -1l-3 -26c-1 -14 -6 -44 -11 -67c-11 -62 -17 -104 -20 -132c-2 -14 -7 -55 -12 -91c-5 -37 -11 -98 -14 -142c-3 -43 -8 -94 -11 -113
c-6 -39 -9 -104 -13 -244c-1 -50 -4 -101 -6 -115c-1 -10 -2 -23 -2 -36c0 -32 3 -71 9 -111c4 -25 6 -45 6 -54v-4c-3 -13 -14 -24 -27 -28c-7 -2 -16 -3 -26 -3c-15 0 -32 2 -45 6z" />
    <glyph glyph-name="cl.lg" unicode="cl" horiz-adv-x="794" 
d="M598 100c-40 21 -47 63 -49 321v90c0 150 4 284 14 458c1 8 1 15 1 21c0 5 0 8 -1 8c-1 -1 -7 -17 -15 -36c-57 -144 -149 -318 -233 -443c-99 -145 -175 -210 -243 -210h-6c-63 4 -92 54 -102 111c-3 18 -5 37 -5 57c0 119 58 261 120 349c22 32 63 71 86 84
c19 10 22 10 42 10s25 -1 37 -7c9 -4 23 -15 31 -24c14 -14 21 -25 21 -36c0 -7 -4 -14 -10 -20c-7 -6 -10 -7 -20 -7s-13 2 -22 10l-10 10c-79 -80 -142 -234 -142 -362c0 -35 5 -68 15 -97c1 0 10 6 20 13c95 72 256 335 358 583c20 51 53 141 69 193c26 82 33 111 39 159
c7 60 14 104 20 117c9 18 18 24 44 30c16 3 28 5 37 5c7 0 12 -1 17 -3c12 -5 23 -19 23 -28c0 -4 -5 -38 -10 -76c-18 -119 -25 -177 -29 -244c-3 -54 -14 -184 -19 -218c-2 -22 -4 -129 -4 -238c0 -67 0 -136 2 -185c3 -151 12 -244 28 -322c3 -17 5 -26 5 -33
c0 -3 -1 -6 -2 -9c-6 -20 -20 -29 -48 -33c-21 -2 -32 -4 -39 -4c-9 0 -12 2 -20 6z" />
    <glyph glyph-name="rr.lg" unicode="rr" horiz-adv-x="877" 
d="M452 275c-21 10 -22 13 -23 93v13c0 96 10 217 34 403c6 45 11 99 13 120c3 48 6 64 15 77c12 16 23 20 54 20c30 -1 39 -5 47 -20c2 -4 3 -6 3 -12s-2 -16 -5 -39c-10 -56 -32 -223 -34 -247l-2 -20l5 9c2 6 14 30 26 55c35 73 69 120 97 134c9 5 19 7 29 7
c9 0 18 -2 26 -6c6 -3 22 -16 36 -29c14 -12 29 -26 33 -30c7 -5 9 -9 10 -19v-3c0 -15 -6 -24 -19 -31c-6 -3 -11 -4 -16 -4c-12 0 -23 8 -44 29c-14 13 -26 23 -27 23c-12 0 -55 -72 -84 -140c-23 -52 -58 -150 -78 -219c-9 -30 -9 -30 -9 -84c0 -48 -1 -54 -6 -64
c-7 -16 -21 -22 -48 -22c-17 0 -24 1 -33 6zM-4 364c-15 8 -21 23 -23 55c-1 8 -1 18 -1 30c0 59 6 161 14 234c1 13 4 46 5 73c4 84 18 137 40 149c3 1 18 4 33 5c6 0 11 1 15 1c20 0 28 -4 36 -15c4 -6 6 -12 6 -22c0 -12 -3 -28 -8 -54c-11 -53 -21 -117 -26 -173
c-3 -24 -4 -37 -4 -43c0 -2 0 -4 1 -4s3 4 6 9c4 8 18 32 31 54c54 95 89 157 155 157c19 0 40 -5 64 -15c19 -6 32 -9 39 -9h8c17 0 28 -14 28 -30c0 -12 -6 -24 -19 -32c-6 -4 -12 -6 -21 -6c-12 0 -29 4 -54 12c-20 7 -41 12 -45 12c-10 0 -37 -26 -59 -59
c-33 -49 -85 -143 -126 -232c-30 -62 -40 -80 -49 -89c-9 -8 -18 -12 -28 -12c-6 0 -12 1 -18 4z" />
    <glyph glyph-name="tt.lg" unicode="tt" horiz-adv-x="656" 
d="M450 2c-17 2 -37 9 -43 15c-10 9 -12 7 -12 117v119c0 120 1 254 2 299l1 81l-10 -33c-46 -141 -96 -259 -134 -318c-17 -26 -52 -61 -69 -69c-10 -5 -22 -8 -33 -8c-8 0 -17 2 -24 4c-67 24 -111 170 -131 437c-2 30 -3 80 -3 133c0 93 3 195 8 220l1 8l-8 -8
c-9 -10 -22 -13 -50 -13h-12c-32 1 -32 1 -41 9c-6 7 -9 14 -9 22c0 5 1 10 4 15c7 12 23 18 75 34c23 6 43 12 45 13c1 0 5 16 7 35c17 129 53 295 69 316c9 12 19 16 39 16h7c20 0 23 -1 37 -10c11 -6 17 -12 21 -19c3 -5 4 -7 4 -11s-1 -8 -4 -18
c-12 -38 -61 -266 -61 -278c1 0 27 5 57 12c57 13 160 35 208 43l25 5l2 29c0 16 2 70 4 119c1 58 3 94 5 100c7 20 21 29 46 29c4 0 8 -1 13 -1c25 -3 34 -7 41 -22c3 -6 5 -11 5 -35c0 -11 -1 -26 -1 -47c-1 -40 -2 -91 -3 -113v-21c0 -14 0 -19 2 -19s30 5 64 10
c116 18 194 26 244 26c29 0 49 -3 62 -8c17 -8 27 -23 27 -37c0 -12 -6 -23 -18 -31c-5 -4 -13 -6 -20 -6c-9 0 -18 3 -24 9c-7 6 -8 7 -32 7c-44 0 -141 -12 -269 -32l-37 -6l-1 -62c-1 -34 -6 -280 -10 -546c-9 -539 -7 -494 -26 -507c-5 -4 -11 -6 -21 -6
c-5 0 -11 1 -19 2zM208 335c42 71 95 210 131 339c24 84 49 199 66 290c5 31 9 88 9 118c0 12 -1 19 -2 19c-12 0 -290 -58 -293 -61c-1 -1 -3 -18 -6 -38c-2 -25 -4 -63 -4 -124c1 -94 3 -149 12 -211c2 -22 8 -69 13 -106c10 -87 14 -111 22 -141c9 -34 35 -106 38 -106
c1 0 7 10 14 21z" />
    <glyph glyph-name="ll.lg" unicode="ll" horiz-adv-x="713" 
d="M506 -163c-15 6 -26 19 -29 34c-17 79 -39 413 -42 647l-2 115l-23 -63c-126 -337 -188 -446 -267 -462c-4 -1 -9 -1 -13 -1c-25 0 -51 13 -73 37c-53 58 -92 194 -109 381c-4 40 -6 121 -6 193c0 39 1 75 2 101c13 231 50 466 97 611c15 47 18 49 67 49
c35 0 41 -2 51 -16c3 -5 5 -10 5 -16c0 -7 -3 -13 -7 -20c-7 -9 -24 -58 -34 -98c-27 -101 -44 -219 -56 -384c-2 -31 -4 -106 -4 -180s2 -148 4 -177c16 -204 48 -344 88 -383c5 -5 8 -7 9 -7s2 1 4 3c12 14 26 37 38 59c55 98 183 429 229 592c8 29 10 40 14 92
c12 166 30 323 48 410c17 79 29 100 65 100h8c33 -2 43 -15 43 -59c0 -28 -10 -219 -12 -233c-1 -5 -3 -28 -4 -50c-4 -63 -10 -129 -19 -201c-9 -77 -12 -105 -12 -160c0 -26 1 -59 2 -107c2 -75 4 -205 4 -288c1 -146 3 -242 9 -295c1 -14 4 -38 5 -55c2 -17 6 -50 9 -73
c2 -20 3 -37 3 -46v-8c-3 -16 -16 -28 -41 -38c-13 -5 -23 -8 -32 -8c-6 0 -12 2 -19 4z" />
    <glyph glyph-name="al.lg" unicode="al" horiz-adv-x="981" 
d="M750 14c-22 3 -31 9 -39 28c-7 19 -10 36 -10 116c0 29 0 66 1 114c2 302 9 492 23 712c2 28 3 51 3 51s-9 -34 -20 -74c-47 -173 -101 -346 -137 -437c-10 -25 -27 -64 -38 -87c-48 -96 -85 -136 -133 -139h-8c-23 0 -39 8 -60 29c-40 40 -69 122 -83 236
c-4 30 -5 43 -8 43s-6 -9 -13 -26c-30 -75 -67 -143 -101 -189c-30 -40 -69 -66 -103 -66c-33 0 -62 25 -73 89c-3 19 -5 41 -5 64c0 58 10 129 28 204c20 79 49 149 79 191c24 34 52 50 80 50c38 0 78 -30 115 -90c1 -1 2 -2 4 -2c4 0 11 2 26 8c15 5 25 8 34 8
c8 0 15 -3 22 -8c12 -8 15 -19 18 -69c4 -55 15 -166 20 -200c11 -74 30 -140 48 -170l8 -12l13 20c57 88 124 278 207 589c59 220 118 496 136 633c9 67 13 70 70 70c42 0 54 -3 62 -19c2 -5 4 -9 4 -16c0 -8 -2 -21 -6 -44c-2 -13 -6 -42 -9 -66s-10 -76 -16 -115
c-5 -40 -11 -85 -13 -101c-1 -16 -4 -48 -7 -71c-2 -23 -5 -61 -7 -85c-3 -24 -6 -57 -8 -74c-2 -16 -4 -41 -5 -56c-1 -14 -3 -34 -4 -43c-2 -10 -5 -54 -8 -100c-3 -45 -7 -107 -9 -137c-6 -75 -9 -139 -9 -214c0 -56 2 -118 5 -195c1 -45 4 -130 6 -189
c1 -40 2 -68 2 -87c0 -42 -4 -47 -16 -59c-11 -11 -29 -16 -50 -16c-5 0 -11 0 -16 1zM91 455c30 44 70 131 103 225l14 40l-1 28c-1 20 -2 31 -7 43c-6 15 -27 46 -33 48c-10 0 -48 -94 -68 -164c-18 -65 -28 -127 -29 -192c0 -16 -1 -28 -1 -35c0 -13 1 -17 3 -17
c2 1 10 11 19 24z" />
    <glyph glyph-name="et.lg" unicode="et" horiz-adv-x="913" 
d="M677 28c-18 4 -28 11 -35 25c-3 6 -5 11 -5 73c0 28 1 67 1 123c0 266 8 540 25 832c3 37 4 73 4 81v14l-18 -2l-34 -101c-115 -344 -196 -515 -307 -645c-49 -58 -120 -118 -186 -118c-32 0 -62 14 -88 48c-33 44 -53 136 -53 212v10c0 16 1 27 1 35c0 18 -2 21 -5 26
s-6 13 -6 24v8c0 9 1 16 7 29c5 12 12 22 17 27c7 6 11 14 18 37c35 104 94 148 142 148c43 0 77 -35 77 -93c0 -24 -6 -52 -19 -83c-26 -60 -64 -104 -106 -123l-14 -6l1 -43c3 -71 10 -171 60 -171c18 0 42 13 73 44c62 62 130 165 187 291c24 54 55 131 82 203
c25 71 77 224 77 232c-1 0 -66 -7 -144 -16s-148 -16 -154 -16c-24 0 -38 12 -38 31c0 22 14 32 45 32c14 0 233 26 303 36l12 2l17 55c9 30 24 81 32 113c27 97 30 106 41 119c14 16 25 20 63 25c16 3 24 4 30 4c5 0 8 -1 13 -4s11 -9 14 -15c3 -5 4 -9 4 -26
c0 -15 -1 -40 -3 -87c-3 -56 -5 -115 -6 -130l-2 -28l42 5c23 3 73 9 112 14c45 6 68 8 80 8s16 -2 21 -7c6 -7 8 -10 8 -20c0 -31 -24 -38 -182 -58c-45 -5 -82 -9 -82 -10c-1 0 -5 -99 -10 -220s-16 -375 -23 -565c-10 -230 -16 -347 -18 -351c-6 -13 -17 -21 -33 -26
c-10 -3 -15 -5 -20 -5c-4 0 -9 1 -18 3zM127 713c21 29 39 76 39 101v4l-1 13l-8 -10c-20 -21 -38 -60 -49 -105c-4 -15 -7 -28 -7 -29s0 -1 1 -1c3 0 14 12 25 27z" />
    <glyph glyph-name="at.lg" unicode="at" horiz-adv-x="1044" 
d="M857 90c-14 1 -29 3 -35 5c-8 3 -25 18 -25 23c0 1 -2 23 -4 49c-9 119 -15 316 -15 520c0 153 4 368 7 420c1 7 1 12 1 15c0 4 -1 5 -3 5h-2c-16 0 -18 -1 -27 -33c-46 -147 -95 -294 -123 -362c-28 -71 -64 -139 -101 -193c-46 -68 -101 -116 -149 -116
c-38 0 -72 29 -96 98c-12 38 -21 86 -24 143c-1 15 -2 32 -3 39l-1 11l-19 -35c-72 -137 -145 -251 -187 -291c-22 -20 -40 -29 -56 -29c-34 0 -51 45 -51 99v12c2 57 14 117 41 196c35 106 76 185 110 213c20 17 33 22 54 22c15 0 20 -1 34 -9c9 -5 26 -18 38 -28
c11 -11 22 -20 23 -20c2 0 5 5 7 10c8 20 39 34 64 34c11 0 21 -2 28 -8c12 -10 16 -24 22 -77c12 -109 25 -184 39 -228c12 -38 18 -56 27 -56s21 22 47 62c62 94 98 178 169 398c31 97 40 124 40 128v1h-1c-9 0 -103 -23 -143 -35c-19 -5 -23 -8 -27 -14
c-6 -10 -18 -15 -45 -17c-6 0 -10 -1 -14 -1c-7 0 -11 1 -16 4c-10 5 -16 16 -16 27c0 8 3 15 8 21c15 16 83 40 191 66c41 10 77 19 80 20c5 1 8 9 22 58c23 82 48 179 62 242c7 29 14 56 16 60c5 11 14 17 41 29c20 9 37 13 51 13c16 0 28 -6 33 -18c2 -4 3 -9 3 -13v-4
c0 -5 -2 -15 -4 -23c-4 -21 -15 -129 -18 -174c-2 -22 -5 -59 -7 -83c-2 -18 -3 -34 -3 -42v-4c1 0 28 4 61 10c164 29 316 47 386 47c18 0 30 -2 36 -4c10 -4 17 -15 17 -26c0 -5 -2 -9 -4 -14c-8 -15 -21 -18 -104 -25c-103 -10 -192 -22 -318 -44c-33 -6 -64 -11 -69 -12
l-8 -1l-2 -40c-1 -27 -1 -149 -1 -249c0 -73 0 -134 1 -135s2 -50 2 -108s1 -128 2 -156c7 -125 8 -153 13 -216c3 -37 7 -76 10 -87c2 -12 3 -20 3 -27c0 -8 -2 -14 -5 -21c-8 -17 -17 -23 -41 -23c-6 0 -14 0 -22 1zM789 1203v5c-1 0 -1 -1 -2 -3c-2 -3 -3 -6 -3 -7
s1 -2 3 -2c1 0 2 3 2 7zM131 623c14 24 40 72 58 105l31 60l-7 4c-4 2 -12 8 -19 14c-7 5 -13 10 -14 10c-4 0 -62 -140 -78 -190c-6 -20 -20 -77 -20 -83v-1c3 0 19 27 49 81z" />
    <glyph glyph-name="ah.lg" unicode="ah" horiz-adv-x="1204" 
d="M1011 276c-19 6 -26 19 -31 58c-9 65 -26 218 -31 280c-8 104 -24 256 -27 259c-3 0 -37 -55 -58 -92c-23 -40 -66 -127 -83 -168l-13 -29l-6 -99c-3 -55 -8 -104 -9 -108c-7 -17 -22 -27 -44 -27c-3 0 -6 1 -9 1c-20 2 -45 8 -55 13c-10 6 -16 18 -18 41
c-1 6 -1 15 -1 29c0 67 8 226 25 467c4 65 7 120 7 123c-1 0 -8 -28 -18 -64c-10 -38 -23 -88 -30 -110c-58 -198 -131 -335 -195 -366c-12 -6 -25 -9 -38 -9c-11 0 -22 2 -32 7c-46 21 -74 86 -86 196l-3 32l-26 -50c-83 -160 -126 -230 -167 -271c-23 -23 -45 -35 -65 -35
c-12 0 -23 5 -33 14c-18 17 -23 32 -24 79v14c0 37 4 67 17 119c29 120 82 235 129 283c23 22 40 30 67 30c19 0 23 -1 37 -9c15 -8 35 -26 46 -42c2 -3 3 -5 5 -5c0 0 1 1 2 3c6 10 20 24 26 27c4 2 19 7 33 11c13 3 22 5 29 5c9 0 15 -3 21 -9c7 -8 8 -10 10 -40
c2 -39 16 -152 22 -183c5 -30 16 -73 20 -81l4 -6l9 12c32 39 75 129 108 228c36 107 90 329 133 543c21 101 28 143 31 184c5 68 6 75 19 86c12 10 20 13 56 17c12 1 19 2 24 2c8 0 11 -1 18 -5c9 -5 14 -10 18 -18l6 -12l-13 -210c-32 -511 -38 -621 -38 -622
c1 0 7 11 15 25c41 77 94 154 124 181c23 21 34 26 57 26c18 0 21 -1 31 -8c21 -15 36 -43 45 -87c7 -38 10 -72 13 -183c5 -205 8 -286 11 -325c4 -34 5 -40 10 -46c4 -3 9 -13 12 -21c4 -7 5 -11 5 -15c0 -3 -1 -5 -2 -9c-3 -10 -15 -22 -24 -24c-3 -1 -15 -3 -26 -5
c-13 -3 -20 -4 -26 -4c-5 0 -9 1 -14 2zM100 559c25 43 107 201 109 209v3c0 3 -1 6 -3 9c-3 3 -9 12 -14 20c-5 7 -9 13 -9 13c-2 0 -32 -56 -49 -94c-27 -58 -63 -167 -69 -210l-2 -11l9 13c4 7 17 29 28 48z" />
    <glyph glyph-name="ot.lg" unicode="ot" horiz-adv-x="826" 
d="M591 168c-18 10 -20 17 -27 74c-6 60 -12 247 -12 380v50c2 121 12 274 26 407c1 12 2 21 2 26c0 3 0 4 -1 4c-2 0 -7 -9 -17 -27c-23 -42 -55 -90 -86 -130c-29 -37 -86 -96 -117 -118c-36 -27 -73 -48 -116 -48c-5 0 -11 0 -16 1c3 -15 4 -33 4 -54
c0 -73 -15 -172 -31 -219c-18 -54 -37 -94 -65 -130s-60 -55 -90 -55c-9 0 -17 2 -26 5c-57 25 -73 92 -73 153c0 20 2 39 4 56c8 55 25 108 54 168c17 36 67 139 123 163c9 3 16 5 22 5c15 0 25 -8 37 -15c15 -9 30 -12 45 -12c92 0 194 137 234 199c13 19 29 45 36 59
c14 26 42 89 42 93h-1c-7 0 -93 -13 -183 -27c-47 -8 -77 -14 -84 -17c-8 -4 -16 -5 -44 -6h-34l-7 8c-6 6 -8 13 -8 20c0 11 6 21 16 26c16 7 189 39 345 64c14 2 25 4 26 4c4 5 45 157 54 203c8 39 12 46 26 54c10 5 15 6 47 6c39 -1 47 -3 55 -15c3 -5 4 -9 4 -15
c0 -7 -2 -18 -7 -38c-4 -18 -10 -45 -13 -62c-5 -31 -12 -94 -12 -109v-3c1 0 24 1 53 5c57 6 100 9 132 9c49 0 74 -7 93 -21c13 -9 19 -22 19 -33c0 -6 -2 -13 -7 -18c-6 -7 -12 -10 -20 -10c-7 0 -14 2 -24 6c-18 8 -19 8 -69 8c-38 0 -68 -2 -118 -8
c-37 -4 -67 -7 -67 -8c-1 0 -5 -40 -9 -88s-8 -89 -9 -91c-1 -4 -5 -38 -12 -100c-2 -18 -6 -169 -6 -244v-19c0 -93 7 -297 10 -323c2 -15 5 -42 5 -59c0 -16 2 -45 3 -63c1 -11 1 -19 1 -24c0 -10 -1 -13 -6 -21c-7 -12 -22 -24 -36 -28c-7 -2 -17 -2 -28 -2
c-16 0 -31 1 -37 4zM97 445c39 62 69 172 69 248c0 9 -1 19 -2 27c-3 24 -11 53 -17 64c-1 3 -2 4 -4 4s-6 -6 -14 -23c-20 -40 -35 -85 -50 -145c-14 -58 -22 -107 -22 -148c0 -19 2 -36 5 -51l3 -14l10 10c6 5 16 18 22 28z" />
    <glyph glyph-name="ol.lg" unicode="ol" horiz-adv-x="773" 
d="M592 -5c-7 1 -20 3 -29 4c-10 1 -21 3 -26 6c-14 9 -16 17 -19 67c-2 31 -3 153 -3 280s1 258 3 307c5 127 16 291 28 414c2 20 3 37 3 37c-1 0 -6 -10 -12 -20c-46 -88 -105 -171 -165 -231c-51 -50 -99 -80 -149 -92c-17 -5 -23 -7 -23 -9v-1c12 -35 17 -76 17 -119
c0 -98 -29 -206 -81 -276c-25 -34 -48 -48 -69 -48c-44 0 -75 64 -83 130c-2 14 -3 30 -3 47c0 122 41 302 84 348c12 13 25 20 39 20s28 -7 41 -21c9 -10 9 -10 29 -10c26 0 47 6 74 20c101 53 212 208 288 401c32 82 41 116 52 188c11 81 20 130 29 163c8 30 12 38 20 42
c6 3 37 14 58 21c5 1 9 2 13 2c10 0 18 -5 25 -15c5 -7 8 -13 8 -24c0 -10 -2 -24 -6 -46c-7 -34 -22 -146 -28 -202c-1 -15 -6 -46 -9 -68c-12 -73 -18 -127 -24 -213c-2 -30 -6 -74 -9 -98c-6 -51 -12 -141 -15 -240c-2 -39 -4 -90 -5 -113c-1 -18 -2 -40 -2 -71
c0 -65 3 -169 9 -360c1 -41 3 -100 3 -132v-56l-9 -13c-10 -15 -19 -21 -35 -21c-6 0 -12 1 -19 2zM149 593c2 12 2 27 2 42c0 30 -2 62 -7 78c-3 10 -7 20 -8 22c-1 1 -2 1 -3 1c0 -1 -6 -29 -13 -64c-10 -46 -28 -136 -28 -200c0 -19 1 -36 5 -48c26 46 45 117 52 169z
" />
    <glyph glyph-name="oo.lg" unicode="oo" horiz-adv-x="675" 
d="M22 244c-20 6 -39 24 -52 50c-15 29 -22 69 -22 121c0 54 8 120 23 198c22 110 53 197 81 227c13 14 29 22 43 22c9 0 18 -3 26 -10c3 -3 9 -4 18 -4c12 -1 17 -2 36 -15c30 -19 56 -27 93 -27c18 0 32 2 47 6c24 7 75 31 102 49c10 7 20 10 30 10c39 0 74 -45 92 -78
c17 -32 23 -73 23 -115c0 -46 -7 -92 -14 -129c-22 -108 -71 -179 -123 -179c-53 0 -76 52 -84 97c-2 13 -3 28 -3 45c0 57 12 136 33 219c4 17 7 30 7 31c0 0 -13 -3 -28 -8s-35 -11 -44 -12c-11 -2 -25 -3 -40 -3c-14 0 -28 1 -38 3c-8 1 -15 2 -16 2c0 -1 3 -11 7 -24
c11 -31 16 -63 16 -98c0 -38 -6 -81 -19 -130c-20 -81 -48 -146 -83 -192c-28 -37 -57 -56 -87 -58c-9 0 -20 0 -24 2zM474 528c13 44 18 83 19 139c0 14 1 26 1 35c0 16 -1 25 -3 32l-4 14l-3 -10c-4 -13 -20 -99 -27 -144c-3 -20 -5 -54 -6 -80l-1 -46l9 18
c5 10 12 29 15 42zM91 355c27 41 60 134 72 207c3 17 5 39 5 59s-2 40 -5 52c-4 19 -26 78 -30 83c-4 0 -14 -31 -21 -63c-19 -82 -34 -155 -38 -195c-4 -30 -7 -96 -7 -133c0 -10 1 -18 1 -22l2 -15l6 7c3 4 10 13 15 20z" />
    <glyph glyph-name="as.lg" unicode="as" horiz-adv-x="826" 
d="M286 343c-31 14 -53 57 -64 123c-3 19 -7 66 -9 109l-2 28l-14 -34c-39 -96 -68 -151 -100 -188c-20 -23 -43 -34 -64 -34c-26 0 -49 15 -64 43c-11 22 -16 50 -16 79c0 45 10 94 19 130c11 52 54 152 78 186c26 36 68 64 106 64c26 0 51 -15 66 -51l6 -13
c17 0 32 1 43 1c27 0 39 -6 40 -49c0 -32 16 -207 22 -243c8 -43 10 -54 12 -54c4 0 32 47 56 93c26 52 43 88 57 126l10 26l-5 23c-4 22 -7 43 -7 63c0 12 1 24 3 35c7 50 23 86 42 95c5 3 11 4 18 4c20 0 43 -13 49 -35c1 -5 2 -14 2 -25c0 -19 -2 -46 -7 -68l-6 -26
l7 -17c21 -53 46 -95 82 -137c29 -33 37 -45 43 -63c3 -9 4 -19 4 -28c0 -50 -35 -101 -92 -129c-37 -19 -84 -30 -118 -30c-9 0 -17 0 -24 2c-16 4 -34 21 -37 34c0 2 -1 4 -1 6c0 17 13 29 30 29h5c17 -2 28 -3 38 -3c9 0 16 1 25 3c25 6 33 11 45 29c8 12 12 23 12 37
c0 7 -2 15 -4 24c-5 18 -9 25 -35 54c-9 10 -20 23 -24 28l-7 10l-7 -18c-14 -32 -59 -119 -76 -147c-44 -70 -75 -97 -113 -97c-7 0 -18 2 -24 5zM93 500c13 26 36 77 51 114l27 69c0 12 1 26 1 40c0 21 -2 42 -11 59c-51 -60 -80 -160 -95 -236c-6 -31 -11 -80 -11 -97v-5
c1 -2 1 -3 2 -3c2 0 4 2 7 6s17 28 29 53z" />
    <glyph glyph-name="ak.lg" unicode="ak" horiz-adv-x="1131" 
d="M716 207c-14 3 -29 13 -35 23c-7 14 -10 71 -25 424c-1 36 -3 136 -4 223l-2 157l-9 -35c-5 -20 -18 -69 -28 -110c-50 -187 -86 -302 -121 -373c-30 -61 -76 -109 -119 -109c-32 0 -63 27 -85 95c-10 28 -17 63 -23 104l-3 23l-29 -57c-43 -84 -77 -142 -107 -183
c-37 -50 -74 -72 -105 -72c-50 0 -85 57 -85 140c0 20 2 40 6 62c6 33 35 116 55 160c35 76 96 209 193 221c4 0 8 1 11 1c34 0 64 -21 86 -63c4 -10 10 -17 11 -17c2 0 10 1 19 3c6 2 14 3 19 3h4c11 -3 22 -16 25 -31s38 -274 53 -274c6 0 43 88 64 154
c14 41 46 153 65 226c55 208 92 375 109 493c12 85 13 87 17 95c8 12 28 19 63 21c9 0 15 1 20 1c11 0 14 -2 20 -5c11 -6 15 -13 15 -25c0 -8 -1 -18 -4 -31c-1 -8 -3 -44 -5 -82c-3 -81 -10 -187 -14 -238c-2 -28 -3 -81 -3 -141c0 -106 3 -235 8 -297l2 -20l28 27
c15 15 38 37 50 48c22 20 23 21 23 32c0 14 9 25 36 43c28 19 49 28 63 28c12 0 20 -5 25 -16c3 -5 5 -10 5 -15c0 -14 -15 -29 -59 -71c-27 -26 -76 -74 -108 -105l-58 -58l2 -25c4 -33 4 -36 11 -38c3 0 27 -3 53 -5c78 -7 96 -9 111 -15c28 -10 48 -31 48 -52
c-1 -18 -11 -29 -26 -29c-8 0 -17 3 -27 9c-17 11 -27 13 -94 19c-30 2 -56 4 -59 5c-1 0 -2 1 -3 1c-2 0 -2 -2 -2 -6v-11c1 -10 3 -33 5 -51c3 -18 5 -60 7 -93c1 -22 1 -36 1 -45c0 -15 -1 -18 -4 -23c-7 -11 -18 -16 -44 -20c-12 -1 -19 -2 -24 -2s-10 1 -19 2zM107 482
c49 80 107 197 123 251c10 32 14 43 14 50c0 6 -3 9 -6 17c-9 18 -17 28 -23 28c-12 0 -46 -46 -69 -93c-32 -64 -65 -165 -81 -238c-7 -37 -11 -60 -11 -72c0 -8 1 -11 4 -11c7 0 24 28 49 68z" />
    <glyph glyph-name="il.lg" unicode="il" horiz-adv-x="682" 
d="M26 935c-5 10 -7 19 -7 28c0 26 22 44 48 44c27 0 46 -17 50 -39c0 -2 1 -5 1 -7c0 -29 -26 -55 -52 -55c-15 0 -30 9 -40 29zM502 73c-35 9 -43 23 -52 91c-13 103 -23 332 -23 522c0 57 1 110 3 155c3 72 7 161 9 182v1c-2 0 -18 -43 -47 -130
c-83 -244 -119 -338 -166 -433c-58 -116 -102 -164 -151 -164c-48 0 -82 47 -97 131c-4 21 -6 62 -6 102c0 22 1 44 2 61c5 63 17 143 30 204c3 15 31 29 65 33c5 0 9 1 12 1c17 0 25 -4 32 -15c3 -5 4 -9 4 -18s-1 -24 -5 -52c-4 -24 -8 -58 -10 -76c-1 -18 -4 -48 -5 -66
c-1 -15 -2 -41 -2 -74v-39c2 -80 4 -101 7 -101h1c5 1 31 41 47 72c53 96 125 287 214 560c69 214 99 322 111 398c9 53 11 60 21 72c13 15 25 18 62 19h20c13 0 17 -1 23 -5c11 -7 17 -18 17 -31c0 -4 0 -9 -2 -13c-4 -10 -6 -26 -16 -109c-4 -36 -11 -87 -14 -112
c-11 -75 -23 -228 -28 -343c-1 -29 -2 -85 -2 -149c0 -136 3 -310 6 -353c5 -64 12 -128 24 -208c4 -33 8 -61 8 -71v-2c-3 -15 -15 -25 -38 -35c-14 -5 -24 -7 -35 -7c-6 0 -12 1 -19 2z" />
    <glyph glyph-name="it.lg" unicode="it" horiz-adv-x="739" 
d="M82 1032c15 -8 22 -22 22 -39c0 -4 0 -8 -1 -12c-7 -31 -28 -51 -51 -51c-11 0 -22 5 -32 17s-14 25 -14 36c0 30 26 55 54 55c7 0 15 -2 22 -6zM485 253c-10 5 -23 25 -23 36c0 4 1 11 3 15s3 8 3 19c0 8 0 19 -1 36c-6 127 -10 303 -10 441c0 58 1 109 2 147
c3 88 7 176 9 191v6c0 3 -1 3 -6 3c-6 -1 -8 -5 -28 -64c-81 -237 -173 -462 -235 -575c-59 -111 -100 -155 -144 -155c-38 0 -64 29 -79 86c-5 21 -6 28 -6 100c1 64 2 86 6 126c11 91 27 177 35 190c9 16 31 25 62 25c19 0 31 -6 38 -19c3 -6 4 -12 4 -21
c0 -11 -1 -26 -5 -50c-6 -44 -11 -101 -15 -163c-1 -17 -2 -39 -2 -61c0 -34 2 -69 4 -87l2 -12l10 17c57 91 138 277 226 519c24 69 47 134 47 138h-3c-22 0 -151 -16 -216 -27c-42 -7 -61 -10 -70 -10c-4 0 -6 0 -8 1c-14 5 -22 18 -22 31c0 7 2 14 7 19
c11 12 39 21 64 21h5c13 0 35 3 53 6c43 8 125 18 178 23l36 3l7 20c3 11 16 51 27 88c12 38 29 94 38 125c18 65 20 69 29 79c8 8 16 10 46 15c10 1 19 2 26 2c18 0 28 -4 34 -14c3 -4 4 -10 4 -20c0 -13 -2 -34 -6 -69c-15 -129 -18 -159 -20 -184l-2 -27l20 1
c30 3 151 9 225 12c24 1 44 2 59 2c25 0 40 -2 50 -5c13 -4 21 -16 21 -28c0 -5 -1 -9 -3 -13c-8 -16 -18 -18 -97 -21c-85 -4 -260 -13 -271 -15c-7 -1 -8 -2 -9 -12c-5 -37 -12 -261 -12 -381c0 -22 1 -40 1 -53c0 -36 3 -88 5 -116s5 -76 7 -106c6 -119 8 -169 8 -192
c0 -17 -1 -18 -4 -23s-9 -11 -15 -14c-12 -7 -36 -11 -57 -11c-14 0 -25 2 -32 5z" />
    <glyph glyph-name=".notdef" 
 />
    <glyph glyph-name=".null" 
 />
    <glyph glyph-name=".null" 
 />
    <glyph glyph-name="nonmarkingreturn" 
 />
    <glyph glyph-name="space" unicode=" " horiz-adv-x="300" 
 />
    <glyph glyph-name="space" unicode="&#xa0;" horiz-adv-x="300" 
 />
    <glyph glyph-name="exclam" unicode="!" horiz-adv-x="342" 
d="M217 109c5 -9 7 -19 7 -28c0 -5 -1 -10 -2 -15c-8 -34 -25 -47 -43 -47c-10 0 -20 4 -28 11c-13 11 -19 26 -19 40c0 5 1 10 2 15c7 26 28 52 49 52c12 0 24 -8 34 -28zM134 211c-24 7 -33 17 -33 41c-1 9 -1 26 -1 39v9c0 18 1 52 3 83c2 39 4 88 4 109v20
c0 98 5 397 8 439c1 24 2 63 2 88c0 51 3 102 10 181c3 31 6 81 7 111c3 61 5 68 18 78c6 4 15 6 27 6c6 0 14 -1 21 -2c32 -6 41 -15 41 -38v-15c0 -18 0 -48 1 -78v-49c0 -47 0 -108 -1 -159c-10 -487 -13 -580 -16 -640c-1 -31 -4 -77 -5 -101c-1 -19 -2 -30 -2 -37
c0 -8 1 -11 3 -14c4 -6 6 -13 6 -20c0 -10 -4 -21 -13 -33c-12 -16 -23 -21 -49 -21c-11 0 -25 2 -31 3z" />
    <glyph glyph-name="quotedbl" unicode="&#x22;" horiz-adv-x="623" 
d="M316 1075c-13 1 -33 21 -37 36c-1 3 -1 6 -1 9c0 10 6 21 25 50c32 50 38 58 77 105c18 22 41 49 50 60c12 16 37 36 59 36c11 0 21 -5 29 -17c3 -5 5 -10 5 -16c0 -21 -27 -59 -117 -175c-30 -38 -58 -72 -63 -77c-8 -6 -17 -11 -25 -11h-2zM138 1138
c-12 1 -32 21 -36 36c-1 4 -2 7 -2 10c0 10 6 20 25 49c33 50 39 59 78 105c18 22 40 49 49 60c13 16 38 36 60 36c10 0 20 -5 28 -17c3 -5 5 -10 5 -16c0 -22 -26 -59 -117 -175c-29 -38 -57 -72 -62 -77c-9 -7 -19 -11 -28 -11z" />
    <glyph glyph-name="numbersign" unicode="#" horiz-adv-x="1095" 
d="M311 0c-4 1 -9 5 -12 7c-2 2 -8 5 -13 8c-13 7 -21 21 -21 36c0 7 2 15 6 21c5 9 188 494 188 498h-5c-21 0 -98 -5 -100 -6c-2 -3 -53 -136 -100 -262c-18 -49 -35 -93 -38 -98c-6 -13 -16 -18 -40 -20c-5 0 -10 -1 -13 -1c-7 0 -11 1 -16 4c-17 9 -37 25 -42 33
c-3 6 -5 13 -5 19s2 12 4 17c4 8 117 288 119 294v1c0 3 -3 4 -14 5s-16 3 -22 8c-7 7 -10 14 -10 22c0 4 1 8 3 12c6 12 16 17 45 19c12 0 24 2 25 3c3 3 70 172 70 175h-1c-8 0 -77 -9 -112 -16c-17 -3 -35 -5 -42 -5h-2c-9 2 -19 14 -22 23v4c0 9 6 22 15 27
c12 7 111 25 169 31c10 0 20 2 21 3c2 1 34 80 73 175c38 96 71 177 74 180c6 10 17 15 30 15c18 0 38 -9 54 -24c9 -8 13 -16 13 -27c0 -4 0 -9 -2 -15c-3 -17 -29 -85 -74 -198c-22 -53 -35 -89 -35 -94v-1c1 0 24 1 50 3l47 3l63 167c65 174 67 178 84 183c2 1 5 1 8 1
c15 0 35 -7 50 -17c19 -14 27 -24 27 -41c0 -10 -3 -23 -8 -40c-9 -31 -39 -111 -70 -191c-12 -29 -21 -54 -21 -54s1 -1 3 -1s5 1 8 1c6 1 65 3 131 6c49 2 81 2 101 2c16 0 24 0 26 -1c7 -4 17 -18 17 -27c0 -10 -10 -23 -22 -28c-18 -8 -40 -10 -125 -14
c-105 -3 -165 -6 -167 -8s-66 -165 -66 -169h3c9 0 34 2 65 5c36 3 71 6 76 6c18 0 30 -17 30 -33c0 -7 -2 -14 -7 -20c-13 -14 -19 -15 -130 -23c-29 -2 -55 -4 -59 -4c-6 0 -8 -3 -27 -53c-29 -74 -72 -192 -133 -358c-28 -78 -53 -145 -56 -149c-6 -9 -14 -14 -31 -18
c-9 -3 -15 -4 -21 -4c-5 0 -9 1 -14 3zM445 634c22 2 40 3 40 4c1 1 65 170 65 173h-5c-19 0 -95 -5 -96 -6s-17 -40 -35 -86c-19 -46 -34 -85 -35 -87v-1c0 -1 1 -2 3 -2c3 0 6 1 10 1c7 1 32 3 53 4z" />
    <glyph glyph-name="dollar" unicode="$" horiz-adv-x="802" 
d="M371 39c-14 6 -22 21 -22 35c0 5 1 10 4 14c3 5 4 13 4 30v24h-10c-6 0 -24 2 -40 4c-92 12 -133 39 -133 89v2c0 13 1 22 4 30c6 12 16 18 27 18c14 0 27 -10 30 -27c4 -24 4 -24 15 -30c13 -7 48 -15 78 -18c10 -1 18 -1 23 -1h3s-1 41 -2 92c-2 50 -3 130 -3 177v86
l-32 16c-140 66 -200 116 -214 178c-2 10 -3 21 -3 34c0 16 2 34 5 48c16 61 69 142 138 211c31 30 81 70 108 86l14 8l-1 46c-1 25 -2 53 -3 62c-1 5 -1 9 -1 12c0 5 2 8 8 14c8 7 11 9 20 9c29 0 35 -14 38 -77c1 -19 2 -35 3 -35c0 0 9 2 19 5c31 11 62 16 88 16
c16 0 31 -2 42 -6c29 -11 46 -33 53 -66c2 -9 3 -18 3 -29c0 -27 -7 -62 -22 -115c-6 -20 -11 -39 -11 -42c0 -11 -8 -26 -18 -32c-6 -3 -9 -5 -21 -5c-5 0 -12 1 -22 1c-39 2 -48 5 -57 24c-3 7 -5 13 -5 19c0 5 1 11 3 18c6 18 28 141 28 147h-1c-8 0 -39 -14 -58 -26
l-22 -14l-1 -59c-3 -104 -8 -267 -9 -337l-2 -69l54 -27c134 -68 195 -115 220 -171c8 -18 12 -36 12 -55c0 -44 -21 -89 -62 -126c-29 -26 -83 -60 -111 -69c-17 -6 -81 -16 -98 -16h-9l2 -36c1 -11 1 -19 1 -24c0 -13 -2 -17 -5 -25c-6 -15 -18 -22 -31 -22
c-6 0 -12 1 -18 4zM350 664c1 14 2 52 3 86s3 102 5 151c3 60 4 90 4 104c0 10 0 12 -1 12h-1c-2 0 -16 -13 -32 -29c-67 -67 -102 -131 -102 -189c0 -23 6 -45 17 -66c11 -22 47 -57 77 -77c14 -9 26 -16 27 -16s2 11 3 24zM451 211c31 5 63 15 80 26c32 20 47 54 47 91
c0 47 -23 99 -69 139c-11 9 -23 21 -29 26c-9 10 -56 37 -63 37c-1 0 -2 -6 -2 -28c0 -14 0 -34 1 -62c3 -195 5 -233 8 -233c1 0 14 2 27 4z" />
    <glyph glyph-name="percent" unicode="%" horiz-adv-x="752" 
d="M108 215c-5 7 -8 13 -8 20c0 8 4 17 10 29c4 8 13 24 19 36c6 11 28 50 48 85c21 36 47 81 57 101c34 62 177 321 201 362c13 22 33 59 46 82c20 37 107 184 130 194c2 1 4 1 6 1c8 0 16 -4 23 -12c8 -8 12 -15 12 -23c0 -7 -3 -15 -9 -25c-51 -92 -24 -48 -76 -141
c-251 -451 -264 -473 -296 -529c-16 -29 -41 -71 -54 -93c-23 -37 -25 -41 -25 -47c-2 -18 -12 -33 -31 -48c-8 -6 -15 -9 -22 -9c-5 0 -10 2 -16 5s-13 9 -15 12zM173 949c0 36 8 64 28 96c26 44 65 67 100 67c32 0 61 -18 77 -55c7 -16 10 -35 10 -53
c0 -64 -36 -133 -91 -158c-14 -6 -27 -9 -39 -9c-51 0 -85 50 -85 110v2zM397 375c1 36 9 64 28 96c26 44 65 67 101 67c32 0 61 -18 76 -55c7 -17 10 -35 10 -54c0 -63 -36 -132 -90 -157c-14 -7 -27 -10 -39 -10c-51 0 -86 51 -86 111v2zM538 456c-34 -7 -52 -51 -52 -92
c0 -15 3 -30 8 -42c40 21 44 77 44 111v23zM314 1030c-34 -6 -52 -51 -52 -91c0 -16 2 -31 8 -43c40 22 44 80 44 114v20z" />
    <glyph glyph-name="ampersand" unicode="&#x26;" horiz-adv-x="885" 
d="M403 -199c-14 7 -21 20 -21 39c0 8 4 78 9 154c3 66 6 122 6 137v3s-38 -14 -88 -14c-79 0 -187 36 -207 226c-1 12 -2 25 -2 38c0 134 69 295 173 403c54 56 110 90 163 102l20 4v9c0 9 -4 13 -29 39c-32 34 -51 58 -67 91c-22 44 -30 78 -30 127c0 86 34 159 104 226
c20 20 72 58 83 61c1 1 6 31 11 67c15 107 17 114 37 121c4 2 7 3 10 3c2 0 5 -1 10 -4c12 -5 17 -13 17 -27c0 -5 0 -9 -1 -15c-6 -39 -13 -99 -13 -112v-3s2 -1 4 -1c4 0 9 1 14 2c13 2 25 3 37 3c102 0 142 -86 142 -187c0 -8 -1 -15 -1 -23c-2 -42 -9 -94 -21 -165
c-13 -70 -12 -68 -21 -77c-5 -6 -12 -9 -20 -9c-3 0 -7 1 -11 3c-11 6 -16 11 -16 28c0 14 3 36 9 72c12 77 16 120 16 162v13c-1 50 -16 83 -74 87h-6c-23 0 -46 -11 -64 -32c-4 -5 -8 -34 -26 -195c-11 -104 -21 -191 -21 -194c0 -7 39 -58 61 -79c23 -22 28 -32 28 -52
c0 -10 -1 -14 -7 -22c-9 -10 -19 -14 -32 -14c-11 0 -24 3 -39 11c-13 6 -20 9 -23 9s-3 -2 -3 -6s-4 -48 -8 -99c-14 -164 -31 -415 -31 -452v-5c7 0 85 56 151 108c23 19 34 30 34 33s2 9 5 14c5 12 15 17 26 17c19 0 40 -16 40 -40c0 -13 -7 -27 -21 -40
c-39 -37 -183 -143 -230 -169c-6 -4 -12 -9 -12 -12c-1 -3 -5 -70 -9 -148c-5 -78 -7 -114 -7 -133c0 -12 1 -16 3 -20c2 -5 2 -8 2 -12s0 -7 -1 -12c-7 -27 -21 -43 -38 -43c-5 0 -10 1 -15 4zM480 1126c4 38 10 87 12 109c3 21 5 39 5 40c-4 0 -31 -42 -36 -55
c-9 -24 -13 -38 -13 -60c0 -5 1 -11 1 -17c0 -17 3 -38 5 -47c5 -16 14 -40 17 -40c0 0 4 32 9 70zM403 216l1 14c1 7 5 62 9 122c7 121 19 286 28 388c3 36 5 66 5 66c-5 0 -46 -32 -64 -50c-92 -93 -149 -240 -149 -362c0 -46 8 -88 25 -123c15 -31 43 -56 71 -63
c4 -1 10 -1 17 -1c14 0 31 2 43 5z" />
    <glyph glyph-name="quotesingle" unicode="'" horiz-adv-x="445" 
d="M138 1138c-12 1 -33 21 -37 36c-1 3 -1 6 -1 9c0 10 6 21 25 50c33 50 39 59 78 105c18 22 40 49 49 60c13 16 38 36 60 36c10 0 20 -5 28 -17c3 -5 5 -10 5 -16c0 -21 -27 -59 -117 -175c-29 -38 -58 -72 -63 -77c-8 -7 -18 -11 -27 -11z" />
    <glyph glyph-name="parenleft" unicode="(" horiz-adv-x="514" 
d="M261 -5c-36 17 -70 131 -81 165c-35 103 -62 202 -73 310c-5 45 -7 92 -7 140c0 141 19 289 46 421c21 106 76 311 156 389c16 15 29 21 42 21c14 0 28 -6 48 -15c10 -5 15 -8 19 -18c2 -5 3 -10 3 -14c0 -13 -9 -24 -20 -35c-107 -120 -152 -368 -166 -523
c-6 -60 -8 -122 -8 -184c0 -73 3 -146 11 -215c13 -124 39 -260 88 -375c4 -9 11 -25 11 -35v-2c-3 -18 -16 -29 -34 -30c-6 -1 -11 -1 -17 -2h-5c-4 0 -9 1 -13 2z" />
    <glyph glyph-name="parenright" unicode=")" horiz-adv-x="570" 
d="M130 -4c-14 5 -25 14 -29 29c-1 3 -1 6 -1 9c0 19 14 40 23 56c121 226 211 475 236 731c4 34 4 70 4 104v31c0 26 0 54 -4 79c-13 113 -44 227 -116 318c-14 17 -18 22 -21 44v8c0 10 2 16 11 26c7 7 16 10 24 10c12 0 24 -5 34 -11c20 -13 57 -53 72 -72
c67 -83 92 -187 103 -291c4 -40 3 -85 4 -125c0 -39 0 -80 -3 -118c-17 -216 -51 -381 -138 -577c-29 -64 -60 -131 -92 -193c-20 -39 -27 -59 -73 -61h-11c-8 0 -15 0 -23 3z" />
    <glyph glyph-name="asterisk" unicode="*" horiz-adv-x="614" 
d="M282 922c-38 11 -56 51 -56 126v30l-20 -19c-27 -24 -54 -44 -66 -46c-2 0 -5 -1 -7 -1c-18 0 -32 13 -32 29v3c2 12 9 21 25 28c6 4 25 19 42 36l31 30l-7 4c-19 14 -39 33 -53 50c-9 12 -19 23 -23 27c-11 9 -16 21 -16 33c0 14 8 28 24 31c2 1 5 1 7 1
c12 0 23 -10 42 -36c18 -24 50 -55 56 -55c1 0 2 2 2 5c0 7 10 130 14 171c3 24 5 37 8 42c7 11 40 23 61 23c2 0 5 -1 7 -1c11 -2 22 -13 26 -27c1 -5 2 -10 2 -16c0 -5 -1 -12 -2 -21c-1 -14 -4 -35 -4 -46c-1 -12 -2 -28 -3 -37l-2 -16l23 20c58 49 98 73 123 73
c6 0 10 -1 14 -3c10 -5 16 -15 16 -25c0 -8 -3 -16 -9 -22c-4 -4 -19 -14 -33 -23c-30 -18 -64 -44 -110 -85l-30 -27l-2 -19c0 -5 -1 -10 -1 -14s1 -6 1 -7c1 -2 20 -8 42 -16c45 -14 57 -21 61 -35c1 -2 1 -4 1 -7c0 -9 -5 -19 -12 -25c-4 -3 -11 -5 -19 -5
c-11 0 -25 3 -43 9c-14 4 -27 8 -29 8h-1c-1 0 -2 -3 -2 -13v-14c0 -16 2 -43 3 -60c1 -12 2 -20 2 -25c0 -7 -1 -10 -4 -15c-7 -14 -16 -21 -30 -21c-5 0 -11 1 -17 3z" />
    <glyph glyph-name="plus" unicode="+" horiz-adv-x="574" 
d="M202 439c0 12 -1 27 -1 47l-2 76l-17 -1c-30 -3 -44 -4 -52 -4c-6 0 -9 1 -12 2c-11 5 -18 15 -18 27c0 13 5 21 16 27c5 2 69 12 82 12c1 0 2 18 2 40c0 42 4 141 6 155c2 11 20 32 31 38c6 3 12 5 17 5c12 0 23 -7 35 -21c11 -13 14 -18 16 -30c1 -4 1 -17 1 -34
c0 -18 0 -40 -1 -63l-1 -82h105c33 0 37 -1 46 -5c13 -6 19 -16 19 -27c0 -2 0 -5 -1 -8c-5 -18 -14 -21 -54 -21c-19 0 -53 -1 -74 -2l-40 -1v-52c0 -24 0 -41 1 -54v-10c0 -56 -29 -87 -56 -87c-24 0 -46 22 -48 73z" />
    <glyph glyph-name="comma" unicode="," horiz-adv-x="452" 
d="M114 278c31 30 75 130 75 185c0 5 0 10 -1 14c-1 5 -1 9 -1 14c0 17 8 28 27 33c5 1 9 2 12 2c22 0 26 -19 26 -40c-2 -69 -17 -122 -48 -184c-19 -38 -32 -58 -45 -69c-10 -9 -20 -12 -29 -12c-17 0 -30 12 -30 28c0 9 4 19 14 29z" />
    <glyph glyph-name="hyphen" unicode="-" horiz-adv-x="551" 
d="M126 635c12 4 19 5 124 6c41 1 69 1 89 1s33 0 42 1h17c38 0 53 -8 53 -17c0 -14 -27 -30 -61 -33c-21 -2 -52 -4 -127 -4c-14 0 -66 -3 -102 -3c-14 0 -26 1 -31 2c-19 4 -30 13 -30 23c0 8 8 17 26 24z" />
    <glyph glyph-name="hyphen" unicode="&#xad;" horiz-adv-x="551" 
d="M126 635c12 4 19 5 124 6c41 1 69 1 89 1s33 0 42 1h17c38 0 53 -8 53 -17c0 -14 -27 -30 -61 -33c-21 -2 -52 -4 -127 -4c-14 0 -66 -3 -102 -3c-14 0 -26 1 -31 2c-19 4 -30 13 -30 23c0 8 8 17 26 24z" />
    <glyph glyph-name="period" unicode="." horiz-adv-x="391" 
d="M107 482c9 21 27 31 44 31c20 0 40 -15 40 -43c0 -6 -1 -13 -3 -20c-7 -28 -28 -41 -48 -41c-21 0 -40 15 -40 42c0 9 2 19 7 31z" />
    <glyph glyph-name="slash" unicode="/" horiz-adv-x="822" 
d="M822 1391c-1 -13 -4 -20 -54 -111c-40 -72 -689 -1213 -698 -1231c-17 -37 -34 -51 -47 -51c-14 0 -23 17 -23 40c0 12 3 24 8 37c8 20 654 1164 691 1229c10 17 51 103 65 117c9 9 20 13 29 13c16 0 29 -12 29 -38v-5z" />
    <glyph glyph-name="zero" unicode="0" horiz-adv-x="724" 
d="M260 108c-68 8 -123 52 -158 125c-21 45 -38 114 -47 191c-3 28 -5 85 -5 138c0 40 1 78 3 99c17 164 55 301 115 417c47 91 87 134 128 139h5c25 0 46 -15 53 -40l3 -11l21 -2c75 -6 113 -24 165 -75c47 -46 88 -109 106 -165c18 -51 25 -102 25 -179
c-1 -131 -28 -237 -97 -379c-39 -78 -76 -133 -119 -177c-39 -39 -69 -59 -104 -70c-20 -7 -57 -13 -72 -13h-3c-2 0 -11 1 -19 2zM348 191c70 21 173 177 227 347c21 65 29 116 31 189c0 11 1 22 1 32c0 99 -19 160 -63 225c-21 31 -61 72 -83 88c-28 18 -48 23 -122 29
l-20 1l-18 -37c-65 -133 -107 -285 -124 -447c-2 -21 -4 -63 -4 -104s2 -81 4 -99c18 -144 69 -228 138 -228c10 0 25 1 33 4z" />
    <glyph glyph-name="one" unicode="1" horiz-adv-x="428" 
d="M293 165c-3 2 -12 2 -20 2h-5c-14 0 -26 6 -35 18c-7 9 -11 44 -15 138c-1 23 -2 46 -2 72c0 50 3 109 8 189c1 22 3 69 5 105c2 57 8 128 18 228c1 14 3 27 3 29c0 0 0 1 -1 1c-2 0 -14 -10 -28 -24c-35 -34 -59 -51 -84 -64c-17 -9 -22 -10 -37 -10s-19 1 -29 8
c-15 11 -21 22 -21 42c1 27 16 49 35 49c12 0 23 -7 28 -19c2 -6 5 -10 6 -10s9 5 17 12c47 37 114 115 160 185c12 18 25 35 29 38c5 3 11 4 18 4s14 -1 19 -5c12 -9 16 -14 16 -44c0 -9 -1 -20 -1 -34c-1 -31 -4 -96 -8 -145c-22 -303 -25 -360 -27 -569
c-1 -185 0 -179 -16 -190c-7 -4 -17 -7 -25 -7c-3 0 -6 0 -8 1z" />
    <glyph glyph-name="two" unicode="2" horiz-adv-x="646" 
d="M94 168c-11 5 -33 26 -39 37c-3 7 -5 13 -5 19c0 13 9 27 31 53c140 164 264 366 325 530c29 76 44 141 44 188c0 8 -1 17 -2 24c-3 24 -7 34 -18 44c-7 7 -11 8 -25 9h-8c-8 0 -13 -1 -19 -4s-15 -6 -21 -7c-5 -1 -20 -7 -32 -13s-25 -12 -29 -13
c-18 -6 -95 -78 -126 -120c-29 -39 -50 -78 -54 -101v-6c0 -5 1 -6 6 -7c13 -2 21 -13 21 -27c0 -15 -5 -22 -21 -29c-7 -4 -14 -6 -21 -6c-12 0 -24 5 -32 14c-10 10 -15 28 -15 49c0 11 2 23 5 35c21 81 118 201 216 265c57 38 104 55 151 55c42 0 74 -13 101 -40
c30 -29 44 -71 44 -125c0 -49 -11 -108 -35 -178c-60 -179 -176 -375 -320 -540l-14 -16l28 5c58 9 91 12 160 12c19 0 42 -1 68 -1c124 -2 124 -2 134 -16c3 -4 4 -10 4 -15c0 -12 -7 -26 -20 -32c-6 -3 -11 -5 -35 -5c-10 0 -25 1 -44 1c-33 1 -61 1 -85 1
c-92 0 -137 -5 -224 -20c-37 -7 -57 -12 -65 -16s-13 -6 -19 -6c-3 0 -6 0 -10 2z" />
    <glyph glyph-name="three" unicode="3" horiz-adv-x="681" 
d="M238 164c-50 6 -91 32 -102 65c-3 9 -4 17 -4 26c0 31 18 57 40 57c4 0 8 -1 13 -3s11 -7 13 -13c2 -5 3 -8 3 -12c0 -3 0 -7 -1 -13c-1 -5 -2 -9 -2 -13c0 -8 4 -13 12 -17c5 -3 13 -4 22 -4c31 0 84 15 124 38c73 42 131 115 151 187c5 17 7 41 7 63c0 15 -1 29 -3 39
c-11 47 -43 88 -86 108c-12 6 -29 12 -38 14c-5 1 -9 2 -13 2c-6 0 -11 -2 -26 -8c-37 -14 -66 -29 -96 -48c-27 -18 -50 -27 -66 -27h-5c-17 3 -60 35 -67 51c-2 5 -3 10 -3 16c0 15 10 34 37 74c61 90 90 134 118 173c17 24 38 54 46 66c9 12 26 35 38 50s22 28 22 28
c-1 0 -24 -3 -52 -8c-65 -12 -109 -17 -167 -21c-26 -1 -53 -3 -61 -4h-7c-7 0 -13 1 -18 4c-11 5 -17 15 -17 26s6 22 18 28c5 3 21 5 43 6c99 4 143 11 350 55c34 7 56 11 71 11c20 0 29 -7 36 -21c3 -5 4 -9 4 -14c0 -13 -9 -27 -32 -56c-64 -79 -245 -324 -245 -330
c1 0 14 4 31 10c35 12 69 18 106 18c34 0 58 -5 84 -18c41 -21 68 -48 90 -93c20 -41 25 -62 25 -117c0 -49 -4 -74 -18 -120c-35 -108 -126 -201 -234 -240c-29 -11 -71 -17 -108 -17c-12 0 -23 1 -33 2z" />
    <glyph glyph-name="four" unicode="4" horiz-adv-x="694" 
d="M384 124c-12 7 -19 19 -19 32c0 2 0 5 1 8c2 7 3 18 3 26c0 7 2 31 4 53s5 57 6 79c2 21 6 66 9 99c4 46 9 161 9 203c0 10 0 16 -1 16h-1c-6 0 -48 -13 -78 -25c-16 -6 -53 -22 -83 -35c-29 -13 -64 -27 -76 -30c-15 -4 -30 -7 -44 -7c-10 0 -20 2 -27 5
c-14 6 -28 24 -33 39c-2 8 -4 19 -4 31c0 53 24 150 82 343c12 41 27 91 32 111l11 36l-5 6c-4 5 -6 10 -6 15c0 9 4 20 12 34c6 11 14 24 19 29c9 8 10 8 42 10c13 1 22 2 29 2c15 0 21 -3 27 -8c10 -9 15 -16 15 -27c0 -10 -3 -22 -10 -43c-25 -81 -45 -154 -50 -185
c-2 -18 -10 -56 -16 -83c-7 -26 -15 -67 -19 -89s-12 -63 -19 -89c-6 -27 -11 -49 -11 -49s19 8 43 19c64 28 110 45 163 58l11 3l2 17c3 35 6 128 6 206c0 22 -1 42 -1 60c-2 56 -2 94 -2 119c0 36 1 48 4 54c10 17 17 20 62 22c11 0 19 1 26 1c21 0 24 -3 31 -13
c6 -9 9 -54 9 -127c0 -61 -3 -122 -12 -235c-3 -46 -6 -84 -6 -86c0 -1 5 -2 13 -2c19 0 53 4 63 8c6 3 13 4 18 4c14 0 24 -8 29 -22c1 -3 2 -6 2 -9c0 -9 -5 -18 -13 -27c-11 -12 -25 -16 -76 -20c-22 -1 -41 -3 -41 -4c-6 -5 -23 -385 -23 -471v-14c1 -5 1 -9 1 -12
c0 -6 -2 -10 -5 -15c-8 -12 -19 -17 -47 -23c-13 -2 -24 -4 -32 -4c-10 0 -17 2 -24 6z" />
    <glyph glyph-name="five" unicode="5" horiz-adv-x="673" 
d="M258 151c-11 2 -28 7 -37 10s-22 7 -29 8c-11 2 -15 4 -27 16c-7 7 -20 19 -29 26c-22 16 -52 49 -64 69c-16 28 -22 48 -22 79s3 38 21 45c4 1 7 2 9 2c3 0 6 -1 11 -3c13 -6 16 -13 23 -44c3 -14 8 -31 12 -39c10 -20 39 -49 65 -67l22 -15l22 4c53 11 98 39 147 91
c54 56 95 137 113 220c4 21 6 47 6 73s-2 51 -6 68c-9 34 -24 63 -44 85c-28 29 -50 38 -98 38h-16c-73 -2 -137 -22 -183 -57c-9 -6 -18 -9 -26 -9c-11 0 -21 5 -27 16c-3 5 -5 9 -5 15c0 10 5 23 18 50c32 71 55 128 82 206l13 35l-6 7c-5 5 -6 9 -6 19s2 15 15 36
c19 31 30 40 44 40c7 0 15 -2 19 -5c5 -3 8 -5 42 -5c15 0 38 0 70 1c31 1 53 1 69 1c33 0 43 -1 56 -4c37 -7 55 -17 64 -33c3 -6 5 -12 5 -17c0 -4 -1 -8 -3 -12c-8 -14 -19 -22 -32 -22c-10 0 -20 4 -29 12c-5 4 -14 9 -20 10c-7 2 -44 3 -83 3h-72l-3 -7
c-2 -4 -7 -18 -11 -31c-7 -26 -60 -179 -63 -184c0 -1 -1 -1 -1 -2s1 -1 4 -1h4c53 7 71 10 89 10c9 0 17 -1 30 -2c85 -8 135 -28 175 -71c41 -45 57 -92 57 -168c0 -97 -27 -204 -76 -301c-56 -113 -133 -181 -219 -196c-14 -2 -25 -4 -35 -4c-11 0 -21 2 -35 4z" />
    <glyph glyph-name="six" unicode="6" horiz-adv-x="568" 
d="M235 88c-56 16 -108 64 -140 130c-30 61 -42 117 -44 211c0 13 -1 25 -1 36c0 47 4 82 11 133c20 137 58 264 115 381c64 129 125 206 194 242c24 12 44 18 61 18s31 -6 39 -18c5 -7 7 -16 7 -24c0 -16 -7 -33 -20 -40c-15 -9 -56 -51 -81 -85
c-48 -64 -88 -137 -124 -227c-20 -49 -46 -137 -46 -151v-2s12 1 24 5c24 6 46 8 67 8c47 0 87 -14 122 -42c31 -26 58 -70 76 -123c15 -48 23 -88 23 -128c0 -54 -15 -106 -47 -169c-44 -86 -101 -141 -160 -156c-10 -2 -23 -4 -36 -4c-15 0 -30 2 -40 5zM352 198
c13 4 16 7 29 25c18 25 32 51 47 84c16 37 23 69 23 103c0 26 -4 52 -12 82c-26 99 -72 147 -141 147c-12 0 -24 -1 -37 -4c-28 -6 -68 -18 -71 -21c-8 -7 -13 -87 -13 -157c0 -38 1 -73 5 -92c11 -58 32 -111 55 -137c22 -24 48 -37 77 -37c13 0 25 3 38 7z" />
    <glyph glyph-name="seven" unicode="7" horiz-adv-x="735" 
d="M125 99c-16 6 -45 29 -50 39c-2 4 -4 10 -4 15v4c1 7 26 62 71 157c103 216 124 260 124 265v1s-14 -1 -30 -4c-19 -4 -31 -6 -40 -6c-10 0 -15 2 -21 7c-7 6 -11 16 -11 24v5c2 9 15 21 25 23c53 9 111 21 112 22s39 80 85 176c45 96 96 202 111 236c16 33 26 56 26 59
v1c-13 -5 -101 -32 -134 -41c-48 -14 -129 -30 -177 -36c-21 -3 -53 -5 -80 -5c-43 0 -45 0 -58 7c-15 7 -24 19 -24 32v4c2 15 9 24 24 30c5 2 11 3 15 3c9 0 16 -3 23 -10l8 -8l25 2c58 4 149 21 214 40c18 5 69 21 113 35c117 38 155 50 175 50c5 0 10 -1 14 -3
c6 -1 13 -7 17 -12c6 -8 7 -12 7 -27c0 -32 -33 -104 -156 -348c-48 -94 -81 -162 -81 -166c2 0 20 2 41 4c24 2 47 4 66 4c14 0 26 -1 34 -3c27 -6 47 -28 47 -49c0 -5 -1 -9 -3 -13c-5 -11 -14 -17 -24 -17c-7 0 -15 3 -24 8c-12 8 -14 8 -38 8c-28 0 -133 -10 -136 -13
c-6 -5 -81 -168 -151 -327c-73 -167 -71 -163 -85 -170c-7 -4 -19 -5 -31 -5c-7 0 -15 0 -19 2z" />
    <glyph glyph-name="eight" unicode="8" horiz-adv-x="721" 
d="M323 54c-45 6 -113 22 -146 35c-40 17 -82 49 -102 80c-17 25 -25 51 -25 80c0 38 15 78 45 123c37 57 88 110 193 205c73 65 118 109 118 113c0 1 -10 15 -23 30c-81 99 -109 156 -113 229v13c0 30 3 53 13 81c33 94 129 206 192 224c7 2 11 3 16 3c3 0 7 -1 12 -2
c23 -5 37 -21 37 -41c0 -10 0 -11 6 -11c32 0 83 -47 108 -98c11 -22 17 -44 17 -67c0 -29 -8 -61 -24 -103c-21 -55 -70 -148 -106 -198l-12 -17l17 -21c65 -84 103 -179 112 -279c1 -12 2 -24 2 -36c0 -78 -23 -155 -65 -213c-16 -23 -44 -52 -64 -67
c-31 -22 -76 -43 -110 -50c-9 -2 -19 -6 -24 -9c-6 -4 -11 -5 -31 -6c-13 0 -33 1 -43 2zM508 821c28 45 68 125 82 165c10 32 11 37 11 61s0 27 -9 44c-10 23 -42 57 -52 57c-3 0 -14 -5 -23 -10c-11 -6 -21 -9 -28 -10c-9 0 -12 -1 -25 -17c-42 -50 -64 -108 -64 -165
c0 -32 7 -64 21 -94c12 -25 35 -55 49 -64c4 -3 7 -5 9 -5c5 0 10 8 29 38zM316 156c49 7 98 27 131 54c41 33 70 84 84 147c2 11 4 29 4 47c0 20 -2 40 -5 53c-9 46 -33 104 -64 154l-16 26l-27 -26c-14 -14 -50 -47 -79 -73c-164 -147 -226 -226 -226 -288v-1
c0 -22 6 -38 23 -53c24 -22 50 -34 84 -39c11 -2 30 -3 49 -3c16 0 32 1 42 2z" />
    <glyph glyph-name="nine" unicode="9" horiz-adv-x="572" 
d="M356 120c-25 8 -32 18 -32 43c0 9 9 145 19 302c10 150 19 275 19 288v1c-1 0 -8 -9 -15 -21c-70 -124 -142 -191 -198 -191h-6c-41 4 -71 35 -87 92c-6 19 -6 26 -6 78c0 60 2 81 17 137c32 125 91 242 153 301c30 28 58 44 91 52c9 3 22 4 34 4c16 0 32 -2 43 -6
c8 -3 12 -4 16 -4c3 0 6 1 10 2c5 2 11 3 22 3c6 0 13 -1 23 -1c39 -2 49 -7 58 -24c3 -6 5 -19 5 -39c0 -27 -3 -65 -9 -117c-13 -117 -18 -186 -31 -400c-6 -108 -10 -181 -18 -367c-2 -49 -5 -93 -6 -98c-6 -23 -19 -31 -56 -36c-14 -1 -22 -2 -28 -2c-7 0 -10 1 -18 3z
M199 642c48 49 89 115 146 228l31 63l6 99c4 53 6 77 6 89c0 9 -1 11 -3 12c-5 4 -9 6 -12 6c-5 0 -10 -4 -16 -11c-42 -48 -103 -139 -122 -181c-20 -44 -42 -131 -52 -204c-3 -22 -4 -62 -4 -88c0 -13 0 -22 1 -24s2 -3 3 -3c3 0 7 4 16 14z" />
    <glyph glyph-name="colon" unicode=":" horiz-adv-x="291" 
d="M108 482c9 21 27 31 43 31c21 0 40 -15 40 -43c0 -6 -1 -13 -3 -20c-7 -28 -28 -41 -48 -41s-40 15 -40 41c0 10 3 20 8 32zM108 791c9 21 27 31 44 31c20 0 39 -15 39 -43c0 -6 -1 -13 -3 -20c-7 -28 -28 -40 -48 -40s-40 14 -40 40c0 10 3 20 8 32z" />
    <glyph glyph-name="semicolon" unicode=";" horiz-adv-x="354" 
d="M114 278c31 30 75 128 75 184c0 5 0 10 -1 15c-1 4 -1 8 -1 12c0 19 9 30 28 35c5 1 9 2 12 2c20 0 25 -17 25 -35v-5c-1 -69 -17 -122 -48 -184c-19 -38 -31 -58 -44 -69c-10 -9 -20 -12 -29 -12c-17 0 -31 12 -31 28c0 9 4 19 14 29zM171 791c9 21 27 31 44 31
c20 0 39 -15 39 -42c0 -7 -1 -13 -3 -21c-7 -28 -28 -40 -48 -40s-40 14 -40 40c0 10 3 20 8 32z" />
    <glyph glyph-name="semicolon" unicode="&#x37e;" horiz-adv-x="354" 
d="M114 278c31 30 75 128 75 184c0 5 0 10 -1 15c-1 4 -1 8 -1 12c0 19 9 30 28 35c5 1 9 2 12 2c20 0 25 -17 25 -35v-5c-1 -69 -17 -122 -48 -184c-19 -38 -31 -58 -44 -69c-10 -9 -20 -12 -29 -12c-17 0 -31 12 -31 28c0 9 4 19 14 29zM171 791c9 21 27 31 44 31
c20 0 39 -15 39 -42c0 -7 -1 -13 -3 -21c-7 -28 -28 -40 -48 -40s-40 14 -40 40c0 10 3 20 8 32z" />
    <glyph glyph-name="less" unicode="&#x3c;" 
d="M151 320c-12 6 -17 12 -49 51c-51 62 -76 90 -117 131c-22 22 -42 44 -44 49s-3 11 -3 17c0 52 75 137 101 168c42 48 97 109 119 131c32 32 62 46 82 46c17 0 27 -9 27 -26c0 -13 -6 -30 -20 -50c-16 -25 -47 -65 -103 -138c-75 -97 -109 -145 -109 -150
c0 -1 16 -19 35 -39c19 -21 45 -50 58 -65c43 -54 44 -55 52 -55h1c11 0 19 -6 24 -15c3 -5 4 -10 4 -16c0 -21 -21 -43 -43 -43c-5 0 -10 1 -15 4z" />
    <glyph glyph-name="equal" unicode="=" horiz-adv-x="618" 
d="M114 481c-9 5 -14 15 -14 24c0 8 4 16 10 22c10 9 16 9 96 11c108 2 175 12 254 37c15 5 25 7 32 7c8 0 12 -2 18 -8s8 -13 8 -20c0 -4 -1 -9 -3 -13c-6 -11 -17 -17 -42 -28c-58 -24 -156 -37 -284 -37c-61 0 -68 1 -75 5zM134 661c-11 5 -17 16 -17 27c0 7 3 14 9 20
l8 8l43 2c68 3 191 18 251 30c15 3 25 4 32 4c11 0 17 -3 23 -10c3 -4 5 -11 5 -18c0 -6 -1 -12 -4 -16c-10 -15 -46 -26 -106 -33c-88 -11 -165 -18 -209 -18c-18 0 -31 2 -35 4z" />
    <glyph glyph-name="greater" unicode="&#x3e;" 
d="M432 320c-20 10 -28 21 -28 38c0 11 7 28 66 153c13 27 71 134 79 145c2 2 3 3 3 5c0 4 -5 10 -16 25c-10 13 -29 42 -43 63c-14 22 -33 49 -41 61l-16 22l-10 -2h-5c-11 0 -21 6 -26 16c-4 7 -5 15 -5 23c0 24 14 48 36 48c6 0 12 -2 18 -5c15 -8 47 -48 103 -132
c17 -24 43 -60 58 -78c32 -40 36 -47 36 -63c0 -31 -12 -58 -79 -179c-25 -46 -50 -94 -57 -106c-6 -13 -12 -26 -14 -28c-7 -9 -18 -13 -30 -13c-9 0 -18 2 -29 7z" />
    <glyph glyph-name="question" unicode="?" horiz-adv-x="709" 
d="M176 125c11 15 30 26 49 26c13 0 27 -6 36 -21c4 -7 6 -15 6 -24c0 -26 -18 -54 -45 -54c-5 0 -10 1 -15 3c-20 7 -37 30 -37 51c0 7 2 13 6 19zM167 260c-12 4 -16 8 -22 21c-4 10 -5 20 -6 72c0 12 -1 23 -1 33c0 45 4 77 14 141c4 22 8 50 10 63c9 54 48 152 90 222
c8 14 31 49 51 79c19 29 46 71 59 92c13 22 35 57 48 78c35 58 48 81 64 117c15 35 23 61 23 81c0 10 -2 18 -6 25c-6 13 -15 16 -43 16c-19 0 -22 -1 -42 -10c-70 -34 -142 -100 -194 -180c-34 -50 -53 -101 -53 -135c0 -7 1 -14 3 -20c3 -8 5 -9 15 -11
c13 -2 26 -12 28 -22c0 -2 1 -3 1 -5c0 -8 -4 -17 -11 -23c-5 -5 -9 -6 -25 -6c-15 0 -20 1 -32 8c-25 14 -38 41 -38 79c0 53 21 111 63 175c72 109 165 186 262 218c28 9 54 14 77 14c29 0 53 -8 71 -24c15 -12 23 -24 30 -45c4 -11 6 -30 6 -50c0 -19 -2 -39 -5 -55
c-16 -77 -51 -150 -122 -254c-112 -166 -129 -193 -161 -256c-47 -92 -54 -127 -68 -308c-2 -35 -4 -64 -4 -80v-8c0 -4 1 -8 1 -11c0 -15 -4 -22 -14 -28c-5 -4 -24 -6 -42 -6c-11 0 -22 1 -27 3z" />
    <glyph glyph-name="at" unicode="@" horiz-adv-x="993" 
d="M333 53c-39 9 -69 26 -99 58c-67 71 -117 208 -131 366c-2 21 -3 56 -3 92s1 72 3 92c16 170 65 304 143 394c38 42 74 70 130 97c45 21 62 25 120 27h23c22 0 33 -1 53 -5c76 -14 138 -48 191 -103c30 -31 49 -59 70 -100c40 -81 60 -171 60 -263
c0 -83 -16 -166 -49 -245c-22 -52 -53 -94 -79 -106c-8 -4 -20 -6 -31 -6c-9 0 -17 1 -24 4c-50 19 -95 119 -110 247c-2 20 -5 41 -6 47l-2 11l-17 -42c-9 -24 -28 -65 -42 -93c-71 -141 -129 -210 -177 -210c-9 0 -17 3 -25 7c-28 15 -41 56 -41 120v21
c8 165 76 366 144 423c21 18 46 28 73 28c22 0 45 -6 69 -18c10 -4 14 -6 18 -6c2 0 3 0 5 2c4 2 12 5 18 6s18 3 26 5c10 3 18 4 25 4s13 -1 17 -4c16 -8 18 -18 23 -96c3 -62 13 -161 19 -193c9 -50 35 -141 42 -149c5 0 30 67 42 112c10 42 16 86 16 131
c0 36 -4 73 -11 108c-11 56 -39 124 -67 168c-26 39 -70 78 -112 99c-39 20 -87 31 -128 31c-13 0 -25 -2 -36 -4c-43 -11 -50 -13 -63 -20c-21 -12 -60 -52 -79 -81c-31 -48 -59 -114 -77 -182c-22 -82 -30 -141 -32 -228v-33c0 -76 6 -136 23 -201
c27 -110 73 -184 128 -211c12 -5 18 -6 38 -6c22 0 25 0 43 9c31 14 89 62 98 79c5 11 20 20 33 20c2 0 3 -1 5 -1c13 -2 27 -16 29 -28c0 -3 1 -5 1 -7c0 -17 -12 -29 -60 -70c-19 -17 -35 -31 -36 -33c-3 -4 -52 -35 -72 -45c-28 -15 -61 -22 -89 -22c-11 0 -21 1 -30 3z
M431 477c53 88 89 171 127 296c7 24 11 38 11 46c0 11 -5 14 -18 21l-13 6l-7 -11c-13 -21 -47 -90 -69 -138c-31 -71 -51 -145 -56 -215c-1 -11 -2 -26 -3 -34l-1 -15l5 7c3 4 13 20 24 37z" />
    <glyph glyph-name="A" unicode="A" horiz-adv-x="738" 
d="M568 6c-15 13 -24 35 -30 78c-15 94 -24 291 -24 483c0 73 1 146 4 211c2 48 4 89 4 89c-8 0 -228 -31 -228 -32c-3 -5 -35 -113 -49 -163c-11 -37 -24 -86 -31 -109c-6 -22 -16 -62 -22 -87c-6 -26 -15 -66 -21 -90c-21 -89 -41 -196 -44 -239c-2 -33 -6 -51 -12 -59
c-10 -12 -30 -19 -53 -19c-7 0 -14 1 -22 2c-27 4 -38 16 -38 37v8c3 30 45 252 64 343c23 103 55 226 82 311c7 20 12 37 12 39c0 0 -1 1 -2 1c-17 0 -138 -34 -164 -46c-10 -5 -17 -7 -22 -7s-9 1 -14 4c-10 4 -18 17 -18 27c0 9 7 20 16 26c15 11 116 42 191 59l38 9
l11 28c57 160 134 324 199 420c37 56 65 86 93 98c9 4 19 6 29 6c12 0 24 -3 33 -9c32 -22 45 -66 50 -167c1 -15 1 -31 1 -51c0 -46 -2 -111 -6 -217l-1 -46l31 2c23 2 44 2 62 2c25 0 43 -1 51 -4c18 -8 30 -24 30 -39c0 -4 -1 -9 -3 -13c-6 -11 -12 -15 -23 -15h-7
c-8 2 -32 2 -57 2s-51 0 -65 -2l-23 -2l-2 -41c-5 -126 -6 -193 -6 -272v-70c3 -205 12 -347 27 -424c4 -19 6 -37 6 -43c-2 -14 -12 -23 -26 -25h-6c-6 0 -9 1 -15 6zM362 913c19 3 63 9 98 14l64 9l2 26c4 67 7 167 7 242c0 58 -1 101 -5 101c-3 -1 -63 -97 -106 -171
c-32 -57 -52 -97 -72 -150c-8 -22 -18 -45 -21 -52c-6 -15 -8 -21 -8 -23s0 -2 2 -2s20 3 39 6z" />
    <glyph glyph-name="B" unicode="B" horiz-adv-x="812" 
d="M-25 5c-25 9 -35 26 -35 41s11 28 27 28c3 0 7 0 10 -1c22 0 51 4 79 11c48 13 93 36 93 74v4c-2 17 -3 100 -4 185c0 33 -1 65 -1 97c0 226 10 419 33 676c4 50 8 95 8 104v2h-1c-7 0 -64 -37 -103 -67l-7 -5l6 -6c7 -7 10 -14 10 -22c0 -3 -1 -7 -2 -10
c-5 -12 -12 -16 -36 -21c-16 -3 -27 -5 -35 -5c-12 0 -18 3 -26 11c-9 10 -10 12 -10 25c0 12 2 16 11 30c12 18 32 37 66 64c27 21 85 60 110 74c17 9 17 10 19 23c2 16 12 28 29 36c8 4 12 5 24 5h19l30 -1l34 13c73 29 152 53 205 61c17 2 40 4 61 4c16 0 31 -1 39 -3
c37 -7 66 -27 78 -53c4 -9 6 -22 6 -36c0 -13 -2 -27 -6 -40c-18 -53 -62 -118 -140 -204c-37 -41 -141 -145 -193 -193c-21 -19 -39 -36 -39 -37h1c3 0 16 2 31 5c45 10 88 16 126 16c122 0 206 -53 206 -175c0 -7 0 -14 -1 -22c-13 -151 -117 -289 -215 -398
c-143 -160 -365 -295 -474 -295c-13 0 -24 1 -33 5zM306 959c16 17 42 45 60 64c31 34 208 233 208 310c0 19 -10 30 -35 30c-8 0 -16 -1 -26 -3c-52 -11 -143 -40 -199 -65l-15 -7l-1 -19c-2 -24 -14 -189 -18 -241c-3 -48 -5 -75 -5 -88c0 -8 1 -11 2 -11s14 13 29 30z
M314 261c77 78 137 160 183 249c43 83 66 160 66 216c0 28 -5 51 -17 67c-5 7 -14 14 -25 20c-16 9 -17 9 -47 9c-44 -1 -106 -13 -174 -34l-29 -9l-4 -73c-1 -40 -3 -81 -4 -91v-14c0 -58 3 -273 6 -341c1 -31 2 -38 5 -38h1c2 2 20 19 39 39z" />
    <glyph glyph-name="C" unicode="C" horiz-adv-x="711" 
d="M70 60c-83 88 -130 264 -130 454c0 74 7 151 22 225c43 205 147 427 266 569c47 56 96 95 142 114c21 9 41 13 59 13c79 0 123 -80 123 -165c0 -35 -8 -72 -24 -104c-18 -35 -37 -47 -52 -47c-14 0 -24 12 -24 28c0 7 2 15 7 23c13 21 26 80 26 123c0 29 -6 52 -21 52
c-7 0 -52 -33 -79 -57c-75 -67 -120 -129 -177 -245c-36 -73 -53 -117 -75 -191c-32 -113 -60 -240 -60 -364c0 -91 15 -181 56 -261c40 -77 81 -109 126 -109c49 0 102 37 160 94c22 21 46 46 68 68c88 93 156 172 186 217c14 22 20 29 28 32c5 2 9 3 13 3
c8 0 15 -3 21 -10c6 -6 10 -14 10 -23c0 -22 -20 -55 -63 -107c-66 -79 -148 -166 -217 -233c-72 -70 -168 -159 -265 -159c-42 0 -85 17 -126 60z" />
    <glyph glyph-name="D" unicode="D" horiz-adv-x="948" 
d="M322 2c-49 2 -54 8 -57 62l-2 35l-18 -8c-12 -5 -28 -8 -42 -8c-13 0 -24 2 -30 7c-10 7 -16 18 -16 28c0 3 0 5 1 7c3 14 13 22 37 27c11 3 31 10 44 16l23 12v280c0 283 1 341 13 574c6 118 9 181 9 205c0 7 -1 10 -1 10c-5 0 -65 -26 -100 -43
c-74 -35 -166 -90 -166 -100c0 -3 1 -6 1 -8c0 -8 -3 -13 -10 -19c-6 -6 -14 -8 -22 -8c-12 0 -26 6 -36 17c-7 8 -10 16 -10 25c0 10 5 20 15 31c6 7 26 23 45 35c80 55 167 100 271 142c-1 13 -2 26 -2 37c0 38 9 62 50 70c17 4 32 6 44 6c33 0 47 -16 47 -52
c0 -14 0 -18 2 -18c1 0 1 1 2 1c8 2 49 9 82 13c14 2 33 2 53 2c40 0 85 -3 111 -8c78 -15 137 -45 185 -91c54 -51 88 -117 100 -193c2 -15 3 -35 3 -56c0 -34 -2 -71 -8 -97c-22 -111 -77 -238 -161 -369c-73 -115 -146 -197 -267 -298c-25 -21 -99 -78 -107 -82
c-2 -2 -4 -20 -5 -74c-2 -74 -4 -87 -14 -98c-7 -7 -20 -14 -27 -14h-1c-2 0 -18 1 -36 2zM466 352c45 46 102 120 146 186c104 158 175 328 195 464c3 22 5 42 5 62c0 136 -77 211 -185 235c-26 6 -53 8 -82 8c-37 0 -76 -4 -116 -14c-9 -2 -18 -4 -18 -5
c-2 -2 -9 -774 -10 -952v-48l22 21c12 12 32 31 43 43z" />
    <glyph glyph-name="E" unicode="E" horiz-adv-x="746" 
d="M141 84c-11 36 -16 103 -16 192c0 110 8 253 24 414c2 18 3 33 3 38v2h-1c-6 0 -54 -8 -109 -18c-35 -6 -56 -10 -69 -10c-14 0 -20 4 -26 10c-5 6 -7 13 -7 21c0 6 1 12 4 17c5 9 26 20 59 30c14 5 25 7 33 7c7 0 12 -1 16 -4c2 -1 5 -2 7 -2h2c1 0 24 5 50 9
c27 4 48 8 49 9c0 0 3 28 7 63c10 82 25 189 42 291c7 45 13 87 13 93s2 22 5 35c2 13 3 24 3 25c-1 0 -13 -2 -26 -5c-24 -5 -25 -6 -30 -16c-5 -12 -15 -17 -26 -17c-3 0 -6 0 -10 1s-8 1 -12 1c-7 0 -17 -1 -35 -5c-20 -4 -31 -6 -38 -6c-8 0 -12 2 -18 6
c-8 6 -13 15 -13 25c0 3 0 5 1 8c4 14 15 21 50 32c144 48 349 89 505 102c18 2 39 3 60 3c37 0 72 -3 84 -7c18 -7 31 -16 40 -29c7 -9 8 -13 8 -30c0 -19 -1 -20 -9 -28c-6 -5 -13 -8 -20 -8c-11 0 -21 6 -27 17c-7 13 -13 16 -53 16h-21c-57 0 -109 -5 -207 -20
c-68 -11 -69 -11 -71 -17c-1 -4 -33 -183 -46 -267c-8 -45 -30 -199 -34 -235l-2 -15l38 4c41 3 79 5 112 5c64 0 112 -6 140 -18c25 -11 38 -30 38 -46c0 -14 -8 -25 -25 -30h-2c-5 0 -14 3 -25 8s-28 11 -37 13c-11 3 -45 4 -84 4c-69 0 -155 -4 -160 -9
c-1 -1 -4 -36 -7 -77c-9 -114 -24 -237 -24 -354c0 -32 1 -64 4 -95c6 -98 23 -141 82 -141c14 0 30 2 49 7c137 30 272 82 355 136c18 12 34 21 40 21h4c15 0 28 -14 28 -30c0 -2 0 -5 -1 -7c-3 -11 -29 -37 -50 -51c-84 -55 -268 -120 -407 -144c-28 -5 -57 -9 -84 -9
c-55 0 -103 18 -123 85z" />
    <glyph glyph-name="F" unicode="F" horiz-adv-x="669" 
d="M142 35c-6 19 -11 47 -15 95c-2 26 -4 137 -4 253c0 117 2 239 4 287c2 37 3 68 3 68c-1 0 -31 -5 -68 -12c-57 -11 -80 -15 -93 -15c-7 0 -10 1 -14 3c-10 5 -15 16 -15 27c0 9 4 18 12 23c3 2 27 8 52 13c26 5 65 13 87 17l41 9l2 16c1 9 3 45 5 80c5 78 15 185 25 274
c4 37 7 67 7 68c-4 0 -36 -9 -90 -27c-47 -16 -52 -18 -57 -26s-13 -12 -22 -12c-10 0 -20 4 -29 13s-10 11 -10 22c0 15 8 25 31 36c16 8 136 49 169 58l16 4l2 35c2 38 4 47 18 59c8 6 13 8 41 14c13 2 23 3 30 3c13 0 19 -3 26 -12c6 -8 9 -16 9 -30c0 -5 -1 -10 -1 -16
s-1 -10 -1 -13c0 -4 1 -5 2 -5h2c36 11 204 48 285 63c99 18 155 27 190 27c29 0 44 -6 56 -19c9 -9 11 -13 11 -21c0 -19 -11 -30 -30 -30c-6 0 -12 1 -19 3c-4 1 -9 2 -16 2c-16 0 -43 -4 -98 -13c-89 -15 -217 -41 -358 -74l-27 -6l-2 -11c-1 -7 -6 -101 -12 -209
c-6 -109 -11 -204 -12 -212l-1 -15l57 10c91 16 148 23 183 23c22 0 36 -3 45 -8c16 -9 24 -23 24 -37c0 -16 -10 -31 -30 -40c-6 -2 -12 -4 -18 -4c-14 0 -26 6 -29 16c-2 4 -4 5 -15 5c-18 0 -215 -29 -219 -32c-1 -1 -10 -166 -22 -366c-10 -180 -15 -273 -19 -322
c-4 -48 -26 -79 -50 -79c-14 0 -29 12 -39 40z" />
    <glyph glyph-name="G" unicode="G" horiz-adv-x="732" 
d="M494 -319c-18 11 -16 -20 -22 440c-3 229 -5 428 -5 443l-1 26l-10 -22c-123 -250 -171 -334 -235 -414c-49 -61 -98 -96 -142 -96c-42 0 -79 34 -105 113c-25 76 -34 178 -34 284c0 189 30 390 56 477c58 189 161 398 317 485c33 18 69 29 102 29c55 0 103 -29 126 -103
c4 -14 7 -28 7 -40c0 -8 -2 -15 -4 -20c-5 -12 -16 -18 -26 -18c-11 0 -21 6 -26 18c-3 5 -4 13 -4 18c0 44 -18 60 -43 60c-43 0 -108 -48 -133 -74c-78 -84 -136 -217 -167 -298c-40 -108 -70 -227 -82 -329c-9 -78 -12 -121 -12 -170c0 -17 0 -35 1 -56
c4 -88 7 -121 21 -184c18 -67 30 -97 48 -97c14 0 32 21 61 59c44 58 92 142 156 269c37 73 55 111 113 235l13 28v94l-10 -1c-33 -5 -189 -31 -208 -35c-18 -4 -22 -6 -25 -11c-5 -9 -14 -18 -22 -20h-4c-13 0 -39 6 -47 11c-10 6 -14 16 -14 27s5 22 16 28
c17 11 76 25 187 45c170 31 283 47 335 47c11 0 20 0 25 -2c21 -6 35 -22 35 -43c0 -11 -2 -14 -9 -21c-7 -8 -11 -9 -20 -9c-7 0 -14 2 -19 5s-8 5 -15 5c-4 0 -8 0 -14 -1c-12 -1 -31 -3 -43 -5c-17 -2 -21 -2 -21 -5c0 -1 1 -2 1 -4c1 -4 1 -16 1 -34
c0 -38 -2 -102 -5 -167c-15 -241 -17 -318 -17 -500c0 -236 8 -377 22 -401c3 -5 5 -11 5 -17c0 -13 -7 -26 -19 -32c-15 -9 -55 -22 -66 -22h-1c-5 0 -13 2 -18 5z" />
    <glyph glyph-name="H" unicode="H" horiz-adv-x="774" 
d="M522 -154c-11 7 -14 -8 -14 138c0 81 1 209 2 417c3 292 4 532 4 532h-1c-7 0 -52 -6 -107 -12c-58 -7 -113 -13 -122 -14l-16 -2l-2 -13c0 -8 -6 -188 -12 -402s-12 -395 -13 -402c-2 -10 -6 -17 -14 -26c-12 -13 -12 -13 -28 -13c-24 0 -41 6 -54 18
c-6 6 -12 14 -12 18c-3 11 -7 91 -10 161c-3 81 -4 201 -4 317c0 58 0 115 1 166c2 83 2 152 2 153h-2c-5 0 -18 -2 -34 -4c-25 -5 -36 -8 -43 -13c-9 -6 -13 -6 -36 -7h-28c-23 0 -23 2 -31 10c-6 7 -8 10 -8 16v6c2 21 8 24 70 36c30 6 68 14 85 17l30 6l2 23
c1 14 2 49 4 80c2 30 5 86 8 124s6 93 6 122c2 123 44 164 81 164c28 0 54 -26 54 -57c0 -25 -8 -349 -11 -408l-1 -26l12 2c25 3 176 22 204 25l29 3l2 63c1 25 1 78 1 134v69c0 137 0 140 6 149c7 12 20 17 53 18c6 0 12 1 17 1c28 0 33 -9 39 -43c6 -36 9 -94 9 -181
c0 -23 -1 -47 -1 -74l-2 -125h31c37 0 54 -5 66 -18c7 -8 11 -17 11 -25c0 -9 -4 -17 -11 -24c-6 -6 -10 -8 -19 -8c-6 0 -15 2 -19 4c-5 3 -16 4 -34 4h-27l-1 -44c-2 -57 -4 -298 -4 -515c0 -142 1 -274 2 -338c2 -90 3 -168 3 -173c0 -4 -2 -12 -5 -16
c-9 -12 -24 -16 -64 -18h-18c-16 0 -20 1 -26 5z" />
    <glyph glyph-name="I" unicode="I" horiz-adv-x="394" 
d="M-37 0c-3 1 -10 5 -14 10c-6 6 -9 13 -9 21c0 7 2 14 7 20c10 12 21 15 103 29c36 6 69 12 73 13s5 1 5 4c0 2 0 5 -1 9c-1 6 -3 37 -5 68c-10 131 -16 349 -16 549c0 80 1 156 3 224c3 91 5 242 5 333c0 46 0 76 -2 76c-10 0 -69 -9 -95 -15c-16 -3 -28 -5 -38 -5
c-15 0 -24 5 -31 14c-3 5 -6 12 -6 18c0 16 8 26 28 36c12 6 17 8 24 8c3 0 7 0 11 -1h9c9 0 19 1 29 2c60 12 160 21 212 21c84 0 126 -18 135 -58c1 -3 1 -6 1 -9c0 -19 -12 -38 -29 -42c-4 -1 -7 -2 -10 -2s-6 1 -11 3c-10 5 -19 17 -19 26c0 7 -13 10 -53 12l-38 1
l-2 -32c-1 -18 -2 -57 -2 -87s-2 -124 -5 -208c-2 -70 -3 -115 -3 -162c0 -41 1 -83 2 -144c2 -94 5 -181 8 -225c3 -39 7 -96 8 -125c2 -73 12 -217 16 -244c2 -15 4 -22 7 -22c11 0 127 21 143 26c9 2 15 4 21 4c8 0 13 -3 20 -9s10 -14 10 -22c0 -15 -12 -31 -34 -41
c-15 -6 -25 -8 -240 -41c-86 -13 -163 -25 -169 -28c-12 -3 -28 -6 -40 -6c-3 0 -6 1 -8 1z" />
    <glyph glyph-name="J" unicode="J" horiz-adv-x="514" 
d="M-53 308c4 15 17 24 32 24c5 0 11 -1 17 -4c16 -8 25 -24 25 -40c0 -7 -2 -14 -6 -20c-3 -5 -5 -8 -5 -22c0 -6 0 -15 1 -28c3 -73 25 -192 78 -192c21 0 47 19 79 67c40 61 61 148 74 236c38 250 32 519 49 775c1 17 1 51 1 87c0 52 -1 108 -3 131c-1 12 -2 22 -4 22
c-34 0 -153 -23 -218 -23c-20 0 -34 2 -40 8s-9 13 -9 21c0 5 1 10 4 15c7 13 15 16 98 25c43 5 136 16 206 25c198 24 283 33 318 33c9 0 15 -1 19 -2c14 -3 26 -13 29 -25c1 -4 2 -6 2 -9s-1 -6 -3 -10c-8 -15 -16 -18 -63 -21c-50 -4 -215 -22 -218 -25v-11
c0 -18 1 -59 2 -105c2 -75 2 -138 2 -195c0 -131 -4 -232 -16 -377c-18 -232 -43 -396 -76 -495c-14 -43 -31 -81 -51 -113c-49 -77 -109 -113 -164 -113c-60 0 -114 42 -140 118c-12 35 -27 115 -27 180c0 24 2 46 7 63z" />
    <glyph glyph-name="K" unicode="K" horiz-adv-x="572" 
d="M-13 0c-31 2 -31 2 -39 10c-5 5 -8 9 -8 19c0 6 1 14 3 27c2 11 4 129 5 300c5 434 9 559 31 879c5 79 7 123 7 144v16c0 28 6 35 29 39c3 1 7 1 11 1c24 0 67 -6 74 -10c9 -5 13 -2 13 -44s-4 -128 -13 -313c-8 -184 -14 -335 -14 -336c4 0 65 48 102 80
c32 28 74 68 105 102c96 101 251 300 298 384c10 17 12 22 12 30v13c0 24 19 41 38 41c10 0 19 -5 26 -16c4 -5 5 -12 5 -19c0 -16 -8 -36 -24 -67c-40 -77 -155 -235 -248 -344c-94 -110 -222 -226 -296 -269c-14 -8 -22 -14 -22 -17c0 -11 40 -61 82 -102
c55 -53 167 -138 257 -141c42 -1 59 -14 59 -28c0 -17 -26 -36 -62 -36c-109 0 -233 46 -310 123c-22 22 -30 30 -32 30c-1 0 -1 -1 -1 -3c0 -4 -5 -110 -11 -237c-11 -251 -10 -242 -26 -251c-8 -4 -13 -5 -27 -5h-24z" />
    <glyph glyph-name="L" unicode="L" horiz-adv-x="579" 
d="M-55 137c-3 20 -5 72 -5 129c0 58 2 120 5 159c24 249 56 466 106 714c29 147 43 223 43 242c0 33 30 53 80 53c17 0 38 -8 47 -20c6 -7 8 -12 8 -25c0 -20 -7 -83 -13 -122c-17 -107 -32 -202 -42 -256c-25 -144 -77 -393 -90 -603c-4 -68 -7 -121 -7 -163
c0 -106 17 -139 66 -139c39 0 99 20 189 42c125 30 318 64 366 64c36 0 61 -18 61 -40c0 -4 -1 -9 -3 -13c-8 -15 -17 -18 -54 -20c-77 -5 -274 -41 -395 -72c-71 -19 -170 -62 -239 -66h-8c-57 0 -95 32 -115 136z" />
    <glyph glyph-name="M" unicode="M" horiz-adv-x="956" 
d="M728 4c-5 3 -11 10 -14 15c-2 4 -4 10 -4 77c0 73 2 221 5 524c3 325 5 608 5 630l-1 40l-33 -49c-50 -76 -80 -127 -167 -291c-78 -146 -114 -204 -139 -224c-16 -12 -31 -18 -46 -18c-17 0 -32 8 -46 23c-33 38 -55 114 -97 340c-18 91 -35 175 -38 178
c-2 0 -5 -18 -32 -213c-49 -344 -82 -607 -105 -823c-4 -40 -6 -60 -6 -71c0 -9 1 -11 3 -13s3 -9 3 -18c0 -27 -7 -76 -14 -89c-3 -4 -10 -10 -15 -13s-8 -4 -12 -4c-2 0 -5 1 -10 3c-13 4 -22 16 -24 34c0 3 -1 7 -1 13c0 55 16 234 36 405c20 175 39 317 75 569
c12 88 25 181 29 208c12 87 53 149 94 149c31 0 63 -36 83 -124c52 -220 64 -265 93 -355c20 -58 24 -71 27 -71h1c3 4 51 91 89 161c122 229 194 342 255 401c26 24 50 37 71 37c13 0 26 -6 36 -17c9 -9 19 -33 23 -55c2 -12 4 -54 4 -111c0 -82 -3 -195 -7 -288
c-11 -264 -15 -429 -15 -590v-92c2 -131 3 -167 8 -228c1 -6 1 -10 1 -13c0 -6 -1 -9 -6 -14c-9 -11 -28 -19 -53 -20c-12 -1 -24 -3 -26 -5c-3 -2 -7 -2 -12 -2c-6 0 -12 1 -18 4z" />
    <glyph glyph-name="N" unicode="N" horiz-adv-x="724" 
d="M-33 -4c-20 10 -22 21 -26 105c-1 18 -1 38 -1 61c0 97 6 231 17 350c8 92 19 185 47 408c22 175 31 249 38 288c6 36 19 99 58 112c8 3 15 4 22 4c47 0 68 -56 82 -97c7 -21 23 -91 28 -123c14 -91 32 -206 52 -318c17 -98 47 -268 85 -390c25 -79 38 -117 50 -117
c13 0 26 44 52 124c49 152 108 406 175 755c34 179 41 220 41 242s5 33 19 39c4 2 9 3 13 3c14 0 26 -8 32 -22c2 -5 3 -11 3 -20c0 -24 -8 -71 -31 -195c-49 -261 -90 -450 -136 -636c-66 -263 -115 -374 -176 -395c-8 -3 -15 -4 -23 -4c-44 0 -83 48 -116 143
c-32 92 -51 182 -101 487c-27 157 -53 298 -64 339c-3 10 -5 16 -6 16c0 -1 -11 -85 -23 -187c-51 -399 -66 -545 -74 -747c-1 -35 -2 -63 -2 -84c0 -37 2 -56 7 -65c4 -7 5 -17 5 -28c0 -7 0 -15 -2 -22c-3 -11 -16 -28 -22 -28c-2 0 -5 -1 -8 -1h-3c-3 0 -8 1 -12 3z" />
    <glyph glyph-name="O" unicode="O" horiz-adv-x="755" 
d="M182 4c-29 8 -58 24 -83 48c-26 25 -41 46 -61 86c-40 79 -65 191 -74 334c-2 22 -3 56 -3 94c0 71 3 154 7 193c14 141 40 288 72 406c4 13 6 22 6 26c0 2 -1 3 -2 3c-2 0 -18 -3 -37 -7c-17 -4 -28 -5 -36 -5c-10 0 -16 2 -22 8c-6 7 -9 13 -9 20c0 4 1 8 2 12
c4 10 6 13 24 21c18 10 50 18 90 24l15 2l18 53c24 68 35 98 55 136c27 54 53 77 88 77c28 0 50 -17 53 -40v-4c0 -8 -3 -17 -15 -45c-23 -51 -37 -88 -53 -134l-13 -39l16 -1c271 -28 388 -170 412 -448c2 -23 3 -47 3 -71c0 -169 -44 -373 -114 -508
c-19 -38 -52 -88 -78 -119c-55 -65 -120 -109 -182 -122c-11 -2 -26 -4 -41 -4c-14 0 -28 2 -38 4zM299 97c37 10 96 70 138 140c63 103 109 261 124 423c2 23 3 55 3 87c0 39 -1 78 -4 99c-27 197 -98 320 -300 351c-27 4 -54 7 -68 7c-5 0 -8 -1 -9 -2
c-2 -3 -28 -108 -35 -144c-17 -81 -33 -189 -42 -284c-3 -33 -5 -105 -5 -174c0 -63 2 -123 4 -148c12 -116 32 -200 62 -263c14 -31 25 -47 43 -66c20 -20 40 -30 62 -30c9 0 18 1 27 4z" />
    <glyph glyph-name="P" unicode="P" horiz-adv-x="794" 
d="M371 3c-20 9 -35 32 -44 70c-15 60 -31 235 -39 419c-1 37 -3 68 -3 68h-1c-3 0 -8 -1 -15 -3c-10 -3 -20 -4 -28 -4c-17 0 -31 5 -43 16s-17 24 -17 35c0 13 6 24 20 28c3 1 5 1 7 1c4 0 7 -1 12 -3c6 -3 13 -7 16 -9c2 -1 3 -1 4 -1c2 0 3 0 5 1c2 2 12 8 21 13l17 10
v49c0 95 6 220 17 399l6 95l-9 9c-6 6 -9 13 -9 22c0 7 2 15 6 24c1 4 2 8 2 9v1c-6 0 -106 -51 -146 -74c-42 -24 -110 -67 -116 -74c-1 -2 -1 -3 -1 -4s1 -3 4 -5c7 -6 11 -16 11 -25v-4c-1 -3 -5 -10 -9 -14c-7 -7 -8 -7 -38 -8c-25 0 -33 0 -41 4c-13 6 -20 17 -20 30
c0 9 4 19 11 29c25 35 122 102 238 164c122 66 271 121 390 145c61 12 115 18 163 18c70 0 125 -13 166 -40c44 -29 66 -70 66 -122c0 -81 -54 -187 -160 -315c-34 -42 -122 -129 -162 -162c-62 -52 -172 -130 -235 -167l-24 -14v-31c0 -32 4 -98 11 -162
c11 -98 17 -152 20 -165c2 -8 6 -24 8 -37c5 -29 10 -51 26 -114c9 -34 13 -51 13 -62c0 -6 -1 -10 -4 -15c-5 -12 -16 -18 -43 -22c-18 -4 -30 -6 -38 -6c-7 0 -11 1 -15 3zM432 742c110 84 213 185 289 285c77 100 120 197 120 260c0 24 -7 43 -20 56
c-12 13 -29 18 -65 23c-15 2 -25 3 -35 3c-9 0 -18 -1 -32 -2c-47 -4 -88 -11 -141 -25c-45 -11 -121 -35 -126 -39s-16 -120 -18 -194c-1 -27 -3 -89 -5 -138c-6 -138 -9 -207 -9 -238c0 -14 1 -20 2 -20s19 14 40 29z" />
    <glyph glyph-name="Q" unicode="Q" horiz-adv-x="948" 
d="M876 2c-4 2 -13 8 -21 15c-21 17 -44 29 -88 48c-38 16 -119 45 -172 63l-31 10l-35 -33c-42 -41 -71 -64 -104 -80c-30 -15 -51 -20 -76 -20c-55 0 -99 33 -131 98c-18 36 -35 85 -45 131l-6 29l-67 21c-128 39 -139 43 -149 51c-8 7 -11 16 -11 25c0 10 4 19 14 25
c3 3 9 4 16 4c12 0 28 -3 45 -9c42 -16 56 -21 98 -32l43 -12l-2 18c-5 52 -8 112 -8 176c0 75 4 155 11 230c14 155 47 339 84 470v2c0 3 -3 4 -21 6c-12 1 -24 1 -35 1c-23 0 -41 -1 -52 -4c-10 -3 -18 -4 -24 -4c-9 0 -15 2 -21 7c-7 6 -11 14 -11 22c0 9 5 19 15 28
c17 14 39 20 79 20c10 0 22 0 35 -1c22 -1 44 -3 49 -3h8l14 42c37 107 91 228 112 247c8 8 28 17 38 17c16 0 40 -14 46 -29c2 -4 3 -9 3 -16c0 -13 -5 -34 -17 -73c-39 -116 -61 -194 -61 -206v-1c1 -1 14 -4 29 -6c64 -11 142 -33 183 -52c103 -46 174 -134 204 -255
c14 -57 17 -80 17 -166c0 -80 -1 -96 -13 -162c-24 -147 -88 -290 -187 -422c-10 -14 -18 -26 -18 -26c1 -1 27 -11 58 -22c103 -36 139 -51 177 -71c42 -22 65 -45 70 -67v-5c0 -17 -15 -31 -31 -31c-4 0 -8 1 -11 2zM545 224c3 3 13 17 25 32c96 125 157 260 181 400
c9 59 12 91 12 156c0 51 -1 70 -6 97c-24 139 -82 218 -193 263c-38 16 -157 44 -180 44c-2 0 -4 0 -4 -1c-3 -2 -14 -45 -33 -123c-22 -95 -28 -125 -36 -182c-17 -123 -22 -191 -25 -367c0 -27 -1 -47 -1 -63c0 -35 2 -47 5 -64c2 -12 3 -20 3 -26c0 -5 -1 -9 -2 -13
s-1 -9 -1 -14c0 -7 0 -16 2 -30c3 -18 6 -34 7 -36c1 -1 31 -12 68 -23c36 -11 89 -28 117 -38c29 -9 53 -17 55 -17c1 0 4 2 6 5zM433 111c20 16 55 48 55 51c-1 2 -168 55 -172 55v-1c0 -5 12 -43 19 -58c16 -33 49 -60 74 -61c3 0 14 6 24 14z" />
    <glyph glyph-name="R" unicode="R" horiz-adv-x="800" 
d="M268 3c-19 5 -27 13 -33 35c-3 11 -4 18 -4 25s2 13 6 21c5 11 6 14 8 115c2 57 5 158 7 225c1 48 2 91 2 111v12c0 1 -16 2 -34 3c-44 1 -52 6 -52 30c0 15 7 25 26 34c7 3 25 14 39 24l27 18l2 31c7 138 13 226 23 358c7 93 10 134 10 150c0 5 -1 8 -1 9
c-2 6 -3 19 -3 33s1 29 3 38c1 6 1 11 1 14v2h-1c-5 0 -48 -18 -97 -42c-62 -31 -139 -78 -169 -104l-8 -7l6 -3c11 -5 16 -15 16 -26c0 -9 -4 -19 -14 -24c-5 -2 -15 -4 -30 -4c-30 0 -45 7 -54 24c-3 5 -4 11 -4 16c0 17 11 35 36 57c77 72 242 160 388 208
c61 20 169 45 269 45c119 0 227 -37 227 -165v-2c0 -94 -73 -218 -219 -374c-60 -64 -120 -120 -209 -191l-43 -35v-17l1 -18l47 -9c25 -5 69 -14 97 -20c27 -5 78 -16 111 -23c91 -18 129 -29 148 -42c8 -5 13 -16 13 -27s-10 -32 -18 -37c-4 -3 -9 -4 -14 -4
c-7 0 -15 2 -23 7c-20 14 -29 17 -56 23c-14 3 -39 8 -56 12c-16 5 -44 9 -60 12c-36 4 -170 16 -185 16h-10l-1 -18c-1 -10 -2 -33 -3 -51s-5 -121 -10 -228s-9 -199 -9 -204c0 -11 -8 -24 -20 -31c-7 -4 -13 -5 -34 -5c-14 0 -31 1 -39 3zM440 800c32 29 88 90 117 125
c112 135 174 259 174 347c0 55 -20 81 -73 94c-15 4 -21 5 -32 5c-7 0 -16 -1 -31 -2c-45 -3 -84 -10 -135 -22c-21 -6 -39 -11 -40 -11c-1 -1 -26 -555 -26 -571v-7l9 8c6 5 22 20 37 34z" />
    <glyph glyph-name="S" unicode="S" horiz-adv-x="751" 
d="M20 2c-35 5 -56 15 -69 32c-7 9 -11 21 -11 32c0 3 0 6 1 9c4 19 26 41 41 41s27 -15 27 -31v-10c0 -4 1 -5 3 -6c5 -2 36 -4 64 -4c19 0 35 1 42 2c73 13 167 71 242 148c43 46 80 95 102 144c23 50 33 87 33 116c0 65 -51 95 -140 146c-163 92 -340 142 -340 271
c0 51 27 115 95 199c65 80 155 168 242 231c75 54 150 92 208 106c18 4 34 6 47 6c62 0 84 -41 84 -97c0 -35 -9 -76 -22 -116c-22 -66 -49 -124 -100 -223c-17 -31 -33 -64 -35 -71c-5 -18 -9 -24 -19 -28c-4 -2 -7 -2 -11 -2c-8 0 -15 3 -20 10c-6 6 -7 10 -7 21
c0 18 3 27 38 95c49 97 80 170 98 229c8 27 14 47 14 59s-4 17 -15 17c-12 0 -30 -6 -58 -18c-100 -44 -249 -173 -353 -310c-39 -47 -55 -85 -55 -116c0 -84 116 -129 259 -201c113 -57 210 -127 210 -242c0 -39 -12 -84 -38 -135c-39 -75 -97 -145 -163 -196
c-69 -53 -125 -77 -225 -99c-49 -10 -52 -10 -102 -11c-29 0 -59 1 -67 2z" />
    <glyph glyph-name="T" unicode="T" horiz-adv-x="611" 
d="M355 4c-15 6 -28 19 -30 31c-1 6 -3 20 -5 32c-7 38 -10 88 -12 208v68c0 164 5 392 15 555c3 61 15 241 21 315c0 4 1 8 1 11c0 6 -2 10 -5 15c-4 5 -5 17 -5 30s1 26 4 37c4 15 6 27 6 32c0 3 0 4 -1 4c-25 0 -213 -16 -258 -21c-63 -8 -81 -12 -89 -19
c-6 -6 -14 -9 -21 -9c-18 0 -36 15 -36 37c0 16 12 29 31 35c35 10 123 23 222 33c197 18 532 37 670 37c13 0 25 -1 34 -1c57 -2 80 -5 99 -13c22 -9 35 -28 35 -46c0 -9 -3 -17 -10 -24c-5 -5 -11 -8 -17 -8c-7 0 -16 3 -27 9l-21 10l-79 1h-37c-69 0 -146 -2 -267 -9
c-40 -2 -77 -4 -84 -4h-11l4 -11c1 -2 2 -8 2 -22c0 -40 -5 -151 -19 -467c-11 -263 -24 -551 -27 -639c-4 -88 -9 -168 -10 -177c-3 -12 -6 -19 -13 -25c-8 -9 -9 -9 -29 -9c-11 0 -25 2 -31 4z" />
    <glyph glyph-name="U" unicode="U" horiz-adv-x="697" 
d="M457 2c-16 8 -21 16 -21 36v4c0 46 11 456 19 684c1 40 3 64 3 77c0 8 -1 12 -2 12s-5 -12 -11 -29c-91 -259 -127 -356 -170 -451c-49 -112 -91 -172 -135 -194c-13 -7 -18 -8 -37 -8s-23 1 -35 8c-56 31 -96 138 -115 317c-8 69 -11 114 -13 206v41
c0 189 19 387 57 571c8 40 12 57 30 123c7 31 16 35 60 35c34 0 42 -3 52 -18c3 -4 4 -9 4 -17c0 -11 -3 -27 -11 -57c-34 -128 -58 -302 -67 -485c-2 -26 -2 -69 -2 -115c0 -74 2 -157 4 -189c8 -95 19 -166 35 -226c9 -35 24 -77 34 -93l5 -8l6 9c38 48 91 169 159 354
c51 139 117 336 144 427l16 52l4 121c1 49 2 95 2 119v23c0 21 13 32 40 32s64 -5 70 -9c11 -7 15 -16 15 -58c0 -29 -2 -73 -6 -143c-21 -358 -31 -594 -36 -870c-1 -62 -2 -103 -2 -134c0 -30 1 -48 2 -65c1 -13 1 -23 1 -31c0 -19 -3 -25 -11 -33
c-12 -10 -51 -20 -74 -20c-6 0 -11 1 -14 2z" />
    <glyph glyph-name="V" unicode="V" horiz-adv-x="566" 
d="M98 6c-77 38 -126 272 -153 733c-3 65 -5 179 -5 289c0 64 1 127 2 178l4 115l9 10c13 13 30 19 61 23c11 1 18 1 23 1c7 0 10 -1 15 -3c6 -3 12 -9 15 -15c2 -5 4 -9 4 -14c0 -4 -1 -9 -2 -16c-11 -75 -12 -110 -12 -296c0 -114 1 -201 3 -230c6 -86 11 -144 17 -190
c3 -25 7 -61 8 -80c2 -18 7 -67 12 -109c8 -66 12 -85 27 -145c10 -39 22 -83 27 -98l10 -28l7 15c48 108 111 290 237 690c90 285 170 524 187 563c8 18 21 32 33 34c3 1 5 1 8 1c16 0 31 -13 31 -29c0 -6 -5 -22 -11 -37c-23 -58 -102 -299 -206 -627
c-67 -211 -101 -315 -141 -426c-77 -218 -114 -290 -158 -310c-7 -3 -16 -5 -25 -5c-10 0 -19 2 -27 6z" />
    <glyph glyph-name="W" unicode="W" horiz-adv-x="1034" 
d="M624 3c-40 15 -70 62 -97 153c-24 77 -43 192 -53 310c-7 89 -9 150 -10 358l-2 224l-28 -77c-15 -42 -57 -160 -93 -262c-121 -342 -156 -429 -196 -488c-25 -38 -52 -58 -78 -58c-16 0 -31 7 -45 20c-49 44 -75 190 -81 448c-1 35 -1 69 -1 103c0 130 6 259 23 448
c4 42 8 86 9 97s3 24 5 29c6 13 20 24 34 26c6 1 19 3 29 6c7 1 14 2 19 2c18 0 29 -7 34 -22c1 -4 2 -6 2 -9s-1 -6 -3 -11c-2 -7 -4 -25 -5 -42s-3 -58 -5 -92c-1 -33 -5 -82 -8 -108c-12 -114 -16 -183 -16 -271c1 -47 2 -101 3 -120c1 -18 4 -54 6 -79
c4 -62 12 -130 20 -171c11 -59 23 -110 25 -113c2 0 8 12 14 26c29 65 62 153 141 375c148 417 174 487 196 517c12 17 19 19 51 24c13 2 21 3 26 3c6 0 9 -1 14 -4c17 -8 18 -14 25 -87c6 -79 10 -143 12 -218c1 -31 3 -72 4 -90c2 -19 4 -85 5 -147c3 -103 6 -148 14 -210
c1 -12 4 -38 5 -59c6 -81 22 -175 42 -237c10 -31 27 -71 30 -71c9 0 51 106 75 192c35 120 98 410 151 692c29 156 49 301 49 348c0 10 -1 15 -3 15c-5 0 -11 15 -11 25c0 22 20 36 41 36c12 0 23 -4 31 -15c7 -10 10 -24 10 -50c0 -9 0 -21 -1 -34
c-8 -109 -27 -230 -74 -464c-86 -437 -128 -606 -181 -727c-32 -73 -66 -120 -99 -136c-10 -5 -24 -8 -36 -8c-7 0 -14 1 -19 3z" />
    <glyph glyph-name="X" unicode="X" horiz-adv-x="912" 
d="M-39 -43c-10 4 -18 15 -21 25v4c0 11 11 31 104 180c38 60 137 222 228 369c41 69 91 150 110 181l35 57l-6 10c-70 128 -113 221 -193 422c-49 122 -49 123 -57 127c-9 4 -15 18 -15 33c0 6 2 12 4 18c4 10 40 44 52 49c4 1 7 2 11 2c9 0 19 -4 27 -11
c6 -6 11 -16 19 -37c6 -17 28 -71 50 -121c21 -50 44 -104 50 -119c14 -35 33 -76 52 -110c8 -15 29 -54 46 -86s32 -58 32 -58c1 0 10 13 20 29c50 81 136 215 208 323c77 116 80 121 80 133c0 16 9 35 33 65c18 24 30 34 43 37c3 1 6 1 8 1c16 0 31 -14 31 -32
c0 -19 -10 -36 -159 -268c-153 -239 -226 -355 -226 -360c0 -3 15 -30 31 -57c7 -11 16 -26 20 -34c17 -34 68 -107 102 -147c13 -15 36 -42 51 -61s39 -48 54 -66c41 -48 77 -94 92 -115c12 -17 14 -22 14 -32c0 -14 -3 -20 -18 -36c-30 -33 -41 -40 -58 -40h-8
c-23 2 -31 10 -35 33c-1 6 -6 18 -11 26c-13 20 -57 77 -114 150c-26 32 -61 77 -77 98c-30 39 -94 134 -106 156c-4 5 -6 10 -8 10h-1c-1 0 -33 -52 -72 -115c-38 -62 -104 -170 -146 -238c-76 -126 -217 -353 -231 -375c-10 -15 -21 -23 -33 -23c-4 0 -8 1 -12 3z" />
    <glyph glyph-name="Y" unicode="Y" horiz-adv-x="765" 
d="M204 4c-14 7 -21 20 -21 33c0 11 5 22 16 30c8 6 12 7 35 7c30 1 53 6 59 15c2 3 8 7 13 9c12 6 27 20 53 50c43 51 56 75 90 167c28 74 38 109 48 163c14 78 16 92 20 139c3 26 6 61 8 77c6 46 9 85 9 146c0 30 -1 65 -2 109c-2 124 -6 199 -10 233l-1 15l-40 -96
c-48 -120 -147 -354 -182 -432c-34 -78 -75 -157 -99 -194c-37 -56 -73 -85 -108 -85c-9 0 -19 3 -28 7c-31 13 -54 47 -73 105c-33 100 -51 265 -51 448c0 77 3 158 10 239c6 77 18 159 26 189c1 6 6 15 11 19c9 9 36 16 58 16h4c14 -1 18 -3 26 -11c10 -9 13 -17 13 -31
c0 -5 0 -11 -1 -18c-4 -31 -10 -95 -15 -150c-2 -26 -6 -65 -9 -87c-3 -28 -4 -90 -4 -152s1 -126 4 -159c3 -24 6 -60 8 -78c7 -90 21 -167 37 -204c9 -20 13 -30 18 -30c4 0 9 8 18 22c47 73 133 268 309 700l55 134l-4 23c-1 9 -1 19 -1 25v6c5 17 25 31 47 31h6
c32 -4 45 -9 53 -22c17 -25 33 -263 36 -516v-70c0 -138 -5 -235 -18 -330c-33 -238 -113 -389 -237 -450c-30 -14 -72 -28 -113 -37c-28 -6 -44 -9 -55 -9c-7 0 -12 2 -18 4z" />
    <glyph glyph-name="Z" unicode="Z" horiz-adv-x="885" 
d="M72 3c-70 12 -115 51 -128 112c-3 13 -4 24 -4 36s1 25 4 43c8 55 28 113 66 190c68 142 182 308 316 465c149 174 313 314 529 453c29 19 51 34 51 35c-4 -1 -22 -5 -41 -8s-91 -17 -161 -30c-235 -45 -342 -60 -444 -60c-13 0 -27 1 -40 1c-134 5 -226 27 -249 61
c-5 8 -8 16 -8 24c0 21 17 39 40 39c3 0 5 -1 8 -1c13 -2 21 -8 33 -25c4 -5 12 -8 34 -12c51 -10 90 -13 162 -13c107 0 197 12 457 62c173 33 283 52 330 56l37 3l20 -11c23 -12 34 -24 38 -40c2 -8 3 -16 3 -23c0 -9 -1 -17 -4 -22c-5 -9 -6 -10 -106 -79
c-36 -25 -78 -54 -94 -65c-31 -23 -136 -107 -174 -142c-13 -11 -38 -33 -55 -48c-107 -90 -198 -183 -310 -318c-66 -78 -122 -160 -154 -224c-6 -12 -19 -35 -29 -52c-22 -40 -42 -80 -55 -111c-23 -56 -46 -131 -51 -166v-9c0 -19 4 -44 9 -47c2 -1 9 -2 19 -2
c23 0 60 3 83 7c111 19 220 67 366 160c51 32 91 61 105 76c12 12 24 19 35 19c10 0 18 -5 26 -13s12 -17 12 -26c0 -12 -8 -26 -24 -41c-34 -30 -172 -119 -250 -160c-90 -47 -190 -81 -275 -93c-18 -3 -46 -4 -71 -4c-23 0 -44 1 -56 3z" />
    <glyph glyph-name="bracketleft" unicode="[" horiz-adv-x="411" 
d="M116 52l-2 19c-4 57 -7 107 -7 162v25l3 291c2 215 4 425 19 640c3 41 6 83 7 124c1 7 1 15 1 23c0 9 0 17 -3 23c-2 4 -5 12 -5 17c0 2 -1 5 -2 6c-3 5 -4 11 -4 16c0 13 9 25 22 32c11 5 32 11 44 11c11 0 23 -5 29 -13v-1c3 0 11 1 13 1c10 1 22 2 32 5c6 1 13 3 19 3
c7 0 14 -2 20 -8c5 -6 9 -13 9 -21v-1c0 -24 -32 -37 -53 -40l-9 -2v-4c0 -66 -2 -134 -3 -200c-3 -140 -5 -280 -8 -420c-4 -206 -7 -413 -12 -619l-1 -35l6 2c9 4 18 8 28 8c6 0 13 -2 19 -8s8 -13 8 -20c0 -10 -4 -19 -11 -25c-22 -19 -66 -32 -93 -38
c-11 -3 -24 -6 -34 -9c-5 -2 -12 -3 -18 -3c-5 0 -10 1 -14 3c-5 3 -10 9 -12 14c-2 4 -4 9 -4 14c0 8 4 17 11 24z" />
    <glyph glyph-name="backslash" unicode="\" horiz-adv-x="822" 
d="M0 1391v5c0 26 13 38 29 38c9 0 20 -4 29 -13c14 -14 55 -100 65 -117c37 -65 683 -1209 692 -1229c5 -12 7 -25 7 -36c0 -23 -9 -41 -23 -41c-13 0 -30 14 -47 51c-9 18 -658 1159 -698 1231c-50 91 -53 98 -54 111z" />
    <glyph glyph-name="bracketright" unicode="]" horiz-adv-x="430" 
d="M196 58c2 17 1 41 2 58c1 49 2 99 2 149c3 148 5 295 7 443l6 440c0 71 2 143 2 214h-20c-9 1 -27 1 -36 3c-11 3 -20 12 -24 23c-1 3 -1 5 -1 8c0 10 6 20 15 26c7 5 17 6 26 6c8 0 15 -1 21 -1c4 -1 14 -1 23 -1c7 0 12 0 15 1c6 3 18 4 24 5c4 0 14 1 17 3
c5 4 12 6 18 6c12 0 24 -6 30 -16c6 -11 7 -40 7 -75c0 -73 -8 -174 -9 -200c-10 -137 -19 -275 -19 -413c1 -93 5 -186 11 -279c3 -58 5 -120 5 -181c0 -53 -1 -106 -5 -157c-1 -5 -4 -33 -4 -50c0 -7 1 -12 2 -14c2 -4 3 -8 3 -12c0 -17 -19 -29 -35 -35
c-21 -8 -80 -16 -120 -16c-13 0 -24 1 -31 3c-18 6 -28 19 -28 33c0 13 8 26 23 34c7 4 15 6 22 6c9 0 17 -3 24 -10l4 -4l13 2c3 0 7 0 10 1z" />
    <glyph glyph-name="underscore" unicode="_" horiz-adv-x="771" 
d="M122 407c-16 6 -22 14 -22 27s10 22 31 29c17 5 27 5 171 7c135 2 157 3 189 8c17 2 30 4 39 4c14 0 23 -3 31 -8c8 -6 10 -10 10 -18c0 -15 -11 -24 -38 -33c-41 -12 -60 -13 -213 -13c-120 0 -144 -1 -154 -4c-7 -3 -14 -4 -21 -4c-8 0 -15 2 -23 5z" />
    <glyph glyph-name="a" unicode="a" horiz-adv-x="501" 
d="M225 316c-2 17 -3 38 -3 62c0 78 10 185 25 258c2 8 3 15 3 18v1s-9 -13 -19 -29c-33 -53 -89 -136 -112 -165c-30 -36 -64 -52 -94 -52c-25 0 -48 11 -63 31c-16 21 -22 48 -22 77c0 56 23 119 44 161c27 56 71 107 127 136c28 15 58 24 87 24c23 0 45 -6 67 -19l14 -8
c30 19 48 23 76 23c8 0 17 -1 28 -1c29 -1 45 -7 45 -28c0 -7 -1 -15 -5 -26c-37 -106 -53 -227 -66 -339c-2 -19 -3 -33 -3 -44c0 -18 2 -25 7 -25c28 0 125 274 137 307c7 14 24 20 38 20s25 -5 25 -16c0 -2 0 -4 -1 -6c-38 -132 -102 -269 -130 -330
c-36 -79 -93 -149 -138 -149c-31 0 -57 33 -67 119zM98 545c22 30 42 61 87 133c18 29 37 59 43 68c5 7 9 14 9 17v1c-2 4 -11 7 -19 7c-2 0 -4 -1 -6 -1c-10 -4 -42 -36 -56 -57c-16 -26 -40 -75 -53 -110c-11 -30 -24 -75 -24 -83v-1c1 0 9 12 19 26z" />
    <glyph glyph-name="b" unicode="b" horiz-adv-x="456" 
d="M-19 307c-21 3 -26 6 -35 15c-4 4 -6 7 -6 23c0 20 3 61 11 154c36 446 50 565 95 811c5 32 12 70 14 84c4 30 8 37 23 44c10 5 35 7 55 7c14 0 25 -1 30 -3c11 -6 16 -14 16 -31c0 -7 -1 -15 -2 -25s-5 -36 -8 -58c-19 -138 -37 -279 -58 -417c-6 -43 -11 -84 -16 -127
l16 22c19 26 51 60 69 72c25 19 52 29 75 29c12 0 24 -3 33 -9c10 -6 25 -22 32 -34c23 -38 31 -97 31 -154c0 -45 -5 -88 -13 -121c-30 -125 -112 -239 -250 -249l-24 -1l-6 -12c-9 -19 -19 -24 -43 -24c-11 0 -29 2 -39 4zM84 425c98 75 145 167 145 279c0 29 -3 59 -9 90
l-5 24l-19 -21c-36 -38 -106 -144 -110 -197c-3 -44 -11 -88 -14 -133c-2 -21 -3 -41 -4 -45c-1 -2 -1 -3 -1 -4s1 -2 2 -2c2 0 7 3 15 9z" />
    <glyph glyph-name="c" unicode="c" horiz-adv-x="288" 
d="M22 312c-65 18 -82 101 -82 176c0 37 4 72 8 96c18 103 52 203 91 262c30 45 69 69 105 69c22 0 42 -9 58 -26c11 -12 18 -33 18 -54c0 -20 -7 -39 -21 -47c-6 -4 -12 -6 -17 -6c-12 0 -22 9 -28 25c-1 3 -3 4 -4 4c-15 0 -54 -81 -75 -174c-8 -33 -14 -75 -14 -116
c0 -44 7 -87 25 -119c57 27 164 212 193 271c11 22 29 33 44 33c14 0 25 -9 25 -28c0 -10 -4 -24 -12 -40c-51 -101 -83 -159 -151 -242c-44 -52 -96 -87 -141 -87c-7 0 -15 1 -22 3z" />
    <glyph glyph-name="d" unicode="d" horiz-adv-x="535" 
d="M327 35c-17 8 -25 22 -25 45c0 7 -2 27 -4 43c-2 17 -5 59 -6 93c-2 35 -4 76 -6 91c-4 44 -5 81 -6 143c-2 84 -11 284 -15 320c-1 5 -2 7 -3 7c-18 0 -89 -220 -152 -323c-35 -52 -70 -76 -99 -76c-41 0 -71 47 -71 128c0 8 0 16 1 25c3 57 21 119 49 178
c46 98 105 150 168 150c9 0 17 -1 26 -3s17 -3 19 -3h1c1 1 33 112 48 165c20 71 17 104 18 176c0 59 0 92 2 111c3 27 35 45 66 45c25 0 50 -12 57 -42c3 -11 4 -26 4 -69c0 -39 -1 -99 -3 -200c-1 -62 -1 -111 -1 -158c0 -48 0 -93 1 -147c5 -235 14 -445 23 -558
c4 -50 5 -55 13 -69c2 -4 3 -8 3 -13c0 -12 -7 -27 -19 -40c-9 -10 -16 -12 -51 -19c-13 -2 -20 -3 -25 -3s-8 1 -13 3zM94 562c25 54 84 205 84 215v1c-1 0 -10 -10 -20 -22c-20 -26 -48 -70 -63 -102c-18 -36 -37 -112 -37 -145v-12l9 13c4 7 16 31 27 52z" />
    <glyph glyph-name="e" unicode="e" horiz-adv-x="309" 
d="M-36 458c-16 46 -24 99 -24 151c0 69 14 138 42 187c26 47 76 76 123 76c16 0 31 -3 45 -10c30 -15 48 -45 50 -86v-9c0 -32 -10 -61 -32 -92c-23 -32 -59 -59 -85 -63c-9 -2 -10 -3 -12 -10v-8c0 -19 4 -58 9 -80c11 -47 24 -65 38 -65c20 0 43 32 69 67
c48 61 58 83 99 149c26 42 33 47 46 49h4c11 0 23 -5 28 -14c3 -4 5 -12 5 -18c0 -9 -5 -18 -29 -57c-47 -77 -63 -108 -122 -178c-48 -57 -101 -96 -148 -96c-42 0 -80 31 -106 107zM92 683c23 17 44 49 44 80c0 3 -1 6 -1 9c-2 15 -8 30 -21 34c-11 -7 -39 -72 -39 -116
c0 -6 1 -11 2 -16c1 0 8 4 15 9z" />
    <glyph glyph-name="f" unicode="f" horiz-adv-x="307" 
d="M-27 21c-16 45 -26 105 -31 182c-2 19 -2 50 -2 84c0 55 2 118 4 155c9 104 24 217 42 317c7 43 32 174 70 253c17 34 39 61 73 61c9 0 19 -2 30 -6c14 -6 18 -16 18 -29c0 -16 -8 -35 -11 -48c-30 -109 -47 -189 -68 -299c-10 -55 -14 -79 -14 -84v-1c1 -1 9 -2 18 -3
c103 0 148 40 195 94c17 22 32 31 44 31c16 0 26 -15 26 -33c0 -9 -3 -19 -9 -28c-50 -74 -126 -123 -227 -131l18 -20c64 -73 101 -140 121 -217c7 -29 11 -59 11 -89c0 -36 -5 -72 -14 -107c-28 -106 -106 -195 -180 -195c-44 0 -86 33 -114 113zM204 124
c7 28 10 55 10 81c0 17 -1 34 -4 51c-4 29 -20 78 -33 104c-27 53 -69 102 -109 146c-5 -41 -7 -86 -7 -131c0 -90 9 -211 28 -297c11 -45 27 -69 46 -69c23 0 48 37 69 115z" />
    <glyph glyph-name="g" unicode="g" horiz-adv-x="449" 
d="M-53 42h6c53 0 110 51 129 81c41 65 70 153 84 204c23 80 51 237 51 281v14l-26 -52c-28 -56 -54 -99 -79 -131c-35 -44 -63 -62 -85 -62c-43 0 -64 65 -64 138c0 20 1 40 4 59c19 128 88 258 156 297c20 11 40 16 61 16c25 0 50 -8 73 -24c33 -24 58 -61 64 -99
c5 -36 8 -81 8 -129c0 -78 -7 -164 -19 -234c-11 -63 -32 -133 -64 -198c-43 -88 -105 -167 -187 -209c-32 -16 -71 -28 -116 -29h-5c-43 0 -58 14 -58 30c0 23 30 51 53 51c5 0 10 -1 14 -4zM100 541c24 42 29 52 69 137c34 74 39 86 39 96v4c-1 9 -5 13 -9 13
c-9 0 -24 -16 -36 -34c-33 -46 -56 -117 -69 -171c-4 -17 -8 -48 -8 -60c0 -3 0 -5 1 -5s6 9 13 20z" />
    <glyph glyph-name="h" unicode="h" horiz-adv-x="488" 
d="M267 394c-6 32 -11 76 -17 144c-4 47 -10 112 -18 159c-4 24 -12 34 -23 34c-18 0 -43 -28 -70 -73c-17 -28 -17 -29 -20 -56c-5 -41 -9 -104 -14 -146c-2 -23 -8 -34 -22 -41c-9 -4 -22 -7 -36 -7c-24 0 -51 6 -64 17c-10 8 -13 25 -13 51c0 17 1 38 4 64
c11 90 20 209 27 363c2 47 6 113 8 147c8 134 11 182 11 211c0 11 0 19 -1 27c-1 25 -1 43 -1 57c0 17 0 27 2 33c6 19 22 26 57 26h13c30 -1 41 -6 48 -19c2 -5 3 -52 3 -108c0 -67 -1 -148 -4 -178c-2 -24 -4 -91 -5 -165c-1 -68 -2 -136 -3 -149l-2 -25l17 15
c29 26 59 39 86 39c36 0 67 -23 86 -73c24 -64 42 -190 50 -258c6 -47 8 -69 13 -69s13 22 29 64c29 70 61 151 71 187c10 33 27 48 42 48s27 -14 27 -38c0 -7 -1 -15 -4 -24c-10 -33 -23 -67 -50 -139c-18 -47 -33 -82 -45 -108c-29 -63 -72 -106 -110 -106
c-31 0 -58 28 -72 96z" />
    <glyph glyph-name="i" unicode="i" horiz-adv-x="271" 
d="M56 1120c24 -9 34 -27 34 -46c0 -29 -23 -59 -54 -59c-7 0 -15 2 -23 6c-21 11 -29 27 -29 44c0 29 24 58 54 58c6 0 12 -1 18 -3zM-28 763v3c0 34 15 57 51 65c8 2 16 2 24 2c20 0 38 -5 44 -15c3 -4 4 -7 4 -15c0 -7 -1 -19 -5 -42c-10 -58 -13 -104 -13 -169
c0 -54 1 -81 7 -111c12 -61 21 -89 34 -89c14 0 32 29 60 80c39 69 56 130 87 203c6 16 13 36 35 36c9 0 22 -7 27 -15c3 -5 4 -9 4 -15c0 -13 -6 -32 -21 -72c-44 -115 -59 -147 -89 -196c-42 -68 -91 -107 -134 -107c-32 0 -60 20 -81 64c-30 63 -36 153 -36 240
c0 55 2 109 2 153z" />
    <glyph glyph-name="j" unicode="j" horiz-adv-x="221" 
d="M7 970c-19 9 -27 26 -27 45c0 29 21 60 54 60c30 0 51 -19 51 -47c0 -31 -30 -62 -60 -62c-6 0 -12 1 -18 4zM-280 -38c23 53 61 107 129 186c54 63 65 78 69 87c5 10 25 114 37 185c21 127 35 271 35 340c0 14 -1 25 -2 32c-1 6 -2 11 -2 16c0 12 3 23 9 29
c4 4 15 9 27 12c10 3 24 8 31 11s14 5 20 5c11 0 19 -5 25 -14c2 -4 3 -9 3 -26c0 -13 0 -32 -1 -62c-6 -233 -14 -335 -34 -432c-4 -21 -9 -52 -12 -70c-12 -91 -82 -344 -150 -430c-28 -36 -68 -53 -106 -53c-52 0 -98 33 -98 99c0 24 6 53 20 85zM-218 -106
c34 36 80 129 90 176c-3 0 -30 -34 -48 -59c-26 -38 -50 -86 -56 -115c-1 -4 -1 -7 -1 -10c0 -2 0 -3 2 -3s6 3 13 11z" />
    <glyph glyph-name="k" unicode="k" horiz-adv-x="382" 
d="M-14 274c-25 2 -38 9 -44 24c-1 2 -2 4 -2 12c0 29 10 130 52 565c31 312 57 584 58 604c2 20 4 41 6 45c3 11 18 25 27 25c3 0 17 0 31 1c33 0 41 -2 52 -13c6 -7 7 -10 7 -18v-8c-1 -9 -3 -24 -4 -34c-2 -11 -4 -33 -6 -50c-1 -18 -7 -68 -13 -112
c-37 -274 -50 -412 -58 -567c-1 -32 -3 -67 -4 -77l-1 -20l19 18c41 38 215 174 232 181c4 2 8 2 12 2c9 0 18 -3 23 -10c3 -5 5 -12 5 -18c0 -7 -2 -13 -5 -18c-7 -11 -38 -38 -47 -42c-15 -6 -137 -106 -181 -147c-11 -10 -25 -26 -31 -35l-12 -15l8 -3
c20 -8 84 -14 196 -17c60 -1 81 -3 88 -6c12 -5 18 -16 18 -27c0 -13 -9 -26 -25 -30c-7 -1 -40 -2 -78 -2s-80 1 -105 2c-47 3 -93 9 -111 15c-7 2 -13 3 -13 3c-1 -1 -9 -175 -9 -188c0 -19 -6 -27 -24 -36c-9 -4 -15 -6 -29 -6c-8 0 -18 1 -32 2z" />
    <glyph glyph-name="l" unicode="l" horiz-adv-x="312" 
d="M-5 432c-16 67 -25 156 -25 261c0 88 6 187 18 295c15 128 35 241 68 374c10 41 19 77 19 81c0 11 10 23 24 28c10 3 35 6 54 6c10 0 17 -1 22 -2c13 -4 25 -16 27 -27c0 -2 1 -3 1 -5c0 -7 -4 -16 -17 -46c-20 -50 -36 -116 -64 -275c-13 -68 -28 -234 -31 -339v-33
c0 -89 7 -217 29 -290c12 -39 23 -56 36 -56c19 0 41 40 69 96c31 61 54 125 84 185c8 16 22 24 35 24c15 0 28 -11 28 -31c0 -7 -1 -14 -4 -22c-3 -10 -9 -24 -17 -42c-12 -28 -17 -39 -27 -60c-23 -54 -49 -104 -74 -145c-51 -84 -101 -125 -144 -125
c-47 0 -87 50 -111 148z" />
    <glyph glyph-name="m" unicode="m" horiz-adv-x="762" 
d="M508 447c-8 36 -13 81 -17 137c-7 91 -13 140 -19 141c-4 0 -33 -40 -72 -96c-46 -67 -67 -88 -93 -88c-13 0 -26 7 -34 17c-13 17 -14 31 -17 125c-3 85 -6 135 -10 139h-1c-9 0 -46 -56 -80 -120c-12 -21 -34 -66 -50 -99c-30 -66 -30 -67 -33 -125
c-2 -39 -5 -50 -16 -60c-8 -7 -14 -10 -25 -10c-5 0 -12 1 -21 2c-43 5 -50 14 -50 63c0 52 9 133 32 282c6 38 10 74 10 80c0 30 12 46 40 53c11 3 33 9 51 9c10 0 20 -2 26 -9c5 -6 7 -14 7 -23c0 -19 -8 -42 -11 -56c-4 -24 -7 -39 -7 -44c0 -2 1 -3 1 -3c2 0 8 10 19 28
c21 35 67 106 117 122c8 3 16 4 23 4c76 0 74 -143 77 -192l1 -41l22 31c27 39 56 83 104 99c9 3 17 4 25 4c36 0 65 -28 79 -86c8 -31 14 -74 22 -133c3 -22 8 -60 13 -91c3 -22 9 -32 17 -32c32 0 94 155 119 210c14 31 32 45 45 45c12 0 20 -11 20 -31
c0 -11 -2 -23 -7 -38c-23 -66 -90 -181 -124 -239c-34 -60 -70 -92 -102 -92c-34 0 -64 38 -81 117z" />
    <glyph glyph-name="n" unicode="n" horiz-adv-x="494" 
d="M294 371c-33 66 -70 211 -90 291c-4 13 -7 24 -8 24c-2 0 -40 -56 -81 -118l-32 -49l-2 -33c-3 -44 -12 -68 -57 -68c-54 0 -54 35 -54 78c0 37 5 112 12 204c2 27 3 49 3 72v42c0 17 1 34 7 47c9 21 33 33 57 33c17 0 34 -7 43 -22c3 -6 5 -13 5 -30
c0 -14 -1 -35 -3 -68c-3 -56 -5 -92 -5 -108c0 -8 0 -12 1 -12s9 10 17 22c21 32 69 111 119 121c4 1 7 1 10 1c62 0 81 -112 90 -154c14 -65 32 -133 49 -185l12 -38c6 1 11 1 17 1c17 0 30 -5 30 -27v-5c-4 -43 -35 -72 -69 -72c-26 0 -52 16 -71 53z" />
    <glyph glyph-name="o" unicode="o" horiz-adv-x="319" 
d="M-23 464c-5 17 -7 45 -7 75c0 20 1 40 3 58c8 61 33 160 68 212c18 26 36 37 55 37c42 0 84 -55 106 -117c12 -33 17 -66 17 -99c0 -51 -13 -101 -37 -149c-31 -62 -79 -103 -122 -103c-34 0 -65 25 -83 86zM111 490c24 39 39 92 39 143c0 36 -8 72 -26 101
c-26 -26 -34 -113 -36 -179c0 -12 -1 -24 -1 -35c0 -20 1 -40 3 -60c8 10 15 19 21 30z" />
    <glyph glyph-name="p" unicode="p" horiz-adv-x="545" 
d="M-30 -36c3 54 4 74 8 283c5 239 13 382 36 612c5 42 9 92 10 112c2 64 1 73 68 75h13c34 0 44 -6 44 -29c0 -11 -2 -26 -5 -47c-13 -99 -24 -198 -26 -259l-2 -38l19 35c35 67 102 162 188 162c5 0 11 0 17 -1c69 -11 103 -81 105 -145v-8c0 -80 -42 -164 -94 -216
c-127 -128 -250 -106 -255 -110c-1 -1 -2 -47 -2 -98s1 -108 2 -133c1 -16 1 -39 1 -65c0 -70 -3 -159 -7 -177c-4 -20 -39 -46 -70 -46c-27 0 -50 19 -50 78v15zM151 472c72 38 143 110 163 188c5 18 7 38 7 57c0 37 -10 69 -32 69c-15 0 -36 -15 -63 -54
c-33 -46 -72 -138 -100 -231c-7 -22 -12 -40 -12 -42c0 -1 1 -2 2 -2c5 0 15 5 35 15z" />
    <glyph glyph-name="q" unicode="q" horiz-adv-x="521" 
d="M350 -224c-19 6 -28 12 -46 31c-34 36 -60 103 -81 210c-13 69 -22 141 -26 234l-2 34l-18 19c-10 11 -22 25 -27 32c-7 10 -10 19 -10 28c0 21 17 38 44 38c14 0 14 0 14 7c0 16 8 111 15 167c3 32 6 60 6 62c-1 0 -15 -27 -32 -61c-45 -90 -68 -129 -111 -188
c-14 -19 -31 -28 -48 -28c-44 0 -88 55 -88 125v11c3 58 24 131 64 226c15 37 26 55 49 84c26 34 49 49 85 61c16 5 29 7 39 7c7 0 13 -1 19 -3s16 -5 20 -7c6 -1 14 -5 20 -9c6 -3 11 -4 17 -4h5c27 2 41 2 50 2c7 0 11 0 15 -1c14 -4 26 -16 30 -29c1 -3 1 -5 1 -8
c0 -5 -1 -11 -4 -20c-7 -25 -38 -273 -40 -324l-1 -26l16 13c24 19 108 103 136 137c35 43 49 61 56 75c8 16 14 22 28 23h5c11 0 21 -6 27 -18c3 -6 4 -11 4 -17c0 -19 -16 -42 -67 -103c-60 -72 -136 -145 -187 -178l-21 -14l-1 -25c0 -14 0 -35 1 -47v-23l25 -26
c81 -88 118 -149 133 -220c5 -22 8 -49 8 -74c0 -28 -3 -56 -9 -78c-16 -60 -53 -97 -94 -97c-6 0 -13 0 -19 2zM63 487c23 39 54 98 91 174c19 40 41 85 50 101l15 30l-6 5c-5 5 -10 7 -16 7c-12 0 -26 -10 -42 -31c-37 -47 -74 -130 -95 -212c-9 -36 -15 -74 -15 -90
c0 -4 1 -7 2 -7s8 11 16 23zM403 -87c1 11 2 22 2 34c0 42 -10 87 -27 123c-11 22 -56 87 -61 87c0 -10 38 -164 43 -177c2 -5 6 -19 9 -31c5 -22 23 -62 28 -62h1c1 1 3 13 5 26z" />
    <glyph glyph-name="r" unicode="r" horiz-adv-x="470" 
d="M-30 428v26c0 51 4 145 13 277l7 99l-6 11c-3 6 -6 15 -6 20c0 14 11 68 15 79c5 12 19 25 28 27c25 5 36 7 49 7c19 0 30 -8 33 -23v-5c0 -12 -2 -40 -4 -70c-5 -74 -10 -140 -10 -151v-2c2 0 8 10 17 22c48 67 80 92 117 92c8 0 24 -3 35 -6s38 -11 58 -17l38 -12l13 5
c5 2 10 3 15 3c7 0 14 -3 20 -10c5 -6 8 -13 8 -20c0 -14 -10 -29 -26 -37c-8 -4 -15 -6 -25 -6c-18 0 -45 7 -97 23c-22 7 -33 10 -39 10c-2 0 -3 -1 -4 -1c-24 -9 -76 -81 -113 -157l-19 -38l1 -78v-37c0 -48 -2 -54 -13 -64c-11 -11 -29 -16 -46 -16c-28 0 -57 15 -59 49
z" />
    <glyph glyph-name="s" unicode="s" horiz-adv-x="361" 
d="M12 253c18 28 29 42 100 126l59 72l-8 16c-10 18 -33 42 -92 97c-45 42 -64 67 -76 101c-5 13 -7 27 -7 42c0 44 22 92 63 132c34 34 71 52 108 52c46 0 76 -25 92 -74c7 -23 11 -48 11 -87c0 -9 -1 -19 -1 -30l-2 -49l-7 -7c-5 -5 -12 -7 -18 -7c-13 0 -27 8 -31 23
c-2 5 -3 31 -3 57s-1 54 -3 62c-4 18 -13 39 -16 39c-7 0 -21 -12 -39 -32c-14 -17 -19 -26 -23 -39c-3 -10 -5 -18 -5 -26c0 -7 2 -15 5 -26c5 -14 9 -21 24 -36c10 -11 29 -28 43 -38c26 -20 47 -41 56 -58c3 -5 7 -10 8 -10c12 0 86 116 120 154c9 10 19 14 27 14
c14 0 24 -11 24 -29c0 -9 -2 -20 -9 -31c-27 -48 -109 -150 -137 -187c8 -41 13 -82 13 -122c0 -85 -22 -165 -84 -234c-32 -35 -84 -54 -131 -54c-55 0 -103 26 -103 81c0 28 13 64 42 108zM76 159c38 24 69 68 87 120c6 19 16 60 16 71c0 2 -1 3 -1 3
c-2 0 -68 -79 -93 -112c-18 -24 -31 -44 -39 -61c-6 -14 -9 -24 -9 -30c0 -5 2 -7 6 -7c6 0 18 6 33 16z" />
    <glyph glyph-name="t" unicode="t" horiz-adv-x="285" 
d="M60 200c-20 7 -38 30 -48 58c-15 47 -23 125 -23 224c0 87 6 189 18 299c10 97 34 267 40 287l1 2c0 1 -1 2 -5 2c-2 0 -6 0 -11 -1c-9 0 -51 -3 -94 -6c-34 -2 -54 -3 -66 -3c-13 0 -16 1 -19 4c-9 6 -13 15 -13 24c0 14 9 27 26 31c5 0 49 4 99 8c49 3 91 7 93 7
c1 1 5 12 7 25c3 12 11 52 19 87c7 35 16 76 18 89c6 31 12 46 22 51c8 4 55 8 80 8c7 0 13 0 15 -1c11 -4 18 -15 18 -27c0 -6 -5 -28 -11 -50c-7 -22 -16 -55 -20 -74c-7 -33 -17 -86 -17 -96v-2h3c9 0 33 1 62 3c102 7 191 12 224 12c7 0 12 -1 14 -1
c17 -2 31 -14 33 -28v-4c0 -11 -6 -24 -16 -28c-9 -4 -9 -4 -191 -13c-69 -4 -130 -7 -134 -7c-8 -1 -8 -2 -13 -22c-13 -59 -25 -135 -32 -209c-2 -22 -6 -55 -8 -73c-10 -83 -12 -100 -15 -174c-1 -42 -2 -83 -2 -116c0 -32 1 -57 2 -69c6 -34 12 -73 13 -85l2 -13l16 31
c25 48 47 102 93 227c38 102 43 115 51 123c7 6 9 7 15 7h8c18 -2 29 -14 29 -32c0 -3 0 -7 -1 -11c-4 -16 -79 -218 -100 -268c-48 -114 -86 -170 -128 -191c-11 -6 -23 -8 -34 -8c-7 0 -14 1 -20 3z" />
    <glyph glyph-name="u" unicode="u" horiz-adv-x="490" 
d="M284 320c-24 6 -37 22 -46 59c-10 38 -21 119 -21 157c-1 13 -2 26 -3 30c0 2 -1 4 -2 4s-2 -3 -6 -11c-25 -48 -62 -100 -94 -130c-25 -24 -47 -36 -68 -36c-14 0 -28 7 -41 20c-24 24 -33 59 -33 140c0 73 9 160 24 237c10 52 40 72 67 72c28 0 53 -20 53 -45
c0 -3 -1 -7 -2 -11c-11 -35 -28 -220 -28 -281c0 -9 0 -15 1 -18l2 -9l13 17c29 39 62 100 94 175l15 33l-2 45v23c0 44 8 46 57 49c7 0 13 1 19 1c39 0 43 -11 48 -55c0 -8 2 -50 4 -94c4 -140 15 -247 27 -286c1 -5 8 -14 15 -21c12 -11 13 -13 13 -24
c0 -13 -7 -26 -16 -31c-13 -7 -46 -12 -70 -12c-8 0 -15 1 -20 2z" />
    <glyph glyph-name="v" unicode="v" horiz-adv-x="391" 
d="M7 248c-29 15 -37 51 -37 164c0 92 9 219 27 369c10 88 12 93 53 107c14 5 25 7 34 7c15 0 24 -6 30 -18c4 -6 5 -14 5 -25c0 -10 -1 -23 -5 -39c-3 -13 -10 -60 -17 -104c-9 -65 -12 -96 -17 -169c-2 -41 -4 -82 -4 -102v-31l49 101c71 147 204 414 223 445
c17 29 26 37 41 37c19 0 32 -13 32 -32c0 -9 -4 -18 -21 -48c-19 -34 -122 -238 -162 -323c-62 -127 -93 -192 -113 -231c-18 -34 -54 -112 -100 -112c-6 0 -12 1 -18 4z" />
    <glyph glyph-name="w" unicode="w" horiz-adv-x="630" 
d="M-14 303c-21 8 -35 29 -41 61c-3 16 -5 36 -5 58c0 121 48 312 78 397c4 9 7 22 8 27c2 12 15 25 27 27c2 0 5 1 8 1c23 0 74 -8 82 -12c10 -5 16 -15 16 -26c0 -9 -4 -18 -11 -26c-3 -3 -8 -12 -12 -21c-16 -40 -52 -167 -60 -215c-4 -25 -11 -94 -11 -105v-1
c3 0 54 96 100 187c40 78 55 106 66 120c8 9 21 15 30 15s23 -7 29 -15c6 -9 8 -17 8 -50c0 -20 0 -50 -2 -96c-2 -49 -3 -80 -3 -104c0 -20 1 -35 2 -52c1 -24 4 -48 6 -53l2 -11l6 8c20 25 50 90 80 178c28 78 47 109 73 117c6 2 10 2 14 2c7 0 14 -2 28 -6
c31 -11 50 -15 72 -15c26 0 39 4 58 15c10 6 20 9 28 9c17 0 28 -12 28 -27c0 -13 -8 -29 -28 -42c-21 -14 -51 -22 -85 -22c-23 0 -47 4 -71 11c-12 4 -23 7 -23 7c-3 0 -16 -29 -30 -70c-34 -96 -56 -145 -82 -184c-25 -38 -46 -53 -73 -53c-55 0 -67 73 -69 116
c0 20 -1 47 -1 83v94c0 -1 -10 -20 -22 -43c-88 -170 -123 -230 -155 -261c-17 -17 -34 -26 -50 -26c-5 0 -10 1 -15 3z" />
    <glyph glyph-name="x" unicode="x" horiz-adv-x="315" 
d="M-181 153c-10 4 -19 18 -19 29c0 14 18 46 137 246l59 98l-2 15c-4 29 -6 70 -6 116s2 97 6 142c1 11 1 24 1 33v17c0 25 16 33 66 38h8c14 0 24 -5 30 -17c3 -5 4 -9 4 -27c0 -11 0 -27 -1 -51c0 -39 0 -74 1 -80l2 -9l41 65c26 42 44 68 50 73s12 7 18 7
c11 0 21 -6 31 -19c5 -6 8 -14 8 -21s-3 -13 -8 -19c-4 -4 -11 -8 -15 -9c-6 -1 -15 -16 -64 -97l-57 -96l2 -19c4 -46 14 -89 25 -111l4 -7l12 17c41 58 129 169 156 207c14 20 30 29 43 29c14 0 24 -11 24 -29c0 -12 -4 -26 -13 -43c-43 -79 -146 -195 -182 -237
c-17 -20 -41 -39 -58 -43c-6 -2 -11 -2 -17 -2c-30 0 -57 21 -75 60c-6 13 -12 23 -12 23c-2 0 -50 -81 -112 -189c-21 -35 -41 -69 -44 -75c-5 -7 -10 -13 -16 -15c-5 -2 -9 -4 -13 -4s-8 2 -14 4z" />
    <glyph glyph-name="y" unicode="y" horiz-adv-x="475" 
d="M158 -251v47c0 57 1 127 4 164c10 115 15 231 24 346c5 60 10 119 16 170l2 13l-20 -27c-44 -58 -88 -87 -125 -87c-36 0 -64 27 -78 80c-8 32 -11 66 -11 120v23c2 67 7 117 19 184c4 23 4 67 26 77c3 2 21 4 39 5c9 1 16 1 22 1c10 0 15 -1 20 -3c13 -6 20 -18 20 -33
c0 -5 -1 -12 -3 -18c-15 -41 -24 -151 -24 -240c0 -46 2 -86 8 -108c44 49 72 95 101 155l29 57l4 41c2 22 5 51 7 63s6 34 7 48c3 31 10 45 23 52c8 4 20 7 33 7c32 0 69 -14 74 -46v-8c0 -23 -6 -81 -18 -172c-20 -158 -26 -201 -35 -281c-11 -101 -20 -193 -30 -313
c-13 -161 -16 -210 -17 -279c0 -79 -27 -106 -55 -106c-30 0 -61 32 -62 68z" />
    <glyph glyph-name="z" unicode="z" horiz-adv-x="405" 
d="M270 348c-7 3 -26 6 -42 8c-22 2 -68 3 -106 3c-14 -1 -40 -4 -62 -4c-14 0 -27 2 -35 6c-16 10 -25 31 -25 53c0 14 4 30 11 43c6 12 22 35 34 52c21 29 59 88 108 166c21 32 72 126 72 132c-6 0 -76 -36 -98 -51c-33 -22 -59 -49 -61 -64s-14 -27 -26 -27
c-21 0 -33 14 -33 34c0 9 2 19 8 30c12 24 49 60 85 83c27 18 68 39 101 53c22 10 50 18 75 18c37 0 68 -17 69 -68c0 -41 -25 -94 -93 -195c-32 -48 -106 -155 -121 -175c-6 -8 -9 -13 -9 -16s3 -4 9 -4c7 0 18 1 32 1h7c88 -3 120 -9 138 -24c10 -9 15 -18 15 -28
c0 -3 -1 -6 -2 -10c-3 -14 -14 -20 -28 -20c-7 0 -15 1 -23 4z" />
    <glyph glyph-name="braceleft" unicode="{" horiz-adv-x="675" 
d="M413 1319c-7 -9 -14 -20 -18 -26c-10 -16 -20 -37 -29 -55c-22 -44 -32 -74 -40 -123c-7 -40 -7 -79 -8 -121c-1 -47 -2 -96 -2 -144c0 -67 -2 -132 -30 -195c-10 -21 -32 -49 -49 -66l-4 -3c14 -1 24 -5 36 -14c4 -4 11 -8 17 -10c27 -12 33 -31 33 -56v-12
c-3 -42 -16 -95 -25 -136c-8 -38 -13 -76 -13 -114c0 -25 2 -50 7 -75c4 -21 12 -50 21 -69c3 -7 14 -26 20 -33c9 4 26 18 32 22c29 25 67 66 91 96c21 25 41 54 56 83c8 16 16 32 34 32h5c13 -2 25 -12 27 -25c0 -2 1 -4 1 -7c0 -36 -49 -100 -69 -124
c-16 -20 -34 -39 -52 -57c-19 -20 -44 -46 -66 -62c-24 -18 -51 -32 -80 -32c-7 0 -14 0 -21 2c-23 6 -45 24 -60 43c-39 52 -49 125 -49 189c0 69 15 134 31 200c6 22 14 51 18 74c1 5 1 8 1 11c0 5 -1 7 -5 7c-3 0 -9 -2 -17 -4c-12 -4 -24 -6 -36 -9c-8 -2 -15 -3 -23 -3
c-3 0 -7 0 -12 1c-19 4 -35 19 -35 39c0 3 0 5 1 8c4 20 28 57 39 74c50 76 69 126 69 207c0 11 0 23 -1 36c-2 42 -4 82 -4 120c0 50 3 99 15 152c19 89 65 198 131 263c13 13 25 23 42 31c10 5 18 7 28 7c5 0 10 0 15 -2c19 -5 30 -16 38 -33l7 -16v-32
c0 -26 -3 -73 -27 -89c-5 -3 -10 -5 -15 -5c-8 0 -15 3 -21 9c-7 6 -10 13 -10 20c0 6 2 12 4 18c1 2 1 5 2 8z" />
    <glyph glyph-name="bar" unicode="|" horiz-adv-x="285" 
d="M179 1407c5 -9 6 -16 6 -69v-55c0 -80 -18 -1140 -18 -1212v-4c0 -5 1 -10 1 -15c0 -39 -12 -55 -25 -55c-18 0 -40 28 -43 62v18c0 147 12 1124 14 1194c0 13 -2 60 -2 95c0 17 0 32 2 38c6 19 19 30 32 30c12 0 24 -8 33 -27z" />
    <glyph glyph-name="braceright" unicode="}" horiz-adv-x="526" 
d="M293 559c1 -4 3 -9 4 -12c29 -72 42 -171 42 -248c0 -78 -13 -154 -57 -220c-4 -7 -9 -14 -15 -20c-22 -26 -73 -67 -115 -67c-8 0 -16 2 -23 5c-19 9 -29 27 -29 49c0 19 11 44 34 44c2 0 6 2 8 3c7 5 14 10 20 15c4 2 12 7 15 10c4 7 10 17 14 24c9 17 19 34 29 51
c12 21 22 62 25 87c1 4 1 8 1 13c0 25 -8 57 -12 77c-11 49 -30 124 -30 176v8c1 17 1 21 9 35c9 16 17 23 35 25l-2 4c-29 68 -40 130 -40 196c0 42 5 85 11 132c2 19 5 39 9 58c9 46 22 99 36 144c7 21 13 43 18 64c6 24 13 47 19 71c5 19 16 57 16 76c-3 -2 -7 -5 -9 -6
c-27 -18 -51 -40 -71 -66c-1 -1 -5 -6 -6 -7c1 -1 1 -2 1 -2c2 -5 3 -9 3 -13c0 -5 -1 -10 -4 -15c-4 -8 -18 -16 -28 -16s-21 7 -28 14c-7 8 -8 14 -9 24v6c0 9 2 14 7 24c28 53 113 127 173 138c6 1 12 2 17 2c47 0 65 -39 65 -83c0 -9 -1 -18 -2 -27
c-6 -47 -26 -104 -40 -149c-25 -81 -53 -166 -70 -249c-7 -34 -11 -67 -11 -101c0 -12 1 -25 2 -38c1 -5 2 -11 3 -16c5 -28 14 -52 27 -78c13 -24 33 -56 33 -84c0 -12 -2 -23 -10 -32c-10 -10 -21 -13 -35 -15c-6 -2 -23 -7 -30 -11z" />
    <glyph glyph-name="exclamdown" unicode="&#xa1;" horiz-adv-x="343" 
d="M125 1326c-4 8 -6 16 -6 25c0 6 1 11 2 17c8 34 25 47 42 47c10 0 21 -4 29 -11c13 -11 19 -25 19 -40c0 -5 -1 -10 -2 -15c-7 -26 -28 -51 -49 -51c-12 0 -25 8 -35 28zM209 1223c24 -7 32 -17 33 -41c0 -9 0 -26 1 -39c0 -12 -1 -53 -3 -92c-3 -39 -4 -88 -4 -109
c0 -66 -6 -414 -8 -459c-1 -24 -2 -63 -2 -88c0 -51 -3 -102 -10 -181c-3 -31 -6 -81 -8 -111c-3 -61 -5 -68 -17 -78c-6 -4 -16 -6 -28 -6c-6 0 -14 1 -21 2c-31 6 -40 15 -40 38c0 8 0 50 -1 93c0 18 -1 44 -1 74c0 43 1 93 2 135c10 486 12 579 15 639c2 31 4 77 6 102
c1 19 2 30 2 37s-1 10 -3 13c-4 6 -7 12 -7 19c0 10 5 21 14 34c12 16 23 21 48 21c11 0 25 -1 32 -3z" />
    <glyph glyph-name="cent" unicode="&#xa2;" horiz-adv-x="640" 
d="M309 112c-17 17 -21 41 -26 153l-4 64l-21 1c-49 3 -85 34 -116 100c-27 56 -40 114 -42 191v19c0 48 3 81 15 127c29 117 95 215 169 249c13 6 15 7 16 16s5 88 7 142c1 26 6 37 20 44c4 2 8 3 12 3c9 0 17 -4 24 -11s11 -15 11 -23c0 -5 -1 -10 -3 -15
c-2 -8 -4 -33 -6 -84c-1 -31 -2 -49 -2 -59c0 -12 1 -14 3 -16c11 -6 33 -29 40 -43c12 -23 23 -71 23 -95c0 -4 0 -7 -1 -10c-4 -12 -13 -19 -26 -19h-2c-19 0 -27 13 -34 49c-3 16 -5 27 -7 27c-3 0 -4 -39 -9 -153c-4 -86 -7 -232 -7 -291c0 -16 1 -25 1 -25
c4 0 34 43 51 72c30 51 67 124 67 134v3c0 8 12 31 20 38c3 2 11 6 16 8c4 1 6 1 9 1s6 -1 11 -3c13 -6 22 -20 22 -32c0 -13 -11 -39 -40 -96c-54 -105 -83 -148 -126 -192l-29 -28l3 -71c4 -86 7 -119 14 -140c2 -6 3 -11 3 -16c0 -9 -4 -15 -11 -22c-7 -6 -11 -7 -21 -7
c-12 0 -15 1 -24 10zM283 759c1 28 3 67 4 84c1 9 1 17 1 23s0 9 -1 9c-3 0 -22 -41 -28 -63c-12 -37 -15 -55 -23 -144c-1 -9 -1 -19 -1 -30c0 -60 13 -141 30 -176c4 -7 6 -11 8 -11c4 0 4 27 5 124c1 72 3 155 5 184z" />
    <glyph glyph-name="sterling" unicode="&#xa3;" horiz-adv-x="765" 
d="M115 5c-6 3 -11 10 -13 16c-2 4 -2 8 -2 12c0 11 6 20 23 35c63 54 130 153 155 229c13 38 18 68 19 116c0 8 1 15 1 23c0 35 -4 70 -7 77c-1 1 -3 1 -7 1c-7 0 -22 -1 -45 -4c-26 -3 -39 -4 -47 -4c-7 0 -10 1 -16 3c-14 6 -21 15 -21 30c0 8 2 12 8 19
c10 10 21 13 50 13c25 0 64 5 64 7c0 1 -10 36 -22 77c-25 84 -36 126 -42 164c-3 18 -4 41 -4 65c0 23 1 46 4 62c12 71 56 164 111 238c60 79 134 128 208 137c8 1 15 1 22 1c57 0 95 -33 108 -97c2 -11 3 -26 3 -43c0 -32 -3 -71 -9 -99c-12 -59 -36 -128 -50 -146
c-8 -11 -18 -16 -27 -16c-7 0 -13 3 -19 9s-9 12 -9 18s2 13 7 23c24 53 44 140 44 198c0 25 -5 61 -10 64h-2c-9 0 -36 -10 -50 -19c-50 -30 -79 -63 -126 -143c-49 -82 -73 -146 -82 -208c-1 -7 -1 -14 -1 -21c0 -35 11 -76 38 -150c11 -31 29 -89 29 -96c0 0 24 4 54 8
c35 6 58 9 74 9c22 0 30 -6 36 -18c2 -4 3 -7 3 -10c0 -2 -1 -5 -2 -9c-6 -20 -19 -25 -96 -35c-29 -4 -53 -8 -54 -8v-1c0 -5 2 -21 5 -39c6 -43 9 -73 9 -100c0 -31 -4 -59 -12 -99c-13 -59 -18 -73 -50 -136l-27 -54l8 1c37 7 116 11 174 11c28 0 51 -1 63 -3
c33 -6 51 -22 51 -42c0 -5 -2 -10 -4 -16c-5 -11 -16 -16 -29 -16c-6 0 -12 1 -18 4c-7 4 -17 5 -84 5c-58 0 -85 -2 -113 -5c-56 -7 -129 -19 -184 -31c-39 -8 -59 -12 -70 -12c-8 0 -13 2 -17 5z" />
    <glyph glyph-name="copyright" unicode="&#xa9;" horiz-adv-x="714" 
d="M281 240c-93 17 -159 103 -178 232c-2 15 -3 42 -3 69s1 55 3 70c30 214 163 379 300 379c7 0 14 0 21 -1c108 -13 180 -118 190 -275v-16c0 -15 0 -34 -1 -48c-16 -195 -125 -369 -255 -405c-15 -4 -37 -7 -55 -7c-8 0 -16 1 -22 2zM333 431c-34 6 -57 20 -74 46
c-17 25 -25 56 -25 91c0 39 10 82 30 123c19 37 43 63 71 77c17 7 20 8 43 8s27 -1 41 -8c18 -9 30 -24 32 -40v-4c0 -17 -13 -33 -30 -33c-8 0 -21 6 -24 12c-1 1 -1 2 -3 2c-1 0 -4 -2 -10 -7c-24 -22 -37 -61 -39 -122c0 -11 -1 -19 -1 -26c0 -13 1 -20 4 -28
s7 -16 9 -18s3 -3 5 -3c3 0 6 2 13 5c9 5 16 11 19 15c10 19 20 27 33 27c3 0 6 0 9 -1c14 -4 23 -18 23 -33c0 -6 -2 -13 -4 -19c-6 -16 -27 -37 -49 -48c-14 -7 -48 -18 -57 -18h-1c-1 0 -8 1 -15 2zM340 309c112 33 207 207 207 379c0 88 -22 157 -65 201
c-23 23 -49 34 -77 34c-78 0 -166 -85 -212 -221c-17 -53 -26 -98 -26 -153c0 -8 1 -17 1 -26c1 -46 5 -71 16 -104c18 -54 55 -98 94 -110c8 -2 19 -4 30 -4c12 0 24 2 32 4z" />
    <glyph glyph-name="registered" unicode="&#xae;" horiz-adv-x="558" 
d="M251 925c-28 6 -53 20 -77 44c-47 47 -74 122 -74 206v13c2 80 28 150 73 196c22 24 48 39 77 47c8 2 13 3 20 3c5 0 10 -1 17 -1c24 -1 36 -4 58 -16c70 -38 113 -134 113 -236c0 -24 -2 -48 -7 -72c-23 -112 -94 -187 -174 -187c-8 0 -17 1 -26 3zM220 1047
c-4 1 -9 3 -12 5c-6 4 -10 13 -10 21c0 4 1 8 3 11c1 3 3 12 4 21c4 33 8 136 8 187c0 11 -1 20 -1 25c-1 4 -1 7 -1 10c0 5 1 7 3 11c5 9 14 13 30 13s22 -2 29 -13c4 -7 5 -10 5 -22c0 -7 0 -13 1 -13c26 13 26 13 42 13c18 0 23 -2 34 -12c11 -9 16 -22 16 -38
c0 -12 -3 -26 -10 -41c-9 -24 -19 -39 -45 -72l-10 -12l25 -11l28 -14c6 -3 11 -13 11 -20c0 -11 -11 -21 -23 -21h-3c-4 0 -20 8 -38 16l-31 16l-1 -20c-2 -24 -5 -32 -16 -38c-5 -2 -13 -3 -22 -3c-5 0 -10 0 -16 1zM289 1202c4 13 8 30 11 55c0 3 1 5 1 6s-1 2 -1 2
c-1 0 -1 0 -2 -1c-2 -1 -7 -6 -12 -11l-9 -10l-3 -67l5 6c3 3 8 12 10 20zM305 972c48 17 86 70 103 147c3 16 4 23 4 61c0 37 -1 44 -4 61c-12 51 -30 88 -58 116c-17 16 -33 25 -54 30c-6 1 -11 2 -17 2c-56 0 -111 -61 -129 -149c-4 -21 -6 -42 -6 -62
c0 -96 42 -184 105 -206c9 -3 18 -4 28 -4s20 1 28 4z" />
    <glyph glyph-name="degree" unicode="&#xb0;" horiz-adv-x="402" 
d="M101 1239c-1 8 -1 17 -1 24c0 25 4 47 15 73c21 50 61 78 98 78c27 0 53 -14 70 -43c13 -21 19 -48 19 -74c0 -54 -25 -112 -67 -139c-16 -10 -32 -15 -47 -15c-45 0 -80 42 -87 96zM227 1349c-28 -10 -47 -53 -47 -95c0 -23 6 -46 19 -62c28 22 34 60 34 94
c0 29 -5 54 -6 63z" />
    <glyph glyph-name="questiondown" unicode="&#xbf;" horiz-adv-x="710" 
d="M534 1309c-12 -15 -31 -26 -49 -26c-14 0 -27 6 -36 21c-5 7 -7 16 -7 24c0 26 19 54 45 54c5 0 10 -1 15 -3c20 -7 37 -30 37 -51c0 -7 -1 -13 -5 -19zM542 1174c12 -4 17 -8 22 -21c5 -10 5 -20 7 -72v-25c0 -49 -3 -80 -14 -149c-3 -21 -8 -50 -10 -63
c-8 -54 -48 -152 -90 -222c-8 -14 -31 -49 -50 -78c-19 -30 -46 -72 -59 -93s-35 -57 -48 -78c-36 -58 -48 -81 -64 -117s-23 -62 -23 -82c0 -9 2 -17 5 -24c7 -12 16 -16 43 -16c19 0 23 1 42 10c71 34 143 101 195 180c33 50 53 101 53 134c0 9 -1 16 -4 22
c-3 7 -5 8 -15 10c-13 2 -25 12 -27 22c0 2 -1 3 -1 5c0 8 4 17 10 23c6 5 9 6 25 6s20 -1 32 -8c26 -14 39 -41 39 -79c0 -53 -21 -111 -63 -175c-72 -108 -166 -186 -263 -218c-28 -9 -54 -14 -77 -14c-29 0 -53 8 -71 24c-14 13 -22 24 -30 45c-4 12 -6 32 -6 53
c0 18 2 37 5 52c17 78 51 150 122 255c112 165 130 193 162 255c46 92 54 127 68 308c2 32 3 59 3 75v21c0 17 3 25 13 31c5 4 25 6 43 6c11 0 21 -1 26 -3z" />
    <glyph glyph-name="multiply" unicode="&#xd7;" horiz-adv-x="556" 
d="M115 418c-9 5 -15 14 -15 25c0 7 2 14 6 21c8 17 45 73 72 109l25 33l-8 9c-5 5 -25 31 -45 58c-33 44 -49 70 -49 87c0 15 11 24 32 34c14 6 24 10 32 10c13 0 21 -8 32 -24c25 -37 66 -94 68 -94s45 55 57 74c4 6 12 19 17 28c9 18 20 27 31 27c7 0 13 -3 20 -9
c8 -8 10 -11 10 -19c0 -19 -24 -59 -71 -121l-24 -32l24 -28c41 -49 62 -72 93 -99c26 -23 34 -32 34 -45c0 -3 -1 -7 -2 -12c-5 -20 -28 -35 -50 -35c-4 0 -8 0 -11 1c-10 3 -19 11 -78 71c-37 38 -68 68 -69 68c-2 0 -35 -46 -58 -82c-26 -41 -33 -50 -44 -55
c-6 -3 -11 -4 -16 -4c-4 0 -8 1 -13 4z" />
    <glyph glyph-name="divide" unicode="&#xf7;" horiz-adv-x="291" 
d="M108 482c9 21 27 31 43 31c21 0 40 -15 40 -43c0 -6 -1 -13 -3 -20c-7 -28 -28 -41 -48 -41s-40 15 -40 41c0 10 3 20 8 32zM108 791c9 21 27 31 44 31c20 0 39 -15 39 -43c0 -6 -1 -13 -3 -20c-7 -28 -28 -40 -48 -40s-40 14 -40 40c0 10 3 20 8 32z" />
    <glyph glyph-name="quoteleft" unicode="&#x2018;" horiz-adv-x="446" 
d="M308 1434c12 -1 32 -21 36 -36c1 -4 2 -7 2 -10c0 -10 -6 -20 -25 -49c-33 -50 -39 -58 -78 -105c-18 -22 -40 -49 -50 -60c-12 -16 -37 -36 -59 -36c-11 0 -21 5 -29 17c-3 5 -5 10 -5 16c0 21 27 59 117 175c30 38 58 72 63 77c8 7 17 11 25 11h3z" />
    <glyph glyph-name="quoteright" unicode="&#x2019;" horiz-adv-x="445" 
d="M138 1138c-12 1 -33 21 -37 36c-1 3 -1 6 -1 9c0 10 6 21 25 50c33 50 39 59 77 105c19 22 41 49 50 60c13 16 38 36 60 36c10 0 20 -5 28 -17c3 -5 5 -10 5 -16c0 -21 -27 -59 -117 -175c-29 -38 -58 -72 -63 -77c-8 -7 -18 -11 -27 -11z" />
    <glyph glyph-name="quotesinglbase" unicode="&#x201a;" horiz-adv-x="446" 
d="M138 0c-12 1 -32 21 -36 37c-1 3 -2 6 -2 10c0 9 6 19 25 48c33 50 39 59 78 105c18 22 40 49 50 60c12 16 37 36 59 36c11 0 21 -5 29 -17c3 -5 5 -10 5 -16c0 -21 -27 -59 -117 -175c-30 -37 -58 -72 -63 -76c-9 -8 -19 -12 -28 -12z" />
    <glyph glyph-name="quotedblleft" unicode="&#x201c;" horiz-adv-x="622" 
d="M315 1075c-12 1 -33 21 -37 36c-1 3 -1 6 -1 9c0 10 5 20 25 50c33 50 39 58 78 105c18 22 40 49 49 60c13 16 38 36 60 36c10 0 20 -5 28 -17c3 -5 5 -10 5 -16c0 -22 -26 -59 -117 -175c-29 -38 -57 -72 -62 -77c-8 -6 -17 -11 -26 -11h-2zM138 1138
c-12 1 -33 21 -37 36c-1 3 -1 6 -1 9c0 10 6 21 25 50c33 50 39 59 77 105c19 22 41 49 50 60c13 16 38 36 60 36c10 0 20 -5 28 -17c3 -5 5 -10 5 -16c0 -21 -27 -59 -117 -175c-29 -38 -58 -72 -63 -77c-8 -7 -18 -11 -27 -11z" />
    <glyph glyph-name="quotedblright" unicode="&#x201d;" horiz-adv-x="622" 
d="M307 1434c12 -1 32 -21 37 -36c1 -3 1 -6 1 -9c0 -10 -5 -20 -25 -50c-33 -50 -39 -58 -78 -105c-18 -22 -40 -49 -49 -60c-13 -16 -38 -36 -60 -36c-10 0 -20 5 -28 17c-3 5 -5 10 -5 16c0 22 26 59 117 175c29 38 57 72 62 77c8 7 17 11 25 11h3zM484 1371
c12 -1 33 -21 37 -36c1 -3 1 -6 1 -9c0 -10 -6 -21 -25 -50c-33 -50 -39 -58 -77 -105c-18 -22 -41 -49 -50 -60c-13 -16 -38 -36 -60 -36c-10 0 -20 5 -28 17c-3 5 -5 10 -5 16c0 21 27 59 117 175c29 38 58 72 63 77c7 6 16 11 25 11h2z" />
    <glyph glyph-name="quotedblbase" unicode="&#x201e;" horiz-adv-x="623" 
d="M308 355c12 -1 32 -21 36 -36c1 -3 2 -6 2 -10c0 -9 -6 -20 -25 -49c-33 -50 -39 -58 -78 -104c-18 -22 -40 -49 -50 -61c-12 -15 -37 -35 -59 -35c-11 0 -21 5 -29 17c-3 5 -5 9 -5 15c0 22 27 59 117 175c30 38 58 73 63 77c8 7 17 11 25 11h3zM485 292
c12 -1 33 -21 37 -36c1 -3 1 -6 1 -9c0 -9 -6 -20 -25 -50c-33 -50 -39 -58 -78 -105c-18 -21 -40 -48 -49 -60c-13 -15 -37 -35 -59 -35c-11 0 -21 5 -29 17c-3 5 -5 9 -5 15c0 21 27 59 117 175c29 38 58 73 63 77c7 7 16 11 24 11h3z" />
    <glyph glyph-name="guilsinglleft" unicode="&#x2039;" horiz-adv-x="529" 
d="M313 320c-12 6 -17 12 -49 51c-51 62 -76 90 -117 131c-22 22 -42 44 -44 49s-3 11 -3 17c0 52 75 137 101 168c42 48 97 109 119 131c32 32 62 46 82 46c17 0 27 -9 27 -26c0 -13 -6 -30 -20 -50c-16 -25 -47 -65 -103 -138c-75 -97 -109 -145 -109 -150
c0 -1 16 -19 35 -39c19 -21 45 -50 58 -65c43 -54 44 -55 52 -55h1c11 0 19 -6 24 -15c3 -5 4 -10 4 -16c0 -21 -21 -43 -43 -43c-5 0 -10 1 -15 4z" />
    <glyph glyph-name="guilsinglright" unicode="&#x203a;" horiz-adv-x="451" 
d="M142 320c-20 10 -28 21 -28 38c0 11 7 28 66 153c13 27 71 134 79 145c2 2 3 3 3 5c0 4 -5 10 -16 25c-10 13 -29 42 -43 63c-14 22 -33 49 -41 61l-16 22l-10 -2h-5c-11 0 -21 6 -26 16c-4 7 -5 15 -5 23c0 24 14 48 36 48c6 0 12 -2 18 -5c15 -8 47 -48 103 -132
c17 -24 43 -60 58 -78c32 -40 36 -47 36 -63c0 -31 -12 -58 -79 -179c-25 -46 -50 -94 -57 -106c-6 -13 -12 -26 -14 -28c-7 -9 -18 -13 -30 -13c-9 0 -18 2 -29 7z" />
    <glyph glyph-name="Euro" unicode="&#x20ac;" horiz-adv-x="818" 
d="M374 35c-59 16 -108 74 -138 164c-18 55 -27 119 -27 191c0 41 3 85 9 131c3 23 6 42 6 43s-2 2 -6 2c-3 0 -6 -1 -9 -1c-4 0 -12 -1 -22 -1c-9 0 -20 1 -31 1l-39 2l-8 8c-7 7 -9 11 -9 20s2 12 9 19l8 9l59 2c32 1 58 2 58 2c0 1 21 101 23 110l1 7h-30
c-26 0 -33 -1 -43 -5c-6 -3 -12 -4 -17 -4c-12 0 -21 6 -27 18c-2 6 -4 11 -4 16c0 6 2 11 5 16c9 14 17 16 76 19c30 2 55 4 56 5s7 23 15 48c50 169 121 302 202 378c27 26 45 38 72 49c11 5 25 7 38 7c12 0 23 -2 32 -6c33 -16 51 -52 51 -100c0 -7 0 -14 -1 -21
c-4 -29 -13 -72 -18 -82c-4 -8 -16 -15 -24 -15c-9 0 -21 7 -25 16c-2 4 -4 9 -4 17c0 9 2 22 6 42c3 13 4 31 4 40l-1 16l-21 -26c-66 -79 -75 -90 -95 -122c-22 -35 -44 -85 -67 -150c-5 -14 -14 -38 -19 -52l-9 -26l11 2c6 1 28 3 49 4c15 1 27 2 38 2c29 0 46 -5 59 -14
c10 -8 15 -19 15 -30c0 -15 -8 -30 -24 -37c-7 -3 -13 -5 -19 -5c-9 0 -17 5 -25 14l-6 8l-46 -3c-25 -2 -52 -4 -59 -5l-14 -1l-8 -30c-6 -25 -17 -75 -17 -83v-1h2c2 0 8 1 15 2c46 6 137 15 155 15c33 0 51 -12 51 -35v-5c-1 -11 -2 -15 -9 -21c-7 -5 -8 -6 -16 -6h-13
c-5 0 -11 1 -19 1c-10 0 -22 -1 -32 -2c-49 -4 -133 -13 -140 -14c-7 -2 -7 -4 -13 -61c-2 -24 -3 -49 -3 -75c0 -91 13 -186 36 -246c12 -31 32 -58 55 -76l12 -9l10 6c19 9 53 36 85 67c48 46 85 92 104 130l7 15l-5 10c-3 6 -5 12 -5 17s2 10 6 16c5 8 15 12 25 12
c14 0 30 -7 40 -21c5 -6 6 -11 6 -28c0 -18 -1 -22 -12 -45c-24 -49 -63 -99 -118 -153c-73 -70 -135 -105 -187 -105c-9 0 -18 1 -27 3z" />
    <glyph glyph-name="minus" unicode="&#x2212;" horiz-adv-x="524" 
d="M115 579c-10 7 -15 14 -15 27c0 14 7 23 22 29c11 6 18 6 117 8c93 2 108 2 130 7c12 3 21 5 27 5c10 0 15 -3 21 -9c5 -5 7 -10 7 -18c0 -15 -8 -24 -26 -32c-29 -13 -42 -14 -147 -14c-82 0 -99 0 -105 -4c-5 -2 -10 -4 -15 -4c-6 0 -11 2 -16 5z" />
    <glyph glyph-name="guillemotleft" unicode="&#xab;" horiz-adv-x="822" 
d="M606 320c-12 6 -17 12 -49 51c-51 62 -76 90 -117 131c-22 22 -42 44 -44 49s-3 11 -3 17c0 52 75 137 101 168c42 48 97 109 119 131c32 32 62 46 82 46c17 0 27 -9 27 -26c0 -13 -6 -30 -20 -50c-16 -25 -47 -65 -104 -138c-73 -95 -108 -143 -108 -150
c0 -1 16 -19 35 -39c19 -21 45 -50 57 -65c44 -54 45 -55 53 -55h1c10 0 19 -6 24 -15c3 -5 4 -10 4 -15c0 -22 -21 -44 -43 -44c-5 0 -10 1 -15 4zM313 320c-12 6 -17 12 -49 51c-51 62 -76 90 -117 131c-22 22 -42 44 -44 49s-3 11 -3 17c0 52 75 137 101 168
c42 48 97 109 119 131c32 32 62 46 82 46c17 0 27 -9 27 -26c0 -13 -6 -30 -20 -50c-16 -25 -47 -65 -104 -138c-73 -95 -108 -143 -108 -150c0 -1 16 -19 35 -39c19 -21 45 -50 57 -65c44 -54 45 -55 53 -55h1c10 0 19 -6 24 -15c3 -5 4 -10 4 -15c0 -22 -21 -44 -43 -44
c-5 0 -10 1 -15 4z" />
    <glyph glyph-name="Yen" unicode="&#xa5;" horiz-adv-x="786" 
d="M460 85c-17 5 -26 12 -32 24s-9 54 -9 133c0 21 1 43 1 69l2 109h-39c-11 0 -19 -1 -25 -1c-14 0 -18 2 -25 5c-13 7 -19 18 -19 29c0 16 12 32 30 32c5 0 9 -1 14 -3c4 -2 9 -2 15 -2c5 0 12 0 22 1c15 1 27 2 27 2c1 1 3 27 5 58c9 107 19 220 25 258v7
c-1 0 -4 -5 -12 -17c-59 -97 -112 -165 -153 -195c-8 -6 -22 -15 -31 -20c-16 -8 -19 -8 -42 -8c-22 0 -27 0 -38 7c-51 27 -76 99 -76 232c0 77 8 174 25 294c5 42 11 82 12 90c3 29 14 37 62 47c13 3 23 4 30 4c12 0 19 -3 26 -11c7 -7 8 -9 8 -16v-9c-1 -9 -4 -42 -7 -72
s-6 -68 -7 -85s-3 -45 -5 -63c-9 -76 -15 -155 -15 -214c0 -23 1 -43 3 -59c4 -34 10 -65 13 -65c6 0 47 45 70 75c40 53 90 135 133 218l21 39l4 36c4 44 7 62 15 101c9 40 11 47 19 56c12 13 19 15 47 15c22 0 27 -1 38 -7c16 -8 22 -15 22 -37c0 -14 -3 -34 -8 -66
c-24 -158 -42 -313 -56 -491c-3 -37 -6 -73 -7 -80l-1 -13h53c52 0 53 0 66 -7c7 -3 16 -10 19 -15c4 -6 6 -13 6 -18c0 -15 -12 -28 -29 -28c-3 0 -7 1 -11 2c-6 2 -32 2 -57 2s-48 0 -50 -2c-3 -3 -8 -127 -8 -197c0 -52 1 -73 5 -90c2 -10 3 -16 3 -20c0 -5 -1 -8 -4 -13
c-8 -15 -28 -24 -52 -24c-7 0 -15 1 -23 3z" />
    <glyph glyph-name="guillemotright" unicode="&#xbb;" horiz-adv-x="703" 
d="M142 320c-20 10 -28 21 -28 38c0 11 8 28 67 153c12 27 70 134 78 145c2 2 3 4 3 6c0 3 -4 9 -16 24c-10 13 -29 42 -43 63c-14 22 -33 49 -41 61l-16 22l-10 -2h-5c-10 0 -20 6 -25 16c-4 7 -6 16 -6 24c0 23 15 47 36 47c6 0 12 -2 18 -5c15 -8 47 -48 104 -132
c17 -24 42 -60 57 -78c32 -40 36 -47 36 -63c0 -31 -12 -58 -79 -179c-25 -46 -50 -94 -56 -106c-7 -13 -13 -26 -15 -28c-7 -9 -17 -13 -29 -13c-9 0 -19 2 -30 7zM394 320c-20 10 -28 21 -28 38c0 11 8 28 66 153c13 27 71 134 79 145c2 2 3 4 3 6c0 3 -4 9 -16 24
c-10 13 -29 42 -43 63c-14 22 -33 49 -41 61l-16 22l-10 -2h-5c-10 0 -20 6 -25 16c-4 7 -6 16 -6 24c0 23 15 47 36 47c6 0 12 -2 18 -5c15 -8 47 -48 104 -132c16 -24 42 -60 57 -78c32 -40 36 -47 36 -63c0 -31 -12 -58 -79 -179c-25 -46 -50 -94 -56 -106
c-7 -13 -13 -26 -15 -28c-7 -9 -17 -13 -29 -13c-9 0 -19 2 -30 7z" />
    </font>
</defs>
</svg>
