<?xml version="1.0" standalone="no"?>
<!DOCTYPE svg PUBLIC "-//W3C//DTD SVG 1.1//EN" "http://www.w3.org/Graphics/SVG/1.1/DTD/svg11.dtd" >
<svg xmlns="http://www.w3.org/2000/svg" xmlns:xlink="http://www.w3.org/1999/xlink" version="1.1">
<metadata>
Created by FontForge 20170924 at Wed Oct 16 09:42:54 2019
 By www-data
Copyright 2014 - 2017 Adobe Systems Incorporated (http://www.adobe.com/), with Reserved Font Name 'Source'. Copyright 2019 Google LLC.
</metadata>
<defs>
<font id="DMSerifText-Regular" horiz-adv-x="0" >
  <font-face 
    font-family="DM Serif Text"
    font-weight="400"
    font-stretch="normal"
    units-per-em="1000"
    panose-1="0 0 0 0 0 0 0 0 0 0"
    ascent="800"
    descent="-200"
    x-height="480"
    cap-height="661"
    bbox="-189 -263 1164 918"
    underline-thickness="50"
    underline-position="-100"
    unicode-range="U+000D-2265"
  />
<missing-glyph horiz-adv-x="640" 
d="M80 0v661h480v-661h-480zM196 601l124 -204l124 204h-248zM150 545v-429l130 215zM360 331l130 -215v429zM196 60h248l-124 204z" />
    <glyph glyph-name="f_f" unicode="ff" horiz-adv-x="683" 
d="M22 0v19l15 4q40 11 41 49q0 34 0.5 68.5t0.5 69.5v239h-57v22l22 4q20 3 29 14.5t13 32.5q10 39 29 68.5t45 55.5q37 36 79 50t82 14q39 0 71.5 -16t32.5 -52q0 -27 -15.5 -42t-44.5 -15q-47 0 -81 54l-12 14q-12 15 -24 11.5t-17 -19.5q-9 -32 -13 -74.5t-5 -90.5h172
q20 0 29 11.5t14 30.5q10 39 28.5 68.5t44.5 55.5q37 36 79.5 50t82.5 14q39 0 71 -16t32 -52q0 -27 -15 -42t-45 -15q-46 0 -80 54l-12 14q-13 15 -24.5 11.5t-17.5 -19.5q-8 -32 -12.5 -74.5t-4.5 -90.5h115v-31h-115v-239v-68v-67q1 -39 40 -49l26 -7v-19h-258v19l15 4
q41 11 41 49q0 34 0.5 68.5t0.5 69.5v239h-207v-239q0 -34 0.5 -68t0.5 -67q1 -39 40 -49l26 -7v-19h-258z" />
    <glyph glyph-name="f_i" unicode="fi" horiz-adv-x="576" 
d="M22 0v19l15 3q40 10 41 51q0 34 0.5 70.5t0.5 66.5v239h-57v22l17 3q40 7 50 49q25 95 95 141t170 46q63 0 102.5 -25.5t39.5 -66.5q0 -26 -16 -41.5t-44 -15.5t-45.5 16.5t-31.5 41.5l-22 39q-7 12 -17.5 17t-23.5 -1q-80 -38 -83 -194h210q17 0 30 2.5t28 6.5l18 6
l14 -11l-3 -138v-273q0 -40 38 -52l7 -2v-19h-229v19l11 3q39 12 39 51q1 36 0.5 75.5t-0.5 64.5v62q0 46 -0.5 93t-1.5 81h-161v-238v-66.5t1 -70.5q0 -41 40 -50l20 -5v-19h-252z" />
    <glyph glyph-name="f_l" unicode="fl" horiz-adv-x="612" 
d="M22 0v19l15 4q40 11 41 49q0 35 0.5 69.5t0.5 68.5v239h-57v22l22 4q20 3 29 14.5t13 32.5q11 40 29.5 69.5t44.5 54.5q37 36 79 50t82 14q29 0 55 -8.5t39 -26.5l115 27l12 -9l-4 -141v-342q0 -34 0.5 -68.5t0.5 -68.5q1 -20 8 -32.5t26 -17.5l15 -4v-19h-234v19l15 4
q19 6 26 18t8 32v517v5q-15 -10 -38 -10q-46 0 -81 54l-12 14q-12 15 -24 12t-17 -20q-8 -32 -12.5 -75t-5.5 -90h115v-31h-115v-239q0 -34 0.5 -67.5t0.5 -67.5q0 -40 40 -49l26 -7v-19h-258z" />
    <glyph glyph-name=".notdef" horiz-adv-x="640" 
d="M80 0v661h480v-661h-480zM196 601l124 -204l124 204h-248zM150 545v-429l130 215zM360 331l130 -215v429zM196 60h248l-124 204z" />
    <glyph glyph-name="A" unicode="A" horiz-adv-x="649" 
d="M7 0v21l27 8q21 6 32.5 18t18.5 33l202 584h83l201 -588q8 -22 18 -33.5t32 -18.5l15 -4v-20h-254v20l17 5q22 7 26.5 22t-2.5 37l-42 129h-221l-43 -127q-7 -22 -4 -36t25 -22l22 -7v-21h-153zM170 242h202l-98 301z" />
    <glyph glyph-name="Aacute" unicode="&#xc1;" horiz-adv-x="649" 
d="M7 0v21l27 8q21 6 32.5 18t18.5 33l202 584h83l201 -588q8 -22 18 -33.5t32 -18.5l15 -4v-20h-254v20l17 5q22 7 26.5 22t-2.5 37l-42 129h-221l-43 -127q-7 -22 -4 -36t25 -22l22 -7v-21h-153zM170 242h202l-98 301zM238 729q26 26 52 53t51 52q24 26 39.5 34.5
t30.5 8.5q19 0 31 -12t12 -29q0 -16 -13.5 -30.5t-45.5 -29.5q-37 -16 -71.5 -32t-71.5 -32z" />
    <glyph glyph-name="Abreve" unicode="&#x102;" horiz-adv-x="649" 
d="M7 0v21l27 8q21 6 32.5 18t18.5 33l202 584h83l201 -588q8 -22 18 -33.5t32 -18.5l15 -4v-20h-254v20l17 5q22 7 26.5 22t-2.5 37l-42 129h-221l-43 -127q-7 -22 -4 -36t25 -22l22 -7v-21h-153zM170 242h202l-98 301zM315 715q-44 0 -75.5 19t-50 50.5t-23.5 66.5l21 8
q15 -31 48.5 -50t79.5 -19t79 19t49 50l21 -8q-5 -35 -23.5 -66.5t-50 -50.5t-75.5 -19z" />
    <glyph glyph-name="Acircumflex" unicode="&#xc2;" horiz-adv-x="649" 
d="M7 0v21l27 8q21 6 32.5 18t18.5 33l202 584h83l201 -588q8 -22 18 -33.5t32 -18.5l15 -4v-20h-254v20l17 5q22 7 26.5 22t-2.5 37l-42 129h-221l-43 -127q-7 -22 -4 -36t25 -22l22 -7v-21h-153zM170 242h202l-98 301zM170 697l-15 17l147 154h26l147 -154l-15 -17
l-145 81z" />
    <glyph glyph-name="Adieresis" unicode="&#xc4;" horiz-adv-x="649" 
d="M7 0v21l27 8q21 6 32.5 18t18.5 33l202 584h83l201 -588q8 -22 18 -33.5t32 -18.5l15 -4v-20h-254v20l17 5q22 7 26.5 22t-2.5 37l-42 129h-221l-43 -127q-7 -22 -4 -36t25 -22l22 -7v-21h-153zM170 242h202l-98 301zM195 723q-27 0 -48 17.5t-21 47.5q0 29 21 46.5
t48 17.5q28 0 47.5 -17.5t19.5 -46.5q0 -30 -19.5 -47.5t-47.5 -17.5zM435 723q-27 0 -47.5 17.5t-20.5 47.5q0 29 20.5 46.5t47.5 17.5q28 0 48 -17.5t20 -46.5q0 -30 -20 -47.5t-48 -17.5z" />
    <glyph glyph-name="Agrave" unicode="&#xc0;" horiz-adv-x="649" 
d="M7 0v21l27 8q21 6 32.5 18t18.5 33l202 584h83l201 -588q8 -22 18 -33.5t32 -18.5l15 -4v-20h-254v20l17 5q22 7 26.5 22t-2.5 37l-42 129h-221l-43 -127q-7 -22 -4 -36t25 -22l22 -7v-21h-153zM170 242h202l-98 301zM379 712q-37 16 -71.5 32t-71.5 32q-31 14 -45 29
t-14 31q0 17 12 29t31 12q15 0 30.5 -8.5t39.5 -34.5q24 -25 50.5 -52t51.5 -53z" />
    <glyph glyph-name="Amacron" unicode="&#x100;" horiz-adv-x="649" 
d="M7 0v21l27 8q21 6 32.5 18t18.5 33l202 584h83l201 -588q8 -22 18 -33.5t32 -18.5l15 -4v-20h-254v20l17 5q22 7 26.5 22t-2.5 37l-42 129h-221l-43 -127q-7 -22 -4 -36t25 -22l22 -7v-21h-153zM170 242h202l-98 301zM158 760v41h314v-41h-314z" />
    <glyph glyph-name="Aogonek" unicode="&#x104;" horiz-adv-x="649" 
d="M7 0v21l27 8q21 6 32.5 18t18.5 33l202 584h83l201 -588q8 -22 18 -33.5t32 -18.5l15 -4v-20h-254v20l17 5q22 7 26.5 22t-2.5 37l-42 129h-221l-43 -127q-7 -22 -4 -36t25 -22l22 -7v-21h-153zM170 242h202l-98 301zM532 -223q-46 0 -74.5 24.5t-28.5 65.5q0 32 18.5 60
t47.5 50t61 34h22q-66 -42 -66 -105q0 -32 21 -51t53 -19q17 0 32 5t27 12l9 -19q-22 -24 -53.5 -40.5t-68.5 -16.5z" />
    <glyph glyph-name="Aring" unicode="&#xc5;" horiz-adv-x="649" 
d="M7 0v21l27 8q21 6 32.5 18t18.5 33l202 584h83l201 -588q8 -22 18 -33.5t32 -18.5l15 -4v-20h-254v20l17 5q22 7 26.5 22t-2.5 37l-42 129h-221l-43 -127q-7 -22 -4 -36t25 -22l22 -7v-21h-153zM170 242h202l-98 301zM315 708q-40 0 -70.5 25.5t-30.5 71.5
q0 44 30.5 70.5t70.5 26.5q41 0 71 -25.5t30 -71.5t-30 -71.5t-71 -25.5zM315 738q29 0 46 19.5t17 47.5q0 27 -17 46.5t-46 19.5t-46 -19.5t-17 -46.5q0 -28 17 -47.5t46 -19.5z" />
    <glyph glyph-name="Atilde" unicode="&#xc3;" horiz-adv-x="649" 
d="M7 0v21l27 8q21 6 32.5 18t18.5 33l202 584h83l201 -588q8 -22 18 -33.5t32 -18.5l15 -4v-20h-254v20l17 5q22 7 26.5 22t-2.5 37l-42 129h-221l-43 -127q-7 -22 -4 -36t25 -22l22 -7v-21h-153zM170 242h202l-98 301zM141 722q9 62 35 100t69 38q25 0 44 -9t35 -21
q17 -14 34 -28.5t39 -14.5q26 0 43 19t28 50l22 -8q-9 -61 -34.5 -99.5t-68.5 -38.5q-25 0 -44 9t-35 21q-17 14 -34.5 28.5t-38.5 14.5q-27 0 -44.5 -19.5t-28.5 -49.5z" />
    <glyph glyph-name="AE" unicode="&#xc6;" horiz-adv-x="901" 
d="M18 0v21l24 7q46 14 69 58l248 494q10 20 3.5 34t-27.5 19l-26 7v21h537l7 -160h-28l-43 97q-13 33 -50 33h-165q-1 -62 -1.5 -127.5t-0.5 -147.5h98q31 0 44 26l25 51h22v-185h-22l-25 51q-14 27 -44 27h-98v-124t0.5 -92.5t1.5 -79.5h188q36 0 51 33l39 97h28l-7 -160
h-494v21l14 5q36 10 37 49q1 50 1 94.5v89.5h-190l-87 -175q-20 -42 24 -55l28 -8v-21h-181zM248 289h176v337h-9z" />
    <glyph glyph-name="B" unicode="B" horiz-adv-x="594" 
d="M23 0v21l16 5q21 8 28.5 21t7.5 35q1 57 1 114.5v115.5v36q0 58 -0.5 115.5t-0.5 115.5q0 24 -7 36.5t-29 19.5l-16 5v21h282q120 0 174 -44.5t54 -112.5q0 -52 -38 -93.5t-133 -59.5q110 -12 159 -57t49 -110q0 -32 -14 -64.5t-47.5 -59.5t-90.5 -43.5t-144 -16.5h-251z
M218 358h47q68 0 98.5 30.5t30.5 104.5q0 77 -28 108t-88 31h-60v-274zM218 29h55q75 0 112 37t37 119q0 79 -35.5 111.5t-116.5 32.5h-52v-300z" />
    <glyph glyph-name="C" unicode="C" horiz-adv-x="603" 
d="M365 -17q-97 0 -175 40t-123.5 118t-45.5 190q0 84 27.5 149t76 109.5t111.5 67t134 22.5q55 0 103 -12.5t92 -36.5l4 -131h-27l-42 79q-10 20 -21.5 36t-29.5 23q-25 12 -59 12q-59 0 -107.5 -30t-77.5 -99.5t-29 -189.5q0 -119 27.5 -189t74.5 -99.5t106 -29.5
q27 0 44 4t34 11q20 8 31 23.5t19 35.5l38 91h27l-4 -144q-43 -24 -95 -37t-113 -13z" />
    <glyph glyph-name="Cacute" unicode="&#x106;" horiz-adv-x="603" 
d="M365 -17q-97 0 -175 40t-123.5 118t-45.5 190q0 84 27.5 149t76 109.5t111.5 67t134 22.5q55 0 103 -12.5t92 -36.5l4 -131h-27l-42 79q-10 20 -21.5 36t-29.5 23q-25 12 -59 12q-59 0 -107.5 -30t-77.5 -99.5t-29 -189.5q0 -119 27.5 -189t74.5 -99.5t106 -29.5
q27 0 44 4t34 11q20 8 31 23.5t19 35.5l38 91h27l-4 -144q-43 -24 -95 -37t-113 -13zM273 729q26 26 52 53t51 52q24 26 39.5 34.5t30.5 8.5q19 0 31 -12t12 -29q0 -16 -13.5 -30.5t-45.5 -29.5q-37 -16 -71.5 -32t-71.5 -32z" />
    <glyph glyph-name="Ccaron" unicode="&#x10c;" horiz-adv-x="603" 
d="M365 -17q-97 0 -175 40t-123.5 118t-45.5 190q0 84 27.5 149t76 109.5t111.5 67t134 22.5q55 0 103 -12.5t92 -36.5l4 -131h-27l-42 79q-10 20 -21.5 36t-29.5 23q-25 12 -59 12q-59 0 -107.5 -30t-77.5 -99.5t-29 -189.5q0 -119 27.5 -189t74.5 -99.5t106 -29.5
q27 0 44 4t34 11q20 8 31 23.5t19 35.5l38 91h27l-4 -144q-43 -24 -95 -37t-113 -13zM333 718l-140 148l16 16l141 -83l141 83l16 -16l-140 -148h-34z" />
    <glyph glyph-name="Ccedilla" unicode="&#xc7;" horiz-adv-x="603" 
d="M365 -17q-97 0 -175 40t-123.5 118t-45.5 190q0 84 27.5 149t76 109.5t111.5 67t134 22.5q55 0 103 -12.5t92 -36.5l4 -131h-27l-42 79q-10 20 -21.5 36t-29.5 23q-25 12 -59 12q-59 0 -107.5 -30t-77.5 -99.5t-29 -189.5q0 -119 27.5 -189t74.5 -99.5t106 -29.5
q27 0 44 4t34 11q20 8 31 23.5t19 35.5l38 91h27l-4 -144q-43 -24 -95 -37t-113 -13zM345 -86l13 87h28l-6 -51q111 -13 111 -86q0 -37 -32 -61t-95 -24q-23 0 -41 3.5t-32 8.5l5 23q14 -4 26.5 -6t25.5 -2q28 0 43 15t15 41q0 44 -61 52z" />
    <glyph glyph-name="D" unicode="D" horiz-adv-x="646" 
d="M23 0v21l20 7q32 10 32 50q1 57 1 116.5v121.5v35v116t-1 116q0 41 -31 51l-21 6v21h263q105 0 181 -39t117 -112.5t41 -177.5q0 -106 -44.5 -180t-125 -113t-187.5 -39h-245zM220 29h51q71 0 115.5 28t65.5 94.5t21 179.5t-21 179t-64.5 94t-112.5 28h-55
q-1 -69 -1 -139.5v-141.5v-34v-146.5t1 -141.5z" />
    <glyph glyph-name="Eth" unicode="&#xd0;" horiz-adv-x="646" 
d="M23 0v21l20 7q32 10 32 50q1 57 1 116.5v121.5v5h-39v35h39v116t-1 111q0 41 -31 51l-21 6v21h263q105 0 181 -39t117 -112.5t41 -177.5q0 -106 -44.5 -180t-125 -113t-187.5 -39h-245zM220 29h51q71 0 115.5 28t65.5 94.5t21 179.5t-21 179t-64.5 94t-112.5 28h-55
q-1 -69 -1 -138.5v-137.5h172v-35h-172v-4v-146.5t1 -141.5z" />
    <glyph glyph-name="Dcaron" unicode="&#x10e;" horiz-adv-x="646" 
d="M23 0v21l20 7q32 10 32 50q1 57 1 116.5v121.5v35v116t-1 116q0 41 -31 51l-21 6v21h263q105 0 181 -39t117 -112.5t41 -177.5q0 -106 -44.5 -180t-125 -113t-187.5 -39h-245zM220 29h51q71 0 115.5 28t65.5 94.5t21 179.5t-21 179t-64.5 94t-112.5 28h-55
q-1 -69 -1 -139.5v-141.5v-34v-146.5t1 -141.5zM264 718l-140 148l16 16l141 -83l141 83l16 -16l-140 -148h-34z" />
    <glyph glyph-name="Dcroat" unicode="&#x110;" horiz-adv-x="646" 
d="M23 0v21l20 7q32 10 32 50q1 57 1 116.5v121.5v5h-39v35h39v116t-1 111q0 41 -31 51l-21 6v21h263q105 0 181 -39t117 -112.5t41 -177.5q0 -106 -44.5 -180t-125 -113t-187.5 -39h-245zM220 29h51q71 0 115.5 28t65.5 94.5t21 179.5t-21 179t-64.5 94t-112.5 28h-55
q-1 -69 -1 -138.5v-137.5h172v-35h-172v-4v-146.5t1 -141.5z" />
    <glyph glyph-name="E" unicode="E" horiz-adv-x="554" 
d="M23 0v21l20 7q18 5 25 17.5t8 34.5v503q-1 21 -7 32.5t-25 17.5l-21 7v21h476l7 -160h-28l-40 90q-8 19 -18 29.5t-30 10.5h-170q-1 -62 -1 -127.5v-147.5h99q20 0 30.5 10.5t19.5 28.5l17 38h22v-185h-22l-18 38q-8 18 -18 29t-30 11h-100v-124t0.5 -92.5t0.5 -79.5h192
q20 0 31 10.5t18 29.5l37 90h28l-7 -160h-496z" />
    <glyph glyph-name="Eacute" unicode="&#xc9;" horiz-adv-x="554" 
d="M23 0v21l20 7q18 5 25 17.5t8 34.5v503q-1 21 -7 32.5t-25 17.5l-21 7v21h476l7 -160h-28l-40 90q-8 19 -18 29.5t-30 10.5h-170q-1 -62 -1 -127.5v-147.5h99q20 0 30.5 10.5t19.5 28.5l17 38h22v-185h-22l-18 38q-8 18 -18 29t-30 11h-100v-124t0.5 -92.5t0.5 -79.5h192
q20 0 31 10.5t18 29.5l37 90h28l-7 -160h-496zM198 729q26 26 52 53t51 52q24 26 39.5 34.5t30.5 8.5q19 0 31 -12t12 -29q0 -16 -13.5 -30.5t-45.5 -29.5q-37 -16 -71.5 -32t-71.5 -32z" />
    <glyph glyph-name="Ecaron" unicode="&#x11a;" horiz-adv-x="554" 
d="M23 0v21l20 7q18 5 25 17.5t8 34.5v503q-1 21 -7 32.5t-25 17.5l-21 7v21h476l7 -160h-28l-40 90q-8 19 -18 29.5t-30 10.5h-170q-1 -62 -1 -127.5v-147.5h99q20 0 30.5 10.5t19.5 28.5l17 38h22v-185h-22l-18 38q-8 18 -18 29t-30 11h-100v-124t0.5 -92.5t0.5 -79.5h192
q20 0 31 10.5t18 29.5l37 90h28l-7 -160h-496zM258 718l-140 148l16 16l141 -83l141 83l16 -16l-140 -148h-34z" />
    <glyph glyph-name="Ecircumflex" unicode="&#xca;" horiz-adv-x="554" 
d="M23 0v21l20 7q18 5 25 17.5t8 34.5v503q-1 21 -7 32.5t-25 17.5l-21 7v21h476l7 -160h-28l-40 90q-8 19 -18 29.5t-30 10.5h-170q-1 -62 -1 -127.5v-147.5h99q20 0 30.5 10.5t19.5 28.5l17 38h22v-185h-22l-18 38q-8 18 -18 29t-30 11h-100v-124t0.5 -92.5t0.5 -79.5h192
q20 0 31 10.5t18 29.5l37 90h28l-7 -160h-496zM130 697l-15 17l147 154h26l147 -154l-15 -17l-145 81z" />
    <glyph glyph-name="Edieresis" unicode="&#xcb;" horiz-adv-x="554" 
d="M23 0v21l20 7q18 5 25 17.5t8 34.5v503q-1 21 -7 32.5t-25 17.5l-21 7v21h476l7 -160h-28l-40 90q-8 19 -18 29.5t-30 10.5h-170q-1 -62 -1 -127.5v-147.5h99q20 0 30.5 10.5t19.5 28.5l17 38h22v-185h-22l-18 38q-8 18 -18 29t-30 11h-100v-124t0.5 -92.5t0.5 -79.5h192
q20 0 31 10.5t18 29.5l37 90h28l-7 -160h-496zM155 723q-27 0 -48 17.5t-21 47.5q0 29 21 46.5t48 17.5q28 0 47.5 -17.5t19.5 -46.5q0 -30 -19.5 -47.5t-47.5 -17.5zM395 723q-27 0 -47.5 17.5t-20.5 47.5q0 29 20.5 46.5t47.5 17.5q28 0 48 -17.5t20 -46.5
q0 -30 -20 -47.5t-48 -17.5z" />
    <glyph glyph-name="Edotaccent" unicode="&#x116;" horiz-adv-x="554" 
d="M23 0v21l20 7q18 5 25 17.5t8 34.5v503q-1 21 -7 32.5t-25 17.5l-21 7v21h476l7 -160h-28l-40 90q-8 19 -18 29.5t-30 10.5h-170q-1 -62 -1 -127.5v-147.5h99q20 0 30.5 10.5t19.5 28.5l17 38h22v-185h-22l-18 38q-8 18 -18 29t-30 11h-100v-124t0.5 -92.5t0.5 -79.5h192
q20 0 31 10.5t18 29.5l37 90h28l-7 -160h-496zM275 718q-33 0 -56 21t-23 54q0 32 23 53t56 21t56 -21t23 -53q0 -33 -23 -54t-56 -21z" />
    <glyph glyph-name="Egrave" unicode="&#xc8;" horiz-adv-x="554" 
d="M23 0v21l20 7q18 5 25 17.5t8 34.5v503q-1 21 -7 32.5t-25 17.5l-21 7v21h476l7 -160h-28l-40 90q-8 19 -18 29.5t-30 10.5h-170q-1 -62 -1 -127.5v-147.5h99q20 0 30.5 10.5t19.5 28.5l17 38h22v-185h-22l-18 38q-8 18 -18 29t-30 11h-100v-124t0.5 -92.5t0.5 -79.5h192
q20 0 31 10.5t18 29.5l37 90h28l-7 -160h-496zM339 712q-37 16 -71.5 32t-71.5 32q-31 14 -45 29t-14 31q0 17 12 29t31 12q15 0 30.5 -8.5t39.5 -34.5q24 -25 50.5 -52t51.5 -53z" />
    <glyph glyph-name="Emacron" unicode="&#x112;" horiz-adv-x="554" 
d="M23 0v21l20 7q18 5 25 17.5t8 34.5v503q-1 21 -7 32.5t-25 17.5l-21 7v21h476l7 -160h-28l-40 90q-8 19 -18 29.5t-30 10.5h-170q-1 -62 -1 -127.5v-147.5h99q20 0 30.5 10.5t19.5 28.5l17 38h22v-185h-22l-18 38q-8 18 -18 29t-30 11h-100v-124t0.5 -92.5t0.5 -79.5h192
q20 0 31 10.5t18 29.5l37 90h28l-7 -160h-496zM118 760v41h314v-41h-314z" />
    <glyph glyph-name="Eogonek" unicode="&#x118;" horiz-adv-x="598" 
d="M23 0v21l20 7q18 5 25 17.5t8 34.5v503q-1 21 -7 32.5t-25 17.5l-21 7v21h476l7 -160h-28l-40 90q-8 19 -18 29.5t-30 10.5h-170q-1 -62 -1 -127.5v-147.5h99q20 0 30.5 10.5t19.5 28.5l17 38h22v-185h-22l-18 38q-8 18 -18 29t-30 11h-100v-124t0.5 -92.5t0.5 -79.5h192
q20 0 31 10.5t18 29.5l37 90h28l-7 -160h-496zM460 -223q-46 0 -74.5 24.5t-28.5 65.5q0 32 18.5 60t47.5 50t61 34h22q-66 -42 -66 -105q0 -32 21 -51t53 -19q17 0 32 5t27 12l9 -19q-22 -24 -53.5 -40.5t-68.5 -16.5z" />
    <glyph glyph-name="F" unicode="F" horiz-adv-x="536" 
d="M23 0v21l19 5q20 6 26 18t7 33q1 57 1 115.5v117.5v41v116t-1 116q-1 21 -6 32.5t-24 17.5l-22 7v21h481l7 -169h-27l-52 99q-10 19 -22 29.5t-35 10.5h-154q-1 -67 -1.5 -137.5t-0.5 -140.5h96q23 0 34 10.5t21 29.5l20 37h22v-183h-22l-20 36q-11 20 -21.5 30.5
t-33.5 10.5h-96v-126.5t1 -118.5q0 -41 37 -51l30 -7v-21h-264z" />
    <glyph glyph-name="G" unicode="G" horiz-adv-x="655" 
d="M364 -17q-102 0 -179 43t-120.5 121.5t-43.5 184.5q0 104 42.5 182t123.5 121.5t194 43.5q54 0 100.5 -12t87.5 -35l4 -143h-27l-50 101q-12 24 -23 35t-29 16q-13 5 -25 6.5t-31 1.5q-63 0 -111 -32.5t-74.5 -102.5t-26.5 -182q0 -169 55.5 -244.5t148.5 -75.5
q22 0 38 6q19 3 26 15.5t7 31.5q0 41 -0.5 89.5t-0.5 88.5q0 39 -41 48l-45 10v21h276v-21l-12 -3q-19 -6 -29 -17.5t-10 -31.5q0 -40 -0.5 -81.5t-0.5 -83.5v-43q-52 -28 -105.5 -43t-118.5 -15z" />
    <glyph glyph-name="Gbreve" unicode="&#x11e;" horiz-adv-x="655" 
d="M364 -17q-102 0 -179 43t-120.5 121.5t-43.5 184.5q0 104 42.5 182t123.5 121.5t194 43.5q54 0 100.5 -12t87.5 -35l4 -143h-27l-50 101q-12 24 -23 35t-29 16q-13 5 -25 6.5t-31 1.5q-63 0 -111 -32.5t-74.5 -102.5t-26.5 -182q0 -169 55.5 -244.5t148.5 -75.5
q22 0 38 6q19 3 26 15.5t7 31.5q0 41 -0.5 89.5t-0.5 88.5q0 39 -41 48l-45 10v21h276v-21l-12 -3q-19 -6 -29 -17.5t-10 -31.5q0 -40 -0.5 -81.5t-0.5 -83.5v-43q-52 -28 -105.5 -43t-118.5 -15zM359 715q-44 0 -75.5 19t-50 50.5t-23.5 66.5l21 8q15 -31 48.5 -50
t79.5 -19t79 19t49 50l21 -8q-5 -35 -23.5 -66.5t-50 -50.5t-75.5 -19z" />
    <glyph glyph-name="uni0122" unicode="&#x122;" horiz-adv-x="655" 
d="M364 -17q-102 0 -179 43t-120.5 121.5t-43.5 184.5q0 104 42.5 182t123.5 121.5t194 43.5q54 0 100.5 -12t87.5 -35l4 -143h-27l-50 101q-12 24 -23 35t-29 16q-13 5 -25 6.5t-31 1.5q-63 0 -111 -32.5t-74.5 -102.5t-26.5 -182q0 -169 55.5 -244.5t148.5 -75.5
q22 0 38 6q19 3 26 15.5t7 31.5q0 41 -0.5 89.5t-0.5 88.5q0 39 -41 48l-45 10v21h276v-21l-12 -3q-19 -6 -29 -17.5t-10 -31.5q0 -40 -0.5 -81.5t-0.5 -83.5v-43q-52 -28 -105.5 -43t-118.5 -15zM305 -263l-7 18q32 13 52.5 27t32.5 37q-31 3 -49.5 21t-18.5 45t19 45
t47 18q33 0 50.5 -19.5t17.5 -51.5q0 -34 -20 -61.5t-52.5 -47t-71.5 -31.5z" />
    <glyph glyph-name="H" unicode="H" horiz-adv-x="689" 
d="M23 0v21l19 6q20 7 27 18.5t7 31.5v506q0 20 -6.5 32t-26.5 19l-20 6v21h247v-21l-17 -5q-19 -7 -26 -18.5t-7 -31.5v-230h249v230q0 20 -7 31.5t-27 18.5l-16 5v21h247v-21l-19 -6q-19 -7 -26.5 -18.5t-7.5 -31.5v-507q0 -20 7.5 -31.5t26.5 -18.5l19 -6v-21h-247v21
l16 5q20 7 27 18.5t7 31.5v249h-249v-249q0 -20 7.5 -31.5t26.5 -18.5l16 -5v-21h-247z" />
    <glyph glyph-name="I" unicode="I" horiz-adv-x="296" 
d="M23 0v21l20 6q20 7 26.5 18.5t6.5 32.5v505q0 21 -6.5 32.5t-26.5 18.5l-20 6v21h250v-21l-20 -6q-19 -7 -26 -18.5t-7 -32.5v-505q0 -21 7 -32.5t26 -18.5l20 -6v-21h-250z" />
    <glyph glyph-name="Iacute" unicode="&#xcd;" horiz-adv-x="296" 
d="M23 0v21l20 6q20 7 26.5 18.5t6.5 32.5v505q0 21 -6.5 32.5t-26.5 18.5l-20 6v21h250v-21l-20 -6q-19 -7 -26 -18.5t-7 -32.5v-505q0 -21 7 -32.5t26 -18.5l20 -6v-21h-250zM71 729q26 26 52 53t51 52q24 26 39.5 34.5t30.5 8.5q19 0 31 -12t12 -29q0 -16 -13.5 -30.5
t-45.5 -29.5q-37 -16 -71.5 -32t-71.5 -32z" />
    <glyph glyph-name="Icircumflex" unicode="&#xce;" horiz-adv-x="296" 
d="M23 0v21l20 6q20 7 26.5 18.5t6.5 32.5v505q0 21 -6.5 32.5t-26.5 18.5l-20 6v21h250v-21l-20 -6q-19 -7 -26 -18.5t-7 -32.5v-505q0 -21 7 -32.5t26 -18.5l20 -6v-21h-250zM3 697l-15 17l147 154h26l147 -154l-15 -17l-145 81z" />
    <glyph glyph-name="Idieresis" unicode="&#xcf;" horiz-adv-x="296" 
d="M23 0v21l20 6q20 7 26.5 18.5t6.5 32.5v505q0 21 -6.5 32.5t-26.5 18.5l-20 6v21h250v-21l-20 -6q-19 -7 -26 -18.5t-7 -32.5v-505q0 -21 7 -32.5t26 -18.5l20 -6v-21h-250zM28 723q-27 0 -48 17.5t-21 47.5q0 29 21 46.5t48 17.5q28 0 47.5 -17.5t19.5 -46.5
q0 -30 -19.5 -47.5t-47.5 -17.5zM268 723q-27 0 -47.5 17.5t-20.5 47.5q0 29 20.5 46.5t47.5 17.5q28 0 48 -17.5t20 -46.5q0 -30 -20 -47.5t-48 -17.5z" />
    <glyph glyph-name="Idotaccent" unicode="&#x130;" horiz-adv-x="296" 
d="M23 0v21l20 6q20 7 26.5 18.5t6.5 32.5v505q0 21 -6.5 32.5t-26.5 18.5l-20 6v21h250v-21l-20 -6q-19 -7 -26 -18.5t-7 -32.5v-505q0 -21 7 -32.5t26 -18.5l20 -6v-21h-250zM148 718q-33 0 -56 21t-23 54q0 32 23 53t56 21t56 -21t23 -53q0 -33 -23 -54t-56 -21z" />
    <glyph glyph-name="Igrave" unicode="&#xcc;" horiz-adv-x="296" 
d="M23 0v21l20 6q20 7 26.5 18.5t6.5 32.5v505q0 21 -6.5 32.5t-26.5 18.5l-20 6v21h250v-21l-20 -6q-19 -7 -26 -18.5t-7 -32.5v-505q0 -21 7 -32.5t26 -18.5l20 -6v-21h-250zM212 712q-37 16 -71.5 32t-71.5 32q-31 14 -45 29t-14 31q0 17 12 29t31 12q15 0 30.5 -8.5
t39.5 -34.5q24 -25 50.5 -52t51.5 -53z" />
    <glyph glyph-name="Imacron" unicode="&#x12a;" horiz-adv-x="296" 
d="M23 0v21l20 6q20 7 26.5 18.5t6.5 32.5v505q0 21 -6.5 32.5t-26.5 18.5l-20 6v21h250v-21l-20 -6q-19 -7 -26 -18.5t-7 -32.5v-505q0 -21 7 -32.5t26 -18.5l20 -6v-21h-250zM-9 760v41h314v-41h-314z" />
    <glyph glyph-name="Iogonek" unicode="&#x12e;" horiz-adv-x="296" 
d="M23 0v21l20 6q20 7 26.5 18.5t6.5 32.5v505q0 21 -6.5 32.5t-26.5 18.5l-20 6v21h250v-21l-20 -6q-19 -7 -26 -18.5t-7 -32.5v-505q0 -21 7 -32.5t26 -18.5l20 -6v-21h-250zM179 -223q-46 0 -74.5 24.5t-28.5 65.5q0 32 18.5 60t47.5 50t61 34h22q-66 -42 -66 -105
q0 -32 21 -51t53 -19q17 0 32 5t27 12l9 -19q-22 -24 -53.5 -40.5t-68.5 -16.5z" />
    <glyph glyph-name="J" unicode="J" horiz-adv-x="420" 
d="M106 -17q-48 0 -73 18t-25 49q0 27 18.5 42t43.5 15q26 0 45.5 -11t37.5 -37l13 -23q7 -7 16 -6t13 11q6 20 8.5 54.5t2.5 83.5q0 60 -2.5 156t-5.5 246q-1 21 -8.5 34t-25.5 19l-22 6v21h255v-21l-21 -6q-19 -6 -25.5 -18t-6.5 -32v-196q0 -97 -8 -159t-27 -107
q-25 -68 -80.5 -103.5t-122.5 -35.5z" />
    <glyph glyph-name="K" unicode="K" horiz-adv-x="648" 
d="M23 0v21l21 6q20 6 26 18t6 32v506q0 21 -6.5 32.5t-26.5 17.5l-20 7v21h243v-21l-21 -7q-19 -5 -25 -17t-6 -33v-507q0 -20 7 -31.5t26 -17.5l19 -6v-21h-243zM387 0v21l12 3q19 5 20 19t-13 32l-191 265l244 248q15 15 16.5 27.5t-18.5 19.5l-17 5v21h158v-21l-26 -7
q-23 -7 -37 -16.5t-32 -28.5l-178 -181l229 -327q16 -22 30.5 -35t39.5 -20l14 -4v-21h-251z" />
    <glyph glyph-name="uni0136" unicode="&#x136;" horiz-adv-x="648" 
d="M23 0v21l21 6q20 6 26 18t6 32v506q0 21 -6.5 32.5t-26.5 17.5l-20 7v21h243v-21l-21 -7q-19 -5 -25 -17t-6 -33v-507q0 -20 7 -31.5t26 -17.5l19 -6v-21h-243zM387 0v21l12 3q19 5 20 19t-13 32l-191 265l244 248q15 15 16.5 27.5t-18.5 19.5l-17 5v21h158v-21l-26 -7
q-23 -7 -37 -16.5t-32 -28.5l-178 -181l229 -327q16 -22 30.5 -35t39.5 -20l14 -4v-21h-251zM252 -263l-7 18q32 13 52.5 27t32.5 37q-31 3 -49.5 21t-18.5 45t19 45t47 18q33 0 50.5 -19.5t17.5 -51.5q0 -34 -20 -61.5t-52.5 -47t-71.5 -31.5z" />
    <glyph glyph-name="L" unicode="L" horiz-adv-x="540" 
d="M23 0v21l20 6q21 7 27 18.5t6 32.5v506q0 20 -6 31.5t-26 18.5l-21 6v21h248v-21l-19 -6q-19 -7 -25.5 -19t-6.5 -33v-552h147q34 0 51 17t32 49l37 83h28l-10 -179h-482z" />
    <glyph glyph-name="Lacute" unicode="&#x139;" horiz-adv-x="540" 
d="M23 0v21l20 6q21 7 27 18.5t6 32.5v506q0 20 -6 31.5t-26 18.5l-21 6v21h248v-21l-19 -6q-19 -7 -25.5 -19t-6.5 -33v-552h147q34 0 51 17t32 49l37 83h28l-10 -179h-482zM77 729q26 26 52 53t51 52q24 26 39.5 34.5t30.5 8.5q19 0 31 -12t12 -29q0 -16 -13.5 -30.5
t-45.5 -29.5q-37 -16 -71.5 -32t-71.5 -32z" />
    <glyph glyph-name="Lcaron" unicode="&#x13d;" horiz-adv-x="586" 
d="M427 445l-10 19q31 19 53.5 46t32.5 67l-15 4q-28 8 -45.5 25.5t-17.5 41.5q0 26 16.5 44t44.5 18q32 0 51.5 -21.5t19.5 -59.5q0 -37 -17.5 -73t-47 -65t-65.5 -46zM23 0v21l20 6q21 7 27 18.5t6 32.5v506q0 20 -6 31.5t-26 18.5l-21 6v21h248v-21l-19 -6
q-19 -7 -25.5 -19t-6.5 -33v-552h147q34 0 51 17t32 49l37 83h28l-10 -179h-482z" />
    <glyph glyph-name="uni013B" unicode="&#x13b;" horiz-adv-x="540" 
d="M23 0v21l20 6q21 7 27 18.5t6 32.5v506q0 20 -6 31.5t-26 18.5l-21 6v21h248v-21l-19 -6q-19 -7 -25.5 -19t-6.5 -33v-552h147q34 0 51 17t32 49l37 83h28l-10 -179h-482zM198 -263l-7 18q32 13 52.5 27t32.5 37q-31 3 -49.5 21t-18.5 45t19 45t47 18q33 0 50.5 -19.5
t17.5 -51.5q0 -34 -20 -61.5t-52.5 -47t-71.5 -31.5z" />
    <glyph glyph-name="Ldot" unicode="&#x13f;" horiz-adv-x="586" 
d="M23 0v21l20 6q21 7 27 18.5t6 32.5v506q0 20 -6 31.5t-26 18.5l-21 6v21h248v-21l-19 -6q-19 -7 -25.5 -19t-6.5 -33v-552h147q34 0 51 17t32 49l37 83h28l-10 -179h-482zM476 303q-35 0 -59.5 24t-24.5 58q0 35 24.5 60t59.5 25t59.5 -25t24.5 -60q0 -34 -24.5 -58
t-59.5 -24z" />
    <glyph glyph-name="Lslash" unicode="&#x141;" horiz-adv-x="586" 
d="M23 0v21l20 6q21 7 27 18.5t6 32.5v166l-40 -22v37l40 22v303q0 20 -6 31.5t-26 18.5l-21 6v21h248v-21l-19 -6q-19 -7 -25.5 -19t-6.5 -33v-226l180 97v-37l-180 -98v-288h147q34 0 51 17t32 49l37 83h28l-10 -179h-482z" />
    <glyph glyph-name="M" unicode="M" horiz-adv-x="795" 
d="M21 0v22l20 6q19 6 26 19.5t7 35.5v495q0 20 -5 32.5t-25 19.5l-23 9v22h191l188 -489l177 489h195v-22l-16 -5q-19 -6 -26 -18.5t-7 -32.5q-1 -58 -1 -115.5v-116.5v-41v-116t1 -115q0 -21 5 -32t24 -18l20 -7v-22h-243v22l22 7q19 7 23.5 18.5t4.5 31.5v217l2 268
l-204 -564h-56l-215 558l4 -228v-248q0 -22 6 -35t25 -18l20 -7v-22h-140z" />
    <glyph glyph-name="N" unicode="N" horiz-adv-x="656" 
d="M35 0v21l29 8q19 5 26.5 19t7.5 34v484q-9 19 -15.5 28.5t-13.5 16.5t-19 16l-18 13v21h171l332 -454v371q0 20 -6.5 35t-26.5 20l-30 7v21h149v-21l-25 -7q-19 -6 -23.5 -20.5t-4.5 -34.5v-582h-56l-381 524v-437q0 -21 6 -35t25 -19l27 -8v-21h-154z" />
    <glyph glyph-name="Nacute" unicode="&#x143;" horiz-adv-x="656" 
d="M35 0v21l29 8q19 5 26.5 19t7.5 34v484q-9 19 -15.5 28.5t-13.5 16.5t-19 16l-18 13v21h171l332 -454v371q0 20 -6.5 35t-26.5 20l-30 7v21h149v-21l-25 -7q-19 -6 -23.5 -20.5t-4.5 -34.5v-582h-56l-381 524v-437q0 -21 6 -35t25 -19l27 -8v-21h-154zM250 729
q26 26 52 53t51 52q24 26 39.5 34.5t30.5 8.5q19 0 31 -12t12 -29q0 -16 -13.5 -30.5t-45.5 -29.5q-37 -16 -71.5 -32t-71.5 -32z" />
    <glyph glyph-name="Ncaron" unicode="&#x147;" horiz-adv-x="656" 
d="M35 0v21l29 8q19 5 26.5 19t7.5 34v484q-9 19 -15.5 28.5t-13.5 16.5t-19 16l-18 13v21h171l332 -454v371q0 20 -6.5 35t-26.5 20l-30 7v21h149v-21l-25 -7q-19 -6 -23.5 -20.5t-4.5 -34.5v-582h-56l-381 524v-437q0 -21 6 -35t25 -19l27 -8v-21h-154zM310 718l-140 148
l16 16l141 -83l141 83l16 -16l-140 -148h-34z" />
    <glyph glyph-name="uni0145" unicode="&#x145;" horiz-adv-x="656" 
d="M35 0v21l29 8q19 5 26.5 19t7.5 34v484q-9 19 -15.5 28.5t-13.5 16.5t-19 16l-18 13v21h171l332 -454v371q0 20 -6.5 35t-26.5 20l-30 7v21h149v-21l-25 -7q-19 -6 -23.5 -20.5t-4.5 -34.5v-582h-56l-381 524v-437q0 -21 6 -35t25 -19l27 -8v-21h-154zM271 -263l-7 18
q32 13 52.5 27t32.5 37q-31 3 -49.5 21t-18.5 45t19 45t47 18q33 0 50.5 -19.5t17.5 -51.5q0 -34 -20 -61.5t-52.5 -47t-71.5 -31.5z" />
    <glyph glyph-name="Ntilde" unicode="&#xd1;" horiz-adv-x="656" 
d="M35 0v21l29 8q19 5 26.5 19t7.5 34v484q-9 19 -15.5 28.5t-13.5 16.5t-19 16l-18 13v21h171l332 -454v371q0 20 -6.5 35t-26.5 20l-30 7v21h149v-21l-25 -7q-19 -6 -23.5 -20.5t-4.5 -34.5v-582h-56l-381 524v-437q0 -21 6 -35t25 -19l27 -8v-21h-154zM153 722
q9 62 35 100t69 38q25 0 44 -9t35 -21q17 -14 34 -28.5t39 -14.5q26 0 43 19t28 50l22 -8q-9 -61 -34.5 -99.5t-68.5 -38.5q-25 0 -44 9t-35 21q-17 14 -34.5 28.5t-38.5 14.5q-27 0 -44.5 -19.5t-28.5 -49.5z" />
    <glyph glyph-name="O" unicode="O" horiz-adv-x="669" 
d="M335 -17q-61 0 -117 22t-100.5 65.5t-70.5 108.5t-26 152q0 85 26 150t70.5 109t101 66.5t116.5 22.5t116.5 -22t100.5 -65.5t70 -108.5t26 -152q0 -85 -26 -150t-70 -109t-100 -66.5t-117 -22.5zM335 13q57 0 92 29.5t51 99.5t16 189t-16 188.5t-51 99t-92 29.5
q-56 0 -91.5 -29.5t-51.5 -99t-16 -188.5t16 -189t51.5 -99.5t91.5 -29.5z" />
    <glyph glyph-name="Oacute" unicode="&#xd3;" horiz-adv-x="669" 
d="M335 -17q-61 0 -117 22t-100.5 65.5t-70.5 108.5t-26 152q0 85 26 150t70.5 109t101 66.5t116.5 22.5t116.5 -22t100.5 -65.5t70 -108.5t26 -152q0 -85 -26 -150t-70 -109t-100 -66.5t-117 -22.5zM335 13q57 0 92 29.5t51 99.5t16 189t-16 188.5t-51 99t-92 29.5
q-56 0 -91.5 -29.5t-51.5 -99t-16 -188.5t16 -189t51.5 -99.5t91.5 -29.5zM257 729q26 26 52 53t51 52q24 26 39.5 34.5t30.5 8.5q19 0 31 -12t12 -29q0 -16 -13.5 -30.5t-45.5 -29.5q-37 -16 -71.5 -32t-71.5 -32z" />
    <glyph glyph-name="Ocircumflex" unicode="&#xd4;" horiz-adv-x="669" 
d="M335 -17q-61 0 -117 22t-100.5 65.5t-70.5 108.5t-26 152q0 85 26 150t70.5 109t101 66.5t116.5 22.5t116.5 -22t100.5 -65.5t70 -108.5t26 -152q0 -85 -26 -150t-70 -109t-100 -66.5t-117 -22.5zM335 13q57 0 92 29.5t51 99.5t16 189t-16 188.5t-51 99t-92 29.5
q-56 0 -91.5 -29.5t-51.5 -99t-16 -188.5t16 -189t51.5 -99.5t91.5 -29.5zM189 697l-15 17l147 154h26l147 -154l-15 -17l-145 81z" />
    <glyph glyph-name="Odieresis" unicode="&#xd6;" horiz-adv-x="669" 
d="M335 -17q-61 0 -117 22t-100.5 65.5t-70.5 108.5t-26 152q0 85 26 150t70.5 109t101 66.5t116.5 22.5t116.5 -22t100.5 -65.5t70 -108.5t26 -152q0 -85 -26 -150t-70 -109t-100 -66.5t-117 -22.5zM335 13q57 0 92 29.5t51 99.5t16 189t-16 188.5t-51 99t-92 29.5
q-56 0 -91.5 -29.5t-51.5 -99t-16 -188.5t16 -189t51.5 -99.5t91.5 -29.5zM214 723q-27 0 -48 17.5t-21 47.5q0 29 21 46.5t48 17.5q28 0 47.5 -17.5t19.5 -46.5q0 -30 -19.5 -47.5t-47.5 -17.5zM454 723q-27 0 -47.5 17.5t-20.5 47.5q0 29 20.5 46.5t47.5 17.5
q28 0 48 -17.5t20 -46.5q0 -30 -20 -47.5t-48 -17.5z" />
    <glyph glyph-name="Ograve" unicode="&#xd2;" horiz-adv-x="669" 
d="M335 -17q-61 0 -117 22t-100.5 65.5t-70.5 108.5t-26 152q0 85 26 150t70.5 109t101 66.5t116.5 22.5t116.5 -22t100.5 -65.5t70 -108.5t26 -152q0 -85 -26 -150t-70 -109t-100 -66.5t-117 -22.5zM335 13q57 0 92 29.5t51 99.5t16 189t-16 188.5t-51 99t-92 29.5
q-56 0 -91.5 -29.5t-51.5 -99t-16 -188.5t16 -189t51.5 -99.5t91.5 -29.5zM398 712q-37 16 -71.5 32t-71.5 32q-31 14 -45 29t-14 31q0 17 12 29t31 12q15 0 30.5 -8.5t39.5 -34.5q24 -25 50.5 -52t51.5 -53z" />
    <glyph glyph-name="Ohungarumlaut" unicode="&#x150;" horiz-adv-x="669" 
d="M335 -17q-61 0 -117 22t-100.5 65.5t-70.5 108.5t-26 152q0 85 26 150t70.5 109t101 66.5t116.5 22.5t116.5 -22t100.5 -65.5t70 -108.5t26 -152q0 -85 -26 -150t-70 -109t-100 -66.5t-117 -22.5zM335 13q57 0 92 29.5t51 99.5t16 189t-16 188.5t-51 99t-92 29.5
q-56 0 -91.5 -29.5t-51.5 -99t-16 -188.5t16 -189t51.5 -99.5t91.5 -29.5zM391 706l-17 10l51 132q17 45 50 45q18 0 29.5 -11t11.5 -28q0 -22 -22 -44zM234 706l-16 10l50 132q17 45 51 45q17 0 29 -11t12 -28q0 -21 -23 -44z" />
    <glyph glyph-name="Omacron" unicode="&#x14c;" horiz-adv-x="669" 
d="M335 -17q-61 0 -117 22t-100.5 65.5t-70.5 108.5t-26 152q0 85 26 150t70.5 109t101 66.5t116.5 22.5t116.5 -22t100.5 -65.5t70 -108.5t26 -152q0 -85 -26 -150t-70 -109t-100 -66.5t-117 -22.5zM335 13q57 0 92 29.5t51 99.5t16 189t-16 188.5t-51 99t-92 29.5
q-56 0 -91.5 -29.5t-51.5 -99t-16 -188.5t16 -189t51.5 -99.5t91.5 -29.5zM177 760v41h314v-41h-314z" />
    <glyph glyph-name="Oslash" unicode="&#xd8;" horiz-adv-x="669" 
d="M74 -18l-31 26l61 76q-38 43 -60.5 105t-22.5 142q0 85 26 150t70.5 109t101 66.5t116.5 22.5q54 0 105 -17.5t92 -52.5l62 76l32 -25l-64 -79q39 -43 62.5 -105.5t23.5 -144.5q0 -85 -26 -150t-70 -109t-100 -66.5t-117 -22.5q-55 0 -107 18t-95 54zM173 331
q0 -88 11 -150l288 355q-37 112 -137 112q-86 0 -124 -79.5t-38 -237.5zM335 13q86 0 124 80t38 238q0 92 -12 156l-289 -355q36 -119 139 -119z" />
    <glyph glyph-name="Otilde" unicode="&#xd5;" horiz-adv-x="669" 
d="M335 -17q-61 0 -117 22t-100.5 65.5t-70.5 108.5t-26 152q0 85 26 150t70.5 109t101 66.5t116.5 22.5t116.5 -22t100.5 -65.5t70 -108.5t26 -152q0 -85 -26 -150t-70 -109t-100 -66.5t-117 -22.5zM335 13q57 0 92 29.5t51 99.5t16 189t-16 188.5t-51 99t-92 29.5
q-56 0 -91.5 -29.5t-51.5 -99t-16 -188.5t16 -189t51.5 -99.5t91.5 -29.5zM160 722q9 62 35 100t69 38q25 0 44 -9t35 -21q17 -14 34 -28.5t39 -14.5q26 0 43 19t28 50l22 -8q-9 -61 -34.5 -99.5t-68.5 -38.5q-25 0 -44 9t-35 21q-17 14 -34.5 28.5t-38.5 14.5
q-27 0 -44.5 -19.5t-28.5 -49.5z" />
    <glyph glyph-name="OE" unicode="&#x152;" horiz-adv-x="916" 
d="M371 -17q-96 0 -175.5 38.5t-127 116t-47.5 193.5t47.5 193t127 116t175.5 39q32 0 66 -4.5t68 -13.5h356l6 -160h-27l-43 98q-14 32 -50 32h-164q-1 -62 -1.5 -127.5t-0.5 -147.5h96q31 0 44 27l26 50h22v-185h-22l-25 51q-14 27 -45 27h-96v-124t0.5 -92.5t1.5 -79.5
h187q37 0 50 33l40 97h27l-6 -160h-376q-32 -7 -66.5 -12t-67.5 -5zM382 12q5 0 10.5 0.5t9.5 0.5q32 3 32 39q1 77 2 141.5t1 116.5v41v113.5t-2 138.5q-2 41 -33 44q-5 1 -9.5 1.5t-10.5 0.5q-70 0 -116 -42t-68 -114t-22 -162t22 -162.5t68 -114.5t116 -42z" />
    <glyph glyph-name="P" unicode="P" horiz-adv-x="561" 
d="M23 0v21l20 5q20 6 26 18t6 33q1 57 1 115.5v117.5v41v116t-1 116q0 21 -6.5 32.5t-26.5 18.5l-19 6v21h241q146 0 212.5 -54.5t66.5 -143.5q0 -56 -27.5 -103.5t-90.5 -75.5t-170 -28h-36v-86.5t1 -90.5q0 -41 37 -50l30 -8v-21h-264zM219 285h42q50 0 81.5 15.5
t47 53.5t15.5 105t-16.5 104.5t-49.5 53t-82 15.5h-37q-1 -69 -1 -139.5v-141.5v-66z" />
    <glyph glyph-name="Thorn" unicode="&#xde;" horiz-adv-x="574" 
d="M23 0v21l14 4q38 12 38 50q1 56 1 118.5v116.5v41v115.5t-1 119.5q0 38 -37 50l-15 4v21h250v-21l-17 -5q-37 -12 -37 -50q0 -13 -0.5 -25.5t-0.5 -24.5h66q144 0 207.5 -51t63.5 -140q0 -54 -25 -99.5t-87.5 -72.5t-175.5 -27h-49q0 -17 0.5 -34.5t0.5 -34.5
q0 -40 37 -50l17 -5v-21h-250zM217 174h59q68 0 104.5 40t36.5 128q0 90 -34 127t-107 37h-58q-1 -38 -1 -77v-77v-178z" />
    <glyph glyph-name="Q" unicode="Q" horiz-adv-x="669" 
d="M335 -17q-61 0 -116 21l-47 -63q66 -16 145.5 -33.5t157.5 -33.5q35 -7 55 -6.5t38 10.5l33 19l13 -19l-52 -53q-22 -23 -43 -36t-50 -13q-20 0 -57.5 6t-83 15t-91.5 19t-83 18q-17 4 -31.5 1.5t-27.5 -13.5l-16 -13l-20 13l127 197q-72 38 -118.5 116t-46.5 196
q0 85 26 150t70.5 109t101 66.5t116.5 22.5t116.5 -22t100.5 -65.5t70 -108.5t26 -152q0 -85 -26 -150t-70 -109t-100 -66.5t-117 -22.5zM335 13q57 0 92 29.5t51 99.5t16 189t-16 188.5t-51 99t-92 29.5q-56 0 -91.5 -29.5t-51.5 -99t-16 -188.5t16 -189t51.5 -99.5
t91.5 -29.5z" />
    <glyph glyph-name="R" unicode="R" horiz-adv-x="625" 
d="M23 0v21l21 6q20 6 25.5 17.5t5.5 32.5q1 58 1 116v117v41v116t-1 116q0 21 -5 32.5t-25 17.5l-22 7v21h280q117 0 180.5 -44.5t63.5 -124.5q0 -44 -34.5 -89t-105.5 -69l136 -265q17 -33 53 -45l19 -4v-20h-177l-149 312h-72v-128t1 -107q0 -20 6.5 -32t25.5 -17l24 -7
v-21h-251zM217 341h54q71 0 104 36t33 110t-31.5 109.5t-101.5 35.5h-57q0 -39 -0.5 -79.5t-0.5 -91v-120.5z" />
    <glyph glyph-name="Racute" unicode="&#x154;" horiz-adv-x="625" 
d="M23 0v21l21 6q20 6 25.5 17.5t5.5 32.5q1 58 1 116v117v41v116t-1 116q0 21 -5 32.5t-25 17.5l-22 7v21h280q117 0 180.5 -44.5t63.5 -124.5q0 -44 -34.5 -89t-105.5 -69l136 -265q17 -33 53 -45l19 -4v-20h-177l-149 312h-72v-128t1 -107q0 -20 6.5 -32t25.5 -17l24 -7
v-21h-251zM217 341h54q71 0 104 36t33 110t-31.5 109.5t-101.5 35.5h-57q0 -39 -0.5 -79.5t-0.5 -91v-120.5zM193 729q26 26 52 53t51 52q24 26 39.5 34.5t30.5 8.5q19 0 31 -12t12 -29q0 -16 -13.5 -30.5t-45.5 -29.5q-37 -16 -71.5 -32t-71.5 -32z" />
    <glyph glyph-name="Rcaron" unicode="&#x158;" horiz-adv-x="625" 
d="M23 0v21l21 6q20 6 25.5 17.5t5.5 32.5q1 58 1 116v117v41v116t-1 116q0 21 -5 32.5t-25 17.5l-22 7v21h280q117 0 180.5 -44.5t63.5 -124.5q0 -44 -34.5 -89t-105.5 -69l136 -265q17 -33 53 -45l19 -4v-20h-177l-149 312h-72v-128t1 -107q0 -20 6.5 -32t25.5 -17l24 -7
v-21h-251zM217 341h54q71 0 104 36t33 110t-31.5 109.5t-101.5 35.5h-57q0 -39 -0.5 -79.5t-0.5 -91v-120.5zM253 718l-140 148l16 16l141 -83l141 83l16 -16l-140 -148h-34z" />
    <glyph glyph-name="uni0156" unicode="&#x156;" horiz-adv-x="625" 
d="M23 0v21l21 6q20 6 25.5 17.5t5.5 32.5q1 58 1 116v117v41v116t-1 116q0 21 -5 32.5t-25 17.5l-22 7v21h280q117 0 180.5 -44.5t63.5 -124.5q0 -44 -34.5 -89t-105.5 -69l136 -265q17 -33 53 -45l19 -4v-20h-177l-149 312h-72v-128t1 -107q0 -20 6.5 -32t25.5 -17l24 -7
v-21h-251zM217 341h54q71 0 104 36t33 110t-31.5 109.5t-101.5 35.5h-57q0 -39 -0.5 -79.5t-0.5 -91v-120.5zM254 -263l-7 18q32 13 52.5 27t32.5 37q-31 3 -49.5 21t-18.5 45t19 45t47 18q33 0 50.5 -19.5t17.5 -51.5q0 -34 -20 -61.5t-52.5 -47t-71.5 -31.5z" />
    <glyph glyph-name="S" unicode="S" horiz-adv-x="519" 
d="M236 -17q-55 0 -111.5 13.5t-94.5 35.5l6 139h29l31 -69q14 -29 29 -48t40 -29q17 -7 32.5 -9.5t34.5 -2.5q61 0 96.5 31.5t35.5 83.5q0 47 -24.5 74t-78.5 52l-41 18q-84 37 -132.5 86t-48.5 130q0 60 30.5 102.5t84.5 65.5t126 23q53 0 99.5 -14t81.5 -38l-7 -124h-29
l-37 75q-16 33 -30.5 47.5t-35.5 18.5q-12 2 -20.5 3t-22.5 1q-49 0 -84.5 -28.5t-35.5 -78.5q0 -48 27 -78t78 -53l45 -19q97 -42 139 -89.5t42 -121.5q0 -88 -66.5 -142.5t-187.5 -54.5z" />
    <glyph glyph-name="Sacute" unicode="&#x15a;" horiz-adv-x="519" 
d="M236 -17q-55 0 -111.5 13.5t-94.5 35.5l6 139h29l31 -69q14 -29 29 -48t40 -29q17 -7 32.5 -9.5t34.5 -2.5q61 0 96.5 31.5t35.5 83.5q0 47 -24.5 74t-78.5 52l-41 18q-84 37 -132.5 86t-48.5 130q0 60 30.5 102.5t84.5 65.5t126 23q53 0 99.5 -14t81.5 -38l-7 -124h-29
l-37 75q-16 33 -30.5 47.5t-35.5 18.5q-12 2 -20.5 3t-22.5 1q-49 0 -84.5 -28.5t-35.5 -78.5q0 -48 27 -78t78 -53l45 -19q97 -42 139 -89.5t42 -121.5q0 -88 -66.5 -142.5t-187.5 -54.5zM185 729q26 26 52 53t51 52q24 26 39.5 34.5t30.5 8.5q19 0 31 -12t12 -29
q0 -16 -13.5 -30.5t-45.5 -29.5q-37 -16 -71.5 -32t-71.5 -32z" />
    <glyph glyph-name="Scaron" unicode="&#x160;" horiz-adv-x="519" 
d="M236 -17q-55 0 -111.5 13.5t-94.5 35.5l6 139h29l31 -69q14 -29 29 -48t40 -29q17 -7 32.5 -9.5t34.5 -2.5q61 0 96.5 31.5t35.5 83.5q0 47 -24.5 74t-78.5 52l-41 18q-84 37 -132.5 86t-48.5 130q0 60 30.5 102.5t84.5 65.5t126 23q53 0 99.5 -14t81.5 -38l-7 -124h-29
l-37 75q-16 33 -30.5 47.5t-35.5 18.5q-12 2 -20.5 3t-22.5 1q-49 0 -84.5 -28.5t-35.5 -78.5q0 -48 27 -78t78 -53l45 -19q97 -42 139 -89.5t42 -121.5q0 -88 -66.5 -142.5t-187.5 -54.5zM245 718l-140 148l16 16l141 -83l141 83l16 -16l-140 -148h-34z" />
    <glyph glyph-name="Scedilla" unicode="&#x15e;" horiz-adv-x="519" 
d="M236 -17q-55 0 -111.5 13.5t-94.5 35.5l6 139h29l31 -69q14 -29 29 -48t40 -29q17 -7 32.5 -9.5t34.5 -2.5q61 0 96.5 31.5t35.5 83.5q0 47 -24.5 74t-78.5 52l-41 18q-84 37 -132.5 86t-48.5 130q0 60 30.5 102.5t84.5 65.5t126 23q53 0 99.5 -14t81.5 -38l-7 -124h-29
l-37 75q-16 33 -30.5 47.5t-35.5 18.5q-12 2 -20.5 3t-22.5 1q-49 0 -84.5 -28.5t-35.5 -78.5q0 -48 27 -78t78 -53l45 -19q97 -42 139 -89.5t42 -121.5q0 -88 -66.5 -142.5t-187.5 -54.5zM215 -86l13 87h28l-6 -51q111 -13 111 -86q0 -37 -32 -61t-95 -24q-23 0 -41 3.5
t-32 8.5l5 23q14 -4 26.5 -6t25.5 -2q28 0 43 15t15 41q0 44 -61 52z" />
    <glyph glyph-name="uni0218" unicode="&#x218;" horiz-adv-x="519" 
d="M236 -17q-55 0 -111.5 13.5t-94.5 35.5l6 139h29l31 -69q14 -29 29 -48t40 -29q17 -7 32.5 -9.5t34.5 -2.5q61 0 96.5 31.5t35.5 83.5q0 47 -24.5 74t-78.5 52l-41 18q-84 37 -132.5 86t-48.5 130q0 60 30.5 102.5t84.5 65.5t126 23q53 0 99.5 -14t81.5 -38l-7 -124h-29
l-37 75q-16 33 -30.5 47.5t-35.5 18.5q-12 2 -20.5 3t-22.5 1q-49 0 -84.5 -28.5t-35.5 -78.5q0 -48 27 -78t78 -53l45 -19q97 -42 139 -89.5t42 -121.5q0 -88 -66.5 -142.5t-187.5 -54.5zM172 -263l-7 18q32 13 52.5 27t32.5 37q-31 3 -49.5 21t-18.5 45t19 45t47 18
q33 0 50.5 -19.5t17.5 -51.5q0 -34 -20 -61.5t-52.5 -47t-71.5 -31.5z" />
    <glyph glyph-name="T" unicode="T" horiz-adv-x="624" 
d="M158 0v21l40 8q42 9 42 49v273v140t-1 140h-79q-32 0 -47 -17t-30 -48l-35 -74h-28l5 169h574l5 -169h-28l-35 74q-15 31 -30 48t-47 17h-80v-553q0 -41 42 -49l41 -8v-21h-309z" />
    <glyph glyph-name="Tcaron" unicode="&#x164;" horiz-adv-x="624" 
d="M158 0v21l40 8q42 9 42 49v273v140t-1 140h-79q-32 0 -47 -17t-30 -48l-35 -74h-28l5 169h574l5 -169h-28l-35 74q-15 31 -30 48t-47 17h-80v-553q0 -41 42 -49l41 -8v-21h-309zM295 718l-140 148l16 16l141 -83l141 83l16 -16l-140 -148h-34z" />
    <glyph glyph-name="uni0162" unicode="&#x162;" horiz-adv-x="624" 
d="M158 0v21l40 8q42 9 42 49v273v140t-1 140h-79q-32 0 -47 -17t-30 -48l-35 -74h-28l5 169h574l5 -169h-28l-35 74q-15 31 -30 48t-47 17h-80v-553q0 -41 42 -49l41 -8v-21h-309zM284 -86l13 87h28l-6 -51q111 -13 111 -86q0 -37 -32 -61t-95 -24q-23 0 -41 3.5t-32 8.5
l5 23q14 -4 26.5 -6t25.5 -2q28 0 43 15t15 41q0 44 -61 52z" />
    <glyph glyph-name="uni021A" unicode="&#x21a;" horiz-adv-x="624" 
d="M158 0v21l40 8q42 9 42 49v273v140t-1 140h-79q-32 0 -47 -17t-30 -48l-35 -74h-28l5 169h574l5 -169h-28l-35 74q-15 31 -30 48t-47 17h-80v-553q0 -41 42 -49l41 -8v-21h-309zM238 -263l-7 18q32 13 52.5 27t32.5 37q-31 3 -49.5 21t-18.5 45t19 45t47 18
q33 0 50.5 -19.5t17.5 -51.5q0 -34 -20 -61.5t-52.5 -47t-71.5 -31.5z" />
    <glyph glyph-name="U" unicode="U" horiz-adv-x="656" 
d="M337 -17q-75 0 -132.5 27t-90 85.5t-32.5 154.5v108v113t-1 115q0 39 -37 49l-22 5v21h270v-21l-28 -6q-38 -9 -38 -50q-1 -56 -1 -112.5v-113.5v-127q0 -97 39.5 -140t112.5 -43q77 0 120.5 46.5t43.5 138.5v348q0 20 -8 35t-28 19l-24 5v21h154v-21l-28 -6
q-19 -4 -26 -18t-7 -34v-343q0 -124 -65 -190t-172 -66z" />
    <glyph glyph-name="Uacute" unicode="&#xda;" horiz-adv-x="656" 
d="M337 -17q-75 0 -132.5 27t-90 85.5t-32.5 154.5v108v113t-1 115q0 39 -37 49l-22 5v21h270v-21l-28 -6q-38 -9 -38 -50q-1 -56 -1 -112.5v-113.5v-127q0 -97 39.5 -140t112.5 -43q77 0 120.5 46.5t43.5 138.5v348q0 20 -8 35t-28 19l-24 5v21h154v-21l-28 -6
q-19 -4 -26 -18t-7 -34v-343q0 -124 -65 -190t-172 -66zM315 729q26 26 52 53t51 52q24 26 39.5 34.5t30.5 8.5q19 0 31 -12t12 -29q0 -16 -13.5 -30.5t-45.5 -29.5q-37 -16 -71.5 -32t-71.5 -32z" />
    <glyph glyph-name="Ucircumflex" unicode="&#xdb;" horiz-adv-x="656" 
d="M337 -17q-75 0 -132.5 27t-90 85.5t-32.5 154.5v108v113t-1 115q0 39 -37 49l-22 5v21h270v-21l-28 -6q-38 -9 -38 -50q-1 -56 -1 -112.5v-113.5v-127q0 -97 39.5 -140t112.5 -43q77 0 120.5 46.5t43.5 138.5v348q0 20 -8 35t-28 19l-24 5v21h154v-21l-28 -6
q-19 -4 -26 -18t-7 -34v-343q0 -124 -65 -190t-172 -66zM247 697l-15 17l147 154h26l147 -154l-15 -17l-145 81z" />
    <glyph glyph-name="Udieresis" unicode="&#xdc;" horiz-adv-x="656" 
d="M337 -17q-75 0 -132.5 27t-90 85.5t-32.5 154.5v108v113t-1 115q0 39 -37 49l-22 5v21h270v-21l-28 -6q-38 -9 -38 -50q-1 -56 -1 -112.5v-113.5v-127q0 -97 39.5 -140t112.5 -43q77 0 120.5 46.5t43.5 138.5v348q0 20 -8 35t-28 19l-24 5v21h154v-21l-28 -6
q-19 -4 -26 -18t-7 -34v-343q0 -124 -65 -190t-172 -66zM272 723q-27 0 -48 17.5t-21 47.5q0 29 21 46.5t48 17.5q28 0 47.5 -17.5t19.5 -46.5q0 -30 -19.5 -47.5t-47.5 -17.5zM512 723q-27 0 -47.5 17.5t-20.5 47.5q0 29 20.5 46.5t47.5 17.5q28 0 48 -17.5t20 -46.5
q0 -30 -20 -47.5t-48 -17.5z" />
    <glyph glyph-name="Ugrave" unicode="&#xd9;" horiz-adv-x="656" 
d="M337 -17q-75 0 -132.5 27t-90 85.5t-32.5 154.5v108v113t-1 115q0 39 -37 49l-22 5v21h270v-21l-28 -6q-38 -9 -38 -50q-1 -56 -1 -112.5v-113.5v-127q0 -97 39.5 -140t112.5 -43q77 0 120.5 46.5t43.5 138.5v348q0 20 -8 35t-28 19l-24 5v21h154v-21l-28 -6
q-19 -4 -26 -18t-7 -34v-343q0 -124 -65 -190t-172 -66zM456 712q-37 16 -71.5 32t-71.5 32q-31 14 -45 29t-14 31q0 17 12 29t31 12q15 0 30.5 -8.5t39.5 -34.5q24 -25 50.5 -52t51.5 -53z" />
    <glyph glyph-name="Uhungarumlaut" unicode="&#x170;" horiz-adv-x="656" 
d="M337 -17q-75 0 -132.5 27t-90 85.5t-32.5 154.5v108v113t-1 115q0 39 -37 49l-22 5v21h270v-21l-28 -6q-38 -9 -38 -50q-1 -56 -1 -112.5v-113.5v-127q0 -97 39.5 -140t112.5 -43q77 0 120.5 46.5t43.5 138.5v348q0 20 -8 35t-28 19l-24 5v21h154v-21l-28 -6
q-19 -4 -26 -18t-7 -34v-343q0 -124 -65 -190t-172 -66zM449 706l-17 10l51 132q17 45 50 45q18 0 29.5 -11t11.5 -28q0 -22 -22 -44zM292 706l-16 10l50 132q17 45 51 45q17 0 29 -11t12 -28q0 -21 -23 -44z" />
    <glyph glyph-name="Umacron" unicode="&#x16a;" horiz-adv-x="656" 
d="M337 -17q-75 0 -132.5 27t-90 85.5t-32.5 154.5v108v113t-1 115q0 39 -37 49l-22 5v21h270v-21l-28 -6q-38 -9 -38 -50q-1 -56 -1 -112.5v-113.5v-127q0 -97 39.5 -140t112.5 -43q77 0 120.5 46.5t43.5 138.5v348q0 20 -8 35t-28 19l-24 5v21h154v-21l-28 -6
q-19 -4 -26 -18t-7 -34v-343q0 -124 -65 -190t-172 -66zM235 760v41h314v-41h-314z" />
    <glyph glyph-name="Uogonek" unicode="&#x172;" horiz-adv-x="656" 
d="M337 -17q-75 0 -132.5 27t-90 85.5t-32.5 154.5v108v113t-1 115q0 39 -37 49l-22 5v21h270v-21l-28 -6q-38 -9 -38 -50q-1 -56 -1 -112.5v-113.5v-127q0 -97 39.5 -140t112.5 -43q77 0 120.5 46.5t43.5 138.5v348q0 20 -8 35t-28 19l-24 5v21h154v-21l-28 -6
q-19 -4 -26 -18t-7 -34v-343q0 -124 -65 -190t-172 -66zM412 -223q-46 0 -74.5 24.5t-28.5 65.5q0 32 18.5 60t47.5 50t61 34h22q-66 -42 -66 -105q0 -32 21 -51t53 -19q17 0 32 5t27 12l9 -19q-22 -24 -53.5 -40.5t-68.5 -16.5z" />
    <glyph glyph-name="Uring" unicode="&#x16e;" horiz-adv-x="656" 
d="M337 -17q-75 0 -132.5 27t-90 85.5t-32.5 154.5v108v113t-1 115q0 39 -37 49l-22 5v21h270v-21l-28 -6q-38 -9 -38 -50q-1 -56 -1 -112.5v-113.5v-127q0 -97 39.5 -140t112.5 -43q77 0 120.5 46.5t43.5 138.5v348q0 20 -8 35t-28 19l-24 5v21h154v-21l-28 -6
q-19 -4 -26 -18t-7 -34v-343q0 -124 -65 -190t-172 -66zM392 708q-40 0 -70.5 25.5t-30.5 71.5q0 44 30.5 70.5t70.5 26.5q41 0 71 -25.5t30 -71.5t-30 -71.5t-71 -25.5zM392 738q29 0 46 19.5t17 47.5q0 27 -17 46.5t-46 19.5t-46 -19.5t-17 -46.5q0 -28 17 -47.5t46 -19.5
z" />
    <glyph glyph-name="V" unicode="V" horiz-adv-x="633" 
d="M288 -4l-214 590q-13 37 -51 48l-22 6v21h277v-20l-28 -7q-23 -6 -25.5 -21t5.5 -38l144 -427l145 427q8 23 7.5 38t-23.5 21l-24 7v20h149v-21l-25 -6q-21 -5 -29.5 -17t-15.5 -33l-199 -588h-71z" />
    <glyph glyph-name="W" unicode="W" horiz-adv-x="921" 
d="M238 -4l-173 589q-7 22 -16 33t-30 18l-12 4v21h258v-21l-21 -7q-23 -7 -29.5 -20t-0.5 -36l109 -410l119 355l-18 58q-7 21 -14 32.5t-23 18.5l-22 9v21h245v-21l-28 -9q-20 -7 -23 -20t4 -35l126 -415l116 409q7 23 4 40t-26 24l-20 6v21h148v-21l-25 -8
q-20 -7 -28.5 -20.5t-14.5 -35.5l-164 -580h-69l-148 466l-155 -466h-69z" />
    <glyph glyph-name="X" unicode="X" horiz-adv-x="619" 
d="M14 0v21l18 5q22 6 34.5 17.5t25.5 31.5l150 231l-166 281q-12 20 -21 30t-29 17l-17 6v21h263v-21l-20 -5q-21 -6 -23 -21t10 -36l99 -166l104 165q13 21 14.5 37.5t-21.5 21.5l-17 4v21h148v-21l-23 -6q-21 -5 -32.5 -16.5t-23.5 -31.5l-132 -204l181 -307
q11 -20 23.5 -30.5t31.5 -17.5l20 -6v-21h-274v21l20 4q22 5 25.5 21t-9.5 38l-114 191l-122 -192q-13 -22 -11.5 -38t21.5 -21l12 -3v-21h-145z" />
    <glyph glyph-name="Y" unicode="Y" horiz-adv-x="589" 
d="M167 0v21l29 7q20 5 28 17t9 32v181l-161 329q-10 20 -19 30t-26 16l-18 7v21h265v-21l-18 -6q-22 -7 -24 -22.5t9 -39.5l114 -252l123 259q9 18 8 35t-21 22l-14 4v21h131v-21l-20 -6q-20 -6 -28.5 -18t-17.5 -32l-139 -289v-218q0 -41 36 -49l30 -7v-21h-276z" />
    <glyph glyph-name="Yacute" unicode="&#xdd;" horiz-adv-x="589" 
d="M167 0v21l29 7q20 5 28 17t9 32v181l-161 329q-10 20 -19 30t-26 16l-18 7v21h265v-21l-18 -6q-22 -7 -24 -22.5t9 -39.5l114 -252l123 259q9 18 8 35t-21 22l-14 4v21h131v-21l-20 -6q-20 -6 -28.5 -18t-17.5 -32l-139 -289v-218q0 -41 36 -49l30 -7v-21h-276zM258 729
q26 26 52 53t51 52q24 26 39.5 34.5t30.5 8.5q19 0 31 -12t12 -29q0 -16 -13.5 -30.5t-45.5 -29.5q-37 -16 -71.5 -32t-71.5 -32z" />
    <glyph glyph-name="Ydieresis" unicode="&#x178;" horiz-adv-x="589" 
d="M167 0v21l29 7q20 5 28 17t9 32v181l-161 329q-10 20 -19 30t-26 16l-18 7v21h265v-21l-18 -6q-22 -7 -24 -22.5t9 -39.5l114 -252l123 259q9 18 8 35t-21 22l-14 4v21h131v-21l-20 -6q-20 -6 -28.5 -18t-17.5 -32l-139 -289v-218q0 -41 36 -49l30 -7v-21h-276zM215 723
q-27 0 -48 17.5t-21 47.5q0 29 21 46.5t48 17.5q28 0 47.5 -17.5t19.5 -46.5q0 -30 -19.5 -47.5t-47.5 -17.5zM455 723q-27 0 -47.5 17.5t-20.5 47.5q0 29 20.5 46.5t47.5 17.5q28 0 48 -17.5t20 -46.5q0 -30 -20 -47.5t-48 -17.5z" />
    <glyph glyph-name="Z" unicode="Z" horiz-adv-x="559" 
d="M20 0v20l349 611h-186q-31 0 -50 -15t-33 -42l-42 -79h-27l7 166h487v-20l-349 -611h213q31 0 49 15.5t32 43.5l41 77h27l-7 -166h-511z" />
    <glyph glyph-name="Zacute" unicode="&#x179;" horiz-adv-x="559" 
d="M20 0v20l349 611h-186q-31 0 -50 -15t-33 -42l-42 -79h-27l7 166h487v-20l-349 -611h213q31 0 49 15.5t32 43.5l41 77h27l-7 -166h-511zM214 729q26 26 52 53t51 52q24 26 39.5 34.5t30.5 8.5q19 0 31 -12t12 -29q0 -16 -13.5 -30.5t-45.5 -29.5q-37 -16 -71.5 -32
t-71.5 -32z" />
    <glyph glyph-name="Zcaron" unicode="&#x17d;" horiz-adv-x="559" 
d="M20 0v20l349 611h-186q-31 0 -50 -15t-33 -42l-42 -79h-27l7 166h487v-20l-349 -611h213q31 0 49 15.5t32 43.5l41 77h27l-7 -166h-511zM274 718l-140 148l16 16l141 -83l141 83l16 -16l-140 -148h-34z" />
    <glyph glyph-name="Zdotaccent" unicode="&#x17b;" horiz-adv-x="559" 
d="M20 0v20l349 611h-186q-31 0 -50 -15t-33 -42l-42 -79h-27l7 166h487v-20l-349 -611h213q31 0 49 15.5t32 43.5l41 77h27l-7 -166h-511zM291 718q-33 0 -56 21t-23 54q0 32 23 53t56 21t56 -21t23 -53q0 -33 -23 -54t-56 -21z" />
    <glyph glyph-name="a" unicode="a" horiz-adv-x="514" 
d="M166 -14q-57 0 -96.5 32.5t-39.5 93.5q0 48 46.5 88.5t146.5 59.5q17 4 39.5 7.5t44.5 7.5v71q0 68 -17 94t-54 26h-3q-23 0 -36.5 -14.5t-17.5 -47.5l-3 -13q-3 -40 -21 -58.5t-45 -18.5q-25 0 -41.5 15.5t-16.5 40.5q0 41 28 69t74.5 42t100.5 14q89 0 136 -43t47 -140
v-223q0 -43 41 -43h23l10 -11q-18 -23 -40 -35.5t-60 -12.5q-43 0 -68.5 20.5t-33.5 54.5q-32 -34 -63 -55t-81 -21zM224 50q20 0 38 9t45 30v160q-26 -4 -53 -10q-43 -10 -69.5 -37t-26.5 -73q0 -40 18.5 -59.5t47.5 -19.5z" />
    <glyph glyph-name="aacute" unicode="&#xe1;" horiz-adv-x="514" 
d="M166 -14q-57 0 -96.5 32.5t-39.5 93.5q0 48 46.5 88.5t146.5 59.5q17 4 39.5 7.5t44.5 7.5v71q0 68 -17 94t-54 26h-3q-23 0 -36.5 -14.5t-17.5 -47.5l-3 -13q-3 -40 -21 -58.5t-45 -18.5q-25 0 -41.5 15.5t-16.5 40.5q0 41 28 69t74.5 42t100.5 14q89 0 136 -43t47 -140
v-223q0 -43 41 -43h23l10 -11q-18 -23 -40 -35.5t-60 -12.5q-43 0 -68.5 20.5t-33.5 54.5q-32 -34 -63 -55t-81 -21zM224 50q20 0 38 9t45 30v160q-26 -4 -53 -10q-43 -10 -69.5 -37t-26.5 -73q0 -40 18.5 -59.5t47.5 -19.5zM191 575q16 28 34.5 59.5t43.5 77.5
q17 31 33 44.5t36 13.5q18 0 32.5 -12t14.5 -32q0 -19 -13 -35t-42 -37q-40 -31 -69 -53t-52 -41z" />
    <glyph glyph-name="abreve" unicode="&#x103;" horiz-adv-x="514" 
d="M166 -14q-57 0 -96.5 32.5t-39.5 93.5q0 48 46.5 88.5t146.5 59.5q17 4 39.5 7.5t44.5 7.5v71q0 68 -17 94t-54 26h-3q-23 0 -36.5 -14.5t-17.5 -47.5l-3 -13q-3 -40 -21 -58.5t-45 -18.5q-25 0 -41.5 15.5t-16.5 40.5q0 41 28 69t74.5 42t100.5 14q89 0 136 -43t47 -140
v-223q0 -43 41 -43h23l10 -11q-18 -23 -40 -35.5t-60 -12.5q-43 0 -68.5 20.5t-33.5 54.5q-32 -34 -63 -55t-81 -21zM224 50q20 0 38 9t45 30v160q-26 -4 -53 -10q-43 -10 -69.5 -37t-26.5 -73q0 -40 18.5 -59.5t47.5 -19.5zM252 569q-51 0 -83.5 23.5t-49 59.5t-19.5 71
l25 9q17 -36 47.5 -61t79.5 -25q50 0 80.5 25.5t46.5 60.5l25 -9q-3 -35 -19.5 -71t-48.5 -59.5t-84 -23.5z" />
    <glyph glyph-name="acircumflex" unicode="&#xe2;" horiz-adv-x="514" 
d="M166 -14q-57 0 -96.5 32.5t-39.5 93.5q0 48 46.5 88.5t146.5 59.5q17 4 39.5 7.5t44.5 7.5v71q0 68 -17 94t-54 26h-3q-23 0 -36.5 -14.5t-17.5 -47.5l-3 -13q-3 -40 -21 -58.5t-45 -18.5q-25 0 -41.5 15.5t-16.5 40.5q0 41 28 69t74.5 42t100.5 14q89 0 136 -43t47 -140
v-223q0 -43 41 -43h23l10 -11q-18 -23 -40 -35.5t-60 -12.5q-43 0 -68.5 20.5t-33.5 54.5q-32 -34 -63 -55t-81 -21zM224 50q20 0 38 9t45 30v160q-26 -4 -53 -10q-43 -10 -69.5 -37t-26.5 -73q0 -40 18.5 -59.5t47.5 -19.5zM118 545l-18 17l139 188h26l140 -188l-19 -17
l-134 107z" />
    <glyph glyph-name="adieresis" unicode="&#xe4;" horiz-adv-x="514" 
d="M166 -14q-57 0 -96.5 32.5t-39.5 93.5q0 48 46.5 88.5t146.5 59.5q17 4 39.5 7.5t44.5 7.5v71q0 68 -17 94t-54 26h-3q-23 0 -36.5 -14.5t-17.5 -47.5l-3 -13q-3 -40 -21 -58.5t-45 -18.5q-25 0 -41.5 15.5t-16.5 40.5q0 41 28 69t74.5 42t100.5 14q89 0 136 -43t47 -140
v-223q0 -43 41 -43h23l10 -11q-18 -23 -40 -35.5t-60 -12.5q-43 0 -68.5 20.5t-33.5 54.5q-32 -34 -63 -55t-81 -21zM224 50q20 0 38 9t45 30v160q-26 -4 -53 -10q-43 -10 -69.5 -37t-26.5 -73q0 -40 18.5 -59.5t47.5 -19.5zM367 582q-28 0 -49.5 18.5t-21.5 49.5
q0 30 21.5 48.5t49.5 18.5q29 0 50 -18.5t21 -48.5q0 -31 -21 -49.5t-50 -18.5zM137 582q-28 0 -49.5 18.5t-21.5 49.5q0 30 21.5 48.5t49.5 18.5q29 0 50 -18.5t21 -48.5q0 -31 -21 -49.5t-50 -18.5z" />
    <glyph glyph-name="agrave" unicode="&#xe0;" horiz-adv-x="514" 
d="M166 -14q-57 0 -96.5 32.5t-39.5 93.5q0 48 46.5 88.5t146.5 59.5q17 4 39.5 7.5t44.5 7.5v71q0 68 -17 94t-54 26h-3q-23 0 -36.5 -14.5t-17.5 -47.5l-3 -13q-3 -40 -21 -58.5t-45 -18.5q-25 0 -41.5 15.5t-16.5 40.5q0 41 28 69t74.5 42t100.5 14q89 0 136 -43t47 -140
v-223q0 -43 41 -43h23l10 -11q-18 -23 -40 -35.5t-60 -12.5q-43 0 -68.5 20.5t-33.5 54.5q-32 -34 -63 -55t-81 -21zM224 50q20 0 38 9t45 30v160q-26 -4 -53 -10q-43 -10 -69.5 -37t-26.5 -73q0 -40 18.5 -59.5t47.5 -19.5zM287 560q-23 19 -51 41t-69 53q-29 21 -42 37
t-13 35q0 20 14 32t33 12q20 0 35.5 -13.5t32.5 -44.5q26 -46 44.5 -77.5t33.5 -59.5z" />
    <glyph glyph-name="amacron" unicode="&#x101;" horiz-adv-x="514" 
d="M166 -14q-57 0 -96.5 32.5t-39.5 93.5q0 48 46.5 88.5t146.5 59.5q17 4 39.5 7.5t44.5 7.5v71q0 68 -17 94t-54 26h-3q-23 0 -36.5 -14.5t-17.5 -47.5l-3 -13q-3 -40 -21 -58.5t-45 -18.5q-25 0 -41.5 15.5t-16.5 40.5q0 41 28 69t74.5 42t100.5 14q89 0 136 -43t47 -140
v-223q0 -43 41 -43h23l10 -11q-18 -23 -40 -35.5t-60 -12.5q-43 0 -68.5 20.5t-33.5 54.5q-32 -34 -63 -55t-81 -21zM224 50q20 0 38 9t45 30v160q-26 -4 -53 -10q-43 -10 -69.5 -37t-26.5 -73q0 -40 18.5 -59.5t47.5 -19.5zM102 609v39h300v-39h-300z" />
    <glyph glyph-name="aogonek" unicode="&#x105;" horiz-adv-x="514" 
d="M166 -14q-57 0 -96.5 32.5t-39.5 93.5q0 48 46.5 88.5t146.5 59.5q17 4 39.5 7.5t44.5 7.5v71q0 68 -17 94t-54 26h-3q-23 0 -36.5 -14.5t-17.5 -47.5l-3 -13q-3 -40 -21 -58.5t-45 -18.5q-25 0 -41.5 15.5t-16.5 40.5q0 41 28 69t74.5 42t100.5 14q89 0 136 -43t47 -140
v-223q0 -43 41 -43h23l10 -11q-18 -23 -40 -35.5t-60 -12.5q-43 0 -68.5 20.5t-33.5 54.5q-32 -34 -63 -55t-81 -21zM224 50q20 0 38 9t45 30v160q-26 -4 -53 -10q-43 -10 -69.5 -37t-26.5 -73q0 -40 18.5 -59.5t47.5 -19.5zM448 -219q-46 0 -74.5 24.5t-28.5 65.5
q0 32 18.5 60t47.5 50t61 34h22q-66 -42 -66 -105q0 -32 21 -51t53 -19q17 0 32 5t27 12l9 -19q-22 -24 -53.5 -40.5t-68.5 -16.5z" />
    <glyph glyph-name="aring" unicode="&#xe5;" horiz-adv-x="514" 
d="M166 -14q-57 0 -96.5 32.5t-39.5 93.5q0 48 46.5 88.5t146.5 59.5q17 4 39.5 7.5t44.5 7.5v71q0 68 -17 94t-54 26h-3q-23 0 -36.5 -14.5t-17.5 -47.5l-3 -13q-3 -40 -21 -58.5t-45 -18.5q-25 0 -41.5 15.5t-16.5 40.5q0 41 28 69t74.5 42t100.5 14q89 0 136 -43t47 -140
v-223q0 -43 41 -43h23l10 -11q-18 -23 -40 -35.5t-60 -12.5q-43 0 -68.5 20.5t-33.5 54.5q-32 -34 -63 -55t-81 -21zM224 50q20 0 38 9t45 30v160q-26 -4 -53 -10q-43 -10 -69.5 -37t-26.5 -73q0 -40 18.5 -59.5t47.5 -19.5zM252 552q-46 0 -80.5 29t-34.5 81
q0 51 34.5 80.5t80.5 29.5q47 0 81 -28.5t34 -81.5q0 -52 -34 -81t-81 -29zM252 582q58 0 58 80t-58 80t-58 -80t58 -80z" />
    <glyph glyph-name="atilde" unicode="&#xe3;" horiz-adv-x="514" 
d="M166 -14q-57 0 -96.5 32.5t-39.5 93.5q0 48 46.5 88.5t146.5 59.5q17 4 39.5 7.5t44.5 7.5v71q0 68 -17 94t-54 26h-3q-23 0 -36.5 -14.5t-17.5 -47.5l-3 -13q-3 -40 -21 -58.5t-45 -18.5q-25 0 -41.5 15.5t-16.5 40.5q0 41 28 69t74.5 42t100.5 14q89 0 136 -43t47 -140
v-223q0 -43 41 -43h23l10 -11q-18 -23 -40 -35.5t-60 -12.5q-43 0 -68.5 20.5t-33.5 54.5q-32 -34 -63 -55t-81 -21zM224 50q20 0 38 9t45 30v160q-26 -4 -53 -10q-43 -10 -69.5 -37t-26.5 -73q0 -40 18.5 -59.5t47.5 -19.5zM84 586q8 64 34.5 100t67.5 36q26 0 42.5 -9
t30.5 -21l32 -28t35 -14q26 0 44 18.5t29 49.5l21 -8q-8 -64 -34 -100t-66 -36q-25 0 -43.5 9t-32.5 21q-15 14 -30.5 27.5t-35.5 13.5q-25 0 -43.5 -18t-29.5 -49z" />
    <glyph glyph-name="ae" unicode="&#xe6;" horiz-adv-x="781" 
d="M166 -14q-58 0 -97 32.5t-39 94.5q0 47 44.5 87t147.5 63q17 4 39.5 8.5t44.5 8.5v62q0 72 -18 98t-52 26h-3q-25 -1 -37.5 -14.5t-15.5 -39.5l-4 -22q-3 -40 -21 -58t-45 -18q-25 0 -41.5 15.5t-16.5 40.5q0 41 28 69t74.5 42t100.5 14q50 0 85 -14t56 -46q32 30 71 45
t81 15q63 0 108.5 -26t70 -71t24.5 -104q0 -27 -6 -47h-300q2 -100 41.5 -147t111.5 -47q46 0 76.5 16.5t56.5 46.5l16 -14q-31 -55 -82 -85.5t-122 -30.5q-66 0 -117 25.5t-82 74.5q-50 -52 -89.5 -76t-88.5 -24zM445 275h178q11 86 -8.5 139t-71.5 53q-25 0 -46.5 -16.5
t-35 -58.5t-16.5 -117zM225 50q22 0 46 11t61 48q-27 54 -27 129v15q-13 -2 -25 -5t-26 -6q-45 -14 -70.5 -41t-25.5 -71q0 -41 19.5 -60.5t47.5 -19.5z" />
    <glyph glyph-name="b" unicode="b" horiz-adv-x="576" 
d="M187 -13l-164 13v19l10 2q39 9 39 50v520q0 20 -7.5 31t-27.5 16l-13 3v18l171 43l13 -9l-4 -141v-105q71 48 153 48q84 0 139 -61.5t55 -189.5q0 -85 -28 -142.5t-75 -86.5t-104 -29q-38 0 -75.5 10t-66.5 31zM297 30q33 0 58 19t39 65t14 126t-13 125t-37.5 63
t-58.5 18q-45 0 -92 -26v-365q41 -25 90 -25z" />
    <glyph glyph-name="c" unicode="c" horiz-adv-x="491" 
d="M266 -14q-68 0 -123 29.5t-86.5 86t-31.5 137.5t35 138t93.5 87.5t128.5 30.5q57 0 97 -19t61 -48.5t21 -62.5q0 -28 -16.5 -43t-42.5 -15q-28 0 -45.5 20t-20.5 51q-1 20 0.5 34t-0.5 27q-4 17 -13.5 23t-26.5 6q-63 0 -96.5 -50.5t-33.5 -163.5q0 -97 37 -149t115 -52
q46 0 76 17.5t55 50.5l16 -12q-25 -60 -76.5 -91.5t-122.5 -31.5z" />
    <glyph glyph-name="cacute" unicode="&#x107;" horiz-adv-x="491" 
d="M266 -14q-68 0 -123 29.5t-86.5 86t-31.5 137.5t35 138t93.5 87.5t128.5 30.5q57 0 97 -19t61 -48.5t21 -62.5q0 -28 -16.5 -43t-42.5 -15q-28 0 -45.5 20t-20.5 51q-1 20 0.5 34t-0.5 27q-4 17 -13.5 23t-26.5 6q-63 0 -96.5 -50.5t-33.5 -163.5q0 -97 37 -149t115 -52
q46 0 76 17.5t55 50.5l16 -12q-25 -60 -76.5 -91.5t-122.5 -31.5zM214 575q16 28 34.5 59.5t43.5 77.5q17 31 33 44.5t36 13.5q18 0 32.5 -12t14.5 -32q0 -19 -13 -35t-42 -37q-40 -31 -69 -53t-52 -41z" />
    <glyph glyph-name="ccaron" unicode="&#x10d;" horiz-adv-x="491" 
d="M266 -14q-68 0 -123 29.5t-86.5 86t-31.5 137.5t35 138t93.5 87.5t128.5 30.5q57 0 97 -19t61 -48.5t21 -62.5q0 -28 -16.5 -43t-42.5 -15q-28 0 -45.5 20t-20.5 51q-1 20 0.5 34t-0.5 27q-4 17 -13.5 23t-26.5 6q-63 0 -96.5 -50.5t-33.5 -163.5q0 -97 37 -149t115 -52
q46 0 76 17.5t55 50.5l16 -12q-25 -60 -76.5 -91.5t-122.5 -31.5zM254 567l-127 171l19 17l129 -101l129 101l19 -17l-127 -171h-42z" />
    <glyph glyph-name="ccedilla" unicode="&#xe7;" horiz-adv-x="491" 
d="M266 -14q-68 0 -123 29.5t-86.5 86t-31.5 137.5t35 138t93.5 87.5t128.5 30.5q57 0 97 -19t61 -48.5t21 -62.5q0 -28 -16.5 -43t-42.5 -15q-28 0 -45.5 20t-20.5 51q-1 20 0.5 34t-0.5 27q-4 17 -13.5 23t-26.5 6q-63 0 -96.5 -50.5t-33.5 -163.5q0 -97 37 -149t115 -52
q46 0 76 17.5t55 50.5l16 -12q-25 -60 -76.5 -91.5t-122.5 -31.5zM245 -86l13 87h28l-6 -51q111 -13 111 -86q0 -37 -32 -61t-95 -24q-23 0 -41 3.5t-32 8.5l5 23q14 -4 26.5 -6t25.5 -2q28 0 43 15t15 41q0 44 -61 52z" />
    <glyph glyph-name="d" unicode="d" horiz-adv-x="569" 
d="M231 -14q-59 0 -106 26.5t-73.5 82t-26.5 141.5t30 143.5t80 86.5t110 29q36 0 69 -8.5t58 -25.5v130q0 21 -6.5 30.5t-26.5 14.5l-20 4v19l174 43l13 -9l-4 -141v-481q0 -19 7 -31.5t25 -17.5l11 -3v-19l-166 -11l-9 42q-27 -21 -62 -33t-77 -12zM286 32q43 0 81 28v372
q-37 23 -80 23q-49 0 -84 -51.5t-35 -165.5t33 -160t85 -46z" />
    <glyph glyph-name="eth" unicode="&#xf0;" horiz-adv-x="551" 
d="M266 -14q-57 0 -110.5 28t-87.5 84t-34 139q0 78 34 132.5t87.5 82.5t113.5 28q51 0 89 -28q-24 87 -69 144l-155 -75l-14 29l147 71q-24 26 -56 49t-72 45l13 26q98 -34 173 -92l148 72l15 -29l-135 -65q75 -65 118 -153t43 -195q0 -98 -33 -163t-89 -97.5t-126 -32.5z
M276 14q53 0 77 57.5t24 169.5q0 104 -26.5 157.5t-74.5 53.5q-97 0 -97 -220q0 -106 24.5 -162t72.5 -56z" />
    <glyph glyph-name="dcaron" unicode="&#x10f;" horiz-adv-x="607" 
d="M570 512l-9 14q27 22 44.5 46t25.5 58l-14 2q-25 5 -39 20.5t-14 36.5q0 25 15.5 41t40.5 16q28 0 44 -18.5t15 -51.5q-1 -54 -30 -94t-79 -70zM231 -14q-59 0 -106 26.5t-73.5 82t-26.5 141.5t30 143.5t80 86.5t110 29q36 0 69 -8.5t58 -25.5v130q0 21 -6.5 30.5
t-26.5 14.5l-20 4v19l174 43l13 -9l-4 -141v-481q0 -19 7 -31.5t25 -17.5l11 -3v-19l-166 -11l-9 42q-27 -21 -62 -33t-77 -12zM286 32q43 0 81 28v372q-37 23 -80 23q-49 0 -84 -51.5t-35 -165.5t33 -160t85 -46z" />
    <glyph glyph-name="dcroat" unicode="&#x111;" horiz-adv-x="569" 
d="M231 -14q-59 0 -106 26.5t-73.5 82t-26.5 141.5t30 143.5t80 86.5t110 29q36 0 69 -8.5t58 -25.5v89h-166v30h166v11q0 21 -6.5 30.5t-26.5 14.5l-20 4v19l174 43l13 -9l-3 -113h69v-30h-70v-479q0 -19 7 -31.5t25 -17.5l11 -3v-19l-166 -11l-9 42q-27 -21 -62 -33
t-77 -12zM286 32q43 0 81 28v372q-37 23 -80 23q-49 0 -84 -51.5t-35 -165.5t33 -160t85 -46z" />
    <glyph glyph-name="e" unicode="e" horiz-adv-x="503" 
d="M271 495q63 0 108 -26t69.5 -71.5t24.5 -104.5q0 -13 -1 -24.5t-4 -21.5h-301q1 -103 38.5 -148t109.5 -45q50 0 81 16.5t57 46.5l16 -15q-30 -55 -81.5 -85.5t-122.5 -30.5t-125 30t-84.5 86.5t-30.5 135.5q0 82 35.5 139t92 87.5t118.5 30.5zM266 466
q-29 0 -50.5 -16.5t-34 -58t-14.5 -116.5h179q11 101 -8 146t-72 45z" />
    <glyph glyph-name="eacute" unicode="&#xe9;" horiz-adv-x="503" 
d="M271 495q63 0 108 -26t69.5 -71.5t24.5 -104.5q0 -13 -1 -24.5t-4 -21.5h-301q1 -103 38.5 -148t109.5 -45q50 0 81 16.5t57 46.5l16 -15q-30 -55 -81.5 -85.5t-122.5 -30.5t-125 30t-84.5 86.5t-30.5 135.5q0 82 35.5 139t92 87.5t118.5 30.5zM266 466
q-29 0 -50.5 -16.5t-34 -58t-14.5 -116.5h179q11 101 -8 146t-72 45zM210 575q16 28 34.5 59.5t43.5 77.5q17 31 33 44.5t36 13.5q18 0 32.5 -12t14.5 -32q0 -19 -13 -35t-42 -37q-40 -31 -69 -53t-52 -41z" />
    <glyph glyph-name="ecaron" unicode="&#x11b;" horiz-adv-x="503" 
d="M271 495q63 0 108 -26t69.5 -71.5t24.5 -104.5q0 -13 -1 -24.5t-4 -21.5h-301q1 -103 38.5 -148t109.5 -45q50 0 81 16.5t57 46.5l16 -15q-30 -55 -81.5 -85.5t-122.5 -30.5t-125 30t-84.5 86.5t-30.5 135.5q0 82 35.5 139t92 87.5t118.5 30.5zM266 466
q-29 0 -50.5 -16.5t-34 -58t-14.5 -116.5h179q11 101 -8 146t-72 45zM250 567l-127 171l19 17l129 -101l129 101l19 -17l-127 -171h-42z" />
    <glyph glyph-name="ecircumflex" unicode="&#xea;" horiz-adv-x="503" 
d="M271 495q63 0 108 -26t69.5 -71.5t24.5 -104.5q0 -13 -1 -24.5t-4 -21.5h-301q1 -103 38.5 -148t109.5 -45q50 0 81 16.5t57 46.5l16 -15q-30 -55 -81.5 -85.5t-122.5 -30.5t-125 30t-84.5 86.5t-30.5 135.5q0 82 35.5 139t92 87.5t118.5 30.5zM266 466
q-29 0 -50.5 -16.5t-34 -58t-14.5 -116.5h179q11 101 -8 146t-72 45zM137 545l-18 17l139 188h26l140 -188l-19 -17l-134 107z" />
    <glyph glyph-name="edieresis" unicode="&#xeb;" horiz-adv-x="503" 
d="M271 495q63 0 108 -26t69.5 -71.5t24.5 -104.5q0 -13 -1 -24.5t-4 -21.5h-301q1 -103 38.5 -148t109.5 -45q50 0 81 16.5t57 46.5l16 -15q-30 -55 -81.5 -85.5t-122.5 -30.5t-125 30t-84.5 86.5t-30.5 135.5q0 82 35.5 139t92 87.5t118.5 30.5zM266 466
q-29 0 -50.5 -16.5t-34 -58t-14.5 -116.5h179q11 101 -8 146t-72 45zM386 582q-28 0 -49.5 18.5t-21.5 49.5q0 30 21.5 48.5t49.5 18.5q29 0 50 -18.5t21 -48.5q0 -31 -21 -49.5t-50 -18.5zM156 582q-28 0 -49.5 18.5t-21.5 49.5q0 30 21.5 48.5t49.5 18.5q29 0 50 -18.5
t21 -48.5q0 -31 -21 -49.5t-50 -18.5z" />
    <glyph glyph-name="edotaccent" unicode="&#x117;" horiz-adv-x="503" 
d="M271 495q63 0 108 -26t69.5 -71.5t24.5 -104.5q0 -13 -1 -24.5t-4 -21.5h-301q1 -103 38.5 -148t109.5 -45q50 0 81 16.5t57 46.5l16 -15q-30 -55 -81.5 -85.5t-122.5 -30.5t-125 30t-84.5 86.5t-30.5 135.5q0 82 35.5 139t92 87.5t118.5 30.5zM266 466
q-29 0 -50.5 -16.5t-34 -58t-14.5 -116.5h179q11 101 -8 146t-72 45zM271 576q-33 0 -56 21t-23 54q0 32 23 53t56 21t56 -21t23 -53q0 -33 -23 -54t-56 -21z" />
    <glyph glyph-name="egrave" unicode="&#xe8;" horiz-adv-x="503" 
d="M271 495q63 0 108 -26t69.5 -71.5t24.5 -104.5q0 -13 -1 -24.5t-4 -21.5h-301q1 -103 38.5 -148t109.5 -45q50 0 81 16.5t57 46.5l16 -15q-30 -55 -81.5 -85.5t-122.5 -30.5t-125 30t-84.5 86.5t-30.5 135.5q0 82 35.5 139t92 87.5t118.5 30.5zM266 466
q-29 0 -50.5 -16.5t-34 -58t-14.5 -116.5h179q11 101 -8 146t-72 45zM306 560q-23 19 -51 41t-69 53q-29 21 -42 37t-13 35q0 20 14 32t33 12q20 0 35.5 -13.5t32.5 -44.5q26 -46 44.5 -77.5t33.5 -59.5z" />
    <glyph glyph-name="emacron" unicode="&#x113;" horiz-adv-x="503" 
d="M271 495q63 0 108 -26t69.5 -71.5t24.5 -104.5q0 -13 -1 -24.5t-4 -21.5h-301q1 -103 38.5 -148t109.5 -45q50 0 81 16.5t57 46.5l16 -15q-30 -55 -81.5 -85.5t-122.5 -30.5t-125 30t-84.5 86.5t-30.5 135.5q0 82 35.5 139t92 87.5t118.5 30.5zM266 466
q-29 0 -50.5 -16.5t-34 -58t-14.5 -116.5h179q11 101 -8 146t-72 45zM121 609v39h300v-39h-300z" />
    <glyph glyph-name="eogonek" unicode="&#x119;" horiz-adv-x="503" 
d="M271 495q63 0 108 -26t69.5 -71.5t24.5 -104.5q0 -13 -1 -24.5t-4 -21.5h-301q1 -103 38.5 -148t109.5 -45q50 0 81 16.5t57 46.5l16 -15q-30 -55 -81.5 -85.5t-122.5 -30.5t-125 30t-84.5 86.5t-30.5 135.5q0 82 35.5 139t92 87.5t118.5 30.5zM266 466
q-29 0 -50.5 -16.5t-34 -58t-14.5 -116.5h179q11 101 -8 146t-72 45zM331 -223q-46 0 -74.5 24.5t-28.5 65.5q0 32 18.5 60t47.5 50t61 34h22q-66 -42 -66 -105q0 -32 21 -51t53 -19q17 0 32 5t27 12l9 -19q-22 -24 -53.5 -40.5t-68.5 -16.5z" />
    <glyph glyph-name="f" unicode="f" horiz-adv-x="341" 
d="M22 0v19l15 4q40 11 41 49q0 35 0.5 69.5t0.5 68.5v239h-57v22l22 4q20 3 29 14.5t13 32.5q11 40 29.5 69.5t44.5 54.5q37 36 79 50t82 14q39 0 71.5 -15.5t32.5 -52.5q0 -26 -15.5 -41.5t-44.5 -15.5q-46 0 -81 54l-12 14q-12 15 -24 12t-17 -20q-8 -32 -12.5 -75
t-5.5 -90h115v-31h-115v-239q0 -34 0.5 -67.5t0.5 -67.5q0 -40 40 -49l26 -7v-19h-258z" />
    <glyph glyph-name="g" unicode="g" horiz-adv-x="527" 
d="M237 171q-66 0 -113 22v-36q0 -30 30 -36l178 -33q51 -10 90 -24.5t61 -41t22 -71.5q0 -48 -31.5 -89.5t-93 -67t-153.5 -25.5q-79 0 -125.5 16.5t-66.5 42.5t-20 56q0 36 24.5 72t63.5 60q-61 23 -61 73q0 19 9 35t22 32l36 45q-72 42 -72 131q0 73 51.5 118t148.5 45
t150 -45q32 5 60 16t52 30l14 -10v-56h-108q32 -40 32 -98q0 -71 -51.5 -116t-148.5 -45zM235 198q42 0 61.5 32.5t19.5 104.5q0 71 -19 102t-59 31t-59.5 -31.5t-19.5 -103.5t18 -103.5t58 -31.5zM93 -87q0 -55 35 -82.5t111 -27.5q84 0 124.5 27.5t40.5 72.5
q0 28 -20.5 44t-68.5 25l-179 35l-8 2q-15 -20 -25 -46t-10 -50z" />
    <glyph glyph-name="gbreve" unicode="&#x11f;" horiz-adv-x="527" 
d="M237 171q-66 0 -113 22v-36q0 -30 30 -36l178 -33q51 -10 90 -24.5t61 -41t22 -71.5q0 -48 -31.5 -89.5t-93 -67t-153.5 -25.5q-79 0 -125.5 16.5t-66.5 42.5t-20 56q0 36 24.5 72t63.5 60q-61 23 -61 73q0 19 9 35t22 32l36 45q-72 42 -72 131q0 73 51.5 118t148.5 45
t150 -45q32 5 60 16t52 30l14 -10v-56h-108q32 -40 32 -98q0 -71 -51.5 -116t-148.5 -45zM235 198q42 0 61.5 32.5t19.5 104.5q0 71 -19 102t-59 31t-59.5 -31.5t-19.5 -103.5t18 -103.5t58 -31.5zM93 -87q0 -55 35 -82.5t111 -27.5q84 0 124.5 27.5t40.5 72.5
q0 28 -20.5 44t-68.5 25l-179 35l-8 2q-15 -20 -25 -46t-10 -50zM253 569q-51 0 -83.5 23.5t-49 59.5t-19.5 71l25 9q17 -36 47.5 -61t79.5 -25q50 0 80.5 25.5t46.5 60.5l25 -9q-3 -35 -19.5 -71t-48.5 -59.5t-84 -23.5z" />
    <glyph glyph-name="uni0123" unicode="&#x123;" horiz-adv-x="527" 
d="M252 569q-32 0 -50 19t-18 49q0 36 20 63.5t53 47t71 31.5l8 -21q-28 -12 -47.5 -25t-33.5 -34q29 -7 46 -27t17 -44q0 -25 -19.5 -42t-46.5 -17zM237 171q-66 0 -113 22v-36q0 -30 30 -36l178 -33q51 -10 90 -24.5t61 -41t22 -71.5q0 -48 -31.5 -89.5t-93 -67
t-153.5 -25.5q-79 0 -125.5 16.5t-66.5 42.5t-20 56q0 36 24.5 72t63.5 60q-61 23 -61 73q0 19 9 35t22 32l36 45q-72 42 -72 131q0 73 51.5 118t148.5 45t150 -45q32 5 60 16t52 30l14 -10v-56h-108q32 -40 32 -98q0 -71 -51.5 -116t-148.5 -45zM235 198q42 0 61.5 32.5
t19.5 104.5q0 71 -19 102t-59 31t-59.5 -31.5t-19.5 -103.5t18 -103.5t58 -31.5zM93 -87q0 -55 35 -82.5t111 -27.5q84 0 124.5 27.5t40.5 72.5q0 28 -20.5 44t-68.5 25l-179 35l-8 2q-15 -20 -25 -46t-10 -50z" />
    <glyph glyph-name="h" unicode="h" horiz-adv-x="575" 
d="M23 0v20l13 4q36 11 36 50v515q0 21 -7 31.5t-27 15.5l-15 4v19l169 43l16 -9l-4 -141v-128q35 29 76.5 50t89.5 21q66 0 103.5 -37t37.5 -114v-271q0 -20 8 -32t28 -18l9 -3v-20h-228v20l12 4q36 10 36 50v289q0 41 -14 57t-49 16q-24 0 -50.5 -9t-55.5 -30v-325
q0 -20 8 -32t27 -17l9 -3v-20h-228z" />
    <glyph glyph-name="i" unicode="i" horiz-adv-x="274" 
d="M137 550q-33 0 -56 21t-23 53q0 33 23 53.5t56 20.5t56 -20.5t23 -53.5q0 -32 -23 -53t-56 -21zM22 0v19l15 4q20 6 27 18t8 32v184v57.5t-1 54.5q0 20 -7.5 31.5t-27.5 15.5l-14 3v18l175 58l12 -11l-3 -142v-270q0 -20 7.5 -32t26.5 -18l11 -3v-19h-229z" />
    <glyph glyph-name="dotlessi" unicode="&#x131;" horiz-adv-x="274" 
d="M22 0v19l15 4q20 6 27 18t7 32q0 34 0.5 71.5t0.5 65.5v47q0 31 -0.5 57.5t-0.5 54.5q-1 20 -8 31.5t-27 15.5l-14 3v18l175 58l12 -11l-3 -142v-270q1 -20 8 -32t26 -18l11 -3v-19h-229z" />
    <glyph glyph-name="iacute" unicode="&#xed;" horiz-adv-x="274" 
d="M22 0v19l15 4q20 6 27 18t7 32q0 34 0.5 71.5t0.5 65.5v47q0 31 -0.5 57.5t-0.5 54.5q-1 20 -8 31.5t-27 15.5l-14 3v18l175 58l12 -11l-3 -142v-270q1 -20 8 -32t26 -18l11 -3v-19h-229zM73 575q16 28 34.5 59.5t43.5 77.5q17 31 33 44.5t36 13.5q18 0 32.5 -12
t14.5 -32q0 -19 -13 -35t-42 -37q-40 -31 -69 -53t-52 -41z" />
    <glyph glyph-name="icircumflex" unicode="&#xee;" horiz-adv-x="274" 
d="M22 0v19l15 4q20 6 27 18t7 32q0 34 0.5 71.5t0.5 65.5v47q0 31 -0.5 57.5t-0.5 54.5q-1 20 -8 31.5t-27 15.5l-14 3v18l175 58l12 -11l-3 -142v-270q1 -20 8 -32t26 -18l11 -3v-19h-229zM0 545l-18 17l139 188h26l140 -188l-19 -17l-134 107z" />
    <glyph glyph-name="idieresis" unicode="&#xef;" horiz-adv-x="274" 
d="M22 0v19l15 4q20 6 27 18t7 32q0 34 0.5 71.5t0.5 65.5v47q0 31 -0.5 57.5t-0.5 54.5q-1 20 -8 31.5t-27 15.5l-14 3v18l175 58l12 -11l-3 -142v-270q1 -20 8 -32t26 -18l11 -3v-19h-229zM249 582q-28 0 -49.5 18.5t-21.5 49.5q0 30 21.5 48.5t49.5 18.5q29 0 50 -18.5
t21 -48.5q0 -31 -21 -49.5t-50 -18.5zM19 582q-28 0 -49.5 18.5t-21.5 49.5q0 30 21.5 48.5t49.5 18.5q29 0 50 -18.5t21 -48.5q0 -31 -21 -49.5t-50 -18.5z" />
    <glyph glyph-name="igrave" unicode="&#xec;" horiz-adv-x="274" 
d="M22 0v19l15 4q20 6 27 18t7 32q0 34 0.5 71.5t0.5 65.5v47q0 31 -0.5 57.5t-0.5 54.5q-1 20 -8 31.5t-27 15.5l-14 3v18l175 58l12 -11l-3 -142v-270q1 -20 8 -32t26 -18l11 -3v-19h-229zM169 560q-23 19 -51 41t-69 53q-29 21 -42 37t-13 35q0 20 14 32t33 12
q20 0 35.5 -13.5t32.5 -44.5q26 -46 44.5 -77.5t33.5 -59.5z" />
    <glyph glyph-name="imacron" unicode="&#x12b;" horiz-adv-x="274" 
d="M22 0v19l15 4q20 6 27 18t7 32q0 34 0.5 71.5t0.5 65.5v47q0 31 -0.5 57.5t-0.5 54.5q-1 20 -8 31.5t-27 15.5l-14 3v18l175 58l12 -11l-3 -142v-270q1 -20 8 -32t26 -18l11 -3v-19h-229zM-16 609v39h300v-39h-300z" />
    <glyph glyph-name="iogonek" unicode="&#x12f;" horiz-adv-x="274" 
d="M137 550q-33 0 -56 21t-23 53q0 33 23 53.5t56 20.5t56 -20.5t23 -53.5q0 -32 -23 -53t-56 -21zM22 0v19l15 4q20 6 27 18t8 32v184v57.5t-1 54.5q0 20 -7.5 31.5t-27.5 15.5l-14 3v18l175 58l12 -11l-3 -142v-270q0 -20 7.5 -32t26.5 -18l11 -3v-19h-229zM158 -223
q-46 0 -74.5 24.5t-28.5 65.5q0 32 18.5 60t47.5 50t61 34h22q-66 -42 -66 -105q0 -32 21 -51t53 -19q17 0 32 5t27 12l9 -19q-22 -24 -53.5 -40.5t-68.5 -16.5z" />
    <glyph glyph-name="j" unicode="j" horiz-adv-x="275" 
d="M145 550q-33 0 -56 21t-23 53q0 33 23 53.5t56 20.5t56 -20.5t23 -53.5q0 -32 -23 -53t-56 -21zM-4 -241q-55 0 -78.5 19t-23.5 49q0 27 19 43.5t45 16.5t47.5 -13t34.5 -39l8 -16q8 -13 17 -8.5t10 29.5q2 49 3 101t1 130v298q-1 41 -41 47l-15 3v18l178 58l14 -11
l-3 -142v-273q0 -67 -5.5 -112t-19 -76.5t-38.5 -57.5q-34 -34 -73 -49t-80 -15z" />
    <glyph glyph-name="k" unicode="k" horiz-adv-x="572" 
d="M23 0v19l15 5q34 10 34 49v518q0 20 -8 30.5t-28 15.5l-13 4v19l175 42l13 -9l-4 -141v-479q0 -40 34 -50l14 -4v-19h-232zM389 0l-181 250l177 164q13 11 15 24.5t-17 18.5l-16 4v19h156v-19l-29 -7q-22 -6 -36 -16.5t-33 -27.5l-110 -103l170 -233q16 -21 29 -32.5
t35 -19.5l10 -3v-19h-170z" />
    <glyph glyph-name="uni0137" unicode="&#x137;" horiz-adv-x="572" 
d="M23 0v19l15 5q34 10 34 49v518q0 20 -8 30.5t-28 15.5l-13 4v19l175 42l13 -9l-4 -141v-479q0 -40 34 -50l14 -4v-19h-232zM389 0l-181 250l177 164q13 11 15 24.5t-17 18.5l-16 4v19h156v-19l-29 -7q-22 -6 -36 -16.5t-33 -27.5l-110 -103l170 -233q16 -21 29 -32.5
t35 -19.5l10 -3v-19h-170zM229 -263l-7 18q32 13 52.5 27t32.5 37q-31 3 -49.5 21t-18.5 45t19 45t47 18q33 0 50.5 -19.5t17.5 -51.5q0 -34 -20 -61.5t-52.5 -47t-71.5 -31.5z" />
    <glyph glyph-name="l" unicode="l" horiz-adv-x="280" 
d="M23 0v19l15 4q33 11 33 50q0 34 0.5 68.5t0.5 68.5v380q0 21 -7 31.5t-27 15.5l-15 4v19l175 42l13 -9l-4 -141v-479q1 -20 8.5 -32.5t26.5 -17.5l14 -4v-19h-233z" />
    <glyph glyph-name="lacute" unicode="&#x13a;" horiz-adv-x="280" 
d="M23 0v19l15 4q33 11 33 50q0 34 0.5 68.5t0.5 68.5v380q0 21 -7 31.5t-27 15.5l-15 4v19l175 42l13 -9l-4 -141v-479q1 -20 8.5 -32.5t26.5 -17.5l14 -4v-19h-233zM35 770q26 26 52 53t51 52q24 26 39.5 34.5t30.5 8.5q19 0 31 -12t12 -29q0 -16 -13.5 -30.5t-45.5 -29.5
q-37 -16 -71.5 -32t-71.5 -32z" />
    <glyph glyph-name="lcaron" unicode="&#x13e;" horiz-adv-x="327" 
d="M270 512l-13 20q25 19 44 42.5t29 55.5l-13 2q-25 5 -39 20.5t-14 36.5q0 25 15.5 41t40.5 16q28 0 44 -18.5t15 -51.5q-1 -54 -30 -94t-79 -70zM23 0v19l15 4q33 11 33 50q0 34 0.5 68.5t0.5 68.5v380q0 21 -7 31.5t-27 15.5l-15 4v19l175 42l13 -9l-4 -141v-479
q1 -20 8.5 -32.5t26.5 -17.5l14 -4v-19h-233z" />
    <glyph glyph-name="uni013C" unicode="&#x13c;" horiz-adv-x="280" 
d="M23 0v19l15 4q33 11 33 50q0 34 0.5 68.5t0.5 68.5v380q0 21 -7 31.5t-27 15.5l-15 4v19l175 42l13 -9l-4 -141v-479q1 -20 8.5 -32.5t26.5 -17.5l14 -4v-19h-233zM70 -263l-7 18q32 13 52.5 27t32.5 37q-31 3 -49.5 21t-18.5 45t19 45t47 18q33 0 50.5 -19.5t17.5 -51.5
q0 -34 -20 -61.5t-52.5 -47t-71.5 -31.5z" />
    <glyph glyph-name="ldot" unicode="&#x140;" horiz-adv-x="370" 
d="M23 0v19l15 4q33 11 33 50q0 34 0.5 68.5t0.5 68.5v380q0 21 -7 31.5t-27 15.5l-15 4v19l175 42l13 -9l-4 -141v-479q1 -20 8.5 -32.5t26.5 -17.5l14 -4v-19h-233zM343 280q-35 0 -59.5 24t-24.5 58q0 35 24.5 60t59.5 25t59.5 -25t24.5 -60q0 -34 -24.5 -58t-59.5 -24z
" />
    <glyph glyph-name="lslash" unicode="&#x142;" horiz-adv-x="280" 
d="M23 0v19l15 4q33 11 33 50q0 34 0.5 68.5t0.5 68.5v100l-70 -38v42l70 39v237q0 21 -7 31.5t-27 15.5l-15 4v19l175 42l13 -9l-4 -141v-133l72 39v-42l-72 -40v-303q1 -20 8.5 -32.5t26.5 -17.5l14 -4v-19h-233z" />
    <glyph glyph-name="m" unicode="m" horiz-adv-x="867" 
d="M21 0v20l22 6q16 5 21 14.5t6 25.5v198v56t-1 54q0 17 -5 26.5t-22 13.5l-21 5v18l162 58l12 -11l7 -67q35 32 78 55t88 23q50 0 78 -20t43 -61q38 38 84 59.5t91 21.5q68 0 102 -34t34 -107v-289q0 -32 28 -40l19 -5v-20h-225v20l18 5q27 9 27 41v293q0 43 -15.5 58.5
t-50.5 15.5q-27 0 -51 -11t-53 -34q6 -30 6 -69v-254q1 -17 6.5 -26.5t21.5 -13.5l17 -5v-20h-226v20l21 6q16 5 21.5 14.5t5.5 25.5v292q0 41 -15 58t-51 17q-46 0 -99 -44v-324q0 -33 28 -40l17 -5v-20h-229z" />
    <glyph glyph-name="n" unicode="n" horiz-adv-x="574" 
d="M21 0v19l16 4q33 10 33 49v295q-1 21 -7 32.5t-26 15.5l-16 4v18l162 58l12 -11l7 -62q36 32 80.5 52.5t87.5 20.5q66 0 101.5 -36t35.5 -110v-278q0 -39 36 -49l11 -3v-19h-230v19l15 4q33 11 33 49v297q0 35 -15 51t-50 16q-49 0 -102 -43v-322q0 -39 35 -49l10 -3v-19
h-229z" />
    <glyph glyph-name="nacute" unicode="&#x144;" horiz-adv-x="574" 
d="M21 0v19l16 4q33 10 33 49v295q-1 21 -7 32.5t-26 15.5l-16 4v18l162 58l12 -11l7 -62q36 32 80.5 52.5t87.5 20.5q66 0 101.5 -36t35.5 -110v-278q0 -39 36 -49l11 -3v-19h-230v19l15 4q33 11 33 49v297q0 35 -15 51t-50 16q-49 0 -102 -43v-322q0 -39 35 -49l10 -3v-19
h-229zM233 575q16 28 34.5 59.5t43.5 77.5q17 31 33 44.5t36 13.5q18 0 32.5 -12t14.5 -32q0 -19 -13 -35t-42 -37q-40 -31 -69 -53t-52 -41z" />
    <glyph glyph-name="ncaron" unicode="&#x148;" horiz-adv-x="574" 
d="M21 0v19l16 4q33 10 33 49v295q-1 21 -7 32.5t-26 15.5l-16 4v18l162 58l12 -11l7 -62q36 32 80.5 52.5t87.5 20.5q66 0 101.5 -36t35.5 -110v-278q0 -39 36 -49l11 -3v-19h-230v19l15 4q33 11 33 49v297q0 35 -15 51t-50 16q-49 0 -102 -43v-322q0 -39 35 -49l10 -3v-19
h-229zM273 567l-127 171l19 17l129 -101l129 101l19 -17l-127 -171h-42z" />
    <glyph glyph-name="uni0146" unicode="&#x146;" horiz-adv-x="574" 
d="M21 0v19l16 4q33 10 33 49v295q-1 21 -7 32.5t-26 15.5l-16 4v18l162 58l12 -11l7 -62q36 32 80.5 52.5t87.5 20.5q66 0 101.5 -36t35.5 -110v-278q0 -39 36 -49l11 -3v-19h-230v19l15 4q33 11 33 49v297q0 35 -15 51t-50 16q-49 0 -102 -43v-322q0 -39 35 -49l10 -3v-19
h-229zM218 -263l-7 18q32 13 52.5 27t32.5 37q-31 3 -49.5 21t-18.5 45t19 45t47 18q33 0 50.5 -19.5t17.5 -51.5q0 -34 -20 -61.5t-52.5 -47t-71.5 -31.5z" />
    <glyph glyph-name="ntilde" unicode="&#xf1;" horiz-adv-x="574" 
d="M21 0v19l16 4q33 10 33 49v295q-1 21 -7 32.5t-26 15.5l-16 4v18l162 58l12 -11l7 -62q36 32 80.5 52.5t87.5 20.5q66 0 101.5 -36t35.5 -110v-278q0 -39 36 -49l11 -3v-19h-230v19l15 4q33 11 33 49v297q0 35 -15 51t-50 16q-49 0 -102 -43v-322q0 -39 35 -49l10 -3v-19
h-229zM126 586q8 64 34.5 100t67.5 36q26 0 42.5 -9t30.5 -21l32 -28t35 -14q26 0 44 18.5t29 49.5l21 -8q-8 -64 -34 -100t-66 -36q-25 0 -43.5 9t-32.5 21q-15 14 -30.5 27.5t-35.5 13.5q-25 0 -43.5 -18t-29.5 -49z" />
    <glyph glyph-name="o" unicode="o" horiz-adv-x="542" 
d="M271 -14q-74 0 -129.5 31t-86 88t-30.5 136t32.5 136t88 87.5t125.5 30.5t125.5 -30.5t88 -87t32.5 -136.5q0 -79 -30.5 -136.5t-85.5 -88t-130 -30.5zM271 14q36 0 58.5 19.5t32.5 68.5t10 137q0 89 -10 138.5t-32.5 69t-58.5 19.5t-58 -19.5t-32.5 -69t-10.5 -138.5
q0 -88 10.5 -137t32.5 -68.5t58 -19.5z" />
    <glyph glyph-name="oacute" unicode="&#xf3;" horiz-adv-x="542" 
d="M271 -14q-74 0 -129.5 31t-86 88t-30.5 136t32.5 136t88 87.5t125.5 30.5t125.5 -30.5t88 -87t32.5 -136.5q0 -79 -30.5 -136.5t-85.5 -88t-130 -30.5zM271 14q36 0 58.5 19.5t32.5 68.5t10 137q0 89 -10 138.5t-32.5 69t-58.5 19.5t-58 -19.5t-32.5 -69t-10.5 -138.5
q0 -88 10.5 -137t32.5 -68.5t58 -19.5zM210 575q16 28 34.5 59.5t43.5 77.5q17 31 33 44.5t36 13.5q18 0 32.5 -12t14.5 -32q0 -19 -13 -35t-42 -37q-40 -31 -69 -53t-52 -41z" />
    <glyph glyph-name="ocircumflex" unicode="&#xf4;" horiz-adv-x="542" 
d="M271 -14q-74 0 -129.5 31t-86 88t-30.5 136t32.5 136t88 87.5t125.5 30.5t125.5 -30.5t88 -87t32.5 -136.5q0 -79 -30.5 -136.5t-85.5 -88t-130 -30.5zM271 14q36 0 58.5 19.5t32.5 68.5t10 137q0 89 -10 138.5t-32.5 69t-58.5 19.5t-58 -19.5t-32.5 -69t-10.5 -138.5
q0 -88 10.5 -137t32.5 -68.5t58 -19.5zM137 545l-18 17l139 188h26l140 -188l-19 -17l-134 107z" />
    <glyph glyph-name="odieresis" unicode="&#xf6;" horiz-adv-x="542" 
d="M271 -14q-74 0 -129.5 31t-86 88t-30.5 136t32.5 136t88 87.5t125.5 30.5t125.5 -30.5t88 -87t32.5 -136.5q0 -79 -30.5 -136.5t-85.5 -88t-130 -30.5zM271 14q36 0 58.5 19.5t32.5 68.5t10 137q0 89 -10 138.5t-32.5 69t-58.5 19.5t-58 -19.5t-32.5 -69t-10.5 -138.5
q0 -88 10.5 -137t32.5 -68.5t58 -19.5zM386 582q-28 0 -49.5 18.5t-21.5 49.5q0 30 21.5 48.5t49.5 18.5q29 0 50 -18.5t21 -48.5q0 -31 -21 -49.5t-50 -18.5zM156 582q-28 0 -49.5 18.5t-21.5 49.5q0 30 21.5 48.5t49.5 18.5q29 0 50 -18.5t21 -48.5q0 -31 -21 -49.5
t-50 -18.5z" />
    <glyph glyph-name="ograve" unicode="&#xf2;" horiz-adv-x="542" 
d="M271 -14q-74 0 -129.5 31t-86 88t-30.5 136t32.5 136t88 87.5t125.5 30.5t125.5 -30.5t88 -87t32.5 -136.5q0 -79 -30.5 -136.5t-85.5 -88t-130 -30.5zM271 14q36 0 58.5 19.5t32.5 68.5t10 137q0 89 -10 138.5t-32.5 69t-58.5 19.5t-58 -19.5t-32.5 -69t-10.5 -138.5
q0 -88 10.5 -137t32.5 -68.5t58 -19.5zM306 560q-23 19 -51 41t-69 53q-29 21 -42 37t-13 35q0 20 14 32t33 12q20 0 35.5 -13.5t32.5 -44.5q26 -46 44.5 -77.5t33.5 -59.5z" />
    <glyph glyph-name="ohungarumlaut" unicode="&#x151;" horiz-adv-x="542" 
d="M271 -14q-74 0 -129.5 31t-86 88t-30.5 136t32.5 136t88 87.5t125.5 30.5t125.5 -30.5t88 -87t32.5 -136.5q0 -79 -30.5 -136.5t-85.5 -88t-130 -30.5zM271 14q36 0 58.5 19.5t32.5 68.5t10 137q0 89 -10 138.5t-32.5 69t-58.5 19.5t-58 -19.5t-32.5 -69t-10.5 -138.5
q0 -88 10.5 -137t32.5 -68.5t58 -19.5zM333 556l-21 12l50 150q11 35 26 47t31 12q17 0 29.5 -11t12.5 -30q0 -24 -29 -59zM188 556l-21 12l48 150q11 35 26 47t32 12t29.5 -11t12.5 -30q0 -21 -30 -59z" />
    <glyph glyph-name="omacron" unicode="&#x14d;" horiz-adv-x="542" 
d="M271 -14q-74 0 -129.5 31t-86 88t-30.5 136t32.5 136t88 87.5t125.5 30.5t125.5 -30.5t88 -87t32.5 -136.5q0 -79 -30.5 -136.5t-85.5 -88t-130 -30.5zM271 14q36 0 58.5 19.5t32.5 68.5t10 137q0 89 -10 138.5t-32.5 69t-58.5 19.5t-58 -19.5t-32.5 -69t-10.5 -138.5
q0 -88 10.5 -137t32.5 -68.5t58 -19.5zM121 609v39h300v-39h-300z" />
    <glyph glyph-name="oslash" unicode="&#xf8;" horiz-adv-x="560" 
d="M89 -25l-26 21l43 54q-35 33 -53.5 81.5t-18.5 109.5q0 79 32.5 136t88 87.5t125.5 30.5q85 0 147 -44l44 55l25 -21l-43 -54q34 -33 53.5 -81t19.5 -109q0 -79 -30.5 -136.5t-85.5 -88t-130 -30.5q-87 0 -148 42zM174 239q0 -57 5 -98l194 242q-12 45 -35 64t-58 19
q-36 0 -59.5 -21t-35 -70.5t-11.5 -135.5zM280 14q37 0 60 21t34.5 70t11.5 134q0 60 -5 101l-194 -242q12 -46 35 -65t58 -19z" />
    <glyph glyph-name="otilde" unicode="&#xf5;" horiz-adv-x="542" 
d="M271 -14q-74 0 -129.5 31t-86 88t-30.5 136t32.5 136t88 87.5t125.5 30.5t125.5 -30.5t88 -87t32.5 -136.5q0 -79 -30.5 -136.5t-85.5 -88t-130 -30.5zM271 14q36 0 58.5 19.5t32.5 68.5t10 137q0 89 -10 138.5t-32.5 69t-58.5 19.5t-58 -19.5t-32.5 -69t-10.5 -138.5
q0 -88 10.5 -137t32.5 -68.5t58 -19.5zM103 586q8 64 34.5 100t67.5 36q26 0 42.5 -9t30.5 -21l32 -28t35 -14q26 0 44 18.5t29 49.5l21 -8q-8 -64 -34 -100t-66 -36q-25 0 -43.5 9t-32.5 21q-15 14 -30.5 27.5t-35.5 13.5q-25 0 -43.5 -18t-29.5 -49z" />
    <glyph glyph-name="oe" unicode="&#x153;" horiz-adv-x="853" 
d="M271 -14q-74 0 -129.5 31t-86 88t-30.5 136t32.5 136t88 87.5t125.5 30.5q110 0 178 -70q34 34 79 52t93 18q63 0 108 -26t69.5 -71.5t24.5 -104.5q0 -24 -5 -46h-301q1 -102 42 -147.5t110 -45.5q47 0 77.5 16.5t56.5 46.5l16 -15q-31 -55 -82 -85.5t-122 -30.5
q-105 0 -170 63q-66 -63 -174 -63zM271 14q35 0 57.5 21t33 70t10.5 134q0 86 -10.5 135.5t-33 70.5t-57.5 21t-57.5 -21t-33 -70.5t-10.5 -135.5q0 -85 10.5 -134t33 -70t57.5 -21zM616 466q-26 0 -47.5 -16.5t-35.5 -58t-16 -116.5h179q10 85 -9 138t-71 53z" />
    <glyph glyph-name="p" unicode="p" horiz-adv-x="572" 
d="M21 -231v19l13 4q20 5 28 16.5t8 32.5q0 41 0.5 77.5t0.5 70.5v275v53.5t-1 50.5q0 21 -7 32.5t-27 15.5l-15 3v18l161 58l12 -10l9 -37q69 47 156 47q85 0 136.5 -64t51.5 -189q0 -121 -56.5 -188.5t-153.5 -67.5q-39 0 -73.5 7t-61.5 21v-30q0 -30 0.5 -65t0.5 -76
q0 -40 35 -50l19 -5v-19h-236zM290 26q53 0 83.5 47.5t30.5 164.5q0 116 -29 162.5t-82 46.5q-19 0 -41 -6t-47 -20v-378q40 -17 85 -17z" />
    <glyph glyph-name="thorn" unicode="&#xfe;" horiz-adv-x="574" 
d="M23 -231v19l8 3q39 9 40 49q1 41 1.5 78t0.5 71v617q0 39 -38 50l-12 4v18l176 42l12 -9l-4 -141v-119q71 44 154 44q85 0 136.5 -64t51.5 -189q0 -121 -56.5 -188.5t-153.5 -67.5q-39 0 -73.5 7t-61.5 21v-30q0 -30 0.5 -65.5t1.5 -76.5q2 -40 39 -50l14 -4v-19h-236z
M292 26q53 0 83.5 47.5t30.5 164.5q0 116 -29 162.5t-82 46.5q-19 0 -41 -6t-47 -20v-378q40 -17 85 -17z" />
    <glyph glyph-name="q" unicode="q" horiz-adv-x="560" 
d="M313 -231v19l20 5q39 11 39 50v193q-29 -23 -66.5 -36.5t-83.5 -13.5q-86 0 -141.5 64t-55.5 185q0 83 28 141t77 88.5t113 30.5q43 0 80 -13t67 -36l103 49l14 -10l-3 -135v-510q0 -39 35 -49l11 -3v-19h-237zM284 34q41 0 85 31v360q-20 11 -40 17t-43 6
q-55 0 -86.5 -49t-31.5 -162q0 -110 30.5 -156.5t85.5 -46.5z" />
    <glyph glyph-name="r" unicode="r" horiz-adv-x="435" 
d="M21 0v19l15 5q20 5 27.5 17t7.5 32v293q-1 22 -8 33.5t-27 15.5l-15 4v18l163 58l12 -11l9 -88v-7q15 28 38 52t50 39t54 15q38 0 57 -20t19 -51q0 -34 -19 -51.5t-46 -17.5q-40 0 -69 36l-2 2q-10 12 -22.5 13.5t-24.5 -12.5q-10 -10 -18.5 -23.5t-15.5 -31.5v-262
q0 -19 8 -31.5t27 -17.5l30 -9v-19h-250z" />
    <glyph glyph-name="racute" unicode="&#x155;" horiz-adv-x="435" 
d="M21 0v19l15 5q20 5 27.5 17t7.5 32v293q-1 22 -8 33.5t-27 15.5l-15 4v18l163 58l12 -11l9 -88v-7q15 28 38 52t50 39t54 15q38 0 57 -20t19 -51q0 -34 -19 -51.5t-46 -17.5q-40 0 -69 36l-2 2q-10 12 -22.5 13.5t-24.5 -12.5q-10 -10 -18.5 -23.5t-15.5 -31.5v-262
q0 -19 8 -31.5t27 -17.5l30 -9v-19h-250zM175 575q16 28 34.5 59.5t43.5 77.5q17 31 33 44.5t36 13.5q18 0 32.5 -12t14.5 -32q0 -19 -13 -35t-42 -37q-40 -31 -69 -53t-52 -41z" />
    <glyph glyph-name="rcaron" unicode="&#x159;" horiz-adv-x="435" 
d="M21 0v19l15 5q20 5 27.5 17t7.5 32v293q-1 22 -8 33.5t-27 15.5l-15 4v18l163 58l12 -11l9 -88v-7q15 28 38 52t50 39t54 15q38 0 57 -20t19 -51q0 -34 -19 -51.5t-46 -17.5q-40 0 -69 36l-2 2q-10 12 -22.5 13.5t-24.5 -12.5q-10 -10 -18.5 -23.5t-15.5 -31.5v-262
q0 -19 8 -31.5t27 -17.5l30 -9v-19h-250zM215 567l-127 171l19 17l129 -101l129 101l19 -17l-127 -171h-42z" />
    <glyph glyph-name="uni0157" unicode="&#x157;" horiz-adv-x="435" 
d="M21 0v19l15 5q20 5 27.5 17t7.5 32v293q-1 22 -8 33.5t-27 15.5l-15 4v18l163 58l12 -11l9 -88v-7q15 28 38 52t50 39t54 15q38 0 57 -20t19 -51q0 -34 -19 -51.5t-46 -17.5q-40 0 -69 36l-2 2q-10 12 -22.5 13.5t-24.5 -12.5q-10 -10 -18.5 -23.5t-15.5 -31.5v-262
q0 -19 8 -31.5t27 -17.5l30 -9v-19h-250zM72 -263l-7 18q32 13 52.5 27t32.5 37q-31 3 -49.5 21t-18.5 45t19 45t47 18q33 0 50.5 -19.5t17.5 -51.5q0 -34 -20 -61.5t-52.5 -47t-71.5 -31.5z" />
    <glyph glyph-name="s" unicode="s" horiz-adv-x="435" 
d="M194 -14q-48 0 -86.5 10.5t-73.5 29.5v118h27l30 -57q19 -37 43.5 -55t62.5 -18q47 0 75 20.5t28 55.5q0 32 -21 52t-75 37l-44 14q-59 18 -93.5 54.5t-34.5 91.5q0 43 23 78.5t67 56.5t107 21q41 0 75.5 -9.5t67.5 -26.5l-6 -107h-26l-31 57q-16 32 -32.5 44.5
t-50.5 12.5q-36 0 -63.5 -18.5t-27.5 -51.5q0 -31 23 -50.5t74 -36.5l43 -13q73 -23 104 -61t31 -91q0 -71 -56.5 -114.5t-159.5 -43.5z" />
    <glyph glyph-name="sacute" unicode="&#x15b;" horiz-adv-x="435" 
d="M194 -14q-48 0 -86.5 10.5t-73.5 29.5v118h27l30 -57q19 -37 43.5 -55t62.5 -18q47 0 75 20.5t28 55.5q0 32 -21 52t-75 37l-44 14q-59 18 -93.5 54.5t-34.5 91.5q0 43 23 78.5t67 56.5t107 21q41 0 75.5 -9.5t67.5 -26.5l-6 -107h-26l-31 57q-16 32 -32.5 44.5
t-50.5 12.5q-36 0 -63.5 -18.5t-27.5 -51.5q0 -31 23 -50.5t74 -36.5l43 -13q73 -23 104 -61t31 -91q0 -71 -56.5 -114.5t-159.5 -43.5zM165 575q16 28 34.5 59.5t43.5 77.5q17 31 33 44.5t36 13.5q18 0 32.5 -12t14.5 -32q0 -19 -13 -35t-42 -37q-40 -31 -69 -53t-52 -41z
" />
    <glyph glyph-name="scaron" unicode="&#x161;" horiz-adv-x="435" 
d="M194 -14q-48 0 -86.5 10.5t-73.5 29.5v118h27l30 -57q19 -37 43.5 -55t62.5 -18q47 0 75 20.5t28 55.5q0 32 -21 52t-75 37l-44 14q-59 18 -93.5 54.5t-34.5 91.5q0 43 23 78.5t67 56.5t107 21q41 0 75.5 -9.5t67.5 -26.5l-6 -107h-26l-31 57q-16 32 -32.5 44.5
t-50.5 12.5q-36 0 -63.5 -18.5t-27.5 -51.5q0 -31 23 -50.5t74 -36.5l43 -13q73 -23 104 -61t31 -91q0 -71 -56.5 -114.5t-159.5 -43.5zM205 567l-127 171l19 17l129 -101l129 101l19 -17l-127 -171h-42z" />
    <glyph glyph-name="scedilla" unicode="&#x15f;" horiz-adv-x="435" 
d="M194 -14q-48 0 -86.5 10.5t-73.5 29.5v118h27l30 -57q19 -37 43.5 -55t62.5 -18q47 0 75 20.5t28 55.5q0 32 -21 52t-75 37l-44 14q-59 18 -93.5 54.5t-34.5 91.5q0 43 23 78.5t67 56.5t107 21q41 0 75.5 -9.5t67.5 -26.5l-6 -107h-26l-31 57q-16 32 -32.5 44.5
t-50.5 12.5q-36 0 -63.5 -18.5t-27.5 -51.5q0 -31 23 -50.5t74 -36.5l43 -13q73 -23 104 -61t31 -91q0 -71 -56.5 -114.5t-159.5 -43.5zM184 -86l13 87h28l-6 -51q111 -13 111 -86q0 -37 -32 -61t-95 -24q-23 0 -41 3.5t-32 8.5l5 23q14 -4 26.5 -6t25.5 -2q28 0 43 15
t15 41q0 44 -61 52z" />
    <glyph glyph-name="uni0219" unicode="&#x219;" horiz-adv-x="436" 
d="M194 -14q-48 0 -86.5 10.5t-73.5 29.5v118h27l30 -57q19 -37 43.5 -55t62.5 -18q47 0 75 20.5t28 55.5q0 32 -21 52t-75 37l-44 14q-59 18 -93.5 54.5t-34.5 91.5q0 43 23 78.5t67 56.5t107 21q41 0 75.5 -9.5t67.5 -26.5l-6 -107h-26l-31 57q-16 32 -32.5 44.5
t-50.5 12.5q-36 0 -63.5 -18.5t-27.5 -51.5q0 -31 23 -50.5t74 -36.5l43 -13q73 -23 104 -61t31 -91q0 -71 -56.5 -114.5t-159.5 -43.5zM148 -263l-7 18q32 13 52.5 27t32.5 37q-31 3 -49.5 21t-18.5 45t19 45t47 18q33 0 50.5 -19.5t17.5 -51.5q0 -34 -20 -61.5t-52.5 -47
t-71.5 -31.5z" />
    <glyph glyph-name="germandbls" unicode="&#xdf;" horiz-adv-x="630" 
d="M404 -14q-37 0 -71 6.5t-69 22.5v124h27l19 -56q8 -24 19 -39.5t33 -22.5q10 -3 20.5 -5t20.5 -2q38 0 64 22.5t26 62.5q0 33 -20.5 53.5t-72.5 44.5q-53 23 -84 52t-31 76q0 41 26 65.5t63 55.5q35 31 50 61.5t15 65.5q0 50 -26.5 79.5t-79.5 29.5q-82 0 -110 -84
q-10 -31 -13.5 -76t-3.5 -119v-198q0 -103 3 -205h-183v19l6 2q37 11 38 49q0 29 0.5 68t0.5 67v218q0 70 18.5 116t43.5 75q35 45 90 70.5t120 25.5q95 0 148.5 -38t53.5 -93q0 -40 -26 -70t-73 -58q-43 -23 -60 -38.5t-17 -32.5q0 -20 25 -35.5t86 -41.5q66 -31 93.5 -68
t27.5 -92q0 -46 -25 -81.5t-69.5 -55.5t-102.5 -20z" />
    <glyph glyph-name="t" unicode="t" horiz-adv-x="358" 
d="M209 -14q-62 0 -97.5 30.5t-35.5 99.5q0 24 0.5 45.5t0.5 50.5v237h-71v22l27 4q29 5 49.5 18t37.5 36l65 90h30l-3 -139h114v-31h-115v-341q0 -36 15.5 -54t38.5 -18q20 0 36 9.5t32 25.5l13 -15q-19 -33 -53 -51.5t-84 -18.5z" />
    <glyph glyph-name="tcaron" unicode="&#x165;" horiz-adv-x="347" 
d="M281 526l-6 15q26 16 43.5 37t27.5 51l-14 3q-25 5 -39 20.5t-14 36.5q0 25 15.5 41t40.5 15q28 1 43.5 -17.5t15.5 -51.5q-1 -49 -30 -88t-83 -62zM209 -14q-62 0 -97.5 30.5t-35.5 99.5q0 24 0.5 45.5t0.5 50.5v237h-71v22l27 4q29 5 49.5 18t37.5 36l65 90h30l-3 -139
h114v-31h-115v-341q0 -36 15.5 -54t38.5 -18q20 0 36 9.5t32 25.5l13 -15q-19 -33 -53 -51.5t-84 -18.5z" />
    <glyph glyph-name="uni0163" unicode="&#x163;" horiz-adv-x="354" 
d="M209 -14q-62 0 -97.5 30.5t-35.5 99.5q0 24 0.5 45.5t0.5 50.5v237h-71v22l27 4q29 5 49.5 18t37.5 36l65 90h30l-3 -139h114v-31h-115v-341q0 -36 15.5 -54t38.5 -18q20 0 36 9.5t32 25.5l13 -15q-19 -33 -53 -51.5t-84 -18.5zM171 -88l13 87h28l-6 -51q111 -13 111 -86
q0 -37 -32 -61t-95 -24q-23 0 -41 3.5t-32 8.5l5 23q14 -4 26.5 -6t25.5 -2q28 0 43 15t15 41q0 44 -61 52z" />
    <glyph glyph-name="uni021B" unicode="&#x21b;" horiz-adv-x="358" 
d="M209 -14q-62 0 -97.5 30.5t-35.5 99.5q0 24 0.5 45.5t0.5 50.5v237h-71v22l27 4q29 5 49.5 18t37.5 36l65 90h30l-3 -139h114v-31h-115v-341q0 -36 15.5 -54t38.5 -18q20 0 36 9.5t32 25.5l13 -15q-19 -33 -53 -51.5t-84 -18.5zM129 -263l-7 18q32 13 52.5 27t32.5 37
q-31 3 -49.5 21t-18.5 45t19 45t47 18q33 0 50.5 -19.5t17.5 -51.5q0 -34 -20 -61.5t-52.5 -47t-71.5 -31.5z" />
    <glyph glyph-name="u" unicode="u" horiz-adv-x="562" 
d="M200 -14q-39 0 -71 14.5t-50.5 48t-17.5 88.5l3 251q0 22 -7 32t-25 14l-12 4v18l171 33l11 -11l-5 -141v-227q0 -34 18.5 -49.5t46.5 -15.5q29 0 52.5 8.5t48.5 25.5l3 308q0 23 -6.5 32t-24.5 14l-11 3v18l167 35l11 -11l-3 -141v-262q0 -21 5.5 -33.5t24.5 -18.5
l13 -4v-19l-169 -10l-9 63q-34 -29 -74 -48t-90 -19z" />
    <glyph glyph-name="uacute" unicode="&#xfa;" horiz-adv-x="562" 
d="M200 -14q-39 0 -71 14.5t-50.5 48t-17.5 88.5l3 251q0 22 -7 32t-25 14l-12 4v18l171 33l11 -11l-5 -141v-227q0 -34 18.5 -49.5t46.5 -15.5q29 0 52.5 8.5t48.5 25.5l3 308q0 23 -6.5 32t-24.5 14l-11 3v18l167 35l11 -11l-3 -141v-262q0 -21 5.5 -33.5t24.5 -18.5
l13 -4v-19l-169 -10l-9 63q-34 -29 -74 -48t-90 -19zM218 575q16 28 34.5 59.5t43.5 77.5q17 31 33 44.5t36 13.5q18 0 32.5 -12t14.5 -32q0 -19 -13 -35t-42 -37q-40 -31 -69 -53t-52 -41z" />
    <glyph glyph-name="ucircumflex" unicode="&#xfb;" horiz-adv-x="562" 
d="M200 -14q-39 0 -71 14.5t-50.5 48t-17.5 88.5l3 251q0 22 -7 32t-25 14l-12 4v18l171 33l11 -11l-5 -141v-227q0 -34 18.5 -49.5t46.5 -15.5q29 0 52.5 8.5t48.5 25.5l3 308q0 23 -6.5 32t-24.5 14l-11 3v18l167 35l11 -11l-3 -141v-262q0 -21 5.5 -33.5t24.5 -18.5
l13 -4v-19l-169 -10l-9 63q-34 -29 -74 -48t-90 -19zM145 545l-18 17l139 188h26l140 -188l-19 -17l-134 107z" />
    <glyph glyph-name="udieresis" unicode="&#xfc;" horiz-adv-x="562" 
d="M200 -14q-39 0 -71 14.5t-50.5 48t-17.5 88.5l3 251q0 22 -7 32t-25 14l-12 4v18l171 33l11 -11l-5 -141v-227q0 -34 18.5 -49.5t46.5 -15.5q29 0 52.5 8.5t48.5 25.5l3 308q0 23 -6.5 32t-24.5 14l-11 3v18l167 35l11 -11l-3 -141v-262q0 -21 5.5 -33.5t24.5 -18.5
l13 -4v-19l-169 -10l-9 63q-34 -29 -74 -48t-90 -19zM394 582q-28 0 -49.5 18.5t-21.5 49.5q0 30 21.5 48.5t49.5 18.5q29 0 50 -18.5t21 -48.5q0 -31 -21 -49.5t-50 -18.5zM164 582q-28 0 -49.5 18.5t-21.5 49.5q0 30 21.5 48.5t49.5 18.5q29 0 50 -18.5t21 -48.5
q0 -31 -21 -49.5t-50 -18.5z" />
    <glyph glyph-name="ugrave" unicode="&#xf9;" horiz-adv-x="562" 
d="M200 -14q-39 0 -71 14.5t-50.5 48t-17.5 88.5l3 251q0 22 -7 32t-25 14l-12 4v18l171 33l11 -11l-5 -141v-227q0 -34 18.5 -49.5t46.5 -15.5q29 0 52.5 8.5t48.5 25.5l3 308q0 23 -6.5 32t-24.5 14l-11 3v18l167 35l11 -11l-3 -141v-262q0 -21 5.5 -33.5t24.5 -18.5
l13 -4v-19l-169 -10l-9 63q-34 -29 -74 -48t-90 -19zM314 560q-23 19 -51 41t-69 53q-29 21 -42 37t-13 35q0 20 14 32t33 12q20 0 35.5 -13.5t32.5 -44.5q26 -46 44.5 -77.5t33.5 -59.5z" />
    <glyph glyph-name="uhungarumlaut" unicode="&#x171;" horiz-adv-x="562" 
d="M200 -14q-39 0 -71 14.5t-50.5 48t-17.5 88.5l3 251q0 22 -7 32t-25 14l-12 4v18l171 33l11 -11l-5 -141v-227q0 -34 18.5 -49.5t46.5 -15.5q29 0 52.5 8.5t48.5 25.5l3 308q0 23 -6.5 32t-24.5 14l-11 3v18l167 35l11 -11l-3 -141v-262q0 -21 5.5 -33.5t24.5 -18.5
l13 -4v-19l-169 -10l-9 63q-34 -29 -74 -48t-90 -19zM341 556l-21 12l50 150q11 35 26 47t31 12q17 0 29.5 -11t12.5 -30q0 -24 -29 -59zM196 556l-21 12l48 150q11 35 26 47t32 12t29.5 -11t12.5 -30q0 -21 -30 -59z" />
    <glyph glyph-name="umacron" unicode="&#x16b;" horiz-adv-x="562" 
d="M200 -14q-39 0 -71 14.5t-50.5 48t-17.5 88.5l3 251q0 22 -7 32t-25 14l-12 4v18l171 33l11 -11l-5 -141v-227q0 -34 18.5 -49.5t46.5 -15.5q29 0 52.5 8.5t48.5 25.5l3 308q0 23 -6.5 32t-24.5 14l-11 3v18l167 35l11 -11l-3 -141v-262q0 -21 5.5 -33.5t24.5 -18.5
l13 -4v-19l-169 -10l-9 63q-34 -29 -74 -48t-90 -19zM129 609v39h300v-39h-300z" />
    <glyph glyph-name="uogonek" unicode="&#x173;" horiz-adv-x="562" 
d="M200 -14q-39 0 -71 14.5t-50.5 48t-17.5 88.5l3 251q0 22 -7 32t-25 14l-12 4v18l171 33l11 -11l-5 -141v-227q0 -34 18.5 -49.5t46.5 -15.5q29 0 52.5 8.5t48.5 25.5l3 308q0 23 -6.5 32t-24.5 14l-11 3v18l167 35l11 -11l-3 -141v-262q0 -21 5.5 -33.5t24.5 -18.5
l13 -4v-19l-169 -10l-9 63q-34 -29 -74 -48t-90 -19zM468 -223q-46 0 -74.5 24.5t-28.5 65.5q0 32 18.5 60t47.5 50t61 34h22q-66 -42 -66 -105q0 -32 21 -51t53 -19q17 0 32 5t27 12l9 -19q-22 -24 -53.5 -40.5t-68.5 -16.5z" />
    <glyph glyph-name="uring" unicode="&#x16f;" horiz-adv-x="562" 
d="M200 -14q-39 0 -71 14.5t-50.5 48t-17.5 88.5l3 251q0 22 -7 32t-25 14l-12 4v18l171 33l11 -11l-5 -141v-227q0 -34 18.5 -49.5t46.5 -15.5q29 0 52.5 8.5t48.5 25.5l3 308q0 23 -6.5 32t-24.5 14l-11 3v18l167 35l11 -11l-3 -141v-262q0 -21 5.5 -33.5t24.5 -18.5
l13 -4v-19l-169 -10l-9 63q-34 -29 -74 -48t-90 -19zM279 552q-46 0 -80.5 29t-34.5 81q0 51 34.5 80.5t80.5 29.5q47 0 81 -28.5t34 -81.5q0 -52 -34 -81t-81 -29zM279 582q58 0 58 80t-58 80t-58 -80t58 -80z" />
    <glyph glyph-name="v" unicode="v" horiz-adv-x="528" 
d="M242 -3l-176 423q-11 28 -39 36l-21 5v19h253v-19l-26 -6q-32 -8 -19 -41l105 -279l98 277q5 17 2.5 27.5t-19.5 14.5l-29 7v19h152v-19l-33 -8q-29 -7 -39 -36l-151 -420h-58z" />
    <glyph glyph-name="w" unicode="w" horiz-adv-x="780" 
d="M225 -3l-153 416q-6 18 -16.5 27.5t-27.5 15.5l-17 5v19h239v-19l-16 -4q-38 -10 -25 -48l91 -272l84 223l-15 45q-7 21 -14.5 33t-21.5 17l-17 6v19h206v-19l-14 -5q-16 -6 -19.5 -16.5t3.5 -30.5l89 -266l90 265q12 39 -18 47l-20 6v19h134v-19l-22 -6q-17 -5 -26 -15
t-15 -28l-144 -415h-52l-109 319l-118 -319h-56z" />
    <glyph glyph-name="x" unicode="x" horiz-adv-x="559" 
d="M13 0v19l27 6q22 5 35.5 14t26.5 27l109 152l-129 204q-10 15 -19.5 23t-26.5 12l-17 4v19h250v-19l-15 -4q-18 -4 -21.5 -15.5t6.5 -27.5l77 -117l82 114q11 16 10.5 28t-19.5 16l-22 6v19h154v-19l-24 -5q-21 -5 -33 -14.5t-25 -27.5l-107 -141l131 -204q23 -34 64 -45
l20 -5v-19h-269v19l15 3q18 5 22.5 17t-6.5 27l-81 126l-88 -125q-11 -16 -7 -28t21 -16l18 -4v-19h-159z" />
    <glyph glyph-name="y" unicode="y" horiz-adv-x="536" 
d="M109 -241q-40 0 -63 19t-23 50q0 28 19.5 44.5t43.5 16.5q25 0 41 -9t28 -26l6 -8q23 -28 43 1q13 17 25.5 42t27.5 66l-190 454q-7 19 -16 29.5t-27 17.5l-17 6v18h247v-18l-21 -6q-22 -7 -23.5 -21.5t6.5 -37.5l102 -266l98 268q8 22 6 37t-25 20l-22 6v18h149v-18
l-22 -7q-22 -6 -31.5 -17.5t-17.5 -33.5l-160 -430q-40 -110 -81.5 -162.5t-102.5 -52.5z" />
    <glyph glyph-name="yacute" unicode="&#xfd;" horiz-adv-x="536" 
d="M109 -241q-40 0 -63 19t-23 50q0 28 19.5 44.5t43.5 16.5q25 0 41 -9t28 -26l6 -8q23 -28 43 1q13 17 25.5 42t27.5 66l-190 454q-7 19 -16 29.5t-27 17.5l-17 6v18h247v-18l-21 -6q-22 -7 -23.5 -21.5t6.5 -37.5l102 -266l98 268q8 22 6 37t-25 20l-22 6v18h149v-18
l-22 -7q-22 -6 -31.5 -17.5t-17.5 -33.5l-160 -430q-40 -110 -81.5 -162.5t-102.5 -52.5zM233 575q16 28 34.5 59.5t43.5 77.5q17 31 33 44.5t36 13.5q18 0 32.5 -12t14.5 -32q0 -19 -13 -35t-42 -37q-40 -31 -69 -53t-52 -41z" />
    <glyph glyph-name="ydieresis" unicode="&#xff;" horiz-adv-x="536" 
d="M109 -241q-40 0 -63 19t-23 50q0 28 19.5 44.5t43.5 16.5q25 0 41 -9t28 -26l6 -8q23 -28 43 1q13 17 25.5 42t27.5 66l-190 454q-7 19 -16 29.5t-27 17.5l-17 6v18h247v-18l-21 -6q-22 -7 -23.5 -21.5t6.5 -37.5l102 -266l98 268q8 22 6 37t-25 20l-22 6v18h149v-18
l-22 -7q-22 -6 -31.5 -17.5t-17.5 -33.5l-160 -430q-40 -110 -81.5 -162.5t-102.5 -52.5zM409 582q-28 0 -49.5 18.5t-21.5 49.5q0 30 21.5 48.5t49.5 18.5q29 0 50 -18.5t21 -48.5q0 -31 -21 -49.5t-50 -18.5zM179 582q-28 0 -49.5 18.5t-21.5 49.5q0 30 21.5 48.5
t49.5 18.5q29 0 50 -18.5t21 -48.5q0 -31 -21 -49.5t-50 -18.5z" />
    <glyph glyph-name="z" unicode="z" horiz-adv-x="465" 
d="M24 0v22l272 432h-139q-25 0 -39.5 -14t-26.5 -37l-34 -66l-26 2l7 141h396v-20l-266 -433h145q30 0 44.5 14.5t26.5 39.5l35 73h26l-9 -154h-412z" />
    <glyph glyph-name="zacute" unicode="&#x17a;" horiz-adv-x="465" 
d="M24 0v22l272 432h-139q-25 0 -39.5 -14t-26.5 -37l-34 -66l-26 2l7 141h396v-20l-266 -433h145q30 0 44.5 14.5t26.5 39.5l35 73h26l-9 -154h-412zM185 575q16 28 34.5 59.5t43.5 77.5q17 31 33 44.5t36 13.5q18 0 32.5 -12t14.5 -32q0 -19 -13 -35t-42 -37
q-40 -31 -69 -53t-52 -41z" />
    <glyph glyph-name="zcaron" unicode="&#x17e;" horiz-adv-x="465" 
d="M24 0v22l272 432h-139q-25 0 -39.5 -14t-26.5 -37l-34 -66l-26 2l7 141h396v-20l-266 -433h145q30 0 44.5 14.5t26.5 39.5l35 73h26l-9 -154h-412zM225 567l-127 171l19 17l129 -101l129 101l19 -17l-127 -171h-42z" />
    <glyph glyph-name="zdotaccent" unicode="&#x17c;" horiz-adv-x="465" 
d="M24 0v22l272 432h-139q-25 0 -39.5 -14t-26.5 -37l-34 -66l-26 2l7 141h396v-20l-266 -433h145q30 0 44.5 14.5t26.5 39.5l35 73h26l-9 -154h-412zM246 576q-33 0 -56 21t-23 54q0 32 23 53t56 21t56 -21t23 -53q0 -33 -23 -54t-56 -21z" />
    <glyph glyph-name="f_b" horiz-adv-x="908" 
d="M22 0v19l15 4q40 11 41 49q0 35 0.5 69.5t0.5 68.5v239h-57v22l22 4q20 3 29 14.5t13 32.5q11 40 29.5 69.5t44.5 54.5q37 36 79 50t82 14q39 0 71.5 -15.5t32.5 -52.5q0 -26 -15.5 -41.5t-44.5 -15.5q-46 0 -81 54l-12 14q-12 15 -24 12t-17 -20q-8 -32 -12.5 -75
t-5.5 -90h115v-31h-115v-239q0 -34 0.5 -67.5t0.5 -67.5q0 -40 40 -49l26 -7v-19h-258zM518 -13l-164 13v19l10 2q39 9 39 50v520q0 20 -7.5 31t-27.5 16l-13 3v18l171 43l13 -9l-4 -141v-105q71 48 153 48q84 0 139 -61.5t55 -189.5q0 -85 -28 -142.5t-75 -86.5t-104 -29
q-38 0 -75.5 10t-66.5 31zM628 30q33 0 58 19t39 65t14 126t-13 125t-37.5 63t-58.5 18q-45 0 -92 -26v-365q41 -25 90 -25z" />
    <glyph glyph-name="f_h" horiz-adv-x="907" 
d="M22 0v19l15 4q40 11 41 49q0 35 0.5 69.5t0.5 68.5v239h-57v22l22 4q20 3 29 14.5t13 32.5q11 40 29.5 69.5t44.5 54.5q37 36 79 50t82 14q39 0 71.5 -15.5t32.5 -52.5q0 -26 -15.5 -41.5t-44.5 -15.5q-46 0 -81 54l-12 14q-12 15 -24 12t-17 -20q-8 -32 -12.5 -75
t-5.5 -90h115v-31h-115v-239q0 -34 0.5 -67.5t0.5 -67.5q0 -40 40 -49l26 -7v-19h-258zM354 0v20l13 4q36 11 36 50v515q0 21 -7 31.5t-27 15.5l-15 4v19l169 43l16 -9l-4 -141v-128q35 29 76.5 50t89.5 21q66 0 103.5 -37t37.5 -114v-271q0 -20 8 -32t28 -18l9 -3v-20h-228
v20l12 4q36 10 36 50v289q0 41 -14 57t-49 16q-24 0 -50.5 -9t-55.5 -30v-325q0 -20 8 -32t27 -17l9 -3v-20h-228z" />
    <glyph glyph-name="f_j" horiz-adv-x="560" 
d="M294 -241q-55 0 -78.5 19t-23.5 49q0 27 19 43.5t45 16.5t47.5 -13t34.5 -39l8 -16q8 -13 17 -8.5t10 29.5q2 49 2.5 101t0.5 130v204q0 46 -0.5 93t-1.5 81h-161v-238v-75t1 -77q0 -25 25 -31l35 -9v-19h-252v19l30 8q25 4 26 31q0 34 0.5 76.5t0.5 75.5v239h-57v22
l32 6q25 4 31 31q20 103 92.5 152.5t176.5 49.5q63 0 102.5 -25.5t39.5 -66.5q0 -26 -16 -41.5t-44 -15.5t-45.5 16.5t-31.5 41.5l-25 46q-12 20 -33 13q-41 -18 -63.5 -66.5t-24.5 -131.5h222q17 0 35 6l29 9l14 -11l-3 -138v-277q0 -67 -5.5 -112t-19 -76.5t-38.5 -57.5
q-34 -34 -73 -49t-80 -15z" />
    <glyph glyph-name="f_k" horiz-adv-x="903" 
d="M22 0v19l15 4q40 11 41 49q0 35 0.5 69.5t0.5 68.5v239h-57v22l22 4q20 3 29 14.5t13 32.5q11 40 29.5 69.5t44.5 54.5q37 36 79 50t82 14q39 0 71.5 -15.5t32.5 -52.5q0 -26 -15.5 -41.5t-44.5 -15.5q-46 0 -81 54l-12 14q-12 15 -24 12t-17 -20q-8 -32 -12.5 -75
t-5.5 -90h115v-31h-115v-239q0 -34 0.5 -67.5t0.5 -67.5q0 -40 40 -49l26 -7v-19h-258zM354 0v19l15 5q34 10 34 49v518q0 20 -8 30.5t-28 15.5l-13 4v19l175 42l13 -9l-4 -141v-479q0 -40 34 -50l14 -4v-19h-232zM720 0l-181 250l177 164q13 11 15 24.5t-17 18.5l-16 4v19
h156v-19l-29 -7q-22 -6 -36 -16.5t-33 -27.5l-110 -103l170 -233q16 -21 29 -32.5t35 -19.5l10 -3v-19h-170z" />
    <glyph glyph-name="ordfeminine" unicode="&#xaa;" horiz-adv-x="354" 
d="M295 476q0 -25 17 -25q11 0 24 14l16 -12q-12 -25 -28.5 -35t-42.5 -10q-30 0 -47 13.5t-22 37.5q-25 -24 -45.5 -38t-53.5 -14q-38 0 -63.5 21.5t-25.5 61.5q0 32 25 57.5t98 47.5q13 4 29 8.5t33 8.5v20q0 45 -12.5 61t-46.5 16q-12 0 -24 -2l-6 -35q-3 -26 -16 -38.5
t-30 -12.5q-34 0 -40 31q5 40 43.5 64.5t103.5 24.5q60 0 87 -27.5t27 -92.5v-145zM109 505q0 -25 14 -37t31 -12q13 0 24 6.5t31 20.5v102q-13 -4 -24.5 -7.5t-19.5 -6.5q-30 -12 -43 -29t-13 -37z" />
    <glyph glyph-name="ordmasculine" unicode="&#xba;" horiz-adv-x="379" 
d="M189 741q45 0 83 -20t61 -57.5t23 -89.5t-22 -89.5t-59.5 -58t-85.5 -20.5q-47 0 -84.5 20.5t-59.5 58.5t-22 89q0 52 23 89t61 57.5t82 20.5zM189 706q-74 0 -74 -132q0 -69 19 -101t55 -32t55 32t19 101q0 132 -74 132z" />
    <glyph glyph-name="a.sups" horiz-adv-x="354" 
d="M295 476q0 -25 17 -25q11 0 24 14l16 -12q-12 -25 -28.5 -35t-42.5 -10q-30 0 -47 13.5t-22 37.5q-25 -24 -45.5 -38t-53.5 -14q-38 0 -63.5 21.5t-25.5 61.5q0 32 25 57.5t98 47.5q13 4 29 8.5t33 8.5v20q0 45 -12.5 61t-46.5 16q-12 0 -24 -2l-6 -35q-3 -26 -16 -38.5
t-30 -12.5q-34 0 -40 31q5 40 43.5 64.5t103.5 24.5q60 0 87 -27.5t27 -92.5v-145zM109 505q0 -25 14 -37t31 -12q13 0 24 6.5t31 20.5v102q-13 -4 -24.5 -7.5t-19.5 -6.5q-30 -12 -43 -29t-13 -37z" />
    <glyph glyph-name="o.sups" horiz-adv-x="379" 
d="M189 741q45 0 83 -20t61 -57.5t23 -89.5t-22 -89.5t-59.5 -58t-85.5 -20.5q-47 0 -84.5 20.5t-59.5 58.5t-22 89q0 52 23 89t61 57.5t82 20.5zM189 706q-74 0 -74 -132q0 -69 19 -101t55 -32t55 32t19 101q0 132 -74 132z" />
    <glyph glyph-name="zero" unicode="0" horiz-adv-x="498" 
d="M249 -14q-59 0 -111 33.5t-84 106.5t-32 191q0 119 32 192t84 107t111 34t111 -34t84 -107t32 -192q0 -118 -32 -191t-84 -106.5t-111 -33.5zM249 14q26 0 44 13t29.5 45.5t17 92t5.5 152.5q0 94 -5.5 153.5t-17 92.5t-29.5 46t-44 13q-25 0 -43.5 -12.5t-29.5 -45.5
t-16.5 -93t-5.5 -154q0 -93 5.5 -152.5t16.5 -92.5t29.5 -45.5t43.5 -12.5z" />
    <glyph glyph-name="one" unicode="1" horiz-adv-x="346" 
d="M29 0v19l39 12q38 12 39 50v476l-83 -11v23q56 10 109.5 29.5t101.5 47.5l12 -10l-4 -143v-284q0 -26 0.5 -60.5t0.5 -66.5q0 -39 38 -51l41 -12v-19h-294z" />
    <glyph glyph-name="two" unicode="2" horiz-adv-x="528" 
d="M67 469l7 141q30 17 75.5 28.5t100.5 11.5q116 0 168 -49t52 -123q0 -69 -62 -134t-178 -150q-22 -16 -50.5 -38.5t-55.5 -45.5h364v-110h-436v81q74 72 137 137q73 75 108 133.5t35 123.5q0 66 -25 106t-73 40q-32 0 -56.5 -15t-40.5 -51l-39 -86h-31z" />
    <glyph glyph-name="three" unicode="3" horiz-adv-x="528" 
d="M252 -14q-64 0 -107 14t-84 36l10 130h29l35 -78q34 -74 112 -74q47 0 77 37t30 123q0 77 -27 110t-86 33h-59v30h53q53 0 79 31.5t26 107.5q0 72 -24 103t-61 31t-59.5 -19t-36.5 -51l-38 -81l-30 1l10 146q32 15 72 24.5t89 9.5q103 0 157 -45t54 -114q0 -49 -39.5 -93
t-122.5 -63q95 -9 138.5 -54.5t43.5 -109.5q0 -53 -29 -95t-83 -66t-129 -24z" />
    <glyph glyph-name="four" unicode="4" horiz-adv-x="534" 
d="M289 0v163h-264v61l293 419h93v-403h96v-77h-96v-163h-122zM78 240h211v302z" />
    <glyph glyph-name="five" unicode="5" horiz-adv-x="528" 
d="M241 -14q-120 0 -183 46l6 122h26l39 -74q18 -34 45 -50t62 -16q57 0 87.5 42.5t30.5 125.5q0 157 -128 157q-25 0 -52 -6t-50 -17l-21 12l22 308h348v-110h-319l-13 -167q23 14 57 25t72 11q100 0 163 -51t63 -149q0 -67 -33 -113.5t-90.5 -71t-131.5 -24.5z" />
    <glyph glyph-name="six" unicode="6" horiz-adv-x="525" 
d="M268 -14q-106 0 -171 71t-65 200q0 102 51.5 186.5t145.5 139.5t220 67l3 -23q-121 -26 -186 -93t-85 -176q28 18 62 27.5t71 9.5q59 0 99 -25t60 -68t20 -97q0 -70 -33 -119t-84.5 -74.5t-107.5 -25.5zM171 237q0 -119 23 -171t71 -52q46 0 69 42t23 138q0 89 -22.5 124
t-72.5 35q-46 0 -85 -21q-6 -44 -6 -95z" />
    <glyph glyph-name="seven" unicode="7" horiz-adv-x="486" 
d="M102 0l-10 10l324 523h-389v103h437v-65l-236 -571h-126z" />
    <glyph glyph-name="eight" unicode="8" horiz-adv-x="499" 
d="M29 140q0 52 39 90.5t101 65.5q-125 66 -125 178q0 55 27.5 94t75.5 60.5t107 21.5q91 0 138 -42.5t47 -101.5q0 -44 -33 -83.5t-86 -65.5q75 -36 112.5 -82.5t37.5 -111.5q0 -53 -28 -93t-79 -62t-119 -22q-103 0 -159 40.5t-56 113.5zM157 524q0 -28 11 -52.5t40 -49
t85 -52.5q33 35 43 66t10 64q0 62 -26 91.5t-70 29.5q-38 0 -65.5 -25.5t-27.5 -71.5zM134 148q0 -59 32 -96.5t83 -37.5q50 0 76 32t26 81q0 32 -14 56.5t-47.5 48.5t-93.5 51l-3 1q-34 -31 -46.5 -60t-12.5 -76z" />
    <glyph glyph-name="nine" unicode="9" horiz-adv-x="527" 
d="M495 384q0 -101 -46 -184t-135 -139.5t-219 -80.5l-7 26q87 22 141.5 58t83.5 89t39 126q-23 -15 -53.5 -23.5t-69.5 -8.5q-55 0 -100 22.5t-71 65.5t-26 104q0 65 31 112t83.5 73t114.5 26q113 0 173.5 -71t60.5 -195zM167 452q0 -86 26 -125t83 -39q45 0 79 18
q3 37 3 81q0 89 -9.5 140t-30.5 72.5t-56 21.5q-46 0 -70.5 -39.5t-24.5 -129.5z" />
    <glyph glyph-name="uni00B9" unicode="&#xb9;" horiz-adv-x="240" 
d="M15 416v13l46 16v311l-46 -6v17q25 9 46 16l45 15t56 20l8 -6l-2 -90v-277l49 -16v-13h-202z" />
    <glyph glyph-name="uni00B2" unicode="&#xb2;" horiz-adv-x="342" 
d="M47 703l5 93q20 11 48.5 18t64.5 7q77 0 111 -31.5t34 -77.5q0 -45 -43 -86.5t-121 -89.5q-10 -6 -29 -19t-30 -21h230v-80h-283v57l42.5 42.5l39.5 39.5q45 47 66.5 80.5t21.5 76.5q0 40 -14 64.5t-48 24.5q-12 0 -22.5 -5l-10.5 -5l-41 -88h-21z" />
    <glyph glyph-name="uni00B3" unicode="&#xb3;" horiz-adv-x="342" 
d="M164 406q-46 0 -73 9t-53 21l7 90h21l43 -91l12.5 -5t30.5 -5q30 0 46 23t16 76q0 52 -16 69.5t-46 17.5h-34v20h31q29 0 43.5 16.5t14.5 68.5q0 47 -13.5 65.5t-36.5 18.5q-16 0 -25.5 -4.5l-9.5 -4.5l-41 -88h-22l6 98q21 8 47 14t58 6q70 0 105 -29t35 -72
q0 -29 -26 -57t-83 -39q64 -4 92.5 -33.5t28.5 -70.5q0 -49 -41.5 -81.5t-116.5 -32.5z" />
    <glyph glyph-name="uni2074" unicode="&#x2074;" horiz-adv-x="343" 
d="M177 416v88h-162v47l182 265h72v-253h56v-59h-56v-88h-92zM52 563h125v183z" />
    <glyph glyph-name="fraction" unicode="&#x2044;" horiz-adv-x="140" 
d="M-143 -24l-26 19l453 663l26 -19z" />
    <glyph glyph-name="onehalf" unicode="&#xbd;" horiz-adv-x="786" 
d="M149 -24l-26 19l453 663l26 -19zM15 253v13l46 16v311l-46 -6v17q25 9 46 16l45 15t56 20l8 -6l-2 -90v-277l49 -16v-13h-202zM491 287l5 93q20 11 48.5 18t64.5 7q77 0 111 -31.5t34 -77.5q0 -45 -43 -86.5t-121 -89.5q-10 -6 -29 -19t-30 -21h230v-80h-283v57
l42.5 42.5l39.5 39.5q45 47 66.5 80.5t21.5 76.5q0 40 -14 64.5t-48 24.5q-12 0 -22.5 -5l-10.5 -5l-41 -88h-21z" />
    <glyph glyph-name="onequarter" unicode="&#xbc;" horiz-adv-x="697" 
d="M148 -24l-26 19l453 663l26 -19zM15 248v13l46 16v311l-46 -6v17q25 9 46 16l45 15t56 20l8 -6l-2 -90v-277l49 -16v-13h-202zM532 0v88h-162v47l182 265h72v-253h56v-59h-56v-88h-92zM407 147h125v183z" />
    <glyph glyph-name="threequarters" unicode="&#xbe;" horiz-adv-x="773" 
d="M164 240q-46 0 -73 9t-53 21l7 90h21l43 -91l12.5 -5t30.5 -5q30 0 46 23t16 76q0 52 -16 69.5t-46 17.5h-34v20h31q29 0 43.5 16.5t14.5 68.5q0 47 -13.5 65.5t-36.5 18.5q-16 0 -25.5 -4.5l-9.5 -4.5l-41 -88h-22l6 98q21 8 47 14t58 6q70 0 105 -29t35 -72
q0 -29 -26 -57t-83 -39q64 -4 92.5 -33.5t28.5 -70.5q0 -49 -41.5 -81.5t-116.5 -32.5zM224 -24l-26 19l453 663l26 -19zM608 0v88h-162v47l182 265h72v-253h56v-59h-56v-88h-92zM483 147h125v183z" />
    <glyph glyph-name="zero.sups" horiz-adv-x="372" 
d="M186 818q39 0 72.5 -21.5t54.5 -67t21 -117.5q0 -71 -21 -116.5t-54.5 -67t-72.5 -21.5t-72.5 21.5t-54.5 67t-21 116.5q0 72 21 117.5t54.5 67t72.5 21.5zM129 612q0 -74 8 -113.5t21 -54t28 -14.5q16 0 28.5 14.5t20.5 54t8 113.5t-8 113.5t-20.5 54t-28.5 14.5
q-15 0 -28 -14.5t-21 -53.5t-8 -114z" />
    <glyph glyph-name="period" unicode="." horiz-adv-x="300" 
d="M150 -14q-35 0 -59.5 24t-24.5 58q0 35 24.5 60t59.5 25t59.5 -25t24.5 -60q0 -34 -24.5 -58t-59.5 -24z" />
    <glyph glyph-name="comma" unicode="," horiz-adv-x="300" 
d="M88 -159l-9 21q62 39 77 117l-31 15q-29 14 -44 35.5t-15 44.5q0 33 22.5 56t58.5 23q37 0 60 -26t23 -75q0 -54 -21.5 -97t-54 -72t-66.5 -42z" />
    <glyph glyph-name="colon" unicode=":" horiz-adv-x="300" 
d="M150 333q-35 0 -59.5 24t-24.5 58q0 35 24.5 60t59.5 25t59.5 -25t24.5 -60q0 -34 -24.5 -58t-59.5 -24zM150 -14q-35 0 -59.5 24t-24.5 58q0 35 24.5 60t59.5 25t59.5 -25t24.5 -60q0 -34 -24.5 -58t-59.5 -24z" />
    <glyph glyph-name="semicolon" unicode=";" horiz-adv-x="300" 
d="M150 333q-35 0 -59.5 24t-24.5 58q0 35 24.5 60t59.5 25t59.5 -25t24.5 -60q0 -34 -24.5 -58t-59.5 -24zM88 -159l-9 21q62 39 77 117l-31 15q-29 14 -44 35.5t-15 44.5q0 33 22.5 56t58.5 23q37 0 60 -26t23 -75q0 -54 -21.5 -97t-54 -72t-66.5 -42z" />
    <glyph glyph-name="ellipsis" unicode="&#x2026;" horiz-adv-x="900" 
d="M150 -14q-35 0 -59.5 24t-24.5 58q0 35 24.5 60t59.5 25t59.5 -25t24.5 -60q0 -34 -24.5 -58t-59.5 -24zM450 -14q-35 0 -59.5 24t-24.5 58q0 35 24.5 60t59.5 25t59.5 -25t24.5 -60q0 -34 -24.5 -58t-59.5 -24zM750 -14q-35 0 -59.5 24t-24.5 58q0 35 24.5 60t59.5 25
t59.5 -25t24.5 -60q0 -34 -24.5 -58t-59.5 -24z" />
    <glyph glyph-name="exclam" unicode="!" horiz-adv-x="328" 
d="M164 673q36 0 57 -22t21 -60q0 -30 -13 -94t-31 -150l-21 -109h-26l-21 109q-17 85 -30.5 149t-13.5 95q0 38 20.5 60t57.5 22zM164 -14q-35 0 -59.5 24t-24.5 58q0 35 24.5 59.5t59.5 24.5t59.5 -24.5t24.5 -59.5q0 -34 -24.5 -58t-59.5 -24z" />
    <glyph glyph-name="exclamdown" unicode="&#xa1;" horiz-adv-x="328" 
d="M164 322q-35 0 -59.5 25t-24.5 59q0 35 24.5 58.5t59.5 23.5t59.5 -23.5t24.5 -58.5q0 -34 -24.5 -59t-59.5 -25zM164 -199q-36 0 -57 22.5t-21 59.5q0 30 13 94.5t31 149.5l21 109h26l21 -109q17 -85 30.5 -148.5t13.5 -95.5q0 -37 -20.5 -59.5t-57.5 -22.5z" />
    <glyph glyph-name="question" unicode="?" horiz-adv-x="499" 
d="M244 223l-8 168q51 17 81.5 53t30.5 88q0 56 -22.5 89.5t-57.5 33.5q-1 0 -2 -0.5t-3 -0.5q-28 -1 -43 -20.5t-25 -50.5l-11 -40q-9 -33 -30 -46.5t-44 -10.5t-39 21t-16 48q0 39 29 68t75.5 45t97.5 16q98 0 155 -43t57 -129q0 -58 -29 -99t-73.5 -66.5t-91.5 -39.5
l-5 -84h-26zM251 -14q-35 0 -60 24t-25 58q0 35 25 59.5t60 24.5t59.5 -24.5t24.5 -59.5q0 -34 -24.5 -58t-59.5 -24z" />
    <glyph glyph-name="questiondown" unicode="&#xbf;" horiz-adv-x="499" 
d="M248 505q35 0 60 -23.5t25 -58.5q0 -34 -25 -59t-60 -25t-59.5 25t-24.5 59q0 35 24.5 58.5t59.5 23.5zM255 268l8 -168q-51 -16 -81.5 -52.5t-30.5 -88.5q0 -56 23 -89.5t57 -33.5q2 0 3 0.5t2 0.5q29 1 43.5 20.5t24.5 50.5l11 40q9 33 30 46.5t44 10.5t39 -21t16 -48
q0 -39 -29 -68t-75.5 -45t-97.5 -16q-98 0 -155 43.5t-57 128.5q0 59 29 99.5t73.5 66.5t91.5 39l5 84h26z" />
    <glyph glyph-name="periodcentered" unicode="&#xb7;" horiz-adv-x="300" 
d="M150 252q-35 0 -59.5 24t-24.5 58q0 35 24.5 60t59.5 25t59.5 -25t24.5 -60q0 -34 -24.5 -58t-59.5 -24z" />
    <glyph glyph-name="bullet" unicode="&#x2022;" horiz-adv-x="322" 
d="M161 199q-51 0 -88 34.5t-37 91.5t37 91.5t88 34.5t88 -34.5t37 -91.5t-37 -91.5t-88 -34.5z" />
    <glyph glyph-name="asterisk" unicode="*" horiz-adv-x="434" 
d="M217 740q22 0 33.5 -13.5t11.5 -35.5q0 -16 -5.5 -41t-13.5 -56l-13 -46l38 27q38 27 64.5 38.5t42.5 11.5q17 0 30 -11.5t13 -34.5q0 -31 -34 -40.5t-99 -13.5l-46 -3l36 -27q45 -32 64.5 -55.5t19.5 -45.5q0 -16 -13 -29.5t-31 -13.5q-28 0 -45 30t-37 82l-17 43
l-16 -43q-21 -58 -39 -84.5t-44 -26.5q-19 0 -31.5 13t-12.5 29q0 23 22 47.5t63 53.5l36 27l-46 3q-67 3 -100 13.5t-33 41.5q0 22 13.5 34t29.5 12q20 0 46.5 -13.5t60.5 -37.5l38 -27l-13 46q-9 32 -13.5 58t-4.5 39q0 22 11.5 35.5t33.5 13.5z" />
    <glyph glyph-name="numbersign" unicode="#" horiz-adv-x="553" 
d="M103 0l26 173h-108v45h115l32 209h-114v45h121l26 173h42l-26 -173h169l27 173h42l-26 -173h104v-45h-111l-32 -209h110v-45h-117l-26 -173h-43l27 173h-170l-26 -173h-42zM178 218h169l33 209h-170z" />
    <glyph glyph-name="slash" unicode="/" horiz-adv-x="348" 
d="M24 -160l267 870h34l-267 -870h-34z" />
    <glyph glyph-name="backslash" unicode="\" horiz-adv-x="344" 
d="M289 -160l-267 870h33l267 -870h-33z" />
    <glyph glyph-name="parenleft" unicode="(" horiz-adv-x="365" 
d="M305 -176q-110 89 -170 203.5t-60 250.5t60 251t170 203l20 -18q-55 -74 -86.5 -142.5t-44.5 -139.5t-13 -154q0 -82 13 -154t44.5 -140.5t86.5 -143.5z" />
    <glyph glyph-name="parenright" unicode=")" horiz-adv-x="365" 
d="M60 732q110 -89 170 -203.5t60 -250.5t-60 -251t-170 -203l-20 18q55 74 86.5 142.5t44.5 139.5t13 154q0 82 -13 154t-44.5 140.5t-86.5 143.5z" />
    <glyph glyph-name="braceleft" unicode="{" horiz-adv-x="339" 
d="M272 -159q-77 0 -125 31t-48 95q0 40 13 74t26.5 65t13.5 62q0 38 -24.5 61t-87.5 33v32q63 10 87.5 33t24.5 61q0 31 -13.5 62t-26.5 65t-13 74q0 64 48 95t125 31h37v-28l-23 -3q-82 -10 -82 -85q0 -52 13 -99t13 -92q0 -55 -29.5 -86.5t-94.5 -43.5q65 -12 94.5 -43.5
t29.5 -86.5q0 -45 -13 -91.5t-13 -99.5q0 -75 82 -85l23 -3v-28h-37z" />
    <glyph glyph-name="braceright" unicode="}" horiz-adv-x="339" 
d="M67 715q77 0 125 -31t48 -95q0 -40 -13 -74t-26.5 -65t-13.5 -62q0 -38 24.5 -61t87.5 -33v-32q-63 -10 -87.5 -33t-24.5 -61q0 -31 13.5 -62t26.5 -65t13 -74q0 -64 -48 -95t-125 -31h-37v28l23 3q82 10 82 85q0 52 -13 99t-13 92q0 55 29.5 86.5t94.5 43.5
q-65 12 -94.5 43.5t-29.5 86.5q0 45 13 91.5t13 99.5q0 75 -82 85l-23 3v28h37z" />
    <glyph glyph-name="bracketleft" unicode="[" horiz-adv-x="339" 
d="M100 -159q2 77 2.5 157t0.5 160v240q0 79 -0.5 158.5t-2.5 158.5h219v-32l-110 -11q-1 -64 -1 -136.5v-137.5v-240v-136.5t1 -137.5l110 -11v-32h-219z" />
    <glyph glyph-name="bracketright" unicode="]" horiz-adv-x="339" 
d="M239 715q-2 -77 -2.5 -157t-0.5 -160v-240q0 -79 0.5 -158.5t2.5 -158.5h-219v32l110 11q1 64 1 136.5v137.5v240v136.5t-1 137.5l-110 11v32h219z" />
    <glyph glyph-name="hyphen" unicode="-" horiz-adv-x="330" 
d="M40 232v42h250v-42h-250z" />
    <glyph glyph-name="uni00AD" unicode="&#xad;" horiz-adv-x="330" 
d="M40 232v42h250v-42h-250z" />
    <glyph glyph-name="endash" unicode="&#x2013;" horiz-adv-x="530" 
d="M40 232v42h450v-42h-450z" />
    <glyph glyph-name="emdash" unicode="&#x2014;" horiz-adv-x="830" 
d="M40 232v42h750v-42h-750z" />
    <glyph glyph-name="underscore" unicode="_" horiz-adv-x="530" 
d="M40 -62v42h450v-42h-450z" />
    <glyph glyph-name="quotesinglbase" unicode="&#x201a;" horiz-adv-x="215" 
d="M106 146q36 0 58 -25.5t22 -68.5q0 -55 -32 -103t-79 -71l-10 17q20 16 35.5 39t24.5 56l-21 6q-32 10 -50.5 30t-18.5 49q0 32 21 51.5t50 19.5z" />
    <glyph glyph-name="quotedblbase" unicode="&#x201e;" horiz-adv-x="425" 
d="M106 146q36 0 58 -25.5t22 -68.5q0 -55 -32 -103t-79 -71l-10 17q20 16 35.5 39t24.5 56l-21 6q-32 10 -50.5 30t-18.5 49q0 32 21 51.5t50 19.5zM316 146q36 0 58 -25.5t22 -68.5q0 -55 -32 -103t-79 -71l-10 17q20 16 35.5 39t24.5 56l-21 6q-32 10 -50.5 30t-18.5 49
q0 32 21 51.5t50 19.5z" />
    <glyph glyph-name="quotedblleft" unicode="&#x201c;" horiz-adv-x="425" 
d="M109 462q-36 0 -58 25.5t-22 68.5q0 55 32 103t79 71l10 -17q-20 -16 -35.5 -39t-24.5 -56l21 -6q32 -10 50.5 -30t18.5 -49q0 -32 -21 -51.5t-50 -19.5zM319 462q-36 0 -58 25.5t-22 68.5q0 55 32 103t79 71l10 -17q-20 -16 -35.5 -39t-24.5 -56l21 -6q32 -10 50.5 -30
t18.5 -49q0 -32 -21 -51.5t-50 -19.5z" />
    <glyph glyph-name="quotedblright" unicode="&#x201d;" horiz-adv-x="425" 
d="M106 731q36 0 58 -25.5t22 -68.5q0 -55 -32 -103t-79 -71l-10 17q20 16 35.5 39t24.5 56l-21 6q-32 10 -50.5 30t-18.5 49q0 32 21 51.5t50 19.5zM316 731q36 0 58 -25.5t22 -68.5q0 -55 -32 -103t-79 -71l-10 17q20 16 35.5 39t24.5 56l-21 6q-32 10 -50.5 30t-18.5 49
q0 32 21 51.5t50 19.5z" />
    <glyph glyph-name="quoteleft" unicode="&#x2018;" horiz-adv-x="215" 
d="M109 462q-36 0 -58 25.5t-22 68.5q0 55 32 103t79 71l10 -17q-20 -16 -35.5 -39t-24.5 -56l21 -6q32 -10 50.5 -30t18.5 -49q0 -32 -21 -51.5t-50 -19.5z" />
    <glyph glyph-name="quoteright" unicode="&#x2019;" horiz-adv-x="215" 
d="M106 731q36 0 58 -25.5t22 -68.5q0 -55 -32 -103t-79 -71l-10 17q20 16 35.5 39t24.5 56l-21 6q-32 10 -50.5 30t-18.5 49q0 32 21 51.5t50 19.5z" />
    <glyph glyph-name="guillemotleft" unicode="&#xab;" horiz-adv-x="530" 
d="M254 37l-226 197v34l226 197l16 -16l-137 -198l137 -198zM466 37l-226 197v34l226 197l16 -16l-137 -198l137 -198z" />
    <glyph glyph-name="guillemotright" unicode="&#xbb;" horiz-adv-x="530" 
d="M64 468l226 -197v-34l-226 -197l-16 16l137 198l-137 198zM276 468l226 -197v-34l-226 -197l-16 16l137 198l-137 198z" />
    <glyph glyph-name="guilsinglleft" unicode="&#x2039;" horiz-adv-x="318" 
d="M254 37l-226 197v34l226 197l16 -16l-137 -198l137 -198z" />
    <glyph glyph-name="guilsinglright" unicode="&#x203a;" horiz-adv-x="318" 
d="M64 468l226 -197v-34l-226 -197l-16 16l137 198l-137 198z" />
    <glyph glyph-name="quotedbl" unicode="&#x22;" horiz-adv-x="417" 
d="M96 406l-19 72q-6 29 -15 64.5t-15.5 67t-6.5 48.5q0 35 19 54.5t50 19.5q30 0 49.5 -19.5t19.5 -54.5q0 -17 -6.5 -48.5t-15 -67t-14.5 -64.5l-19 -72h-27zM294 406l-19 72q-6 29 -15 64.5t-15.5 67t-6.5 48.5q0 35 19 54.5t50 19.5q30 0 49.5 -19.5t19.5 -54.5
q0 -17 -6.5 -48.5t-15 -67t-14.5 -64.5l-19 -72h-27z" />
    <glyph glyph-name="quotesingle" unicode="'" horiz-adv-x="218" 
d="M96 406l-19 72q-6 29 -15 64.5t-15.5 67t-6.5 48.5q0 35 19 54.5t50 19.5q30 0 49.5 -19.5t19.5 -54.5q0 -17 -6.5 -48.5t-15 -67t-14.5 -64.5l-19 -72h-27z" />
    <glyph glyph-name="space" unicode=" " horiz-adv-x="220" 
 />
    <glyph glyph-name="uni00A0" unicode="&#xa0;" horiz-adv-x="220" 
 />
    <glyph glyph-name="CR" unicode="&#xd;" horiz-adv-x="600" 
 />
    <glyph glyph-name="cent" unicode="&#xa2;" horiz-adv-x="528" 
d="M282 -45v100q-73 2 -128 33.5t-86 88t-31 133.5q0 76 30 132.5t85.5 88.5t129.5 36v88h32v-88q58 -3 98 -22t61 -48t21 -60q0 -28 -16 -41.5t-39 -13.5q-29 0 -46 21.5t-23 53.5l-6 27q-4 20 -15.5 34.5t-34.5 17.5v-419q57 1 93.5 21t65.5 55l20 -15q-24 -53 -69 -85
t-110 -37v-101h-32zM168 322q0 -87 28.5 -140t85.5 -63v417q-53 -9 -83.5 -63.5t-30.5 -150.5z" />
    <glyph glyph-name="currency" unicode="&#xa4;" horiz-adv-x="530" 
d="M91 326q0 32 10 59.5t27 48.5l-34 19q-31 17 -49.5 33.5t-18.5 35.5q0 17 12.5 29.5t29.5 12.5q20 0 36 -18t34 -50l18 -34q47 36 109 36t108 -36l19 34q17 32 33.5 50t36.5 18q17 0 29.5 -12.5t12.5 -29.5q0 -19 -18.5 -35.5t-49.5 -33.5l-34 -19q17 -21 26.5 -48.5
t9.5 -59.5t-9.5 -59.5t-26.5 -48.5l34 -19q31 -18 49.5 -34t18.5 -36q0 -17 -12.5 -29.5t-29.5 -12.5q-20 0 -36.5 18.5t-33.5 49.5l-19 34q-46 -36 -108 -36q-61 0 -108 36l-19 -34q-17 -31 -33.5 -49.5t-36.5 -18.5q-17 0 -29.5 12.5t-12.5 29.5q0 20 18.5 36t49.5 34
l34 18q-17 22 -27 49.5t-10 59.5zM162 326q0 -49 31 -78.5t72 -29.5q42 0 72 29.5t30 78.5q0 47 -30 77t-72 30q-41 0 -72 -30t-31 -77z" />
    <glyph glyph-name="dollar" unicode="$" horiz-adv-x="528" 
d="M256 -115v101q-93 0 -149.5 33.5t-56.5 92.5q0 29 17 46t42 17q24 0 42 -15t24 -53l2 -18q6 -39 25.5 -56t53.5 -19v244l-24 8q-85 29 -131 76t-46 120q0 77 54 129.5t148 58.5v91h32v-91q87 -3 134.5 -40t47.5 -87q0 -30 -15.5 -45.5t-41.5 -15.5q-22 0 -40 15t-26 58
l-5 23q-5 29 -17.5 42t-36.5 16v-232l14 -4q104 -34 146 -84.5t42 -118.5q0 -78 -54.5 -130t-148.5 -60v-102h-32zM159 513q0 -44 24.5 -72t73.5 -46v221q-37 -3 -67.5 -28.5t-30.5 -74.5zM383 132q0 44 -21 68.5t-74 45.5v-230q44 7 69.5 37.5t25.5 78.5z" />
    <glyph glyph-name="Euro" unicode="&#x20ac;" horiz-adv-x="528" 
d="M11 229v32h56q-3 27 -3 57q0 32 3 61h-56v32h61q22 119 94.5 179t171.5 60q51 0 91 -15t63.5 -41.5t23.5 -62.5q0 -28 -16.5 -43.5t-41.5 -15.5q-22 0 -40 14.5t-26 55.5l-3 16q-5 28 -18.5 45t-39.5 17q-47 0 -86 -52t-52 -157h211v-32h-214q-2 -29 -2 -61q0 -30 2 -57
h214v-32h-211q11 -105 49 -159t90 -54q25 0 37 14.5t18 42.5l3 18q7 39 25 55.5t44 16.5q24 0 39.5 -15.5t15.5 -41.5q0 -52 -50.5 -86t-131.5 -34q-102 0 -172 61.5t-89 181.5h-60z" />
    <glyph glyph-name="uni20BD" unicode="&#x20bd;" horiz-adv-x="516" 
d="M41 0v20l22 6q30 10 30 42q0 18 0.5 38t0.5 39h-66v30h66v89h-66v30h66v44v114t-1 118q0 32 -31 41l-21 5v20h222q127 0 185.5 -51.5t58.5 -137.5q0 -52 -26 -93.5t-83.5 -65.5t-152.5 -24h-16v-89h187v-30h-187v-76q0 -30 32 -41l30 -8v-20h-250zM229 294h14
q75 0 107.5 35t32.5 121q0 89 -33 123.5t-98 34.5h-23v-314z" />
    <glyph glyph-name="sterling" unicode="&#xa3;" horiz-adv-x="528" 
d="M42 0v77q53 35 78.5 78t25.5 91q0 23 -5 45h-88v31h77q-9 22 -19.5 43t-18 46.5t-7.5 59.5q0 56 28.5 96t76.5 61.5t105 21.5q86 0 136 -35t50 -92q0 -31 -16.5 -47.5t-42.5 -16.5t-43.5 18t-25.5 60l-2 16q-7 36 -20.5 52.5t-39.5 16.5q-38 0 -62 -37t-24 -107
q0 -45 10 -82t16 -74h174v-31h-171q1 -18 -1 -36q-3 -49 -36 -90t-75 -67h364v-98h-444z" />
    <glyph glyph-name="yen" unicode="&#xa5;" horiz-adv-x="528" 
d="M143 0v20l17 5q38 12 39 50q0 21 0.5 41.5t0.5 40.5h-138v32h138v2v90l-1 2h-137v32h121l-127 257q-14 29 -44 40l-9 3v21h224v-21l-7 -2q-35 -13 -21 -47l108 -243l114 248q15 29 -17 41l-7 3v21h117v-21l-11 -3q-32 -11 -48 -44l-117 -253h128v-32h-137v-92v-2h137v-32
h-137v-40.5t1 -41.5q1 -39 39 -50l17 -5v-20h-243z" />
    <glyph glyph-name="uni2219" unicode="&#x2219;" horiz-adv-x="300" 
d="M150 243q-35 0 -59.5 24t-24.5 58q0 35 24.5 60t59.5 25t59.5 -25t24.5 -60q0 -34 -24.5 -58t-59.5 -24z" />
    <glyph glyph-name="uni2215" unicode="&#x2215;" horiz-adv-x="140" 
d="M-143 -24l-26 19l453 663l26 -19z" />
    <glyph glyph-name="plus" unicode="+" horiz-adv-x="540" 
d="M250 74v233h-221v36h221v229h40v-229h220v-36h-220v-233h-40z" />
    <glyph glyph-name="minus" unicode="&#x2212;" horiz-adv-x="540" 
d="M29 307v36h481v-36h-481z" />
    <glyph glyph-name="multiply" unicode="&#xd7;" horiz-adv-x="540" 
d="M82 110l-27 27l188 188l-188 188l27 27l188 -188l188 188l27 -27l-188 -188l188 -188l-27 -27l-188 188z" />
    <glyph glyph-name="divide" unicode="&#xf7;" horiz-adv-x="540" 
d="M270 445q-30 0 -51 20t-21 50t21 49.5t51 19.5t51 -19.5t21 -49.5t-21 -50t-51 -20zM29 307v36h481v-36h-481zM270 67q-30 0 -51 19t-21 49t21 50t51 20t51 -20t21 -50t-21 -49t-51 -19z" />
    <glyph glyph-name="equal" unicode="=" horiz-adv-x="540" 
d="M29 204v36h481v-36h-481zM29 410v36h481v-36h-481z" />
    <glyph glyph-name="notequal" unicode="&#x2260;" horiz-adv-x="540" 
d="M129 45l-28 14l82 145h-154v36h174l96 170h-270v36h290l90 159l27 -15l-81 -144h155v-36h-175l-96 -170h271v-36h-291z" />
    <glyph glyph-name="greater" unicode="&#x3e;" horiz-adv-x="540" 
d="M496 344v-37l-412 -226l-19 38l381 206l-381 207l19 38z" />
    <glyph glyph-name="less" unicode="&#x3c;" horiz-adv-x="540" 
d="M44 307v37l412 226l19 -38l-381 -206l381 -207l-19 -38z" />
    <glyph glyph-name="greaterequal" unicode="&#x2265;" horiz-adv-x="540" 
d="M78 120l-17 36l383 184l-383 184l17 36l419 -204v-32zM29 0v39h481v-39h-481z" />
    <glyph glyph-name="lessequal" unicode="&#x2264;" horiz-adv-x="540" 
d="M462 120l-419 204v32l419 204l17 -36l-383 -184l383 -184zM29 0v37h481v-37h-481z" />
    <glyph glyph-name="plusminus" unicode="&#xb1;" horiz-adv-x="540" 
d="M250 113v209h-221v36h221v203h40v-203h220v-36h-220v-209h-40zM29 0v37h481v-37h-481z" />
    <glyph glyph-name="approxequal" unicode="&#x2248;" horiz-adv-x="540" 
d="M364 122q-30 0 -58 13t-58 43q-31 32 -49 44t-38 12q-25 0 -44.5 -21.5t-27.5 -74.5l-31 3q2 83 33.5 122t82.5 39q33 0 60 -13t58 -44q32 -31 50 -43.5t37 -12.5q24 0 45 20.5t27 75.5l31 -4q-2 -76 -33 -117.5t-85 -41.5zM364 362q-30 0 -58 13t-58 43q-31 32 -49 44
t-38 12q-25 0 -44.5 -21.5t-27.5 -74.5l-31 3q2 83 33.5 122t82.5 39q33 0 60 -13t58 -44q32 -31 50 -43.5t37 -12.5q24 0 45 20.5t27 75.5l31 -4q-2 -76 -33 -117.5t-85 -41.5z" />
    <glyph glyph-name="asciitilde" unicode="~" horiz-adv-x="540" 
d="M364 255q-30 0 -58 13t-58 43q-31 32 -49 44t-38 12q-25 0 -44.5 -21.5t-27.5 -74.5l-31 3q2 83 33.5 122t82.5 39q33 0 60 -13t58 -44q32 -31 50 -43.5t37 -12.5q24 0 45 20.5t27 75.5l31 -4q-2 -76 -33 -117.5t-85 -41.5z" />
    <glyph glyph-name="logicalnot" unicode="&#xac;" horiz-adv-x="540" 
d="M27 349v36h459v-236h-38v200h-421z" />
    <glyph glyph-name="asciicircum" unicode="^" horiz-adv-x="540" 
d="M105 208l-35 24l176 265h49l176 -265l-36 -24l-165 197z" />
    <glyph glyph-name="uni00B5" unicode="&#xb5;" horiz-adv-x="582" 
d="M65 -178l27 285l-22 362l124 26l14 -11q-4 -94 -7.5 -158.5t-5.5 -112t-3 -89.5q18 -22 40.5 -30t45.5 -8q28 0 53 11.5t45 43.5l-9 328l124 26l14 -11q-7 -103 -12 -167t-7 -104.5t-2 -71.5q1 -46 11 -60.5t34 -14.5q21 0 37 9l8 -19q-15 -31 -40.5 -50.5t-61.5 -19.5
q-43 0 -65.5 30t-28.5 84q-19 -58 -48.5 -86t-66.5 -28q-25 0 -48.5 19.5t-39.5 60.5l27 -232l-121 -26z" />
    <glyph glyph-name="percent" unicode="%" horiz-adv-x="870" 
d="M227 -24l-26 19l453 663l26 -19zM207 650q39 0 72.5 -21.5t54.5 -67t21 -117.5q0 -71 -21 -116.5t-54.5 -67t-72.5 -21.5t-72.5 21.5t-54.5 67t-21 116.5q0 72 21 117.5t54.5 67t72.5 21.5zM150 444q0 -74 8 -113.5t21 -54t28 -14.5q16 0 28.5 14.5t20.5 54t8 113.5
t-8 113.5t-20.5 54t-28.5 14.5q-15 0 -28 -14.5t-21 -53.5t-8 -114zM663 402q39 0 72.5 -21.5t54.5 -67t21 -117.5q0 -71 -21 -116.5t-54.5 -67t-72.5 -21.5t-72.5 21.5t-54.5 67t-21 116.5q0 72 21 117.5t54.5 67t72.5 21.5zM606 196q0 -74 8 -113.5t21 -54t28 -14.5
q16 0 28.5 14.5t20.5 54t8 113.5t-8 113.5t-20.5 54t-28.5 14.5q-15 0 -28 -14.5t-21 -53.5t-8 -114z" />
    <glyph glyph-name="perthousand" unicode="&#x2030;" horiz-adv-x="1213" 
d="M227 -24l-26 19l453 663l26 -19zM207 650q39 0 72.5 -21.5t54.5 -67t21 -117.5q0 -71 -21 -116.5t-54.5 -67t-72.5 -21.5t-72.5 21.5t-54.5 67t-21 116.5q0 72 21 117.5t54.5 67t72.5 21.5zM150 444q0 -74 8 -113.5t21 -54t28 -14.5q16 0 28.5 14.5t20.5 54t8 113.5
t-8 113.5t-20.5 54t-28.5 14.5q-15 0 -28 -14.5t-21 -53.5t-8 -114zM663 402q39 0 72.5 -21.5t54.5 -67t21 -117.5q0 -71 -21 -116.5t-54.5 -67t-72.5 -21.5t-72.5 21.5t-54.5 67t-21 116.5q0 72 21 117.5t54.5 67t72.5 21.5zM606 196q0 -74 8 -113.5t21 -54t28 -14.5
q16 0 28.5 14.5t20.5 54t8 113.5t-8 113.5t-20.5 54t-28.5 14.5q-15 0 -28 -14.5t-21 -53.5t-8 -114zM1016 402q39 0 72.5 -21.5t54.5 -67t21 -117.5q0 -71 -21 -116.5t-54.5 -67t-72.5 -21.5t-72.5 21.5t-54.5 67t-21 116.5q0 72 21 117.5t54.5 67t72.5 21.5zM959 196
q0 -74 8 -113.5t21 -54t28 -14.5q16 0 28.5 14.5t20.5 54t8 113.5t-8 113.5t-20.5 54t-28.5 14.5q-15 0 -28 -14.5t-21 -53.5t-8 -114z" />
    <glyph glyph-name="at" unicode="@" horiz-adv-x="872" 
d="M397 -154q-106 0 -185.5 43.5t-123.5 122.5t-44 186q0 91 32 173.5t91 146.5t142 101t185 37q108 0 182.5 -43t113.5 -116t39 -165q0 -67 -20 -120.5t-53 -91.5t-73 -58t-81 -20q-51 0 -79 27t-35 66q-30 -46 -66.5 -69.5t-74.5 -23.5q-45 0 -79 34t-34 106q0 53 21 106
t56 96.5t77 69.5t85 26q24 0 43.5 -7.5t36.5 -21.5l60 24l24 -17l-57 -314q-6 -34 5.5 -51.5t33.5 -17.5q33 0 66.5 31.5t56 90t22.5 139.5q0 92 -33.5 157t-95 99.5t-145.5 34.5q-85 0 -154 -34.5t-118 -93t-75.5 -133t-26.5 -155.5q0 -107 40.5 -180.5t111 -110.5
t159.5 -37q41 0 80 7.5t76 23.5l8 -25q-43 -20 -92.5 -31.5t-101.5 -11.5zM403 114q17 0 35.5 8.5t40.5 30.5l47 262q-10 14 -24 19t-28 5q-28 0 -59.5 -29t-53 -80t-21.5 -116q0 -51 18 -75.5t45 -24.5z" />
    <glyph glyph-name="ampersand" unicode="&#x26;" horiz-adv-x="720" 
d="M232 -14q-66 0 -112 24.5t-70.5 64.5t-24.5 89q0 122 154 189q-26 35 -48.5 74.5t-22.5 92.5q0 70 50 112.5t131 42.5q79 0 122.5 -35.5t43.5 -93.5q0 -51 -39 -88.5t-113 -69.5q18 -20 38 -42.5t42 -47.5q28 -30 53.5 -57t51.5 -56q23 34 43 78.5t32 93.5q8 37 -29 48
l-8 3v19h122v-19l-11 -4q-32 -11 -40 -43q-16 -55 -38 -104.5t-51 -90.5l94 -101q12 -13 25 -21.5t29 -15.5l20 -8v-20l-192 -1l-65 71q-29 -31 -72 -57.5t-115 -26.5zM287 405q40 35 59 70t19 78q0 39 -20.5 63t-55.5 24q-33 0 -55.5 -24t-22.5 -62q0 -23 8.5 -48t31.5 -57
q6 -8 15 -18.5t21 -25.5zM286 54q35 0 64 10.5t50 27.5q-50 56 -98 112q-28 35 -54 66t-51 62q-31 -25 -43.5 -58t-12.5 -68q0 -65 40.5 -108.5t104.5 -43.5z" />
    <glyph glyph-name="paragraph" unicode="&#xb6;" horiz-adv-x="607" 
d="M385 -120q2 76 2.5 153.5t0.5 156.5v442h-73v-505q-84 1 -150 32t-104 91t-38 147q0 89 42.5 147.5t112.5 87.5t154 29h233v-21l-21 -5q-39 -10 -40 -49q-1 -56 -1 -118.5v-116.5v-161q0 -77 0.5 -155t2.5 -155h-121z" />
    <glyph glyph-name="section" unicode="&#xa7;" horiz-adv-x="518" 
d="M242 -106q-83 0 -132.5 28.5t-49.5 77.5q0 27 17.5 44t41.5 17q27 0 43.5 -15t27.5 -47l8 -24q8 -20 23.5 -36.5t46.5 -16.5q35 0 56 22t21 58q0 30 -14.5 50t-44 36.5t-76.5 36.5q-80 33 -123 71t-43 106q0 35 20.5 67t57.5 54q-40 42 -40 102q0 40 21.5 74.5t65 56.5
t107.5 22q83 0 131 -33t48 -81q0 -25 -15 -39.5t-39 -14.5q-23 0 -42 14.5t-33 55.5l-8 23q-7 20 -20 33.5t-41 13.5q-34 0 -56.5 -21t-22.5 -56q0 -46 32.5 -73t86.5 -49q96 -36 137 -75t41 -98q0 -42 -21 -73.5t-56 -53.5q19 -20 29 -44t10 -55q0 -41 -22.5 -77.5
t-66 -58.5t-106.5 -22zM258 230q37 -14 67 -28.5t53 -32.5q21 27 21 64q0 35 -35.5 60t-106.5 51q-75 28 -116 62q-20 -28 -20 -59q0 -46 36.5 -70t100.5 -47z" />
    <glyph glyph-name="copyright" unicode="&#xa9;" horiz-adv-x="748" 
d="M375 -17q-70 0 -132.5 24.5t-110.5 70t-75 110t-27 144.5t27 144t75 109.5t110.5 69.5t132.5 24t132 -24t110 -69.5t75 -109.5t27 -144t-27 -144.5t-75 -110t-110 -70t-132 -24.5zM375 13q85 0 154 39t110.5 111t41.5 169t-41.5 168t-110.5 109.5t-154 38.5t-154.5 -38.5
t-111 -109t-41.5 -168.5q0 -97 41.5 -169t111 -111t154.5 -39zM393 128q-57 0 -103 24t-73 70t-27 110q0 65 28 111.5t75 71t102 24.5q35 0 61.5 -7t52.5 -22l3 -96h-20l-21 46q-11 26 -29.5 39t-38.5 13q-45 0 -79.5 -45.5t-34.5 -133.5t34 -133.5t82 -45.5q3 0 4 1
q24 0 39.5 13t28.5 41l19 43h20l-2 -95q-25 -13 -55.5 -21t-65.5 -8z" />
    <glyph glyph-name="registered" unicode="&#xae;" horiz-adv-x="466" 
d="M233 312q-55 0 -101.5 24.5t-74 70t-27.5 107.5q0 63 28 107.5t74.5 68t100.5 23.5q55 0 101 -23.5t74 -68t28 -107.5q0 -62 -28 -107.5t-74 -70t-101 -24.5zM233 334q49 0 88.5 22t63.5 62.5t24 95.5t-24 94.5t-63.5 61t-88.5 21.5q-48 0 -88.5 -21.5t-64.5 -61
t-24 -94.5t24 -95.5t64.5 -62.5t88.5 -22zM145 419v11l6 3q13 4 13 18v134q0 14 -12 18l-7 3v11h94q36 0 56 -13.5t20 -36.5q0 -35 -33 -48l31 -71q6 -11 18 -16l6 -2v-11h-66l-36 88h-19v-56q0 -14 13 -18l7 -3v-11h-91zM216 520h10q21 0 29.5 13t8.5 30q0 40 -38 40h-10
v-83z" />
    <glyph glyph-name="trademark" unicode="&#x2122;" horiz-adv-x="761" 
d="M330 366v15l19 6q23 9 23 33l2 188q0 22 -22 33l-10 4v16h107l81 -185l78 185h112v-16l-10 -3q-22 -9 -22 -33v-190q0 -23 21 -34l11 -4v-15h-153v15l12 5q21 9 21 33v169l-91 -222h-19l-96 220v-166q0 -24 23 -33l18 -6v-15h-105zM89 366v15l16 8q20 10 20 33v218h-23
q-24 0 -33 -22l-20 -43h-18l1 86h275l1 -86h-19l-19 43q-9 22 -33 22h-24v-218q0 -22 21 -33l16 -8v-15h-161z" />
    <glyph glyph-name="degree" unicode="&#xb0;" horiz-adv-x="328" 
d="M164 414q-34 0 -64 16t-48.5 45.5t-18.5 70.5t18.5 70.5t48.5 46t64 16.5q35 0 64.5 -16.5t48 -46t18.5 -70.5t-18.5 -70.5t-48 -45.5t-64.5 -16zM164 443q41 0 68 28.5t27 74.5t-27 74.5t-68 28.5q-40 0 -67.5 -28.5t-27.5 -74.5t27.5 -74.5t67.5 -28.5z" />
    <glyph glyph-name="bar" unicode="|" horiz-adv-x="265" 
d="M112 -250v1000h41v-1000h-41z" />
    <glyph glyph-name="brokenbar" unicode="&#xa6;" horiz-adv-x="265" 
d="M153 320h-41v430h41v-430zM112 -250v450h41v-450h-41z" />
    <glyph glyph-name="dagger" unicode="&#x2020;" horiz-adv-x="525" 
d="M250 -94q-14 105 -25 177t-17.5 120.5t-6.5 79.5q0 42 11.5 84t38.5 106l-63 -26q-22 -10 -43 -17.5t-43 -7.5q-34 0 -49.5 17.5t-15.5 44.5q0 28 15.5 45.5t49.5 17.5q22 0 43 -7t43 -17l62 -26l-25 65q-9 21 -17 45.5t-8 47.5q0 32 17.5 47.5t44.5 15.5
q28 0 45.5 -15.5t17.5 -47.5q0 -23 -7.5 -47t-17.5 -46l-25 -65l62 25q22 10 43 17.5t43 7.5q33 0 49 -17.5t16 -45.5q0 -27 -16 -44.5t-49 -17.5q-22 0 -42.5 7t-43.5 17l-63 27q26 -64 37.5 -106t11.5 -84q0 -32 -6 -80t-17 -120t-25 -177h-25z" />
    <glyph glyph-name="daggerdbl" unicode="&#x2021;" horiz-adv-x="525" 
d="M262 -99q-27 0 -44.5 15.5t-17.5 46.5q0 23 8.5 53t17.5 51l22 52l-53 -22q-22 -10 -46.5 -18t-46.5 -8q-34 0 -49.5 17.5t-15.5 45.5t15.5 45t49.5 17q22 0 46.5 -8t46.5 -17l54 -23q-25 58 -36.5 92.5t-11.5 69.5t11.5 69t36.5 92l-54 -24q-22 -9 -46.5 -17t-46.5 -8
q-34 0 -49.5 17.5t-15.5 44.5q0 28 15.5 45.5t49.5 17.5q22 0 46.5 -7.5t46.5 -17.5l53 -23l-22 52q-8 21 -17 51t-9 53q0 32 17.5 47.5t44.5 15.5q28 0 45.5 -15.5t17.5 -47.5q0 -23 -8.5 -52.5t-17.5 -51.5l-22 -52l52 23q23 9 47.5 17t46.5 8q33 0 49 -17.5t16 -45.5
q0 -27 -16 -44.5t-49 -17.5q-22 0 -46.5 7.5t-47.5 17.5l-53 24q24 -57 35.5 -91.5t11.5 -69.5q0 -36 -11.5 -70.5t-35.5 -91.5l53 23q23 10 47.5 18t46.5 8q33 0 49 -17.5t16 -45.5t-16 -45t-49 -17q-22 0 -46.5 8t-47.5 17l-52 22l22 -52q10 -21 18 -51t8 -53
q0 -31 -17.5 -46.5t-45.5 -15.5z" />
    <glyph glyph-name="estimated" unicode="&#x212e;" horiz-adv-x="800" 
d="M184 108q41 -46 97.5 -73t120.5 -27q68 0 127 30.5t101 81.5h52q-49 -60 -122.5 -96t-159.5 -36q-73 0 -137.5 26t-113 72t-76 107t-27.5 131t27.5 131t76 107t113 72t137.5 26q74 0 138 -26t112.5 -72t76 -107t27.5 -131v-8h-574q-4 0 -4 -4v-184q0 -6 2.5 -10.5
t5.5 -9.5zM180 334h440q6 0 6 6v184q0 12 -10 22q-42 44 -97 69t-117 25q-64 0 -120 -26.5t-98 -71.5q-3 -4 -5.5 -10t-2.5 -12v-180q0 -6 4 -6z" />
    <glyph glyph-name="uni0308" unicode="&#x308;" 
d="M115 582q-28 0 -49.5 18.5t-21.5 49.5q0 30 21.5 48.5t49.5 18.5q29 0 50 -18.5t21 -48.5q0 -31 -21 -49.5t-50 -18.5zM-115 582q-28 0 -49.5 18.5t-21.5 49.5q0 30 21.5 48.5t49.5 18.5q29 0 50 -18.5t21 -48.5q0 -31 -21 -49.5t-50 -18.5z" />
    <glyph glyph-name="uni0307" unicode="&#x307;" 
d="M0 576q-33 0 -56 21t-23 54q0 32 23 53t56 21t56 -21t23 -53q0 -33 -23 -54t-56 -21z" />
    <glyph glyph-name="gravecomb" unicode="&#x300;" 
d="M35 560q-23 19 -51 41t-69 53q-29 21 -42 37t-13 35q0 20 14 32t33 12q20 0 35.5 -13.5t32.5 -44.5q26 -46 44.5 -77.5t33.5 -59.5z" />
    <glyph glyph-name="acutecomb" unicode="&#x301;" 
d="M-61 575q16 28 34.5 59.5t43.5 77.5q17 31 33 44.5t36 13.5q18 0 32.5 -12t14.5 -32q0 -19 -13 -35t-42 -37q-40 -31 -69 -53t-52 -41z" />
    <glyph glyph-name="uni030B" unicode="&#x30b;" 
d="M62 556l-21 12l50 150q11 35 26 47t31 12q17 0 29.5 -11t12.5 -30q0 -24 -29 -59zM-83 556l-21 12l48 150q11 35 26 47t32 12t29.5 -11t12.5 -30q0 -21 -30 -59z" />
    <glyph glyph-name="uni0302" unicode="&#x302;" 
d="M-134 545l-18 17l139 188h26l140 -188l-19 -17l-134 107z" />
    <glyph glyph-name="uni030C" unicode="&#x30c;" 
d="M-21 567l-127 171l19 17l129 -101l129 101l19 -17l-127 -171h-42z" />
    <glyph glyph-name="uni0306" unicode="&#x306;" 
d="M0 569q-51 0 -83.5 23.5t-49 59.5t-19.5 71l25 9q17 -36 47.5 -61t79.5 -25q50 0 80.5 25.5t46.5 60.5l25 -9q-3 -35 -19.5 -71t-48.5 -59.5t-84 -23.5z" />
    <glyph glyph-name="uni030A" unicode="&#x30a;" 
d="M0 552q-46 0 -80.5 29t-34.5 81q0 51 34.5 80.5t80.5 29.5q47 0 81 -28.5t34 -81.5q0 -52 -34 -81t-81 -29zM0 582q58 0 58 80t-58 80t-58 -80t58 -80z" />
    <glyph glyph-name="tildecomb" unicode="&#x303;" 
d="M-168 586q8 64 34.5 100t67.5 36q26 0 42.5 -9t30.5 -21l32 -28t35 -14q26 0 44 18.5t29 49.5l21 -8q-8 -64 -34 -100t-66 -36q-25 0 -43.5 9t-32.5 21q-15 14 -30.5 27.5t-35.5 13.5q-25 0 -43.5 -18t-29.5 -49z" />
    <glyph glyph-name="uni0304" unicode="&#x304;" 
d="M-150 609v39h300v-39h-300z" />
    <glyph glyph-name="uni0326" unicode="&#x326;" 
d="M-74 -263l-7 18q32 13 52.5 27t32.5 37q-31 3 -49.5 21t-18.5 45t19 45t47 18q33 0 50.5 -19.5t17.5 -51.5q0 -34 -20 -61.5t-52.5 -47t-71.5 -31.5z" />
    <glyph glyph-name="uni0327" unicode="&#x327;" 
d="M-28 -88l13 87h28l-6 -51q111 -13 111 -86q0 -37 -32 -61t-95 -24q-23 0 -41 3.5t-32 8.5l5 23q14 -4 26.5 -6t25.5 -2q28 0 43 15t15 41q0 44 -61 52z" />
    <glyph glyph-name="uni0328" unicode="&#x328;" 
d="M-14 -223q-46 0 -74.5 24.5t-28.5 65.5q0 32 18.5 60t47.5 50t61 34h22q-66 -42 -66 -105q0 -32 21 -51t53 -19q17 0 32 5t27 12l9 -19q-22 -24 -53.5 -40.5t-68.5 -16.5z" />
    <glyph glyph-name="acute" unicode="&#xb4;" horiz-adv-x="400" 
d="M128 575q16 28 34.5 59.5t43.5 77.5q17 31 33 44.5t36 13.5q18 0 32.5 -12t14.5 -32q0 -19 -13 -35t-42 -37q-40 -31 -69 -53t-52 -41z" />
    <glyph glyph-name="breve" unicode="&#x2d8;" horiz-adv-x="400" 
d="M200 569q-51 0 -83.5 23.5t-49 59.5t-19.5 71l25 9q17 -36 47.5 -61t79.5 -25q50 0 80.5 25.5t46.5 60.5l25 -9q-3 -35 -19.5 -71t-48.5 -59.5t-84 -23.5z" />
    <glyph glyph-name="caron" unicode="&#x2c7;" horiz-adv-x="400" 
d="M179 567l-127 171l19 17l129 -101l129 101l19 -17l-127 -171h-42z" />
    <glyph glyph-name="cedilla" unicode="&#xb8;" horiz-adv-x="400" 
d="M144 -88l13 87h28l-6 -51q111 -13 111 -86q0 -37 -32 -61t-95 -24q-23 0 -41 3.5t-32 8.5l5 23q14 -4 26.5 -6t25.5 -2q28 0 43 15t15 41q0 44 -61 52z" />
    <glyph glyph-name="circumflex" unicode="&#x2c6;" horiz-adv-x="400" 
d="M66 545l-18 17l139 188h26l140 -188l-19 -17l-134 107z" />
    <glyph glyph-name="dieresis" unicode="&#xa8;" horiz-adv-x="400" 
d="M315 582q-28 0 -49.5 18.5t-21.5 49.5q0 30 21.5 48.5t49.5 18.5q29 0 50 -18.5t21 -48.5q0 -31 -21 -49.5t-50 -18.5zM85 582q-28 0 -49.5 18.5t-21.5 49.5q0 30 21.5 48.5t49.5 18.5q29 0 50 -18.5t21 -48.5q0 -31 -21 -49.5t-50 -18.5z" />
    <glyph glyph-name="dotaccent" unicode="&#x2d9;" horiz-adv-x="400" 
d="M200 576q-33 0 -56 21t-23 54q0 32 23 53t56 21t56 -21t23 -53q0 -33 -23 -54t-56 -21z" />
    <glyph glyph-name="grave" unicode="`" horiz-adv-x="400" 
d="M251 560q-23 19 -51 41t-69 53q-29 21 -42 37t-13 35q0 20 14 32t33 12q20 0 35.5 -13.5t32.5 -44.5q26 -46 44.5 -77.5t33.5 -59.5z" />
    <glyph glyph-name="hungarumlaut" unicode="&#x2dd;" horiz-adv-x="400" 
d="M243 556l-21 12l50 150q11 35 26 47t31 12q17 0 29.5 -11t12.5 -30q0 -24 -29 -59zM98 556l-21 12l48 150q11 35 26 47t32 12t29.5 -11t12.5 -30q0 -21 -30 -59z" />
    <glyph glyph-name="macron" unicode="&#xaf;" horiz-adv-x="400" 
d="M50 609v39h300v-39h-300z" />
    <glyph glyph-name="ogonek" unicode="&#x2db;" horiz-adv-x="400" 
d="M187 -223q-46 0 -74.5 24.5t-28.5 65.5q0 32 18.5 60t47.5 50t61 34h22q-66 -42 -66 -105q0 -32 21 -51t53 -19q17 0 32 5t27 12l9 -19q-22 -24 -53.5 -40.5t-68.5 -16.5z" />
    <glyph glyph-name="ring" unicode="&#x2da;" horiz-adv-x="400" 
d="M200 552q-46 0 -80.5 29t-34.5 81q0 51 34.5 80.5t80.5 29.5q47 0 81 -28.5t34 -81.5q0 -52 -34 -81t-81 -29zM200 582q58 0 58 80t-58 80t-58 -80t58 -80z" />
    <glyph glyph-name="tilde" unicode="&#x2dc;" horiz-adv-x="400" 
d="M34 586q8 64 34.5 100t67.5 36q26 0 42.5 -9t30.5 -21l32 -28t35 -14q26 0 44 18.5t29 49.5l21 -8q-8 -64 -34 -100t-66 -36q-25 0 -43.5 9t-32.5 21q-15 14 -30.5 27.5t-35.5 13.5q-25 0 -43.5 -18t-29.5 -49z" />
    <glyph glyph-name="uni0308.cap" 
d="M-120 723q-27 0 -48 17.5t-21 47.5q0 29 21 46.5t48 17.5q28 0 47.5 -17.5t19.5 -46.5q0 -30 -19.5 -47.5t-47.5 -17.5zM120 723q-27 0 -47.5 17.5t-20.5 47.5q0 29 20.5 46.5t47.5 17.5q28 0 48 -17.5t20 -46.5q0 -30 -20 -47.5t-48 -17.5z" />
    <glyph glyph-name="uni0307.cap" 
d="M0 718q-33 0 -56 21t-23 54q0 32 23 53t56 21t56 -21t23 -53q0 -33 -23 -54t-56 -21z" />
    <glyph glyph-name="gravecomb.cap" 
d="M64 712q-37 16 -71.5 32t-71.5 32q-31 14 -45 29t-14 31q0 17 12 29t31 12q15 0 30.5 -8.5t39.5 -34.5q24 -25 50.5 -52t51.5 -53z" />
    <glyph glyph-name="acutecomb.cap" 
d="M-77 729q26 26 52 53t51 52q24 26 39.5 34.5t30.5 8.5q19 0 31 -12t12 -29q0 -16 -13.5 -30.5t-45.5 -29.5q-37 -16 -71.5 -32t-71.5 -32z" />
    <glyph glyph-name="uni030B.cap" 
d="M57 706l-17 10l51 132q17 45 50 45q18 0 29.5 -11t11.5 -28q0 -22 -22 -44zM-100 706l-16 10l50 132q17 45 51 45q17 0 29 -11t12 -28q0 -21 -23 -44z" />
    <glyph glyph-name="uni0302.cap" 
d="M-145 697l-15 17l147 154h26l147 -154l-15 -17l-145 81z" />
    <glyph glyph-name="uni030C.cap" 
d="M-17 713l-140 148l16 16l141 -83l141 83l16 -16l-140 -148h-34z" />
    <glyph glyph-name="uni0306.cap" 
d="M0 715q-44 0 -75.5 19t-50 50.5t-23.5 66.5l21 8q15 -31 48.5 -50t79.5 -19t79 19t49 50l21 -8q-5 -35 -23.5 -66.5t-50 -50.5t-75.5 -19z" />
    <glyph glyph-name="uni030A.cap" 
d="M0 708q-40 0 -70.5 25.5t-30.5 71.5q0 44 30.5 70.5t70.5 26.5q41 0 71 -25.5t30 -71.5t-30 -71.5t-71 -25.5zM0 738q29 0 46 19.5t17 47.5q0 27 -17 46.5t-46 19.5t-46 -19.5t-17 -46.5q0 -28 17 -47.5t46 -19.5z" />
    <glyph glyph-name="tildecomb.cap" 
d="M-174 722q9 62 35 100t69 38q25 0 44 -9t35 -21q17 -14 34 -28.5t39 -14.5q26 0 43 19t28 50l22 -8q-9 -61 -34.5 -99.5t-68.5 -38.5q-25 0 -44 9t-35 21q-17 14 -34.5 28.5t-38.5 14.5q-27 0 -44.5 -19.5t-28.5 -49.5z" />
    <glyph glyph-name="uni0304.cap" 
d="M-157 760v41h314v-41h-314z" />
    </font>
</defs>
</svg>
